M48
;Layer_Color=9474304
;FILE_FORMAT=2:4
INCH,LZ
;TYPE=PLATED
T1F00S00C0.0280
T2F00S00C0.0315
T3F00S00C0.0360
T4F00S00C0.0400
T5F00S00C0.0402
T6F00S00C0.0433
T7F00S00C0.0450
T8F00S00C0.0472
T10F00S00C0.0512
T11F00S00C0.0600
%
T01
X01485Y0152
X0156Y0156
X0172Y01535
X019138Y01544
Y01465
Y01386
Y01307
Y01229
Y0115
X0161Y0134
X0246Y01307
Y01232
X0246Y0115
Y01387
Y01464
X0246Y01544
X028346Y012598
X0324Y0156
Y0216
X0322Y0266
Y0273
Y028
X0315
Y0273
Y0266
X0336Y0264
Y0276
Y0288
X0325Y0285
Y0295
X03245Y030835
X024Y0312
Y0288
Y0276
X025984Y028346
X021258Y029557
X02049Y029575
X0192Y0312
X019432Y027213
X0192Y0264
X01811Y025197
X017323
X0211Y02385
X022116Y02375
X023701Y0237
X02355Y0193
X0252Y0204
X0264Y0192
X0276Y0216
X0288
X03
Y0228
Y024
X0288Y0228
X02793Y017126
X0246Y01702
Y01622
X019138
Y01701
X01868Y020275
X017769Y02025
X0168Y0204
X016967Y019763
X01975Y020258
X0144Y0204
X0134Y02145
X012Y0204
Y024
X0132
Y0252
Y0264
Y0276
Y0288
X0144
Y03
X0132
X012
Y0288
Y0276
Y0264
Y0252
X0108
Y0264
Y0276
Y0288
Y03
Y024
Y0228
X015084Y01705
X0149Y01615
X0132Y0324
Y0372
X012598Y037795
X012Y0372
X0144
Y0384
X0132Y0396
Y0408
Y042
Y0432
X0144
X0156
Y0444
X0144
X0156Y042
X0108
Y0432
Y0408
Y0396
Y0384
X0156Y036
X0168
X018
X0192
X0204Y0372
Y0396
X024
X0252
X0264
X0276
Y0408
Y042
Y0432
X0264Y042
Y0408
X0252
Y042
X024Y0408
Y04325
X0228Y0432
X0217Y04325
X0228Y0444
Y0456
X02541Y0459
X03Y0456
X0312
Y042
Y0408
X03122Y033175
X024Y0324
X0217Y03245
X031718Y0322
X03239Y031587
X033858Y031496
X0349Y034637
Y036212
Y037787
Y039362
Y040937
X034113
X034506Y041724
X033719
X032931
X031725Y0398
X0321Y03915
X0324Y0444
T02
X032563Y0301
X03335
X02305Y027562
Y026775
X026856Y0202
X027644
X032Y0406
X032787
T03
X01854Y023778
X01955
T04
X02925Y0106
X03025Y0106
X03025Y0116
X02925Y0116
X03125Y0116
X03125Y0106
X03225Y0106
Y0116
X03325Y0116
X03325Y0106
X02885Y04425
X027078
T05
X0127Y01325
Y01425
Y01525
Y01625
T06
X01595Y018
Y019
X01495
Y018
T07
X01123Y0442
X01223Y0452
X01323Y0442
Y0462
X01123
T08
X03155Y02315
Y02415
Y02515
X0327Y034433
X0327Y035433
X0327Y036433
T10
X03155Y02215
X0327Y033433
T11
X02341Y0299
X02541
X026586Y043266
X029342
M30
