G04*
G04 #@! TF.GenerationSoftware,Altium Limited,Altium Designer,20.1.12 (249)*
G04*
G04 Layer_Color=8388736*
%FSTAX24Y24*%
%MOIN*%
G70*
G04*
G04 #@! TF.SameCoordinates,6AE243D0-3920-4146-A994-36ACE33FB78E*
G04*
G04*
G04 #@! TF.FilePolarity,Negative*
G04*
G01*
G75*
%ADD15C,0.0100*%
G04:AMPARAMS|DCode=37|XSize=39.4mil|YSize=133.9mil|CornerRadius=9.8mil|HoleSize=0mil|Usage=FLASHONLY|Rotation=90.000|XOffset=0mil|YOffset=0mil|HoleType=Round|Shape=RoundedRectangle|*
%AMROUNDEDRECTD37*
21,1,0.0394,0.1142,0,0,90.0*
21,1,0.0197,0.1339,0,0,90.0*
1,1,0.0197,0.0571,0.0098*
1,1,0.0197,0.0571,-0.0098*
1,1,0.0197,-0.0571,-0.0098*
1,1,0.0197,-0.0571,0.0098*
%
%ADD37ROUNDEDRECTD37*%
%ADD39C,0.0500*%
%ADD40C,0.0200*%
%ADD41C,0.0060*%
%ADD42R,0.2820X0.4380*%
%ADD43R,0.0513X0.0630*%
G04:AMPARAMS|DCode=44|XSize=35.6mil|YSize=78.9mil|CornerRadius=5.4mil|HoleSize=0mil|Usage=FLASHONLY|Rotation=0.000|XOffset=0mil|YOffset=0mil|HoleType=Round|Shape=RoundedRectangle|*
%AMROUNDEDRECTD44*
21,1,0.0356,0.0681,0,0,0.0*
21,1,0.0248,0.0789,0,0,0.0*
1,1,0.0108,0.0124,-0.0341*
1,1,0.0108,-0.0124,-0.0341*
1,1,0.0108,-0.0124,0.0341*
1,1,0.0108,0.0124,0.0341*
%
%ADD44ROUNDEDRECTD44*%
G04:AMPARAMS|DCode=45|XSize=78.9mil|YSize=106.4mil|CornerRadius=7.5mil|HoleSize=0mil|Usage=FLASHONLY|Rotation=0.000|XOffset=0mil|YOffset=0mil|HoleType=Round|Shape=RoundedRectangle|*
%AMROUNDEDRECTD45*
21,1,0.0789,0.0913,0,0,0.0*
21,1,0.0638,0.1064,0,0,0.0*
1,1,0.0151,0.0319,-0.0457*
1,1,0.0151,-0.0319,-0.0457*
1,1,0.0151,-0.0319,0.0457*
1,1,0.0151,0.0319,0.0457*
%
%ADD45ROUNDEDRECTD45*%
G04:AMPARAMS|DCode=46|XSize=67.1mil|YSize=106.4mil|CornerRadius=7mil|HoleSize=0mil|Usage=FLASHONLY|Rotation=0.000|XOffset=0mil|YOffset=0mil|HoleType=Round|Shape=RoundedRectangle|*
%AMROUNDEDRECTD46*
21,1,0.0671,0.0925,0,0,0.0*
21,1,0.0531,0.1064,0,0,0.0*
1,1,0.0139,0.0266,-0.0463*
1,1,0.0139,-0.0266,-0.0463*
1,1,0.0139,-0.0266,0.0463*
1,1,0.0139,0.0266,0.0463*
%
%ADD46ROUNDEDRECTD46*%
G04:AMPARAMS|DCode=47|XSize=63.1mil|YSize=78.9mil|CornerRadius=6.8mil|HoleSize=0mil|Usage=FLASHONLY|Rotation=0.000|XOffset=0mil|YOffset=0mil|HoleType=Round|Shape=RoundedRectangle|*
%AMROUNDEDRECTD47*
21,1,0.0631,0.0654,0,0,0.0*
21,1,0.0496,0.0789,0,0,0.0*
1,1,0.0135,0.0248,-0.0327*
1,1,0.0135,-0.0248,-0.0327*
1,1,0.0135,-0.0248,0.0327*
1,1,0.0135,0.0248,0.0327*
%
%ADD47ROUNDEDRECTD47*%
%ADD48R,0.0630X0.0474*%
%ADD49R,0.0671X0.0592*%
%ADD50R,0.0630X0.0513*%
%ADD51R,0.0474X0.0630*%
%ADD52R,0.0580X0.0630*%
%ADD53R,0.0630X0.0580*%
%ADD54R,0.0395X0.0552*%
%ADD55R,0.1104X0.1025*%
%ADD56R,0.1025X0.1104*%
%ADD57O,0.0946X0.0316*%
%ADD58O,0.0316X0.0946*%
G04:AMPARAMS|DCode=59|XSize=47.4mil|YSize=141.9mil|CornerRadius=13.8mil|HoleSize=0mil|Usage=FLASHONLY|Rotation=90.000|XOffset=0mil|YOffset=0mil|HoleType=Round|Shape=RoundedRectangle|*
%AMROUNDEDRECTD59*
21,1,0.0474,0.1142,0,0,90.0*
21,1,0.0197,0.1419,0,0,90.0*
1,1,0.0277,0.0571,0.0098*
1,1,0.0277,0.0571,-0.0098*
1,1,0.0277,-0.0571,-0.0098*
1,1,0.0277,-0.0571,0.0098*
%
%ADD59ROUNDEDRECTD59*%
%ADD60R,0.2206X0.1261*%
%ADD61C,0.0900*%
%ADD62C,0.0800*%
%ADD63C,0.0671*%
%ADD64R,0.0671X0.0671*%
%ADD65R,0.0671X0.0671*%
%ADD66C,0.0867*%
%ADD67R,0.0678X0.0678*%
%ADD68C,0.0678*%
%ADD69C,0.0830*%
%ADD70C,0.0880*%
%ADD71O,0.0730X0.0830*%
%ADD72C,0.0780*%
%ADD73R,0.0780X0.0780*%
%ADD74R,0.1580X0.1580*%
%ADD75C,0.1580*%
%ADD76R,0.0580X0.0580*%
%ADD77C,0.0710*%
%ADD78R,0.0710X0.0710*%
%ADD79O,0.1080X0.1680*%
%ADD80O,0.1680X0.1080*%
D15*
X145068Y034202D02*
G03*
X145192Y034296I0J000129D01*
G01*
X145068Y034202D02*
G03*
X145192Y034296I0J000129D01*
G01*
X145359Y034879D02*
G03*
X145364Y034915I-000124J000035D01*
G01*
X145359Y034879D02*
G03*
X145364Y034915I-000124J000035D01*
G01*
X145192Y038534D02*
G03*
X145068Y038627I-000124J-000036D01*
G01*
X145192Y038534D02*
G03*
X145068Y038627I-000124J-000036D01*
G01*
X145364Y037915D02*
G03*
X145359Y03795I-000129J0D01*
G01*
X145364Y037915D02*
G03*
X145359Y03795I-000129J0D01*
G01*
X13305Y04905D02*
Y04925D01*
X16055Y04905D02*
Y04925D01*
X13365Y04895D02*
X13305Y04915D01*
X13365Y04935D02*
X13305Y04915D01*
X16055D02*
X15995Y04895D01*
X16055Y04915D02*
X15995Y04935D01*
X143991Y04915D02*
X13305D01*
X16055D02*
X149609D01*
X145141Y0386D02*
X145091Y03865D01*
X142341D01*
Y0384D02*
Y03865D01*
Y034204D02*
Y0384D01*
X142343Y034202D02*
X142341Y034204D01*
X144568Y034202D02*
X142343Y034202D01*
X145068Y034202D02*
X144568D01*
X145359Y034879D02*
X145192Y034296D01*
X145068Y038627D02*
X144568D01*
X145364Y034915D02*
Y037915D01*
X145359Y03795D02*
X145192Y038533D01*
D37*
X139491Y0364D02*
D03*
D39*
X147291Y02775D02*
X145691Y02935D01*
X149759Y02775D02*
X147291D01*
X150159Y02735D02*
X149759Y02775D01*
X152491Y02735D02*
X150159D01*
X152791Y02765D02*
X152491Y02735D01*
X152791Y02765D02*
Y0291D01*
X154132Y02265D02*
X151941D01*
X151291Y0233D01*
X149541Y0248D02*
X148341Y026D01*
X141391D01*
X140691Y0267D01*
X138291D01*
X135891Y0344D02*
X134841D01*
X135541Y04125D02*
X134691Y0404D01*
Y0344D02*
Y0404D01*
D40*
X145218Y038238D02*
X145218Y034598D01*
D41*
X149109Y04879D02*
X149509D01*
X149109Y04919D01*
Y04929D01*
X149209Y04939D01*
X149409D01*
X149509Y04929D01*
X148909Y04939D02*
X148509D01*
Y04929D01*
X148909Y04889D01*
Y04879D01*
X14791Y04939D02*
X14831D01*
Y04909D01*
X14811Y04919D01*
X14801D01*
X14791Y04909D01*
Y04889D01*
X14801Y04879D01*
X14821D01*
X14831Y04889D01*
X14771Y04929D02*
X14761Y04939D01*
X14741D01*
X14731Y04929D01*
Y04889D01*
X14741Y04879D01*
X14761D01*
X14771Y04889D01*
Y04929D01*
X14631Y04879D02*
X14651Y04899D01*
Y04919D01*
X14631Y04939D01*
X14601Y04879D02*
Y04919D01*
X14591D01*
X14581Y04909D01*
Y04879D01*
Y04909D01*
X14571Y04919D01*
X14561Y04909D01*
Y04879D01*
X14541D02*
X145211D01*
X14531D01*
Y04919D01*
X14541D01*
X144911Y04879D02*
X144711D01*
X144811D01*
Y04939D01*
X144911D01*
X144411Y04879D02*
X144211Y04899D01*
Y04919D01*
X144411Y04939D01*
D42*
X143801Y036418D02*
D03*
D43*
X145635Y020354D02*
D03*
X144847D02*
D03*
X141847Y0117D02*
D03*
X142635D02*
D03*
X156447Y03895D02*
D03*
X157235D02*
D03*
X158135Y041811D02*
D03*
X157347D02*
D03*
X152897Y02499D02*
D03*
X153685D02*
D03*
X152947Y027844D02*
D03*
X153735D02*
D03*
X152947Y028602D02*
D03*
X153735D02*
D03*
X150178Y03895D02*
D03*
X149391D02*
D03*
X149403Y03805D02*
D03*
X150191D02*
D03*
X136385Y0355D02*
D03*
X135597D02*
D03*
D44*
X151335Y040444D02*
D03*
X150335D02*
D03*
X149335Y040444D02*
D03*
X151835Y040444D02*
D03*
X150835Y040444D02*
D03*
X149835Y040444D02*
D03*
D45*
X154941Y041389D02*
D03*
D46*
Y04635D02*
D03*
X14872D02*
D03*
D47*
Y041389D02*
D03*
D48*
X151943Y027896D02*
D03*
Y028796D02*
D03*
X143541Y0126D02*
D03*
Y0117D02*
D03*
X143391Y0097D02*
D03*
X143391Y0088D02*
D03*
X156741Y01995D02*
D03*
Y02085D02*
D03*
X152891Y03925D02*
D03*
Y03835D02*
D03*
X157261Y0398D02*
D03*
Y0407D02*
D03*
X145475Y044318D02*
D03*
Y045218D02*
D03*
X147591Y044296D02*
D03*
Y045196D02*
D03*
X137691Y0364D02*
D03*
Y0373D02*
D03*
X136791Y0373D02*
D03*
Y0364D02*
D03*
X148391Y019484D02*
D03*
X148391Y020384D02*
D03*
X147375Y019494D02*
D03*
Y020394D02*
D03*
X152041Y03835D02*
D03*
Y03925D02*
D03*
X151191Y03835D02*
D03*
Y03925D02*
D03*
D49*
X141591Y017876D02*
D03*
Y017128D02*
D03*
X153991Y024152D02*
D03*
Y023404D02*
D03*
D50*
X142641Y017794D02*
D03*
Y017006D02*
D03*
X143641Y017006D02*
D03*
Y017794D02*
D03*
X152473Y023384D02*
D03*
Y024171D02*
D03*
X137641Y035544D02*
D03*
Y034756D02*
D03*
D51*
X143813Y01387D02*
D03*
X142913Y01387D02*
D03*
X152091Y01625D02*
D03*
X152991D02*
D03*
X154491Y0204D02*
D03*
X153591Y0204D02*
D03*
X152041Y01379D02*
D03*
X152941D02*
D03*
D52*
X144641Y046275D02*
D03*
X145541D02*
D03*
X146654Y0463D02*
D03*
X147554D02*
D03*
D53*
X156791Y0191D02*
D03*
Y0182D02*
D03*
D54*
X154491Y014122D02*
D03*
Y016878D02*
D03*
D55*
X152031Y02655D02*
D03*
X154551D02*
D03*
D56*
X157251Y03551D02*
D03*
Y03299D02*
D03*
D57*
X1493Y033667D02*
D03*
Y0341D02*
D03*
Y034533D02*
D03*
Y034966D02*
D03*
Y035399D02*
D03*
Y035832D02*
D03*
Y033233D02*
D03*
Y0328D02*
D03*
Y032367D02*
D03*
Y031934D02*
D03*
Y031501D02*
D03*
Y031068D02*
D03*
X155481Y031068D02*
D03*
Y031501D02*
D03*
Y031934D02*
D03*
Y032367D02*
D03*
Y0328D02*
D03*
Y033233D02*
D03*
Y035832D02*
D03*
Y035399D02*
D03*
Y034966D02*
D03*
Y034533D02*
D03*
Y0341D02*
D03*
Y033667D02*
D03*
D58*
X152824Y036915D02*
D03*
X153257Y036915D02*
D03*
X15369Y036915D02*
D03*
X154123D02*
D03*
X152391Y036915D02*
D03*
X151958Y036915D02*
D03*
X151525Y036915D02*
D03*
X151092Y036915D02*
D03*
X150659D02*
D03*
Y029985D02*
D03*
X151092D02*
D03*
X151525Y029985D02*
D03*
X151958Y029985D02*
D03*
X152391Y029985D02*
D03*
X154123Y029985D02*
D03*
X15369D02*
D03*
X153257Y029985D02*
D03*
X152824Y029985D02*
D03*
D59*
X139491Y037739D02*
D03*
Y037069D02*
D03*
Y035731D02*
D03*
Y035061D02*
D03*
D60*
X140191Y031979D02*
D03*
Y028121D02*
D03*
D61*
X156261Y0442D02*
D03*
X158261D02*
D03*
Y0462D02*
D03*
X156261D02*
D03*
D62*
X157261Y0452D02*
D03*
D63*
X142635Y0202D02*
D03*
X137491Y0406D02*
D03*
X146441Y027562D02*
D03*
X136141Y0301D02*
D03*
D64*
X141847Y0202D02*
D03*
X136703Y0406D02*
D03*
X136928Y0301D02*
D03*
D65*
X146441Y026775D02*
D03*
D66*
X137941Y02315D02*
D03*
Y02515D02*
D03*
Y02215D02*
D03*
Y02415D02*
D03*
X136791Y034433D02*
D03*
Y036433D02*
D03*
Y033433D02*
D03*
X136791Y035433D02*
D03*
D67*
X156791Y01325D02*
D03*
D68*
Y01425D02*
D03*
Y01525D02*
D03*
Y01625D02*
D03*
D69*
X140641Y04425D02*
D03*
X142413D02*
D03*
D70*
X142905Y043266D02*
D03*
X140149D02*
D03*
D71*
X149941Y023778D02*
D03*
X150951D02*
D03*
D72*
X139241Y0106D02*
D03*
X136241Y0106D02*
D03*
X140241Y0116D02*
D03*
X140241Y0106D02*
D03*
X139241Y0116D02*
D03*
X138241Y0116D02*
D03*
X137241Y0116D02*
D03*
Y0106D02*
D03*
X138241Y0106D02*
D03*
D73*
X136241Y0116D02*
D03*
D74*
X14408Y0299D02*
D03*
D75*
X14608D02*
D03*
D76*
X150353Y01465D02*
D03*
Y01701D02*
D03*
Y01622D02*
D03*
Y01544D02*
D03*
Y01386D02*
D03*
Y01307D02*
D03*
Y01229D02*
D03*
Y0115D02*
D03*
X144891D02*
D03*
Y01702D02*
D03*
Y01622D02*
D03*
X144891Y01544D02*
D03*
X144891Y01464D02*
D03*
Y01387D02*
D03*
X144891Y01307D02*
D03*
Y01232D02*
D03*
D77*
X153541Y018D02*
D03*
Y019D02*
D03*
X154541Y018D02*
D03*
D78*
Y019D02*
D03*
D79*
X138291Y0436D02*
D03*
D80*
X136291Y0451D02*
D03*
Y0426D02*
D03*
M02*
