G04*
G04 #@! TF.GenerationSoftware,Altium Limited,Altium Designer,20.1.12 (249)*
G04*
G04 Layer_Color=255*
%FSTAX24Y24*%
%MOIN*%
G70*
G04*
G04 #@! TF.SameCoordinates,6AE243D0-3920-4146-A994-36ACE33FB78E*
G04*
G04*
G04 #@! TF.FilePolarity,Positive*
G04*
G01*
G75*
%ADD62C,0.0800*%
%ADD87C,0.0820*%
%ADD88C,0.0720*%
%ADD89C,0.0591*%
%ADD90R,0.0591X0.0591*%
%ADD91R,0.0591X0.0591*%
%ADD92C,0.0787*%
%ADD93R,0.0598X0.0598*%
%ADD94C,0.0598*%
%ADD95C,0.0750*%
%ADD96O,0.0650X0.0750*%
%ADD97C,0.0700*%
%ADD98R,0.0700X0.0700*%
%ADD99R,0.1500X0.1500*%
%ADD100C,0.1500*%
%ADD101R,0.0500X0.0500*%
%ADD102C,0.0630*%
%ADD103R,0.0630X0.0630*%
%ADD104O,0.1000X0.1600*%
%ADD105O,0.1600X0.1000*%
D62*
X142905Y043266D02*
D03*
X140149D02*
D03*
D87*
X156261Y0442D02*
D03*
X158261D02*
D03*
Y0462D02*
D03*
X156261D02*
D03*
D88*
X157261Y0452D02*
D03*
D89*
X142635Y0202D02*
D03*
X137491Y0406D02*
D03*
X146441Y027562D02*
D03*
X136141Y0301D02*
D03*
D90*
X141847Y0202D02*
D03*
X136703Y0406D02*
D03*
X136928Y0301D02*
D03*
D91*
X146441Y026775D02*
D03*
D92*
X137941Y02315D02*
D03*
Y02515D02*
D03*
Y02215D02*
D03*
Y02415D02*
D03*
X136791Y034433D02*
D03*
Y036433D02*
D03*
Y033433D02*
D03*
X136791Y035433D02*
D03*
D93*
X156791Y01325D02*
D03*
D94*
Y01425D02*
D03*
Y01525D02*
D03*
Y01625D02*
D03*
D95*
X140641Y04425D02*
D03*
X142413D02*
D03*
D96*
X149941Y023778D02*
D03*
X150951D02*
D03*
D97*
X139241Y0106D02*
D03*
X136241Y0106D02*
D03*
X140241Y0116D02*
D03*
X140241Y0106D02*
D03*
X139241Y0116D02*
D03*
X138241Y0116D02*
D03*
X137241Y0116D02*
D03*
Y0106D02*
D03*
X138241Y0106D02*
D03*
D98*
X136241Y0116D02*
D03*
D99*
X14408Y0299D02*
D03*
D100*
X14608D02*
D03*
D101*
X150353Y01465D02*
D03*
Y01701D02*
D03*
Y01622D02*
D03*
Y01544D02*
D03*
Y01386D02*
D03*
Y01307D02*
D03*
Y01229D02*
D03*
Y0115D02*
D03*
X144891D02*
D03*
Y01702D02*
D03*
Y01622D02*
D03*
X144891Y01544D02*
D03*
X144891Y01464D02*
D03*
Y01387D02*
D03*
X144891Y01307D02*
D03*
Y01232D02*
D03*
D102*
X153541Y018D02*
D03*
Y019D02*
D03*
X154541Y018D02*
D03*
D103*
Y019D02*
D03*
D104*
X138291Y0436D02*
D03*
D105*
X136291Y0451D02*
D03*
Y0426D02*
D03*
M02*
