G04*
G04 #@! TF.GenerationSoftware,Altium Limited,Altium Designer,20.1.12 (249)*
G04*
G04 Layer_Color=128*
%FSTAX24Y24*%
%MOIN*%
G70*
G04*
G04 #@! TF.SameCoordinates,6AE243D0-3920-4146-A994-36ACE33FB78E*
G04*
G04*
G04 #@! TF.FilePolarity,Positive*
G04*
G01*
G75*
%ADD108C,0.0020*%
D108*
X013005Y0442D02*
X013455D01*
X01323Y043975D02*
Y044425D01*
X011005Y0442D02*
X011455D01*
X01123Y043975D02*
Y044425D01*
X011005Y0462D02*
X011455D01*
X01123Y045975D02*
Y046425D01*
X013005Y0462D02*
X013455D01*
X01323Y045975D02*
Y046425D01*
X012005Y0452D02*
X012455D01*
X01223Y044975D02*
Y045425D01*
X026699Y0202D02*
X027014D01*
X026856Y020043D02*
Y020357D01*
X027486Y0202D02*
X027801D01*
X027644Y020043D02*
Y020357D01*
X031843Y0406D02*
X032157D01*
X032Y040443D02*
Y040757D01*
X03263Y0406D02*
X032945D01*
X032787Y040443D02*
Y040757D01*
X022893Y027562D02*
X023207D01*
X02305Y027405D02*
Y02772D01*
X022893Y026775D02*
X023207D01*
X02305Y026618D02*
Y026933D01*
X031314Y02315D02*
X031786D01*
X03155Y022914D02*
Y023386D01*
X031314Y02515D02*
X031786D01*
X03155Y024914D02*
Y025386D01*
X031294Y02215D02*
X031806D01*
X03155Y021894D02*
Y022406D01*
X031314Y02415D02*
X031786D01*
X03155Y023914D02*
Y024386D01*
X012499Y01325D02*
X012901D01*
X0127Y013049D02*
Y013451D01*
X012499Y01425D02*
X012901D01*
X0127Y014049D02*
Y014451D01*
X012499Y01525D02*
X012901D01*
X0127Y015049D02*
Y015451D01*
X012499Y01625D02*
X012901D01*
X0127Y016049D02*
Y016451D01*
X02865Y04425D02*
X02905D01*
X02885Y04405D02*
Y04445D01*
X026286Y043266D02*
X026886D01*
X026586Y042966D02*
Y043566D01*
X029042Y043266D02*
X029642D01*
X029342Y042966D02*
Y043566D01*
X026878Y04425D02*
X027278D01*
X027078Y04405D02*
Y04445D01*
X01937Y023778D02*
X01973D01*
X01955Y023598D02*
Y023958D01*
X01836Y023778D02*
X01872D01*
X01854Y023598D02*
Y023958D01*
X032464Y034433D02*
X032936D01*
X0327Y034197D02*
Y034669D01*
X032464Y036433D02*
X032936D01*
X0327Y036197D02*
Y036669D01*
X032444Y033433D02*
X032956D01*
X0327Y033177D02*
Y033689D01*
X032464Y035433D02*
X032936D01*
X0327Y035197D02*
Y035669D01*
X03005Y0106D02*
X03045D01*
X03025Y0104D02*
Y0108D01*
X03305Y0106D02*
X03345D01*
X03325Y0104D02*
Y0108D01*
X02905Y0116D02*
X02945D01*
X02925Y0114D02*
Y0118D01*
X02905Y0106D02*
X02945D01*
X02925Y0104D02*
Y0108D01*
X03305Y0116D02*
X03345D01*
X03325Y0114D02*
Y0118D01*
X03005Y0116D02*
X03045D01*
X03025Y0114D02*
Y0118D01*
X03105Y0116D02*
X03145D01*
X03125Y0114D02*
Y0118D01*
X03205Y0116D02*
X03245D01*
X03225Y0114D02*
Y0118D01*
X03205Y0106D02*
X03245D01*
X03225Y0104D02*
Y0108D01*
X03105Y0106D02*
X03145D01*
X03125Y0104D02*
Y0108D01*
X02511Y0299D02*
X02571D01*
X02541Y0296D02*
Y0302D01*
X02311Y0299D02*
X02371D01*
X02341Y0296D02*
Y0302D01*
X032405Y0301D02*
X03272D01*
X032563Y029943D02*
Y030257D01*
X033193Y0301D02*
X033507D01*
X03335Y029943D02*
Y030257D01*
X018998Y01465D02*
X019278D01*
X019138Y01451D02*
Y01479D01*
X018998Y01701D02*
X019278D01*
X019138Y01687D02*
Y01715D01*
X018998Y01622D02*
X019278D01*
X019138Y01608D02*
Y01636D01*
X018998Y01544D02*
X019278D01*
X019138Y0153D02*
Y01558D01*
X018998Y01386D02*
X019278D01*
X019138Y01372D02*
Y014D01*
X018998Y01307D02*
X019278D01*
X019138Y01293D02*
Y01321D01*
X018998Y01229D02*
X019278D01*
X019138Y01215D02*
Y01243D01*
X018998Y0115D02*
X019278D01*
X019138Y01136D02*
Y01164D01*
X02446Y0115D02*
X02474D01*
X0246Y01136D02*
Y01164D01*
X02446Y01702D02*
X02474D01*
X0246Y01688D02*
Y01716D01*
X02446Y01622D02*
X02474D01*
X0246Y01608D02*
Y01636D01*
X02446Y01544D02*
X02474D01*
X0246Y0153D02*
Y01558D01*
X02446Y01464D02*
X02474D01*
X0246Y0145D02*
Y01478D01*
X02446Y01387D02*
X02474D01*
X0246Y01373D02*
Y01401D01*
X02446Y01307D02*
X02474D01*
X0246Y01293D02*
Y01321D01*
X02446Y01232D02*
X02474D01*
X0246Y01218D02*
Y01246D01*
X015733Y018D02*
X016167D01*
X01595Y017783D02*
Y018217D01*
X015733Y019D02*
X016167D01*
X01595Y018783D02*
Y019217D01*
X014733Y019D02*
X015167D01*
X01495Y018783D02*
Y019217D01*
X014733Y018D02*
X015167D01*
X01495Y017783D02*
Y018217D01*
X03095Y0436D02*
X03145D01*
X0312Y04335D02*
Y04385D01*
X03295Y0451D02*
X03345D01*
X0332Y04485D02*
Y04535D01*
X03295Y0426D02*
X03345D01*
X0332Y04235D02*
Y04285D01*
X03346Y0288D02*
X03374D01*
X0336Y02866D02*
Y02894D01*
X03346Y0276D02*
X03374D01*
X0336Y02746D02*
Y02774D01*
X03346Y0264D02*
X03374D01*
X0336Y02626D02*
Y02654D01*
X03226Y0444D02*
X03254D01*
X0324Y04426D02*
Y04454D01*
X03226Y0216D02*
X03254D01*
X0324Y02146D02*
Y02174D01*
X03226Y0156D02*
X03254D01*
X0324Y01546D02*
Y01574D01*
X03106Y0456D02*
X03134D01*
X0312Y04546D02*
Y04574D01*
X03106Y042D02*
X03134D01*
X0312Y04186D02*
Y04214D01*
X03106Y0408D02*
X03134D01*
X0312Y04066D02*
Y04094D01*
X02986Y0456D02*
X03014D01*
X03Y04546D02*
Y04574D01*
X02986Y024D02*
X03014D01*
X03Y02386D02*
Y02414D01*
X02986Y0228D02*
X03014D01*
X03Y02266D02*
Y02294D01*
X02986Y0216D02*
X03014D01*
X03Y02146D02*
Y02174D01*
X02866Y0228D02*
X02894D01*
X0288Y02266D02*
Y02294D01*
X02866Y0216D02*
X02894D01*
X0288Y02146D02*
Y02174D01*
X02746Y0432D02*
X02774D01*
X0276Y04306D02*
Y04334D01*
X02746Y042D02*
X02774D01*
X0276Y04186D02*
Y04214D01*
X02746Y0408D02*
X02774D01*
X0276Y04066D02*
Y04094D01*
X02746Y0396D02*
X02774D01*
X0276Y03946D02*
Y03974D01*
X02746Y0216D02*
X02774D01*
X0276Y02146D02*
Y02174D01*
X02626Y042D02*
X02654D01*
X0264Y04186D02*
Y04214D01*
X02626Y0408D02*
X02654D01*
X0264Y04066D02*
Y04094D01*
X02626Y0396D02*
X02654D01*
X0264Y03946D02*
Y03974D01*
X02626Y0192D02*
X02654D01*
X0264Y01906D02*
Y01934D01*
X02506Y042D02*
X02534D01*
X0252Y04186D02*
Y04214D01*
X02506Y0408D02*
X02534D01*
X0252Y04066D02*
Y04094D01*
X02506Y0396D02*
X02534D01*
X0252Y03946D02*
Y03974D01*
X02506Y0204D02*
X02534D01*
X0252Y02026D02*
Y02054D01*
X02386Y0408D02*
X02414D01*
X024Y04066D02*
Y04094D01*
X02386Y0396D02*
X02414D01*
X024Y03946D02*
Y03974D01*
X02386Y0324D02*
X02414D01*
X024Y03226D02*
Y03254D01*
X02386Y0312D02*
X02414D01*
X024Y03106D02*
Y03134D01*
X02386Y0288D02*
X02414D01*
X024Y02866D02*
Y02894D01*
X02386Y0276D02*
X02414D01*
X024Y02746D02*
Y02774D01*
X02266Y0456D02*
X02294D01*
X0228Y04546D02*
Y04574D01*
X02266Y0444D02*
X02294D01*
X0228Y04426D02*
Y04454D01*
X02266Y0432D02*
X02294D01*
X0228Y04306D02*
Y04334D01*
X02026Y0396D02*
X02054D01*
X0204Y03946D02*
Y03974D01*
X02026Y0372D02*
X02054D01*
X0204Y03706D02*
Y03734D01*
X01906Y036D02*
X01934D01*
X0192Y03586D02*
Y03614D01*
X01906Y0312D02*
X01934D01*
X0192Y03106D02*
Y03134D01*
X01906Y0264D02*
X01934D01*
X0192Y02626D02*
Y02654D01*
X01786Y036D02*
X01814D01*
X018Y03586D02*
Y03614D01*
X01666Y036D02*
X01694D01*
X0168Y03586D02*
Y03614D01*
X01666Y0204D02*
X01694D01*
X0168Y02026D02*
Y02054D01*
X01546Y0444D02*
X01574D01*
X0156Y04426D02*
Y04454D01*
X01546Y0432D02*
X01574D01*
X0156Y04306D02*
Y04334D01*
X01546Y042D02*
X01574D01*
X0156Y04186D02*
Y04214D01*
X01546Y036D02*
X01574D01*
X0156Y03586D02*
Y03614D01*
X01546Y0156D02*
X01574D01*
X0156Y01546D02*
Y01574D01*
X01426Y0444D02*
X01454D01*
X0144Y04426D02*
Y04454D01*
X01426Y0432D02*
X01454D01*
X0144Y04306D02*
Y04334D01*
X01426Y0384D02*
X01454D01*
X0144Y03826D02*
Y03854D01*
X01426Y0372D02*
X01454D01*
X0144Y03706D02*
Y03734D01*
X01426Y03D02*
X01454D01*
X0144Y02986D02*
Y03014D01*
X01426Y0288D02*
X01454D01*
X0144Y02866D02*
Y02894D01*
X01426Y0204D02*
X01454D01*
X0144Y02026D02*
Y02054D01*
X01306Y0432D02*
X01334D01*
X0132Y04306D02*
Y04334D01*
X01306Y042D02*
X01334D01*
X0132Y04186D02*
Y04214D01*
X01306Y0408D02*
X01334D01*
X0132Y04066D02*
Y04094D01*
X01306Y0396D02*
X01334D01*
X0132Y03946D02*
Y03974D01*
X01306Y0372D02*
X01334D01*
X0132Y03706D02*
Y03734D01*
X01306Y0324D02*
X01334D01*
X0132Y03226D02*
Y03254D01*
X01306Y03D02*
X01334D01*
X0132Y02986D02*
Y03014D01*
X01306Y0288D02*
X01334D01*
X0132Y02866D02*
Y02894D01*
X01306Y0276D02*
X01334D01*
X0132Y02746D02*
Y02774D01*
X01306Y0264D02*
X01334D01*
X0132Y02626D02*
Y02654D01*
X01306Y0252D02*
X01334D01*
X0132Y02506D02*
Y02534D01*
X01306Y024D02*
X01334D01*
X0132Y02386D02*
Y02414D01*
X01186Y0372D02*
X01214D01*
X012Y03706D02*
Y03734D01*
X01186Y03D02*
X01214D01*
X012Y02986D02*
Y03014D01*
X01186Y0288D02*
X01214D01*
X012Y02866D02*
Y02894D01*
X01186Y0276D02*
X01214D01*
X012Y02746D02*
Y02774D01*
X01186Y0264D02*
X01214D01*
X012Y02626D02*
Y02654D01*
X01186Y0252D02*
X01214D01*
X012Y02506D02*
Y02534D01*
X01186Y024D02*
X01214D01*
X012Y02386D02*
Y02414D01*
X01186Y0204D02*
X01214D01*
X012Y02026D02*
Y02054D01*
X01066Y0432D02*
X01094D01*
X0108Y04306D02*
Y04334D01*
X01066Y042D02*
X01094D01*
X0108Y04186D02*
Y04214D01*
X01066Y0408D02*
X01094D01*
X0108Y04066D02*
Y04094D01*
X01066Y0396D02*
X01094D01*
X0108Y03946D02*
Y03974D01*
X01066Y0384D02*
X01094D01*
X0108Y03826D02*
Y03854D01*
X01066Y03D02*
X01094D01*
X0108Y02986D02*
Y03014D01*
X01066Y0288D02*
X01094D01*
X0108Y02866D02*
Y02894D01*
X01066Y0276D02*
X01094D01*
X0108Y02746D02*
Y02774D01*
X01066Y0264D02*
X01094D01*
X0108Y02626D02*
Y02654D01*
X01066Y0252D02*
X01094D01*
X0108Y02506D02*
Y02534D01*
X01066Y024D02*
X01094D01*
X0108Y02386D02*
Y02414D01*
X01066Y0228D02*
X01094D01*
X0108Y02266D02*
Y02294D01*
X02035Y029575D02*
X02063D01*
X02049Y029435D02*
Y029715D01*
X02156Y03245D02*
X02184D01*
X0217Y03231D02*
Y03259D01*
X021118Y029557D02*
X021398D01*
X021258Y029417D02*
Y029697D01*
X02386Y04325D02*
X02414D01*
X024Y04311D02*
Y04339D01*
X02527Y0459D02*
X02555D01*
X02541Y04576D02*
Y04604D01*
X03236Y0295D02*
X03264D01*
X0325Y02936D02*
Y02964D01*
X03236Y0285D02*
X03264D01*
X0325Y02836D02*
Y02864D01*
X03231Y030835D02*
X03259D01*
X03245Y030695D02*
Y030975D01*
X03225Y031587D02*
X03253D01*
X03239Y031447D02*
Y031727D01*
X031578Y0322D02*
X031858D01*
X031718Y03206D02*
Y03234D01*
X03108Y033175D02*
X03136D01*
X03122Y033035D02*
Y033315D01*
X02156Y04325D02*
X02184D01*
X0217Y04311D02*
Y04339D01*
X034366Y041724D02*
X034646D01*
X034506Y041584D02*
Y041864D01*
X03476Y040937D02*
X03504D01*
X0349Y040797D02*
Y041077D01*
X03476Y039362D02*
X03504D01*
X0349Y039222D02*
Y039502D01*
X03476Y037787D02*
X03504D01*
X0349Y037647D02*
Y037927D01*
X03476Y036212D02*
X03504D01*
X0349Y036072D02*
Y036352D01*
X03476Y034637D02*
X03504D01*
X0349Y034497D02*
Y034777D01*
X033579Y041724D02*
X033859D01*
X033719Y041584D02*
Y041864D01*
X033973Y040937D02*
X034253D01*
X034113Y040797D02*
Y041077D01*
X032791Y041724D02*
X033071D01*
X032931Y041584D02*
Y041864D01*
X033718Y031496D02*
X033998D01*
X033858Y031356D02*
Y031636D01*
X028206Y012598D02*
X028486D01*
X028346Y012458D02*
Y012738D01*
X025844Y028346D02*
X026124D01*
X025984Y028206D02*
Y028486D01*
X01797Y025197D02*
X01825D01*
X01811Y025057D02*
Y025337D01*
X017183Y025197D02*
X017463D01*
X017323Y025057D02*
Y025337D01*
X012458Y037795D02*
X012738D01*
X012598Y037655D02*
Y037935D01*
X03206Y028D02*
X03234D01*
X0322Y02786D02*
Y02814D01*
X03206Y0273D02*
X03234D01*
X0322Y02716D02*
Y02744D01*
X03206Y0266D02*
X03234D01*
X0322Y02646D02*
Y02674D01*
X03136Y028D02*
X03164D01*
X0315Y02786D02*
Y02814D01*
X03136Y0273D02*
X03164D01*
X0315Y02716D02*
Y02744D01*
X03136Y0266D02*
X03164D01*
X0315Y02646D02*
Y02674D01*
X03196Y03915D02*
X03224D01*
X0321Y03901D02*
Y03929D01*
X019292Y027213D02*
X019572D01*
X019432Y027073D02*
Y027353D01*
X01961Y020258D02*
X01989D01*
X01975Y020118D02*
Y020398D01*
X01854Y020275D02*
X01882D01*
X01868Y020135D02*
Y020415D01*
X017629Y02025D02*
X017909D01*
X017769Y02011D02*
Y02039D01*
X016827Y019763D02*
X017107D01*
X016967Y019623D02*
Y019903D01*
X01471Y0152D02*
X01499D01*
X01485Y01506D02*
Y01534D01*
X01476Y01615D02*
X01504D01*
X0149Y01601D02*
Y01629D01*
X014944Y01705D02*
X015224D01*
X015084Y01691D02*
Y01719D01*
X02779Y017126D02*
X02807D01*
X02793Y016986D02*
Y017266D01*
X02341Y0193D02*
X02369D01*
X02355Y01916D02*
Y01944D01*
X01706Y01535D02*
X01734D01*
X0172Y01521D02*
Y01549D01*
X02096Y02385D02*
X02124D01*
X0211Y02371D02*
Y02399D01*
X021976Y02375D02*
X022256D01*
X022116Y02361D02*
Y02389D01*
X031585Y0398D02*
X031865D01*
X031725Y03966D02*
Y03994D01*
X023561Y0237D02*
X023841D01*
X023701Y02356D02*
Y02384D01*
X01326Y02145D02*
X01354D01*
X0134Y02131D02*
Y02159D01*
X01596Y0134D02*
X01624D01*
X0161Y01326D02*
Y01354D01*
M02*
