G04*
G04 #@! TF.GenerationSoftware,Altium Limited,Altium Designer,20.1.12 (249)*
G04*
G04 Layer_Color=8421504*
%FSTAX24Y24*%
%MOIN*%
G70*
G04*
G04 #@! TF.SameCoordinates,6AE243D0-3920-4146-A994-36ACE33FB78E*
G04*
G04*
G04 #@! TF.FilePolarity,Positive*
G04*
G01*
G75*
%ADD21R,0.0433X0.0550*%
G04:AMPARAMS|DCode=22|XSize=27.6mil|YSize=70.9mil|CornerRadius=1.4mil|HoleSize=0mil|Usage=FLASHONLY|Rotation=0.000|XOffset=0mil|YOffset=0mil|HoleType=Round|Shape=RoundedRectangle|*
%AMROUNDEDRECTD22*
21,1,0.0276,0.0681,0,0,0.0*
21,1,0.0248,0.0709,0,0,0.0*
1,1,0.0028,0.0124,-0.0341*
1,1,0.0028,-0.0124,-0.0341*
1,1,0.0028,-0.0124,0.0341*
1,1,0.0028,0.0124,0.0341*
%
%ADD22ROUNDEDRECTD22*%
G04:AMPARAMS|DCode=23|XSize=70.9mil|YSize=98.4mil|CornerRadius=3.5mil|HoleSize=0mil|Usage=FLASHONLY|Rotation=0.000|XOffset=0mil|YOffset=0mil|HoleType=Round|Shape=RoundedRectangle|*
%AMROUNDEDRECTD23*
21,1,0.0709,0.0913,0,0,0.0*
21,1,0.0638,0.0984,0,0,0.0*
1,1,0.0071,0.0319,-0.0457*
1,1,0.0071,-0.0319,-0.0457*
1,1,0.0071,-0.0319,0.0457*
1,1,0.0071,0.0319,0.0457*
%
%ADD23ROUNDEDRECTD23*%
G04:AMPARAMS|DCode=24|XSize=59.1mil|YSize=98.4mil|CornerRadius=3mil|HoleSize=0mil|Usage=FLASHONLY|Rotation=0.000|XOffset=0mil|YOffset=0mil|HoleType=Round|Shape=RoundedRectangle|*
%AMROUNDEDRECTD24*
21,1,0.0591,0.0925,0,0,0.0*
21,1,0.0531,0.0984,0,0,0.0*
1,1,0.0059,0.0266,-0.0463*
1,1,0.0059,-0.0266,-0.0463*
1,1,0.0059,-0.0266,0.0463*
1,1,0.0059,0.0266,0.0463*
%
%ADD24ROUNDEDRECTD24*%
G04:AMPARAMS|DCode=25|XSize=55.1mil|YSize=70.9mil|CornerRadius=2.8mil|HoleSize=0mil|Usage=FLASHONLY|Rotation=0.000|XOffset=0mil|YOffset=0mil|HoleType=Round|Shape=RoundedRectangle|*
%AMROUNDEDRECTD25*
21,1,0.0551,0.0654,0,0,0.0*
21,1,0.0496,0.0709,0,0,0.0*
1,1,0.0055,0.0248,-0.0327*
1,1,0.0055,-0.0248,-0.0327*
1,1,0.0055,-0.0248,0.0327*
1,1,0.0055,0.0248,0.0327*
%
%ADD25ROUNDEDRECTD25*%
%ADD26R,0.0550X0.0394*%
%ADD27R,0.0591X0.0512*%
%ADD28R,0.0550X0.0433*%
%ADD29R,0.0394X0.0550*%
%ADD30R,0.0500X0.0550*%
%ADD31R,0.0550X0.0500*%
%ADD32R,0.0315X0.0472*%
%ADD33R,0.1024X0.0945*%
%ADD34R,0.0945X0.1024*%
%ADD35O,0.0866X0.0236*%
%ADD36O,0.0236X0.0866*%
G04:AMPARAMS|DCode=37|XSize=39.4mil|YSize=133.9mil|CornerRadius=9.8mil|HoleSize=0mil|Usage=FLASHONLY|Rotation=90.000|XOffset=0mil|YOffset=0mil|HoleType=Round|Shape=RoundedRectangle|*
%AMROUNDEDRECTD37*
21,1,0.0394,0.1142,0,0,90.0*
21,1,0.0197,0.1339,0,0,90.0*
1,1,0.0197,0.0571,0.0098*
1,1,0.0197,0.0571,-0.0098*
1,1,0.0197,-0.0571,-0.0098*
1,1,0.0197,-0.0571,0.0098*
%
%ADD37ROUNDEDRECTD37*%
%ADD38R,0.2126X0.1181*%
D21*
X145635Y020354D02*
D03*
X144847D02*
D03*
X141847Y0117D02*
D03*
X142635D02*
D03*
X156447Y03895D02*
D03*
X157235D02*
D03*
X158135Y041811D02*
D03*
X157347D02*
D03*
X152897Y02499D02*
D03*
X153685D02*
D03*
X152947Y027844D02*
D03*
X153735D02*
D03*
X152947Y028602D02*
D03*
X153735D02*
D03*
X150178Y03895D02*
D03*
X149391D02*
D03*
X149403Y03805D02*
D03*
X150191D02*
D03*
X136385Y0355D02*
D03*
X135597D02*
D03*
D22*
X151335Y040444D02*
D03*
X150335D02*
D03*
X149335Y040444D02*
D03*
X151835Y040444D02*
D03*
X150835Y040444D02*
D03*
X149835Y040444D02*
D03*
D23*
X154941Y041389D02*
D03*
D24*
Y04635D02*
D03*
X14872D02*
D03*
D25*
Y041389D02*
D03*
D26*
X151943Y027896D02*
D03*
Y028796D02*
D03*
X143541Y0126D02*
D03*
Y0117D02*
D03*
X143391Y0097D02*
D03*
X143391Y0088D02*
D03*
X156741Y01995D02*
D03*
Y02085D02*
D03*
X152891Y03925D02*
D03*
Y03835D02*
D03*
X157261Y0398D02*
D03*
Y0407D02*
D03*
X145475Y044318D02*
D03*
Y045218D02*
D03*
X147591Y044296D02*
D03*
Y045196D02*
D03*
X137691Y0364D02*
D03*
Y0373D02*
D03*
X136791Y0373D02*
D03*
Y0364D02*
D03*
X148391Y019484D02*
D03*
X148391Y020384D02*
D03*
X147375Y019494D02*
D03*
Y020394D02*
D03*
X152041Y03835D02*
D03*
Y03925D02*
D03*
X151191Y03835D02*
D03*
Y03925D02*
D03*
D27*
X141591Y017876D02*
D03*
Y017128D02*
D03*
X153991Y024152D02*
D03*
Y023404D02*
D03*
D28*
X142641Y017794D02*
D03*
Y017006D02*
D03*
X143641Y017006D02*
D03*
Y017794D02*
D03*
X152473Y023384D02*
D03*
Y024171D02*
D03*
X137641Y035544D02*
D03*
Y034756D02*
D03*
D29*
X143813Y01387D02*
D03*
X142913Y01387D02*
D03*
X152091Y01625D02*
D03*
X152991D02*
D03*
X154491Y0204D02*
D03*
X153591Y0204D02*
D03*
X152041Y01379D02*
D03*
X152941D02*
D03*
D30*
X144641Y046275D02*
D03*
X145541D02*
D03*
X146654Y0463D02*
D03*
X147554D02*
D03*
D31*
X156791Y0191D02*
D03*
Y0182D02*
D03*
D32*
X154491Y014122D02*
D03*
Y016878D02*
D03*
D33*
X152031Y02655D02*
D03*
X154551D02*
D03*
D34*
X157251Y03551D02*
D03*
Y03299D02*
D03*
D35*
X1493Y033667D02*
D03*
Y0341D02*
D03*
Y034533D02*
D03*
Y034966D02*
D03*
Y035399D02*
D03*
Y035832D02*
D03*
Y033233D02*
D03*
Y0328D02*
D03*
Y032367D02*
D03*
Y031934D02*
D03*
Y031501D02*
D03*
Y031068D02*
D03*
X155481Y031068D02*
D03*
Y031501D02*
D03*
Y031934D02*
D03*
Y032367D02*
D03*
Y0328D02*
D03*
Y033233D02*
D03*
Y035832D02*
D03*
Y035399D02*
D03*
Y034966D02*
D03*
Y034533D02*
D03*
Y0341D02*
D03*
Y033667D02*
D03*
D36*
X152824Y036915D02*
D03*
X153257Y036915D02*
D03*
X15369Y036915D02*
D03*
X154123D02*
D03*
X152391Y036915D02*
D03*
X151958Y036915D02*
D03*
X151525Y036915D02*
D03*
X151092Y036915D02*
D03*
X150659D02*
D03*
Y029985D02*
D03*
X151092D02*
D03*
X151525Y029985D02*
D03*
X151958Y029985D02*
D03*
X152391Y029985D02*
D03*
X154123Y029985D02*
D03*
X15369D02*
D03*
X153257Y029985D02*
D03*
X152824Y029985D02*
D03*
D37*
X139491Y037739D02*
D03*
Y0364D02*
D03*
Y037069D02*
D03*
Y035731D02*
D03*
Y035061D02*
D03*
D38*
X140191Y031979D02*
D03*
Y028121D02*
D03*
M02*
