G04*
G04 #@! TF.GenerationSoftware,Altium Limited,Altium Designer,20.1.12 (249)*
G04*
G04 Layer_Color=16711935*
%FSTAX24Y24*%
%MOIN*%
G70*
G04*
G04 #@! TF.SameCoordinates,6AE243D0-3920-4146-A994-36ACE33FB78E*
G04*
G04*
G04 #@! TF.FilePolarity,Negative*
G04*
G01*
G75*
%ADD39C,0.0500*%
%ADD61C,0.0900*%
%ADD62C,0.0800*%
%ADD63C,0.0671*%
%ADD64R,0.0671X0.0671*%
%ADD65R,0.0671X0.0671*%
%ADD66C,0.0867*%
%ADD67R,0.0678X0.0678*%
%ADD68C,0.0678*%
%ADD69C,0.0830*%
%ADD70C,0.0880*%
%ADD71O,0.0730X0.0830*%
%ADD72C,0.0780*%
%ADD73R,0.0780X0.0780*%
%ADD74R,0.1580X0.1580*%
%ADD75C,0.1580*%
%ADD76R,0.0580X0.0580*%
%ADD77C,0.0710*%
%ADD78R,0.0710X0.0710*%
%ADD79O,0.1080X0.1680*%
%ADD80O,0.1680X0.1080*%
D39*
X137191Y0291D02*
X137166Y029125D01*
X137191Y0291D02*
Y03185D01*
X138191Y03285D02*
X137191Y03185D01*
X138191Y03285D02*
Y03675D01*
D61*
X156261Y0442D02*
D03*
X158261D02*
D03*
Y0462D02*
D03*
X156261D02*
D03*
D62*
X157261Y0452D02*
D03*
D63*
X142635Y0202D02*
D03*
X137491Y0406D02*
D03*
X146441Y027562D02*
D03*
X136141Y0301D02*
D03*
D64*
X141847Y0202D02*
D03*
X136703Y0406D02*
D03*
X136928Y0301D02*
D03*
D65*
X146441Y026775D02*
D03*
D66*
X137941Y02315D02*
D03*
Y02515D02*
D03*
Y02215D02*
D03*
Y02415D02*
D03*
X136791Y034433D02*
D03*
Y036433D02*
D03*
Y033433D02*
D03*
X136791Y035433D02*
D03*
D67*
X156791Y01325D02*
D03*
D68*
Y01425D02*
D03*
Y01525D02*
D03*
Y01625D02*
D03*
D69*
X140641Y04425D02*
D03*
X142413D02*
D03*
D70*
X142905Y043266D02*
D03*
X140149D02*
D03*
D71*
X149941Y023778D02*
D03*
X150951D02*
D03*
D72*
X139241Y0106D02*
D03*
X136241Y0106D02*
D03*
X140241Y0116D02*
D03*
X140241Y0106D02*
D03*
X139241Y0116D02*
D03*
X138241Y0116D02*
D03*
X137241Y0116D02*
D03*
Y0106D02*
D03*
X138241Y0106D02*
D03*
D73*
X136241Y0116D02*
D03*
D74*
X14408Y0299D02*
D03*
D75*
X14608D02*
D03*
D76*
X150353Y01465D02*
D03*
Y01701D02*
D03*
Y01622D02*
D03*
Y01544D02*
D03*
Y01386D02*
D03*
Y01307D02*
D03*
Y01229D02*
D03*
Y0115D02*
D03*
X144891D02*
D03*
Y01702D02*
D03*
Y01622D02*
D03*
X144891Y01544D02*
D03*
X144891Y01464D02*
D03*
Y01387D02*
D03*
X144891Y01307D02*
D03*
Y01232D02*
D03*
D77*
X153541Y018D02*
D03*
Y019D02*
D03*
X154541Y018D02*
D03*
D78*
Y019D02*
D03*
D79*
X138291Y0436D02*
D03*
D80*
X136291Y0451D02*
D03*
Y0426D02*
D03*
M02*
