G04*
G04 #@! TF.GenerationSoftware,Altium Limited,Altium Designer,20.1.12 (249)*
G04*
G04 Layer_Color=65535*
%FSTAX24Y24*%
%MOIN*%
G70*
G04*
G04 #@! TF.SameCoordinates,6AE243D0-3920-4146-A994-36ACE33FB78E*
G04*
G04*
G04 #@! TF.FilePolarity,Positive*
G04*
G01*
G75*
%ADD10C,0.0050*%
%ADD11C,0.0080*%
%ADD12C,0.0160*%
%ADD13C,0.0118*%
%ADD14C,0.0098*%
%ADD15C,0.0100*%
%ADD16C,0.0040*%
%ADD17C,0.0079*%
%ADD18C,0.0070*%
%ADD19R,0.0500X0.1000*%
%ADD20R,0.0740X0.0299*%
G36*
X145661Y011495D02*
X146161Y011745D01*
Y011245D01*
X145661Y011495D01*
D02*
G37*
G36*
X149941Y024338D02*
X149691Y024588D01*
X150191D01*
X149941Y024338D01*
D02*
G37*
G36*
X15714Y024476D02*
X15904D01*
Y03048D01*
X15714D01*
Y024476D01*
D02*
G37*
G36*
X157291Y0126D02*
X158477D01*
Y016211D01*
X157291D01*
Y0126D01*
D02*
G37*
G36*
X143644Y025374D02*
X148741D01*
Y026536D01*
X143644D01*
Y025374D01*
D02*
G37*
G36*
D02*
Y024069D01*
X148741D01*
Y025374D01*
X143644D01*
D02*
G37*
G36*
X134778Y013836D02*
Y0124D01*
X142325D01*
Y013836D01*
Y015197D01*
X134778D01*
Y013836D01*
D02*
G37*
G36*
X157305Y017479D02*
X158619D01*
Y019479D01*
X157305D01*
Y017479D01*
D02*
G37*
G36*
X149635Y043256D02*
Y043253D01*
Y043244D01*
Y043233D01*
X149637Y043212D01*
X14964Y043192D01*
X149643Y043166D01*
X149646Y043139D01*
X149655Y043107D01*
X149672Y043043D01*
X149699Y042973D01*
X149716Y042938D01*
X14974Y042903D01*
X149763Y042871D01*
X149789Y042839D01*
X149792Y042836D01*
X149795Y042833D01*
X149804Y042824D01*
X149818Y042813D01*
X149833Y042801D01*
X14985Y042787D01*
X149874Y042772D01*
X149897Y042757D01*
X149955Y042728D01*
X150025Y042702D01*
X150104Y042682D01*
X150145Y042679D01*
X150192Y042676D01*
X150206D01*
X150221Y042679D01*
X150241D01*
X150264Y042685D01*
X150294Y04269D01*
X150323Y042696D01*
X150358Y042708D01*
X150393Y042722D01*
X150428Y042737D01*
X150463Y04276D01*
X150501Y042784D01*
X150533Y042813D01*
X150565Y042848D01*
X150597Y042886D01*
X150623Y042932D01*
Y042929D01*
X150626Y042927D01*
X150635Y042912D01*
X150652Y042889D01*
X150673Y042859D01*
X150699Y04283D01*
X150728Y042798D01*
X150763Y042766D01*
X150804Y04274D01*
X15081Y042737D01*
X150824Y042731D01*
X150848Y042719D01*
X15088Y042708D01*
X150921Y042696D01*
X150967Y042685D01*
X15102Y042679D01*
X151078Y042676D01*
X151104D01*
X151122Y042679D01*
X151142Y042682D01*
X151168Y042685D01*
X151224Y042696D01*
X151288Y042717D01*
X151323Y042728D01*
X151355Y042746D01*
X151387Y042766D01*
X151419Y042787D01*
X151448Y042813D01*
X151475Y042842D01*
X151477Y042845D01*
X15148Y042851D01*
X151486Y042859D01*
X151498Y042871D01*
X151507Y042889D01*
X151518Y042909D01*
X151533Y042932D01*
X151545Y042962D01*
X151559Y042991D01*
X151571Y043026D01*
X151582Y043064D01*
X151594Y043104D01*
X151603Y043151D01*
X151609Y043198D01*
X151612Y043247D01*
X151615Y043303D01*
Y044594D01*
X151017D01*
Y043384D01*
Y043381D01*
Y043373D01*
Y043358D01*
Y043344D01*
X151011Y043311D01*
X151008Y043297D01*
X151005Y043288D01*
X151002Y043285D01*
X150999Y043276D01*
X150988Y043271D01*
X150973Y043268D01*
X15097D01*
X150964Y043271D01*
X150958Y043274D01*
X15095Y043282D01*
X150938Y043294D01*
X150932Y043314D01*
X150926Y043341D01*
X150923Y043376D01*
Y044594D01*
X150326D01*
Y043384D01*
Y043381D01*
Y043373D01*
Y043358D01*
Y043344D01*
X15032Y043311D01*
X150317Y043297D01*
X150314Y043288D01*
X150311Y043285D01*
X150308Y043276D01*
X150296Y043271D01*
X150282Y043268D01*
X150279D01*
X150273Y043271D01*
X150267Y043274D01*
X150259Y043282D01*
X150247Y043297D01*
X150241Y043317D01*
X150235Y043346D01*
X150232Y043384D01*
Y044594D01*
X149635D01*
Y043256D01*
D02*
G37*
G36*
X152623Y043262D02*
Y043261D01*
Y043257D01*
Y043252D01*
X152624Y043244D01*
X152625Y043234D01*
X152626Y043223D01*
X152629Y043211D01*
X152631Y043198D01*
X152638Y04317D01*
X152649Y04314D01*
X152656Y043125D01*
X152665Y043111D01*
X152673Y043096D01*
X152684Y043083D01*
X152685Y043082D01*
X152688Y04308D01*
X152691Y043077D01*
X152695Y043072D01*
X152702Y043068D01*
X15271Y043061D01*
X152718Y043056D01*
X152728Y043049D01*
X15274Y043043D01*
X152752Y043037D01*
X152765Y043031D01*
X152781Y043026D01*
X152796Y043022D01*
X152813Y043019D01*
X152831Y043017D01*
X152849Y043015D01*
X152859D01*
X152867Y043017D01*
X152877Y043018D01*
X152888Y043019D01*
X152902Y043021D01*
X152918Y043024D01*
Y043242D01*
X152917D01*
X152913Y04324D01*
X152907Y043238D01*
X1529Y043236D01*
X152884Y043233D01*
X152877Y043231D01*
X152869D01*
X152865Y043232D01*
X152859Y043234D01*
X152852Y04324D01*
X152844Y043247D01*
X152841Y043253D01*
X152838Y043259D01*
X152835Y043267D01*
X152834Y043277D01*
X152832Y043287D01*
Y043299D01*
Y043544D01*
X152623D01*
Y043262D01*
D02*
G37*
G36*
X152271Y043554D02*
X152264D01*
X152253Y043553D01*
X152242Y043551D01*
X152229Y043549D01*
X152215Y043546D01*
X1522Y043541D01*
X152185Y043536D01*
X152168Y04353D01*
X152152Y043523D01*
X152136Y043513D01*
X152119Y043503D01*
X152104Y043491D01*
X152089Y043477D01*
X152088Y043476D01*
X152085Y043473D01*
X152081Y043469D01*
X152077Y043463D01*
X152071Y043455D01*
X152065Y043445D01*
X152057Y043434D01*
X15205Y043422D01*
X152043Y043409D01*
X152035Y043394D01*
X152029Y043377D01*
X152023Y043361D01*
X152019Y043342D01*
X152014Y043323D01*
X152012Y043302D01*
X152011Y043281D01*
Y04328D01*
Y043277D01*
X152012Y04327D01*
Y043262D01*
X152013Y043254D01*
X152015Y043243D01*
X152018Y04323D01*
X152021Y043217D01*
X152025Y043202D01*
X152031Y043187D01*
X152036Y043172D01*
X152044Y043156D01*
X152054Y04314D01*
X152064Y043125D01*
X152076Y043109D01*
X15209Y043094D01*
X152091Y043093D01*
X152093Y043091D01*
X152097Y043087D01*
X152104Y043082D01*
X152112Y043076D01*
X152121Y043069D01*
X152131Y043062D01*
X152143Y043055D01*
X152156Y043047D01*
X152172Y043041D01*
X152187Y043034D01*
X152205Y043028D01*
X152222Y043023D01*
X152241Y043019D01*
X15226Y043017D01*
X152281Y043015D01*
X152291D01*
X152297Y043017D01*
X152306Y043018D01*
X152316Y043019D01*
X152327Y043021D01*
X152339Y043023D01*
X152365Y043031D01*
X152379Y043035D01*
X152395Y043042D01*
X152409Y043049D01*
X152424Y043057D01*
X152438Y043067D01*
X152453Y043078D01*
X152454Y043079D01*
X152456Y043081D01*
X152459Y043084D01*
X152465Y043089D01*
X15247Y043095D01*
X152477Y043103D01*
X152484Y043112D01*
X152492Y043122D01*
X1525Y043134D01*
X152508Y043146D01*
X152516Y04316D01*
X152524Y043175D01*
X15253Y04319D01*
X152536Y043208D01*
X152541Y043226D01*
X152546Y043246D01*
X15234Y043254D01*
X152339Y043253D01*
X152336Y043248D01*
X15233Y043243D01*
X152324Y043236D01*
X152315Y043231D01*
X152305Y043225D01*
X152295Y043221D01*
X152283Y04322D01*
X152279D01*
X152273Y043221D01*
X152268Y043222D01*
X15226Y043224D01*
X152253Y043228D01*
X152245Y043232D01*
X152238Y043238D01*
X152237Y04324D01*
X152236Y043242D01*
X152233Y043245D01*
X152231Y04325D01*
X152228Y043257D01*
X152224Y043265D01*
X152223Y043275D01*
X152222Y043284D01*
Y043285D01*
Y043289D01*
X152223Y043294D01*
X152224Y043302D01*
X152226Y043309D01*
X15223Y043317D01*
X152234Y043325D01*
X152241Y043332D01*
X152242Y043334D01*
X152244Y043336D01*
X152248Y043338D01*
X152254Y043341D01*
X15226Y043346D01*
X152268Y043348D01*
X152277Y04335D01*
X152287Y043351D01*
X152289D01*
X152293Y04335D01*
X1523Y043348D01*
X152308Y043344D01*
X152318Y043338D01*
X152328Y043327D01*
X152332Y043322D01*
X152338Y043314D01*
X152341Y043305D01*
X152346Y043295D01*
X15255Y043288D01*
Y043289D01*
Y043293D01*
X152549Y0433D01*
X152548Y043308D01*
X152546Y043318D01*
X152543Y04333D01*
X15254Y043343D01*
X152536Y043359D01*
X152526Y043389D01*
X152518Y043406D01*
X152511Y043422D01*
X152502Y043438D01*
X152491Y043454D01*
X152479Y043469D01*
X152466Y043483D01*
X152465Y043484D01*
X152463Y043487D01*
X152458Y04349D01*
X152453Y043494D01*
X152445Y0435D01*
X152436Y043506D01*
X152426Y043513D01*
X152414Y043519D01*
X152401Y043526D01*
X152388Y043532D01*
X152373Y043539D01*
X152356Y043544D01*
X152339Y043549D01*
X152322Y043552D01*
X152302Y043554D01*
X152282Y043555D01*
X152277D01*
X152271Y043554D01*
D02*
G37*
G36*
X151735Y043026D02*
X151943D01*
Y043544D01*
X151735D01*
Y043026D01*
D02*
G37*
G36*
X153189Y043553D02*
X153182D01*
X153172Y043552D01*
X153161Y04355D01*
X153148Y043548D01*
X153134Y043544D01*
X153119Y04354D01*
X153104Y043535D01*
X153088Y043529D01*
X153071Y043522D01*
X153055Y043512D01*
X15304Y043502D01*
X153023Y04349D01*
X153008Y043476D01*
X153007Y043475D01*
X153005Y043472D01*
X153Y043468D01*
X152996Y043461D01*
X152989Y043454D01*
X152983Y043445D01*
X152975Y043434D01*
X152969Y043422D01*
X152961Y043409D01*
X152953Y043395D01*
X152947Y043378D01*
X15294Y043362D01*
X152936Y043343D01*
X152931Y043325D01*
X152929Y043305D01*
X152928Y043284D01*
Y043283D01*
Y043279D01*
X152929Y043273D01*
Y043266D01*
X15293Y043256D01*
X152933Y043245D01*
X152935Y043232D01*
X152938Y043219D01*
X152942Y043203D01*
X152948Y043188D01*
X152954Y043173D01*
X152962Y043156D01*
X152971Y04314D01*
X152982Y043125D01*
X152994Y043109D01*
X153008Y043094D01*
X153009Y043093D01*
X153011Y043091D01*
X153016Y043087D01*
X153022Y043082D01*
X15303Y043076D01*
X15304Y043069D01*
X153051Y043062D01*
X153063Y043055D01*
X153076Y043047D01*
X153091Y043041D01*
X153107Y043034D01*
X153125Y043028D01*
X153143Y043023D01*
X153163Y043019D01*
X153183Y043017D01*
X153205Y043015D01*
X153216D01*
X153223Y043017D01*
X153233Y043018D01*
X153244Y04302D01*
X153257Y043022D01*
X15327Y043025D01*
X153284Y04303D01*
X1533Y043035D01*
X153316Y043042D01*
X153331Y043049D01*
X153348Y043058D01*
X153364Y043069D01*
X15338Y043081D01*
X153395Y043095D01*
X153396Y043096D01*
X153398Y043099D01*
X153402Y043103D01*
X153407Y043109D01*
X153413Y043117D01*
X15342Y043126D01*
X153427Y043137D01*
X153434Y043149D01*
X153442Y043162D01*
X153448Y043176D01*
X153455Y043191D01*
X153462Y043208D01*
X153466Y043225D01*
X15347Y043245D01*
X153472Y043264D01*
X153474Y043284D01*
Y043285D01*
Y04329D01*
Y043295D01*
X153472Y043303D01*
X153471Y043313D01*
X153469Y043324D01*
X153467Y043337D01*
X153464Y04335D01*
X153459Y043365D01*
X153454Y043381D01*
X153447Y043396D01*
X15344Y043412D01*
X153431Y043429D01*
X15342Y043445D01*
X153408Y04346D01*
X153394Y043476D01*
X153393Y043477D01*
X15339Y043479D01*
X153386Y043483D01*
X15338Y043488D01*
X153372Y043494D01*
X153362Y043501D01*
X153352Y043507D01*
X15334Y043515D01*
X153326Y043523D01*
X153312Y043529D01*
X153295Y043536D01*
X153279Y043542D01*
X15326Y043547D01*
X153241Y043551D01*
X153221Y043553D01*
X1532Y043554D01*
X153195D01*
X153189Y043553D01*
D02*
G37*
G36*
X151822Y043002D02*
X151812Y043D01*
X1518Y042997D01*
X151787Y042991D01*
X151775Y042985D01*
X151763Y042976D01*
X151762Y042975D01*
X151759Y042971D01*
X151754Y042965D01*
X151749Y042956D01*
X151743Y042946D01*
X151739Y042934D01*
X151736Y042919D01*
X151735Y042904D01*
Y042902D01*
Y042897D01*
X151737Y04289D01*
X151739Y042881D01*
X151742Y04287D01*
X151748Y042858D01*
X151755Y042846D01*
X151765Y042835D01*
X151766Y042834D01*
X151771Y042831D01*
X151777Y042825D01*
X151786Y04282D01*
X151797Y042814D01*
X151809Y042809D01*
X151823Y042806D01*
X151838Y042805D01*
X151846D01*
X151854Y042806D01*
X151864Y042808D01*
X151876Y042812D01*
X151888Y042818D01*
X1519Y042825D01*
X151912Y042835D01*
X151913Y042836D01*
X151917Y042841D01*
X151921Y042846D01*
X151928Y042855D01*
X151933Y042865D01*
X151939Y042877D01*
X151942Y04289D01*
X151943Y042904D01*
Y042906D01*
Y042912D01*
X151942Y042919D01*
X15194Y042929D01*
X151936Y042941D01*
X151931Y042953D01*
X151924Y042965D01*
X151914Y042976D01*
X151913Y042977D01*
X151908Y04298D01*
X151902Y042985D01*
X151893Y042989D01*
X151882Y042995D01*
X15187Y042999D01*
X151855Y043002D01*
X151838Y043003D01*
X151831D01*
X151822Y043002D01*
D02*
G37*
G36*
X151851Y044666D02*
X151834Y044663D01*
X151812Y044659D01*
X151789Y044653D01*
X151762Y044644D01*
X151735Y044633D01*
Y044346D01*
X151737Y044347D01*
X151743Y04435D01*
X151754Y044354D01*
X151767Y044359D01*
X151794Y044367D01*
X151806Y04437D01*
X151818Y044372D01*
X151822D01*
X151828Y04437D01*
X151835D01*
X15185Y044365D01*
X151859Y044362D01*
X151866Y044356D01*
X151867Y044354D01*
X151869Y044353D01*
X151876Y044344D01*
X151883Y044332D01*
X151885Y044324D01*
X151886Y044315D01*
Y044314D01*
Y044312D01*
X151885Y044306D01*
X151882Y044299D01*
X151877Y044289D01*
X15187Y044274D01*
X151861Y044257D01*
X15185Y044235D01*
Y044233D01*
X151847Y04423D01*
X151844Y044223D01*
X15184Y044216D01*
X151835Y044206D01*
X151829Y044194D01*
X151825Y044181D01*
X151819Y044165D01*
X151807Y044131D01*
X151797Y044095D01*
X15179Y044054D01*
X151789Y044034D01*
X151787Y044013D01*
Y044012D01*
Y044007D01*
Y044D01*
X151789Y043991D01*
X15179Y04398D01*
X151791Y043967D01*
X151794Y04395D01*
X151799Y043934D01*
X15181Y043898D01*
X151818Y043879D01*
X151826Y04386D01*
X151838Y04384D01*
X151851Y043821D01*
X151866Y043802D01*
X151882Y043783D01*
X151883Y043781D01*
X151886Y043778D01*
X151892Y043774D01*
X151899Y043767D01*
X151908Y043759D01*
X15192Y043752D01*
X151931Y043743D01*
X151946Y043733D01*
X151962Y043724D01*
X15198Y043716D01*
X152019Y0437D01*
X152041Y043694D01*
X152063Y043689D01*
X152086Y043687D01*
X152111Y043685D01*
X152121D01*
X152133Y043687D01*
X152149Y043688D01*
X152168Y043691D01*
X152188Y043695D01*
X152211Y043701D01*
X152236Y04371D01*
Y043991D01*
X152235D01*
X152229Y04399D01*
X15222Y043988D01*
X152211Y043985D01*
X152191Y043983D01*
X152182Y043981D01*
X152172D01*
X152168Y043983D01*
X152162Y043984D01*
X152149Y043988D01*
X152141Y043994D01*
X152134Y044D01*
Y044002D01*
X152131Y044003D01*
X152128Y044007D01*
X152125Y044013D01*
X152119Y044026D01*
X152118Y044035D01*
X152117Y044044D01*
Y044045D01*
Y044048D01*
X152118Y044054D01*
X152119Y044061D01*
X152122Y04407D01*
X152125Y044082D01*
X152131Y044093D01*
X152138Y044108D01*
X152159Y044143D01*
Y044144D01*
X152162Y044147D01*
X152165Y044153D01*
X152168Y04416D01*
X152172Y044169D01*
X152178Y044179D01*
X152188Y044204D01*
X152198Y044235D01*
X152208Y044267D01*
X152214Y044302D01*
X152217Y044337D01*
Y044338D01*
Y044343D01*
Y04435D01*
X152216Y04436D01*
X152214Y044372D01*
X152211Y044386D01*
X152208Y044402D01*
X152206Y044419D01*
X152192Y044456D01*
X152185Y044475D01*
X152175Y044496D01*
X152165Y044516D01*
X15215Y044535D01*
X152136Y044554D01*
X152118Y044573D01*
X152117Y044574D01*
X152114Y044577D01*
X152108Y044582D01*
X152101Y044588D01*
X15209Y044595D01*
X152079Y044604D01*
X152066Y044611D01*
X152051Y04462D01*
X152033Y04463D01*
X152016Y044637D01*
X151996Y044646D01*
X151975Y044653D01*
X151952Y044659D01*
X151928Y044663D01*
X151904Y044666D01*
X151877Y044668D01*
X151866D01*
X151851Y044666D01*
D02*
G37*
G36*
X152802Y043975D02*
Y043974D01*
Y043969D01*
Y043964D01*
X152803Y043953D01*
X152805Y043943D01*
X152806Y04393D01*
X152808Y043917D01*
X152812Y043901D01*
X152821Y043869D01*
X152834Y043834D01*
X152843Y043816D01*
X152854Y043799D01*
X152866Y043783D01*
X152879Y043767D01*
X152881Y043765D01*
X152882Y043764D01*
X152886Y043759D01*
X152894Y043754D01*
X152901Y043748D01*
X15291Y043741D01*
X152921Y043733D01*
X152933Y043726D01*
X152962Y043711D01*
X152997Y043698D01*
X153037Y043688D01*
X153057Y043687D01*
X15308Y043685D01*
X153088D01*
X153095Y043687D01*
X153105D01*
X153117Y043689D01*
X153131Y043692D01*
X153146Y043695D01*
X153163Y043701D01*
X153181Y043708D01*
X153198Y043716D01*
X153216Y043727D01*
X153235Y043739D01*
X153251Y043754D01*
X153267Y043771D01*
X153283Y04379D01*
X153296Y043813D01*
Y043812D01*
X153298Y043811D01*
X153302Y043803D01*
X153311Y043792D01*
X153321Y043777D01*
X153334Y043762D01*
X153349Y043746D01*
X153366Y04373D01*
X153386Y043717D01*
X153389Y043716D01*
X153397Y043713D01*
X153408Y043707D01*
X153424Y043701D01*
X153445Y043695D01*
X153468Y043689D01*
X153494Y043687D01*
X153524Y043685D01*
X153537D01*
X153545Y043687D01*
X153556Y043688D01*
X153569Y043689D01*
X153596Y043695D01*
X153629Y043706D01*
X153646Y043711D01*
X153662Y04372D01*
X153678Y04373D01*
X153694Y043741D01*
X153709Y043754D01*
X153722Y043768D01*
X153723Y04377D01*
X153725Y043773D01*
X153728Y043777D01*
X153733Y043783D01*
X153738Y043792D01*
X153744Y043802D01*
X153751Y043813D01*
X153757Y043828D01*
X153764Y043843D01*
X15377Y04386D01*
X153776Y043879D01*
X153782Y043899D01*
X153786Y043923D01*
X153789Y043946D01*
X15379Y043971D01*
X153792Y043999D01*
Y044644D01*
X153493D01*
Y044039D01*
Y044038D01*
Y044034D01*
Y044026D01*
Y044019D01*
X15349Y044003D01*
X153489Y043996D01*
X153487Y043991D01*
X153486Y04399D01*
X153484Y043985D01*
X153478Y043983D01*
X153471Y043981D01*
X15347D01*
X153467Y043983D01*
X153464Y043984D01*
X153459Y043988D01*
X153454Y043994D01*
X153451Y044004D01*
X153448Y044018D01*
X153446Y044035D01*
Y044644D01*
X153147D01*
Y044039D01*
Y044038D01*
Y044034D01*
Y044026D01*
Y044019D01*
X153144Y044003D01*
X153143Y043996D01*
X153142Y043991D01*
X15314Y04399D01*
X153139Y043985D01*
X153133Y043983D01*
X153125Y043981D01*
X153124D01*
X153121Y043983D01*
X153118Y043984D01*
X153114Y043988D01*
X153108Y043996D01*
X153105Y044006D01*
X153102Y04402D01*
X153101Y044039D01*
Y044644D01*
X152802D01*
Y043975D01*
D02*
G37*
G36*
X152359Y043708D02*
X152657D01*
Y044644D01*
X152359D01*
Y043708D01*
D02*
G37*
G36*
X134985Y036256D02*
X136158D01*
Y038287D01*
X134985D01*
Y036256D01*
D02*
G37*
G36*
X13569Y022441D02*
X136871D01*
Y024462D01*
X13569D01*
Y022441D01*
D02*
G37*
%LPC*%
G36*
X157533Y030086D02*
X157925D01*
X157962Y030085D01*
X157996Y030083D01*
X158027Y03008D01*
X158057Y030074D01*
X158083Y030069D01*
X158107Y030063D01*
X158129Y030056D01*
X158149Y030049D01*
X158165Y030042D01*
X158179Y030036D01*
X158191Y030029D01*
X158201Y030024D01*
X158209Y030018D01*
X158214Y030015D01*
X158217Y030013D01*
X158219Y030012D01*
X158234Y029998D01*
X158248Y029982D01*
X15826Y029967D01*
X15827Y029952D01*
X158279Y029935D01*
X158286Y02992D01*
X158292Y029905D01*
X158297Y029889D01*
X158301Y029876D01*
X158304Y029863D01*
X158306Y029852D01*
X158307Y029842D01*
Y029834D01*
X158308Y029828D01*
Y029823D01*
X158307Y029803D01*
X158305Y029786D01*
X158302Y029768D01*
X158297Y029752D01*
X158292Y029736D01*
X158285Y029722D01*
X15828Y029708D01*
X158273Y029697D01*
X158266Y029686D01*
X15826Y029676D01*
X158254Y029669D01*
X158248Y029661D01*
X158244Y029656D01*
X15824Y029652D01*
X158238Y02965D01*
X158237Y029649D01*
X158223Y029637D01*
X158209Y029627D01*
X158193Y029617D01*
X158178Y02961D01*
X158163Y029603D01*
X158146Y029598D01*
X158117Y02959D01*
X158104Y029587D01*
X158091Y029585D01*
X15808Y029583D01*
X15807Y029582D01*
X158061Y029581D01*
X158308D01*
X15805D01*
X158031Y029582D01*
X158011Y029585D01*
X157992Y029587D01*
X157976Y029591D01*
X15796Y029597D01*
X157945Y029602D01*
X157931Y029607D01*
X157919Y029614D01*
X157908Y029619D01*
X157898Y029625D01*
X157891Y02963D01*
X157883Y029636D01*
X157879Y02964D01*
X157874Y029642D01*
X157872Y029645D01*
X157871Y029646D01*
X157859Y029658D01*
X157848Y029671D01*
X157839Y029684D01*
X157832Y029697D01*
X157825Y02971D01*
X157819Y029722D01*
X157811Y029746D01*
X157805Y029767D01*
X157804Y029776D01*
X157803Y029783D01*
X157802Y02979D01*
Y029799D01*
X157803Y029814D01*
X157805Y029828D01*
X157808Y029841D01*
X157812Y029854D01*
X157822Y029879D01*
X157834Y029898D01*
X157846Y029913D01*
X157851Y02992D01*
X157856Y029926D01*
X15786Y02993D01*
X157863Y029933D01*
X157864Y029934D01*
X157866Y029935D01*
X157843Y029933D01*
X157821Y029931D01*
X157801Y029929D01*
X157784Y029926D01*
X157768Y029922D01*
X157754Y029919D01*
X157742Y029916D01*
X157731Y029912D01*
X157721Y029908D01*
X157714Y029906D01*
X157707Y029903D01*
X157703Y0299D01*
X157698Y029898D01*
X157696Y029896D01*
X157694Y029895D01*
X157681Y029883D01*
X157671Y02987D01*
X157663Y029858D01*
X157659Y029846D01*
X157656Y029835D01*
X157655Y029827D01*
X157654Y029822D01*
Y02982D01*
X157655Y029807D01*
X157657Y029795D01*
X15766Y029787D01*
X157663Y029778D01*
X157667Y029771D01*
X15767Y029767D01*
X157672Y029764D01*
X157673Y029763D01*
X157682Y029755D01*
X157692Y02975D01*
X157703Y029745D01*
X157714Y029742D01*
X157722Y029739D01*
X15773Y029738D01*
X157735Y029736D01*
X157738D01*
X157721Y029597D01*
X157704Y0296D01*
X157688Y029604D01*
X157673Y029609D01*
X15766Y029614D01*
X157647Y029619D01*
X157635Y029625D01*
X157625Y029632D01*
X157615Y029637D01*
X157608Y029644D01*
X1576Y029648D01*
X157594Y029653D01*
X157589Y029658D01*
X157586Y029661D01*
X157582Y029664D01*
X157581Y029665D01*
X15758Y029666D01*
X157572Y029677D01*
X157565Y029688D01*
X157553Y029712D01*
X157545Y029735D01*
X157539Y029758D01*
X157535Y029779D01*
X157534Y029788D01*
Y029795D01*
X157533Y029801D01*
Y029581D01*
X157533D01*
X157533D01*
Y02981D01*
X157534Y029833D01*
X157538Y029853D01*
X157542Y029873D01*
X157547Y029893D01*
X157555Y02991D01*
X157563Y029927D01*
X15757Y029942D01*
X157579Y029955D01*
X157588Y029967D01*
X157596Y029978D01*
X157604Y029987D01*
X157611Y029994D01*
X157616Y030001D01*
X157621Y030005D01*
X157624Y030007D01*
X157625Y030009D01*
X157644Y030023D01*
X157664Y030034D01*
X157687Y030045D01*
X15771Y030053D01*
X157735Y030061D01*
X157761Y030068D01*
X157785Y030072D01*
X15781Y030076D01*
X157833Y03008D01*
X157854Y030082D01*
X157873Y030084D01*
X157891Y030085D01*
X157905Y030086D01*
X157533D01*
D02*
G37*
G36*
X157547Y029375D02*
X158308D01*
Y029042D01*
Y029257D01*
X158283Y029246D01*
X15826Y029231D01*
X158238Y029216D01*
X158221Y029201D01*
X158207Y029188D01*
X158196Y029176D01*
X158191Y029171D01*
X158188Y029168D01*
X158187Y029166D01*
X158186Y029165D01*
X158168Y029141D01*
X158153Y029118D01*
X158141Y029097D01*
X158132Y029078D01*
X158126Y029063D01*
X15812Y029052D01*
X158119Y029048D01*
X158118Y029045D01*
X158117Y029043D01*
Y029042D01*
X158308D01*
X157986D01*
X158001Y029082D01*
X158017Y029117D01*
X158026Y029133D01*
X158036Y029148D01*
X158045Y029163D01*
X158054Y029176D01*
X158062Y029188D01*
X15807Y029199D01*
X158076Y029207D01*
X158083Y029215D01*
X158089Y029222D01*
X158092Y029226D01*
X158094Y029228D01*
X158095Y029229D01*
X157547D01*
Y029375D01*
D02*
G37*
G36*
X157533Y028907D02*
D01*
Y028661D01*
X157534Y028681D01*
X157537Y028699D01*
X157541Y028718D01*
X157545Y028734D01*
X157551Y028749D01*
X157557Y028764D01*
X157565Y028776D01*
X157573Y028788D01*
X157579Y028798D01*
X157587Y028807D01*
X157593Y028815D01*
X157599Y028822D01*
X157603Y028826D01*
X157608Y028829D01*
X15761Y028831D01*
X157611Y028833D01*
X157629Y028846D01*
X157651Y028857D01*
X157674Y028867D01*
X157699Y028875D01*
X157725Y028883D01*
X15775Y028888D01*
X157776Y028894D01*
X157801Y028898D01*
X157825Y0289D01*
X157847Y028902D01*
X157868Y028905D01*
X157885Y028906D01*
X157899Y028907D01*
X15792D01*
X15796Y028906D01*
X157996Y028904D01*
X158028Y0289D01*
X158059Y028895D01*
X158087Y028889D01*
X158113Y028884D01*
X158136Y028876D01*
X158155Y02887D01*
X158174Y028863D01*
X158188Y028857D01*
X158201Y02885D01*
X158212Y028845D01*
X15822Y028839D01*
X158225Y028836D01*
X158228Y028834D01*
X15823Y028833D01*
X158244Y028821D01*
X158256Y028807D01*
X158266Y028793D01*
X158275Y028779D01*
X158283Y028765D01*
X158289Y028751D01*
X158294Y028737D01*
X158298Y028723D01*
X158302Y02871D01*
X158304Y028699D01*
X158306Y028688D01*
X158307Y028679D01*
X158308Y028672D01*
Y028661D01*
X158307Y028641D01*
X158305Y028623D01*
X158301Y028604D01*
X158296Y028588D01*
X15829Y028572D01*
X158283Y028558D01*
X158277Y028546D01*
X158269Y028534D01*
X158261Y028524D01*
X158255Y028514D01*
X158248Y028507D01*
X158242Y028501D01*
X158237Y028496D01*
X158233Y028493D01*
X158231Y02849D01*
X15823Y028489D01*
X158211Y028476D01*
X158189Y028465D01*
X158166Y028455D01*
X158142Y028447D01*
X158117Y02844D01*
X158091Y028434D01*
X158066Y028429D01*
X15804Y028425D01*
X158016Y028423D01*
X157995Y02842D01*
X157974Y028418D01*
X157956Y028417D01*
X157942Y028416D01*
X157533D01*
Y028907D01*
D02*
G37*
G36*
X157547Y028318D02*
X157682D01*
Y028029D01*
X157696Y028038D01*
X157708Y028048D01*
X157714Y028052D01*
X157718Y028055D01*
X15772Y028058D01*
X157721Y028059D01*
X157726Y028063D01*
X157731Y028067D01*
X157743Y028081D01*
X157757Y028095D01*
X157772Y028109D01*
X157785Y028123D01*
X157796Y028135D01*
X1578Y02814D01*
X157803Y028143D01*
X157804Y028145D01*
X157805Y028146D01*
X157828Y02817D01*
X157847Y02819D01*
X157864Y028206D01*
X157878Y028219D01*
X157889Y028229D01*
X157896Y028236D01*
X157902Y02824D01*
X157903Y028241D01*
X157921Y028255D01*
X157939Y028267D01*
X157955Y028277D01*
X157969Y028285D01*
X157981Y028291D01*
X157991Y028296D01*
X157997Y028298D01*
X157999Y028299D01*
X158016Y028306D01*
X158034Y02831D01*
X15805Y028313D01*
X158066Y028316D01*
X158078Y028317D01*
X158087Y028318D01*
X158096D01*
X158113Y028317D01*
X158129Y028314D01*
X158144Y028312D01*
X158158Y028308D01*
X158184Y028297D01*
X158205Y028286D01*
X158215Y028279D01*
X158223Y028274D01*
X158231Y028269D01*
X158236Y028263D01*
X15824Y028259D01*
X158245Y028257D01*
X158246Y028254D01*
X158247Y028253D01*
X158258Y028241D01*
X158268Y028227D01*
X158275Y028214D01*
X158282Y028199D01*
X158293Y02817D01*
X158301Y028142D01*
X158303Y028129D01*
X158305Y028117D01*
X158306Y028106D01*
X158307Y028096D01*
X158308Y028088D01*
Y02809D01*
Y028088D01*
Y028077D01*
X158307Y028059D01*
X158306Y028041D01*
X158301Y028007D01*
X158292Y027979D01*
X158287Y027966D01*
X158282Y027954D01*
X158278Y027943D01*
X158272Y027934D01*
X158268Y027925D01*
X158265Y027919D01*
X15826Y027913D01*
X158258Y02791D01*
X158257Y027908D01*
X158256Y027907D01*
X158245Y027895D01*
X158234Y027884D01*
X158221Y027874D01*
X158207Y027865D01*
X158178Y027852D01*
X158151Y027841D01*
X158137Y027838D01*
X158125Y027835D01*
X158114Y027831D01*
X158104Y02783D01*
X158095Y027828D01*
X15809D01*
X158085Y027827D01*
X158084D01*
X15807Y027971D01*
X158092Y027973D01*
X15811Y027978D01*
X158127Y027982D01*
X158139Y027988D01*
X158149Y027992D01*
X158155Y027996D01*
X15816Y028D01*
X158161Y028001D01*
X158169Y028012D01*
X158176Y028024D01*
X158181Y028036D01*
X158185Y028048D01*
X158187Y028058D01*
X158188Y028066D01*
Y028074D01*
X158187Y02809D01*
X158184Y028105D01*
X158179Y028117D01*
X158175Y028128D01*
X15817Y028135D01*
X158166Y028142D01*
X158163Y028145D01*
X158162Y028146D01*
X158151Y028155D01*
X158139Y028161D01*
X158127Y028166D01*
X158115Y028169D01*
X158104Y028171D01*
X158094Y028172D01*
X158089D01*
X158087D01*
X158086D01*
X15807Y028171D01*
X158055Y028168D01*
X158039Y028163D01*
X158026Y028157D01*
X158014Y028152D01*
X158005Y028146D01*
X158Y028143D01*
X157998Y028142D01*
X157991Y028137D01*
X157984Y028131D01*
X157974Y028122D01*
X157965Y028113D01*
X157944Y028094D01*
X157923Y028074D01*
X157904Y028054D01*
X157895Y028046D01*
X157889Y028037D01*
X157882Y02803D01*
X157878Y028026D01*
X157874Y028023D01*
X157873Y028022D01*
X157852Y028D01*
X157833Y02798D01*
X157814Y027961D01*
X157798Y027945D01*
X157781Y02793D01*
X157766Y027917D01*
X157753Y027905D01*
X15774Y027895D01*
X157729Y027886D01*
X157719Y027878D01*
X157711Y027872D01*
X157704Y027867D01*
X157699Y027863D01*
X157695Y027861D01*
X157693Y027859D01*
X157692D01*
X157667Y027844D01*
X15764Y027834D01*
X157616Y027825D01*
X157594Y027818D01*
X157575Y027814D01*
X157567Y027813D01*
X157561Y027812D01*
X157555Y027811D01*
X157551Y027809D01*
X157547D01*
Y028318D01*
D02*
G37*
G36*
X157534Y027784D02*
Y027595D01*
X158317Y027784D01*
Y027675D01*
X157534Y027488D01*
X158317D01*
X157534D01*
Y027784D01*
D02*
G37*
G36*
X157547Y027442D02*
Y027188D01*
X157586Y027189D01*
X157625Y027192D01*
X157663Y027197D01*
X157681Y0272D01*
X157698Y027203D01*
X157714Y027206D01*
X157729Y027209D01*
X157741Y027212D01*
X157752Y027214D01*
X157762Y027216D01*
X157768Y027218D01*
X157773Y027219D01*
X157774D01*
X157821Y027233D01*
X157866Y027249D01*
X157886Y027256D01*
X157906Y027265D01*
X157925Y027273D01*
X157942Y02728D01*
X157957Y027288D01*
X157972Y027295D01*
X157985Y027301D01*
X157995Y027306D01*
X158003Y02731D01*
X158009Y027313D01*
X158013Y027315D01*
X158014Y027317D01*
X158035Y027329D01*
X158055Y027341D01*
X158072Y027352D01*
X15809Y027362D01*
X158105Y027373D01*
X158119Y027384D01*
X158132Y027394D01*
X158144Y027403D01*
X158155Y027412D01*
X158164Y027419D01*
X158172Y027426D01*
X158178Y027431D01*
X158183Y027436D01*
X158186Y027439D01*
X158188Y027441D01*
X158189Y027442D01*
X157547D01*
X158294D01*
Y026946D01*
X15816D01*
Y027275D01*
X15811Y027239D01*
X158059Y027207D01*
X158035Y027192D01*
X15801Y027179D01*
X157987Y027167D01*
X157965Y027156D01*
X157944Y027146D01*
X157926Y027137D01*
X157908Y02713D01*
X157894Y027123D01*
X157883Y027119D01*
X157874Y027115D01*
X157869Y027113D01*
X157867Y027112D01*
X157836Y027101D01*
X157807Y027091D01*
X157777Y027084D01*
X157749Y027076D01*
X15772Y027071D01*
X157694Y027065D01*
X157669Y027061D01*
X157646Y027057D01*
X157625Y027054D01*
X157605Y027052D01*
X157589Y02705D01*
X157575Y027049D01*
X157563D01*
X157554Y027048D01*
X15755D01*
X157547D01*
Y027442D01*
D02*
G37*
G36*
X157533Y026849D02*
D01*
Y026603D01*
X157534Y026622D01*
X157537Y026641D01*
X157541Y02666D01*
X157545Y026676D01*
X157551Y026691D01*
X157557Y026706D01*
X157565Y026718D01*
X157573Y02673D01*
X157579Y026739D01*
X157587Y026749D01*
X157593Y026757D01*
X157599Y026763D01*
X157603Y026768D01*
X157608Y026771D01*
X15761Y026773D01*
X157611Y026774D01*
X157629Y026788D01*
X157651Y026798D01*
X157674Y026809D01*
X157699Y026817D01*
X157725Y026825D01*
X15775Y02683D01*
X157776Y026836D01*
X157801Y02684D01*
X157825Y026842D01*
X157847Y026844D01*
X157868Y026847D01*
X157885Y026848D01*
X157899Y026849D01*
X15792D01*
X15796Y026848D01*
X157996Y026845D01*
X158028Y026842D01*
X158059Y026837D01*
X158087Y026831D01*
X158113Y026826D01*
X158136Y026818D01*
X158155Y026812D01*
X158174Y026805D01*
X158188Y026798D01*
X158201Y026792D01*
X158212Y026786D01*
X15822Y026781D01*
X158225Y026778D01*
X158228Y026775D01*
X15823Y026774D01*
X158244Y026762D01*
X158256Y026749D01*
X158266Y026735D01*
X158275Y026721D01*
X158283Y026707D01*
X158289Y026692D01*
X158294Y026679D01*
X158298Y026665D01*
X158302Y026652D01*
X158304Y026641D01*
X158306Y02663D01*
X158307Y026621D01*
X158308Y026614D01*
Y026603D01*
X158307Y026583D01*
X158305Y026565D01*
X158301Y026546D01*
X158296Y02653D01*
X15829Y026514D01*
X158283Y0265D01*
X158277Y026488D01*
X158269Y026476D01*
X158261Y026466D01*
X158255Y026456D01*
X158248Y026449D01*
X158242Y026443D01*
X158237Y026438D01*
X158233Y026434D01*
X158231Y026432D01*
X15823Y026431D01*
X158211Y026418D01*
X158189Y026407D01*
X158166Y026397D01*
X158142Y026389D01*
X158117Y026382D01*
X158091Y026375D01*
X158066Y026371D01*
X15804Y026367D01*
X158016Y026365D01*
X157995Y026362D01*
X157974Y02636D01*
X157956Y026359D01*
X157942Y026358D01*
X157533D01*
Y026849D01*
D02*
G37*
G36*
X157534Y026314D02*
D01*
Y026125D01*
X158317Y026314D01*
Y026205D01*
X157534Y026018D01*
X158317D01*
X157534D01*
Y026314D01*
D02*
G37*
G36*
X157547Y025995D02*
D01*
Y025901D01*
X157699D01*
Y025995D01*
X157547D01*
X157826D01*
Y025901D01*
X158307D01*
Y025779D01*
X157825Y025451D01*
X158307D01*
X157699D01*
Y025761D01*
X157547D01*
Y025451D01*
D01*
Y025995D01*
D02*
G37*
G36*
Y025378D02*
X157682D01*
Y025089D01*
X157696Y025098D01*
X157708Y025108D01*
X157714Y025112D01*
X157718Y025115D01*
X15772Y025117D01*
X157721Y025119D01*
X157726Y025123D01*
X157731Y025127D01*
X157743Y02514D01*
X157757Y025155D01*
X157772Y025169D01*
X157785Y025183D01*
X157796Y025195D01*
X1578Y025199D01*
X157803Y025203D01*
X157804Y025205D01*
X157805Y025206D01*
X157828Y02523D01*
X157847Y02525D01*
X157864Y025266D01*
X157878Y025279D01*
X157889Y025289D01*
X157896Y025296D01*
X157902Y0253D01*
X157903Y025301D01*
X157921Y025315D01*
X157939Y025327D01*
X157955Y025337D01*
X157969Y025345D01*
X157981Y025351D01*
X157991Y025356D01*
X157997Y025358D01*
X157999Y025359D01*
X158016Y025366D01*
X158034Y02537D01*
X15805Y025373D01*
X158066Y025375D01*
X158078Y025376D01*
X158087Y025378D01*
X158096D01*
X158113Y025376D01*
X158129Y025374D01*
X158144Y025372D01*
X158158Y025368D01*
X158184Y025357D01*
X158205Y025346D01*
X158215Y025339D01*
X158223Y025334D01*
X158231Y025328D01*
X158236Y025323D01*
X15824Y025319D01*
X158245Y025316D01*
X158246Y025314D01*
X158247Y025313D01*
X158258Y025301D01*
X158268Y025287D01*
X158275Y025274D01*
X158282Y025258D01*
X158293Y02523D01*
X158301Y025202D01*
X158303Y025188D01*
X158305Y025176D01*
X158306Y025166D01*
X158307Y025156D01*
X158308Y025148D01*
Y025137D01*
X158307Y025119D01*
X158306Y025101D01*
X158301Y025067D01*
X158292Y025039D01*
X158287Y025026D01*
X158282Y025014D01*
X158278Y025003D01*
X158272Y024994D01*
X158268Y024985D01*
X158265Y024979D01*
X15826Y024973D01*
X158258Y02497D01*
X158257Y024968D01*
X158256Y024967D01*
X158245Y024955D01*
X158234Y024944D01*
X158221Y024934D01*
X158207Y024925D01*
X158178Y024912D01*
X158151Y024901D01*
X158137Y024898D01*
X158125Y024894D01*
X158114Y024891D01*
X158104Y02489D01*
X158095Y024888D01*
X15809D01*
X158085Y024887D01*
X158084D01*
X15807Y025031D01*
X158092Y025033D01*
X15811Y025038D01*
X158127Y025042D01*
X158139Y025047D01*
X158149Y025052D01*
X158155Y025056D01*
X15816Y025059D01*
X158161Y025061D01*
X158169Y025072D01*
X158176Y025084D01*
X158181Y025096D01*
X158185Y025108D01*
X158187Y025117D01*
X158188Y025126D01*
Y025134D01*
X158187Y02515D01*
X158184Y025164D01*
X158179Y025176D01*
X158175Y025187D01*
X15817Y025195D01*
X158166Y025202D01*
X158163Y025205D01*
X158162Y025206D01*
X158151Y025215D01*
X158139Y025221D01*
X158127Y025226D01*
X158115Y025229D01*
X158104Y025231D01*
X158094Y025232D01*
X158089D01*
X158087D01*
X158086D01*
X15807Y025231D01*
X158055Y025228D01*
X158039Y025222D01*
X158026Y025217D01*
X158014Y025211D01*
X158005Y025206D01*
X158Y025203D01*
X157998Y025202D01*
X157991Y025197D01*
X157984Y025191D01*
X157974Y025182D01*
X157965Y025173D01*
X157944Y025153D01*
X157923Y025134D01*
X157904Y025114D01*
X157895Y025105D01*
X157889Y025097D01*
X157882Y02509D01*
X157878Y025086D01*
X157874Y025082D01*
X157873Y025081D01*
X157852Y025059D01*
X157833Y02504D01*
X157814Y025021D01*
X157798Y025005D01*
X157781Y02499D01*
X157766Y024976D01*
X157753Y024964D01*
X15774Y024955D01*
X157729Y024946D01*
X157719Y024938D01*
X157711Y024932D01*
X157704Y024927D01*
X157699Y024923D01*
X157695Y024921D01*
X157693Y024918D01*
X157692D01*
X157667Y024904D01*
X15764Y024893D01*
X157616Y024885D01*
X157594Y024878D01*
X157575Y024874D01*
X157567Y024873D01*
X157561Y024871D01*
X157555Y02487D01*
X157551Y024869D01*
X157547D01*
Y025378D01*
D02*
G37*
%LPD*%
G36*
X158015Y029922D02*
X157996Y029919D01*
X157979Y029913D01*
X157965Y029909D01*
X157955Y029904D01*
X157948Y029898D01*
X157942Y029895D01*
X157941Y029894D01*
X15793Y029883D01*
X157922Y029871D01*
X157916Y029859D01*
X157913Y029848D01*
X15791Y029838D01*
X157909Y02983D01*
X157908Y029826D01*
Y029824D01*
X157909Y029809D01*
X157914Y029794D01*
X157919Y029782D01*
X157926Y029771D01*
X157931Y029763D01*
X157937Y029757D01*
X157941Y029753D01*
X157942Y029752D01*
X157956Y029742D01*
X157974Y029735D01*
X157991Y02973D01*
X15801Y029727D01*
X158025Y029724D01*
X158038Y029723D01*
X158044D01*
X158047D01*
X158049D01*
X15805D01*
X158075Y029724D01*
X158097Y029728D01*
X158116Y029732D01*
X15813Y029736D01*
X158141Y029741D01*
X158149Y029745D01*
X158154Y029748D01*
X158155Y02975D01*
X158166Y02976D01*
X158174Y029771D01*
X15818Y029782D01*
X158184Y029793D01*
X158186Y029802D01*
X158188Y02981D01*
Y029816D01*
X158186Y029832D01*
X158181Y029846D01*
X158176Y029859D01*
X158168Y02987D01*
X158161Y029879D01*
X158155Y029885D01*
X158151Y029889D01*
X158149Y029891D01*
X158132Y029901D01*
X158115Y029909D01*
X158096Y029916D01*
X158079Y029919D01*
X158062Y029921D01*
X15805Y029923D01*
X158045D01*
X158042D01*
X158039D01*
X158038D01*
X158015Y029922D01*
D02*
G37*
G36*
X157873Y028753D02*
X157852D01*
X157834Y028752D01*
X157816Y028751D01*
X157801Y028749D01*
X157787Y028747D01*
X157775Y028746D01*
X157764Y028745D01*
X157755Y028743D01*
X157748Y028742D01*
X157741Y028741D01*
X157737Y02874D01*
X157732D01*
X157731Y028739D01*
X15773D01*
X157715Y028734D01*
X157703Y028729D01*
X157692Y028723D01*
X157684Y028719D01*
X157678Y028714D01*
X157673Y02871D01*
X157671Y028708D01*
X15767Y028707D01*
X157664Y028699D01*
X15766Y028692D01*
X157658Y028684D01*
X157656Y028676D01*
X157655Y028671D01*
X157654Y028665D01*
Y028661D01*
X157655Y028651D01*
X157656Y028642D01*
X157659Y028635D01*
X157662Y028628D01*
X157664Y028623D01*
X157668Y028618D01*
X157669Y028616D01*
X15767Y028615D01*
X157678Y028608D01*
X157687Y028602D01*
X157698Y028596D01*
X157709Y028591D01*
X157719Y028588D01*
X157728Y028584D01*
X157733Y028583D01*
X157735Y028582D01*
X157746Y02858D01*
X157758Y028578D01*
X157772Y028576D01*
X157786Y028575D01*
X157816Y028572D01*
X157847Y028571D01*
X157861Y02857D01*
X157875D01*
X157887Y028569D01*
X157898D01*
X157907D01*
X157915D01*
X157919D01*
X15792D01*
X157944D01*
X157967Y02857D01*
X157987D01*
X158007Y028571D01*
X158023Y028572D01*
X158039Y028573D01*
X158052Y028575D01*
X158066Y028577D01*
X158076Y028578D01*
X158085Y028579D01*
X158093Y02858D01*
X158099Y028581D01*
X158104Y028582D01*
X158108D01*
X158109Y028583D01*
X15811D01*
X158126Y028588D01*
X158139Y028593D01*
X158149Y028598D01*
X158157Y028603D01*
X158163Y028607D01*
X158167Y028611D01*
X158169Y028613D01*
X15817Y028614D01*
X158176Y028622D01*
X15818Y02863D01*
X158184Y028638D01*
X158186Y028646D01*
X158187Y028651D01*
X158188Y028657D01*
Y028661D01*
X158187Y028671D01*
X158186Y028679D01*
X158183Y028687D01*
X158179Y028694D01*
X158176Y028699D01*
X158174Y028704D01*
X158172Y028706D01*
X15817Y028707D01*
X158163Y028713D01*
X158153Y02872D01*
X158142Y028725D01*
X158131Y028731D01*
X15812Y028734D01*
X158111Y028737D01*
X158106Y028739D01*
X158105Y02874D01*
X158104D01*
X158094Y028742D01*
X158082Y028744D01*
X158068Y028746D01*
X158054Y028748D01*
X158024Y028751D01*
X157993Y028752D01*
X157979Y028753D01*
X157965D01*
X157953Y028754D01*
X157942D01*
X157933D01*
X157926D01*
X157921D01*
X15792D01*
X157896D01*
X157873Y028753D01*
D02*
G37*
G36*
X157533Y028416D02*
X157921D01*
X157882Y028417D01*
X157846Y028419D01*
X157812Y028423D01*
X157781Y028427D01*
X157754Y028431D01*
X157729Y028437D01*
X157707Y028443D01*
X157687Y02845D01*
X157671Y028455D01*
X157656Y028462D01*
X157644Y028467D01*
X157634Y028473D01*
X157627Y028476D01*
X157622Y028479D01*
X157619Y028482D01*
X157617Y028483D01*
X157602Y028496D01*
X15759Y02851D01*
X157578Y028524D01*
X157569Y02854D01*
X157561Y028554D01*
X157554Y028569D01*
X157549Y028583D01*
X157544Y028598D01*
X15754Y028611D01*
X157538Y028623D01*
X157535Y028634D01*
X157534Y028642D01*
Y02865D01*
X157533Y028657D01*
Y028416D01*
D02*
G37*
G36*
X157873Y026695D02*
X157852D01*
X157834Y026694D01*
X157816Y026692D01*
X157801Y026691D01*
X157787Y026689D01*
X157775Y026688D01*
X157764Y026687D01*
X157755Y026685D01*
X157748Y026684D01*
X157741Y026683D01*
X157737Y026681D01*
X157732D01*
X157731Y02668D01*
X15773D01*
X157715Y026676D01*
X157703Y026671D01*
X157692Y026665D01*
X157684Y026661D01*
X157678Y026656D01*
X157673Y026652D01*
X157671Y02665D01*
X15767Y026649D01*
X157664Y026641D01*
X15766Y026633D01*
X157658Y026626D01*
X157656Y026618D01*
X157655Y026613D01*
X157654Y026607D01*
Y026603D01*
X157655Y026593D01*
X157656Y026584D01*
X157659Y026577D01*
X157662Y02657D01*
X157664Y026565D01*
X157668Y02656D01*
X157669Y026558D01*
X15767Y026557D01*
X157678Y02655D01*
X157687Y026544D01*
X157698Y026538D01*
X157709Y026533D01*
X157719Y02653D01*
X157728Y026526D01*
X157733Y026525D01*
X157735Y026524D01*
X157746Y026522D01*
X157758Y02652D01*
X157772Y026518D01*
X157786Y026516D01*
X157816Y026514D01*
X157847Y026513D01*
X157861Y026512D01*
X157875D01*
X157887Y026511D01*
X157898D01*
X157907D01*
X157915D01*
X157919D01*
X15792D01*
X157944D01*
X157967Y026512D01*
X157987D01*
X158007Y026513D01*
X158023Y026514D01*
X158039Y026515D01*
X158052Y026516D01*
X158066Y026519D01*
X158076Y02652D01*
X158085Y026521D01*
X158093Y026522D01*
X158099Y026523D01*
X158104Y026524D01*
X158108D01*
X158109Y026525D01*
X15811D01*
X158126Y02653D01*
X158139Y026535D01*
X158149Y026539D01*
X158157Y026545D01*
X158163Y026549D01*
X158167Y026553D01*
X158169Y026555D01*
X15817Y026556D01*
X158176Y026563D01*
X15818Y026572D01*
X158184Y02658D01*
X158186Y026588D01*
X158187Y026593D01*
X158188Y026598D01*
Y026603D01*
X158187Y026613D01*
X158186Y026621D01*
X158183Y026629D01*
X158179Y026636D01*
X158176Y026641D01*
X158174Y026645D01*
X158172Y026648D01*
X15817Y026649D01*
X158163Y026655D01*
X158153Y026662D01*
X158142Y026667D01*
X158131Y026673D01*
X15812Y026676D01*
X158111Y026679D01*
X158106Y02668D01*
X158105Y026681D01*
X158104D01*
X158094Y026684D01*
X158082Y026686D01*
X158068Y026688D01*
X158054Y02669D01*
X158024Y026692D01*
X157993Y026694D01*
X157979Y026695D01*
X157965D01*
X157953Y026696D01*
X157942D01*
X157933D01*
X157926D01*
X157921D01*
X15792D01*
X157896D01*
X157873Y026695D01*
D02*
G37*
G36*
X157533Y026358D02*
X157921D01*
X157882Y026359D01*
X157846Y026361D01*
X157812Y026365D01*
X157781Y026369D01*
X157754Y026373D01*
X157729Y026379D01*
X157707Y026385D01*
X157687Y026392D01*
X157671Y026397D01*
X157656Y026404D01*
X157644Y026409D01*
X157634Y026415D01*
X157627Y026418D01*
X157622Y026421D01*
X157619Y026424D01*
X157617Y026425D01*
X157602Y026438D01*
X15759Y026452D01*
X157578Y026466D01*
X157569Y026481D01*
X157561Y026496D01*
X157554Y026511D01*
X157549Y026525D01*
X157544Y026539D01*
X15754Y026553D01*
X157538Y026565D01*
X157535Y026575D01*
X157534Y026584D01*
Y026592D01*
X157533Y026598D01*
Y026358D01*
D02*
G37*
G36*
X157826Y025585D02*
X158086Y025761D01*
X157826D01*
Y025585D01*
D02*
G37*
%LPC*%
G36*
X157692Y015817D02*
X158076D01*
X15788D01*
X157899Y015816D01*
X157917Y015815D01*
X157925Y015814D01*
X157932Y015813D01*
X157939Y015812D01*
X157945Y015811D01*
X157951Y015809D01*
X157956Y015808D01*
X15796Y015807D01*
X157964Y015806D01*
X157967Y015805D01*
X157969Y015805D01*
X15797Y015804D01*
X15797D01*
X157984Y015799D01*
X157996Y015793D01*
X158006Y015787D01*
X158015Y015781D01*
X158023Y015776D01*
X158028Y015771D01*
X158031Y015769D01*
X158033Y015768D01*
Y015768D01*
X158041Y015758D01*
X158049Y015749D01*
X158055Y015739D01*
X15806Y01573D01*
X158064Y015722D01*
X158066Y015715D01*
X158067Y015713D01*
X158068Y015712D01*
X158068Y01571D01*
Y01571D01*
X158071Y015699D01*
X158073Y015688D01*
X158074Y015675D01*
X158075Y015664D01*
X158075Y015653D01*
X158076Y015649D01*
Y015496D01*
X157692D01*
Y015817D01*
D02*
G37*
G36*
Y015414D02*
X158076D01*
Y015342D01*
X157817D01*
X158076Y015183D01*
Y015108D01*
X157692D01*
Y015414D01*
D02*
G37*
G36*
X157685Y015036D02*
X158083D01*
D01*
X157898D01*
Y014869D01*
X157833D01*
Y014958D01*
X157783D01*
X157778Y014951D01*
X157774Y014944D01*
X15777Y014937D01*
X157767Y01493D01*
X157764Y014925D01*
X157762Y01492D01*
X157761Y014917D01*
X15776Y014916D01*
Y014916D01*
X157757Y014907D01*
X157754Y014898D01*
X157753Y01489D01*
X157752Y014882D01*
X157751Y014876D01*
X157751Y014871D01*
Y014867D01*
X157751Y014858D01*
X157752Y014849D01*
X157754Y014841D01*
X157756Y014834D01*
X157762Y01482D01*
X157764Y014814D01*
X157768Y014809D01*
X157771Y014804D01*
X157774Y014799D01*
X157777Y014796D01*
X157779Y014792D01*
X157782Y01479D01*
X157783Y014789D01*
X157784Y014787D01*
X157785Y014787D01*
X157792Y014782D01*
X157799Y014777D01*
X157807Y014773D01*
X157816Y01477D01*
X157833Y014764D01*
X157849Y014761D01*
X157857Y01476D01*
X157865Y014759D01*
X157871Y014758D01*
X157877Y014757D01*
X157882Y014757D01*
X157885D01*
X157888D01*
X157888D01*
X1579Y014757D01*
X15791Y014758D01*
X157921Y01476D01*
X15793Y014761D01*
X157939Y014764D01*
X157947Y014766D01*
X157954Y014769D01*
X15796Y014772D01*
X157966Y014774D01*
X157971Y014777D01*
X157975Y01478D01*
X157978Y014782D01*
X157981Y014784D01*
X157983Y014785D01*
X157984Y014786D01*
X157984Y014786D01*
X15799Y014792D01*
X157995Y014799D01*
X157999Y014805D01*
X158003Y014812D01*
X158006Y014819D01*
X158009Y014825D01*
X158013Y014838D01*
X158014Y014844D01*
X158015Y01485D01*
X158016Y014855D01*
X158016Y014859D01*
X158017Y014862D01*
Y014867D01*
X158016Y01488D01*
X158014Y01489D01*
X158012Y0149D01*
X158009Y014908D01*
X158006Y014914D01*
X158003Y014919D01*
X158001Y014922D01*
X158Y014923D01*
X157994Y014931D01*
X157986Y014937D01*
X157979Y014943D01*
X157972Y014947D01*
X157965Y01495D01*
X15796Y014952D01*
X157957Y014953D01*
X157957Y014954D01*
X157956D01*
X15797Y015031D01*
X15798Y015029D01*
X157989Y015026D01*
X157998Y015022D01*
X158005Y015018D01*
X158013Y015014D01*
X15802Y015009D01*
X158026Y015005D01*
X158031Y015001D01*
X158036Y014996D01*
X158041Y014992D01*
X158045Y014989D01*
X158048Y014986D01*
X15805Y014983D01*
X158052Y014981D01*
X158053Y014979D01*
X158053Y014979D01*
X158059Y014971D01*
X158063Y014963D01*
X158067Y014954D01*
X15807Y014945D01*
X158076Y014926D01*
X158079Y014908D01*
X158081Y0149D01*
X158081Y014892D01*
X158082Y014885D01*
X158083Y014879D01*
X158083Y014874D01*
Y014677D01*
Y014867D01*
X158083Y014847D01*
X15808Y01483D01*
X158079Y014822D01*
X158077Y014814D01*
X158075Y014807D01*
X158074Y014801D01*
X158071Y014795D01*
X15807Y01479D01*
X158068Y014786D01*
X158067Y014782D01*
X158065Y014779D01*
X158065Y014777D01*
X158064Y014776D01*
Y014775D01*
X158054Y014758D01*
X158048Y014751D01*
X158042Y014744D01*
X158036Y014737D01*
X15803Y014731D01*
X158024Y014725D01*
X158018Y01472D01*
X158013Y014716D01*
X158008Y014713D01*
X158003Y014709D01*
X157999Y014706D01*
X157996Y014705D01*
X157994Y014703D01*
X157992Y014703D01*
X157991Y014702D01*
X157983Y014698D01*
X157974Y014694D01*
X157955Y014688D01*
X157937Y014683D01*
X157921Y01468D01*
X157913Y014679D01*
X157907Y014678D01*
X1579Y014678D01*
X157895D01*
X157891Y014677D01*
X157885D01*
X157864Y014678D01*
X157846Y01468D01*
X157828Y014684D01*
X15782Y014686D01*
X157813Y014688D01*
X157806Y01469D01*
X1578Y014692D01*
X157795Y014694D01*
X157791Y014696D01*
X157787Y014697D01*
X157784Y014698D01*
X157783Y014699D01*
X157782D01*
X157766Y014709D01*
X157751Y014719D01*
X157738Y01473D01*
X157728Y014741D01*
X157724Y014746D01*
X15772Y014751D01*
X157717Y014755D01*
X157715Y014759D01*
X157712Y014762D01*
X157711Y014765D01*
X15771Y014766D01*
X15771Y014766D01*
X157705Y014775D01*
X157701Y014784D01*
X157695Y014802D01*
X157691Y01482D01*
X157688Y014836D01*
X157687Y014844D01*
X157686Y01485D01*
X157685Y014856D01*
Y014862D01*
X157685Y014866D01*
Y014872D01*
X157685Y01489D01*
X157687Y014906D01*
X15769Y014922D01*
X157693Y014936D01*
X157695Y014942D01*
X157697Y014948D01*
X157698Y014953D01*
X1577Y014957D01*
X157701Y014961D01*
X157702Y014963D01*
X157702Y014965D01*
Y014965D01*
X157709Y014982D01*
X157716Y014996D01*
X157723Y015008D01*
X15773Y015018D01*
X157735Y015026D01*
X157737Y015029D01*
X15774Y015032D01*
X157741Y015033D01*
X157742Y015035D01*
X157743Y015036D01*
X157685D01*
D01*
D02*
G37*
G36*
X157794Y014648D02*
X157868D01*
Y014503D01*
X157794D01*
Y014648D01*
D02*
G37*
G36*
X15797Y01432D02*
Y014271D01*
D01*
Y01432D01*
D02*
G37*
G36*
X157692Y014467D02*
X15797D01*
Y014372D01*
X157893Y01432D01*
X15797Y014271D01*
Y014177D01*
Y014181D01*
X157835Y014277D01*
X157692Y014177D01*
D01*
Y014263D01*
X157778Y01432D01*
X157692Y014377D01*
Y014467D01*
D02*
G37*
G36*
Y014171D02*
X158076D01*
D01*
X157692D01*
X157767Y014124D01*
X157774Y014119D01*
X157782Y014114D01*
X157789Y01411D01*
X157795Y014105D01*
X157801Y014101D01*
X157806Y014098D01*
X157814Y014091D01*
X157821Y014087D01*
X157826Y014083D01*
X157828Y01408D01*
X157829Y01408D01*
X157836Y014074D01*
X157842Y014067D01*
X157847Y01406D01*
X157852Y014053D01*
X157856Y014048D01*
X157858Y014043D01*
X157861Y01404D01*
X157861Y014039D01*
Y014039D01*
X157863Y014048D01*
X157865Y014057D01*
X157867Y014064D01*
X15787Y014072D01*
X157873Y014079D01*
X157875Y014085D01*
X157878Y014091D01*
X157882Y014096D01*
X157884Y0141D01*
X157887Y014104D01*
X15789Y014108D01*
X157892Y01411D01*
X157894Y014112D01*
X157895Y014114D01*
X157896Y014114D01*
X157897Y014115D01*
X157902Y014119D01*
X157908Y014123D01*
X15792Y01413D01*
X157932Y014134D01*
X157943Y014137D01*
X157953Y014139D01*
X157957Y01414D01*
X157961D01*
X157964Y01414D01*
X157967D01*
X157968D01*
X157968D01*
X15798Y01414D01*
X157992Y014138D01*
X158002Y014135D01*
X158011Y014132D01*
X158018Y014129D01*
X158024Y014126D01*
X158025Y014125D01*
X158027Y014124D01*
X158028Y014123D01*
X158028D01*
X158038Y014116D01*
X158045Y014109D01*
X158051Y014102D01*
X158057Y014095D01*
X15806Y014088D01*
X158063Y014083D01*
X158065Y01408D01*
X158065Y014079D01*
Y014079D01*
X158067Y014073D01*
X158069Y014067D01*
X158071Y014053D01*
X158073Y014038D01*
X158075Y014024D01*
Y014017D01*
X158075Y01401D01*
Y014004D01*
X158076Y013999D01*
Y013826D01*
X157692D01*
Y014007D01*
Y013904D01*
X157852D01*
Y013929D01*
X157852Y013937D01*
X157851Y013943D01*
X15785Y013949D01*
X157849Y013953D01*
X157848Y013956D01*
X157848Y013958D01*
Y013958D01*
X157846Y013963D01*
X157843Y013967D01*
X157841Y013971D01*
X157838Y013975D01*
X157836Y013978D01*
X157833Y01398D01*
X157832Y013981D01*
X157832Y013982D01*
X157829Y013984D01*
X157826Y013987D01*
X157818Y013993D01*
X157809Y013999D01*
X157799Y014007D01*
X15779Y014013D01*
X157786Y014015D01*
X157782Y014018D01*
X157779Y01402D01*
X157777Y014022D01*
X157776Y014022D01*
X157775Y014023D01*
X157692Y014078D01*
Y014171D01*
D02*
G37*
G36*
X157794Y013783D02*
X157868D01*
Y013638D01*
X157794D01*
Y013783D01*
D02*
G37*
G36*
X157692Y013603D02*
X15797D01*
Y013508D01*
X157893Y013455D01*
X15797Y013407D01*
Y013455D01*
Y013407D01*
D01*
Y013312D01*
Y013317D01*
X157835Y013413D01*
X157692Y013312D01*
D01*
Y013398D01*
X157778Y013455D01*
X157692Y013513D01*
Y013603D01*
D02*
G37*
G36*
Y013298D02*
X158076D01*
Y012994D01*
X158011D01*
Y013107D01*
X157692D01*
Y012994D01*
D01*
Y013298D01*
D02*
G37*
%LPD*%
G36*
Y015641D02*
X157692Y015656D01*
X157693Y01567D01*
X157694Y015682D01*
X157696Y015691D01*
X157697Y015699D01*
X157698Y015705D01*
X157699Y015707D01*
Y015708D01*
X1577Y015709D01*
Y015709D01*
X157704Y015722D01*
X157709Y015733D01*
X157714Y015742D01*
X157719Y015749D01*
X157723Y015755D01*
X157727Y01576D01*
X157729Y015763D01*
X15773Y015764D01*
X157741Y015773D01*
X157752Y015781D01*
X157763Y015789D01*
X157774Y015794D01*
X157784Y015799D01*
X157788Y015801D01*
X157791Y015802D01*
X157794Y015803D01*
X157797Y015804D01*
X157798Y015805D01*
X157798D01*
X157812Y015809D01*
X157826Y015812D01*
X157839Y015814D01*
X157852Y015815D01*
X157858Y015816D01*
X157863Y015816D01*
X157868D01*
X157872Y015817D01*
X157692D01*
Y015641D01*
D02*
G37*
G36*
X157868Y015737D02*
X157853Y015736D01*
X157842Y015734D01*
X157832Y015733D01*
X157823Y015732D01*
X15782Y015731D01*
X157818Y01573D01*
X157816Y015729D01*
X157814D01*
X157813Y015729D01*
X157813D01*
X157804Y015725D01*
X157796Y015723D01*
X15779Y015719D01*
X157785Y015716D01*
X157781Y015713D01*
X157778Y015711D01*
X157777Y015709D01*
X157776Y015709D01*
X157772Y015704D01*
X157769Y015699D01*
X157766Y015694D01*
X157764Y015689D01*
X157762Y015684D01*
X157761Y015681D01*
X15776Y015679D01*
Y015678D01*
X157759Y015672D01*
X157758Y015664D01*
X157757Y015657D01*
Y015649D01*
X157757Y015642D01*
Y015573D01*
X158011D01*
Y015624D01*
X15801Y015631D01*
Y015638D01*
X15801Y015643D01*
Y015648D01*
X158009Y015653D01*
Y015657D01*
X158008Y015663D01*
X158008Y015668D01*
X158007Y01567D01*
Y015671D01*
X158005Y015679D01*
X158002Y015685D01*
X157999Y015692D01*
X157996Y015697D01*
X157993Y015701D01*
X157991Y015704D01*
X157989Y015706D01*
X157989Y015707D01*
X157983Y015712D01*
X157977Y015716D01*
X157971Y01572D01*
X157965Y015723D01*
X15796Y015725D01*
X157955Y015727D01*
X157953Y015728D01*
X157952Y015729D01*
X157952D01*
X157942Y015732D01*
X157931Y015734D01*
X157919Y015735D01*
X157908Y015736D01*
X157899Y015737D01*
X157894Y015737D01*
X15789D01*
X157888D01*
X157885D01*
X157884D01*
X157883D01*
X157868Y015737D01*
D02*
G37*
G36*
X157692Y01518D02*
X157945D01*
X157692Y015336D01*
Y01518D01*
D02*
G37*
G36*
X157838Y014365D02*
X15797Y014458D01*
Y014467D01*
X157692D01*
X157838Y014365D01*
D02*
G37*
G36*
X157957Y01406D02*
X157951Y014059D01*
X157946Y014058D01*
X157942Y014057D01*
X157938Y014055D01*
X157936Y014053D01*
X157934Y014053D01*
X157934Y014052D01*
X15793Y014049D01*
X157927Y014045D01*
X157922Y014038D01*
X15792Y014035D01*
X157919Y014033D01*
X157918Y014031D01*
Y01403D01*
X157917Y014028D01*
X157916Y014023D01*
X157915Y014019D01*
X157915Y014014D01*
X157914Y014002D01*
X157914Y01399D01*
X157913Y013979D01*
Y013904D01*
X158011D01*
Y013993D01*
X15801Y013998D01*
Y01401D01*
X15801Y014015D01*
Y014018D01*
X158009Y01402D01*
Y01402D01*
X158008Y014027D01*
X158005Y014033D01*
X158003Y014038D01*
X158Y014042D01*
X157998Y014045D01*
X157996Y014048D01*
X157994Y014049D01*
X157994Y01405D01*
X157989Y014053D01*
X157984Y014056D01*
X157979Y014058D01*
X157974Y014059D01*
X157969Y01406D01*
X157966Y01406D01*
X157964D01*
X157963D01*
X157957Y01406D01*
D02*
G37*
G36*
X157838Y0135D02*
X15797Y013594D01*
Y013603D01*
X157692D01*
X157838Y0135D01*
D02*
G37*
G36*
X157692Y013185D02*
X158011D01*
Y013298D01*
X157692D01*
Y013185D01*
D02*
G37*
%LPC*%
G36*
X146601Y025947D02*
X147112D01*
X146884D01*
X146903Y025945D01*
X146922Y025943D01*
X146939Y025939D01*
X146955Y025936D01*
X146969Y025932D01*
X146982Y025927D01*
X146994Y025923D01*
X147004Y025918D01*
X147013Y025913D01*
X14702Y025909D01*
X147026Y025906D01*
X147031Y025902D01*
X147034Y0259D01*
X147036Y025899D01*
X147037Y025898D01*
X147046Y025889D01*
X147055Y025879D01*
X147063Y02587D01*
X147068Y025859D01*
X147079Y025839D01*
X147086Y02582D01*
X147089Y025804D01*
X14709Y025796D01*
X147091Y025791D01*
X147092Y025785D01*
Y025782D01*
Y02578D01*
Y025779D01*
X147091Y025765D01*
X147089Y025751D01*
X147087Y025738D01*
X147083Y025726D01*
X147072Y025706D01*
X14706Y025688D01*
X147049Y025674D01*
X147038Y025664D01*
X147033Y02566D01*
X147031Y025657D01*
X147029Y025656D01*
X147028Y025655D01*
X147018Y02565D01*
X147005Y025643D01*
X14699Y025637D01*
X146973Y025631D01*
X146956Y025625D01*
X146937Y025619D01*
X146899Y025608D01*
X14688Y025603D01*
X146863Y025598D01*
X146848Y025594D01*
X146833Y025591D01*
X146821Y025589D01*
X146813Y025586D01*
X146807Y025584D01*
X146805D01*
X146792Y025581D01*
X146782Y025578D01*
X146773Y025574D01*
X146767Y025572D01*
X146762Y025569D01*
X146759Y025568D01*
X146757Y025566D01*
X14675Y025557D01*
X146747Y025548D01*
X146746Y025542D01*
Y025539D01*
Y025538D01*
X146747Y02553D01*
X146749Y025522D01*
X146752Y025515D01*
X146756Y02551D01*
X146759Y025506D01*
X146762Y025502D01*
X146765Y0255D01*
X146766Y025499D01*
X146778Y025492D01*
X146791Y025488D01*
X146805Y025484D01*
X146818Y025482D01*
X14683Y02548D01*
X146841Y025479D01*
X14685D01*
X146868Y02548D01*
X146884Y025483D01*
X146898Y025486D01*
X146909Y02549D01*
X146918Y025494D01*
X146924Y025497D01*
X146928Y025499D01*
X14693Y0255D01*
X146939Y025509D01*
X146947Y02552D01*
X146954Y02553D01*
X146959Y025541D01*
X146962Y02555D01*
X146965Y025558D01*
X146967Y025562D01*
Y025565D01*
X147112Y025543D01*
X147102Y025515D01*
X14709Y02549D01*
X147077Y025469D01*
X147063Y025452D01*
X14705Y025438D01*
X147038Y025428D01*
X147034Y025424D01*
X147031Y025421D01*
X147029Y02542D01*
X147028Y025419D01*
X147015Y025412D01*
X147002Y025404D01*
X146972Y025393D01*
X146943Y025385D01*
X146914Y02538D01*
X146901Y025378D01*
X146889Y025377D01*
X146878Y025375D01*
X146868D01*
X146861Y025374D01*
X14685D01*
X146828Y025375D01*
X146807Y025377D01*
X146787Y02538D01*
X146769Y025383D01*
X146752Y025386D01*
X146737Y025392D01*
X146723Y025396D01*
X146711Y025402D01*
X1467Y025406D01*
X14669Y025412D01*
X146683Y025416D01*
X146676Y025419D01*
X146671Y025424D01*
X146667Y025426D01*
X146665Y025427D01*
X146664Y025428D01*
X146653Y025439D01*
X146643Y02545D01*
X146634Y025461D01*
X146627Y025472D01*
X146621Y025483D01*
X146616Y025494D01*
X146608Y025513D01*
X146604Y025532D01*
X146603Y025539D01*
X146602Y025545D01*
X146601Y02555D01*
Y02543D01*
Y025563D01*
Y025558D01*
X146603Y025582D01*
X146608Y025604D01*
X146615Y025623D01*
X146624Y025638D01*
X146632Y02565D01*
X146639Y025659D01*
X146644Y025663D01*
X146646Y025665D01*
X146656Y025672D01*
X146666Y025679D01*
X146678Y025685D01*
X146691Y025691D01*
X146718Y025702D01*
X146745Y025712D01*
X146769Y02572D01*
X14678Y025722D01*
X14679Y025725D01*
X146797Y025727D01*
X146803Y025729D01*
X146807Y02573D01*
X146808D01*
X146829Y025735D01*
X146848Y025739D01*
X146864Y025744D01*
X146878Y025748D01*
X146891Y025751D01*
X146902Y025755D01*
X146911Y025758D01*
X14692Y02576D01*
X146926Y025764D01*
X146932Y025766D01*
X146936Y025767D01*
X146938Y025769D01*
X146943Y02577D01*
X146944Y025771D01*
X146948Y025776D01*
X146951Y02578D01*
X146956Y025789D01*
X146958Y025795D01*
Y025796D01*
Y025797D01*
X146957Y025804D01*
X146956Y025809D01*
X146949Y025819D01*
X146944Y025825D01*
X146943Y025827D01*
X146942D01*
X146931Y025832D01*
X146919Y025837D01*
X146905Y025839D01*
X146891Y025841D01*
X146879Y025842D01*
X146869Y025843D01*
X14686D01*
X146843Y025842D01*
X146829Y025841D01*
X146817Y025838D01*
X146807Y025835D01*
X146799Y025831D01*
X146794Y025829D01*
X146791Y025827D01*
X14679Y025826D01*
X146781Y025819D01*
X146774Y025812D01*
X146768Y025804D01*
X146763Y025795D01*
X14676Y025789D01*
X146758Y025783D01*
X146756Y025779D01*
Y025778D01*
X146619Y025803D01*
X146628Y025828D01*
X14664Y02585D01*
X146652Y025868D01*
X146665Y025883D01*
X146676Y025895D01*
X146686Y025903D01*
X146692Y025908D01*
X146693Y02591D01*
X146695D01*
X146705Y025917D01*
X146718Y025922D01*
X146744Y025932D01*
X146771Y025938D01*
X146798Y025943D01*
X146812Y025944D01*
X146824Y025945D01*
X146834Y025946D01*
X146843Y025947D01*
X146601D01*
D02*
G37*
G36*
X144904Y026143D02*
X145067D01*
X145252Y025583D01*
X145444Y026143D01*
X14541D01*
X145609D01*
X145338Y025386D01*
X145609D01*
X144904D01*
D01*
X145173D01*
X144904Y026143D01*
D02*
G37*
G36*
X144037D02*
X144183D01*
Y025386D01*
X144037D01*
Y026143D01*
D02*
G37*
G36*
X147747Y026143D02*
X148347D01*
Y025386D01*
X147747D01*
D01*
X14797D01*
Y026015D01*
X147747D01*
Y026143D01*
D02*
G37*
G36*
X144295Y025947D02*
X144862D01*
D01*
X14458D01*
X144609Y025946D01*
X144636Y025942D01*
X144662Y025936D01*
X144683Y02593D01*
X144692Y025925D01*
X144701Y025922D01*
X144709Y02592D01*
X144714Y025917D01*
X144719Y025914D01*
X144723Y025912D01*
X144725Y025911D01*
X144726D01*
X144749Y025896D01*
X144769Y025879D01*
X144786Y025862D01*
X1448Y025845D01*
X144811Y02583D01*
X14482Y025818D01*
X144823Y025814D01*
X144824Y02581D01*
X144827Y025808D01*
Y025807D01*
X144839Y025782D01*
X144846Y025757D01*
X144853Y025734D01*
X144857Y025713D01*
X144859Y025695D01*
X14486Y025687D01*
Y02568D01*
X144862Y025676D01*
Y025668D01*
X14486Y025635D01*
X144856Y025603D01*
X144851Y025576D01*
X144847Y025563D01*
X144844Y025553D01*
X144841Y025543D01*
X144838Y025534D01*
X144834Y025526D01*
X144832Y02552D01*
X14483Y025514D01*
X144828Y025511D01*
X144827Y025509D01*
Y025508D01*
X144811Y025485D01*
X144795Y025465D01*
X144777Y025448D01*
X144761Y025433D01*
X144746Y025422D01*
X144734Y025415D01*
X144729Y025412D01*
X144726Y025409D01*
X144724Y025408D01*
X144723D01*
X144697Y025397D01*
X144671Y025389D01*
X144647Y025383D01*
X144624Y025379D01*
X144606Y025377D01*
X144598Y025375D01*
X144592D01*
X144586Y025374D01*
X144579D01*
X144556Y025375D01*
X144535Y025378D01*
X144514Y025382D01*
X144495Y025388D01*
X144477Y025393D01*
X14446Y0254D01*
X144445Y025407D01*
X144431Y025415D01*
X144419Y025422D01*
X144408Y02543D01*
X144398Y025437D01*
X144391Y025442D01*
X144384Y025448D01*
X14438Y025452D01*
X144377Y025454D01*
X144376Y025455D01*
X144362Y025472D01*
X14435Y025488D01*
X144339Y025504D01*
X144329Y025522D01*
X144322Y025539D01*
X144315Y025557D01*
X14431Y025573D01*
X144305Y02559D01*
X144302Y025604D01*
X1443Y025618D01*
X144298Y02563D01*
X144297Y025641D01*
X144295Y02565D01*
Y025662D01*
X144297Y025685D01*
X144299Y025707D01*
X144303Y025726D01*
X144307Y025746D01*
X144314Y025764D01*
X144321Y025781D01*
X144328Y025796D01*
X144335Y02581D01*
X144342Y025823D01*
X14435Y025835D01*
X144357Y025843D01*
X144363Y025852D01*
X144368Y025858D01*
X144372Y025863D01*
X144374Y025865D01*
X144375Y025866D01*
X144391Y02588D01*
X144407Y025892D01*
X144423Y025903D01*
X144441Y025913D01*
X144458Y025921D01*
X144475Y025927D01*
X144491Y025933D01*
X144507Y025937D01*
X144522Y025941D01*
X144536Y025943D01*
X144548Y025945D01*
X144559Y025946D01*
X144568Y025947D01*
X144295D01*
D01*
D02*
G37*
G36*
X146321Y02613D02*
X146466Y026044D01*
Y025935D01*
X146533D01*
Y025374D01*
Y025819D01*
X146466D01*
Y02558D01*
Y025566D01*
Y025554D01*
Y025542D01*
X146465Y025532D01*
Y025514D01*
X146464Y0255D01*
X146463Y025489D01*
Y025483D01*
X146462Y025478D01*
Y025477D01*
X14646Y025465D01*
X146456Y025454D01*
X146453Y025444D01*
X14645Y025437D01*
X146446Y02543D01*
X146444Y025426D01*
X146443Y025422D01*
X146442Y025421D01*
X146436Y025414D01*
X146428Y025407D01*
X146413Y025396D01*
X146406Y025393D01*
X146401Y02539D01*
X146396Y025389D01*
X146395Y025388D01*
X146383Y025383D01*
X146371Y02538D01*
X146359Y025378D01*
X146348Y025377D01*
X146338Y025375D01*
X146331Y025374D01*
X146324D01*
X146301Y025375D01*
X146279Y025378D01*
X14626Y025381D01*
X146243Y025385D01*
X146229Y025389D01*
X146218Y025392D01*
X146211Y025394D01*
X14621Y025395D01*
X146209D01*
D01*
X146222Y025508D01*
X146235Y025503D01*
X146248Y0255D01*
X146257Y025498D01*
X146266Y025497D01*
X146273Y025496D01*
X146277Y025495D01*
X146281D01*
X146291Y025496D01*
X146299Y025498D01*
X146303Y0255D01*
X146305Y025501D01*
X146312Y025508D01*
X146315Y025513D01*
X146317Y025518D01*
X146319Y02552D01*
Y025522D01*
X14632Y025526D01*
Y025536D01*
Y025549D01*
X146321Y025562D01*
Y025576D01*
Y025586D01*
Y025591D01*
Y025594D01*
Y025596D01*
Y025597D01*
Y025819D01*
X146221D01*
Y025935D01*
X146321D01*
Y02613D01*
D02*
G37*
G36*
X147429Y025947D02*
X147691D01*
X147441D01*
X147461Y025946D01*
X147479Y025944D01*
X147498Y025939D01*
X147514Y025935D01*
X147531Y02593D01*
X147545Y025923D01*
X147559Y025915D01*
X147571Y025909D01*
X147582Y025901D01*
X147592Y025894D01*
X147601Y025887D01*
X147607Y025882D01*
X147613Y025877D01*
X147617Y025873D01*
X147619Y025871D01*
X14762Y02587D01*
X147632Y025854D01*
X147643Y025838D01*
X147653Y025821D01*
X147662Y025804D01*
X147668Y025785D01*
X147674Y025768D01*
X147683Y025734D01*
X147686Y025718D01*
X147688Y025703D01*
X147689Y02569D01*
X14769Y025679D01*
X147691Y02567D01*
Y025656D01*
X14769Y025636D01*
X147689Y025615D01*
X147686Y025596D01*
X147683Y025579D01*
X147679Y025561D01*
X147674Y025546D01*
X14767Y025532D01*
X147664Y025519D01*
X14766Y025507D01*
X147654Y025497D01*
X14765Y025488D01*
X147647Y02548D01*
X147642Y025475D01*
X14764Y025471D01*
X147639Y025468D01*
X147638Y025467D01*
X147624Y025451D01*
X147609Y025437D01*
X147593Y025425D01*
X147576Y025414D01*
X147558Y025405D01*
X147541Y025397D01*
X147523Y025391D01*
X147506Y025386D01*
X14749Y025382D01*
X147475Y02538D01*
X147461Y025378D01*
X147449Y025375D01*
X147439D01*
X147432Y025374D01*
X147426D01*
D01*
X14718D01*
Y025618D01*
Y025649D01*
X147182Y025676D01*
X147185Y025702D01*
X14719Y025726D01*
X147195Y025749D01*
X147201Y025769D01*
X147207Y025788D01*
X147214Y025804D01*
X14722Y025818D01*
X147227Y025831D01*
X147232Y025841D01*
X147238Y02585D01*
X147242Y025856D01*
X147245Y025862D01*
X147248Y025864D01*
X147249Y025865D01*
X147262Y025879D01*
X147277Y025892D01*
X147292Y025903D01*
X147308Y025912D01*
X147324Y025921D01*
X147341Y025927D01*
X147356Y025933D01*
X147371Y025937D01*
X147385Y025941D01*
X147398Y025943D01*
X14741Y025945D01*
X14742Y025946D01*
X147429Y025947D01*
D02*
G37*
%LPD*%
G36*
X148123Y025386D02*
X148347D01*
Y026015D01*
X148123D01*
Y025386D01*
D02*
G37*
G36*
X144558Y025827D02*
X144539Y025823D01*
X144524Y025815D01*
X14451Y025807D01*
X144499Y0258D01*
X14449Y025792D01*
X144486Y025788D01*
X144483Y025785D01*
X14447Y025768D01*
X14446Y025747D01*
X144454Y025726D01*
X144448Y025707D01*
X144446Y025689D01*
X144445Y02568D01*
Y025674D01*
X144444Y025668D01*
Y025664D01*
Y025662D01*
Y025661D01*
X144446Y025632D01*
X144451Y025606D01*
X144456Y025585D01*
X144464Y025567D01*
X144471Y025554D01*
X144477Y025543D01*
X144481Y025537D01*
X144483Y025535D01*
X144499Y025521D01*
X144514Y02551D01*
X14453Y025503D01*
X144546Y025498D01*
X144559Y025495D01*
X144569Y025494D01*
X144573Y025492D01*
X144579D01*
X144599Y025495D01*
X144618Y025499D01*
X144634Y025506D01*
X144647Y025514D01*
X144659Y025522D01*
X144668Y025529D01*
X144673Y025533D01*
X144675Y025535D01*
X144688Y025553D01*
X144697Y025573D01*
X144703Y025594D01*
X144709Y025615D01*
X144711Y025632D01*
X144712Y02564D01*
Y025648D01*
X144713Y025653D01*
Y025657D01*
Y02566D01*
Y025661D01*
X144711Y025689D01*
X144706Y025714D01*
X144701Y025736D01*
X144693Y025754D01*
X144687Y025767D01*
X14468Y025778D01*
X144676Y025783D01*
X144675Y025785D01*
X144659Y0258D01*
X144643Y02581D01*
X144627Y025818D01*
X144611Y025824D01*
X144598Y025827D01*
X144588Y025828D01*
X144584Y025829D01*
X144579D01*
X144558Y025827D01*
D02*
G37*
G36*
X147416Y025835D02*
X147402Y02583D01*
X147389Y025825D01*
X147378Y025819D01*
X147369Y025813D01*
X147362Y025807D01*
X147358Y025803D01*
X147357Y025802D01*
X147347Y025789D01*
X147338Y025773D01*
X147333Y025757D01*
X147329Y025742D01*
X147326Y025729D01*
X147325Y025717D01*
X147324Y025712D01*
Y02571D01*
Y025708D01*
Y025707D01*
X147541D01*
X147539Y025727D01*
X147536Y025746D01*
X147532Y025762D01*
X147525Y025776D01*
X14752Y025786D01*
X147514Y025794D01*
X147511Y0258D01*
X14751Y025801D01*
X147498Y025813D01*
X147485Y025821D01*
X147472Y025827D01*
X14746Y025831D01*
X147449Y025833D01*
X14744Y025836D01*
X147432D01*
X147416Y025835D01*
D02*
G37*
G36*
X14718Y025374D02*
X147426D01*
X147394Y025377D01*
X147365Y025381D01*
X147339Y025388D01*
X147318Y025395D01*
X147308Y0254D01*
X1473Y025403D01*
X147292Y025406D01*
X147287Y025409D01*
X147283Y025413D01*
X147278Y025414D01*
X147277Y025416D01*
X147276D01*
X147255Y025433D01*
X147237Y025452D01*
X147221Y025473D01*
X147209Y025492D01*
X1472Y02551D01*
X147196Y025518D01*
X147193Y025524D01*
X147191Y02553D01*
X147189Y025534D01*
X147188Y025536D01*
Y025537D01*
X147332Y025561D01*
X147337Y025547D01*
X147343Y025534D01*
X147348Y025524D01*
X147355Y025515D01*
X147359Y025509D01*
X147363Y025504D01*
X147367Y025502D01*
X147368Y025501D01*
X147377Y025495D01*
X147386Y02549D01*
X147396Y025487D01*
X147405Y025485D01*
X147413Y025484D01*
X147419Y025483D01*
X147425D01*
X147442Y025484D01*
X147459Y025488D01*
X147474Y025494D01*
X147486Y0255D01*
X147496Y025507D01*
X147502Y025512D01*
X147508Y025516D01*
X147509Y025518D01*
X14752Y025532D01*
X147527Y025548D01*
X147534Y025566D01*
X147538Y025581D01*
X147541Y025596D01*
X147542Y025607D01*
X147543Y025612D01*
Y025615D01*
Y025617D01*
Y025618D01*
X14718D01*
Y025374D01*
D02*
G37*
%LPC*%
G36*
X146192Y025219D02*
D01*
Y024462D01*
D01*
D01*
Y025219D01*
D02*
G37*
G36*
D02*
X146897D01*
D01*
X146626Y024462D01*
X146461D01*
X146192Y025219D01*
D02*
G37*
G36*
X147069Y025223D02*
X147188D01*
X147198Y025198D01*
X147213Y025175D01*
X147228Y025153D01*
X147243Y025136D01*
X147256Y025121D01*
X147268Y025111D01*
X147273Y025106D01*
X147276Y025103D01*
X147278Y025102D01*
X147279Y025101D01*
X147303Y025083D01*
X147326Y025068D01*
X147347Y025056D01*
X147366Y025047D01*
X147381Y025041D01*
X147392Y025035D01*
X147396Y025034D01*
X1474Y025033D01*
X147401Y025032D01*
X147402D01*
Y024901D01*
X147362Y024916D01*
X147327Y024932D01*
X147311Y024941D01*
X147296Y024951D01*
X147282Y02496D01*
X147268Y024968D01*
X147256Y024977D01*
X147245Y024985D01*
X147237Y024991D01*
X147229Y024998D01*
X147222Y025003D01*
X147218Y025007D01*
X147216Y025009D01*
X147215Y02501D01*
Y024462D01*
X147402D01*
X147069D01*
Y025223D01*
D02*
G37*
G36*
X147558Y024608D02*
X147703D01*
Y024462D01*
X147558D01*
Y024608D01*
D02*
G37*
G36*
X147803Y025222D02*
X148347D01*
X148019D01*
X148347Y02474D01*
Y024614D01*
X148037D01*
Y024462D01*
X147897D01*
Y024614D01*
X147803D01*
Y024462D01*
D01*
Y025222D01*
D02*
G37*
%LPD*%
G36*
X146539Y024659D02*
X146732Y025219D01*
X146355D01*
X146539Y024659D01*
D02*
G37*
G36*
X147803Y024741D02*
X147897D01*
Y025222D01*
X147803D01*
Y024741D01*
D02*
G37*
G36*
X148037D02*
X148213D01*
X148037Y025001D01*
Y024741D01*
D02*
G37*
%LPC*%
G36*
X141156Y014328D02*
X141161D01*
X141172Y014327D01*
X141183Y014326D01*
X141193Y014323D01*
X141202Y014321D01*
X141211Y014317D01*
X14122Y014313D01*
X141227Y014309D01*
X141234Y014305D01*
X14124Y0143D01*
X141245Y014296D01*
X14125Y014292D01*
X141253Y014288D01*
X141257Y014286D01*
X141259Y014284D01*
X14126Y014282D01*
X141261Y014281D01*
X141267Y014272D01*
X141273Y014262D01*
X141278Y01425D01*
X141282Y014239D01*
X141286Y014226D01*
X14129Y014214D01*
X141292Y014201D01*
X141294Y014189D01*
X141296Y014178D01*
X141297Y014167D01*
X141298Y014157D01*
X141298Y014148D01*
X141299Y014141D01*
Y014131D01*
X141298Y014113D01*
X141297Y014096D01*
X141296Y01408D01*
X141293Y014066D01*
X14129Y014052D01*
X141287Y01404D01*
X141284Y01403D01*
X14128Y01402D01*
X141277Y014012D01*
X141274Y014005D01*
X141271Y013999D01*
X141268Y013994D01*
X141266Y01399D01*
X141264Y013987D01*
X141263Y013985D01*
X141262Y013985D01*
X141255Y013977D01*
X141247Y01397D01*
X14124Y013964D01*
X141232Y013959D01*
X141224Y013955D01*
X141216Y013952D01*
X141208Y013948D01*
X141201Y013946D01*
X141194Y013944D01*
X141188Y013943D01*
X141182Y013942D01*
X141177Y013941D01*
X141173D01*
X141171Y013941D01*
X141168D01*
X141158Y013941D01*
X141149Y013942D01*
X14114Y013944D01*
X141132Y013946D01*
X141124Y013949D01*
X141116Y013952D01*
X14111Y013955D01*
X141104Y013958D01*
X141098Y013961D01*
X141094Y013965D01*
X14109Y013967D01*
X141086Y01397D01*
X141084Y013972D01*
X141082Y013974D01*
X141081Y013975D01*
X14108Y013976D01*
X141074Y013982D01*
X141069Y01399D01*
X141065Y013997D01*
X141061Y014005D01*
X141057Y014013D01*
X141054Y01402D01*
X14105Y014036D01*
X141049Y014042D01*
X141048Y014049D01*
X141047Y014054D01*
X141047Y014059D01*
X141046Y014063D01*
Y014069D01*
X141047Y014079D01*
X141048Y014089D01*
X141049Y014098D01*
X141051Y014106D01*
X141054Y014114D01*
X141056Y014121D01*
X141059Y014128D01*
X141062Y014134D01*
X141066Y01414D01*
X141068Y014145D01*
X141071Y014149D01*
X141074Y014152D01*
X141075Y014155D01*
X141077Y014157D01*
X141078Y014158D01*
X141079Y014158D01*
X141085Y014165D01*
X141091Y01417D01*
X141098Y014175D01*
X141104Y014179D01*
X141111Y014182D01*
X141118Y014185D01*
X14113Y014189D01*
X141135Y014191D01*
X14114Y014192D01*
X141145Y014192D01*
X141149Y014193D01*
X141152Y014193D01*
X141156D01*
X141164Y014193D01*
X141171Y014192D01*
X141178Y014191D01*
X141184Y014189D01*
X141196Y014183D01*
X141205Y014178D01*
X141213Y014172D01*
X141216Y014169D01*
X141219Y014166D01*
X141221Y014164D01*
X141223Y014163D01*
X141223Y014162D01*
X141224Y014161D01*
X141223Y014173D01*
X141222Y014184D01*
X141221Y014193D01*
X141219Y014202D01*
X141217Y01421D01*
X141216Y014217D01*
X141214Y014223D01*
X141212Y014228D01*
X14121Y014233D01*
X141209Y014237D01*
X141208Y01424D01*
X141207Y014243D01*
X141205Y014245D01*
X141204Y014246D01*
X141204Y014247D01*
X141198Y014254D01*
X141191Y014259D01*
X141185Y014263D01*
X141179Y014265D01*
X141173Y014267D01*
X141169Y014267D01*
X141166Y014268D01*
X141165D01*
X141159Y014267D01*
X141153Y014266D01*
X141148Y014264D01*
X141144Y014263D01*
X141141Y014261D01*
X141139Y014259D01*
X141137Y014258D01*
X141137Y014257D01*
X141133Y014253D01*
X14113Y014248D01*
X141127Y014243D01*
X141126Y014238D01*
X141125Y014233D01*
X141124Y014229D01*
X141123Y014227D01*
Y014226D01*
X141053Y014233D01*
X141057Y01425D01*
X141062Y014263D01*
X141068Y014275D01*
X141074Y014286D01*
X14108Y014293D01*
X141083Y014296D01*
X141085Y014299D01*
X141087Y0143D01*
X141089Y014302D01*
X141089Y014303D01*
X14109D01*
X141095Y014308D01*
X141101Y014311D01*
X141113Y014317D01*
X141125Y014322D01*
X141136Y014324D01*
X141145Y014327D01*
X14115Y014327D01*
X141154D01*
X141156Y014328D01*
D02*
G37*
G36*
X13553Y014326D02*
X135612D01*
X135704Y014046D01*
X1358Y014326D01*
X135882D01*
X135747Y013948D01*
X135665D01*
X13553Y014326D01*
D02*
G37*
G36*
X136912Y014328D02*
X136917D01*
X136929Y014327D01*
X136939Y014326D01*
X136949Y014324D01*
X136957Y014322D01*
X136964Y01432D01*
X136969Y014317D01*
X136972Y014316D01*
X136973Y014316D01*
X136973D01*
X136982Y014311D01*
X13699Y014305D01*
X136997Y0143D01*
X137002Y014295D01*
X137007Y01429D01*
X13701Y014286D01*
X137012Y014284D01*
X137013Y014283D01*
X137018Y014275D01*
X137022Y014266D01*
X137025Y014257D01*
X137029Y014248D01*
X137031Y01424D01*
X137032Y014234D01*
X137033Y014231D01*
Y014229D01*
X137033Y014228D01*
Y014228D01*
X136967Y014217D01*
X136965Y014226D01*
X136963Y014233D01*
X136961Y01424D01*
X136958Y014245D01*
X136955Y014249D01*
X136953Y014252D01*
X136952Y014254D01*
X136951Y014255D01*
X136946Y014259D01*
X136941Y014262D01*
X136935Y014264D01*
X13693Y014266D01*
X136926Y014267D01*
X136923Y014268D01*
X136919D01*
X136913Y014267D01*
X136906Y014266D01*
X136901Y014264D01*
X136897Y014262D01*
X136893Y01426D01*
X136891Y014258D01*
X136889Y014257D01*
X136889Y014256D01*
X136885Y014252D01*
X136882Y014246D01*
X13688Y014241D01*
X136879Y014237D01*
X136878Y014232D01*
X136877Y014229D01*
Y014227D01*
Y014226D01*
X136878Y014217D01*
X136879Y01421D01*
X136882Y014204D01*
X136885Y014199D01*
X136888Y014195D01*
X13689Y014192D01*
X136893Y01419D01*
X136893Y01419D01*
X1369Y014185D01*
X136907Y014182D01*
X136914Y01418D01*
X136922Y014178D01*
X136928Y014178D01*
X136934Y014177D01*
X136938D01*
X136946Y014119D01*
X136939Y01412D01*
X136933Y014122D01*
X136927Y014123D01*
X136922Y014124D01*
X136918Y014124D01*
X136913D01*
X136905Y014124D01*
X136899Y014121D01*
X136893Y014119D01*
X136887Y014116D01*
X136883Y014113D01*
X13688Y01411D01*
X136878Y014108D01*
X136877Y014108D01*
X136872Y014101D01*
X136869Y014094D01*
X136866Y014087D01*
X136864Y01408D01*
X136863Y014073D01*
X136862Y014068D01*
Y014065D01*
Y014065D01*
Y014064D01*
X136863Y014054D01*
X136864Y014044D01*
X136867Y014036D01*
X13687Y01403D01*
X136873Y014025D01*
X136875Y014021D01*
X136877Y014018D01*
X136878Y014018D01*
X136884Y014012D01*
X13689Y014008D01*
X136896Y014005D01*
X136902Y014003D01*
X136908Y014002D01*
X136912Y014001D01*
X136914Y014001D01*
X136916D01*
X136923Y014001D01*
X13693Y014003D01*
X136936Y014005D01*
X136941Y014008D01*
X136945Y01401D01*
X136948Y014012D01*
X13695Y014014D01*
X136951Y014014D01*
X136956Y01402D01*
X13696Y014027D01*
X136963Y014034D01*
X136966Y014041D01*
X136967Y014047D01*
X136968Y014051D01*
X136969Y014055D01*
Y014055D01*
Y014056D01*
X137039Y014047D01*
X137038Y014038D01*
X137036Y01403D01*
X137031Y014015D01*
X137025Y014002D01*
X137021Y013996D01*
X137018Y013991D01*
X137014Y013986D01*
X137011Y013982D01*
X137008Y013978D01*
X137006Y013976D01*
X137003Y013973D01*
X137002Y013972D01*
X137001Y013971D01*
X137Y01397D01*
X136994Y013965D01*
X136987Y01396D01*
X13698Y013956D01*
X136972Y013953D01*
X136958Y013948D01*
X136945Y013944D01*
X136938Y013943D01*
X136933Y013942D01*
X136928Y013942D01*
X136924Y013941D01*
X13692Y013941D01*
X136915D01*
X136905Y013941D01*
X136895Y013942D01*
X136887Y013944D01*
X136878Y013946D01*
X13687Y013949D01*
X136863Y013952D01*
X136855Y013955D01*
X136849Y013958D01*
X136844Y013961D01*
X136839Y013965D01*
X136835Y013967D01*
X136831Y01397D01*
X136828Y013972D01*
X136826Y013974D01*
X136825Y013975D01*
X136824Y013976D01*
X136818Y013982D01*
X136812Y013989D01*
X136807Y013996D01*
X136803Y014003D01*
X1368Y014011D01*
X136797Y014018D01*
X136792Y014031D01*
X136791Y014037D01*
X13679Y014043D01*
X136789Y014048D01*
X136788Y014053D01*
X136788Y014056D01*
Y014061D01*
X136789Y014073D01*
X136791Y014084D01*
X136794Y014095D01*
X136798Y014103D01*
X136801Y01411D01*
X136804Y014115D01*
X136806Y014118D01*
X136807Y014119D01*
X136815Y014127D01*
X136824Y014134D01*
X136833Y01414D01*
X136841Y014144D01*
X136848Y014148D01*
X136854Y014149D01*
X136856Y01415D01*
X136858D01*
X136859Y014151D01*
X136859D01*
X136849Y014157D01*
X136841Y014163D01*
X136834Y014169D01*
X136828Y014176D01*
X136822Y014183D01*
X136818Y014189D01*
X136815Y014196D01*
X136811Y014202D01*
X136809Y014208D01*
X136807Y014213D01*
X136806Y014218D01*
X136806Y014222D01*
X136805Y014226D01*
X136805Y014228D01*
Y01423D01*
Y014231D01*
X136805Y014237D01*
X136806Y014243D01*
X136809Y014255D01*
X136813Y014266D01*
X136818Y014275D01*
X136823Y014283D01*
X136827Y014288D01*
X136829Y014291D01*
X13683Y014292D01*
X136831Y014293D01*
X136831Y014293D01*
X136837Y014299D01*
X136845Y014305D01*
X136851Y014309D01*
X136858Y014313D01*
X136866Y014317D01*
X136873Y01432D01*
X136887Y014323D01*
X136893Y014325D01*
X136899Y014326D01*
X136904Y014327D01*
X136908Y014327D01*
X136912Y014328D01*
D02*
G37*
G36*
X136024D02*
X136029D01*
X136039Y014327D01*
X136047Y014327D01*
X136064Y014324D01*
X136079Y01432D01*
X136085Y014317D01*
X136091Y014315D01*
X136097Y014312D01*
X136101Y01431D01*
X136105Y014308D01*
X136109Y014306D01*
X136111Y014304D01*
X136113Y014303D01*
X136114Y014302D01*
X136115Y014302D01*
X136121Y014296D01*
X136126Y014291D01*
X136131Y014284D01*
X136135Y014277D01*
X136142Y014263D01*
X136147Y014249D01*
X136149Y014242D01*
X136151Y014236D01*
X136152Y014231D01*
X136153Y014226D01*
X136154Y014221D01*
Y014219D01*
X136154Y014216D01*
Y014216D01*
X136082Y014209D01*
X136081Y01422D01*
X136079Y014229D01*
X136077Y014237D01*
X136074Y014243D01*
X136072Y014248D01*
X13607Y014251D01*
X136068Y014253D01*
X136068Y014254D01*
X136062Y014258D01*
X136056Y014262D01*
X13605Y014264D01*
X136044Y014266D01*
X136039Y014267D01*
X136035Y014268D01*
X136031D01*
X136023Y014267D01*
X136016Y014266D01*
X13601Y014263D01*
X136004Y014261D01*
X136Y014259D01*
X135997Y014257D01*
X135996Y014255D01*
X135995Y014255D01*
X135991Y014249D01*
X135987Y014243D01*
X135985Y014237D01*
X135984Y014231D01*
X135982Y014226D01*
X135982Y014221D01*
Y014218D01*
Y014217D01*
Y014217D01*
X135982Y014209D01*
X135984Y014201D01*
X135987Y014193D01*
X13599Y014187D01*
X135992Y014181D01*
X135995Y014177D01*
X135997Y014174D01*
X135997Y014173D01*
X135999Y014169D01*
X136003Y014166D01*
X136007Y014161D01*
X136011Y014156D01*
X136021Y014146D01*
X136031Y014136D01*
X136041Y014126D01*
X136045Y014121D01*
X13605Y014118D01*
X136053Y014115D01*
X136055Y014113D01*
X136057Y014111D01*
X136057Y01411D01*
X136068Y0141D01*
X136078Y01409D01*
X136087Y014081D01*
X136095Y014073D01*
X136103Y014065D01*
X13611Y014057D01*
X136116Y01405D01*
X136121Y014044D01*
X136125Y014038D01*
X136129Y014033D01*
X136132Y01403D01*
X136134Y014026D01*
X136136Y014024D01*
X136137Y014021D01*
X136139Y01402D01*
Y01402D01*
X136146Y014007D01*
X136151Y013994D01*
X136155Y013982D01*
X136159Y013971D01*
X136161Y013961D01*
X136161Y013958D01*
X136162Y013954D01*
X136163Y013952D01*
X136163Y013949D01*
Y013948D01*
X135909D01*
Y014015D01*
X136053D01*
X136049Y014022D01*
X136044Y014028D01*
X136042Y014031D01*
X13604Y014033D01*
X136039Y014034D01*
X136039Y014035D01*
X136036Y014037D01*
X136034Y014039D01*
X136028Y014045D01*
X136021Y014053D01*
X136014Y01406D01*
X136006Y014066D01*
X136Y014072D01*
X135998Y014074D01*
X135997Y014075D01*
X135996Y014076D01*
X135995Y014077D01*
X135983Y014088D01*
X135973Y014097D01*
X135965Y014106D01*
X135958Y014113D01*
X135953Y014118D01*
X13595Y014122D01*
X135948Y014125D01*
X135947Y014125D01*
X13594Y014134D01*
X135934Y014143D01*
X135929Y014151D01*
X135926Y014158D01*
X135922Y014165D01*
X13592Y014169D01*
X135919Y014172D01*
X135919Y014173D01*
X135915Y014182D01*
X135913Y014191D01*
X135911Y014199D01*
X13591Y014207D01*
X13591Y014213D01*
X135909Y014217D01*
Y014222D01*
X13591Y01423D01*
X135911Y014238D01*
X135912Y014246D01*
X135914Y014253D01*
X13592Y014266D01*
X135925Y014276D01*
X135928Y014281D01*
X135931Y014285D01*
X135934Y014289D01*
X135937Y014292D01*
X135939Y014294D01*
X13594Y014296D01*
X135941Y014297D01*
X135941Y014297D01*
X135947Y014303D01*
X135955Y014308D01*
X135961Y014311D01*
X135969Y014315D01*
X135983Y01432D01*
X135997Y014324D01*
X136004Y014325D01*
X13601Y014326D01*
X136015Y014327D01*
X13602Y014327D01*
X136024Y014328D01*
D02*
G37*
G36*
X136263D02*
X136321D01*
X136327Y014315D01*
X136334Y014304D01*
X136342Y014293D01*
X136349Y014284D01*
X136356Y014277D01*
X136362Y014272D01*
X136364Y014269D01*
X136366Y014268D01*
X136367Y014267D01*
X136367Y014267D01*
X136379Y014258D01*
X136391Y01425D01*
X136401Y014244D01*
X13641Y01424D01*
X136418Y014237D01*
X136424Y014234D01*
X136426Y014233D01*
X136427Y014233D01*
X136428Y014232D01*
X136428D01*
Y014167D01*
X136409Y014174D01*
X136391Y014183D01*
X136383Y014187D01*
X136376Y014192D01*
X136368Y014196D01*
X136362Y014201D01*
X136356Y014205D01*
X13635Y014209D01*
X136346Y014212D01*
X136342Y014215D01*
X136339Y014218D01*
X136337Y01422D01*
X136336Y014221D01*
X136335Y014221D01*
Y013948D01*
X136263D01*
Y014328D01*
D02*
G37*
G36*
X137145D02*
X137204D01*
X137209Y014315D01*
X137216Y014304D01*
X137224Y014293D01*
X137232Y014284D01*
X137238Y014277D01*
X137244Y014272D01*
X137246Y014269D01*
X137248Y014268D01*
X137249Y014267D01*
X13725Y014267D01*
X137262Y014258D01*
X137273Y01425D01*
X137284Y014244D01*
X137293Y01424D01*
X1373Y014237D01*
X137306Y014234D01*
X137308Y014233D01*
X13731Y014233D01*
X13731Y014232D01*
X137311D01*
Y014167D01*
X137291Y014174D01*
X137274Y014183D01*
X137266Y014187D01*
X137258Y014192D01*
X137251Y014196D01*
X137244Y014201D01*
X137238Y014205D01*
X137233Y014209D01*
X137228Y014212D01*
X137225Y014215D01*
X137221Y014218D01*
X137219Y01422D01*
X137218Y014221D01*
X137217Y014221D01*
Y013948D01*
X137145D01*
Y014328D01*
D02*
G37*
G36*
X137935D02*
X137941D01*
X13795Y014327D01*
X137959Y014327D01*
X137976Y014324D01*
X13799Y01432D01*
X137997Y014317D01*
X138003Y014315D01*
X138008Y014312D01*
X138012Y01431D01*
X138017Y014308D01*
X13802Y014306D01*
X138023Y014304D01*
X138024Y014303D01*
X138026Y014302D01*
X138026Y014302D01*
X138032Y014296D01*
X138038Y014291D01*
X138042Y014284D01*
X138047Y014277D01*
X138053Y014263D01*
X138059Y014249D01*
X13806Y014242D01*
X138062Y014236D01*
X138064Y014231D01*
X138064Y014226D01*
X138065Y014221D01*
Y014219D01*
X138066Y014216D01*
Y014216D01*
X137994Y014209D01*
X137993Y01422D01*
X137991Y014229D01*
X137988Y014237D01*
X137986Y014243D01*
X137984Y014248D01*
X137981Y014251D01*
X13798Y014253D01*
X137979Y014254D01*
X137974Y014258D01*
X137968Y014262D01*
X137962Y014264D01*
X137956Y014266D01*
X137951Y014267D01*
X137946Y014268D01*
X137943D01*
X137934Y014267D01*
X137927Y014266D01*
X137921Y014263D01*
X137916Y014261D01*
X137912Y014259D01*
X137909Y014257D01*
X137907Y014255D01*
X137907Y014255D01*
X137902Y014249D01*
X137899Y014243D01*
X137897Y014237D01*
X137895Y014231D01*
X137894Y014226D01*
X137893Y014221D01*
Y014218D01*
Y014217D01*
Y014217D01*
X137894Y014209D01*
X137896Y014201D01*
X137898Y014193D01*
X137901Y014187D01*
X137904Y014181D01*
X137907Y014177D01*
X137908Y014174D01*
X137909Y014173D01*
X137911Y014169D01*
X137914Y014166D01*
X137919Y014161D01*
X137923Y014156D01*
X137933Y014146D01*
X137943Y014136D01*
X137952Y014126D01*
X137957Y014121D01*
X137961Y014118D01*
X137964Y014115D01*
X137967Y014113D01*
X137968Y014111D01*
X137969Y01411D01*
X13798Y0141D01*
X13799Y01409D01*
X137999Y014081D01*
X138007Y014073D01*
X138015Y014065D01*
X138021Y014057D01*
X138027Y01405D01*
X138032Y014044D01*
X138036Y014038D01*
X13804Y014033D01*
X138044Y01403D01*
X138046Y014026D01*
X138048Y014024D01*
X138049Y014021D01*
X13805Y01402D01*
Y01402D01*
X138057Y014007D01*
X138063Y013994D01*
X138067Y013982D01*
X13807Y013971D01*
X138073Y013961D01*
X138073Y013958D01*
X138074Y013954D01*
X138074Y013952D01*
X138075Y013949D01*
Y013948D01*
X137821D01*
Y014015D01*
X137965D01*
X137961Y014022D01*
X137956Y014028D01*
X137953Y014031D01*
X137952Y014033D01*
X137951Y014034D01*
X13795Y014035D01*
X137948Y014037D01*
X137946Y014039D01*
X137939Y014045D01*
X137932Y014053D01*
X137925Y01406D01*
X137918Y014066D01*
X137912Y014072D01*
X13791Y014074D01*
X137908Y014075D01*
X137907Y014076D01*
X137907Y014077D01*
X137895Y014088D01*
X137885Y014097D01*
X137876Y014106D01*
X13787Y014113D01*
X137865Y014118D01*
X137862Y014122D01*
X13786Y014125D01*
X137859Y014125D01*
X137852Y014134D01*
X137846Y014143D01*
X137841Y014151D01*
X137837Y014158D01*
X137834Y014165D01*
X137832Y014169D01*
X137831Y014172D01*
X13783Y014173D01*
X137827Y014182D01*
X137825Y014191D01*
X137823Y014199D01*
X137822Y014207D01*
X137821Y014213D01*
X137821Y014217D01*
Y014222D01*
X137821Y01423D01*
X137822Y014238D01*
X137824Y014246D01*
X137826Y014253D01*
X137831Y014266D01*
X137837Y014276D01*
X13784Y014281D01*
X137843Y014285D01*
X137845Y014289D01*
X137848Y014292D01*
X13785Y014294D01*
X137851Y014296D01*
X137852Y014297D01*
X137853Y014297D01*
X137859Y014303D01*
X137866Y014308D01*
X137873Y014311D01*
X13788Y014315D01*
X137895Y01432D01*
X137909Y014324D01*
X137915Y014325D01*
X137921Y014326D01*
X137927Y014327D01*
X137932Y014327D01*
X137935Y014328D01*
D02*
G37*
G36*
X138174D02*
X138233D01*
X138238Y014315D01*
X138246Y014304D01*
X138253Y014293D01*
X138261Y014284D01*
X138267Y014277D01*
X138273Y014272D01*
X138276Y014269D01*
X138277Y014268D01*
X138278Y014267D01*
X138279Y014267D01*
X138291Y014258D01*
X138302Y01425D01*
X138313Y014244D01*
X138322Y01424D01*
X13833Y014237D01*
X138335Y014234D01*
X138337Y014233D01*
X138339Y014233D01*
X13834Y014232D01*
X13834D01*
Y014167D01*
X13832Y014174D01*
X138303Y014183D01*
X138295Y014187D01*
X138287Y014192D01*
X13828Y014196D01*
X138273Y014201D01*
X138267Y014205D01*
X138262Y014209D01*
X138258Y014212D01*
X138254Y014215D01*
X138251Y014218D01*
X138248Y01422D01*
X138247Y014221D01*
X138247Y014221D01*
Y013948D01*
X138174D01*
Y014328D01*
D02*
G37*
G36*
X139323Y014327D02*
X139384D01*
X139548Y014086D01*
Y014024D01*
X139393D01*
Y013948D01*
X139323D01*
Y014024D01*
X139276D01*
Y014087D01*
X139323D01*
Y014327D01*
D02*
G37*
G36*
X139644Y014328D02*
X139703D01*
X139708Y014315D01*
X139715Y014304D01*
X139723Y014293D01*
X139731Y014284D01*
X139737Y014277D01*
X139743Y014272D01*
X139745Y014269D01*
X139747Y014268D01*
X139748Y014267D01*
X139749Y014267D01*
X139761Y014258D01*
X139772Y01425D01*
X139783Y014244D01*
X139792Y01424D01*
X139799Y014237D01*
X139805Y014234D01*
X139807Y014233D01*
X139809Y014233D01*
X139809Y014232D01*
X13981D01*
Y014167D01*
X13979Y014174D01*
X139773Y014183D01*
X139765Y014187D01*
X139757Y014192D01*
X13975Y014196D01*
X139743Y014201D01*
X139737Y014205D01*
X139732Y014209D01*
X139727Y014212D01*
X139724Y014215D01*
X13972Y014218D01*
X139718Y01422D01*
X139717Y014221D01*
X139717Y014221D01*
Y013948D01*
X139644D01*
Y014328D01*
D02*
G37*
G36*
X141407D02*
X141466D01*
X141472Y014315D01*
X141479Y014304D01*
X141487Y014293D01*
X141494Y014284D01*
X141501Y014277D01*
X141507Y014272D01*
X141509Y014269D01*
X141511Y014268D01*
X141512Y014267D01*
X141512Y014267D01*
X141524Y014258D01*
X141536Y01425D01*
X141546Y014244D01*
X141555Y01424D01*
X141563Y014237D01*
X141569Y014234D01*
X141571Y014233D01*
X141572Y014233D01*
X141573Y014232D01*
X141573D01*
Y014167D01*
X141554Y014174D01*
X141536Y014183D01*
X141528Y014187D01*
X14152Y014192D01*
X141513Y014196D01*
X141507Y014201D01*
X141501Y014205D01*
X141495Y014209D01*
X141491Y014212D01*
X141487Y014215D01*
X141484Y014218D01*
X141482Y01422D01*
X141481Y014221D01*
X14148Y014221D01*
Y013948D01*
X141407D01*
Y014328D01*
D02*
G37*
G36*
X136515Y014332D02*
X136572D01*
Y013836D01*
X136515D01*
Y014332D01*
D02*
G37*
G36*
X137544D02*
X137601D01*
Y013836D01*
X137544D01*
Y014332D01*
D02*
G37*
G36*
X13872D02*
X138777D01*
Y013836D01*
X13872D01*
Y014332D01*
D02*
G37*
G36*
X14019D02*
X140247D01*
Y013836D01*
X14019D01*
Y014332D01*
D02*
G37*
G36*
X141563Y013761D02*
X141569D01*
X141589Y01376D01*
X141606Y013758D01*
X141614Y013756D01*
X141622Y013755D01*
X141629Y013753D01*
X141635Y013751D01*
X14164Y013749D01*
X141646Y013748D01*
X14165Y013746D01*
X141653Y013745D01*
X141656Y013743D01*
X141658Y013743D01*
X141659Y013742D01*
X14166D01*
X141677Y013732D01*
X141684Y013726D01*
X141691Y01372D01*
X141698Y013714D01*
X141704Y013708D01*
X141709Y013702D01*
X141714Y013697D01*
X141718Y013691D01*
X141722Y013687D01*
X141725Y013682D01*
X141728Y013678D01*
X141729Y013675D01*
X141731Y013673D01*
X141732Y013671D01*
X141732Y013671D01*
X141736Y013662D01*
X14174Y013653D01*
X141746Y013635D01*
X141751Y013617D01*
X141753Y013601D01*
X141754Y013594D01*
X141756Y013587D01*
X141756Y013581D01*
Y013576D01*
X141757Y013572D01*
Y013566D01*
X141756Y013546D01*
X141753Y013527D01*
X14175Y01351D01*
X141748Y013502D01*
X141746Y013495D01*
X141744Y013488D01*
X141742Y013482D01*
X14174Y013477D01*
X141738Y013473D01*
X141737Y01347D01*
X141736Y013467D01*
X141735Y013465D01*
Y013465D01*
X141726Y013448D01*
X141715Y013434D01*
X141704Y013422D01*
X141693Y013412D01*
X141688Y013408D01*
X141683Y013404D01*
X14168Y0134D01*
X141676Y013398D01*
X141673Y013396D01*
X14167Y013394D01*
X141669Y013394D01*
X141669Y013393D01*
X14166Y013389D01*
X141652Y013385D01*
X141634Y013379D01*
X141616Y013375D01*
X1416Y013372D01*
X141593Y013371D01*
X141586Y01337D01*
X14158Y013369D01*
X141575D01*
X141571Y013369D01*
X141565D01*
X141548Y013369D01*
X141531Y013371D01*
X141515Y013374D01*
X141502Y013377D01*
X141496Y013379D01*
X14149Y013381D01*
X141485Y013382D01*
X141481Y013384D01*
X141478Y013385D01*
X141475Y013386D01*
X141474Y013386D01*
X141473D01*
X141457Y013393D01*
X141443Y0134D01*
X141431Y013407D01*
X141421Y013413D01*
X141413Y013418D01*
X14141Y013421D01*
X141408Y013423D01*
X141406Y013424D01*
X141404Y013426D01*
X141403Y013427D01*
Y013578D01*
X141568D01*
Y013515D01*
X14148D01*
Y013466D01*
X141487Y013461D01*
X141494Y013457D01*
X141501Y013453D01*
X141508Y01345D01*
X141513Y013447D01*
X141518Y013445D01*
X141521Y013444D01*
X141521Y013443D01*
X141522D01*
X141531Y01344D01*
X141539Y013438D01*
X141548Y013436D01*
X141555Y013435D01*
X141561Y013434D01*
X141566Y013434D01*
X14157D01*
X141579Y013434D01*
X141587Y013435D01*
X141595Y013437D01*
X141603Y013439D01*
X141616Y013445D01*
X141622Y013447D01*
X141627Y013451D01*
X141632Y013454D01*
X141637Y013457D01*
X14164Y01346D01*
X141643Y013462D01*
X141645Y013464D01*
X141647Y013466D01*
X141648Y013467D01*
X141649Y013468D01*
X141653Y013474D01*
X141658Y013482D01*
X141662Y013489D01*
X141665Y013498D01*
X141671Y013515D01*
X141674Y013531D01*
X141675Y013539D01*
X141676Y013546D01*
X141677Y013552D01*
X141677Y013558D01*
X141678Y013563D01*
Y013566D01*
Y013569D01*
Y013569D01*
X141677Y013581D01*
X141677Y013591D01*
X141675Y013601D01*
X141674Y013611D01*
X141671Y013619D01*
X141669Y013626D01*
X141666Y013634D01*
X141663Y01364D01*
X141661Y013646D01*
X141658Y01365D01*
X141656Y013654D01*
X141653Y013658D01*
X141652Y01366D01*
X14165Y013662D01*
X14165Y013663D01*
X141649Y013664D01*
X141643Y013669D01*
X141637Y013675D01*
X141631Y013678D01*
X141624Y013682D01*
X141617Y013685D01*
X141611Y013688D01*
X141598Y013692D01*
X141592Y013693D01*
X141587Y013694D01*
X141582Y013695D01*
X141578Y013695D01*
X141574Y013696D01*
X141569D01*
X141557Y013695D01*
X141547Y013693D01*
X141538Y013691D01*
X14153Y013688D01*
X141523Y013685D01*
X141519Y013682D01*
X141516Y01368D01*
X141515Y013679D01*
X141507Y013673D01*
X141501Y013666D01*
X141495Y013659D01*
X141491Y013652D01*
X141488Y013645D01*
X141486Y01364D01*
X141485Y013637D01*
X141484Y013636D01*
Y013636D01*
X141408Y01365D01*
X14141Y013659D01*
X141414Y013669D01*
X141417Y013677D01*
X141421Y013684D01*
X141425Y013692D01*
X14143Y013699D01*
X141434Y013705D01*
X141438Y01371D01*
X141443Y013715D01*
X141447Y013719D01*
X14145Y013723D01*
X141453Y013726D01*
X141456Y013728D01*
X141458Y01373D01*
X141459Y013731D01*
X14146Y013731D01*
X141467Y013737D01*
X141475Y013741D01*
X141484Y013745D01*
X141493Y013748D01*
X141511Y013754D01*
X141529Y013757D01*
X141537Y013759D01*
X141545Y013759D01*
X141552Y01376D01*
X141558Y01376D01*
X141563Y013761D01*
D02*
G37*
G36*
X141032Y013754D02*
X141103D01*
Y013499D01*
X141259Y013754D01*
X141332D01*
Y013376D01*
X141262D01*
Y013625D01*
X141109Y013376D01*
X141032D01*
Y013754D01*
D02*
G37*
G36*
X135347D02*
X135428D01*
X135521Y013474D01*
X135617Y013754D01*
X135699D01*
X135564Y013376D01*
X135481D01*
X135347Y013754D01*
D02*
G37*
G36*
X139081D02*
X139162D01*
X139254Y013474D01*
X13935Y013754D01*
X139433D01*
X139297Y013376D01*
X139215D01*
X139081Y013754D01*
D02*
G37*
G36*
X13958Y013756D02*
X139585D01*
X139597Y013755D01*
X139607Y013754D01*
X139617Y013752D01*
X139625Y01375D01*
X139632Y013748D01*
X139637Y013745D01*
X13964Y013744D01*
X139641Y013744D01*
X139641D01*
X13965Y013739D01*
X139658Y013733D01*
X139665Y013728D01*
X13967Y013723D01*
X139675Y013718D01*
X139678Y013714D01*
X13968Y013712D01*
X139681Y013711D01*
X139686Y013703D01*
X13969Y013694D01*
X139693Y013685D01*
X139697Y013676D01*
X139699Y013668D01*
X1397Y013662D01*
X139701Y013659D01*
Y013658D01*
X139701Y013657D01*
Y013656D01*
X139635Y013645D01*
X139633Y013654D01*
X139631Y013661D01*
X139629Y013668D01*
X139626Y013673D01*
X139623Y013677D01*
X139621Y013681D01*
X13962Y013682D01*
X139619Y013683D01*
X139614Y013687D01*
X139609Y01369D01*
X139603Y013693D01*
X139598Y013694D01*
X139594Y013695D01*
X139591Y013696D01*
X139587D01*
X139581Y013695D01*
X139574Y013694D01*
X139569Y013692D01*
X139565Y01369D01*
X139561Y013688D01*
X139559Y013686D01*
X139557Y013685D01*
X139557Y013684D01*
X139553Y01368D01*
X13955Y013675D01*
X139548Y01367D01*
X139547Y013665D01*
X139546Y01366D01*
X139545Y013657D01*
Y013655D01*
Y013654D01*
X139546Y013646D01*
X139548Y013638D01*
X13955Y013632D01*
X139553Y013628D01*
X139556Y013623D01*
X139558Y01362D01*
X139561Y013618D01*
X139561Y013618D01*
X139568Y013613D01*
X139575Y01361D01*
X139582Y013608D01*
X13959Y013606D01*
X139596Y013606D01*
X139602Y013605D01*
X139606D01*
X139614Y013547D01*
X139607Y013548D01*
X139601Y01355D01*
X139595Y013551D01*
X13959Y013552D01*
X139586Y013552D01*
X139581D01*
X139573Y013552D01*
X139567Y013549D01*
X139561Y013547D01*
X139555Y013544D01*
X139551Y013541D01*
X139548Y013539D01*
X139546Y013536D01*
X139545Y013536D01*
X13954Y013529D01*
X139537Y013522D01*
X139534Y013515D01*
X139532Y013508D01*
X139531Y013501D01*
X13953Y013497D01*
Y013493D01*
Y013493D01*
Y013492D01*
X139531Y013482D01*
X139532Y013472D01*
X139535Y013464D01*
X139538Y013458D01*
X139541Y013453D01*
X139543Y013449D01*
X139545Y013446D01*
X139546Y013446D01*
X139552Y01344D01*
X139558Y013436D01*
X139564Y013433D01*
X13957Y013431D01*
X139576Y01343D01*
X13958Y013429D01*
X139582Y013429D01*
X139584D01*
X139591Y013429D01*
X139598Y013431D01*
X139604Y013433D01*
X139609Y013436D01*
X139613Y013438D01*
X139616Y01344D01*
X139619Y013442D01*
X139619Y013442D01*
X139624Y013448D01*
X139628Y013455D01*
X139631Y013462D01*
X139634Y013469D01*
X139635Y013475D01*
X139637Y01348D01*
X139637Y013483D01*
Y013483D01*
Y013484D01*
X139707Y013475D01*
X139706Y013466D01*
X139704Y013458D01*
X139699Y013443D01*
X139693Y01343D01*
X139689Y013424D01*
X139686Y013419D01*
X139682Y013414D01*
X139679Y01341D01*
X139676Y013406D01*
X139674Y013404D01*
X139671Y013402D01*
X13967Y0134D01*
X139669Y013399D01*
X139668Y013398D01*
X139662Y013393D01*
X139655Y013388D01*
X139648Y013385D01*
X13964Y013381D01*
X139626Y013376D01*
X139613Y013373D01*
X139606Y013371D01*
X139601Y01337D01*
X139596Y01337D01*
X139592Y013369D01*
X139588Y013369D01*
X139583D01*
X139573Y013369D01*
X139563Y01337D01*
X139555Y013372D01*
X139546Y013374D01*
X139538Y013377D01*
X139531Y01338D01*
X139523Y013383D01*
X139517Y013386D01*
X139512Y01339D01*
X139507Y013393D01*
X139503Y013396D01*
X139499Y013398D01*
X139496Y0134D01*
X139494Y013402D01*
X139493Y013403D01*
X139492Y013404D01*
X139486Y01341D01*
X13948Y013417D01*
X139475Y013424D01*
X139471Y013432D01*
X139468Y013439D01*
X139465Y013446D01*
X13946Y013459D01*
X139459Y013465D01*
X139458Y013471D01*
X139457Y013476D01*
X139456Y013481D01*
X139456Y013484D01*
Y013489D01*
X139457Y013501D01*
X139459Y013512D01*
X139462Y013523D01*
X139466Y013531D01*
X139469Y013538D01*
X139472Y013543D01*
X139474Y013546D01*
X139475Y013547D01*
X139483Y013555D01*
X139492Y013563D01*
X139501Y013568D01*
X139509Y013572D01*
X139516Y013576D01*
X139522Y013577D01*
X139524Y013578D01*
X139526D01*
X139527Y013579D01*
X139527D01*
X139517Y013585D01*
X139509Y013591D01*
X139502Y013598D01*
X139496Y013604D01*
X13949Y013611D01*
X139486Y013617D01*
X139483Y013624D01*
X139479Y01363D01*
X139477Y013636D01*
X139475Y013641D01*
X139474Y013646D01*
X139474Y01365D01*
X139473Y013654D01*
X139473Y013657D01*
Y013658D01*
Y013659D01*
X139473Y013665D01*
X139474Y013671D01*
X139477Y013683D01*
X139481Y013694D01*
X139486Y013703D01*
X139491Y013711D01*
X139495Y013717D01*
X139497Y013719D01*
X139498Y01372D01*
X139499Y013721D01*
X139499Y013721D01*
X139505Y013727D01*
X139513Y013733D01*
X139519Y013737D01*
X139526Y013741D01*
X139534Y013745D01*
X139541Y013748D01*
X139555Y013751D01*
X139561Y013753D01*
X139567Y013754D01*
X139572Y013755D01*
X139576Y013755D01*
X13958Y013756D01*
D02*
G37*
G36*
X140021D02*
X140026D01*
X140037Y013755D01*
X140048Y013754D01*
X140057Y013752D01*
X140066Y01375D01*
X140072Y013748D01*
X140078Y013745D01*
X140081Y013744D01*
X140082Y013744D01*
X140082D01*
X140091Y013739D01*
X140099Y013733D01*
X140106Y013728D01*
X140111Y013723D01*
X140115Y013718D01*
X140119Y013714D01*
X140121Y013712D01*
X140121Y013711D01*
X140126Y013703D01*
X140131Y013694D01*
X140134Y013685D01*
X140137Y013676D01*
X140139Y013668D01*
X140141Y013662D01*
X140142Y013659D01*
Y013658D01*
X140142Y013657D01*
Y013656D01*
X140076Y013645D01*
X140074Y013654D01*
X140072Y013661D01*
X14007Y013668D01*
X140067Y013673D01*
X140064Y013677D01*
X140062Y013681D01*
X14006Y013682D01*
X14006Y013683D01*
X140055Y013687D01*
X140049Y01369D01*
X140044Y013693D01*
X140039Y013694D01*
X140035Y013695D01*
X140031Y013696D01*
X140028D01*
X140021Y013695D01*
X140015Y013694D01*
X14001Y013692D01*
X140006Y01369D01*
X140002Y013688D01*
X14Y013686D01*
X139998Y013685D01*
X139997Y013684D01*
X139994Y01368D01*
X139991Y013675D01*
X139989Y01367D01*
X139988Y013665D01*
X139986Y01366D01*
X139986Y013657D01*
Y013655D01*
Y013654D01*
X139986Y013646D01*
X139988Y013638D01*
X139991Y013632D01*
X139994Y013628D01*
X139997Y013623D01*
X139999Y01362D01*
X140001Y013618D01*
X140002Y013618D01*
X140008Y013613D01*
X140015Y01361D01*
X140023Y013608D01*
X14003Y013606D01*
X140037Y013606D01*
X140042Y013605D01*
X140047D01*
X140055Y013547D01*
X140048Y013548D01*
X140042Y01355D01*
X140036Y013551D01*
X140031Y013552D01*
X140027Y013552D01*
X140021D01*
X140014Y013552D01*
X140007Y013549D01*
X140001Y013547D01*
X139996Y013544D01*
X139992Y013541D01*
X139989Y013539D01*
X139986Y013536D01*
X139986Y013536D01*
X139981Y013529D01*
X139977Y013522D01*
X139974Y013515D01*
X139972Y013508D01*
X139971Y013501D01*
X139971Y013497D01*
Y013493D01*
Y013493D01*
Y013492D01*
X139971Y013482D01*
X139973Y013472D01*
X139976Y013464D01*
X139978Y013458D01*
X139982Y013453D01*
X139984Y013449D01*
X139986Y013446D01*
X139986Y013446D01*
X139993Y01344D01*
X139999Y013436D01*
X140005Y013433D01*
X140011Y013431D01*
X140017Y01343D01*
X14002Y013429D01*
X140023Y013429D01*
X140024D01*
X140032Y013429D01*
X140038Y013431D01*
X140044Y013433D01*
X14005Y013436D01*
X140054Y013438D01*
X140057Y01344D01*
X140059Y013442D01*
X14006Y013442D01*
X140065Y013448D01*
X140069Y013455D01*
X140072Y013462D01*
X140074Y013469D01*
X140076Y013475D01*
X140077Y01348D01*
X140078Y013483D01*
Y013483D01*
Y013484D01*
X140148Y013475D01*
X140146Y013466D01*
X140144Y013458D01*
X140139Y013443D01*
X140133Y01343D01*
X14013Y013424D01*
X140126Y013419D01*
X140123Y013414D01*
X14012Y01341D01*
X140117Y013406D01*
X140114Y013404D01*
X140112Y013402D01*
X14011Y0134D01*
X140109Y013399D01*
X140109Y013398D01*
X140102Y013393D01*
X140095Y013388D01*
X140089Y013385D01*
X140081Y013381D01*
X140067Y013376D01*
X140054Y013373D01*
X140047Y013371D01*
X140042Y01337D01*
X140037Y01337D01*
X140032Y013369D01*
X140029Y013369D01*
X140024D01*
X140014Y013369D01*
X140004Y01337D01*
X139995Y013372D01*
X139986Y013374D01*
X139979Y013377D01*
X139971Y01338D01*
X139964Y013383D01*
X139958Y013386D01*
X139953Y01339D01*
X139947Y013393D01*
X139943Y013396D01*
X13994Y013398D01*
X139937Y0134D01*
X139935Y013402D01*
X139934Y013403D01*
X139933Y013404D01*
X139926Y01341D01*
X139921Y013417D01*
X139916Y013424D01*
X139912Y013432D01*
X139908Y013439D01*
X139905Y013446D01*
X139901Y013459D01*
X1399Y013465D01*
X139899Y013471D01*
X139898Y013476D01*
X139897Y013481D01*
X139896Y013484D01*
Y013489D01*
X139898Y013501D01*
X1399Y013512D01*
X139902Y013523D01*
X139906Y013531D01*
X13991Y013538D01*
X139913Y013543D01*
X139915Y013546D01*
X139916Y013547D01*
X139924Y013555D01*
X139932Y013563D01*
X139941Y013568D01*
X139949Y013572D01*
X139956Y013576D01*
X139962Y013577D01*
X139965Y013578D01*
X139966D01*
X139967Y013579D01*
X139968D01*
X139958Y013585D01*
X13995Y013591D01*
X139943Y013598D01*
X139936Y013604D01*
X139931Y013611D01*
X139926Y013617D01*
X139923Y013624D01*
X13992Y01363D01*
X139918Y013636D01*
X139916Y013641D01*
X139915Y013646D01*
X139914Y01365D01*
X139914Y013654D01*
X139913Y013657D01*
Y013658D01*
Y013659D01*
X139914Y013665D01*
X139914Y013671D01*
X139918Y013683D01*
X139922Y013694D01*
X139926Y013703D01*
X139931Y013711D01*
X139936Y013717D01*
X139937Y013719D01*
X139939Y01372D01*
X13994Y013721D01*
X13994Y013721D01*
X139946Y013727D01*
X139953Y013733D01*
X13996Y013737D01*
X139967Y013741D01*
X139974Y013745D01*
X139982Y013748D01*
X139995Y013751D01*
X140001Y013753D01*
X140007Y013754D01*
X140012Y013755D01*
X140017Y013755D01*
X140021Y013756D01*
D02*
G37*
G36*
X137937Y013749D02*
X138129D01*
X138166Y013552D01*
X138108Y013543D01*
X138103Y013548D01*
X138098Y013553D01*
X138093Y013557D01*
X138088Y01356D01*
X138079Y013565D01*
X13807Y013568D01*
X138062Y01357D01*
X138057Y013571D01*
X138055Y013571D01*
X138051D01*
X138043Y013571D01*
X138035Y013569D01*
X138027Y013566D01*
X138021Y013563D01*
X138017Y013559D01*
X138013Y013556D01*
X138011Y013554D01*
X138011Y013553D01*
X138005Y013546D01*
X138001Y013538D01*
X137999Y013529D01*
X137997Y013521D01*
X137995Y013513D01*
X137995Y013507D01*
Y013504D01*
Y013503D01*
Y013501D01*
Y013501D01*
X137995Y013488D01*
X137997Y013476D01*
X138Y013467D01*
X138002Y013459D01*
X138006Y013453D01*
X138008Y013448D01*
X13801Y013446D01*
X138011Y013445D01*
X138017Y013439D01*
X138023Y013434D01*
X13803Y013431D01*
X138036Y013429D01*
X138041Y013428D01*
X138045Y013427D01*
X138048Y013427D01*
X138049D01*
X138056Y013427D01*
X138063Y013429D01*
X138069Y013431D01*
X138074Y013434D01*
X138079Y013436D01*
X138082Y013439D01*
X138084Y01344D01*
X138085Y013441D01*
X13809Y013447D01*
X138094Y013453D01*
X138097Y013459D01*
X1381Y013465D01*
X138101Y013471D01*
X138102Y013476D01*
X138103Y013478D01*
Y01348D01*
X138175Y013472D01*
X138173Y013463D01*
X138172Y013455D01*
X138166Y01344D01*
X13816Y013427D01*
X138157Y013422D01*
X138153Y013416D01*
X13815Y013412D01*
X138147Y013408D01*
X138144Y013405D01*
X138142Y013402D01*
X138139Y013399D01*
X138138Y013398D01*
X138137Y013397D01*
X138136Y013397D01*
X13813Y013392D01*
X138123Y013387D01*
X138116Y013384D01*
X138109Y013381D01*
X138094Y013375D01*
X138081Y013372D01*
X138074Y013371D01*
X138069Y01337D01*
X138063Y01337D01*
X138059Y013369D01*
X138055Y013369D01*
X13805D01*
X138038Y013369D01*
X138027Y013371D01*
X138017Y013373D01*
X138007Y013376D01*
X137997Y01338D01*
X137989Y013385D01*
X137982Y013389D01*
X137974Y013394D01*
X137968Y013398D01*
X137963Y013403D01*
X137958Y013407D01*
X137954Y013411D01*
X137952Y013414D01*
X137949Y013416D01*
X137948Y013418D01*
X137948Y013418D01*
X137943Y013426D01*
X137938Y013433D01*
X137935Y01344D01*
X137932Y013447D01*
X137927Y013462D01*
X137924Y013475D01*
X137923Y01348D01*
X137922Y013486D01*
X137921Y013491D01*
Y013495D01*
X13792Y013498D01*
Y013503D01*
X137921Y013513D01*
X137922Y013523D01*
X137924Y013532D01*
X137926Y013541D01*
X137928Y013548D01*
X137931Y013556D01*
X137934Y013563D01*
X137937Y013569D01*
X137941Y013575D01*
X137943Y01358D01*
X137947Y013584D01*
X137949Y013587D01*
X137951Y01359D01*
X137953Y013592D01*
X137954Y013593D01*
X137954Y013594D01*
X137961Y0136D01*
X137967Y013605D01*
X137974Y01361D01*
X137982Y013614D01*
X137988Y013618D01*
X137995Y01362D01*
X138008Y013625D01*
X138014Y013626D01*
X138019Y013628D01*
X138024Y013628D01*
X138028Y013629D01*
X138031Y013629D01*
X138036D01*
X138045Y013629D01*
X138055Y013627D01*
X138063Y013625D01*
X138071Y013623D01*
X138077Y01362D01*
X138082Y013619D01*
X138085Y013617D01*
X138085Y013617D01*
X138086D01*
X138074Y013681D01*
X137937D01*
Y013749D01*
D02*
G37*
G36*
X135841Y013756D02*
X135846D01*
X135855Y013755D01*
X135864Y013755D01*
X135881Y013752D01*
X135895Y013748D01*
X135902Y013745D01*
X135908Y013743D01*
X135913Y013741D01*
X135918Y013738D01*
X135922Y013736D01*
X135925Y013734D01*
X135928Y013732D01*
X13593Y013731D01*
X135931Y01373D01*
X135931Y01373D01*
X135937Y013724D01*
X135943Y013719D01*
X135948Y013712D01*
X135952Y013705D01*
X135959Y013691D01*
X135964Y013677D01*
X135966Y01367D01*
X135967Y013664D01*
X135969Y013659D01*
X13597Y013654D01*
X135971Y013649D01*
Y013647D01*
X135971Y013644D01*
Y013644D01*
X135899Y013637D01*
X135898Y013648D01*
X135896Y013657D01*
X135894Y013665D01*
X135891Y013671D01*
X135889Y013676D01*
X135887Y013679D01*
X135885Y013682D01*
X135884Y013682D01*
X135879Y013687D01*
X135873Y01369D01*
X135867Y013693D01*
X135861Y013694D01*
X135856Y013695D01*
X135852Y013696D01*
X135848D01*
X13584Y013695D01*
X135833Y013694D01*
X135827Y013691D01*
X135821Y013689D01*
X135817Y013687D01*
X135814Y013685D01*
X135812Y013683D01*
X135812Y013683D01*
X135807Y013677D01*
X135804Y013671D01*
X135802Y013665D01*
X1358Y013659D01*
X135799Y013654D01*
X135799Y013649D01*
Y013646D01*
Y013646D01*
Y013645D01*
X135799Y013637D01*
X135801Y013629D01*
X135804Y013622D01*
X135806Y013615D01*
X135809Y013609D01*
X135812Y013605D01*
X135813Y013602D01*
X135814Y013601D01*
X135816Y013598D01*
X135819Y013594D01*
X135824Y013589D01*
X135828Y013584D01*
X135838Y013574D01*
X135848Y013564D01*
X135858Y013554D01*
X135862Y013549D01*
X135866Y013546D01*
X13587Y013543D01*
X135872Y013541D01*
X135873Y013539D01*
X135874Y013539D01*
X135885Y013528D01*
X135895Y013518D01*
X135904Y013509D01*
X135912Y013501D01*
X13592Y013493D01*
X135926Y013485D01*
X135932Y013478D01*
X135937Y013472D01*
X135942Y013466D01*
X135946Y013462D01*
X135949Y013458D01*
X135951Y013454D01*
X135953Y013452D01*
X135954Y01345D01*
X135955Y013448D01*
Y013448D01*
X135962Y013435D01*
X135968Y013422D01*
X135972Y01341D01*
X135976Y013399D01*
X135978Y01339D01*
X135978Y013386D01*
X135979Y013382D01*
X135979Y01338D01*
X13598Y013377D01*
Y013376D01*
X135726D01*
Y013443D01*
X13587D01*
X135866Y01345D01*
X135861Y013456D01*
X135859Y013459D01*
X135857Y013461D01*
X135856Y013462D01*
X135855Y013463D01*
X135853Y013465D01*
X135851Y013468D01*
X135845Y013474D01*
X135837Y013481D01*
X13583Y013488D01*
X135823Y013494D01*
X135817Y0135D01*
X135815Y013502D01*
X135813Y013504D01*
X135812Y013504D01*
X135812Y013505D01*
X1358Y013516D01*
X13579Y013525D01*
X135782Y013534D01*
X135775Y013541D01*
X13577Y013546D01*
X135767Y01355D01*
X135765Y013553D01*
X135764Y013553D01*
X135757Y013563D01*
X135751Y013571D01*
X135746Y01358D01*
X135742Y013587D01*
X135739Y013593D01*
X135737Y013598D01*
X135736Y0136D01*
X135735Y013601D01*
X135732Y01361D01*
X13573Y013619D01*
X135728Y013627D01*
X135727Y013635D01*
X135727Y013641D01*
X135726Y013646D01*
Y01365D01*
X135727Y013658D01*
X135728Y013666D01*
X135729Y013674D01*
X135731Y013681D01*
X135736Y013694D01*
X135742Y013705D01*
X135745Y013709D01*
X135748Y013713D01*
X135751Y013717D01*
X135753Y01372D01*
X135756Y013722D01*
X135757Y013724D01*
X135758Y013725D01*
X135758Y013725D01*
X135764Y013731D01*
X135771Y013736D01*
X135778Y013739D01*
X135786Y013743D01*
X1358Y013748D01*
X135814Y013752D01*
X135821Y013753D01*
X135827Y013754D01*
X135832Y013755D01*
X135837Y013755D01*
X135841Y013756D01*
D02*
G37*
G36*
X136079D02*
X136138D01*
X136144Y013743D01*
X136151Y013732D01*
X136159Y013721D01*
X136166Y013712D01*
X136173Y013705D01*
X136179Y0137D01*
X136181Y013697D01*
X136183Y013696D01*
X136184Y013695D01*
X136184Y013695D01*
X136196Y013686D01*
X136208Y013678D01*
X136218Y013672D01*
X136227Y013668D01*
X136235Y013665D01*
X13624Y013662D01*
X136243Y013661D01*
X136244Y013661D01*
X136245Y01366D01*
X136245D01*
Y013595D01*
X136226Y013602D01*
X136208Y013611D01*
X1362Y013615D01*
X136192Y01362D01*
X136185Y013624D01*
X136179Y013629D01*
X136173Y013633D01*
X136167Y013637D01*
X136163Y01364D01*
X136159Y013643D01*
X136156Y013646D01*
X136154Y013648D01*
X136152Y013649D01*
X136152Y013649D01*
Y013376D01*
X136079D01*
Y013756D01*
D02*
G37*
G36*
X137164D02*
X137169D01*
X137178Y013755D01*
X137187Y013755D01*
X137204Y013752D01*
X137218Y013748D01*
X137225Y013745D01*
X137231Y013743D01*
X137236Y013741D01*
X137241Y013738D01*
X137245Y013736D01*
X137248Y013734D01*
X137251Y013732D01*
X137253Y013731D01*
X137254Y01373D01*
X137254Y01373D01*
X13726Y013724D01*
X137266Y013719D01*
X137271Y013712D01*
X137275Y013705D01*
X137282Y013691D01*
X137287Y013677D01*
X137289Y01367D01*
X13729Y013664D01*
X137292Y013659D01*
X137293Y013654D01*
X137294Y013649D01*
Y013647D01*
X137294Y013644D01*
Y013644D01*
X137222Y013637D01*
X137221Y013648D01*
X137219Y013657D01*
X137217Y013665D01*
X137214Y013671D01*
X137212Y013676D01*
X13721Y013679D01*
X137208Y013682D01*
X137207Y013682D01*
X137202Y013687D01*
X137196Y01369D01*
X13719Y013693D01*
X137184Y013694D01*
X137179Y013695D01*
X137175Y013696D01*
X137171D01*
X137163Y013695D01*
X137155Y013694D01*
X137149Y013691D01*
X137144Y013689D01*
X13714Y013687D01*
X137137Y013685D01*
X137135Y013683D01*
X137135Y013683D01*
X13713Y013677D01*
X137127Y013671D01*
X137125Y013665D01*
X137123Y013659D01*
X137122Y013654D01*
X137122Y013649D01*
Y013646D01*
Y013646D01*
Y013645D01*
X137122Y013637D01*
X137124Y013629D01*
X137127Y013622D01*
X137129Y013615D01*
X137132Y013609D01*
X137135Y013605D01*
X137136Y013602D01*
X137137Y013601D01*
X137139Y013598D01*
X137142Y013594D01*
X137147Y013589D01*
X137151Y013584D01*
X137161Y013574D01*
X137171Y013564D01*
X137181Y013554D01*
X137185Y013549D01*
X137189Y013546D01*
X137193Y013543D01*
X137195Y013541D01*
X137196Y013539D01*
X137197Y013539D01*
X137208Y013528D01*
X137218Y013518D01*
X137227Y013509D01*
X137235Y013501D01*
X137243Y013493D01*
X137249Y013485D01*
X137255Y013478D01*
X13726Y013472D01*
X137265Y013466D01*
X137269Y013462D01*
X137272Y013458D01*
X137274Y013454D01*
X137276Y013452D01*
X137277Y01345D01*
X137278Y013448D01*
Y013448D01*
X137285Y013435D01*
X137291Y013422D01*
X137295Y01341D01*
X137299Y013399D01*
X137301Y01339D01*
X137301Y013386D01*
X137302Y013382D01*
X137302Y01338D01*
X137303Y013377D01*
Y013376D01*
X137049D01*
Y013443D01*
X137193D01*
X137189Y01345D01*
X137184Y013456D01*
X137182Y013459D01*
X13718Y013461D01*
X137179Y013462D01*
X137178Y013463D01*
X137176Y013465D01*
X137174Y013468D01*
X137168Y013474D01*
X13716Y013481D01*
X137153Y013488D01*
X137146Y013494D01*
X13714Y0135D01*
X137138Y013502D01*
X137136Y013504D01*
X137135Y013504D01*
X137135Y013505D01*
X137123Y013516D01*
X137113Y013525D01*
X137105Y013534D01*
X137098Y013541D01*
X137093Y013546D01*
X13709Y01355D01*
X137088Y013553D01*
X137087Y013553D01*
X13708Y013563D01*
X137074Y013571D01*
X137069Y01358D01*
X137065Y013587D01*
X137062Y013593D01*
X13706Y013598D01*
X137059Y0136D01*
X137058Y013601D01*
X137055Y01361D01*
X137053Y013619D01*
X137051Y013627D01*
X13705Y013635D01*
X13705Y013641D01*
X137049Y013646D01*
Y01365D01*
X13705Y013658D01*
X137051Y013666D01*
X137052Y013674D01*
X137054Y013681D01*
X137059Y013694D01*
X137065Y013705D01*
X137068Y013709D01*
X137071Y013713D01*
X137074Y013717D01*
X137076Y01372D01*
X137079Y013722D01*
X13708Y013724D01*
X137081Y013725D01*
X137081Y013725D01*
X137087Y013731D01*
X137094Y013736D01*
X137101Y013739D01*
X137109Y013743D01*
X137123Y013748D01*
X137137Y013752D01*
X137143Y013753D01*
X137149Y013754D01*
X137155Y013755D01*
X13716Y013755D01*
X137164Y013756D01*
D02*
G37*
G36*
X138285D02*
X138344D01*
X138349Y013743D01*
X138356Y013732D01*
X138364Y013721D01*
X138371Y013712D01*
X138378Y013705D01*
X138384Y0137D01*
X138386Y013697D01*
X138388Y013696D01*
X138389Y013695D01*
X138389Y013695D01*
X138401Y013686D01*
X138413Y013678D01*
X138423Y013672D01*
X138433Y013668D01*
X13844Y013665D01*
X138446Y013662D01*
X138448Y013661D01*
X13845Y013661D01*
X13845Y01366D01*
X138451D01*
Y013595D01*
X138431Y013602D01*
X138413Y013611D01*
X138405Y013615D01*
X138398Y01362D01*
X138391Y013624D01*
X138384Y013629D01*
X138378Y013633D01*
X138373Y013637D01*
X138368Y01364D01*
X138364Y013643D01*
X138361Y013646D01*
X138359Y013648D01*
X138358Y013649D01*
X138357Y013649D01*
Y013376D01*
X138285D01*
Y013756D01*
D02*
G37*
G36*
X139763Y013448D02*
X139836D01*
Y013376D01*
X139763D01*
Y013448D01*
D02*
G37*
G36*
X140801Y013754D02*
X140951D01*
Y013376D01*
X140808D01*
X140793Y013376D01*
X14078Y013377D01*
X140768Y013378D01*
X140759Y01338D01*
X140751Y013381D01*
X140745Y013382D01*
X140744Y013383D01*
X140742D01*
X140742Y013384D01*
X140741D01*
X140729Y013388D01*
X140718Y013393D01*
X140709Y013398D01*
X140702Y013403D01*
X140696Y013407D01*
X140691Y01341D01*
X140689Y013412D01*
X140688Y013414D01*
X140678Y013424D01*
X14067Y013435D01*
X140663Y013446D01*
X140658Y013457D01*
X140653Y013466D01*
X140651Y01347D01*
X14065Y013474D01*
X140649Y013477D01*
X140648Y013479D01*
X140647Y01348D01*
Y013481D01*
X140643Y013494D01*
X14064Y013507D01*
X140638Y013521D01*
X140637Y013533D01*
X140636Y013539D01*
X140636Y013545D01*
Y013549D01*
X140635Y013553D01*
Y013561D01*
X140636Y01358D01*
X140637Y013597D01*
X140638Y013605D01*
X140639Y013612D01*
X14064Y013619D01*
X140641Y013625D01*
X140643Y013631D01*
X140644Y013636D01*
X140645Y01364D01*
X140646Y013643D01*
X140647Y013646D01*
X140647Y013648D01*
X140648Y013649D01*
Y01365D01*
X140653Y013663D01*
X140659Y013675D01*
X140665Y013685D01*
X140671Y013694D01*
X140676Y013701D01*
X14068Y013707D01*
X140683Y01371D01*
X140683Y013711D01*
X140684D01*
X140693Y01372D01*
X140702Y013727D01*
X140712Y013733D01*
X140721Y013738D01*
X140729Y013742D01*
X140735Y013744D01*
X140737Y013745D01*
X140739Y013745D01*
X14074Y013746D01*
X140741D01*
X140751Y013749D01*
X140762Y01375D01*
X140774Y013752D01*
X140786Y013753D01*
X140796Y013753D01*
X140801Y013754D01*
D02*
G37*
G36*
X136478Y01376D02*
X136536D01*
Y013264D01*
X136478D01*
Y01376D01*
D02*
G37*
G36*
X137655D02*
X137712D01*
Y013264D01*
X137655D01*
Y01376D01*
D02*
G37*
G36*
X138831D02*
X138888D01*
Y013264D01*
X138831D01*
Y01376D01*
D02*
G37*
G36*
X140359D02*
X140416D01*
Y013264D01*
X140359D01*
Y01376D01*
D02*
G37*
%LPD*%
G36*
X14116Y014139D02*
X141153Y014137D01*
X141147Y014134D01*
X141142Y014131D01*
X141137Y014128D01*
X141134Y014125D01*
X141132Y014123D01*
X141132Y014122D01*
X141127Y014115D01*
X141123Y014107D01*
X141121Y014097D01*
X141119Y014089D01*
X141118Y01408D01*
X141117Y014074D01*
Y014072D01*
Y014069D01*
Y014068D01*
Y014068D01*
X141118Y014055D01*
X141119Y014044D01*
X141121Y014036D01*
X141124Y014029D01*
X141126Y014023D01*
X141128Y014019D01*
X14113Y014017D01*
X141131Y014016D01*
X141136Y014011D01*
X141142Y014007D01*
X141148Y014005D01*
X141152Y014003D01*
X141157Y014002D01*
X141161Y014001D01*
X141165D01*
X141172Y014002D01*
X141179Y014004D01*
X141185Y014007D01*
X141191Y014011D01*
X141195Y014014D01*
X141199Y014017D01*
X141201Y014019D01*
X141202Y01402D01*
X141207Y014027D01*
X141211Y014036D01*
X141214Y014045D01*
X141215Y014054D01*
X141216Y014062D01*
X141217Y014068D01*
Y014071D01*
Y014073D01*
Y014074D01*
Y014074D01*
X141217Y014086D01*
X141215Y014096D01*
X141213Y014104D01*
X14121Y014111D01*
X141208Y014116D01*
X141205Y01412D01*
X141204Y014122D01*
X141203Y014123D01*
X141198Y014128D01*
X141192Y014133D01*
X141186Y014136D01*
X14118Y014138D01*
X141175Y014139D01*
X141171Y01414D01*
X141168D01*
X14116Y014139D01*
D02*
G37*
G36*
X139393Y014087D02*
X139481D01*
X139393Y014217D01*
Y014087D01*
D02*
G37*
G36*
X140818Y013689D02*
X140812D01*
X140806Y013689D01*
X140801D01*
X140796Y013688D01*
X140792D01*
X140786Y013687D01*
X140782Y013687D01*
X140779Y013686D01*
X140779D01*
X140771Y013684D01*
X140765Y013681D01*
X140759Y013678D01*
X140753Y013675D01*
X140749Y013672D01*
X140746Y01367D01*
X140744Y013669D01*
X140744Y013668D01*
X140739Y013663D01*
X140735Y013657D01*
X140731Y01365D01*
X140727Y013645D01*
X140725Y01364D01*
X140724Y013635D01*
X140723Y013632D01*
X140722Y013632D01*
Y013631D01*
X140719Y013622D01*
X140717Y013611D01*
X140716Y0136D01*
X140715Y013589D01*
X140714Y01358D01*
X140714Y013575D01*
Y013571D01*
Y013569D01*
Y013566D01*
Y013565D01*
Y013564D01*
X140714Y013549D01*
X140715Y013535D01*
X140717Y013523D01*
X140718Y013513D01*
X140719Y013505D01*
X14072Y013502D01*
X140721Y0135D01*
X140721Y013498D01*
Y013496D01*
X140722Y013495D01*
Y013495D01*
X140725Y013486D01*
X140728Y013478D01*
X140732Y013472D01*
X140735Y013468D01*
X140737Y013464D01*
X140739Y013461D01*
X140741Y013459D01*
X140742Y013459D01*
X140747Y013455D01*
X140751Y013452D01*
X140756Y013449D01*
X140761Y013447D01*
X140766Y013445D01*
X140769Y013444D01*
X140771Y013443D01*
X140772D01*
X140778Y013442D01*
X140785Y013441D01*
X140793Y01344D01*
X140801D01*
X140808Y01344D01*
X140875D01*
Y01369D01*
X140825D01*
X140818Y013689D01*
D02*
G37*
%LPC*%
G36*
X157698Y019085D02*
X15803D01*
Y018887D01*
X158225D01*
Y019085D01*
D01*
Y018556D01*
D01*
Y018755D01*
X15803D01*
Y018556D01*
X158225D01*
X157894D01*
Y018755D01*
X157698D01*
Y018887D01*
X157894D01*
Y019085D01*
X157698D01*
D02*
G37*
G36*
X157987Y018158D02*
X158132D01*
Y017873D01*
X157987D01*
Y018158D01*
D02*
G37*
G36*
X1532Y04335D02*
X153205D01*
X153209Y043349D01*
X153216Y043348D01*
X153222Y043346D01*
X15323Y043342D01*
X153236Y043338D01*
X153244Y043331D01*
X153245Y04333D01*
X153247Y043328D01*
X153249Y043324D01*
X153254Y043318D01*
X153257Y043312D01*
X153259Y043304D01*
X153261Y043294D01*
X153263Y043284D01*
Y043283D01*
Y04328D01*
X153261Y043275D01*
X15326Y043269D01*
X153258Y043261D01*
X153255Y043255D01*
X153251Y043247D01*
X153244Y04324D01*
X153243Y043238D01*
X153241Y043236D01*
X153236Y043233D01*
X153232Y04323D01*
X153225Y043226D01*
X153218Y043223D01*
X153209Y043221D01*
X1532Y04322D01*
X153196D01*
X153192Y043221D01*
X153185Y043222D01*
X153178Y043224D01*
X153171Y043229D01*
X153163Y043233D01*
X153157Y04324D01*
X153155Y043241D01*
X153154Y043243D01*
X153151Y043247D01*
X153148Y043252D01*
X153145Y043258D01*
X153142Y043266D01*
X15314Y043275D01*
X153139Y043284D01*
Y043285D01*
Y043289D01*
X15314Y043294D01*
X153141Y043301D01*
X153143Y043308D01*
X153147Y043316D01*
X153151Y043324D01*
X153157Y043331D01*
X153158Y043332D01*
X15316Y043335D01*
X153164Y043337D01*
X153169Y04334D01*
X153175Y043344D01*
X153183Y043347D01*
X153192Y043349D01*
X1532Y04335D01*
D02*
G37*
G36*
X135762Y037894D02*
Y037811D01*
X135478Y037717D01*
X135762Y03762D01*
Y037536D01*
X135378Y037673D01*
Y037536D01*
X135762D01*
X135378D01*
Y037757D01*
X135762Y037894D01*
D02*
G37*
G36*
X135378Y037299D02*
X135765D01*
Y037239D01*
X135752Y037233D01*
X13574Y037226D01*
X135729Y037218D01*
X13572Y037211D01*
X135713Y037204D01*
X135707Y037198D01*
X135705Y037196D01*
X135703Y037194D01*
X135703Y037193D01*
X135702Y037192D01*
X135694Y03718D01*
X135686Y037168D01*
X13568Y037158D01*
X135675Y037148D01*
X135672Y037141D01*
X135669Y037135D01*
X135669Y037133D01*
X135668Y037131D01*
X135667Y037131D01*
Y03713D01*
X135378D01*
Y037299D01*
D02*
G37*
G36*
Y037051D02*
X135452D01*
Y036977D01*
X135378D01*
Y037051D01*
D02*
G37*
G36*
Y036926D02*
D01*
Y036879D01*
X135455D01*
Y036926D01*
X135378D01*
X13552D01*
D01*
X135764D01*
X13552D01*
Y036879D01*
X135764D01*
Y036816D01*
X135519Y03665D01*
X135455D01*
Y036808D01*
X135378D01*
Y03665D01*
D01*
Y036926D01*
D02*
G37*
%LPD*%
G36*
Y03713D02*
X135601D01*
X135609Y03715D01*
X135617Y037168D01*
X135621Y037176D01*
X135626Y037184D01*
X135631Y037191D01*
X135635Y037198D01*
X13564Y037204D01*
X135644Y037209D01*
X135647Y037214D01*
X13565Y037218D01*
X135653Y037221D01*
X135655Y037223D01*
X135656Y037224D01*
X135656Y037225D01*
X135378D01*
Y03713D01*
D02*
G37*
G36*
X13552Y036718D02*
X135652Y036808D01*
X13552D01*
Y036718D01*
D02*
G37*
%LPC*%
G36*
X136091Y024068D02*
X136475D01*
Y023986D01*
X136191Y023892D01*
X136475Y023794D01*
Y02371D01*
D01*
X136091Y023848D01*
Y02371D01*
D01*
Y023932D01*
X136475Y024068D01*
X136091D01*
D01*
D02*
G37*
G36*
X136084Y023538D02*
X136477D01*
D01*
X136206D01*
X136219Y023537D01*
X13623Y023535D01*
X13624Y023532D01*
X136248Y023528D01*
X136256Y023524D01*
X136261Y023521D01*
X136264Y023519D01*
X136265Y023518D01*
X136273Y02351D01*
X136281Y023501D01*
X136286Y023492D01*
X136291Y023484D01*
X136294Y023477D01*
X136296Y023471D01*
X136297Y023468D01*
Y023467D01*
X136297Y023466D01*
Y023465D01*
X136303Y023475D01*
X13631Y023483D01*
X136316Y023491D01*
X136323Y023497D01*
X13633Y023503D01*
X136336Y023507D01*
X136343Y023511D01*
X136349Y023514D01*
X136355Y023516D01*
X136361Y023518D01*
X136366Y023519D01*
X13637Y02352D01*
X136373Y02352D01*
X136376Y023521D01*
X136378D01*
X136378D01*
X136385Y02352D01*
X136391Y02352D01*
X136403Y023516D01*
X136414Y023512D01*
X136424Y023507D01*
X136432Y023502D01*
X136437Y023498D01*
X136439Y023496D01*
X136441Y023495D01*
X136442Y023494D01*
X136442Y023493D01*
X136448Y023487D01*
X136454Y02348D01*
X136458Y023473D01*
X136462Y023466D01*
X136466Y023458D01*
X136469Y023451D01*
X136473Y023437D01*
X136474Y023431D01*
X136475Y023425D01*
X136476Y02342D01*
X136477Y023415D01*
X136477Y023411D01*
Y023406D01*
X136477Y023395D01*
X136475Y023384D01*
X136473Y023374D01*
X136471Y023366D01*
X136469Y023359D01*
X136467Y023354D01*
X136466Y02335D01*
X136465Y02335D01*
Y023349D01*
X13646Y02334D01*
X136454Y023332D01*
X136449Y023325D01*
X136444Y02332D01*
X136439Y023315D01*
X136435Y023312D01*
X136433Y02331D01*
X136432Y023309D01*
X136423Y023304D01*
X136414Y0233D01*
X136405Y023296D01*
X136396Y023293D01*
X136388Y023291D01*
X136382Y023289D01*
X136379Y023289D01*
X136377D01*
X136376Y023288D01*
X136376D01*
X136364Y023356D01*
X136373Y023357D01*
X136381Y02336D01*
X136388Y023362D01*
X136393Y023365D01*
X136397Y023367D01*
X136401Y02337D01*
X136402Y023371D01*
X136403Y023372D01*
X136407Y023377D01*
X136411Y023382D01*
X136413Y023388D01*
X136414Y023393D01*
X136416Y023397D01*
X136416Y023401D01*
Y023404D01*
X136416Y023411D01*
X136414Y023417D01*
X136412Y023422D01*
X136411Y023427D01*
X136408Y023431D01*
X136406Y023433D01*
X136405Y023435D01*
X136404Y023435D01*
X1364Y023439D01*
X136394Y023442D01*
X136389Y023444D01*
X136384Y023445D01*
X13638Y023446D01*
X136377Y023447D01*
X136374D01*
X136373D01*
X136365Y023446D01*
X136358Y023445D01*
X136352Y023442D01*
X136347Y023439D01*
X136342Y023436D01*
X13634Y023433D01*
X136337Y023431D01*
X136337Y023431D01*
X136332Y023424D01*
X136329Y023417D01*
X136327Y023409D01*
X136325Y023402D01*
X136325Y023395D01*
X136324Y02339D01*
Y023385D01*
X136265Y023377D01*
X136266Y023384D01*
X136268Y02339D01*
X136269Y023396D01*
X13627Y023401D01*
X13627Y023405D01*
Y023411D01*
X13627Y023419D01*
X136267Y023425D01*
X136265Y023431D01*
X136262Y023437D01*
X136259Y023441D01*
X136256Y023444D01*
X136254Y023446D01*
X136253Y023447D01*
X136247Y023452D01*
X13624Y023456D01*
X136232Y023458D01*
X136225Y023461D01*
X136219Y023462D01*
X136214Y023462D01*
X13621D01*
X13621D01*
X136209D01*
X136199Y023462D01*
X136189Y02346D01*
X136181Y023457D01*
X136174Y023455D01*
X136169Y023451D01*
X136165Y023449D01*
X136162Y023447D01*
X136162Y023446D01*
X136156Y02344D01*
X136152Y023433D01*
X136149Y023427D01*
X136147Y023421D01*
X136146Y023416D01*
X136145Y023412D01*
X136145Y023409D01*
Y023408D01*
X136145Y0234D01*
X136147Y023394D01*
X136149Y023387D01*
X136152Y023382D01*
X136154Y023378D01*
X136156Y023375D01*
X136158Y023372D01*
X136159Y023372D01*
X136165Y023367D01*
X136171Y023362D01*
X136179Y02336D01*
X136185Y023357D01*
X136191Y023355D01*
X136196Y023354D01*
X1362Y023354D01*
X1362D01*
X136201D01*
X136192Y023283D01*
D01*
X136183Y023284D01*
X136175Y023286D01*
X136159Y023291D01*
X136146Y023297D01*
X13614Y023301D01*
X136135Y023304D01*
X13613Y023308D01*
X136126Y023311D01*
X136122Y023314D01*
X136119Y023316D01*
X136117Y023319D01*
X136115Y02332D01*
X136114Y023321D01*
X136114Y023322D01*
X136109Y023329D01*
X136104Y023336D01*
X1361Y023342D01*
X136096Y02335D01*
X136091Y023365D01*
X136088Y023378D01*
X136086Y023385D01*
X136085Y02339D01*
X136085Y023395D01*
X136084Y0234D01*
X136084Y023404D01*
Y023301D01*
Y023538D01*
D02*
G37*
G36*
X136091Y023225D02*
X136165D01*
Y023152D01*
X136091D01*
Y023225D01*
D02*
G37*
G36*
X136084Y02309D02*
Y022961D01*
X136084Y022971D01*
X136085Y022981D01*
X136087Y022989D01*
X136089Y022998D01*
X136092Y023006D01*
X136095Y023014D01*
X136098Y023021D01*
X136101Y023027D01*
X136105Y023033D01*
X136108Y023038D01*
X136111Y023042D01*
X136114Y023046D01*
X136116Y023049D01*
X136118Y023051D01*
X136119Y023052D01*
X136119Y023053D01*
X136126Y023059D01*
X136133Y023065D01*
X13614Y02307D01*
X136147Y023074D01*
X136155Y023078D01*
X136162Y023081D01*
X136176Y023086D01*
X136182Y023087D01*
X136188Y023088D01*
X136193Y023089D01*
X136197Y023089D01*
X136201Y02309D01*
X136084D01*
X136477D01*
X136206D01*
X136219Y023089D01*
X13623Y023087D01*
X13624Y023084D01*
X136248Y02308D01*
X136256Y023076D01*
X136261Y023073D01*
X136264Y023071D01*
X136265Y02307D01*
X136273Y023062D01*
X136281Y023053D01*
X136286Y023044D01*
X136291Y023036D01*
X136294Y023029D01*
X136296Y023023D01*
X136297Y023021D01*
Y023019D01*
X136297Y023018D01*
Y023017D01*
X136303Y023027D01*
X13631Y023036D01*
X136316Y023043D01*
X136323Y023049D01*
X13633Y023055D01*
X136336Y023059D01*
X136343Y023063D01*
X136349Y023066D01*
X136355Y023068D01*
X136361Y02307D01*
X136366Y023071D01*
X13637Y023072D01*
X136373Y023072D01*
X136376Y023073D01*
X136378D01*
X136378D01*
X136385Y023072D01*
X136391Y023072D01*
X136403Y023068D01*
X136414Y023064D01*
X136424Y023059D01*
X136432Y023054D01*
X136437Y02305D01*
X136439Y023048D01*
X136441Y023047D01*
X136442Y023046D01*
X136442Y023046D01*
X136448Y023039D01*
X136454Y023032D01*
X136458Y023026D01*
X136462Y023018D01*
X136466Y023011D01*
X136469Y023003D01*
X136473Y022989D01*
X136474Y022983D01*
X136475Y022977D01*
X136476Y022972D01*
X136477Y022967D01*
X136477Y022963D01*
Y022958D01*
X136477Y022947D01*
X136475Y022936D01*
X136473Y022926D01*
X136471Y022918D01*
X136469Y022911D01*
X136467Y022906D01*
X136466Y022902D01*
X136465Y022902D01*
Y022901D01*
X13646Y022892D01*
X136454Y022884D01*
X136449Y022877D01*
X136444Y022872D01*
X136439Y022867D01*
X136435Y022864D01*
X136433Y022862D01*
X136432Y022861D01*
X136423Y022856D01*
X136414Y022852D01*
X136405Y022849D01*
X136396Y022845D01*
X136388Y022843D01*
X136382Y022841D01*
X136379Y022841D01*
X136377D01*
X136376Y02284D01*
X136376D01*
X136364Y022908D01*
X136373Y02291D01*
X136381Y022912D01*
X136388Y022914D01*
X136393Y022917D01*
X136397Y02292D01*
X136401Y022922D01*
X136402Y022923D01*
X136403Y022924D01*
X136407Y022929D01*
X136411Y022935D01*
X136413Y02294D01*
X136414Y022945D01*
X136416Y02295D01*
X136416Y022953D01*
Y022956D01*
X136416Y022963D01*
X136414Y02297D01*
X136412Y022975D01*
X136411Y022979D01*
X136408Y022983D01*
X136406Y022985D01*
X136405Y022987D01*
X136404Y022987D01*
X1364Y022991D01*
X136394Y022994D01*
X136389Y022996D01*
X136384Y022997D01*
X13638Y022998D01*
X136377Y022999D01*
X136374D01*
X136373D01*
X136365Y022998D01*
X136358Y022997D01*
X136352Y022994D01*
X136347Y022991D01*
X136342Y022988D01*
X13634Y022986D01*
X136337Y022983D01*
X136337Y022983D01*
X136332Y022976D01*
X136329Y022969D01*
X136327Y022961D01*
X136325Y022954D01*
X136325Y022947D01*
X136324Y022942D01*
Y022937D01*
X136265Y022929D01*
X136266Y022936D01*
X136268Y022942D01*
X136269Y022948D01*
X13627Y022953D01*
X13627Y022957D01*
Y022963D01*
X13627Y022971D01*
X136267Y022977D01*
X136265Y022983D01*
X136262Y022989D01*
X136259Y022993D01*
X136256Y022996D01*
X136254Y022998D01*
X136253Y022999D01*
X136247Y023004D01*
X13624Y023008D01*
X136232Y023011D01*
X136225Y023013D01*
X136219Y023014D01*
X136214Y023014D01*
X13621D01*
X13621D01*
X136209D01*
X136199Y023014D01*
X136189Y023012D01*
X136181Y023009D01*
X136174Y023007D01*
X136169Y023003D01*
X136165Y023001D01*
X136162Y022999D01*
X136162Y022998D01*
X136156Y022992D01*
X136152Y022986D01*
X136149Y02298D01*
X136147Y022973D01*
X136146Y022968D01*
X136145Y022964D01*
X136145Y022961D01*
Y02296D01*
X136145Y022952D01*
X136147Y022946D01*
X136149Y02294D01*
X136152Y022934D01*
X136154Y02293D01*
X136156Y022927D01*
X136158Y022925D01*
X136159Y022924D01*
X136165Y022919D01*
X136171Y022915D01*
X136179Y022912D01*
X136185Y022909D01*
X136191Y022907D01*
X136196Y022906D01*
X1362Y022906D01*
X1362D01*
X136201D01*
X136192Y022835D01*
D01*
X136183Y022836D01*
X136175Y022838D01*
X136159Y022843D01*
X136146Y022849D01*
X13614Y022853D01*
X136135Y022856D01*
X13613Y02286D01*
X136126Y022863D01*
X136122Y022866D01*
X136119Y022869D01*
X136117Y022871D01*
X136115Y022872D01*
X136114Y022874D01*
X136114Y022874D01*
X136109Y022881D01*
X136104Y022888D01*
X1361Y022895D01*
X136096Y022902D01*
X136091Y022917D01*
X136088Y02293D01*
X136086Y022937D01*
X136085Y022942D01*
X136085Y022947D01*
X136084Y022952D01*
X136084Y022956D01*
Y022835D01*
Y02309D01*
D02*
G37*
%LPD*%
G36*
Y023409D02*
X136084Y023419D01*
X136085Y023429D01*
X136087Y023437D01*
X136089Y023446D01*
X136092Y023454D01*
X136095Y023462D01*
X136098Y023469D01*
X136101Y023475D01*
X136105Y023481D01*
X136108Y023486D01*
X136111Y02349D01*
X136114Y023494D01*
X136116Y023497D01*
X136118Y023499D01*
X136119Y0235D01*
X136119Y023501D01*
X136126Y023507D01*
X136133Y023513D01*
X13614Y023518D01*
X136147Y023522D01*
X136155Y023526D01*
X136162Y023529D01*
X136176Y023533D01*
X136182Y023535D01*
X136188Y023536D01*
X136193Y023537D01*
X136197Y023537D01*
X136201Y023538D01*
X136084D01*
Y023409D01*
D02*
G37*
D10*
X141257Y0202D02*
G03*
X141257Y0202I000984J0D01*
G01*
X136113Y0406D02*
G03*
X136113Y0406I000984J0D01*
G01*
X145457Y027169D02*
G03*
X145457Y027169I000984J0D01*
G01*
X13555Y0301D02*
G03*
X13555Y0301I000984J0D01*
G01*
X145941Y020694D02*
X144541D01*
X145941Y020024D02*
Y020694D01*
Y020024D02*
X144541D01*
Y020694D01*
X152273Y027646D02*
X151603D01*
X152273D02*
Y029046D01*
X151603D01*
Y027646D02*
Y029046D01*
X142301Y0167D02*
Y0181D01*
X142971D02*
X142301D01*
X142971Y0167D02*
Y0181D01*
Y0167D02*
X142301D01*
X143981D02*
Y0181D01*
Y0167D02*
X143311D01*
Y0181D01*
X143981D02*
X143311D01*
X144063Y0142D02*
X144063Y01353D01*
X144063Y0142D02*
X142663Y0142D01*
X142663Y01353D02*
X142663Y0142D01*
X144063Y01353D02*
X142663Y01353D01*
X141541Y01137D02*
Y01204D01*
X142941Y01137D02*
X141541D01*
X142941D02*
Y01204D01*
X141541D01*
X143881Y01285D02*
X143211D01*
Y01145D02*
Y01285D01*
X143881Y01145D02*
X143211D01*
X143881D02*
Y01285D01*
X143731Y00995D02*
X143061Y00995D01*
X143061Y00855D01*
X143731Y00855D02*
X143061Y00855D01*
X143731Y00855D02*
Y00995D01*
X157071Y0197D02*
X156401D01*
X157071D02*
Y0211D01*
X156401D01*
Y0197D02*
Y0211D01*
X152813Y023078D02*
Y024478D01*
Y023078D02*
X152143D01*
Y024478D01*
X152813D02*
X152143D01*
X153231Y0395D02*
X152561Y0395D01*
Y0381D02*
Y0395D01*
X153231Y0381D02*
X152561Y0381D01*
X153231Y0381D02*
Y0395D01*
X157541Y03861D02*
X156141D01*
Y03928D01*
X157541D02*
X156141D01*
X157541Y03861D02*
Y03928D01*
X158441Y042152D02*
X157041D01*
X158441Y041482D02*
Y042152D01*
Y041482D02*
X157041D01*
Y042152D01*
X157591Y03955D02*
X156921D01*
X157591D02*
Y04095D01*
X156921D01*
Y03955D02*
Y04095D01*
X145805Y044068D02*
X145135D01*
X145805D02*
Y045468D01*
X145135D01*
Y044068D02*
Y045468D01*
X147921Y044046D02*
X147251D01*
X147921D02*
Y045446D01*
X147251D01*
Y044046D02*
Y045446D01*
X138031Y03615D02*
Y03755D01*
Y03615D02*
X137361D01*
Y03755D01*
X138031D02*
X137361D01*
X136451Y03615D02*
Y03755D01*
X137121D02*
X136451D01*
X137121Y03615D02*
Y03755D01*
Y03615D02*
X136451D01*
X152591Y02533D02*
X152591Y02466D01*
X153991D02*
X152591D01*
X153991D02*
X153991Y02533D01*
X152591D01*
X152641Y027514D02*
Y028184D01*
X154041Y027514D02*
X152641D01*
X154041D02*
Y028184D01*
X152641D01*
X152641Y028272D02*
Y028942D01*
X154041Y028272D02*
X152641D01*
X154041D02*
Y028942D01*
X152641D01*
X153241Y01591D02*
X151841D01*
Y01658D01*
X153241D02*
X151841D01*
X153241Y01591D02*
Y01658D01*
X148731Y019234D02*
X148731Y020634D01*
X148731Y019234D02*
X148061Y019234D01*
X148061Y020634D01*
X148731Y020634D02*
X148061Y020634D01*
X147715Y019244D02*
Y020644D01*
Y019244D02*
X147045D01*
Y020644D01*
X147715D02*
X147045D01*
X154741Y02074D02*
X153341Y02074D01*
X154741Y02007D02*
X154741Y02074D01*
X154741Y02007D02*
X153341Y02007D01*
X153341Y02074D02*
X153341Y02007D01*
X150485Y03861D02*
Y03928D01*
X149085D01*
Y03861D02*
Y03928D01*
X150485Y03861D02*
X149085D01*
X149097Y03772D02*
Y03839D01*
X150497Y03772D02*
X149097D01*
X150497D02*
Y03839D01*
X149097D01*
X153191Y01345D02*
X151791D01*
Y01412D01*
X153191D02*
X151791D01*
X153191Y01345D02*
Y01412D01*
X152381Y0381D02*
Y0395D01*
Y0381D02*
X151711D01*
Y0395D01*
X152381D02*
X151711D01*
X151531Y0381D02*
Y0395D01*
Y0381D02*
X150861Y0381D01*
Y0395D01*
X151531Y0395D02*
X150861Y0395D01*
X140534Y034634D02*
X140459Y03456D01*
X140534Y034634D02*
X140254Y034764D01*
X140459Y03456D02*
X140384Y034484D01*
X140254Y034764D01*
X140459Y03456D02*
X140254Y034764D01*
X137981Y03585D02*
X137311D01*
Y03445D02*
Y03585D01*
X137981Y03445D02*
X137311D01*
X137981D02*
Y03585D01*
X136691Y03516D02*
Y03583D01*
X135291D01*
Y03516D02*
Y03583D01*
X136691Y03516D02*
X135291D01*
X140735Y020195D02*
X141129D01*
X140932Y019998D02*
Y020392D01*
X135591Y040595D02*
X135985D01*
X135788Y040398D02*
Y040792D01*
X146446Y025663D02*
Y026056D01*
X146643Y02586D02*
X146249D01*
X13804Y030105D02*
X137647D01*
X137844Y030302D02*
Y029908D01*
D11*
X14523Y0299D02*
G03*
X14523Y0299I00085J0D01*
G01*
X14519Y02918D02*
X1449Y0299D01*
X1452Y03064D02*
X14491Y02992D01*
X14519Y02918D02*
Y03063D01*
X14489Y02917D02*
Y03062D01*
X13983Y034421D02*
X139848Y034459D01*
X139904Y034515D01*
X139511D01*
D12*
X145086Y01025D02*
G03*
X145086Y01025I0003J0D01*
G01*
X150731Y00953D02*
X144521D01*
X150731D02*
Y0178D01*
X149906Y0099D02*
X145966D01*
Y01066D01*
X149906Y0099D02*
Y01066D01*
X145966D01*
X149806Y01111D02*
X145476D01*
Y01701D01*
X149806Y01111D02*
Y01701D01*
X145476D01*
X150731Y0178D02*
X144521D01*
Y00953D02*
Y0178D01*
D13*
X143908Y010989D02*
G03*
X143908Y010989I000059J0D01*
G01*
D14*
X154994Y027456D02*
G03*
X154994Y027456I000049J0D01*
G01*
X158107Y032498D02*
G03*
X158107Y032498I000049J0D01*
G01*
X138842Y034501D02*
G03*
X138842Y034501I000049J0D01*
G01*
D15*
X15497Y032387D02*
G03*
X15497Y030615I0J-000886D01*
G01*
Y031993D02*
G03*
X15497Y031009I0J-000492D01*
G01*
X155363Y036915D02*
G03*
X155481Y036796I000118J0D01*
G01*
X1493D02*
G03*
X149418Y036915I0J000118D01*
G01*
X155481Y030104D02*
G03*
X155363Y029985I0J-000118D01*
G01*
X149418D02*
G03*
X1493Y030104I-000118J0D01*
G01*
X153585Y046944D02*
X149185D01*
X149185Y040994D02*
X149185Y046944D01*
X152285Y040994D02*
X149185D01*
X152385Y040894D02*
X152285Y040994D01*
X152385Y040194D02*
Y040894D01*
X154285Y040194D02*
X152385D01*
X154335Y040244D02*
X154285Y040194D01*
X154335Y040244D02*
Y040994D01*
X154335Y046194D02*
X153585Y046944D01*
X154335Y040994D02*
X154335Y046194D01*
X154285Y046244D01*
X149485Y047344D02*
X149185D01*
X150135D02*
X149835D01*
X150735D02*
X150435D01*
X151435D02*
X151035D01*
X152135D02*
X151785D01*
X152785D02*
X152435D01*
X153385D02*
X153035D01*
X153785D02*
X153585D01*
X153985Y047144D02*
X153785Y047344D01*
X149185D02*
X149185Y047094D01*
X149585Y048144D02*
X149335Y048144D01*
X150285Y048144D02*
X149935Y048144D01*
X151235Y048144D02*
X150835Y048144D01*
X152185Y048144D02*
X151735Y048144D01*
X153035Y048144D02*
X152535Y048144D01*
X153735Y048144D02*
X153335Y048144D01*
X153985Y048144D02*
X153735Y048144D01*
X154285Y047844D02*
X153985Y048144D01*
X149185Y047344D02*
Y048144D01*
X149585Y048144D02*
X149185Y048144D01*
X137441Y02585D02*
X137441Y02145D01*
X145291Y02585D02*
X137441D01*
X145291Y0237D02*
Y02585D01*
Y02145D02*
Y0237D01*
X145241Y02145D02*
X137441D01*
X136291Y032733D02*
X136291Y037133D01*
X144141D02*
X136291D01*
X144141Y034983D02*
Y037133D01*
Y032733D02*
Y034983D01*
X144091Y032733D02*
X136291Y032733D01*
X14521Y0299D02*
X1449D01*
X155221Y01439D02*
X154771D01*
X154211D02*
X153761D01*
Y01661D01*
X155221Y01439D02*
Y01661D01*
X154741Y015D02*
Y016D01*
X154241D01*
Y015D02*
Y016D01*
X154741Y015D02*
X154241D01*
X155221Y01661D02*
X154771D01*
X154211D02*
X153761D01*
X15497Y031993D02*
Y032387D01*
Y030615D02*
Y031009D01*
X1493Y030104D02*
Y030832D01*
X155481Y030104D02*
Y030832D01*
Y036068D02*
Y036796D01*
X155363Y036915D02*
X154359Y036915D01*
X150422D02*
X149418Y036915D01*
X1493Y036068D02*
Y036796D01*
X155363Y029985D02*
X154359Y029985D01*
X150422D02*
X149418Y029985D01*
X14564Y034058D02*
X138553D01*
X14564D02*
Y038782D01*
X138553D01*
Y034058D02*
Y038782D01*
X146386Y01365D02*
X145986D01*
Y01425D01*
X146386D01*
X145986Y01395D02*
X146186D01*
X146986Y01375D02*
X146886Y01365D01*
X146686D01*
X146586Y01375D01*
Y01385D01*
X146686Y01395D01*
X146886D01*
X146986Y01405D01*
Y01415D01*
X146886Y01425D01*
X146686D01*
X146586Y01415D01*
X147186Y01425D02*
Y01365D01*
X147486D01*
X147586Y01375D01*
Y01395D01*
X147486Y01405D01*
X147186D01*
X147786Y01395D02*
X148186D01*
X148386Y01375D02*
X148486Y01365D01*
X148686D01*
X148785Y01375D01*
Y01415D01*
X148686Y01425D01*
X148486D01*
X148386Y01415D01*
Y01375D01*
X148985Y01365D02*
X149385D01*
Y01375D01*
X148985Y01415D01*
Y01425D01*
X158381Y05102D02*
X158481Y05112D01*
X158681D01*
X158781Y05102D01*
Y05062D01*
X158681Y05052D01*
X158481D01*
X158381Y05062D01*
X158181D02*
X158081Y05052D01*
X157881D01*
X157781Y05062D01*
Y05102D01*
X157881Y05112D01*
X158081D01*
X158181Y05102D01*
Y05092D01*
X158081Y05082D01*
X157781D01*
X157181Y05112D02*
X157381Y05102D01*
X157581Y05082D01*
Y05062D01*
X157481Y05052D01*
X157281D01*
X157181Y05062D01*
Y05072D01*
X157281Y05082D01*
X157581D01*
X151312Y027696D02*
X151412Y027796D01*
Y027996D01*
X151312Y028096D01*
X150912D01*
X150812Y027996D01*
Y027796D01*
X150912Y027696D01*
X151312D01*
X150812Y028296D02*
X151412D01*
Y028596D01*
X151312Y028696D01*
X151112D01*
X151012Y028596D01*
Y028296D01*
Y028496D02*
X150812Y028696D01*
X150441Y025294D02*
X150641D01*
X150541D01*
Y024794D01*
X150641Y024694D01*
X150741D01*
X150841Y024794D01*
X150241Y025194D02*
X150141Y025294D01*
X149941D01*
X149841Y025194D01*
Y025094D01*
X150041Y024894D01*
Y024794D02*
Y024694D01*
X146241Y038233D02*
Y037633D01*
X145941D01*
X145841Y037733D01*
Y038133D01*
X145941Y038233D01*
X146241D01*
X145241Y038133D02*
X145341Y038233D01*
X145541D01*
X145641Y038133D01*
Y037733D01*
X145541Y037633D01*
X145341D01*
X145241Y037733D01*
X144641Y037633D02*
X145041D01*
X144641Y038033D01*
Y038133D01*
X144741Y038233D01*
X144941D01*
X145041Y038133D01*
X144041Y01445D02*
X143841D01*
X143941D01*
Y01505D01*
X144041Y01495D01*
X143541D02*
X143441Y01505D01*
X143241D01*
X143141Y01495D01*
Y01455D01*
X143241Y01445D01*
X143441D01*
X143541Y01455D01*
Y01495D01*
X142941Y01445D02*
Y01505D01*
Y01465D02*
X142641Y01485D01*
X142941Y01465D02*
X142641Y01445D01*
X142191Y0086D02*
Y0088D01*
Y0087D01*
X142791D01*
X142691Y0086D01*
Y0091D02*
X142791Y0092D01*
Y0094D01*
X142691Y0095D01*
X142291D01*
X142191Y0094D01*
Y0092D01*
X142291Y0091D01*
X142691D01*
X142191Y0097D02*
X142791D01*
X142391D02*
X142591Y01D01*
X142391Y0097D02*
X142191Y01D01*
X139166Y0131D02*
Y0125D01*
Y0128D01*
X138766D01*
Y0131D01*
Y0125D01*
X138566Y0131D02*
Y0125D01*
X138266D01*
X138166Y0126D01*
Y013D01*
X138266Y0131D01*
X138566D01*
X137966Y013D02*
X137866Y0131D01*
X137666D01*
X137566Y013D01*
Y0129D01*
X137766Y0127D01*
Y0126D02*
Y0125D01*
X157491Y0202D02*
Y0204D01*
Y0203D01*
X158091D01*
X157991Y0202D01*
X158091Y0207D02*
X157491D01*
X157691D01*
X158091Y0211D01*
X157791Y0208D01*
X157491Y0211D01*
X146091Y020802D02*
X145891D01*
X145991D01*
Y021402D01*
X146091Y021302D01*
X145591D02*
X145491Y021402D01*
X145291D01*
X145191Y021302D01*
Y020902D01*
X145291Y020802D01*
X145491D01*
X145591Y020902D01*
Y021302D01*
X144991Y021202D02*
Y020902D01*
X144891Y020802D01*
X144591D01*
Y021202D01*
X143992Y021402D02*
X144391D01*
Y021102D01*
X144191D01*
X144391D01*
Y020802D01*
X143041Y01065D02*
X142841D01*
X142941D01*
Y01125D01*
X143041Y01115D01*
X142541D02*
X142441Y01125D01*
X142241D01*
X142141Y01115D01*
Y01075D01*
X142241Y01065D01*
X142441D01*
X142541Y01075D01*
Y01115D01*
X141941D02*
X141841Y01125D01*
X141641D01*
X141541Y01115D01*
Y01075D01*
X141641Y01065D01*
X141841D01*
X141941Y01075D01*
Y01115D01*
X141341Y01065D02*
Y01105D01*
X141042D01*
X140942Y01095D01*
Y01065D01*
X140342Y01125D02*
X140742D01*
Y01095D01*
X140542D01*
X140742D01*
Y01065D01*
X147315Y0284D02*
X147715D01*
X147315Y0288D01*
Y0289D01*
X147415Y029D01*
X147615D01*
X147715Y0289D01*
X146716Y0284D02*
X147115D01*
X146716Y0288D01*
Y0289D01*
X146816Y029D01*
X147015D01*
X147115Y0289D01*
X146516D02*
X146416Y029D01*
X146216D01*
X146116Y0289D01*
Y0285D01*
X146216Y0284D01*
X146416D01*
X146516Y0285D01*
Y0289D01*
X145916D02*
X145816Y029D01*
X145616D01*
X145516Y0289D01*
Y0285D01*
X145616Y0284D01*
X145816D01*
X145916Y0285D01*
Y0289D01*
X145316Y0288D02*
Y0285D01*
X145216Y0284D01*
X144916D01*
Y0288D01*
X144316Y029D02*
X144716D01*
Y0287D01*
X144516D01*
X144716D01*
Y0284D01*
X154191Y02165D02*
X154591D01*
Y02135D01*
X154391Y02145D01*
X154291D01*
X154191Y02135D01*
Y02115D01*
X154291Y02105D01*
X154491D01*
X154591Y02115D01*
X153991Y02165D02*
Y02105D01*
Y02125D01*
X153591Y02165D01*
X153891Y02135D01*
X153591Y02105D01*
X152991Y02165D02*
X153191Y02155D01*
X153391Y02135D01*
Y02115D01*
X153291Y02105D01*
X153091D01*
X152991Y02115D01*
Y02125D01*
X153091Y02135D01*
X153391D01*
X146925Y020844D02*
Y021044D01*
Y020944D01*
X147524D01*
X147424Y020844D01*
X147524Y021344D02*
X146925D01*
X147125D01*
X147524Y021743D01*
X147225Y021444D01*
X146925Y021743D01*
X148091Y020834D02*
Y021034D01*
Y020934D01*
X148691D01*
X148591Y020834D01*
X148691Y021334D02*
X148091D01*
X148291D01*
X148691Y021734D01*
X148391Y021434D01*
X148091Y021734D01*
X152314Y018629D02*
X152214Y018729D01*
Y018929D01*
X152314Y019029D01*
X152714D01*
X152814Y018929D01*
Y018729D01*
X152714Y018629D01*
Y018429D02*
X152814Y018329D01*
Y018129D01*
X152714Y018029D01*
X152314D01*
X152214Y018129D01*
Y018329D01*
X152314Y018429D01*
X152414D01*
X152514Y018329D01*
Y018029D01*
X156091Y0148D02*
X156191Y0147D01*
Y0145D01*
X156091Y0144D01*
X155691D01*
X155591Y0145D01*
Y0147D01*
X155691Y0148D01*
X156091Y015D02*
X156191Y0151D01*
Y0153D01*
X156091Y0154D01*
X155991D01*
X155891Y0153D01*
X155791Y0154D01*
X155691D01*
X155591Y0153D01*
Y0151D01*
X155691Y015D01*
X155791D01*
X155891Y0151D01*
X155991Y015D01*
X156091D01*
X155891Y0151D02*
Y0153D01*
X141821Y046068D02*
X141921Y046168D01*
X142121D01*
X14222Y046068D01*
Y045968D01*
X142121Y045868D01*
X141921D01*
X141821Y045768D01*
Y045668D01*
X141921Y045568D01*
X142121D01*
X14222Y045668D01*
X141621Y046168D02*
Y045568D01*
X141421Y045768D01*
X141221Y045568D01*
Y046168D01*
X141021Y045568D02*
X140821D01*
X140921D01*
Y046168D01*
X141021Y046068D01*
X153455Y0146D02*
X153555Y0145D01*
Y0143D01*
X153455Y0142D01*
X153355D01*
X153255Y0143D01*
Y0145D01*
X153155Y0146D01*
X153055D01*
X152955Y0145D01*
Y0143D01*
X153055Y0142D01*
X153555Y0148D02*
X152955D01*
X153155Y015D01*
X152955Y0152D01*
X153555D01*
X152955Y015799D02*
Y0154D01*
X153355Y015799D01*
X153455D01*
X153555Y0157D01*
Y0155D01*
X153455Y0154D01*
X143291Y01D02*
Y0102D01*
Y0101D01*
X143891D01*
X143791Y01D01*
Y0105D02*
X143891Y0106D01*
Y0108D01*
X143791Y0109D01*
X143391D01*
X143291Y0108D01*
Y0106D01*
X143391Y0105D01*
X143791D01*
X143291Y0111D02*
X143891D01*
X143491D02*
X143691Y0114D01*
X143491Y0111D02*
X143291Y0114D01*
X144938Y044218D02*
X144738D01*
X144838D01*
Y044818D01*
X144938Y044718D01*
X144438Y044818D02*
Y044218D01*
Y044418D01*
X144038Y044818D01*
X144338Y044518D01*
X144038Y044218D01*
X153111Y01253D02*
X152911D01*
X153011D01*
Y01313D01*
X153111Y01303D01*
X152611D02*
X152511Y01313D01*
X152311D01*
X152211Y01303D01*
Y01263D01*
X152311Y01253D01*
X152511D01*
X152611Y01263D01*
Y01303D01*
X152011Y01253D02*
Y01313D01*
Y01273D02*
X151711Y01293D01*
X152011Y01273D02*
X151711Y01253D01*
X153191Y0167D02*
X152991D01*
X153091D01*
Y0173D01*
X153191Y0172D01*
X152691D02*
X152591Y0173D01*
X152391D01*
X152291Y0172D01*
Y0168D01*
X152391Y0167D01*
X152591D01*
X152691Y0168D01*
Y0172D01*
X152091Y0167D02*
Y0173D01*
Y0169D02*
X151791Y0171D01*
X152091Y0169D02*
X151791Y0167D01*
X140441Y0183D02*
X140641Y0182D01*
X140841Y018D01*
Y0178D01*
X140741Y0177D01*
X140541D01*
X140441Y0178D01*
Y0179D01*
X140541Y018D01*
X140841D01*
X140241Y0182D02*
X140141Y0183D01*
X139941D01*
X139841Y0182D01*
Y0178D01*
X139941Y0177D01*
X140141D01*
X140241Y0178D01*
Y0182D01*
X139641D02*
X139541Y0183D01*
X139341D01*
X139241Y0182D01*
Y0178D01*
X139341Y0177D01*
X139541D01*
X139641Y0178D01*
Y0182D01*
X139041Y0177D02*
Y0183D01*
X138742D01*
X138642Y0182D01*
Y018D01*
X138742Y0179D01*
X139041D01*
X138842D02*
X138642Y0177D01*
X138142Y0179D02*
Y018D01*
X138242D01*
Y0179D01*
X138142D01*
X138042Y018D01*
Y0182D01*
X138142Y0183D01*
X138342D01*
X138442Y0182D01*
Y0178D01*
X138342Y0177D01*
X138042D01*
X137842D02*
X137642D01*
X137742D01*
Y0183D01*
X137842Y0182D01*
X137342D02*
X137242Y0183D01*
X137042D01*
X136942Y0182D01*
Y0178D01*
X137042Y0177D01*
X137242D01*
X137342Y0178D01*
Y0182D01*
X136742D02*
X136642Y0183D01*
X136442D01*
X136342Y0182D01*
Y0178D01*
X136442Y0177D01*
X136642D01*
X136742Y0178D01*
Y0182D01*
X136142Y0177D02*
Y0183D01*
X135942Y0181D01*
X135743Y0183D01*
Y0177D01*
X135543Y0183D02*
Y0177D01*
Y018D01*
X135443Y0181D01*
X135243D01*
X135143Y018D01*
Y0177D01*
X134943Y0181D02*
X134543D01*
X134943Y0177D01*
X134543D01*
X148441Y01592D02*
X148841D01*
Y01532D01*
X148441D01*
X148841Y01562D02*
X148641D01*
X147841Y01582D02*
X147941Y01592D01*
X148141D01*
X148241Y01582D01*
Y01572D01*
X148141Y01562D01*
X147941D01*
X147841Y01552D01*
Y01542D01*
X147941Y01532D01*
X148141D01*
X148241Y01542D01*
X147641Y01532D02*
Y01592D01*
X147341D01*
X147241Y01582D01*
Y01562D01*
X147341Y01552D01*
X147641D01*
X147041Y01532D02*
X146842D01*
X146941D01*
Y01592D01*
X147041Y01582D01*
X143541Y0182D02*
Y018357D01*
Y018279D01*
X144013D01*
X143934Y0182D01*
Y018594D02*
X144013Y018672D01*
Y01883D01*
X143934Y018908D01*
X14362D01*
X143541Y01883D01*
Y018672D01*
X14362Y018594D01*
X143934D01*
Y019066D02*
X144013Y019145D01*
Y019302D01*
X143934Y019381D01*
X14362D01*
X143541Y019302D01*
Y019145D01*
X14362Y019066D01*
X143934D01*
X143541Y019538D02*
X143856D01*
Y019774D01*
X143777Y019853D01*
X143541D01*
X144013Y020325D02*
Y02001D01*
X143777D01*
Y020168D01*
Y02001D01*
X143541D01*
X142291Y01825D02*
Y018407D01*
Y018329D01*
X142763D01*
X142684Y01825D01*
Y018644D02*
X142763Y018722D01*
Y01888D01*
X142684Y018958D01*
X14237D01*
X142291Y01888D01*
Y018722D01*
X14237Y018644D01*
X142684D01*
X142606Y019116D02*
X14237D01*
X142291Y019195D01*
Y019431D01*
X142606D01*
X142763Y019903D02*
Y019588D01*
X142527D01*
Y019746D01*
Y019588D01*
X142291D01*
X155771Y03821D02*
Y03771D01*
X155671Y03761D01*
X155471D01*
X155371Y03771D01*
Y03821D01*
X154771Y03761D02*
X155171D01*
X154771Y03801D01*
Y03811D01*
X154871Y03821D01*
X155071D01*
X155171Y03811D01*
X145591Y03973D02*
Y03923D01*
X145491Y03913D01*
X145291D01*
X145191Y03923D01*
Y03973D01*
X144991Y03913D02*
X144791D01*
X144891D01*
Y03973D01*
X144991Y03963D01*
X151757Y045764D02*
X151857Y045864D01*
X152057D01*
X152157Y045764D01*
Y045664D01*
X152057Y045564D01*
X151857D01*
X151757Y045465D01*
Y045365D01*
X151857Y045265D01*
X152057D01*
X152157Y045365D01*
X151457Y045265D02*
X151257D01*
X151157Y045365D01*
Y045564D01*
X151257Y045664D01*
X151457D01*
X151557Y045564D01*
Y045365D01*
X151457Y045265D01*
X150558Y045664D02*
X150857D01*
X150957Y045564D01*
Y045365D01*
X150857Y045265D01*
X150558D01*
X150358D02*
X150158D01*
X150258D01*
Y045864D01*
X150358Y045764D01*
X153391Y037915D02*
Y038115D01*
Y038015D01*
X153991D01*
X153891Y037915D01*
Y038415D02*
X153991Y038515D01*
Y038714D01*
X153891Y038814D01*
X153491D01*
X153391Y038714D01*
Y038515D01*
X153491Y038415D01*
X153891D01*
Y039014D02*
X153991Y039114D01*
Y039314D01*
X153891Y039414D01*
X153491D01*
X153391Y039314D01*
Y039114D01*
X153491Y039014D01*
X153891D01*
X153391Y039614D02*
X153991D01*
Y039914D01*
X153891Y040014D01*
X153691D01*
X153591Y039914D01*
Y039614D01*
Y039814D02*
X153391Y040014D01*
X137341Y03785D02*
Y03805D01*
Y03795D01*
X137941D01*
X137841Y03785D01*
X137941Y03835D02*
X137341D01*
X137541D01*
X137941Y03875D01*
X137641Y03845D01*
X137341Y03875D01*
X136391Y0382D02*
Y0378D01*
X136791Y0382D01*
X136891D01*
X136991Y0381D01*
Y0379D01*
X136891Y0378D01*
X136391Y0384D02*
X136491D01*
Y0385D01*
X136391D01*
Y0384D01*
Y0393D02*
Y0389D01*
X136791Y0393D01*
X136891D01*
X136991Y0392D01*
Y039D01*
X136891Y0389D01*
X136391Y039499D02*
X136991D01*
X136591D02*
X136791Y039799D01*
X136591Y039499D02*
X136391Y039799D01*
X142491Y02659D02*
X142291D01*
X142391D01*
Y02719D01*
X142491Y02709D01*
X141991D02*
X141891Y02719D01*
X141691D01*
X141591Y02709D01*
Y02669D01*
X141691Y02659D01*
X141891D01*
X141991Y02669D01*
Y02709D01*
X141391D02*
X141291Y02719D01*
X141091D01*
X140991Y02709D01*
Y02669D01*
X141091Y02659D01*
X141291D01*
X141391Y02669D01*
Y02709D01*
X140791Y02699D02*
Y02669D01*
X140691Y02659D01*
X140392D01*
Y02699D01*
X140192Y02719D02*
Y02659D01*
Y02689D01*
X139792D01*
Y02719D01*
Y02659D01*
X138331Y04904D02*
X138531D01*
X138431D01*
Y04854D01*
X138531Y04844D01*
X138631D01*
X138731Y04854D01*
X138131Y04904D02*
Y04844D01*
X137831D01*
X137731Y04854D01*
Y04894D01*
X137831Y04904D01*
X138131D01*
X137131Y04894D02*
X137231Y04904D01*
X137431D01*
X137531Y04894D01*
Y04854D01*
X137431Y04844D01*
X137231D01*
X137131Y04854D01*
X136931Y04844D02*
X136732D01*
X136831D01*
Y04904D01*
X136931Y04894D01*
X139891Y0229D02*
X139291D01*
Y0232D01*
X139391Y0233D01*
X139791D01*
X139891Y0232D01*
Y0229D01*
X139791Y0239D02*
X139891Y0238D01*
Y0236D01*
X139791Y0235D01*
X139391D01*
X139291Y0236D01*
Y0238D01*
X139391Y0239D01*
X139291Y0241D02*
Y0243D01*
Y0242D01*
X139891D01*
X139791Y0241D01*
X146691Y031389D02*
Y031988D01*
X146491Y031788D01*
X146291Y031988D01*
Y031389D01*
X146091Y031988D02*
Y031389D01*
X145791D01*
X145691Y031489D01*
Y031589D01*
X145791Y031688D01*
X146091D01*
X145791D01*
X145691Y031788D01*
Y031888D01*
X145791Y031988D01*
X146091D01*
X145491Y031389D02*
Y031988D01*
X145191D01*
X145091Y031888D01*
Y031688D01*
X145191Y031589D01*
X145491D01*
X145291D02*
X145091Y031389D01*
X144891Y031888D02*
X144791Y031988D01*
X144592D01*
X144492Y031888D01*
Y031788D01*
X144592Y031688D01*
X144692D01*
X144592D01*
X144492Y031589D01*
Y031489D01*
X144592Y031389D01*
X144791D01*
X144891Y031489D01*
X143992Y031389D02*
Y031988D01*
X144292Y031688D01*
X143892D01*
X143692Y031888D02*
X143592Y031988D01*
X143392D01*
X143292Y031888D01*
Y031489D01*
X143392Y031389D01*
X143592D01*
X143692Y031489D01*
Y031888D01*
X156838Y041562D02*
X156638D01*
X156738D01*
Y042161D01*
X156838Y042061D01*
X156338D02*
X156238Y042161D01*
X156038D01*
X155938Y042061D01*
Y041662D01*
X156038Y041562D01*
X156238D01*
X156338Y041662D01*
Y042061D01*
X155738D02*
X155638Y042161D01*
X155438D01*
X155338Y042061D01*
Y041662D01*
X155438Y041562D01*
X155638D01*
X155738Y041662D01*
Y042061D01*
X155138Y041562D02*
Y041961D01*
X154838D01*
X154738Y041862D01*
Y041562D01*
X154138Y042161D02*
X154538D01*
Y041862D01*
X154338D01*
X154538D01*
Y041562D01*
X157932Y037531D02*
X157732D01*
X157832D01*
Y038131D01*
X157932Y038031D01*
X157432D02*
X157332Y038131D01*
X157132D01*
X157033Y038031D01*
Y037631D01*
X157132Y037531D01*
X157332D01*
X157432Y037631D01*
Y038031D01*
X156833D02*
X156733Y038131D01*
X156533D01*
X156433Y038031D01*
Y037631D01*
X156533Y037531D01*
X156733D01*
X156833Y037631D01*
Y038031D01*
X156233Y037531D02*
Y037931D01*
X155933D01*
X155833Y037831D01*
Y037531D01*
X155233Y038131D02*
X155633D01*
Y037831D01*
X155433D01*
X155633D01*
Y037531D01*
X150973Y022378D02*
Y022578D01*
Y022478D01*
X151573D01*
X151473Y022378D01*
Y022878D02*
X151573Y022977D01*
Y023177D01*
X151473Y023277D01*
X151073D01*
X150973Y023177D01*
Y022977D01*
X151073Y022878D01*
X151473D01*
Y023477D02*
X151573Y023577D01*
Y023777D01*
X151473Y023877D01*
X151073D01*
X150973Y023777D01*
Y023577D01*
X151073Y023477D01*
X151473D01*
X150973Y024077D02*
X151373D01*
Y024377D01*
X151273Y024477D01*
X150973D01*
X151573Y025077D02*
Y024677D01*
X151273D01*
Y024877D01*
Y024677D01*
X150973D01*
X14872Y03875D02*
X14852D01*
X14862D01*
Y03935D01*
X14872Y03925D01*
X148221D02*
X148121Y03935D01*
X147921D01*
X147821Y03925D01*
Y03885D01*
X147921Y03875D01*
X148121D01*
X148221Y03885D01*
Y03925D01*
X147621D02*
X147521Y03935D01*
X147321D01*
X147221Y03925D01*
Y03885D01*
X147321Y03875D01*
X147521D01*
X147621Y03885D01*
Y03925D01*
X147021Y03875D02*
Y03915D01*
X146721D01*
X146621Y03905D01*
Y03875D01*
X146021Y03935D02*
X146421D01*
Y03905D01*
X146221D01*
X146421D01*
Y03875D01*
X156191Y02474D02*
X155991D01*
X156091D01*
Y02534D01*
X156191Y02524D01*
X155691D02*
X155591Y02534D01*
X155391D01*
X155291Y02524D01*
Y02484D01*
X155391Y02474D01*
X155591D01*
X155691Y02484D01*
Y02524D01*
X155091Y02514D02*
Y02484D01*
X154991Y02474D01*
X154691D01*
Y02514D01*
X154091Y02534D02*
X154491D01*
Y02504D01*
X154291D01*
X154491D01*
Y02474D01*
X156381Y027594D02*
X156181D01*
X156281D01*
Y028194D01*
X156381Y028094D01*
X155881D02*
X155781Y028194D01*
X155581D01*
X155481Y028094D01*
Y027694D01*
X155581Y027594D01*
X155781D01*
X155881Y027694D01*
Y028094D01*
X155281Y027994D02*
Y027694D01*
X155181Y027594D01*
X154881D01*
Y027994D01*
X154281Y028194D02*
X154681D01*
Y027894D01*
X154481D01*
X154681D01*
Y027594D01*
X156341Y028352D02*
X156141D01*
X156241D01*
Y028951D01*
X156341Y028851D01*
X155842D02*
X155742Y028951D01*
X155542D01*
X155442Y028851D01*
Y028452D01*
X155542Y028352D01*
X155742D01*
X155842Y028452D01*
Y028851D01*
X155242D02*
X155142Y028951D01*
X154942D01*
X154842Y028851D01*
Y028452D01*
X154942Y028352D01*
X155142D01*
X155242Y028452D01*
Y028851D01*
X154642Y028352D02*
Y028751D01*
X154342D01*
X154242Y028651D01*
Y028352D01*
X153642Y028951D02*
X154042D01*
Y028651D01*
X153842D01*
X154042D01*
Y028352D01*
X148341Y037862D02*
X148741D01*
X148341Y038262D01*
Y038362D01*
X148441Y038462D01*
X148641D01*
X148741Y038362D01*
X147741Y037862D02*
X148141D01*
X147741Y038262D01*
Y038362D01*
X147841Y038462D01*
X148041D01*
X148141Y038362D01*
X147541Y037862D02*
Y038462D01*
X147241D01*
X147141Y038362D01*
Y038162D01*
X147241Y038062D01*
X147541D01*
X140745Y021075D02*
X140844Y021175D01*
X141044D01*
X141144Y021075D01*
Y020675D01*
X141044Y020575D01*
X140844D01*
X140745Y020675D01*
X140545Y021075D02*
X140445Y021175D01*
X140245D01*
X140145Y021075D01*
Y020975D01*
X140245Y020875D01*
X140345D01*
X140245D01*
X140145Y020775D01*
Y020675D01*
X140245Y020575D01*
X140445D01*
X140545Y020675D01*
X136528Y0284D02*
X136628Y0285D01*
X136828D01*
X136928Y0284D01*
Y028D01*
X136828Y0279D01*
X136628D01*
X136528Y028D01*
X135929Y0279D02*
X136328D01*
X135929Y0283D01*
Y0284D01*
X136029Y0285D01*
X136229D01*
X136328Y0284D01*
X141391Y0402D02*
X141791D01*
X141391Y0406D01*
Y0407D01*
X141491Y0408D01*
X141691D01*
X141791Y0407D01*
X140791Y0402D02*
X141191D01*
X140791Y0406D01*
Y0407D01*
X140891Y0408D01*
X141091D01*
X141191Y0407D01*
X140591D02*
X140491Y0408D01*
X140291D01*
X140191Y0407D01*
Y0403D01*
X140291Y0402D01*
X140491D01*
X140591Y0403D01*
Y0407D01*
X139991D02*
X139891Y0408D01*
X139692D01*
X139592Y0407D01*
Y0403D01*
X139692Y0402D01*
X139891D01*
X139991Y0403D01*
Y0407D01*
X139392Y0406D02*
Y0403D01*
X139292Y0402D01*
X138992D01*
Y0406D01*
X138392Y0408D02*
X138792D01*
Y0405D01*
X138592D01*
X138792D01*
Y0402D01*
X15651Y04045D02*
X15641Y04055D01*
X15621D01*
X15611Y04045D01*
Y04005D01*
X15621Y03995D01*
X15641D01*
X15651Y04005D01*
Y04045D01*
X15591Y03995D02*
Y04055D01*
X15561D01*
X15551Y04045D01*
Y04025D01*
X15561Y04015D01*
X15591D01*
X15571D02*
X15551Y03995D01*
X147041Y044246D02*
X146841D01*
X146941D01*
Y044846D01*
X147041Y044746D01*
X146541Y044246D02*
Y044846D01*
Y044446D02*
X146241Y044646D01*
X146541Y044446D02*
X146241Y044246D01*
D16*
X156411Y0473D02*
Y0474D01*
X156311Y0475D01*
X158211Y0474D02*
X158111Y0473D01*
X158211Y04895D02*
Y049D01*
Y04935D02*
Y0494D01*
Y04975D02*
Y049833D01*
X156311Y04945D02*
Y0495D01*
X156311Y0491D02*
X156311Y04905D01*
X156311Y0479D02*
X156311Y04785D01*
X158211Y04775D02*
Y0478D01*
Y04815D02*
Y0482D01*
Y04855D02*
Y0486D01*
X156311Y04865D02*
X156311Y0487D01*
Y04825D02*
Y0483D01*
X158411Y0475D02*
X158211Y0474D01*
X158411Y0475D02*
X156111Y0476D01*
X156311Y04785D02*
X156111Y04775D01*
X158411Y04765D02*
X156111Y04775D01*
X158411Y0475D02*
Y04765D01*
X158211Y04775D01*
X156111Y0476D02*
Y04775D01*
X156311Y0475D02*
X156111Y0476D01*
X158411Y0479D02*
X158211Y0478D01*
X158411Y0479D02*
X156111Y048D01*
X156311Y04825D02*
X156111Y04815D01*
X158411Y04805D02*
X156111Y04815D01*
X158411Y0479D02*
Y04805D01*
X158211Y04815D01*
X156111Y048D02*
Y04815D01*
X156311Y0479D02*
X156111Y048D01*
X155961Y04675D02*
X155661Y04645D01*
X156311Y04675D02*
X155961D01*
X155711Y0465D02*
X155661Y04645D01*
Y04395D02*
Y04645D01*
X156011Y0436D02*
X155961Y04365D01*
X158511Y0436D02*
X156011D01*
X158861Y04395D02*
X158811Y0439D01*
X158861Y04395D02*
Y04445D01*
X155961Y04365D02*
X155661Y04395D01*
X158811Y0439D02*
X158511Y0436D01*
X158861Y0444D02*
Y04645D01*
X158561Y04675D01*
X158211D01*
X158111Y04715D02*
X156411D01*
X156677Y0502D02*
X156311Y049833D01*
X156411Y0472D02*
X156411Y0473D01*
X156411Y0472D02*
X156411Y04715D01*
X156311Y04705D01*
Y0466D02*
Y04705D01*
X156327Y046617D02*
X156311Y0466D01*
X158211Y049833D02*
X157794Y0502D01*
X158111Y0472D02*
Y0473D01*
Y04715D02*
Y0472D01*
X158211Y04705D02*
X158111Y04715D01*
X158211Y0466D02*
Y04705D01*
Y0466D02*
X158194Y046617D01*
X157794Y0502D02*
X156677D01*
X158411Y0483D02*
X158211Y0482D01*
X158411Y0483D02*
X156111Y0484D01*
X156311Y04865D02*
X156111Y04855D01*
X158411Y04845D02*
X156111Y04855D01*
X158411Y0483D02*
Y04845D01*
X158211Y04855D01*
X156111Y0484D02*
X156111Y04855D01*
X156311Y0483D02*
X156111Y0484D01*
X158411Y0487D02*
X158211Y0486D01*
X158411Y0487D02*
X156111Y0488D01*
X156311Y04905D02*
X156111Y04895D01*
X158411Y04885D02*
X156111Y04895D01*
X158411Y0487D02*
X158411Y04885D01*
X158211Y04895D01*
X156111Y0488D02*
Y04895D01*
X156311Y0487D02*
X156111Y0488D01*
X158411Y0491D02*
X158211Y049D01*
X158411Y0491D02*
X156111Y0492D01*
X156311Y04945D02*
X156111Y04935D01*
X158411Y04925D02*
X156111Y04935D01*
X158411Y0491D02*
Y04925D01*
X158211Y04935D01*
X156111Y0492D02*
X156111Y04935D01*
X156311Y0491D02*
X156111Y0492D01*
X158411Y0495D02*
X158211Y0494D01*
X158411Y0495D02*
X156111Y0496D01*
X156311Y04985D02*
X156111Y04975D01*
X158411Y04965D02*
X156111Y04975D01*
X158411Y0495D02*
Y04965D01*
X158211Y04975D01*
X156111Y0496D02*
Y04975D01*
X156311Y0495D02*
X156111Y0496D01*
X145411Y020104D02*
X145071D01*
X145411Y020604D02*
X145071D01*
X151693Y028176D02*
Y028516D01*
X152193Y028176D02*
Y028516D01*
X142891Y01723D02*
Y01757D01*
X142391Y01723D02*
Y01757D01*
X143391Y01723D02*
Y01757D01*
X143891Y01723D02*
Y01757D01*
X143533Y01362D02*
X143193Y01362D01*
X143533Y01412D02*
X143193Y01412D01*
X142411Y01195D02*
X142071D01*
X142411Y01145D02*
X142071D01*
X143791Y01198D02*
Y01232D01*
X143291Y01198D02*
Y01232D01*
X143641Y00908D02*
Y00942D01*
X143141D02*
X143141Y00908D01*
X156491Y02023D02*
Y02057D01*
X156991Y02023D02*
Y02057D01*
X152223Y023608D02*
Y023948D01*
X152723Y023608D02*
Y023948D01*
X153141Y03863D02*
Y03897D01*
X152641Y03863D02*
Y03897D01*
X157011Y0392D02*
X156671D01*
X157011Y0387D02*
X156671D01*
X157911Y041562D02*
X157571D01*
X157911Y042062D02*
X157571D01*
X157011Y04008D02*
Y04042D01*
X157511Y04008D02*
Y04042D01*
X142924Y042537D02*
X141527D01*
X142924Y043758D02*
X142924Y045096D01*
Y042537D02*
Y042774D01*
X141527Y042537D02*
X140129D01*
X142271Y04756D02*
X140771Y04756D01*
X140129Y043758D02*
Y045096D01*
X140129Y042537D02*
X140129Y042774D01*
X140771Y045096D02*
Y04756D01*
X142924Y045096D02*
X140129Y045096D01*
X142271Y045096D02*
Y04756D01*
X145541Y045925D02*
Y045975D01*
Y045925D02*
X144641D01*
Y045975D01*
X145541Y046575D02*
Y046625D01*
X144641D01*
Y046575D02*
Y046625D01*
X147554Y04595D02*
Y046D01*
Y04595D02*
X146654D01*
Y046D01*
X147554Y0466D02*
Y04665D01*
X146654D01*
Y0466D02*
Y04665D01*
X145225Y044598D02*
Y044938D01*
X145725Y044598D02*
Y044938D01*
X147341Y044576D02*
Y044916D01*
X147841Y044576D02*
Y044916D01*
X134091Y0099D02*
X134091Y0063D01*
X142391Y0099D02*
X134091Y0099D01*
X142391Y0063D02*
Y0099D01*
Y0063D02*
X134091Y0063D01*
X156491Y0182D02*
X156441D01*
Y0191D01*
X156491D02*
X156441D01*
X157141Y0182D02*
X157091D01*
X157141D02*
Y0191D01*
X157091D01*
X137441Y03668D02*
Y03702D01*
X137941Y03668D02*
Y03702D01*
X137041Y03668D02*
Y03702D01*
X136541Y03668D02*
Y03702D01*
X153461Y02524D02*
X153121D01*
X153461Y02474D02*
X153121Y02474D01*
X153511Y028094D02*
X153171D01*
X153511Y027594D02*
X153171D01*
X153511Y028852D02*
X153171D01*
X153511Y028352D02*
X153171D01*
X152711Y0165D02*
X152371D01*
X152711Y016D02*
X152371D01*
X148141Y019764D02*
X148141Y020104D01*
X148641Y019764D02*
X148641Y020104D01*
X147125Y019774D02*
Y020114D01*
X147625Y019774D02*
Y020114D01*
X154211Y02015D02*
X153871Y02015D01*
X154211Y02065D02*
X153871Y02065D01*
X149955Y0387D02*
X149615D01*
X149955Y0392D02*
X149615D01*
X149967Y0383D02*
X149627D01*
X149967Y0378D02*
X149627Y0378D01*
X152661Y01404D02*
X152321D01*
X152661Y01354D02*
X152321D01*
X151791Y03863D02*
Y03897D01*
X152291Y03863D02*
Y03897D01*
X150941Y03863D02*
Y03897D01*
X151441Y03863D02*
Y03897D01*
X137891Y03498D02*
Y03532D01*
X137391Y03498D02*
Y03532D01*
X136161Y03525D02*
X135821D01*
X136161Y03575D02*
X135821D01*
D17*
X141138Y017659D02*
Y018289D01*
Y016714D02*
Y017344D01*
X142044Y017659D02*
Y018289D01*
Y016714D02*
Y017344D01*
Y018289D02*
X141138D01*
X142044Y016714D02*
X141138D01*
X157291Y016848D02*
X156291D01*
Y012652D02*
Y016848D01*
X157291Y012652D02*
Y016848D01*
Y012652D02*
X156291D01*
X157291Y01375D02*
X156291D01*
X155041Y0175D02*
Y0195D01*
Y0175D02*
X153041D01*
Y0195D01*
X155041D02*
X153041D01*
X154041Y0185D02*
Y0195D01*
X155041Y0185D02*
X154041D01*
X154444Y024565D02*
X153538D01*
X154444Y02299D02*
X153538D01*
Y023935D02*
Y024565D01*
Y02299D02*
Y02362D01*
X154444Y023935D02*
Y024565D01*
Y02299D02*
Y02362D01*
X151795Y027436D02*
Y027456D01*
Y025644D02*
Y025664D01*
X154787Y025644D02*
X151795D01*
X154787Y027456D02*
X151795D01*
X154787Y025644D02*
Y025664D01*
Y027436D02*
Y027456D01*
X153881Y025644D02*
Y027456D01*
X158156Y035746D02*
X158137D01*
X156365D02*
X156345D01*
Y032754D02*
Y035746D01*
X158156Y032754D02*
Y035746D01*
X156365Y032754D02*
X156345D01*
X158156D02*
X158137D01*
X158156Y033659D02*
X156345D01*
X141151Y034331D02*
Y038498D01*
X144568D02*
X141151D01*
X144568Y034331D02*
Y038498D01*
Y034331D02*
X141151D01*
X144891D02*
X144568D01*
X145234Y034915D02*
X144891Y034331D01*
X145234Y034915D02*
Y037915D01*
X144891Y038498D01*
X144568D01*
X144401Y034498D02*
X141318D01*
X144401D02*
Y038331D01*
X141318D01*
Y034498D02*
Y038331D01*
Y034498D02*
X141151Y034331D01*
X141318Y038331D02*
X141151Y038498D01*
X144568D02*
X144401Y038331D01*
X144568Y034331D02*
X144401Y034498D01*
X142553Y027688D02*
X141293D01*
X139049D02*
X137829D01*
X142553Y032412D02*
X141333D01*
X139049D02*
X137829D01*
Y027688D02*
Y032412D01*
X142553Y027688D02*
Y032412D01*
D18*
X150391Y023288D02*
Y024278D01*
X151441Y023278D02*
Y024278D01*
Y023278D02*
X149441D01*
Y024278D01*
X151441D02*
X149441D01*
X140464Y034614D02*
X140394Y034684D01*
X140404Y034554D02*
X140334Y034624D01*
X138091Y0474D02*
X134791D01*
X138091Y04265D02*
Y0481D01*
X134791Y04265D02*
Y0481D01*
X138091Y04265D02*
X134791D01*
X138091Y0481D02*
X134791D01*
D19*
X154491Y0155D02*
D03*
D20*
X140791Y035062D02*
D03*
X140791Y035731D02*
D03*
X140791Y0364D02*
D03*
X140791Y037069D02*
D03*
Y037738D02*
D03*
M02*
