G04*
G04 #@! TF.GenerationSoftware,Altium Limited,Altium Designer,20.1.12 (249)*
G04*
G04 Layer_Physical_Order=2*
G04 Layer_Color=16711680*
%FSTAX24Y24*%
%MOIN*%
G70*
G04*
G04 #@! TF.SameCoordinates,6AE243D0-3920-4146-A994-36ACE33FB78E*
G04*
G04*
G04 #@! TF.FilePolarity,Positive*
G04*
G01*
G75*
%ADD62C,0.0800*%
%ADD82C,0.0197*%
%ADD83C,0.0197*%
%ADD87C,0.0820*%
%ADD88C,0.0720*%
%ADD89C,0.0591*%
%ADD90R,0.0591X0.0591*%
%ADD91R,0.0591X0.0591*%
%ADD92C,0.0787*%
%ADD93R,0.0598X0.0598*%
%ADD94C,0.0598*%
%ADD95C,0.0750*%
%ADD96O,0.0650X0.0750*%
%ADD97C,0.0700*%
%ADD98R,0.0700X0.0700*%
%ADD99R,0.1500X0.1500*%
%ADD100C,0.1500*%
%ADD101R,0.0500X0.0500*%
%ADD102C,0.0630*%
%ADD103R,0.0630X0.0630*%
%ADD104O,0.1000X0.1600*%
%ADD105O,0.1600X0.1000*%
%ADD106C,0.0500*%
G36*
X143884Y046062D02*
X143857Y046049D01*
X143821Y046037D01*
X143778Y046027D01*
X143726Y046018D01*
X1436Y046005D01*
X143442Y045999D01*
X143351Y045998D01*
Y045802D01*
X143442Y045801D01*
X143726Y045782D01*
X143778Y045773D01*
X143821Y045763D01*
X143857Y045751D01*
X143884Y045738D01*
X143904Y045723D01*
Y046077D01*
X143884Y046062D01*
D02*
G37*
G36*
X158373Y04675D02*
X15837Y0467D01*
X158394Y046697D01*
X158518Y046645D01*
X158625Y046564D01*
X158706Y046457D01*
X158758Y046333D01*
X158769Y04625D01*
X158261D01*
X157753D01*
X157764Y046333D01*
X157815Y046457D01*
X157897Y046564D01*
X158004Y046645D01*
X158128Y046697D01*
X158151Y0467D01*
X158148Y04675D01*
X156373D01*
X15637Y0467D01*
X156394Y046697D01*
X156518Y046645D01*
X156625Y046564D01*
X156706Y046457D01*
X156758Y046333D01*
X156769Y04625D01*
X156261D01*
X155753D01*
X155764Y046333D01*
X155815Y046457D01*
X155897Y046564D01*
X156004Y046645D01*
X156128Y046697D01*
X156151Y0467D01*
X156148Y04675D01*
X134091Y04675D01*
Y042399D01*
X134137Y04238D01*
X134649Y042892D01*
X134714Y042935D01*
X134791Y042951D01*
X135388D01*
X135409Y042989D01*
X135496Y043095D01*
X135602Y043182D01*
X135723Y043247D01*
X135854Y043287D01*
X135991Y0433D01*
X136591D01*
X136727Y043287D01*
X136859Y043247D01*
X13698Y043182D01*
X137086Y043095D01*
X137173Y042989D01*
X137238Y042868D01*
X137278Y042737D01*
X137291Y0426D01*
X137278Y042463D01*
X137238Y042332D01*
X137173Y042211D01*
X137144Y042175D01*
X137176Y042127D01*
X137192Y04205D01*
Y041092D01*
X137196D01*
Y040935D01*
X137246Y04091D01*
X137292Y040945D01*
X137388Y040985D01*
X137441Y040992D01*
Y0406D01*
Y040391D01*
X137282D01*
X137303Y040365D01*
X137322Y04033D01*
X137338Y040285D01*
X137353Y040233D01*
X137353Y040229D01*
X137292Y040255D01*
X137246Y04029D01*
X137196Y040265D01*
Y040108D01*
X136639D01*
X136624Y040102D01*
X136607Y040103D01*
X136591Y040099D01*
X136569Y040104D01*
X136546Y040104D01*
X136538Y040108D01*
X136211D01*
Y040149D01*
X135238Y040149D01*
X135238Y031567D01*
X135288Y031563D01*
X135292Y031587D01*
X135327Y031673D01*
X135383Y031746D01*
X135436Y031787D01*
X135434Y031648D01*
X135516Y031567D01*
Y031425D01*
X135434Y031344D01*
X135436Y031206D01*
X135383Y031246D01*
X135327Y03132D01*
X135292Y031405D01*
X135288Y031429D01*
X135238Y031425D01*
Y023886D01*
X135377Y023748D01*
X136893D01*
X1369Y023749D01*
X136905Y023748D01*
X136909Y023749D01*
X136928Y023748D01*
X137576D01*
X137592Y023795D01*
X137589Y023798D01*
X137527Y023878D01*
X138198D01*
Y023852D01*
X138232Y023878D01*
X138316D01*
Y023931D01*
X138362Y023954D01*
X1384Y023969D01*
X138372Y023901D01*
X138293Y023798D01*
X138239Y023756D01*
X138249Y023701D01*
X138301Y023661D01*
X138349Y023599D01*
X138361Y023568D01*
X138434Y02348D01*
X138489Y023377D01*
X138523Y023266D01*
X138534Y02315D01*
X138523Y023034D01*
X138489Y022923D01*
X138434Y02282D01*
X13836Y02273D01*
X138302Y022682D01*
Y022618D01*
X13836Y02257D01*
X138434Y02248D01*
X138489Y022377D01*
X138523Y022266D01*
X138534Y02215D01*
X138523Y022034D01*
X138489Y021923D01*
X138434Y02182D01*
X13836Y02173D01*
X138271Y021657D01*
X138168Y021602D01*
X138057Y021568D01*
X137941Y021557D01*
X137825Y021568D01*
X137714Y021602D01*
X137611Y021657D01*
X137521Y02173D01*
X137447Y02182D01*
X137393Y021923D01*
X137359Y022034D01*
X137347Y02215D01*
X137359Y022266D01*
X137393Y022377D01*
X137447Y02248D01*
X137521Y02257D01*
X137557Y022599D01*
X13754Y022649D01*
X134091Y022649D01*
X134091Y009D01*
X134977D01*
X134995Y009047D01*
X134964Y009073D01*
X134852Y009204D01*
X134762Y009351D01*
X134696Y00951D01*
X134656Y009678D01*
X134642Y00985D01*
X134643D01*
Y012186D01*
X134642D01*
X134658Y012389D01*
X134705Y012587D01*
X134783Y012776D01*
X13489Y012949D01*
X135022Y013105D01*
X135023Y013103D01*
X135137Y013218D01*
X135141Y01322D01*
X135225Y013324D01*
X13529Y013445D01*
X13533Y013577D01*
X135344Y01371D01*
X135343Y013714D01*
Y015502D01*
X135342D01*
X135358Y015705D01*
X135405Y015903D01*
X135483Y016091D01*
X13559Y016265D01*
X135722Y01642D01*
X135877Y016553D01*
X136051Y016659D01*
X136239Y016737D01*
X136438Y016785D01*
X136641Y016801D01*
Y016799D01*
X141185D01*
X14121Y016849D01*
X14117Y016901D01*
X141125Y017009D01*
X14111Y017126D01*
X141125Y017243D01*
X14117Y017351D01*
X141242Y017445D01*
X141335Y017516D01*
X141444Y017561D01*
X141561Y017577D01*
X141677Y017561D01*
X141767Y017524D01*
X141776Y017522D01*
X141819Y0175D01*
X14185Y017489D01*
X141879Y017482D01*
X141907Y01748D01*
X141936Y017482D01*
X141967Y017488D01*
X142001Y017499D01*
X142039Y017516D01*
X14208Y01754D01*
X142117Y017566D01*
X142156Y017598D01*
X142193Y017629D01*
X142227Y017664D01*
X143781Y019218D01*
X14378Y019219D01*
X143935Y019351D01*
X144109Y019458D01*
X144297Y019536D01*
X144496Y019583D01*
X144699Y019599D01*
Y019598D01*
X145203D01*
X145209Y019599D01*
X145297Y0196D01*
X145446Y019606D01*
X14556Y019617D01*
X145598Y019624D01*
X145627Y01963D01*
X14564Y019635D01*
X145643Y019637D01*
X145651Y019641D01*
X145716Y01969D01*
X145824Y019735D01*
X145941Y019751D01*
X146058Y019735D01*
X146166Y01969D01*
X146231Y019641D01*
X146239Y019637D01*
X146242Y019635D01*
X146255Y01963D01*
X146283Y019624D01*
X146318Y019618D01*
X146587Y0196D01*
X146672Y019599D01*
X146679Y019598D01*
X152027D01*
Y019598D01*
X15211Y019587D01*
X152178Y019559D01*
X152195Y019571D01*
X152202Y019578D01*
X152214Y019596D01*
X152183Y019671D01*
X152177Y019713D01*
X15287D01*
X152865Y019671D01*
X15283Y019586D01*
X152773Y019513D01*
X1527Y019457D01*
X152615Y019422D01*
X15259Y019418D01*
X152579Y019367D01*
X152605Y019351D01*
X15276Y019219D01*
X152892Y019064D01*
X152986Y01891D01*
X153034Y018927D01*
X153025Y019D01*
X153042Y019134D01*
X153094Y019258D01*
X153176Y019365D01*
X153283Y019447D01*
X153407Y019499D01*
X153541Y019516D01*
X153674Y019499D01*
X153799Y019447D01*
X153906Y019365D01*
X153979Y01927D01*
X154029Y019283D01*
Y019512D01*
X155053D01*
Y019314D01*
X155054Y019308D01*
X155054Y019295D01*
X155208Y019283D01*
X155406Y019236D01*
X155595Y019158D01*
X155768Y019051D01*
X155923Y018919D01*
X156056Y018764D01*
X156162Y01859D01*
X15624Y018401D01*
X156288Y018203D01*
X156304Y018D01*
X156303D01*
Y016498D01*
X156353Y016488D01*
X156358Y0165D01*
X156437Y016604D01*
X156541Y016683D01*
X156661Y016733D01*
X156791Y01675D01*
X15692Y016733D01*
X157041Y016683D01*
X157145Y016604D01*
X157224Y0165D01*
X157274Y016379D01*
X157291Y01625D01*
X157274Y016121D01*
X157224Y016D01*
X157145Y015896D01*
X157041Y015817D01*
X15692Y015767D01*
X156791Y01575D01*
X156661Y015767D01*
X156541Y015817D01*
X156437Y015896D01*
X156358Y016D01*
X156353Y016012D01*
X156303Y016002D01*
Y01464D01*
X156303D01*
X15631Y014605D01*
X15633Y014575D01*
X15636Y014555D01*
X156395Y014549D01*
X156437Y014604D01*
X156541Y014683D01*
X156661Y014733D01*
X156791Y01475D01*
X15692Y014733D01*
X157041Y014683D01*
X157145Y014604D01*
X157224Y0145D01*
X157274Y01438D01*
X157291Y01425D01*
X157274Y014121D01*
X157224Y014D01*
X157145Y013896D01*
X157041Y013817D01*
X156991Y013796D01*
X157001Y013746D01*
X157287D01*
Y012754D01*
X156295D01*
Y012915D01*
X156282Y012961D01*
X156281Y012961D01*
X156213Y012967D01*
X156014Y013014D01*
X155826Y013092D01*
X155652Y013199D01*
X155497Y013331D01*
X155365Y013486D01*
X155258Y01366D01*
X15518Y013849D01*
X155133Y014047D01*
X155117Y01425D01*
X155118D01*
Y0174D01*
X155118Y017401D01*
X155108Y017478D01*
X155078Y017551D01*
X15503Y017614D01*
X154978Y017653D01*
X154919Y017652D01*
X154906Y017635D01*
X154799Y017553D01*
X154674Y017501D01*
X154541Y017484D01*
X154407Y017501D01*
X154283Y017553D01*
X154176Y017635D01*
X154094Y017742D01*
X154068Y017804D01*
X154014D01*
X153988Y017742D01*
X153906Y017635D01*
X153799Y017553D01*
X153674Y017501D01*
X153541Y017484D01*
X153407Y017501D01*
X153283Y017553D01*
X153189Y017625D01*
X153139Y017607D01*
Y01395D01*
X153138Y013943D01*
X153156Y013853D01*
X153185Y013809D01*
X153219Y013818D01*
X153246Y013827D01*
X153257Y013828D01*
X153274Y013835D01*
X153391Y013851D01*
X153508Y013835D01*
X153616Y01379D01*
X15371Y013719D01*
X153781Y013625D01*
X153826Y013517D01*
X153842Y0134D01*
X153826Y013283D01*
X153781Y013175D01*
X15371Y013081D01*
X153616Y01301D01*
X153508Y012965D01*
X153391Y012949D01*
X153378Y012951D01*
X153356Y012906D01*
X153734Y012528D01*
X153736Y012525D01*
X153839Y01244D01*
X153961Y012375D01*
X154093Y012335D01*
X154226Y012322D01*
X15423Y012323D01*
X157666D01*
X157668Y012322D01*
X157788Y012334D01*
X157906Y01237D01*
X158015Y012428D01*
X15811Y012506D01*
X158188Y012601D01*
X158246Y01271D01*
X158282Y012828D01*
X158293Y012948D01*
X158293Y01295D01*
Y019886D01*
X158294Y01989D01*
X15828Y020023D01*
X15824Y020155D01*
X158175Y020276D01*
X158091Y02038D01*
X158087Y020382D01*
X156808Y021662D01*
X156773Y021697D01*
X156736Y021728D01*
X156667Y021785D01*
X156546Y02185D01*
X156414Y02189D01*
X156301Y021901D01*
X156289Y021852D01*
X156316Y02184D01*
X15641Y021769D01*
X156481Y021675D01*
X156526Y021567D01*
X156542Y02145D01*
X156526Y021333D01*
X156481Y021225D01*
X15641Y021131D01*
X156316Y02106D01*
X156208Y021015D01*
X156091Y020999D01*
X155974Y021015D01*
X155866Y02106D01*
X155801Y021109D01*
X155793Y021113D01*
X15579Y021115D01*
X155777Y02112D01*
X155748Y021126D01*
X155713Y021132D01*
X155445Y02115D01*
X155359Y021151D01*
X155353Y021152D01*
X144305D01*
Y021151D01*
X144102Y021167D01*
X143904Y021214D01*
X143715Y021292D01*
X143541Y021399D01*
X143386Y021531D01*
X143387Y021532D01*
X140308Y024612D01*
X140273Y024647D01*
X140236Y024678D01*
X140167Y024735D01*
X140046Y0248D01*
X139914Y02484D01*
X139781Y024853D01*
X139777Y024852D01*
X139118D01*
X139112Y024851D01*
X138978Y024849D01*
X138861Y024844D01*
X138653Y024824D01*
X138572Y02481D01*
X138502Y024793D01*
X138446Y024775D01*
X138404Y024757D01*
X138376Y024741D01*
X138347Y024717D01*
X138338Y024712D01*
X138271Y024657D01*
X138211Y024625D01*
X138209Y024621D01*
X138209Y024567D01*
X138293Y024502D01*
X138337Y024445D01*
X138202D01*
X138198Y024448D01*
Y024445D01*
X137701D01*
X137704Y024464D01*
X137679Y024452D01*
X137656Y024445D01*
X137545D01*
X137589Y024502D01*
X137673Y024567D01*
X137672Y024621D01*
X13767Y024625D01*
X137611Y024657D01*
X137521Y02473D01*
X137447Y02482D01*
X137393Y024923D01*
X137359Y025034D01*
X137347Y02515D01*
X137359Y025266D01*
X137393Y025377D01*
X137447Y02548D01*
X137521Y02557D01*
X137611Y025643D01*
X137714Y025698D01*
X137825Y025732D01*
X137941Y025743D01*
X138057Y025732D01*
X138168Y025698D01*
X138271Y025643D01*
X138338Y025588D01*
X138347Y025583D01*
X138376Y025559D01*
X138404Y025543D01*
X138446Y025525D01*
X138502Y025507D01*
X138572Y02549D01*
X138651Y025477D01*
X138982Y025451D01*
X139112Y025449D01*
X139118Y025448D01*
X139777D01*
Y025449D01*
X13998Y025433D01*
X140178Y025386D01*
X140367Y025308D01*
X14054Y025201D01*
X140695Y025069D01*
X140695Y025069D01*
X14073Y025032D01*
X143809Y021953D01*
X143811Y02195D01*
X143914Y021865D01*
X144036Y0218D01*
X144168Y02176D01*
X144301Y021747D01*
X144305Y021748D01*
X155353D01*
X155359Y021749D01*
X155447Y02175D01*
X155596Y021756D01*
X15571Y021767D01*
X155748Y021774D01*
X155777Y02178D01*
X15579Y021785D01*
X155793Y021787D01*
X155801Y021791D01*
X155866Y02184D01*
X155894Y021852D01*
X155884Y021902D01*
X144955D01*
Y021901D01*
X144752Y021917D01*
X144554Y021964D01*
X144365Y022042D01*
X144191Y022149D01*
X144036Y022281D01*
X144037Y022282D01*
X139509Y026811D01*
X139472Y026845D01*
X139472Y026845D01*
X13934Y027001D01*
X139233Y027174D01*
X139192Y027275D01*
X139142Y027265D01*
Y02605D01*
X139126Y025973D01*
X139083Y025908D01*
X139018Y025865D01*
X138941Y025849D01*
X136991Y025849D01*
X136914Y025865D01*
X136849Y025908D01*
X136449Y026308D01*
X136405Y026373D01*
X13639Y02645D01*
X136405Y026527D01*
X136415Y026541D01*
Y029749D01*
X136365Y029774D01*
X13634Y029755D01*
X136244Y029715D01*
X136191Y029708D01*
Y0301D01*
Y030492D01*
X136244Y030485D01*
X13634Y030445D01*
X136386Y03041D01*
X136436Y030435D01*
Y030592D01*
X13644D01*
Y032027D01*
X136455Y032104D01*
X136499Y032169D01*
X13734Y03301D01*
Y033102D01*
X13729Y033114D01*
X137284Y033103D01*
X13721Y033013D01*
X137121Y03294D01*
X137018Y032885D01*
X136907Y032851D01*
X136791Y03284D01*
X136675Y032851D01*
X136564Y032885D01*
X136461Y03294D01*
X136371Y033013D01*
X136297Y033103D01*
X136243Y033206D01*
X136209Y033317D01*
X136197Y033433D01*
X136209Y033549D01*
X136243Y03366D01*
X136297Y033763D01*
X136371Y033853D01*
X13643Y033901D01*
Y033965D01*
X136371Y034013D01*
X136297Y034103D01*
X136243Y034206D01*
X136209Y034317D01*
X136197Y034433D01*
X136209Y034549D01*
X136243Y03466D01*
X136297Y034763D01*
X136371Y034853D01*
X136461Y034926D01*
X13652Y034958D01*
X136522Y034962D01*
X136523Y035016D01*
X136439Y035081D01*
X13636Y035184D01*
X13631Y035304D01*
X136299Y035383D01*
X136791D01*
Y035483D01*
X136299D01*
X13631Y035562D01*
X13636Y035682D01*
X136439Y035785D01*
X136523Y03585D01*
X136522Y035904D01*
X13652Y035908D01*
X136461Y03594D01*
X136371Y036013D01*
X136297Y036103D01*
X136243Y036206D01*
X136209Y036317D01*
X136197Y036433D01*
X136209Y036549D01*
X13624Y036652D01*
Y0371D01*
X136255Y037177D01*
X136299Y037242D01*
X136364Y037285D01*
X136431Y037299D01*
X136474Y037342D01*
X136474Y037342D01*
X136539Y037385D01*
X136616Y037401D01*
X136693Y037385D01*
X136745Y037351D01*
X138891D01*
X138968Y037335D01*
X139033Y037292D01*
X139043Y037282D01*
X139093Y037302D01*
Y044186D01*
X139092D01*
X139108Y044389D01*
X139155Y044587D01*
X139233Y044776D01*
X13934Y044949D01*
X139472Y045105D01*
X139473Y045103D01*
X139578Y045208D01*
X139554Y045255D01*
X139541Y045254D01*
Y04555D01*
X139837D01*
X139836Y045537D01*
X139883Y045513D01*
X140187Y045818D01*
X140186Y045819D01*
X140341Y045951D01*
X140515Y046058D01*
X140704Y046136D01*
X140902Y046183D01*
X141105Y046199D01*
Y046198D01*
X143343D01*
X143349Y046199D01*
X143437Y0462D01*
X143586Y046206D01*
X1437Y046217D01*
X143738Y046224D01*
X143766Y04623D01*
X14378Y046235D01*
X143783Y046237D01*
X14379Y046241D01*
X143855Y04629D01*
X143964Y046335D01*
X14408Y046351D01*
X144197Y046335D01*
X144306Y04629D01*
X144399Y046219D01*
X144471Y046125D01*
X144516Y046017D01*
X144531Y0459D01*
X144516Y045783D01*
X144471Y045675D01*
X144399Y045581D01*
X144306Y04551D01*
X144197Y045465D01*
X14408Y045449D01*
X143964Y045465D01*
X143855Y04551D01*
X14379Y045559D01*
X143783Y045563D01*
X14378Y045565D01*
X143766Y04557D01*
X143738Y045576D01*
X143703Y045582D01*
X143434Y0456D01*
X143349Y045601D01*
X143343Y045602D01*
X141105D01*
X141101Y045603D01*
X140968Y04559D01*
X140836Y04555D01*
X140714Y045485D01*
X140611Y0454D01*
X140609Y045397D01*
X139894Y044682D01*
X139891Y04468D01*
X139806Y044576D01*
X139741Y044455D01*
X139701Y044323D01*
X139688Y04419D01*
X139689Y044186D01*
Y043721D01*
X139739Y043701D01*
X139816Y043764D01*
X139919Y04382D01*
X140032Y043854D01*
X140149Y043865D01*
X140158Y043865D01*
X140182Y043908D01*
X140141Y043962D01*
X140084Y044101D01*
X140064Y04425D01*
X140084Y044399D01*
X140141Y044538D01*
X140233Y044658D01*
X140352Y04475D01*
X140492Y044807D01*
X140641Y044827D01*
X14079Y044807D01*
X140929Y04475D01*
X141049Y044658D01*
X14114Y044538D01*
X141198Y044399D01*
X141218Y04425D01*
X141205Y044156D01*
X141322Y043502D01*
X141322Y043499D01*
X141324Y043489D01*
X14134Y043286D01*
X141339D01*
Y027114D01*
X141338Y02711D01*
X141351Y026977D01*
X141391Y026845D01*
X141456Y026724D01*
X141541Y02662D01*
X141544Y026618D01*
X144759Y023403D01*
X144761Y0234D01*
X144864Y023315D01*
X144986Y02325D01*
X145118Y02321D01*
X145251Y023197D01*
X145255Y023198D01*
X149726D01*
X149736Y023248D01*
X149678Y023272D01*
X149569Y023356D01*
X149485Y023465D01*
X149432Y023591D01*
X149415Y023728D01*
Y023828D01*
X149432Y023964D01*
X149485Y024091D01*
X149569Y0242D01*
X149678Y024284D01*
X149805Y024336D01*
X149941Y024354D01*
X150077Y024336D01*
X150204Y024284D01*
X150313Y0242D01*
X150397Y024091D01*
X150421Y024033D01*
X150471D01*
X150495Y024091D01*
X150579Y0242D01*
X150688Y024284D01*
X150815Y024336D01*
X150951Y024354D01*
X151087Y024336D01*
X151214Y024284D01*
X151323Y0242D01*
X151407Y024091D01*
X151459Y023964D01*
X151477Y023828D01*
Y023728D01*
X151459Y023591D01*
X151407Y023465D01*
X151323Y023356D01*
X151214Y023272D01*
X151156Y023248D01*
X151166Y023198D01*
X156827D01*
Y023199D01*
X15703Y023183D01*
X157228Y023136D01*
X157417Y023058D01*
X15759Y022951D01*
X157745Y022819D01*
X157744Y022818D01*
X159109Y021453D01*
X15911Y021455D01*
X159242Y021299D01*
X159349Y021126D01*
X159427Y020937D01*
X159441Y020878D01*
X159491Y020884D01*
Y04675D01*
X158373D01*
D02*
G37*
G36*
X140485Y043909D02*
X140565Y043869D01*
X140637Y043826D01*
X140702Y04378D01*
X140759Y043731D01*
X140808Y043679D01*
X140849Y043624D01*
X140883Y043566D01*
X140909Y043505D01*
X140927Y043441D01*
X140938Y043374D01*
X141124Y043466D01*
X141002Y04415D01*
X140485Y043909D01*
D02*
G37*
G36*
X140647Y042933D02*
X140573Y042842D01*
X140482Y042767D01*
X140378Y042712D01*
X140266Y042678D01*
X140149Y042666D01*
X140032Y042678D01*
X139919Y042712D01*
X139816Y042767D01*
X139739Y04283D01*
X139689Y042811D01*
Y027764D01*
X139688Y02776D01*
X139701Y027627D01*
X139741Y027495D01*
X139806Y027374D01*
X139863Y027305D01*
X139894Y027268D01*
X139929Y027233D01*
X144459Y022703D01*
X144461Y0227D01*
X144564Y022615D01*
X144686Y02255D01*
X144818Y02251D01*
X144951Y022497D01*
X144955Y022498D01*
X156277D01*
Y022499D01*
X15648Y022483D01*
X156678Y022436D01*
X156867Y022358D01*
X15704Y022251D01*
X157195Y022119D01*
X157195Y022119D01*
X15723Y022082D01*
X158509Y020803D01*
X15851Y020805D01*
X158642Y020649D01*
X158749Y020476D01*
X158827Y020287D01*
X158843Y020219D01*
X158893Y020225D01*
Y020536D01*
X158894Y02054D01*
X15888Y020673D01*
X15884Y020805D01*
X158775Y020926D01*
X158691Y02103D01*
X158687Y021032D01*
X157323Y022397D01*
X157321Y0224D01*
X157217Y022485D01*
X157096Y02255D01*
X156964Y02259D01*
X156831Y022603D01*
X156827Y022602D01*
X145255D01*
Y022601D01*
X145052Y022617D01*
X144854Y022664D01*
X144665Y022742D01*
X144491Y022849D01*
X144336Y022981D01*
X144337Y022982D01*
X141123Y026197D01*
X141122Y026195D01*
X14099Y026351D01*
X140883Y026524D01*
X140805Y026713D01*
X140758Y026911D01*
X140742Y027114D01*
X140743D01*
Y043005D01*
X140693Y043018D01*
X140647Y042933D01*
D02*
G37*
G36*
X136516Y0371D02*
X136441D01*
Y0363D01*
X136641Y0361D01*
X137341D01*
X137541Y0359D01*
Y032927D01*
X136641Y032027D01*
Y03D01*
X136616Y0298D01*
Y026475D01*
X136591Y02645D01*
X136991Y02605D01*
X138941Y02605D01*
X138941Y0371D01*
X138891Y03715D01*
X136666D01*
X136616Y0372D01*
X136516Y0371D01*
D02*
G37*
G36*
X138219Y024871D02*
X13826Y024906D01*
X138312Y024936D01*
X138375Y024963D01*
X138448Y024987D01*
X138532Y025007D01*
X138626Y025023D01*
X138847Y025044D01*
X138973Y02505D01*
X139109Y025052D01*
Y025248D01*
X138973Y02525D01*
X138626Y025277D01*
X138532Y025293D01*
X138448Y025313D01*
X138375Y025337D01*
X138312Y025364D01*
X13826Y025394D01*
X138219Y025429D01*
Y024871D01*
D02*
G37*
G36*
X136191Y04275D02*
X134791D01*
X133991Y04195D01*
X133991Y02285D01*
X137941Y02285D01*
Y02325D01*
X137748Y023443D01*
X137765Y023502D01*
X136899Y023548D01*
X136857Y02345D01*
X135391D01*
X135038Y023803D01*
X135038Y04035D01*
X136541Y04035D01*
X136591Y0403D01*
X136991Y04055D01*
Y04205D01*
X136421Y04262D01*
X136391Y04295D01*
X136191Y04275D01*
D02*
G37*
G36*
X155895Y021612D02*
X155867Y021599D01*
X155831Y021587D01*
X155788Y021577D01*
X155737Y021568D01*
X15561Y021555D01*
X155452Y021549D01*
X155361Y021548D01*
Y021352D01*
X155452Y021351D01*
X155737Y021332D01*
X155788Y021323D01*
X155831Y021313D01*
X155867Y021301D01*
X155895Y021288D01*
X155914Y021273D01*
Y021627D01*
X155895Y021612D01*
D02*
G37*
G36*
X145745Y019462D02*
X145717Y019449D01*
X145681Y019437D01*
X145638Y019427D01*
X145587Y019418D01*
X14546Y019405D01*
X145302Y019399D01*
X145211Y019398D01*
Y019202D01*
X145302Y019201D01*
X145587Y019182D01*
X145638Y019173D01*
X145681Y019163D01*
X145717Y019151D01*
X145745Y019138D01*
X145764Y019123D01*
Y019477D01*
X145745Y019462D01*
D02*
G37*
G36*
X146118Y019123D02*
X146137Y019138D01*
X146165Y019151D01*
X1462Y019163D01*
X146244Y019173D01*
X146295Y019182D01*
X146422Y019195D01*
X14658Y019201D01*
X146671Y019202D01*
Y019398D01*
X14658Y019399D01*
X146295Y019418D01*
X146244Y019427D01*
X1462Y019437D01*
X146165Y019449D01*
X146137Y019462D01*
X146118Y019477D01*
Y019123D01*
D02*
G37*
G36*
X144562Y01899D02*
X14443Y01895D01*
X144308Y018885D01*
X144205Y0188D01*
X144202Y018797D01*
X144091Y018685D01*
X144119Y018642D01*
X144223Y018686D01*
X144422Y018733D01*
X144625Y018749D01*
Y018748D01*
X151291D01*
Y018749D01*
X151494Y018733D01*
X151692Y018686D01*
X151881Y018608D01*
X152055Y018501D01*
X15221Y018369D01*
X152342Y018214D01*
X152449Y01804D01*
X152493Y017932D01*
X152543Y017942D01*
Y0183D01*
X152544Y018304D01*
X15253Y018437D01*
X15249Y018569D01*
X152425Y018691D01*
X152338Y018797D01*
X152232Y018885D01*
X15211Y01895D01*
X151987Y018987D01*
X151987Y018987D01*
X151979Y018989D01*
X151972Y01899D01*
X151955Y018998D01*
X151941Y019002D01*
X146679D01*
X146672Y019001D01*
X146585Y019D01*
X146435Y018994D01*
X146322Y018983D01*
X146283Y018976D01*
X146255Y01897D01*
X146242Y018965D01*
X146239Y018963D01*
X146231Y018959D01*
X146166Y01891D01*
X146058Y018865D01*
X145941Y018849D01*
X145824Y018865D01*
X145716Y01891D01*
X145651Y018959D01*
X145643Y018963D01*
X14564Y018965D01*
X145627Y01897D01*
X145598Y018976D01*
X145563Y018982D01*
X145295Y019D01*
X145209Y019001D01*
X145203Y019002D01*
X144699D01*
X144695Y019003D01*
X144562Y01899D01*
D02*
G37*
G36*
X154853Y0187D02*
X154855Y018738D01*
X154859Y018772D01*
X154867Y018803D01*
X154878Y018829D01*
X154891Y018851D01*
X154908Y018869D01*
X154928Y018883D01*
X15495Y018894D01*
X154976Y0189D01*
X155005Y018902D01*
Y019098D01*
X154976Y0191D01*
X15495Y019107D01*
X154928Y019117D01*
X154908Y019131D01*
X154891Y019149D01*
X154878Y019171D01*
X154867Y019197D01*
X154859Y019228D01*
X154855Y019262D01*
X154853Y0193D01*
Y0187D01*
D02*
G37*
G36*
X154818Y017851D02*
X154826Y017863D01*
X154837Y017873D01*
X154849Y017881D01*
X154862Y017887D01*
X154878Y01789D01*
X154896Y017891D01*
X154915Y01789D01*
X154937Y017886D01*
X15496Y01788D01*
X154985Y017872D01*
X154987Y018077D01*
X154958Y018085D01*
X15487Y018114D01*
X154854Y018121D01*
X154842Y018127D01*
X154831Y018134D01*
X154824Y018141D01*
X154819Y018147D01*
X154818Y017851D01*
D02*
G37*
G36*
X155053Y018648D02*
Y018488D01*
X154824D01*
X154811Y018438D01*
X154906Y018365D01*
X154959Y018296D01*
X155015Y018277D01*
X155037Y018271D01*
X155051Y018265D01*
X155065Y018262D01*
X15507Y018258D01*
X15516Y018231D01*
X155316Y018148D01*
X155452Y018036D01*
X155564Y0179D01*
X155647Y017744D01*
X155657Y017712D01*
X155707Y017719D01*
Y018D01*
X155707Y018004D01*
X155694Y018137D01*
X155654Y018269D01*
X155589Y018391D01*
X155502Y018497D01*
X155395Y018585D01*
X155274Y01865D01*
X155142Y01869D01*
X1551Y018694D01*
X155053Y018648D01*
D02*
G37*
G36*
X142189Y017371D02*
X142131Y017337D01*
X142074Y017311D01*
X142017Y017293D01*
X141961Y017282D01*
X141905Y017279D01*
X141849Y017283D01*
X141794Y017296D01*
X14174Y017315D01*
X141685Y017343D01*
X141774Y016996D01*
X142263Y017185D01*
X142247Y017412D01*
X142189Y017371D01*
D02*
G37*
G36*
X142934Y016322D02*
X1429Y016286D01*
X1429Y016286D01*
X142849Y016243D01*
X142867Y016196D01*
X143991D01*
Y017313D01*
X143945Y017333D01*
X142934Y016322D01*
D02*
G37*
G36*
X151191Y017321D02*
Y015872D01*
X151241Y015847D01*
X151279Y015877D01*
X151281Y015879D01*
X151346Y016D01*
X151386Y016132D01*
X151399Y016265D01*
X151398Y016269D01*
Y0169D01*
X151399Y016904D01*
X151386Y017037D01*
X151346Y017169D01*
X151281Y017291D01*
X151241Y017339D01*
X151191Y017321D01*
D02*
G37*
G36*
X144655Y016248D02*
X144661Y016228D01*
X144662Y016206D01*
X144657Y016181D01*
X144646Y016153D01*
X144629Y016122D01*
X144606Y016088D01*
X144578Y016052D01*
X144543Y016013D01*
X144503Y015971D01*
X144642Y015832D01*
X144684Y015872D01*
X144759Y015935D01*
X144793Y015958D01*
X144824Y015975D01*
X144851Y015986D01*
X144877Y015991D01*
X144899Y01599D01*
X144919Y015984D01*
X144935Y015971D01*
X144642Y016264D01*
X144655Y016248D01*
D02*
G37*
G36*
X152192Y015989D02*
X152173Y015704D01*
X152164Y015653D01*
X152154Y015609D01*
X152142Y015574D01*
X152129Y015546D01*
X152114Y015527D01*
X152468D01*
X152453Y015546D01*
X15244Y015574D01*
X152428Y015609D01*
X152418Y015653D01*
X152409Y015704D01*
X152396Y015831D01*
X15239Y015989D01*
X152389Y01608D01*
X152192D01*
X152192Y015989D01*
D02*
G37*
G36*
X1367Y015789D02*
X136594Y015702D01*
X136506Y015595D01*
X136441Y015474D01*
X136401Y015342D01*
X136388Y015209D01*
X136389Y015205D01*
Y013205D01*
X13639D01*
X136375Y013024D01*
X136333Y012848D01*
X136264Y01268D01*
X136169Y012526D01*
X136083Y012425D01*
X136052Y012388D01*
X136051Y012388D01*
X136051Y012389D01*
X135969Y012307D01*
X135934Y012272D01*
X135903Y012235D01*
X135871Y012197D01*
X135895Y012147D01*
X136788D01*
Y011986D01*
X136835Y011969D01*
X136851Y01199D01*
X136965Y012078D01*
X137098Y012133D01*
X137241Y012152D01*
X137266Y012148D01*
X137303Y012181D01*
Y0152D01*
X137301D01*
X137308Y015269D01*
X13726Y015291D01*
X137182Y015259D01*
X137141Y015254D01*
Y0156D01*
X137091D01*
Y01565D01*
X136744D01*
X13675Y015691D01*
X136785Y015777D01*
X136787Y015779D01*
X136754Y015818D01*
X1367Y015789D01*
D02*
G37*
G36*
X14464Y01566D02*
X144634Y015635D01*
X144624Y015612D01*
X144611Y015593D01*
X144593Y015576D01*
X144571Y015562D01*
X144546Y015552D01*
X144516Y015544D01*
X144483Y01554D01*
X144445Y015538D01*
Y015342D01*
X144483Y01534D01*
X144516Y015336D01*
X144546Y015328D01*
X144571Y015318D01*
X144593Y015304D01*
X144611Y015287D01*
X144624Y015268D01*
X144634Y015245D01*
X14464Y01522D01*
X144642Y015191D01*
Y015689D01*
X14464Y01566D01*
D02*
G37*
G36*
X150601Y015191D02*
X150603Y015222D01*
X150609Y015249D01*
X150619Y015273D01*
X150633Y015294D01*
X150651Y015311D01*
X150672Y015326D01*
X150698Y015337D01*
X150727Y015345D01*
X150761Y01535D01*
X150798Y015352D01*
Y015548D01*
X150761Y01555D01*
X150727Y015554D01*
X150698Y015561D01*
X150672Y015571D01*
X150651Y015584D01*
X150633Y015599D01*
X150619Y015617D01*
X150609Y015638D01*
X150603Y015662D01*
X150601Y015689D01*
Y015191D01*
D02*
G37*
G36*
X151932Y015868D02*
X151854Y01568D01*
X15177Y015544D01*
X151747Y015506D01*
X151744Y015501D01*
X151714Y015467D01*
X151714Y015467D01*
X151585Y015357D01*
X151441Y015269D01*
X151285Y015204D01*
X151191Y015182D01*
Y014837D01*
X151259Y014821D01*
X151432Y014749D01*
X151592Y014651D01*
X151734Y01453D01*
X151733Y014529D01*
X15252Y013742D01*
X152563Y013768D01*
X152558Y013784D01*
X152542Y01395D01*
X152543D01*
Y014921D01*
X152493Y01495D01*
X152408Y014915D01*
X152291Y014899D01*
X152174Y014915D01*
X152066Y01496D01*
X151972Y015031D01*
X151901Y015125D01*
X151856Y015233D01*
X15184Y01535D01*
X151856Y015467D01*
X151901Y015575D01*
X15195Y01564D01*
X151954Y015648D01*
X151956Y015651D01*
X151961Y015664D01*
X151967Y015692D01*
X151973Y015728D01*
X151982Y015864D01*
X151933Y015871D01*
X151932Y015868D01*
D02*
G37*
G36*
X138203Y015597D02*
X138103Y015556D01*
X138018Y015491D01*
X137953Y015406D01*
X137912Y015306D01*
X137898Y015204D01*
X137899Y0152D01*
Y014535D01*
X137949Y014533D01*
X137958Y014643D01*
X138005Y014842D01*
X138083Y01503D01*
X13819Y015204D01*
X138322Y015359D01*
X138477Y015491D01*
X13859Y01556D01*
X138576Y01561D01*
X138309D01*
X138305Y015611D01*
X138203Y015597D01*
D02*
G37*
G36*
X150601Y014401D02*
X150603Y014416D01*
X150609Y01443D01*
X150619Y014442D01*
X150633Y014453D01*
X150651Y014461D01*
X150672Y014469D01*
X150698Y014474D01*
X150727Y014478D01*
X150761Y014481D01*
X150798Y014482D01*
Y014678D01*
X150761Y014681D01*
X150727Y014687D01*
X150698Y014698D01*
X150672Y014714D01*
X150651Y014734D01*
X150633Y014758D01*
X150619Y014786D01*
X150609Y014819D01*
X150603Y014857D01*
X150601Y014899D01*
Y014401D01*
D02*
G37*
G36*
X144641Y014788D02*
X144635Y014737D01*
X144625Y014693D01*
X144611Y014655D01*
X144593Y014622D01*
X144572Y014596D01*
X144546Y014575D01*
X144516Y01456D01*
X144483Y014551D01*
X144445Y014548D01*
Y014352D01*
X144642Y014391D01*
X144643Y014844D01*
X144641Y014788D01*
D02*
G37*
G36*
X14464Y01409D02*
X144634Y014065D01*
X144624Y014042D01*
X144611Y014023D01*
X144593Y014006D01*
X144571Y013992D01*
X144546Y013982D01*
X144516Y013974D01*
X144483Y01397D01*
X144445Y013968D01*
Y013772D01*
X144483Y01377D01*
X144516Y013766D01*
X144546Y013758D01*
X144571Y013748D01*
X144593Y013734D01*
X144611Y013717D01*
X144624Y013698D01*
X144634Y013675D01*
X14464Y01365D01*
X144642Y013621D01*
Y014119D01*
X14464Y01409D01*
D02*
G37*
G36*
X150601Y013611D02*
X150603Y013626D01*
X150609Y01364D01*
X150619Y013652D01*
X150633Y013663D01*
X150651Y013671D01*
X150672Y013679D01*
X150698Y013684D01*
X150727Y013688D01*
X150761Y013691D01*
X150798Y013692D01*
Y013888D01*
X150761Y013891D01*
X150727Y013897D01*
X150698Y013908D01*
X150672Y013924D01*
X150651Y013944D01*
X150633Y013968D01*
X150619Y013996D01*
X150609Y014029D01*
X150603Y014067D01*
X150601Y014109D01*
Y013611D01*
D02*
G37*
G36*
X155723Y014362D02*
X155714Y014358D01*
Y01425D01*
X155713Y014246D01*
X155726Y014113D01*
X155766Y013981D01*
X155831Y013859D01*
X155919Y013753D01*
X156025Y013665D01*
X156147Y0136D01*
X156245Y013571D01*
X156295Y013607D01*
Y013746D01*
X156581D01*
X15659Y013796D01*
X156541Y013817D01*
X156437Y013896D01*
X156395Y013951D01*
X15626Y013965D01*
X156131Y014004D01*
X156012Y014067D01*
X155908Y014153D01*
X155822Y014257D01*
X155764Y014367D01*
X155723Y014362D01*
D02*
G37*
G36*
X153276Y013625D02*
X15317Y013598D01*
X153151Y013595D01*
X153134Y013595D01*
X153121Y013596D01*
X15311Y013598D01*
X153102Y013603D01*
X153054Y013396D01*
X153067Y013388D01*
X15308Y013378D01*
X153093Y013367D01*
X153119Y013342D01*
X153132Y013328D01*
X153158Y013297D01*
X153183Y01326D01*
X153309Y013636D01*
X153276Y013625D01*
D02*
G37*
G36*
X156493Y013393D02*
X156491Y013384D01*
X156487Y013376D01*
X156482Y013368D01*
X156475Y013362D01*
X156466Y013357D01*
X156456Y013353D01*
X156444Y013351D01*
X156431Y013349D01*
X156416Y013348D01*
Y013152D01*
X156431Y013151D01*
X156444Y013149D01*
X156456Y013147D01*
X156466Y013143D01*
X156475Y013138D01*
X156482Y013132D01*
X156487Y013124D01*
X156491Y013116D01*
X156493Y013107D01*
X156494Y013096D01*
Y013404D01*
X156493Y013393D01*
D02*
G37*
G36*
X139104Y01513D02*
X138972Y01509D01*
X13885Y015025D01*
X138744Y014937D01*
X138656Y014831D01*
X138591Y014709D01*
X138551Y014577D01*
X138538Y014444D01*
X138539Y01444D01*
Y012646D01*
X13854Y012641D01*
X138546Y012411D01*
X138562Y012228D01*
X138574Y012157D01*
X138587Y012096D01*
X138602Y012048D01*
X138616Y012015D01*
X138626Y011996D01*
X138644Y011974D01*
X138646Y01197D01*
X138712Y011884D01*
X138741Y011879D01*
X138769Y011884D01*
X138835Y01197D01*
X138838Y011974D01*
X138855Y011996D01*
X138866Y012015D01*
X13888Y012048D01*
X138894Y012096D01*
X138908Y012157D01*
X138919Y012226D01*
X13894Y012521D01*
X138942Y012638D01*
X138943Y012644D01*
Y0135D01*
X138942D01*
X138957Y013695D01*
X139003Y013886D01*
X139078Y014067D01*
X13918Y014234D01*
X139308Y014383D01*
X139457Y014511D01*
X139624Y014613D01*
X139805Y014688D01*
X139995Y014734D01*
X140191Y014749D01*
Y014748D01*
X143991D01*
Y015142D01*
X139241D01*
X139237Y015143D01*
X139104Y01513D01*
D02*
G37*
G36*
X140063Y01414D02*
X139941Y014103D01*
X139828Y014043D01*
X139729Y013962D01*
X139648Y013863D01*
X139588Y01375D01*
X139551Y013627D01*
X139538Y013503D01*
X139539Y0135D01*
Y012646D01*
X13954Y012641D01*
X139546Y012411D01*
X139562Y012228D01*
X139574Y012157D01*
X139587Y012096D01*
X139602Y012048D01*
X139616Y012015D01*
X139626Y011996D01*
X139644Y011974D01*
X139646Y01197D01*
X139712Y011884D01*
X139741Y011879D01*
X139769Y011884D01*
X139835Y01197D01*
X139838Y011974D01*
X139855Y011996D01*
X139866Y012015D01*
X13988Y012048D01*
X139894Y012096D01*
X139908Y012157D01*
X139919Y012226D01*
X13994Y012521D01*
X139942Y012638D01*
X139943Y012644D01*
Y01287D01*
X139942D01*
X139958Y013073D01*
X140005Y013271D01*
X140083Y01346D01*
X14019Y013634D01*
X140322Y013789D01*
X140477Y013921D01*
X140651Y014028D01*
X140839Y014106D01*
X140834Y014152D01*
X140191D01*
X140188Y014153D01*
X140063Y01414D01*
D02*
G37*
G36*
X138141Y012513D02*
X138119Y012203D01*
X138105Y012119D01*
X138089Y012045D01*
X138069Y011981D01*
X138047Y011927D01*
X138022Y011882D01*
X137993Y011847D01*
X138489D01*
X13846Y011882D01*
X138435Y011927D01*
X138412Y011981D01*
X138393Y012045D01*
X138377Y012119D01*
X138363Y012203D01*
X138345Y0124D01*
X138339Y012636D01*
X138142D01*
X138141Y012513D01*
D02*
G37*
G36*
X140141Y012513D02*
X140119Y012203D01*
X140105Y012119D01*
X140089Y012045D01*
X140069Y011981D01*
X140047Y011927D01*
X140022Y011882D01*
X139993Y011847D01*
X140489D01*
X14046Y011882D01*
X140435Y011927D01*
X140412Y011981D01*
X140393Y012045D01*
X140377Y012119D01*
X140363Y012203D01*
X140345Y0124D01*
X140339Y012636D01*
X140142D01*
X140141Y012513D01*
D02*
G37*
G36*
X139141Y012513D02*
X139119Y012203D01*
X139105Y012119D01*
X139089Y012045D01*
X139069Y011981D01*
X139047Y011927D01*
X139022Y011882D01*
X138993Y011847D01*
X139489D01*
X13946Y011882D01*
X139435Y011927D01*
X139412Y011981D01*
X139393Y012045D01*
X139377Y012119D01*
X139363Y012203D01*
X139345Y0124D01*
X139339Y012636D01*
X139142D01*
X139141Y012513D01*
D02*
G37*
G36*
X137508Y012008D02*
X137466Y011972D01*
X137446Y011958D01*
X137427Y011947D01*
X137409Y011938D01*
X137392Y011933D01*
X137377Y01193D01*
X137362Y01193D01*
X137348Y011933D01*
X137574Y011708D01*
X137571Y011721D01*
X137571Y011736D01*
X137574Y011751D01*
X137579Y011768D01*
X137588Y011786D01*
X137599Y011805D01*
X137612Y011825D01*
X137629Y011846D01*
X137671Y011891D01*
X137531Y01203D01*
X137508Y012008D01*
D02*
G37*
G36*
X151191Y013391D02*
Y0109D01*
X159491D01*
Y012114D01*
X159441Y01212D01*
X159431Y012079D01*
X159359Y011906D01*
X159261Y011745D01*
X159139Y011602D01*
X158996Y01148D01*
X158835Y011382D01*
X158661Y01131D01*
X158478Y011266D01*
X158414Y011261D01*
X158397Y011258D01*
X158393Y011259D01*
X158291Y011251D01*
Y011252D01*
X154005D01*
Y011251D01*
X153802Y011267D01*
X153604Y011314D01*
X153415Y011392D01*
X153241Y011499D01*
X153086Y011631D01*
X153087Y011632D01*
X151433Y013287D01*
X151431Y01329D01*
X151327Y013375D01*
X151241Y013421D01*
X151191Y013391D01*
D02*
G37*
G36*
X138002Y010335D02*
X138032Y010288D01*
X138058Y010238D01*
X13808Y010184D01*
X138099Y010128D01*
X138115Y010068D01*
X138127Y010006D01*
X138136Y00994D01*
X138141Y009872D01*
X138142Y0098D01*
X138339D01*
X138341Y009872D01*
X138355Y010006D01*
X138367Y010068D01*
X138383Y010128D01*
X138402Y010184D01*
X138424Y010238D01*
X13845Y010288D01*
X13848Y010335D01*
X138513Y010379D01*
X137969D01*
X138002Y010335D01*
D02*
G37*
G36*
X13693Y010381D02*
X136948Y010258D01*
X136955Y010151D01*
X136951Y010057D01*
X136936Y009978D01*
X136909Y009913D01*
X136871Y009863D01*
X136822Y009827D01*
X136762Y009806D01*
X136691Y009798D01*
Y009602D01*
X137322Y01026D01*
X136901Y010517D01*
X13693Y010381D01*
D02*
G37*
G36*
X137712Y010316D02*
X137631Y01021D01*
X137529Y010131D01*
X137524Y010084D01*
X137476Y009925D01*
X137397Y009778D01*
X137291Y009649D01*
X137163Y009544D01*
X137016Y009465D01*
X136857Y009417D01*
X136739Y009405D01*
X136739Y009405D01*
X136696Y009401D01*
X136695Y009401D01*
X136691Y009401D01*
Y009401D01*
X136684Y009402D01*
X135749D01*
X135734Y009352D01*
X13574Y009348D01*
X135743Y009348D01*
X137491D01*
X137496Y009347D01*
X137608Y009362D01*
X137718Y009407D01*
X137812Y009479D01*
X137884Y009573D01*
X137929Y009683D01*
X137943Y009789D01*
X137942Y009795D01*
X13794Y009862D01*
X137936Y009919D01*
X137929Y009974D01*
X137919Y010024D01*
X137907Y01007D01*
X137892Y010113D01*
X137876Y010152D01*
X137857Y010189D01*
X137836Y010222D01*
X137808Y01026D01*
X137801Y010276D01*
X137769Y010316D01*
X137741Y010321D01*
X137712Y010316D01*
D02*
G37*
G36*
X141143Y013563D02*
X141104Y01356D01*
X140972Y01352D01*
X14085Y013455D01*
X140744Y013367D01*
X140656Y013261D01*
X140591Y013139D01*
X140551Y013007D01*
X140547Y012968D01*
X140538Y012874D01*
X140539Y01287D01*
Y012646D01*
X14054Y012641D01*
X140546Y012411D01*
X140562Y012228D01*
X140574Y012157D01*
X140587Y012096D01*
X140602Y012048D01*
X140616Y012015D01*
X140626Y011996D01*
X140644Y011974D01*
X140646Y01197D01*
X140719Y011876D01*
X140774Y011743D01*
X140792Y0116D01*
X140774Y011457D01*
X140719Y011324D01*
X140631Y01121D01*
X140517Y011122D01*
X140402Y011075D01*
X1404Y011021D01*
X140468Y010993D01*
X140562Y010921D01*
X140634Y010827D01*
X140679Y010717D01*
X140688Y01065D01*
X140241D01*
Y0106D01*
X140191D01*
Y010153D01*
X140123Y010162D01*
X140014Y010207D01*
X13992Y010279D01*
X139848Y010373D01*
X13982Y010441D01*
X139766Y010439D01*
X139719Y010324D01*
X139631Y01021D01*
X139517Y010122D01*
X139384Y010067D01*
X139241Y010048D01*
X139098Y010067D01*
X138965Y010122D01*
X138851Y01021D01*
X138769Y010316D01*
X138741Y010321D01*
X138712Y010316D01*
X138681Y010276D01*
X138674Y01026D01*
X138646Y010222D01*
X138625Y010189D01*
X138606Y010152D01*
X138589Y010113D01*
X138575Y01007D01*
X138563Y010024D01*
X138554Y009976D01*
X138541Y009859D01*
X13854Y009795D01*
X138538Y009789D01*
X138526Y009636D01*
X138488Y009476D01*
X138425Y009324D01*
X138339Y009184D01*
X138232Y009059D01*
X138219Y009047D01*
X138236Y009D01*
X143991Y009D01*
X143991Y013572D01*
X141241D01*
X141237Y013573D01*
X141143Y013563D01*
D02*
G37*
%LPC*%
G36*
X155753Y04615D02*
X156211D01*
Y045692D01*
X156128Y045703D01*
X156004Y045755D01*
X155897Y045836D01*
X155815Y045943D01*
X155764Y046067D01*
X155753Y04615D01*
D02*
G37*
G36*
X157753D02*
X158211D01*
Y045692D01*
X158128Y045703D01*
X158004Y045755D01*
X157897Y045836D01*
X157815Y045943D01*
X157764Y046067D01*
X157753Y04615D01*
D02*
G37*
G36*
X156311D02*
X156769D01*
X156758Y046067D01*
X156706Y045943D01*
X156625Y045836D01*
X156518Y045755D01*
X156394Y045703D01*
X156311Y045692D01*
Y04615D01*
D02*
G37*
G36*
X158311D02*
X158769D01*
X158758Y046067D01*
X158706Y045943D01*
X158625Y045836D01*
X158518Y045755D01*
X158394Y045703D01*
X158311Y045692D01*
Y04615D01*
D02*
G37*
G36*
X138241Y045946D02*
Y04565D01*
X137944D01*
X13795Y045691D01*
X137985Y045777D01*
X138041Y04585D01*
X138114Y045906D01*
X1382Y045941D01*
X138241Y045946D01*
D02*
G37*
G36*
X138341D02*
X138382Y045941D01*
X138467Y045906D01*
X13854Y04585D01*
X138597Y045777D01*
X138632Y045691D01*
X138637Y04565D01*
X138341D01*
Y045946D01*
D02*
G37*
G36*
X139441D02*
Y04565D01*
X139144D01*
X13915Y045691D01*
X139185Y045777D01*
X139241Y04585D01*
X139314Y045906D01*
X139399Y045941D01*
X139441Y045946D01*
D02*
G37*
G36*
X139541D02*
X139582Y045941D01*
X139667Y045906D01*
X13974Y04585D01*
X139797Y045777D01*
X139832Y045691D01*
X139837Y04565D01*
X139541D01*
Y045946D01*
D02*
G37*
G36*
X146641D02*
Y04565D01*
X146344D01*
X14635Y045691D01*
X146385Y045777D01*
X146441Y04585D01*
X146514Y045906D01*
X1466Y045941D01*
X146641Y045946D01*
D02*
G37*
G36*
X146741D02*
X146782Y045941D01*
X146867Y045906D01*
X14694Y04585D01*
X146997Y045777D01*
X147032Y045691D01*
X147037Y04565D01*
X146741D01*
Y045946D01*
D02*
G37*
G36*
X137944Y04555D02*
X138241D01*
Y045254D01*
X1382Y045259D01*
X138114Y045294D01*
X138041Y04535D01*
X137985Y045423D01*
X13795Y045509D01*
X137944Y04555D01*
D02*
G37*
G36*
X138341D02*
X138637D01*
X138632Y045509D01*
X138597Y045423D01*
X13854Y04535D01*
X138467Y045294D01*
X138382Y045259D01*
X138341Y045254D01*
Y04555D01*
D02*
G37*
G36*
X139144D02*
X139441D01*
Y045254D01*
X139399Y045259D01*
X139314Y045294D01*
X139241Y04535D01*
X139185Y045423D01*
X13915Y045509D01*
X139144Y04555D01*
D02*
G37*
G36*
X146344D02*
X146641D01*
Y045254D01*
X1466Y045259D01*
X146514Y045294D01*
X146441Y04535D01*
X146385Y045423D01*
X14635Y045509D01*
X146344Y04555D01*
D02*
G37*
G36*
X146741D02*
X147037D01*
X147032Y045509D01*
X146997Y045423D01*
X14694Y04535D01*
X146867Y045294D01*
X146782Y045259D01*
X146741Y045254D01*
Y04555D01*
D02*
G37*
G36*
X135991Y045703D02*
X136241D01*
Y04515D01*
X135393D01*
X1354Y045218D01*
X135434Y045331D01*
X13549Y045435D01*
X135565Y045526D01*
X135656Y045601D01*
X13576Y045657D01*
X135873Y045691D01*
X135991Y045703D01*
D02*
G37*
G36*
X136341D02*
X136591D01*
X136708Y045691D01*
X136822Y045657D01*
X136926Y045601D01*
X137017Y045526D01*
X137092Y045435D01*
X137148Y045331D01*
X137182Y045218D01*
X137189Y04515D01*
X136341D01*
Y045703D01*
D02*
G37*
G36*
X157261Y045762D02*
X157406Y045743D01*
X157542Y045686D01*
X157658Y045597D01*
X157747Y045481D01*
X157803Y045345D01*
X157822Y0452D01*
X157803Y045055D01*
X157747Y044919D01*
X157658Y044803D01*
X157542Y044714D01*
X157406Y044657D01*
X157261Y044638D01*
X157115Y044657D01*
X15698Y044714D01*
X156864Y044803D01*
X156774Y044919D01*
X156718Y045055D01*
X156699Y0452D01*
X156718Y045345D01*
X156774Y045481D01*
X156864Y045597D01*
X15698Y045686D01*
X157115Y045743D01*
X157261Y045762D01*
D02*
G37*
G36*
X135393Y04505D02*
X136241D01*
Y044497D01*
X135991D01*
X135873Y044509D01*
X13576Y044543D01*
X135656Y044599D01*
X135565Y044674D01*
X13549Y044765D01*
X135434Y044869D01*
X1354Y044982D01*
X135393Y04505D01*
D02*
G37*
G36*
X136341D02*
X137189D01*
X137182Y044982D01*
X137148Y044869D01*
X137111Y044801D01*
X137139Y044747D01*
X137182Y044741D01*
X137267Y044706D01*
X13734Y04465D01*
X137397Y044577D01*
X137432Y044491D01*
X137437Y04445D01*
X136744D01*
X136747Y044468D01*
X136712Y044505D01*
X136711Y044505D01*
X136704Y044508D01*
X136591Y044497D01*
X136341D01*
Y04505D01*
D02*
G37*
G36*
X146641Y044746D02*
Y04445D01*
X146344D01*
X14635Y044491D01*
X146385Y044577D01*
X146441Y04465D01*
X146514Y044706D01*
X1466Y044741D01*
X146641Y044746D01*
D02*
G37*
G36*
X146741D02*
X146782Y044741D01*
X146867Y044706D01*
X14694Y04465D01*
X146997Y044577D01*
X147032Y044491D01*
X147037Y04445D01*
X146741D01*
Y044746D01*
D02*
G37*
G36*
X153841D02*
Y04445D01*
X153544D01*
X15355Y044491D01*
X153585Y044577D01*
X153641Y04465D01*
X153714Y044706D01*
X153799Y044741D01*
X153841Y044746D01*
D02*
G37*
G36*
X153941D02*
X153982Y044741D01*
X154067Y044706D01*
X15414Y04465D01*
X154197Y044577D01*
X154232Y044491D01*
X154237Y04445D01*
X153941D01*
Y044746D01*
D02*
G37*
G36*
X155041D02*
Y04445D01*
X154744D01*
X15475Y044491D01*
X154785Y044577D01*
X154841Y04465D01*
X154914Y044706D01*
X155Y044741D01*
X155041Y044746D01*
D02*
G37*
G36*
X155141D02*
X155182Y044741D01*
X155267Y044706D01*
X15534Y04465D01*
X155397Y044577D01*
X155432Y044491D01*
X155437Y04445D01*
X155141D01*
Y044746D01*
D02*
G37*
G36*
X142363Y044723D02*
Y0443D01*
X14194D01*
X14195Y044374D01*
X141998Y04449D01*
X142074Y044589D01*
X142173Y044665D01*
X142289Y044713D01*
X142363Y044723D01*
D02*
G37*
G36*
X142463D02*
X142537Y044713D01*
X142652Y044665D01*
X142751Y044589D01*
X142827Y04449D01*
X142875Y044374D01*
X142885Y0443D01*
X142463D01*
Y044723D01*
D02*
G37*
G36*
X158211Y044708D02*
Y04425D01*
X157753D01*
X157764Y044333D01*
X157815Y044457D01*
X157897Y044564D01*
X158004Y044645D01*
X158128Y044697D01*
X158211Y044708D01*
D02*
G37*
G36*
X156211D02*
Y04425D01*
X155753D01*
X155764Y044333D01*
X155815Y044457D01*
X155897Y044564D01*
X156004Y044645D01*
X156128Y044697D01*
X156211Y044708D01*
D02*
G37*
G36*
X158311D02*
X158394Y044697D01*
X158518Y044645D01*
X158625Y044564D01*
X158706Y044457D01*
X158758Y044333D01*
X158769Y04425D01*
X158311D01*
Y044708D01*
D02*
G37*
G36*
X156311D02*
X156394Y044697D01*
X156518Y044645D01*
X156625Y044564D01*
X156706Y044457D01*
X156758Y044333D01*
X156769Y04425D01*
X156311D01*
Y044708D01*
D02*
G37*
G36*
X136744Y04435D02*
X137041D01*
Y044054D01*
X137Y044059D01*
X136914Y044094D01*
X136841Y04415D01*
X136785Y044223D01*
X13675Y044309D01*
X136744Y04435D01*
D02*
G37*
G36*
X137141D02*
X137437D01*
X137432Y044309D01*
X137397Y044223D01*
X13734Y04415D01*
X137267Y044094D01*
X137182Y044059D01*
X137141Y044054D01*
Y04435D01*
D02*
G37*
G36*
X146344D02*
X146641D01*
Y044054D01*
X1466Y044059D01*
X146514Y044094D01*
X146441Y04415D01*
X146385Y044223D01*
X14635Y044309D01*
X146344Y04435D01*
D02*
G37*
G36*
X146741D02*
X147037D01*
X147032Y044309D01*
X146997Y044223D01*
X14694Y04415D01*
X146867Y044094D01*
X146782Y044059D01*
X146741Y044054D01*
Y04435D01*
D02*
G37*
G36*
X153544D02*
X153841D01*
Y044054D01*
X153799Y044059D01*
X153714Y044094D01*
X153641Y04415D01*
X153585Y044223D01*
X15355Y044309D01*
X153544Y04435D01*
D02*
G37*
G36*
X153941D02*
X154237D01*
X154232Y044309D01*
X154197Y044223D01*
X15414Y04415D01*
X154067Y044094D01*
X153982Y044059D01*
X153941Y044054D01*
Y04435D01*
D02*
G37*
G36*
X154744D02*
X155041D01*
Y044054D01*
X155Y044059D01*
X154914Y044094D01*
X154841Y04415D01*
X154785Y044223D01*
X15475Y044309D01*
X154744Y04435D01*
D02*
G37*
G36*
X155141D02*
X155437D01*
X155432Y044309D01*
X155397Y044223D01*
X15534Y04415D01*
X155267Y044094D01*
X155182Y044059D01*
X155141Y044054D01*
Y04435D01*
D02*
G37*
G36*
X142463Y0442D02*
X142885D01*
X142875Y044126D01*
X142827Y04401D01*
X142751Y043911D01*
X142717Y043885D01*
X14274Y04384D01*
X142788Y043854D01*
X142905Y043865D01*
X143022Y043854D01*
X143134Y04382D01*
X143238Y043764D01*
X143329Y04369D01*
X143403Y043599D01*
X143459Y043495D01*
X143493Y043383D01*
X143504Y043266D01*
X143493Y043149D01*
X143459Y043036D01*
X143403Y042933D01*
X143329Y042842D01*
X143238Y042767D01*
X143134Y042712D01*
X143022Y042678D01*
X142905Y042666D01*
X142788Y042678D01*
X142675Y042712D01*
X142571Y042767D01*
X142481Y042842D01*
X142406Y042933D01*
X142351Y043036D01*
X142316Y043149D01*
X142305Y043266D01*
X142316Y043383D01*
X142351Y043495D01*
X142406Y043599D01*
X142481Y04369D01*
X142538Y043737D01*
X142517Y043785D01*
X142463Y043777D01*
Y0442D01*
D02*
G37*
G36*
X14194D02*
X142363D01*
Y043777D01*
X142289Y043787D01*
X142173Y043835D01*
X142074Y043911D01*
X141998Y04401D01*
X14195Y044126D01*
X14194Y0442D01*
D02*
G37*
G36*
X155753Y04415D02*
X156211D01*
Y043692D01*
X156128Y043703D01*
X156004Y043755D01*
X155897Y043836D01*
X155815Y043943D01*
X155764Y044067D01*
X155753Y04415D01*
D02*
G37*
G36*
X157753D02*
X158211D01*
Y043692D01*
X158128Y043703D01*
X158004Y043755D01*
X157897Y043836D01*
X157815Y043943D01*
X157764Y044067D01*
X157753Y04415D01*
D02*
G37*
G36*
X156311D02*
X156769D01*
X156758Y044067D01*
X156706Y043943D01*
X156625Y043836D01*
X156518Y043755D01*
X156394Y043703D01*
X156311Y043692D01*
Y04415D01*
D02*
G37*
G36*
X158311D02*
X158769D01*
X158758Y044067D01*
X158706Y043943D01*
X158625Y043836D01*
X158518Y043755D01*
X158394Y043703D01*
X158311Y043692D01*
Y04415D01*
D02*
G37*
G36*
X141841Y043546D02*
Y04325D01*
X141544D01*
X14155Y043291D01*
X141585Y043377D01*
X141641Y04345D01*
X141714Y043506D01*
X141799Y043541D01*
X141841Y043546D01*
D02*
G37*
G36*
X141941D02*
X141982Y043541D01*
X142067Y043506D01*
X14214Y04345D01*
X142197Y043377D01*
X142232Y043291D01*
X142237Y04325D01*
X141941D01*
Y043546D01*
D02*
G37*
G36*
X146641D02*
Y04325D01*
X146344D01*
X14635Y043291D01*
X146385Y043377D01*
X146441Y04345D01*
X146514Y043506D01*
X1466Y043541D01*
X146641Y043546D01*
D02*
G37*
G36*
X146741D02*
X146782Y043541D01*
X146867Y043506D01*
X14694Y04345D01*
X146997Y043377D01*
X147032Y043291D01*
X147037Y04325D01*
X146741D01*
Y043546D01*
D02*
G37*
G36*
X153841D02*
Y04325D01*
X153544D01*
X15355Y043291D01*
X153585Y043377D01*
X153641Y04345D01*
X153714Y043506D01*
X153799Y043541D01*
X153841Y043546D01*
D02*
G37*
G36*
X153941D02*
X153982Y043541D01*
X154067Y043506D01*
X15414Y04345D01*
X154197Y043377D01*
X154232Y043291D01*
X154237Y04325D01*
X153941D01*
Y043546D01*
D02*
G37*
G36*
X155041D02*
Y04325D01*
X154744D01*
X15475Y043291D01*
X154785Y043377D01*
X154841Y04345D01*
X154914Y043506D01*
X155Y043541D01*
X155041Y043546D01*
D02*
G37*
G36*
X155141D02*
X155182Y043541D01*
X155267Y043506D01*
X15534Y04345D01*
X155397Y043377D01*
X155432Y043291D01*
X155437Y04325D01*
X155141D01*
Y043546D01*
D02*
G37*
G36*
X156241D02*
Y04325D01*
X155944D01*
X15595Y043291D01*
X155985Y043377D01*
X156041Y04345D01*
X156114Y043506D01*
X1562Y043541D01*
X156241Y043546D01*
D02*
G37*
G36*
X156341D02*
X156382Y043541D01*
X156467Y043506D01*
X15654Y04345D01*
X156597Y043377D01*
X156632Y043291D01*
X156637Y04325D01*
X156341D01*
Y043546D01*
D02*
G37*
G36*
X158641D02*
Y04325D01*
X158344D01*
X15835Y043291D01*
X158385Y043377D01*
X158441Y04345D01*
X158514Y043506D01*
X1586Y043541D01*
X158641Y043546D01*
D02*
G37*
G36*
X158741D02*
X158782Y043541D01*
X158867Y043506D01*
X15894Y04345D01*
X158997Y043377D01*
X159032Y043291D01*
X159037Y04325D01*
X158741D01*
Y043546D01*
D02*
G37*
G36*
X141544Y04315D02*
X141841D01*
Y042854D01*
X141799Y042859D01*
X141714Y042894D01*
X141641Y04295D01*
X141585Y043023D01*
X14155Y043109D01*
X141544Y04315D01*
D02*
G37*
G36*
X141941D02*
X142237D01*
X142232Y043109D01*
X142197Y043023D01*
X14214Y04295D01*
X142067Y042894D01*
X141982Y042859D01*
X141941Y042854D01*
Y04315D01*
D02*
G37*
G36*
X146344D02*
X146641D01*
Y042854D01*
X1466Y042859D01*
X146514Y042894D01*
X146441Y04295D01*
X146385Y043023D01*
X14635Y043109D01*
X146344Y04315D01*
D02*
G37*
G36*
X146741D02*
X147037D01*
X147032Y043109D01*
X146997Y043023D01*
X14694Y04295D01*
X146867Y042894D01*
X146782Y042859D01*
X146741Y042854D01*
Y04315D01*
D02*
G37*
G36*
X153544D02*
X153841D01*
Y042854D01*
X153799Y042859D01*
X153714Y042894D01*
X153641Y04295D01*
X153585Y043023D01*
X15355Y043109D01*
X153544Y04315D01*
D02*
G37*
G36*
X153941D02*
X154237D01*
X154232Y043109D01*
X154197Y043023D01*
X15414Y04295D01*
X154067Y042894D01*
X153982Y042859D01*
X153941Y042854D01*
Y04315D01*
D02*
G37*
G36*
X154744D02*
X155041D01*
Y042854D01*
X155Y042859D01*
X154914Y042894D01*
X154841Y04295D01*
X154785Y043023D01*
X15475Y043109D01*
X154744Y04315D01*
D02*
G37*
G36*
X155141D02*
X155437D01*
X155432Y043109D01*
X155397Y043023D01*
X15534Y04295D01*
X155267Y042894D01*
X155182Y042859D01*
X155141Y042854D01*
Y04315D01*
D02*
G37*
G36*
X155944D02*
X156241D01*
Y042854D01*
X1562Y042859D01*
X156114Y042894D01*
X156041Y04295D01*
X155985Y043023D01*
X15595Y043109D01*
X155944Y04315D01*
D02*
G37*
G36*
X156341D02*
X156637D01*
X156632Y043109D01*
X156597Y043023D01*
X15654Y04295D01*
X156467Y042894D01*
X156382Y042859D01*
X156341Y042854D01*
Y04315D01*
D02*
G37*
G36*
X158344D02*
X158641D01*
Y042854D01*
X1586Y042859D01*
X158514Y042894D01*
X158441Y04295D01*
X158385Y043023D01*
X15835Y043109D01*
X158344Y04315D01*
D02*
G37*
G36*
X158741D02*
X159037D01*
X159032Y043109D01*
X158997Y043023D01*
X15894Y04295D01*
X158867Y042894D01*
X158782Y042859D01*
X158741Y042854D01*
Y04315D01*
D02*
G37*
G36*
X138291Y0446D02*
X138427Y044587D01*
X138559Y044547D01*
X13868Y044482D01*
X138786Y044395D01*
X138873Y044289D01*
X138938Y044168D01*
X138978Y044037D01*
X138991Y0439D01*
Y0433D01*
X138978Y043163D01*
X138938Y043032D01*
X138873Y042911D01*
X138786Y042805D01*
X13868Y042718D01*
X138559Y042653D01*
X138427Y042613D01*
X138291Y0426D01*
X138154Y042613D01*
X138023Y042653D01*
X137902Y042718D01*
X137796Y042805D01*
X137709Y042911D01*
X137644Y043032D01*
X137604Y043163D01*
X137591Y0433D01*
Y0439D01*
X137604Y044037D01*
X137644Y044168D01*
X137709Y044289D01*
X137796Y044395D01*
X137902Y044482D01*
X138023Y044547D01*
X138154Y044587D01*
X138291Y0446D01*
D02*
G37*
G36*
X138241Y042346D02*
Y04205D01*
X137944D01*
X13795Y042091D01*
X137985Y042177D01*
X138041Y04225D01*
X138114Y042306D01*
X1382Y042341D01*
X138241Y042346D01*
D02*
G37*
G36*
X138341D02*
X138382Y042341D01*
X138467Y042306D01*
X13854Y04225D01*
X138597Y042177D01*
X138632Y042091D01*
X138637Y04205D01*
X138341D01*
Y042346D01*
D02*
G37*
G36*
X141841D02*
Y04205D01*
X141544D01*
X14155Y042091D01*
X141585Y042177D01*
X141641Y04225D01*
X141714Y042306D01*
X141799Y042341D01*
X141841Y042346D01*
D02*
G37*
G36*
X141941D02*
X141982Y042341D01*
X142067Y042306D01*
X14214Y04225D01*
X142197Y042177D01*
X142232Y042091D01*
X142237Y04205D01*
X141941D01*
Y042346D01*
D02*
G37*
G36*
X143041D02*
Y04205D01*
X142744D01*
X14275Y042091D01*
X142785Y042177D01*
X142841Y04225D01*
X142914Y042306D01*
X142999Y042341D01*
X143041Y042346D01*
D02*
G37*
G36*
X143141D02*
X143182Y042341D01*
X143267Y042306D01*
X14334Y04225D01*
X143397Y042177D01*
X143432Y042091D01*
X143437Y04205D01*
X143141D01*
Y042346D01*
D02*
G37*
G36*
X144241D02*
Y04205D01*
X143944D01*
X14395Y042091D01*
X143985Y042177D01*
X144041Y04225D01*
X144114Y042306D01*
X144199Y042341D01*
X144241Y042346D01*
D02*
G37*
G36*
X144341D02*
X144382Y042341D01*
X144467Y042306D01*
X14454Y04225D01*
X144597Y042177D01*
X144632Y042091D01*
X144637Y04205D01*
X144341D01*
Y042346D01*
D02*
G37*
G36*
X153841D02*
Y04205D01*
X153544D01*
X15355Y042091D01*
X153585Y042177D01*
X153641Y04225D01*
X153714Y042306D01*
X153799Y042341D01*
X153841Y042346D01*
D02*
G37*
G36*
X153941D02*
X153982Y042341D01*
X154067Y042306D01*
X15414Y04225D01*
X154197Y042177D01*
X154232Y042091D01*
X154237Y04205D01*
X153941D01*
Y042346D01*
D02*
G37*
G36*
X156241D02*
Y04205D01*
X155944D01*
X15595Y042091D01*
X155985Y042177D01*
X156041Y04225D01*
X156114Y042306D01*
X1562Y042341D01*
X156241Y042346D01*
D02*
G37*
G36*
X156341D02*
X156382Y042341D01*
X156467Y042306D01*
X15654Y04225D01*
X156597Y042177D01*
X156632Y042091D01*
X156637Y04205D01*
X156341D01*
Y042346D01*
D02*
G37*
G36*
X158641D02*
Y04205D01*
X158344D01*
X15835Y042091D01*
X158385Y042177D01*
X158441Y04225D01*
X158514Y042306D01*
X1586Y042341D01*
X158641Y042346D01*
D02*
G37*
G36*
X158741D02*
X158782Y042341D01*
X158867Y042306D01*
X15894Y04225D01*
X158997Y042177D01*
X159032Y042091D01*
X159037Y04205D01*
X158741D01*
Y042346D01*
D02*
G37*
G36*
X137944Y04195D02*
X138241D01*
Y041654D01*
X1382Y041659D01*
X138114Y041694D01*
X138041Y04175D01*
X137985Y041823D01*
X13795Y041909D01*
X137944Y04195D01*
D02*
G37*
G36*
X138341D02*
X138637D01*
X138632Y041909D01*
X138597Y041823D01*
X13854Y04175D01*
X138467Y041694D01*
X138382Y041659D01*
X138341Y041654D01*
Y04195D01*
D02*
G37*
G36*
X141544D02*
X141841D01*
Y041654D01*
X141799Y041659D01*
X141714Y041694D01*
X141641Y04175D01*
X141585Y041823D01*
X14155Y041909D01*
X141544Y04195D01*
D02*
G37*
G36*
X141941D02*
X142237D01*
X142232Y041909D01*
X142197Y041823D01*
X14214Y04175D01*
X142067Y041694D01*
X141982Y041659D01*
X141941Y041654D01*
Y04195D01*
D02*
G37*
G36*
X142744D02*
X143041D01*
Y041654D01*
X142999Y041659D01*
X142914Y041694D01*
X142841Y04175D01*
X142785Y041823D01*
X14275Y041909D01*
X142744Y04195D01*
D02*
G37*
G36*
X143141D02*
X143437D01*
X143432Y041909D01*
X143397Y041823D01*
X14334Y04175D01*
X143267Y041694D01*
X143182Y041659D01*
X143141Y041654D01*
Y04195D01*
D02*
G37*
G36*
X143944D02*
X144241D01*
Y041654D01*
X144199Y041659D01*
X144114Y041694D01*
X144041Y04175D01*
X143985Y041823D01*
X14395Y041909D01*
X143944Y04195D01*
D02*
G37*
G36*
X144341D02*
X144637D01*
X144632Y041909D01*
X144597Y041823D01*
X14454Y04175D01*
X144467Y041694D01*
X144382Y041659D01*
X144341Y041654D01*
Y04195D01*
D02*
G37*
G36*
X153544D02*
X153841D01*
Y041654D01*
X153799Y041659D01*
X153714Y041694D01*
X153641Y04175D01*
X153585Y041823D01*
X15355Y041909D01*
X153544Y04195D01*
D02*
G37*
G36*
X153941D02*
X154237D01*
X154232Y041909D01*
X154197Y041823D01*
X15414Y04175D01*
X154067Y041694D01*
X153982Y041659D01*
X153941Y041654D01*
Y04195D01*
D02*
G37*
G36*
X155944D02*
X156241D01*
Y041654D01*
X1562Y041659D01*
X156114Y041694D01*
X156041Y04175D01*
X155985Y041823D01*
X15595Y041909D01*
X155944Y04195D01*
D02*
G37*
G36*
X156341D02*
X156637D01*
X156632Y041909D01*
X156597Y041823D01*
X15654Y04175D01*
X156467Y041694D01*
X156382Y041659D01*
X156341Y041654D01*
Y04195D01*
D02*
G37*
G36*
X158344D02*
X158641D01*
Y041654D01*
X1586Y041659D01*
X158514Y041694D01*
X158441Y04175D01*
X158385Y041823D01*
X15835Y041909D01*
X158344Y04195D01*
D02*
G37*
G36*
X158741D02*
X159037D01*
X159032Y041909D01*
X158997Y041823D01*
X15894Y04175D01*
X158867Y041694D01*
X158782Y041659D01*
X158741Y041654D01*
Y04195D01*
D02*
G37*
G36*
X145491Y043701D02*
X145608Y043685D01*
X145716Y04364D01*
X14581Y043569D01*
X145881Y043475D01*
X145926Y043367D01*
X145942Y04325D01*
X145926Y043133D01*
X145881Y043025D01*
X14586Y042998D01*
X145854Y042983D01*
X145839Y042962D01*
X145829Y042945D01*
X14582Y042928D01*
X145812Y042911D01*
X145806Y042892D01*
X1458Y042873D01*
X145796Y042853D01*
X145793Y042831D01*
X145791Y042808D01*
X14579Y042777D01*
X145789Y042774D01*
X145801Y042683D01*
X14584Y04259D01*
X145872Y042548D01*
X145901Y042511D01*
X147159Y041253D01*
X14716Y041255D01*
X147292Y041099D01*
X147399Y040926D01*
X147477Y040737D01*
X147496Y040657D01*
X147546Y040663D01*
Y042495D01*
X147545Y042501D01*
X147543Y042584D01*
X147535Y042726D01*
X147528Y042781D01*
X147519Y042828D01*
X14751Y042866D01*
X147501Y042893D01*
X147493Y042909D01*
X14749Y042914D01*
X147479Y042925D01*
X147479Y042926D01*
X147472Y042931D01*
X147401Y043025D01*
X147356Y043133D01*
X14734Y04325D01*
X147356Y043367D01*
X147401Y043475D01*
X147472Y043569D01*
X147566Y04364D01*
X147674Y043685D01*
X147791Y043701D01*
X147908Y043685D01*
X148016Y04364D01*
X14811Y043569D01*
X148181Y043475D01*
X148226Y043367D01*
X148242Y04325D01*
X148226Y043133D01*
X148181Y043025D01*
X148165Y043003D01*
X148143Y042638D01*
X148143Y04255D01*
X148141Y042544D01*
Y033158D01*
X148143Y033152D01*
X148146Y032902D01*
X148156Y032738D01*
X148159Y032711D01*
X148161Y032702D01*
X148181Y032675D01*
X148226Y032567D01*
X148242Y03245D01*
X148226Y032333D01*
X148181Y032225D01*
X14811Y032131D01*
X148016Y03206D01*
X147908Y032015D01*
X147791Y031999D01*
X147674Y032015D01*
X147589Y03205D01*
X147539Y032021D01*
Y026607D01*
X14754D01*
X147524Y026403D01*
X147499Y026297D01*
X147542Y026273D01*
X147729Y02646D01*
X147733Y026462D01*
X147817Y026566D01*
X147882Y026687D01*
X147922Y026819D01*
X147935Y026952D01*
X147935Y026956D01*
X14794Y026991D01*
Y028816D01*
X147938Y028821D01*
X147938Y028822D01*
X147938Y028823D01*
X147937Y028911D01*
X147931Y029059D01*
X14792Y029173D01*
X147913Y029211D01*
X147906Y029239D01*
X147901Y029252D01*
X147898Y029256D01*
X147895Y029264D01*
X147842Y029332D01*
X147797Y02944D01*
X147782Y029557D01*
X147797Y029674D01*
X147842Y029782D01*
X147914Y029876D01*
X148007Y029947D01*
X148116Y029992D01*
X148233Y030008D01*
X148349Y029992D01*
X148458Y029947D01*
X148551Y029876D01*
X148578Y029841D01*
X148641D01*
X148682Y029894D01*
X148775Y029966D01*
X148884Y030011D01*
X149001Y030026D01*
X149117Y030011D01*
X149226Y029966D01*
X149319Y029894D01*
X149391Y029801D01*
X149436Y029692D01*
X149451Y029575D01*
X149436Y029459D01*
X149391Y02935D01*
X149341Y029285D01*
X149337Y029277D01*
X149335Y029274D01*
X149331Y029261D01*
X149324Y029233D01*
X149318Y029198D01*
X1493Y028929D01*
X1493Y028844D01*
X149298Y028838D01*
Y026474D01*
X1493D01*
X149284Y026271D01*
X149236Y026072D01*
X149158Y025884D01*
X149052Y02571D01*
X148919Y025555D01*
X148919Y025555D01*
X148883Y02552D01*
X148806Y025426D01*
X148741Y025305D01*
X148701Y025173D01*
X148688Y02504D01*
X148689Y025036D01*
Y024588D01*
X14869Y024582D01*
X148691Y024494D01*
X148697Y024345D01*
X148708Y024231D01*
X148714Y024192D01*
X148721Y024164D01*
X148725Y024151D01*
X148728Y024148D01*
X148731Y02414D01*
X148781Y024075D01*
X148826Y023967D01*
X148842Y02385D01*
X148826Y023733D01*
X148781Y023625D01*
X14871Y023531D01*
X148616Y02346D01*
X148508Y023415D01*
X148391Y023399D01*
X148274Y023415D01*
X148166Y02346D01*
X148072Y023531D01*
X148001Y023625D01*
X147956Y023733D01*
X14794Y02385D01*
X147956Y023967D01*
X148001Y024075D01*
X14805Y02414D01*
X148054Y024148D01*
X148056Y024151D01*
X148061Y024164D01*
X148067Y024192D01*
X148073Y024228D01*
X148091Y024496D01*
X148092Y024582D01*
X148093Y024588D01*
Y025036D01*
X148092D01*
X148108Y025239D01*
X148155Y025437D01*
X148233Y025626D01*
X14834Y025799D01*
X148472Y025955D01*
X148472Y025955D01*
X148508Y025989D01*
X148585Y026083D01*
X14865Y026205D01*
X14869Y026337D01*
X148703Y02647D01*
X148703Y026474D01*
Y028838D01*
X148701Y028844D01*
X148701Y028932D01*
X148695Y029081D01*
X148683Y029195D01*
X148677Y029233D01*
X14867Y029261D01*
X148666Y029274D01*
X148664Y029277D01*
X14866Y029285D01*
X148655Y029291D01*
X148592D01*
X148576Y02927D01*
X148572Y029262D01*
X14857Y02926D01*
X148566Y029247D01*
X14856Y029218D01*
X148554Y029183D01*
X148537Y028913D01*
X148536Y028827D01*
X148535Y028821D01*
Y026961D01*
X148528Y026909D01*
X148516Y026753D01*
X148468Y026555D01*
X14839Y026366D01*
X148284Y026192D01*
X148152Y026037D01*
X14815Y026038D01*
X147878Y025766D01*
X147875Y025764D01*
X14779Y02566D01*
X147725Y025539D01*
X147685Y025407D01*
X147672Y025274D01*
X147672Y02527D01*
Y024488D01*
X147674Y024482D01*
X147675Y024394D01*
X14768Y024245D01*
X147692Y024131D01*
X147698Y024092D01*
X147705Y024064D01*
X147709Y024051D01*
X147711Y024048D01*
X147715Y02404D01*
X147765Y023975D01*
X14781Y023867D01*
X147825Y02375D01*
X14781Y023633D01*
X147765Y023525D01*
X147693Y023431D01*
X1476Y02336D01*
X147491Y023315D01*
X147375Y023299D01*
X147258Y023315D01*
X147149Y02336D01*
X147056Y023431D01*
X146984Y023525D01*
X146939Y023633D01*
X146924Y02375D01*
X146939Y023867D01*
X146984Y023975D01*
X147034Y02404D01*
X147038Y024048D01*
X14704Y024051D01*
X147044Y024064D01*
X147051Y024092D01*
X147057Y024128D01*
X147075Y024396D01*
X147076Y024482D01*
X147077Y024488D01*
Y02527D01*
X147075D01*
X147091Y025473D01*
X147117Y025579D01*
X147073Y025604D01*
X146705Y025236D01*
X146705Y025236D01*
X146294Y024824D01*
X146294Y024824D01*
X146262Y024787D01*
X146205Y024718D01*
X14614Y024597D01*
X1461Y024465D01*
X146088Y024336D01*
X146089Y02433D01*
X14609Y024264D01*
X146092Y024208D01*
X146102Y024107D01*
X146108Y024071D01*
X146115Y02404D01*
X146123Y024016D01*
X146129Y024001D01*
X146133Y023994D01*
X146142Y023981D01*
X146149Y023967D01*
X14618Y023925D01*
X146225Y023817D01*
X146241Y0237D01*
X146225Y023583D01*
X14618Y023475D01*
X146109Y023381D01*
X146015Y02331D01*
X145907Y023265D01*
X14579Y023249D01*
X145673Y023265D01*
X145565Y02331D01*
X145471Y023381D01*
X1454Y023475D01*
X145355Y023583D01*
X145339Y0237D01*
X145355Y023817D01*
X1454Y023925D01*
X145431Y023967D01*
X145438Y023981D01*
X145447Y023994D01*
X145451Y024001D01*
X145457Y024016D01*
X145465Y02404D01*
X145472Y024071D01*
X145478Y024106D01*
X14549Y024267D01*
X145491Y024327D01*
X145491Y024327D01*
X145491Y02433D01*
X145491Y02433D01*
X145495Y024376D01*
X145507Y024531D01*
X145554Y024729D01*
X145632Y024917D01*
X145739Y025091D01*
X145871Y025246D01*
X145871Y025246D01*
X145908Y025281D01*
X146284Y025657D01*
X146284Y025657D01*
X146737Y02611D01*
X146741Y026113D01*
X146825Y026216D01*
X146838Y02624D01*
X146813Y026283D01*
X145949D01*
Y027267D01*
X146106D01*
X146131Y027317D01*
X146096Y027363D01*
X146056Y027459D01*
X146049Y027513D01*
X146441D01*
Y027562D01*
D01*
Y027513D01*
X146833D01*
X146826Y027459D01*
X146786Y027363D01*
X146751Y027317D01*
X146776Y027267D01*
X146933D01*
X146943Y027313D01*
Y029643D01*
X146893Y029651D01*
X14687Y029573D01*
X146791Y029425D01*
X146684Y029296D01*
X146555Y02919D01*
X146407Y029111D01*
X146247Y029062D01*
X14613Y029051D01*
Y0299D01*
Y030749D01*
X146247Y030738D01*
X146407Y030689D01*
X146555Y03061D01*
X146684Y030504D01*
X146791Y030375D01*
X14687Y030227D01*
X146893Y030149D01*
X146943Y030157D01*
Y040336D01*
X146944Y04034D01*
X14693Y040473D01*
X14689Y040605D01*
X146825Y040726D01*
X146741Y04083D01*
X146737Y040832D01*
X145516Y042054D01*
X145479Y042088D01*
X145479Y042088D01*
X145357Y042237D01*
X145266Y042407D01*
X14521Y042591D01*
X145191Y042783D01*
X145191D01*
X145189Y042832D01*
X145186Y042853D01*
X145181Y042873D01*
X145176Y042892D01*
X145169Y042911D01*
X145162Y042928D01*
X145153Y042945D01*
X145143Y042962D01*
X145128Y042983D01*
X145121Y042998D01*
X145101Y043025D01*
X145056Y043133D01*
X14504Y04325D01*
X145056Y043367D01*
X145101Y043475D01*
X145172Y043569D01*
X145266Y04364D01*
X145374Y043685D01*
X145491Y043701D01*
D02*
G37*
G36*
X138241Y041146D02*
Y04085D01*
X138166D01*
Y040878D01*
X137969Y04085D01*
X137944D01*
X13795Y040891D01*
X137985Y040977D01*
X138041Y04105D01*
X138114Y041106D01*
X1382Y041141D01*
X138241Y041146D01*
D02*
G37*
G36*
X138341D02*
X138382Y041141D01*
X138467Y041106D01*
X13854Y04105D01*
X138597Y040977D01*
X138632Y040891D01*
X138637Y04085D01*
X138341D01*
Y041146D01*
D02*
G37*
G36*
X141841D02*
Y04085D01*
X141544D01*
X14155Y040891D01*
X141585Y040977D01*
X141641Y04105D01*
X141714Y041106D01*
X141799Y041141D01*
X141841Y041146D01*
D02*
G37*
G36*
X141941D02*
X141982Y041141D01*
X142067Y041106D01*
X14214Y04105D01*
X142197Y040977D01*
X142232Y040891D01*
X142237Y04085D01*
X141941D01*
Y041146D01*
D02*
G37*
G36*
X143041D02*
Y04085D01*
X142744D01*
X14275Y040891D01*
X142785Y040977D01*
X142841Y04105D01*
X142914Y041106D01*
X142999Y041141D01*
X143041Y041146D01*
D02*
G37*
G36*
X143141D02*
X143182Y041141D01*
X143267Y041106D01*
X14334Y04105D01*
X143397Y040977D01*
X143432Y040891D01*
X143437Y04085D01*
X143141D01*
Y041146D01*
D02*
G37*
G36*
X144241D02*
Y04085D01*
X143944D01*
X14395Y040891D01*
X143985Y040977D01*
X144041Y04105D01*
X144114Y041106D01*
X144199Y041141D01*
X144241Y041146D01*
D02*
G37*
G36*
X144341D02*
X144382Y041141D01*
X144467Y041106D01*
X14454Y04105D01*
X144597Y040977D01*
X144632Y040891D01*
X144637Y04085D01*
X144341D01*
Y041146D01*
D02*
G37*
G36*
X145441D02*
Y04085D01*
X145144D01*
X14515Y040891D01*
X145185Y040977D01*
X145241Y04105D01*
X145314Y041106D01*
X1454Y041141D01*
X145441Y041146D01*
D02*
G37*
G36*
X145541D02*
X145582Y041141D01*
X145667Y041106D01*
X14574Y04105D01*
X145797Y040977D01*
X145832Y040891D01*
X145837Y04085D01*
X145541D01*
Y041146D01*
D02*
G37*
G36*
X156241D02*
Y04085D01*
X155944D01*
X15595Y040891D01*
X155985Y040977D01*
X156041Y04105D01*
X156114Y041106D01*
X1562Y041141D01*
X156241Y041146D01*
D02*
G37*
G36*
X156341D02*
X156382Y041141D01*
X156467Y041106D01*
X15654Y04105D01*
X156597Y040977D01*
X156632Y040891D01*
X156637Y04085D01*
X156341D01*
Y041146D01*
D02*
G37*
G36*
X158641D02*
Y04085D01*
X158344D01*
X15835Y040891D01*
X158385Y040977D01*
X158441Y04105D01*
X158514Y041106D01*
X1586Y041141D01*
X158641Y041146D01*
D02*
G37*
G36*
X158741D02*
X158782Y041141D01*
X158867Y041106D01*
X15894Y04105D01*
X158997Y040977D01*
X159032Y040891D01*
X159037Y04085D01*
X158741D01*
Y041146D01*
D02*
G37*
G36*
X137541Y040992D02*
X137594Y040985D01*
X13769Y040945D01*
X137773Y040882D01*
X137814Y040828D01*
X137716Y040814D01*
Y04065D01*
X137541D01*
Y040992D01*
D02*
G37*
G36*
X138166Y04075D02*
X138241D01*
Y040454D01*
X1382Y040459D01*
X138166Y040473D01*
Y04075D01*
D02*
G37*
G36*
X138341D02*
X138637D01*
X138632Y040709D01*
X138597Y040623D01*
X13854Y04055D01*
X138467Y040494D01*
X138382Y040459D01*
X138341Y040454D01*
Y04075D01*
D02*
G37*
G36*
X141544D02*
X141841D01*
Y040454D01*
X141799Y040459D01*
X141714Y040494D01*
X141641Y04055D01*
X141585Y040623D01*
X14155Y040709D01*
X141544Y04075D01*
D02*
G37*
G36*
X141941D02*
X142237D01*
X142232Y040709D01*
X142197Y040623D01*
X14214Y04055D01*
X142067Y040494D01*
X141982Y040459D01*
X141941Y040454D01*
Y04075D01*
D02*
G37*
G36*
X142744D02*
X143041D01*
Y040454D01*
X142999Y040459D01*
X142914Y040494D01*
X142841Y04055D01*
X142785Y040623D01*
X14275Y040709D01*
X142744Y04075D01*
D02*
G37*
G36*
X143141D02*
X143437D01*
X143432Y040709D01*
X143397Y040623D01*
X14334Y04055D01*
X143267Y040494D01*
X143182Y040459D01*
X143141Y040454D01*
Y04075D01*
D02*
G37*
G36*
X143944D02*
X144241D01*
Y040454D01*
X144199Y040459D01*
X144114Y040494D01*
X144041Y04055D01*
X143985Y040623D01*
X14395Y040709D01*
X143944Y04075D01*
D02*
G37*
G36*
X144341D02*
X144637D01*
X144632Y040709D01*
X144597Y040623D01*
X14454Y04055D01*
X144467Y040494D01*
X144382Y040459D01*
X144341Y040454D01*
Y04075D01*
D02*
G37*
G36*
X145144D02*
X145441D01*
Y040454D01*
X1454Y040459D01*
X145314Y040494D01*
X145241Y04055D01*
X145185Y040623D01*
X14515Y040709D01*
X145144Y04075D01*
D02*
G37*
G36*
X145541D02*
X145837D01*
X145832Y040709D01*
X145797Y040623D01*
X14574Y04055D01*
X145667Y040494D01*
X145582Y040459D01*
X145541Y040454D01*
Y04075D01*
D02*
G37*
G36*
X155944D02*
X156241D01*
Y040454D01*
X1562Y040459D01*
X156114Y040494D01*
X156041Y04055D01*
X155985Y040623D01*
X15595Y040709D01*
X155944Y04075D01*
D02*
G37*
G36*
X156341D02*
X156637D01*
X156632Y040709D01*
X156597Y040623D01*
X15654Y04055D01*
X156467Y040494D01*
X156382Y040459D01*
X156341Y040454D01*
Y04075D01*
D02*
G37*
G36*
X158344D02*
X158641D01*
Y040454D01*
X1586Y040459D01*
X158514Y040494D01*
X158441Y04055D01*
X158385Y040623D01*
X15835Y040709D01*
X158344Y04075D01*
D02*
G37*
G36*
X158741D02*
X159037D01*
X159032Y040709D01*
X158997Y040623D01*
X15894Y04055D01*
X158867Y040494D01*
X158782Y040459D01*
X158741Y040454D01*
Y04075D01*
D02*
G37*
G36*
X137541Y04055D02*
X137716D01*
X137716Y040274D01*
X13769Y040255D01*
X137628Y040229D01*
X137629Y040233D01*
X137643Y040285D01*
X13766Y04033D01*
X137679Y040365D01*
X1377Y040391D01*
X137541D01*
Y04055D01*
D02*
G37*
G36*
X137716Y040146D02*
Y039978D01*
X137592Y039854D01*
X137613Y040115D01*
X137675Y040141D01*
X137716Y040146D01*
D02*
G37*
G36*
X13811Y039866D02*
X138112Y03985D01*
X138094D01*
X13811Y039866D01*
D02*
G37*
G36*
X141841Y039946D02*
Y03965D01*
X141544D01*
X14155Y039691D01*
X141585Y039777D01*
X141641Y03985D01*
X141714Y039906D01*
X141799Y039941D01*
X141841Y039946D01*
D02*
G37*
G36*
X141941D02*
X141982Y039941D01*
X142067Y039906D01*
X14214Y03985D01*
X142197Y039777D01*
X142232Y039691D01*
X142237Y03965D01*
X141941D01*
Y039946D01*
D02*
G37*
G36*
X143041D02*
Y03965D01*
X142744D01*
X14275Y039691D01*
X142785Y039777D01*
X142841Y03985D01*
X142914Y039906D01*
X142999Y039941D01*
X143041Y039946D01*
D02*
G37*
G36*
X143141D02*
X143182Y039941D01*
X143267Y039906D01*
X14334Y03985D01*
X143397Y039777D01*
X143432Y039691D01*
X143437Y03965D01*
X143141D01*
Y039946D01*
D02*
G37*
G36*
X144241D02*
Y03965D01*
X143944D01*
X14395Y039691D01*
X143985Y039777D01*
X144041Y03985D01*
X144114Y039906D01*
X144199Y039941D01*
X144241Y039946D01*
D02*
G37*
G36*
X144341D02*
X144382Y039941D01*
X144467Y039906D01*
X14454Y03985D01*
X144597Y039777D01*
X144632Y039691D01*
X144637Y03965D01*
X144341D01*
Y039946D01*
D02*
G37*
G36*
X145441D02*
Y03965D01*
X145144D01*
X14515Y039691D01*
X145185Y039777D01*
X145241Y03985D01*
X145314Y039906D01*
X1454Y039941D01*
X145441Y039946D01*
D02*
G37*
G36*
X145541D02*
X145582Y039941D01*
X145667Y039906D01*
X14574Y03985D01*
X145797Y039777D01*
X145832Y039691D01*
X145837Y03965D01*
X145541D01*
Y039946D01*
D02*
G37*
G36*
X149041D02*
Y03965D01*
X148744D01*
X14875Y039691D01*
X148785Y039777D01*
X148841Y03985D01*
X148914Y039906D01*
X149Y039941D01*
X149041Y039946D01*
D02*
G37*
G36*
X149141D02*
X149182Y039941D01*
X149267Y039906D01*
X14934Y03985D01*
X149397Y039777D01*
X149432Y039691D01*
X149437Y03965D01*
X149141D01*
Y039946D01*
D02*
G37*
G36*
X156241D02*
Y03965D01*
X155944D01*
X15595Y039691D01*
X155985Y039777D01*
X156041Y03985D01*
X156114Y039906D01*
X1562Y039941D01*
X156241Y039946D01*
D02*
G37*
G36*
X156341D02*
X156382Y039941D01*
X156467Y039906D01*
X15654Y03985D01*
X156597Y039777D01*
X156632Y039691D01*
X156637Y03965D01*
X156341D01*
Y039946D01*
D02*
G37*
G36*
X158641D02*
Y03965D01*
X158344D01*
X15835Y039691D01*
X158385Y039777D01*
X158441Y03985D01*
X158514Y039906D01*
X1586Y039941D01*
X158641Y039946D01*
D02*
G37*
G36*
X158741D02*
X158782Y039941D01*
X158867Y039906D01*
X15894Y03985D01*
X158997Y039777D01*
X159032Y039691D01*
X159037Y03965D01*
X158741D01*
Y039946D01*
D02*
G37*
G36*
X137716Y039472D02*
Y039454D01*
X1377Y039456D01*
X137716Y039472D01*
D02*
G37*
G36*
X137994Y03975D02*
X138112D01*
X138107Y039709D01*
X138072Y039623D01*
X138015Y03955D01*
X137942Y039494D01*
X137857Y039459D01*
X137816Y039454D01*
Y039572D01*
X137994Y03975D01*
D02*
G37*
G36*
X141544Y03955D02*
X141841D01*
Y039254D01*
X141799Y039259D01*
X141714Y039294D01*
X141641Y03935D01*
X141585Y039423D01*
X14155Y039509D01*
X141544Y03955D01*
D02*
G37*
G36*
X141941D02*
X142237D01*
X142232Y039509D01*
X142197Y039423D01*
X14214Y03935D01*
X142067Y039294D01*
X141982Y039259D01*
X141941Y039254D01*
Y03955D01*
D02*
G37*
G36*
X142744D02*
X143041D01*
Y039254D01*
X142999Y039259D01*
X142914Y039294D01*
X142841Y03935D01*
X142785Y039423D01*
X14275Y039509D01*
X142744Y03955D01*
D02*
G37*
G36*
X143141D02*
X143437D01*
X143432Y039509D01*
X143397Y039423D01*
X14334Y03935D01*
X143267Y039294D01*
X143182Y039259D01*
X143141Y039254D01*
Y03955D01*
D02*
G37*
G36*
X143944D02*
X144241D01*
Y039254D01*
X144199Y039259D01*
X144114Y039294D01*
X144041Y03935D01*
X143985Y039423D01*
X14395Y039509D01*
X143944Y03955D01*
D02*
G37*
G36*
X144341D02*
X144637D01*
X144632Y039509D01*
X144597Y039423D01*
X14454Y03935D01*
X144467Y039294D01*
X144382Y039259D01*
X144341Y039254D01*
Y03955D01*
D02*
G37*
G36*
X145144D02*
X145441D01*
Y039254D01*
X1454Y039259D01*
X145314Y039294D01*
X145241Y03935D01*
X145185Y039423D01*
X14515Y039509D01*
X145144Y03955D01*
D02*
G37*
G36*
X145541D02*
X145837D01*
X145832Y039509D01*
X145797Y039423D01*
X14574Y03935D01*
X145667Y039294D01*
X145582Y039259D01*
X145541Y039254D01*
Y03955D01*
D02*
G37*
G36*
X148744D02*
X149041D01*
Y039254D01*
X149Y039259D01*
X148914Y039294D01*
X148841Y03935D01*
X148785Y039423D01*
X14875Y039509D01*
X148744Y03955D01*
D02*
G37*
G36*
X149141D02*
X149437D01*
X149432Y039509D01*
X149397Y039423D01*
X14934Y03935D01*
X149267Y039294D01*
X149182Y039259D01*
X149141Y039254D01*
Y03955D01*
D02*
G37*
G36*
X155944D02*
X156241D01*
Y039254D01*
X1562Y039259D01*
X156114Y039294D01*
X156041Y03935D01*
X155985Y039423D01*
X15595Y039509D01*
X155944Y03955D01*
D02*
G37*
G36*
X156341D02*
X156637D01*
X156632Y039509D01*
X156597Y039423D01*
X15654Y03935D01*
X156467Y039294D01*
X156382Y039259D01*
X156341Y039254D01*
Y03955D01*
D02*
G37*
G36*
X158344D02*
X158641D01*
Y039254D01*
X1586Y039259D01*
X158514Y039294D01*
X158441Y03935D01*
X158385Y039423D01*
X15835Y039509D01*
X158344Y03955D01*
D02*
G37*
G36*
X158741D02*
X159037D01*
X159032Y039509D01*
X158997Y039423D01*
X15894Y03935D01*
X158867Y039294D01*
X158782Y039259D01*
X158741Y039254D01*
Y03955D01*
D02*
G37*
G36*
X137642Y039398D02*
X137697Y039327D01*
X137732Y039241D01*
X137737Y0392D01*
X137444D01*
X137549Y039305D01*
X137592Y039299D01*
X137591Y039305D01*
X137591Y03932D01*
X137591Y039347D01*
X137642Y039398D01*
D02*
G37*
G36*
X137341Y039097D02*
Y038804D01*
X137299Y038809D01*
X137214Y038844D01*
X137143Y038899D01*
X137341Y039097D01*
D02*
G37*
G36*
X137441Y0391D02*
X137737D01*
X137732Y039059D01*
X137697Y038973D01*
X13764Y0389D01*
X137567Y038844D01*
X137482Y038809D01*
X137441Y038804D01*
Y0391D01*
D02*
G37*
G36*
X155041Y038746D02*
Y03845D01*
X154744D01*
X15475Y038491D01*
X154785Y038577D01*
X154841Y03865D01*
X154914Y038706D01*
X155Y038741D01*
X155041Y038746D01*
D02*
G37*
G36*
X155141D02*
X155182Y038741D01*
X155267Y038706D01*
X15534Y03865D01*
X155397Y038577D01*
X155432Y038491D01*
X155437Y03845D01*
X155141D01*
Y038746D01*
D02*
G37*
G36*
X158641D02*
Y03845D01*
X158344D01*
X15835Y038491D01*
X158385Y038577D01*
X158441Y03865D01*
X158514Y038706D01*
X1586Y038741D01*
X158641Y038746D01*
D02*
G37*
G36*
X158741D02*
X158782Y038741D01*
X158867Y038706D01*
X15894Y03865D01*
X158997Y038577D01*
X159032Y038491D01*
X159037Y03845D01*
X158741D01*
Y038746D01*
D02*
G37*
G36*
X154744Y03835D02*
X155041D01*
Y038054D01*
X155Y038059D01*
X154914Y038094D01*
X154841Y03815D01*
X154785Y038223D01*
X15475Y038309D01*
X154744Y03835D01*
D02*
G37*
G36*
X155141D02*
X155437D01*
X155432Y038309D01*
X155397Y038223D01*
X15534Y03815D01*
X155267Y038094D01*
X155182Y038059D01*
X155141Y038054D01*
Y03835D01*
D02*
G37*
G36*
X158344D02*
X158641D01*
Y038054D01*
X1586Y038059D01*
X158514Y038094D01*
X158441Y03815D01*
X158385Y038223D01*
X15835Y038309D01*
X158344Y03835D01*
D02*
G37*
G36*
X158741D02*
X159037D01*
X159032Y038309D01*
X158997Y038223D01*
X15894Y03815D01*
X158867Y038094D01*
X158782Y038059D01*
X158741Y038054D01*
Y03835D01*
D02*
G37*
G36*
X156842Y038142D02*
Y037845D01*
X156546D01*
X156551Y037887D01*
X156587Y037972D01*
X156643Y038045D01*
X156716Y038101D01*
X156801Y038136D01*
X156842Y038142D01*
D02*
G37*
G36*
X156942D02*
X156984Y038136D01*
X157069Y038101D01*
X157142Y038045D01*
X157198Y037972D01*
X157233Y037887D01*
X157239Y037845D01*
X156942D01*
Y038142D01*
D02*
G37*
G36*
X156546Y037745D02*
X156842D01*
Y037449D01*
X156801Y037454D01*
X156716Y03749D01*
X156643Y037546D01*
X156587Y037619D01*
X156551Y037704D01*
X156546Y037745D01*
D02*
G37*
G36*
X156942D02*
X157239D01*
X157233Y037704D01*
X157198Y037619D01*
X157142Y037546D01*
X157069Y03749D01*
X156984Y037454D01*
X156942Y037449D01*
Y037745D01*
D02*
G37*
G36*
X149041Y037546D02*
Y03725D01*
X148744D01*
X14875Y037291D01*
X148785Y037377D01*
X148841Y03745D01*
X148914Y037506D01*
X149Y037541D01*
X149041Y037546D01*
D02*
G37*
G36*
X149141D02*
X149182Y037541D01*
X149267Y037506D01*
X14934Y03745D01*
X149397Y037377D01*
X149432Y037291D01*
X149437Y03725D01*
X149141D01*
Y037546D01*
D02*
G37*
G36*
X155041D02*
Y03725D01*
X154744D01*
X15475Y037291D01*
X154785Y037377D01*
X154841Y03745D01*
X154914Y037506D01*
X155Y037541D01*
X155041Y037546D01*
D02*
G37*
G36*
X155141D02*
X155182Y037541D01*
X155267Y037506D01*
X15534Y03745D01*
X155397Y037377D01*
X155432Y037291D01*
X155437Y03725D01*
X155141D01*
Y037546D01*
D02*
G37*
G36*
X156241D02*
Y03725D01*
X155944D01*
X15595Y037291D01*
X155985Y037377D01*
X156041Y03745D01*
X156114Y037506D01*
X1562Y037541D01*
X156241Y037546D01*
D02*
G37*
G36*
X156341D02*
X156382Y037541D01*
X156467Y037506D01*
X15654Y03745D01*
X156597Y037377D01*
X156632Y037291D01*
X156637Y03725D01*
X156341D01*
Y037546D01*
D02*
G37*
G36*
X157441D02*
Y03725D01*
X157144D01*
X15715Y037291D01*
X157185Y037377D01*
X157241Y03745D01*
X157314Y037506D01*
X1574Y037541D01*
X157441Y037546D01*
D02*
G37*
G36*
X157541D02*
X157582Y037541D01*
X157667Y037506D01*
X15774Y03745D01*
X157797Y037377D01*
X157832Y037291D01*
X157837Y03725D01*
X157541D01*
Y037546D01*
D02*
G37*
G36*
X148744Y03715D02*
X149041D01*
Y036854D01*
X149Y036859D01*
X148914Y036894D01*
X148841Y03695D01*
X148785Y037023D01*
X14875Y037109D01*
X148744Y03715D01*
D02*
G37*
G36*
X149141D02*
X149437D01*
X149432Y037109D01*
X149397Y037023D01*
X14934Y03695D01*
X149267Y036894D01*
X149182Y036859D01*
X149141Y036854D01*
Y03715D01*
D02*
G37*
G36*
X154744D02*
X155041D01*
Y036854D01*
X155Y036859D01*
X154914Y036894D01*
X154841Y03695D01*
X154785Y037023D01*
X15475Y037109D01*
X154744Y03715D01*
D02*
G37*
G36*
X155141D02*
X155437D01*
X155432Y037109D01*
X155397Y037023D01*
X15534Y03695D01*
X155267Y036894D01*
X155182Y036859D01*
X155141Y036854D01*
Y03715D01*
D02*
G37*
G36*
X155944D02*
X156241D01*
Y036854D01*
X1562Y036859D01*
X156114Y036894D01*
X156041Y03695D01*
X155985Y037023D01*
X15595Y037109D01*
X155944Y03715D01*
D02*
G37*
G36*
X156341D02*
X156637D01*
X156632Y037109D01*
X156597Y037023D01*
X15654Y03695D01*
X156467Y036894D01*
X156382Y036859D01*
X156341Y036854D01*
Y03715D01*
D02*
G37*
G36*
X157144D02*
X157441D01*
Y036854D01*
X1574Y036859D01*
X157314Y036894D01*
X157241Y03695D01*
X157185Y037023D01*
X15715Y037109D01*
X157144Y03715D01*
D02*
G37*
G36*
X157541D02*
X157837D01*
X157832Y037109D01*
X157797Y037023D01*
X15774Y03695D01*
X157667Y036894D01*
X157582Y036859D01*
X157541Y036854D01*
Y03715D01*
D02*
G37*
G36*
X150241Y036346D02*
Y03605D01*
X149944D01*
X14995Y036091D01*
X149985Y036177D01*
X150041Y03625D01*
X150114Y036306D01*
X150199Y036341D01*
X150241Y036346D01*
D02*
G37*
G36*
X150341D02*
X150382Y036341D01*
X150467Y036306D01*
X15054Y03625D01*
X150597Y036177D01*
X150632Y036091D01*
X150637Y03605D01*
X150341D01*
Y036346D01*
D02*
G37*
G36*
X151441D02*
Y03605D01*
X151144D01*
X15115Y036091D01*
X151185Y036177D01*
X151241Y03625D01*
X151314Y036306D01*
X151399Y036341D01*
X151441Y036346D01*
D02*
G37*
G36*
X151541D02*
X151582Y036341D01*
X151667Y036306D01*
X15174Y03625D01*
X151797Y036177D01*
X151832Y036091D01*
X151837Y03605D01*
X151541D01*
Y036346D01*
D02*
G37*
G36*
X152641D02*
Y03605D01*
X152344D01*
X15235Y036091D01*
X152385Y036177D01*
X152441Y03625D01*
X152514Y036306D01*
X152599Y036341D01*
X152641Y036346D01*
D02*
G37*
G36*
X152741D02*
X152782Y036341D01*
X152867Y036306D01*
X15294Y03625D01*
X152997Y036177D01*
X153032Y036091D01*
X153037Y03605D01*
X152741D01*
Y036346D01*
D02*
G37*
G36*
X153841D02*
Y03605D01*
X153544D01*
X15355Y036091D01*
X153585Y036177D01*
X153641Y03625D01*
X153714Y036306D01*
X153799Y036341D01*
X153841Y036346D01*
D02*
G37*
G36*
X153941D02*
X153982Y036341D01*
X154067Y036306D01*
X15414Y03625D01*
X154197Y036177D01*
X154232Y036091D01*
X154237Y03605D01*
X153941D01*
Y036346D01*
D02*
G37*
G36*
X149944Y03595D02*
X150241D01*
Y035654D01*
X150199Y035659D01*
X150114Y035694D01*
X150041Y03575D01*
X149985Y035823D01*
X14995Y035909D01*
X149944Y03595D01*
D02*
G37*
G36*
X150341D02*
X150637D01*
X150632Y035909D01*
X150597Y035823D01*
X15054Y03575D01*
X150467Y035694D01*
X150382Y035659D01*
X150341Y035654D01*
Y03595D01*
D02*
G37*
G36*
X151144D02*
X151837D01*
X151832Y035909D01*
X151797Y035823D01*
X15174Y03575D01*
X151667Y035694D01*
X151642Y035684D01*
X151652Y035634D01*
X15253D01*
X15254Y035684D01*
X152514Y035694D01*
X152441Y03575D01*
X152385Y035823D01*
X15235Y035909D01*
X152344Y03595D01*
X153037D01*
X153032Y035909D01*
X152997Y035823D01*
X15294Y03575D01*
X152867Y035694D01*
X152842Y035684D01*
X152852Y035634D01*
X15373D01*
X15374Y035684D01*
X153714Y035694D01*
X153641Y03575D01*
X153585Y035823D01*
X15355Y035909D01*
X153544Y03595D01*
X154237D01*
X154232Y035909D01*
X154197Y035823D01*
X15414Y03575D01*
X154067Y035694D01*
X154042Y035684D01*
X154052Y035634D01*
X154124D01*
X154201Y035619D01*
X154266Y035575D01*
X154309Y03551D01*
X154325Y035433D01*
Y031729D01*
X154326Y031727D01*
X154342Y03165D01*
X154326Y031573D01*
X154283Y031508D01*
X154218Y031465D01*
X154141Y031449D01*
X150691D01*
X150614Y031465D01*
X150549Y031508D01*
X150505Y031573D01*
X15049Y03165D01*
Y035433D01*
X150505Y03551D01*
X150549Y035575D01*
X150614Y035619D01*
X150691Y035634D01*
X15133D01*
X15134Y035684D01*
X151314Y035694D01*
X151241Y03575D01*
X151185Y035823D01*
X15115Y035909D01*
X151144Y03595D01*
D02*
G37*
G36*
X145441Y032746D02*
Y03245D01*
X145144D01*
X14515Y032491D01*
X145185Y032577D01*
X145241Y03265D01*
X145314Y032706D01*
X1454Y032741D01*
X145441Y032746D01*
D02*
G37*
G36*
X145541D02*
X145582Y032741D01*
X145667Y032706D01*
X14574Y03265D01*
X145797Y032577D01*
X145832Y032491D01*
X145837Y03245D01*
X145541D01*
Y032746D01*
D02*
G37*
G36*
X156241D02*
Y03245D01*
X155944D01*
X15595Y032491D01*
X155985Y032577D01*
X156041Y03265D01*
X156114Y032706D01*
X1562Y032741D01*
X156241Y032746D01*
D02*
G37*
G36*
X156341D02*
X156382Y032741D01*
X156467Y032706D01*
X15654Y03265D01*
X156597Y032577D01*
X156632Y032491D01*
X156637Y03245D01*
X156341D01*
Y032746D01*
D02*
G37*
G36*
X145144Y03235D02*
X145441D01*
Y032054D01*
X1454Y032059D01*
X145314Y032094D01*
X145241Y03215D01*
X145185Y032223D01*
X14515Y032309D01*
X145144Y03235D01*
D02*
G37*
G36*
X145541D02*
X145837D01*
X145832Y032309D01*
X145797Y032223D01*
X14574Y03215D01*
X145667Y032094D01*
X145582Y032059D01*
X145541Y032054D01*
Y03235D01*
D02*
G37*
G36*
X155944D02*
X156241D01*
Y032054D01*
X1562Y032059D01*
X156114Y032094D01*
X156041Y03215D01*
X155985Y032223D01*
X15595Y032309D01*
X155944Y03235D01*
D02*
G37*
G36*
X156341D02*
X156637D01*
X156632Y032309D01*
X156597Y032223D01*
X15654Y03215D01*
X156467Y032094D01*
X156382Y032059D01*
X156341Y032054D01*
Y03235D01*
D02*
G37*
G36*
X145441Y031546D02*
Y03125D01*
X145144D01*
X14515Y031291D01*
X145185Y031377D01*
X145241Y03145D01*
X145314Y031506D01*
X1454Y031541D01*
X145441Y031546D01*
D02*
G37*
G36*
X145541D02*
X145582Y031541D01*
X145667Y031506D01*
X14574Y03145D01*
X145797Y031377D01*
X145832Y031291D01*
X145837Y03125D01*
X145541D01*
Y031546D01*
D02*
G37*
G36*
X150241D02*
Y03125D01*
X149944D01*
X14995Y031291D01*
X149985Y031377D01*
X150041Y03145D01*
X150114Y031506D01*
X150199Y031541D01*
X150241Y031546D01*
D02*
G37*
G36*
X150341D02*
X150382Y031541D01*
X150467Y031506D01*
X15054Y03145D01*
X150597Y031377D01*
X150632Y031291D01*
X150637Y03125D01*
X150341D01*
Y031546D01*
D02*
G37*
G36*
X145144Y03115D02*
X145441D01*
Y030854D01*
X1454Y030859D01*
X145314Y030894D01*
X145241Y03095D01*
X145185Y031023D01*
X14515Y031109D01*
X145144Y03115D01*
D02*
G37*
G36*
X145541D02*
X145837D01*
X145832Y031109D01*
X145797Y031023D01*
X14574Y03095D01*
X145667Y030894D01*
X145582Y030859D01*
X145541Y030854D01*
Y03115D01*
D02*
G37*
G36*
X149944D02*
X150241D01*
Y030854D01*
X150199Y030859D01*
X150114Y030894D01*
X150041Y03095D01*
X149985Y031023D01*
X14995Y031109D01*
X149944Y03115D01*
D02*
G37*
G36*
X150341D02*
X150637D01*
X150632Y031109D01*
X150597Y031023D01*
X15054Y03095D01*
X150467Y030894D01*
X150382Y030859D01*
X150341Y030854D01*
Y03115D01*
D02*
G37*
G36*
X155041Y030346D02*
Y03005D01*
X154744D01*
X15475Y030091D01*
X154785Y030177D01*
X154841Y03025D01*
X154914Y030306D01*
X155Y030341D01*
X155041Y030346D01*
D02*
G37*
G36*
X155141D02*
X155182Y030341D01*
X155267Y030306D01*
X15534Y03025D01*
X155397Y030177D01*
X155432Y030091D01*
X155437Y03005D01*
X155141D01*
Y030346D01*
D02*
G37*
G36*
X156241D02*
Y03005D01*
X155944D01*
X15595Y030091D01*
X155985Y030177D01*
X156041Y03025D01*
X156114Y030306D01*
X1562Y030341D01*
X156241Y030346D01*
D02*
G37*
G36*
X156341D02*
X156382Y030341D01*
X156467Y030306D01*
X15654Y03025D01*
X156597Y030177D01*
X156632Y030091D01*
X156637Y03005D01*
X156341D01*
Y030346D01*
D02*
G37*
G36*
X157441D02*
Y03005D01*
X157144D01*
X15715Y030091D01*
X157185Y030177D01*
X157241Y03025D01*
X157314Y030306D01*
X1574Y030341D01*
X157441Y030346D01*
D02*
G37*
G36*
X157541D02*
X157582Y030341D01*
X157667Y030306D01*
X15774Y03025D01*
X157797Y030177D01*
X157832Y030091D01*
X157837Y03005D01*
X157541D01*
Y030346D01*
D02*
G37*
G36*
X158641D02*
Y03005D01*
X158344D01*
X15835Y030091D01*
X158385Y030177D01*
X158441Y03025D01*
X158514Y030306D01*
X1586Y030341D01*
X158641Y030346D01*
D02*
G37*
G36*
X158741D02*
X158782Y030341D01*
X158867Y030306D01*
X15894Y03025D01*
X158997Y030177D01*
X159032Y030091D01*
X159037Y03005D01*
X158741D01*
Y030346D01*
D02*
G37*
G36*
X14603Y030749D02*
Y02995D01*
X145231D01*
X145243Y030067D01*
X145291Y030227D01*
X14537Y030375D01*
X145476Y030504D01*
X145606Y03061D01*
X145754Y030689D01*
X145914Y030738D01*
X14603Y030749D01*
D02*
G37*
G36*
X154744Y02995D02*
X155041D01*
Y029654D01*
X155Y029659D01*
X154914Y029694D01*
X154841Y02975D01*
X154785Y029823D01*
X15475Y029909D01*
X154744Y02995D01*
D02*
G37*
G36*
X155141D02*
X155437D01*
X155432Y029909D01*
X155397Y029823D01*
X15534Y02975D01*
X155267Y029694D01*
X155182Y029659D01*
X155141Y029654D01*
Y02995D01*
D02*
G37*
G36*
X155944D02*
X156241D01*
Y029654D01*
X1562Y029659D01*
X156114Y029694D01*
X156041Y02975D01*
X155985Y029823D01*
X15595Y029909D01*
X155944Y02995D01*
D02*
G37*
G36*
X156341D02*
X156637D01*
X156632Y029909D01*
X156597Y029823D01*
X15654Y02975D01*
X156467Y029694D01*
X156382Y029659D01*
X156341Y029654D01*
Y02995D01*
D02*
G37*
G36*
X157144D02*
X157441D01*
Y029654D01*
X1574Y029659D01*
X157314Y029694D01*
X157241Y02975D01*
X157185Y029823D01*
X15715Y029909D01*
X157144Y02995D01*
D02*
G37*
G36*
X157541D02*
X157837D01*
X157832Y029909D01*
X157797Y029823D01*
X15774Y02975D01*
X157667Y029694D01*
X157582Y029659D01*
X157541Y029654D01*
Y02995D01*
D02*
G37*
G36*
X158344D02*
X158641D01*
Y029654D01*
X1586Y029659D01*
X158514Y029694D01*
X158441Y02975D01*
X158385Y029823D01*
X15835Y029909D01*
X158344Y02995D01*
D02*
G37*
G36*
X158741D02*
X159037D01*
X159032Y029909D01*
X158997Y029823D01*
X15894Y02975D01*
X158867Y029694D01*
X158782Y029659D01*
X158741Y029654D01*
Y02995D01*
D02*
G37*
G36*
X143134Y030847D02*
X145027D01*
Y028953D01*
X143134D01*
Y030847D01*
D02*
G37*
G36*
X136166Y029017D02*
X136197Y028977D01*
X136232Y028891D01*
X136237Y02885D01*
X136166D01*
Y029017D01*
D02*
G37*
G36*
X145441Y029146D02*
Y02885D01*
X145144D01*
X14515Y028891D01*
X145185Y028977D01*
X145241Y02905D01*
X145314Y029106D01*
X1454Y029141D01*
X145441Y029146D01*
D02*
G37*
G36*
X145231Y02985D02*
X14603D01*
Y029051D01*
X145914Y029062D01*
X145754Y029111D01*
X145718Y02913D01*
X145691Y029088D01*
X14574Y02905D01*
X145797Y028977D01*
X145832Y028891D01*
X145837Y02885D01*
X145541D01*
Y029146D01*
X145582Y029141D01*
X145622Y029124D01*
X145644Y02917D01*
X145606Y02919D01*
X145476Y029296D01*
X14537Y029425D01*
X145291Y029573D01*
X145243Y029733D01*
X145231Y02985D01*
D02*
G37*
G36*
X155041Y029146D02*
Y02885D01*
X154744D01*
X15475Y028891D01*
X154785Y028977D01*
X154841Y02905D01*
X154914Y029106D01*
X155Y029141D01*
X155041Y029146D01*
D02*
G37*
G36*
X155141D02*
X155182Y029141D01*
X155267Y029106D01*
X15534Y02905D01*
X155397Y028977D01*
X155432Y028891D01*
X155437Y02885D01*
X155141D01*
Y029146D01*
D02*
G37*
G36*
X156241D02*
Y02885D01*
X155944D01*
X15595Y028891D01*
X155985Y028977D01*
X156041Y02905D01*
X156114Y029106D01*
X1562Y029141D01*
X156241Y029146D01*
D02*
G37*
G36*
X156341D02*
X156382Y029141D01*
X156467Y029106D01*
X15654Y02905D01*
X156597Y028977D01*
X156632Y028891D01*
X156637Y02885D01*
X156341D01*
Y029146D01*
D02*
G37*
G36*
X157441D02*
Y02885D01*
X157144D01*
X15715Y028891D01*
X157185Y028977D01*
X157241Y02905D01*
X157314Y029106D01*
X1574Y029141D01*
X157441Y029146D01*
D02*
G37*
G36*
X157541D02*
X157582Y029141D01*
X157667Y029106D01*
X15774Y02905D01*
X157797Y028977D01*
X157832Y028891D01*
X157837Y02885D01*
X157541D01*
Y029146D01*
D02*
G37*
G36*
X158641D02*
Y02885D01*
X158344D01*
X15835Y028891D01*
X158385Y028977D01*
X158441Y02905D01*
X158514Y029106D01*
X1586Y029141D01*
X158641Y029146D01*
D02*
G37*
G36*
X158741D02*
X158782Y029141D01*
X158867Y029106D01*
X15894Y02905D01*
X158997Y028977D01*
X159032Y028891D01*
X159037Y02885D01*
X158741D01*
Y029146D01*
D02*
G37*
G36*
X136166Y02875D02*
X136237D01*
X136232Y028709D01*
X136197Y028623D01*
X136166Y028583D01*
Y02875D01*
D02*
G37*
G36*
X145144D02*
X145441D01*
Y028454D01*
X1454Y028459D01*
X145314Y028494D01*
X145241Y02855D01*
X145185Y028623D01*
X14515Y028709D01*
X145144Y02875D01*
D02*
G37*
G36*
X145541D02*
X145837D01*
X145832Y028709D01*
X145797Y028623D01*
X14574Y02855D01*
X145667Y028494D01*
X145582Y028459D01*
X145541Y028454D01*
Y02875D01*
D02*
G37*
G36*
X154744D02*
X155041D01*
Y028454D01*
X155Y028459D01*
X154914Y028494D01*
X154841Y02855D01*
X154785Y028623D01*
X15475Y028709D01*
X154744Y02875D01*
D02*
G37*
G36*
X155141D02*
X155437D01*
X155432Y028709D01*
X155397Y028623D01*
X15534Y02855D01*
X155267Y028494D01*
X155182Y028459D01*
X155141Y028454D01*
Y02875D01*
D02*
G37*
G36*
X155944D02*
X156241D01*
Y028454D01*
X1562Y028459D01*
X156114Y028494D01*
X156041Y02855D01*
X155985Y028623D01*
X15595Y028709D01*
X155944Y02875D01*
D02*
G37*
G36*
X156341D02*
X156637D01*
X156632Y028709D01*
X156597Y028623D01*
X15654Y02855D01*
X156467Y028494D01*
X156382Y028459D01*
X156341Y028454D01*
Y02875D01*
D02*
G37*
G36*
X157144D02*
X157441D01*
Y028454D01*
X1574Y028459D01*
X157314Y028494D01*
X157241Y02855D01*
X157185Y028623D01*
X15715Y028709D01*
X157144Y02875D01*
D02*
G37*
G36*
X157541D02*
X157837D01*
X157832Y028709D01*
X157797Y028623D01*
X15774Y02855D01*
X157667Y028494D01*
X157582Y028459D01*
X157541Y028454D01*
Y02875D01*
D02*
G37*
G36*
X158344D02*
X158641D01*
Y028454D01*
X1586Y028459D01*
X158514Y028494D01*
X158441Y02855D01*
X158385Y028623D01*
X15835Y028709D01*
X158344Y02875D01*
D02*
G37*
G36*
X158741D02*
X159037D01*
X159032Y028709D01*
X158997Y028623D01*
X15894Y02855D01*
X158867Y028494D01*
X158782Y028459D01*
X158741Y028454D01*
Y02875D01*
D02*
G37*
G36*
X143457Y028693D02*
Y028396D01*
X14316D01*
X143166Y028438D01*
X143201Y028523D01*
X143257Y028596D01*
X14333Y028652D01*
X143415Y028687D01*
X143457Y028693D01*
D02*
G37*
G36*
X143557D02*
X143598Y028687D01*
X143683Y028652D01*
X143756Y028596D01*
X143812Y028523D01*
X143848Y028438D01*
X143853Y028396D01*
X143557D01*
Y028693D01*
D02*
G37*
G36*
X14316Y028296D02*
X143457D01*
Y028D01*
X143415Y028005D01*
X14333Y028041D01*
X143257Y028097D01*
X143201Y02817D01*
X143166Y028255D01*
X14316Y028296D01*
D02*
G37*
G36*
X143557D02*
X143853D01*
X143848Y028255D01*
X143812Y02817D01*
X143756Y028097D01*
X143683Y028041D01*
X143598Y028005D01*
X143557Y028D01*
Y028296D01*
D02*
G37*
G36*
X136166Y027817D02*
X136197Y027777D01*
X136232Y027691D01*
X136237Y02765D01*
X136166D01*
Y027817D01*
D02*
G37*
G36*
X145441Y027946D02*
Y02765D01*
X145144D01*
X14515Y027691D01*
X145185Y027777D01*
X145241Y02785D01*
X145314Y027906D01*
X1454Y027941D01*
X145441Y027946D01*
D02*
G37*
G36*
X145541D02*
X145582Y027941D01*
X145667Y027906D01*
X14574Y02785D01*
X145797Y027777D01*
X145832Y027691D01*
X145837Y02765D01*
X145541D01*
Y027946D01*
D02*
G37*
G36*
X156241D02*
Y02765D01*
X155944D01*
X15595Y027691D01*
X155985Y027777D01*
X156041Y02785D01*
X156114Y027906D01*
X1562Y027941D01*
X156241Y027946D01*
D02*
G37*
G36*
X156341D02*
X156382Y027941D01*
X156467Y027906D01*
X15654Y02785D01*
X156597Y027777D01*
X156632Y027691D01*
X156637Y02765D01*
X156341D01*
Y027946D01*
D02*
G37*
G36*
X157441D02*
Y02765D01*
X157144D01*
X15715Y027691D01*
X157185Y027777D01*
X157241Y02785D01*
X157314Y027906D01*
X1574Y027941D01*
X157441Y027946D01*
D02*
G37*
G36*
X157541D02*
X157582Y027941D01*
X157667Y027906D01*
X15774Y02785D01*
X157797Y027777D01*
X157832Y027691D01*
X157837Y02765D01*
X157541D01*
Y027946D01*
D02*
G37*
G36*
X158641D02*
Y02765D01*
X158344D01*
X15835Y027691D01*
X158385Y027777D01*
X158441Y02785D01*
X158514Y027906D01*
X1586Y027941D01*
X158641Y027946D01*
D02*
G37*
G36*
X158741D02*
X158782Y027941D01*
X158867Y027906D01*
X15894Y02785D01*
X158997Y027777D01*
X159032Y027691D01*
X159037Y02765D01*
X158741D01*
Y027946D01*
D02*
G37*
G36*
X146391Y027955D02*
Y027613D01*
X146049D01*
X146056Y027666D01*
X146096Y027762D01*
X146159Y027844D01*
X146242Y027908D01*
X146338Y027948D01*
X146391Y027955D01*
D02*
G37*
G36*
X146491D02*
X146544Y027948D01*
X14664Y027908D01*
X146723Y027844D01*
X146786Y027762D01*
X146826Y027666D01*
X146833Y027613D01*
X146491D01*
Y027955D01*
D02*
G37*
G36*
X136166Y02755D02*
X136237D01*
X136232Y027509D01*
X136197Y027423D01*
X136166Y027383D01*
Y02755D01*
D02*
G37*
G36*
X150009Y027559D02*
Y027263D01*
X149712D01*
X149718Y027304D01*
X149753Y027389D01*
X149809Y027462D01*
X149882Y027518D01*
X149967Y027554D01*
X150009Y027559D01*
D02*
G37*
G36*
X150109D02*
X15015Y027554D01*
X150235Y027518D01*
X150308Y027462D01*
X150364Y027389D01*
X1504Y027304D01*
X150405Y027263D01*
X150109D01*
Y027559D01*
D02*
G37*
G36*
X145144Y02755D02*
X145441D01*
Y027254D01*
X1454Y027259D01*
X145314Y027294D01*
X145241Y02735D01*
X145185Y027423D01*
X14515Y027509D01*
X145144Y02755D01*
D02*
G37*
G36*
X145541D02*
X145837D01*
X145832Y027509D01*
X145797Y027423D01*
X14574Y02735D01*
X145667Y027294D01*
X145582Y027259D01*
X145541Y027254D01*
Y02755D01*
D02*
G37*
G36*
X155944D02*
X156241D01*
Y027254D01*
X1562Y027259D01*
X156114Y027294D01*
X156041Y02735D01*
X155985Y027423D01*
X15595Y027509D01*
X155944Y02755D01*
D02*
G37*
G36*
X156341D02*
X156637D01*
X156632Y027509D01*
X156597Y027423D01*
X15654Y02735D01*
X156467Y027294D01*
X156382Y027259D01*
X156341Y027254D01*
Y02755D01*
D02*
G37*
G36*
X157144D02*
X157441D01*
Y027254D01*
X1574Y027259D01*
X157314Y027294D01*
X157241Y02735D01*
X157185Y027423D01*
X15715Y027509D01*
X157144Y02755D01*
D02*
G37*
G36*
X157541D02*
X157837D01*
X157832Y027509D01*
X157797Y027423D01*
X15774Y02735D01*
X157667Y027294D01*
X157582Y027259D01*
X157541Y027254D01*
Y02755D01*
D02*
G37*
G36*
X158344D02*
X158641D01*
Y027254D01*
X1586Y027259D01*
X158514Y027294D01*
X158441Y02735D01*
X158385Y027423D01*
X15835Y027509D01*
X158344Y02755D01*
D02*
G37*
G36*
X158741D02*
X159037D01*
X159032Y027509D01*
X158997Y027423D01*
X15894Y02735D01*
X158867Y027294D01*
X158782Y027259D01*
X158741Y027254D01*
Y02755D01*
D02*
G37*
G36*
X149712Y027163D02*
X150009D01*
Y026866D01*
X149967Y026872D01*
X149882Y026907D01*
X149809Y026963D01*
X149753Y027036D01*
X149718Y027121D01*
X149712Y027163D01*
D02*
G37*
G36*
X150109D02*
X150405D01*
X1504Y027121D01*
X150364Y027036D01*
X150308Y026963D01*
X150235Y026907D01*
X15015Y026872D01*
X150109Y026866D01*
Y027163D01*
D02*
G37*
G36*
X136166Y026617D02*
X136197Y026577D01*
X136232Y026491D01*
X136237Y02645D01*
X136166D01*
Y026617D01*
D02*
G37*
G36*
X150241Y026746D02*
Y02645D01*
X149944D01*
X14995Y026491D01*
X149985Y026577D01*
X150041Y02665D01*
X150114Y026706D01*
X150199Y026741D01*
X150241Y026746D01*
D02*
G37*
G36*
X150341D02*
X150382Y026741D01*
X150467Y026706D01*
X15054Y02665D01*
X150597Y026577D01*
X150632Y026491D01*
X150637Y02645D01*
X150341D01*
Y026746D01*
D02*
G37*
G36*
X156241D02*
Y02645D01*
X155944D01*
X15595Y026491D01*
X155985Y026577D01*
X156041Y02665D01*
X156114Y026706D01*
X1562Y026741D01*
X156241Y026746D01*
D02*
G37*
G36*
X156341D02*
X156382Y026741D01*
X156467Y026706D01*
X15654Y02665D01*
X156597Y026577D01*
X156632Y026491D01*
X156637Y02645D01*
X156341D01*
Y026746D01*
D02*
G37*
G36*
X157441D02*
Y02645D01*
X157144D01*
X15715Y026491D01*
X157185Y026577D01*
X157241Y02665D01*
X157314Y026706D01*
X1574Y026741D01*
X157441Y026746D01*
D02*
G37*
G36*
X157541D02*
X157582Y026741D01*
X157667Y026706D01*
X15774Y02665D01*
X157797Y026577D01*
X157832Y026491D01*
X157837Y02645D01*
X157541D01*
Y026746D01*
D02*
G37*
G36*
X158641D02*
Y02645D01*
X158344D01*
X15835Y026491D01*
X158385Y026577D01*
X158441Y02665D01*
X158514Y026706D01*
X1586Y026741D01*
X158641Y026746D01*
D02*
G37*
G36*
X158741D02*
X158782Y026741D01*
X158867Y026706D01*
X15894Y02665D01*
X158997Y026577D01*
X159032Y026491D01*
X159037Y02645D01*
X158741D01*
Y026746D01*
D02*
G37*
G36*
X136166Y02635D02*
X136237D01*
X136232Y026309D01*
X136197Y026223D01*
X136166Y026183D01*
Y02635D01*
D02*
G37*
G36*
X149944D02*
X150241D01*
Y026054D01*
X150199Y026059D01*
X150114Y026094D01*
X150041Y02615D01*
X149985Y026223D01*
X14995Y026309D01*
X149944Y02635D01*
D02*
G37*
G36*
X150341D02*
X150637D01*
X150632Y026309D01*
X150597Y026223D01*
X15054Y02615D01*
X150467Y026094D01*
X150382Y026059D01*
X150341Y026054D01*
Y02635D01*
D02*
G37*
G36*
X155944D02*
X156241D01*
Y026054D01*
X1562Y026059D01*
X156114Y026094D01*
X156041Y02615D01*
X155985Y026223D01*
X15595Y026309D01*
X155944Y02635D01*
D02*
G37*
G36*
X156341D02*
X156637D01*
X156632Y026309D01*
X156597Y026223D01*
X15654Y02615D01*
X156467Y026094D01*
X156382Y026059D01*
X156341Y026054D01*
Y02635D01*
D02*
G37*
G36*
X157144D02*
X157441D01*
Y026054D01*
X1574Y026059D01*
X157314Y026094D01*
X157241Y02615D01*
X157185Y026223D01*
X15715Y026309D01*
X157144Y02635D01*
D02*
G37*
G36*
X157541D02*
X157837D01*
X157832Y026309D01*
X157797Y026223D01*
X15774Y02615D01*
X157667Y026094D01*
X157582Y026059D01*
X157541Y026054D01*
Y02635D01*
D02*
G37*
G36*
X158344D02*
X158641D01*
Y026054D01*
X1586Y026059D01*
X158514Y026094D01*
X158441Y02615D01*
X158385Y026223D01*
X15835Y026309D01*
X158344Y02635D01*
D02*
G37*
G36*
X158741D02*
X159037D01*
X159032Y026309D01*
X158997Y026223D01*
X15894Y02615D01*
X158867Y026094D01*
X158782Y026059D01*
X158741Y026054D01*
Y02635D01*
D02*
G37*
G36*
X156241Y025546D02*
Y02525D01*
X155944D01*
X15595Y025291D01*
X155985Y025377D01*
X156041Y02545D01*
X156114Y025506D01*
X1562Y025541D01*
X156241Y025546D01*
D02*
G37*
G36*
X156341D02*
X156382Y025541D01*
X156467Y025506D01*
X15654Y02545D01*
X156597Y025377D01*
X156632Y025291D01*
X156637Y02525D01*
X156341D01*
Y025546D01*
D02*
G37*
G36*
X157441D02*
Y02525D01*
X157144D01*
X15715Y025291D01*
X157185Y025377D01*
X157241Y02545D01*
X157314Y025506D01*
X1574Y025541D01*
X157441Y025546D01*
D02*
G37*
G36*
X157541D02*
X157582Y025541D01*
X157667Y025506D01*
X15774Y02545D01*
X157797Y025377D01*
X157832Y025291D01*
X157837Y02525D01*
X157541D01*
Y025546D01*
D02*
G37*
G36*
X158641D02*
Y02525D01*
X158344D01*
X15835Y025291D01*
X158385Y025377D01*
X158441Y02545D01*
X158514Y025506D01*
X1586Y025541D01*
X158641Y025546D01*
D02*
G37*
G36*
X158741D02*
X158782Y025541D01*
X158867Y025506D01*
X15894Y02545D01*
X158997Y025377D01*
X159032Y025291D01*
X159037Y02525D01*
X158741D01*
Y025546D01*
D02*
G37*
G36*
X151331Y025543D02*
Y025247D01*
X151034D01*
X15104Y025288D01*
X151075Y025373D01*
X151131Y025446D01*
X151204Y025503D01*
X151289Y025538D01*
X151331Y025543D01*
D02*
G37*
G36*
X151431D02*
X151472Y025538D01*
X151557Y025503D01*
X15163Y025446D01*
X151686Y025373D01*
X151722Y025288D01*
X151727Y025247D01*
X151431D01*
Y025543D01*
D02*
G37*
G36*
X152118D02*
Y025247D01*
X151822D01*
X151827Y025288D01*
X151862Y025373D01*
X151918Y025446D01*
X151992Y025503D01*
X152077Y025538D01*
X152118Y025543D01*
D02*
G37*
G36*
X152218D02*
X152259Y025538D01*
X152345Y025503D01*
X152418Y025446D01*
X152474Y025373D01*
X152509Y025288D01*
X152514Y025247D01*
X152218D01*
Y025543D01*
D02*
G37*
G36*
X155944Y02515D02*
X156241D01*
Y024854D01*
X1562Y024859D01*
X156114Y024894D01*
X156041Y02495D01*
X155985Y025023D01*
X15595Y025109D01*
X155944Y02515D01*
D02*
G37*
G36*
X156341D02*
X156637D01*
X156632Y025109D01*
X156597Y025023D01*
X15654Y02495D01*
X156467Y024894D01*
X156382Y024859D01*
X156341Y024854D01*
Y02515D01*
D02*
G37*
G36*
X157144D02*
X157441D01*
Y024854D01*
X1574Y024859D01*
X157314Y024894D01*
X157241Y02495D01*
X157185Y025023D01*
X15715Y025109D01*
X157144Y02515D01*
D02*
G37*
G36*
X157541D02*
X157837D01*
X157832Y025109D01*
X157797Y025023D01*
X15774Y02495D01*
X157667Y024894D01*
X157582Y024859D01*
X157541Y024854D01*
Y02515D01*
D02*
G37*
G36*
X158344D02*
X158641D01*
Y024854D01*
X1586Y024859D01*
X158514Y024894D01*
X158441Y02495D01*
X158385Y025023D01*
X15835Y025109D01*
X158344Y02515D01*
D02*
G37*
G36*
X158741D02*
X159037D01*
X159032Y025109D01*
X158997Y025023D01*
X15894Y02495D01*
X158867Y024894D01*
X158782Y024859D01*
X158741Y024854D01*
Y02515D01*
D02*
G37*
G36*
X151034Y025147D02*
X151331D01*
Y02485D01*
X151289Y024856D01*
X151204Y024891D01*
X151131Y024947D01*
X151075Y02502D01*
X15104Y025106D01*
X151034Y025147D01*
D02*
G37*
G36*
X151431D02*
X151727D01*
X151722Y025106D01*
X151686Y02502D01*
X15163Y024947D01*
X151557Y024891D01*
X151472Y024856D01*
X151431Y02485D01*
Y025147D01*
D02*
G37*
G36*
X151822D02*
X152118D01*
Y02485D01*
X152077Y024856D01*
X151992Y024891D01*
X151918Y024947D01*
X151862Y02502D01*
X151827Y025106D01*
X151822Y025147D01*
D02*
G37*
G36*
X152218D02*
X152514D01*
X152509Y025106D01*
X152474Y02502D01*
X152418Y024947D01*
X152345Y024891D01*
X152259Y024856D01*
X152218Y02485D01*
Y025147D01*
D02*
G37*
G36*
X139441Y024346D02*
Y02405D01*
X139191D01*
X139149Y024086D01*
X13915Y024091D01*
X139185Y024177D01*
X139241Y02425D01*
X139314Y024306D01*
X139399Y024341D01*
X139441Y024346D01*
D02*
G37*
G36*
X139541D02*
X139582Y024341D01*
X139667Y024306D01*
X13974Y02425D01*
X139797Y024177D01*
X139832Y024091D01*
X139837Y02405D01*
X139541D01*
Y024346D01*
D02*
G37*
G36*
X156241D02*
Y02405D01*
X155944D01*
X15595Y024091D01*
X155985Y024177D01*
X156041Y02425D01*
X156114Y024306D01*
X1562Y024341D01*
X156241Y024346D01*
D02*
G37*
G36*
X156341D02*
X156382Y024341D01*
X156467Y024306D01*
X15654Y02425D01*
X156597Y024177D01*
X156632Y024091D01*
X156637Y02405D01*
X156341D01*
Y024346D01*
D02*
G37*
G36*
X157441D02*
Y02405D01*
X157144D01*
X15715Y024091D01*
X157185Y024177D01*
X157241Y02425D01*
X157314Y024306D01*
X1574Y024341D01*
X157441Y024346D01*
D02*
G37*
G36*
X157541D02*
X157582Y024341D01*
X157667Y024306D01*
X15774Y02425D01*
X157797Y024177D01*
X157832Y024091D01*
X157837Y02405D01*
X157541D01*
Y024346D01*
D02*
G37*
G36*
X158641D02*
Y02405D01*
X158344D01*
X15835Y024091D01*
X158385Y024177D01*
X158441Y02425D01*
X158514Y024306D01*
X1586Y024341D01*
X158641Y024346D01*
D02*
G37*
G36*
X158741D02*
X158782Y024341D01*
X158867Y024306D01*
X15894Y02425D01*
X158997Y024177D01*
X159032Y024091D01*
X159037Y02405D01*
X158741D01*
Y024346D01*
D02*
G37*
G36*
X139321Y02395D02*
X139441D01*
Y023888D01*
X139431Y023891D01*
X139386Y023911D01*
X139339Y023938D01*
X139321Y02395D01*
D02*
G37*
G36*
X139441Y023742D02*
Y023654D01*
X139399Y023659D01*
X139379Y023667D01*
X139441Y023742D01*
D02*
G37*
G36*
X139541Y02395D02*
X139837D01*
X139832Y023909D01*
X139797Y023823D01*
X13974Y02375D01*
X139667Y023694D01*
X139582Y023659D01*
X139541Y023654D01*
Y023864D01*
X139547Y023871D01*
X139541Y023871D01*
Y02395D01*
D02*
G37*
G36*
X155944D02*
X156241D01*
Y023654D01*
X1562Y023659D01*
X156114Y023694D01*
X156041Y02375D01*
X155985Y023823D01*
X15595Y023909D01*
X155944Y02395D01*
D02*
G37*
G36*
X156341D02*
X156637D01*
X156632Y023909D01*
X156597Y023823D01*
X15654Y02375D01*
X156467Y023694D01*
X156382Y023659D01*
X156341Y023654D01*
Y02395D01*
D02*
G37*
G36*
X157144D02*
X157441D01*
Y023654D01*
X1574Y023659D01*
X157314Y023694D01*
X157241Y02375D01*
X157185Y023823D01*
X15715Y023909D01*
X157144Y02395D01*
D02*
G37*
G36*
X157541D02*
X157837D01*
X157832Y023909D01*
X157797Y023823D01*
X15774Y02375D01*
X157667Y023694D01*
X157582Y023659D01*
X157541Y023654D01*
Y02395D01*
D02*
G37*
G36*
X158344D02*
X158641D01*
Y023654D01*
X1586Y023659D01*
X158514Y023694D01*
X158441Y02375D01*
X158385Y023823D01*
X15835Y023909D01*
X158344Y02395D01*
D02*
G37*
G36*
X158741D02*
X159037D01*
X159032Y023909D01*
X158997Y023823D01*
X15894Y02375D01*
X158867Y023694D01*
X158782Y023659D01*
X158741Y023654D01*
Y02395D01*
D02*
G37*
G36*
X139441Y023146D02*
Y02285D01*
X139144D01*
X13915Y022891D01*
X139185Y022977D01*
X139241Y02305D01*
X139314Y023106D01*
X139399Y023141D01*
X139441Y023146D01*
D02*
G37*
G36*
X139541D02*
X139582Y023141D01*
X139667Y023106D01*
X13974Y02305D01*
X139797Y022977D01*
X139832Y022891D01*
X139837Y02285D01*
X139541D01*
Y023146D01*
D02*
G37*
G36*
X140641D02*
Y02285D01*
X140344D01*
X14035Y022891D01*
X140385Y022977D01*
X140441Y02305D01*
X140514Y023106D01*
X140599Y023141D01*
X140641Y023146D01*
D02*
G37*
G36*
X140741D02*
X140782Y023141D01*
X140867Y023106D01*
X14094Y02305D01*
X140997Y022977D01*
X141032Y022891D01*
X141037Y02285D01*
X140741D01*
Y023146D01*
D02*
G37*
G36*
X158641D02*
Y02285D01*
X158344D01*
X15835Y022891D01*
X158385Y022977D01*
X158441Y02305D01*
X158514Y023106D01*
X1586Y023141D01*
X158641Y023146D01*
D02*
G37*
G36*
X158741D02*
X158782Y023141D01*
X158867Y023106D01*
X15894Y02305D01*
X158997Y022977D01*
X159032Y022891D01*
X159037Y02285D01*
X158741D01*
Y023146D01*
D02*
G37*
G36*
X139144Y02275D02*
X139441D01*
Y022454D01*
X139399Y022459D01*
X139314Y022494D01*
X139241Y02255D01*
X139185Y022623D01*
X13915Y022709D01*
X139144Y02275D01*
D02*
G37*
G36*
X139541D02*
X139837D01*
X139832Y022709D01*
X139797Y022623D01*
X13974Y02255D01*
X139667Y022494D01*
X139582Y022459D01*
X139541Y022454D01*
Y02275D01*
D02*
G37*
G36*
X140344D02*
X140641D01*
Y022454D01*
X140599Y022459D01*
X140514Y022494D01*
X140441Y02255D01*
X140385Y022623D01*
X14035Y022709D01*
X140344Y02275D01*
D02*
G37*
G36*
X140741D02*
X141037D01*
X141032Y022709D01*
X140997Y022623D01*
X14094Y02255D01*
X140867Y022494D01*
X140782Y022459D01*
X140741Y022454D01*
Y02275D01*
D02*
G37*
G36*
X158344D02*
X158641D01*
Y022454D01*
X1586Y022459D01*
X158514Y022494D01*
X158441Y02255D01*
X158385Y022623D01*
X15835Y022709D01*
X158344Y02275D01*
D02*
G37*
G36*
X158741D02*
X159037D01*
X159032Y022709D01*
X158997Y022623D01*
X15894Y02255D01*
X158867Y022494D01*
X158782Y022459D01*
X158741Y022454D01*
Y02275D01*
D02*
G37*
G36*
X137041Y021946D02*
Y02165D01*
X136744D01*
X13675Y021691D01*
X136785Y021777D01*
X136841Y02185D01*
X136914Y021906D01*
X137Y021941D01*
X137041Y021946D01*
D02*
G37*
G36*
X137141D02*
X137182Y021941D01*
X137267Y021906D01*
X13734Y02185D01*
X137397Y021777D01*
X137432Y021691D01*
X137437Y02165D01*
X137141D01*
Y021946D01*
D02*
G37*
G36*
X139441D02*
Y02165D01*
X139144D01*
X13915Y021691D01*
X139185Y021777D01*
X139241Y02185D01*
X139314Y021906D01*
X139399Y021941D01*
X139441Y021946D01*
D02*
G37*
G36*
X139541D02*
X139582Y021941D01*
X139667Y021906D01*
X13974Y02185D01*
X139797Y021777D01*
X139832Y021691D01*
X139837Y02165D01*
X139541D01*
Y021946D01*
D02*
G37*
G36*
X140641D02*
Y02165D01*
X140344D01*
X14035Y021691D01*
X140385Y021777D01*
X140441Y02185D01*
X140514Y021906D01*
X140599Y021941D01*
X140641Y021946D01*
D02*
G37*
G36*
X140741D02*
X140782Y021941D01*
X140867Y021906D01*
X14094Y02185D01*
X140997Y021777D01*
X141032Y021691D01*
X141037Y02165D01*
X140741D01*
Y021946D01*
D02*
G37*
G36*
X141841D02*
Y02165D01*
X141544D01*
X14155Y021691D01*
X141585Y021777D01*
X141641Y02185D01*
X141714Y021906D01*
X141799Y021941D01*
X141841Y021946D01*
D02*
G37*
G36*
X141941D02*
X141982Y021941D01*
X142067Y021906D01*
X14214Y02185D01*
X142197Y021777D01*
X142232Y021691D01*
X142237Y02165D01*
X141941D01*
Y021946D01*
D02*
G37*
G36*
X136744Y02155D02*
X137041D01*
Y021254D01*
X137Y021259D01*
X136914Y021294D01*
X136841Y02135D01*
X136785Y021423D01*
X13675Y021509D01*
X136744Y02155D01*
D02*
G37*
G36*
X137141D02*
X137437D01*
X137432Y021509D01*
X137397Y021423D01*
X13734Y02135D01*
X137267Y021294D01*
X137182Y021259D01*
X137141Y021254D01*
Y02155D01*
D02*
G37*
G36*
X139144D02*
X139441D01*
Y021254D01*
X139399Y021259D01*
X139314Y021294D01*
X139241Y02135D01*
X139185Y021423D01*
X13915Y021509D01*
X139144Y02155D01*
D02*
G37*
G36*
X139541D02*
X139837D01*
X139832Y021509D01*
X139797Y021423D01*
X13974Y02135D01*
X139667Y021294D01*
X139582Y021259D01*
X139541Y021254D01*
Y02155D01*
D02*
G37*
G36*
X140344D02*
X140641D01*
Y021254D01*
X140599Y021259D01*
X140514Y021294D01*
X140441Y02135D01*
X140385Y021423D01*
X14035Y021509D01*
X140344Y02155D01*
D02*
G37*
G36*
X140741D02*
X141037D01*
X141032Y021509D01*
X140997Y021423D01*
X14094Y02135D01*
X140867Y021294D01*
X140782Y021259D01*
X140741Y021254D01*
Y02155D01*
D02*
G37*
G36*
X141544D02*
X141841D01*
Y021254D01*
X141799Y021259D01*
X141714Y021294D01*
X141641Y02135D01*
X141585Y021423D01*
X14155Y021509D01*
X141544Y02155D01*
D02*
G37*
G36*
X141941D02*
X142237D01*
X142232Y021509D01*
X142197Y021423D01*
X14214Y02135D01*
X142067Y021294D01*
X141982Y021259D01*
X141941Y021254D01*
Y02155D01*
D02*
G37*
G36*
X141355Y020692D02*
X142339D01*
Y020535D01*
X142389Y02051D01*
X142435Y020545D01*
X142531Y020585D01*
X142585Y020592D01*
Y0202D01*
Y019808D01*
X142531Y019815D01*
X142435Y019855D01*
X142389Y01989D01*
X142339Y019865D01*
Y019708D01*
X141355D01*
Y020692D01*
D02*
G37*
G36*
X144241Y020746D02*
Y02045D01*
X143944D01*
X14395Y020491D01*
X143985Y020577D01*
X144041Y02065D01*
X144114Y020706D01*
X144199Y020741D01*
X144241Y020746D01*
D02*
G37*
G36*
X144341D02*
X144382Y020741D01*
X144467Y020706D01*
X14454Y02065D01*
X144597Y020577D01*
X144632Y020491D01*
X144637Y02045D01*
X144341D01*
Y020746D01*
D02*
G37*
G36*
X152641D02*
Y02045D01*
X152344D01*
X15235Y020491D01*
X152385Y020577D01*
X152441Y02065D01*
X152514Y020706D01*
X152599Y020741D01*
X152641Y020746D01*
D02*
G37*
G36*
X152741D02*
X152782Y020741D01*
X152867Y020706D01*
X15294Y02065D01*
X152997Y020577D01*
X153032Y020491D01*
X153037Y02045D01*
X152741D01*
Y020746D01*
D02*
G37*
G36*
X155041D02*
Y02045D01*
X154744D01*
X15475Y020491D01*
X154785Y020577D01*
X154841Y02065D01*
X154914Y020706D01*
X155Y020741D01*
X155041Y020746D01*
D02*
G37*
G36*
X155141D02*
X155182Y020741D01*
X155267Y020706D01*
X15534Y02065D01*
X155397Y020577D01*
X155432Y020491D01*
X155437Y02045D01*
X155141D01*
Y020746D01*
D02*
G37*
G36*
X157441D02*
Y02045D01*
X157144D01*
X15715Y020491D01*
X157185Y020577D01*
X157241Y02065D01*
X157314Y020706D01*
X1574Y020741D01*
X157441Y020746D01*
D02*
G37*
G36*
X157541D02*
X157582Y020741D01*
X157667Y020706D01*
X15774Y02065D01*
X157797Y020577D01*
X157832Y020491D01*
X157837Y02045D01*
X157541D01*
Y020746D01*
D02*
G37*
G36*
X15076Y020621D02*
Y020325D01*
X150464D01*
X150469Y020366D01*
X150505Y020452D01*
X150561Y020525D01*
X150634Y020581D01*
X150719Y020616D01*
X15076Y020621D01*
D02*
G37*
G36*
X15086D02*
X150902Y020616D01*
X150987Y020581D01*
X15106Y020525D01*
X151116Y020452D01*
X151151Y020366D01*
X151157Y020325D01*
X15086D01*
Y020621D01*
D02*
G37*
G36*
X149691Y020604D02*
Y020308D01*
X149394D01*
X1494Y020349D01*
X149435Y020434D01*
X149491Y020508D01*
X149564Y020564D01*
X149649Y020599D01*
X149691Y020604D01*
D02*
G37*
G36*
X149791D02*
X149832Y020599D01*
X149917Y020564D01*
X14999Y020508D01*
X150047Y020434D01*
X150082Y020349D01*
X150087Y020308D01*
X149791D01*
Y020604D01*
D02*
G37*
G36*
X151672Y020596D02*
Y0203D01*
X151375D01*
X151381Y020341D01*
X151416Y020427D01*
X151472Y0205D01*
X151545Y020556D01*
X15163Y020591D01*
X151672Y020596D01*
D02*
G37*
G36*
X151772D02*
X151813Y020591D01*
X151898Y020556D01*
X151971Y0205D01*
X152027Y020427D01*
X152063Y020341D01*
X152068Y0203D01*
X151772D01*
Y020596D01*
D02*
G37*
G36*
X142685Y020592D02*
X142738Y020585D01*
X142834Y020545D01*
X142916Y020482D01*
X14298Y020399D01*
X14302Y020303D01*
X143027Y02025D01*
X142685D01*
Y020592D01*
D02*
G37*
G36*
X143944Y02035D02*
X144241D01*
Y020054D01*
X144199Y020059D01*
X144114Y020094D01*
X144041Y02015D01*
X143985Y020223D01*
X14395Y020309D01*
X143944Y02035D01*
D02*
G37*
G36*
X144341D02*
X144637D01*
X144632Y020309D01*
X144597Y020223D01*
X14454Y02015D01*
X144467Y020094D01*
X144382Y020059D01*
X144341Y020054D01*
Y02035D01*
D02*
G37*
G36*
X154744D02*
X155041D01*
Y020054D01*
X155Y020059D01*
X154914Y020094D01*
X154841Y02015D01*
X154785Y020223D01*
X15475Y020309D01*
X154744Y02035D01*
D02*
G37*
G36*
X155141D02*
X155437D01*
X155432Y020309D01*
X155397Y020223D01*
X15534Y02015D01*
X155267Y020094D01*
X155182Y020059D01*
X155141Y020054D01*
Y02035D01*
D02*
G37*
G36*
X157144D02*
X157441D01*
Y020054D01*
X1574Y020059D01*
X157314Y020094D01*
X157241Y02015D01*
X157185Y020223D01*
X15715Y020309D01*
X157144Y02035D01*
D02*
G37*
G36*
X157541D02*
X157837D01*
X157832Y020309D01*
X157797Y020223D01*
X15774Y02015D01*
X157667Y020094D01*
X157582Y020059D01*
X157541Y020054D01*
Y02035D01*
D02*
G37*
G36*
X150464Y020225D02*
X15076D01*
Y019929D01*
X150719Y019934D01*
X150634Y019969D01*
X150561Y020025D01*
X150505Y020098D01*
X150469Y020184D01*
X150464Y020225D01*
D02*
G37*
G36*
X15086D02*
X151157D01*
X151151Y020184D01*
X151116Y020098D01*
X15106Y020025D01*
X150987Y019969D01*
X150902Y019934D01*
X15086Y019929D01*
Y020225D01*
D02*
G37*
G36*
X149394Y020208D02*
X149691D01*
Y019911D01*
X149649Y019917D01*
X149564Y019952D01*
X149491Y020008D01*
X149435Y020081D01*
X1494Y020167D01*
X149394Y020208D01*
D02*
G37*
G36*
X149791D02*
X150087D01*
X150082Y020167D01*
X150047Y020081D01*
X14999Y020008D01*
X149917Y019952D01*
X149832Y019917D01*
X149791Y019911D01*
Y020208D01*
D02*
G37*
G36*
X151375Y0202D02*
X151672D01*
Y019904D01*
X15163Y019909D01*
X151545Y019944D01*
X151472Y02D01*
X151416Y020073D01*
X151381Y020159D01*
X151375Y0202D01*
D02*
G37*
G36*
X151772D02*
X152068D01*
X152063Y020159D01*
X152027Y020073D01*
X151971Y02D01*
X151898Y019944D01*
X151813Y019909D01*
X151772Y019904D01*
Y0202D01*
D02*
G37*
G36*
X152344Y02035D02*
X153037D01*
X153032Y020309D01*
X152997Y020223D01*
X15294Y02015D01*
X152867Y020094D01*
X15279Y020062D01*
X152779Y020031D01*
X152777Y020008D01*
X15283Y019939D01*
X152865Y019854D01*
X15287Y019813D01*
X152177D01*
X152183Y019854D01*
X152218Y019939D01*
X152274Y020012D01*
X152347Y020068D01*
X152424Y0201D01*
X152435Y020132D01*
X152438Y020155D01*
X152385Y020223D01*
X15235Y020309D01*
X152344Y02035D01*
D02*
G37*
G36*
X142685Y02015D02*
X143027D01*
X14302Y020097D01*
X14298Y020001D01*
X142916Y019918D01*
X142834Y019855D01*
X142738Y019815D01*
X142685Y019808D01*
Y02015D01*
D02*
G37*
G36*
X143041Y019546D02*
Y01925D01*
X142744D01*
X14275Y019291D01*
X142785Y019377D01*
X142841Y01945D01*
X142914Y019506D01*
X142999Y019541D01*
X143041Y019546D01*
D02*
G37*
G36*
X143141D02*
X143182Y019541D01*
X143267Y019506D01*
X14334Y01945D01*
X143397Y019377D01*
X143432Y019291D01*
X143437Y01925D01*
X143141D01*
Y019546D01*
D02*
G37*
G36*
X142744Y01915D02*
X143041D01*
Y018854D01*
X142999Y018859D01*
X142914Y018894D01*
X142841Y01895D01*
X142785Y019023D01*
X14275Y019109D01*
X142744Y01915D01*
D02*
G37*
G36*
X143141D02*
X143437D01*
X143432Y019109D01*
X143397Y019023D01*
X14334Y01895D01*
X143267Y018894D01*
X143182Y018859D01*
X143141Y018854D01*
Y01915D01*
D02*
G37*
G36*
X154357Y017396D02*
Y0171D01*
X154061D01*
X154066Y017141D01*
X154102Y017227D01*
X154158Y0173D01*
X154231Y017356D01*
X154316Y017391D01*
X154357Y017396D01*
D02*
G37*
G36*
X154457D02*
X154499Y017391D01*
X154584Y017356D01*
X154657Y0173D01*
X154713Y017227D01*
X154748Y017141D01*
X154754Y0171D01*
X154457D01*
Y017396D01*
D02*
G37*
G36*
X154061Y017D02*
X154357D01*
Y016704D01*
X154316Y016709D01*
X154231Y016744D01*
X154158Y0168D01*
X154102Y016873D01*
X154066Y016959D01*
X154061Y017D01*
D02*
G37*
G36*
X154457D02*
X154754D01*
X154748Y016959D01*
X154713Y016873D01*
X154657Y0168D01*
X154584Y016744D01*
X154499Y016709D01*
X154457Y016704D01*
Y017D01*
D02*
G37*
G36*
X154541Y016496D02*
Y0162D01*
X154244D01*
X15425Y016241D01*
X154285Y016327D01*
X154341Y0164D01*
X154414Y016456D01*
X1545Y016491D01*
X154541Y016496D01*
D02*
G37*
G36*
X154641D02*
X154682Y016491D01*
X154767Y016456D01*
X15484Y0164D01*
X154897Y016327D01*
X154932Y016241D01*
X154937Y0162D01*
X154641D01*
Y016496D01*
D02*
G37*
G36*
X154244Y0161D02*
X154541D01*
Y015804D01*
X1545Y015809D01*
X154414Y015844D01*
X154341Y0159D01*
X154285Y015973D01*
X15425Y016059D01*
X154244Y0161D01*
D02*
G37*
G36*
X154641D02*
X154937D01*
X154932Y016059D01*
X154897Y015973D01*
X15484Y0159D01*
X154767Y015844D01*
X154682Y015809D01*
X154641Y015804D01*
Y0161D01*
D02*
G37*
G36*
X153841Y015946D02*
Y01565D01*
X153544D01*
X15355Y015691D01*
X153585Y015777D01*
X153641Y01585D01*
X153714Y015906D01*
X153799Y015941D01*
X153841Y015946D01*
D02*
G37*
G36*
X153941D02*
X153982Y015941D01*
X154067Y015906D01*
X15414Y01585D01*
X154197Y015777D01*
X154232Y015691D01*
X154237Y01565D01*
X153941D01*
Y015946D01*
D02*
G37*
G36*
X156741Y015646D02*
Y0153D01*
X156395D01*
X156402Y015354D01*
X156442Y015451D01*
X156506Y015535D01*
X15659Y015599D01*
X156687Y015639D01*
X156741Y015646D01*
D02*
G37*
G36*
X156841D02*
X156895Y015639D01*
X156992Y015599D01*
X157076Y015535D01*
X15714Y015451D01*
X15718Y015354D01*
X157187Y0153D01*
X156841D01*
Y015646D01*
D02*
G37*
G36*
X153544Y01555D02*
X153841D01*
Y015254D01*
X153799Y015259D01*
X153714Y015294D01*
X153641Y01535D01*
X153585Y015423D01*
X15355Y015509D01*
X153544Y01555D01*
D02*
G37*
G36*
X153941D02*
X154237D01*
X154232Y015509D01*
X154197Y015423D01*
X15414Y01535D01*
X154067Y015294D01*
X153982Y015259D01*
X153941Y015254D01*
Y01555D01*
D02*
G37*
G36*
X154591Y015546D02*
Y01525D01*
X154294D01*
X1543Y015291D01*
X154335Y015377D01*
X154391Y01545D01*
X154464Y015506D01*
X15455Y015541D01*
X154591Y015546D01*
D02*
G37*
G36*
X154691D02*
X154732Y015541D01*
X154817Y015506D01*
X15489Y01545D01*
X154947Y015377D01*
X154982Y015291D01*
X154987Y01525D01*
X154691D01*
Y015546D01*
D02*
G37*
G36*
X156395Y0152D02*
X156741D01*
Y014854D01*
X156687Y014861D01*
X15659Y014901D01*
X156506Y014965D01*
X156442Y015049D01*
X156402Y015146D01*
X156395Y0152D01*
D02*
G37*
G36*
X156841D02*
X157187D01*
X15718Y015146D01*
X15714Y015049D01*
X157076Y014965D01*
X156992Y014901D01*
X156895Y014861D01*
X156841Y014854D01*
Y0152D01*
D02*
G37*
G36*
X154294Y01515D02*
X154591D01*
Y014854D01*
X15455Y014859D01*
X154464Y014894D01*
X154391Y01495D01*
X154335Y015023D01*
X1543Y015109D01*
X154294Y01515D01*
D02*
G37*
G36*
X154691D02*
X154987D01*
X154982Y015109D01*
X154947Y015023D01*
X15489Y01495D01*
X154817Y014894D01*
X154732Y014859D01*
X154691Y014854D01*
Y01515D01*
D02*
G37*
%LPD*%
G36*
X145311Y043072D02*
X145328Y043044D01*
X145343Y043015D01*
X145356Y042985D01*
X145367Y042953D01*
X145376Y042921D01*
X145383Y042888D01*
X145388Y042854D01*
X145391Y042819D01*
X145392Y042783D01*
X145589D01*
X14559Y042819D01*
X145593Y042854D01*
X145598Y042888D01*
X145605Y042921D01*
X145615Y042953D01*
X145626Y042985D01*
X145639Y043015D01*
X145654Y043044D01*
X145671Y043072D01*
X14569Y043099D01*
X145292D01*
X145311Y043072D01*
D02*
G37*
G36*
X147626Y043062D02*
X147649Y043037D01*
X147669Y043006D01*
X147687Y042968D01*
X147702Y042923D01*
X147716Y04287D01*
X147726Y042811D01*
X147735Y042745D01*
X147744Y042591D01*
X147745Y042504D01*
X147942Y042551D01*
X147942Y042645D01*
X147966Y043051D01*
X147973Y043073D01*
X14798Y043087D01*
X147626Y043062D01*
D02*
G37*
G36*
X147744Y033109D02*
X147726Y032889D01*
X147716Y03283D01*
X147702Y032777D01*
X147687Y032732D01*
X147669Y032694D01*
X147649Y032663D01*
X147626Y032638D01*
X14798Y032613D01*
X147973Y032627D01*
X147966Y032649D01*
X147961Y03268D01*
X147956Y03272D01*
X147945Y032894D01*
X147942Y033149D01*
X147745Y033196D01*
X147744Y033109D01*
D02*
G37*
G36*
X148839Y029379D02*
X148852Y029351D01*
X148864Y029316D01*
X148874Y029272D01*
X148883Y029221D01*
X148895Y029095D01*
X148901Y028937D01*
X148902Y028846D01*
X149099D01*
X1491Y028937D01*
X149119Y029221D01*
X149127Y029272D01*
X149137Y029316D01*
X149149Y029351D01*
X149163Y029379D01*
X149177Y029399D01*
X148824D01*
X148839Y029379D01*
D02*
G37*
G36*
X148057Y029379D02*
X148073Y029359D01*
X148086Y029331D01*
X148099Y029295D01*
X148109Y029252D01*
X148118Y0292D01*
X148132Y029074D01*
X148138Y028916D01*
X148139Y028825D01*
X148336Y028829D01*
X148336Y02892D01*
X148355Y029205D01*
X148363Y029257D01*
X148372Y0293D01*
X148384Y029335D01*
X148397Y029362D01*
X148411Y029381D01*
X148057Y029379D01*
D02*
G37*
G36*
X148292Y024489D02*
X148273Y024204D01*
X148264Y024153D01*
X148254Y024109D01*
X148242Y024074D01*
X148229Y024046D01*
X148214Y024027D01*
X148568D01*
X148553Y024046D01*
X14854Y024074D01*
X148528Y024109D01*
X148518Y024153D01*
X148509Y024204D01*
X148496Y024331D01*
X14849Y024489D01*
X148489Y02458D01*
X148292D01*
X148292Y024489D01*
D02*
G37*
G36*
X147275Y024389D02*
X147257Y024104D01*
X147248Y024053D01*
X147238Y024009D01*
X147226Y023974D01*
X147213Y023946D01*
X147198Y023927D01*
X147552D01*
X147537Y023946D01*
X147523Y023974D01*
X147512Y024009D01*
X147501Y024053D01*
X147493Y024104D01*
X14748Y024231D01*
X147474Y024389D01*
X147473Y02448D01*
X147276D01*
X147275Y024389D01*
D02*
G37*
G36*
X145691Y024258D02*
X145677Y024081D01*
X145669Y024032D01*
X145659Y023988D01*
X145647Y023949D01*
X145633Y023915D01*
X145618Y023887D01*
X1456Y023863D01*
X14598D01*
X145962Y023887D01*
X145947Y023915D01*
X145933Y023949D01*
X145921Y023988D01*
X145911Y024032D01*
X145903Y024081D01*
X145892Y024194D01*
X145889Y024258D01*
X145888Y024327D01*
X145692D01*
X145691Y024258D01*
D02*
G37*
%LPC*%
G36*
X136744Y01555D02*
X137041D01*
Y015254D01*
X137Y015259D01*
X136914Y015294D01*
X136841Y01535D01*
X136785Y015423D01*
X13675Y015509D01*
X136744Y01555D01*
D02*
G37*
G36*
X141094Y012945D02*
Y012648D01*
X140798D01*
X140803Y01269D01*
X140839Y012775D01*
X140895Y012848D01*
X140968Y012904D01*
X141053Y012939D01*
X141094Y012945D01*
D02*
G37*
G36*
X141194D02*
X141236Y012939D01*
X141321Y012904D01*
X141394Y012848D01*
X14145Y012775D01*
X141485Y01269D01*
X141491Y012648D01*
X141194D01*
Y012945D01*
D02*
G37*
G36*
X140798Y012548D02*
X141094D01*
Y012252D01*
X141053Y012257D01*
X140968Y012293D01*
X140895Y012349D01*
X140839Y012422D01*
X140803Y012507D01*
X140798Y012548D01*
D02*
G37*
G36*
X141194D02*
X141491D01*
X141485Y012507D01*
X14145Y012422D01*
X141394Y012349D01*
X141321Y012293D01*
X141236Y012257D01*
X141194Y012252D01*
Y012548D01*
D02*
G37*
G36*
X140291Y01055D02*
X140688D01*
X140679Y010483D01*
X140634Y010373D01*
X140562Y010279D01*
X140468Y010207D01*
X140358Y010162D01*
X140291Y010153D01*
Y01055D01*
D02*
G37*
%LPD*%
D62*
X142905Y043266D02*
D03*
X140149D02*
D03*
D82*
X138434Y019043D02*
G03*
X138141Y018336I000707J-000707D01*
G01*
X139348Y019957D02*
G03*
X139641Y020664I-000707J000707D01*
G01*
X141105Y0459D02*
G03*
X140398Y045607I0J-001D01*
G01*
X139684Y044893D02*
G03*
X139391Y044186I000707J-000707D01*
G01*
X141041Y043286D02*
G03*
X140748Y043993I-001J0D01*
G01*
X141041Y027114D02*
G03*
X141334Y026407I001J0D01*
G01*
X147241Y040336D02*
G03*
X146948Y041043I-001J0D01*
G01*
X145491Y042783D02*
G03*
X145691Y0423I000683J0D01*
G01*
X146948Y0259D02*
G03*
X147241Y026607I-000707J000707D01*
G01*
X146083Y025035D02*
G03*
X14579Y024327I000707J-000707D01*
G01*
X144699Y0193D02*
G03*
X143992Y019007I0J-001D01*
G01*
X141696Y017126D02*
G03*
X142403Y017419I0J001D01*
G01*
X151696Y0169D02*
G03*
X150696Y0179I-001J0D01*
G01*
X152291Y01745D02*
G03*
X151291Y01845I-001J0D01*
G01*
X152049Y019278D02*
G03*
X152027Y0193I-000022J0D01*
G01*
X152841Y0183D02*
G03*
X152049Y019278I-001J0D01*
G01*
X152841Y01395D02*
G03*
X153391Y0134I00055J0D01*
G01*
X156005Y01464D02*
G03*
X156395Y01425I00039J0D01*
G01*
X155416D02*
G03*
X156282Y013259I001J0D01*
G01*
D02*
G03*
X156416Y01325I000134J000991D01*
G01*
X156005Y018D02*
G03*
X155005Y019I-001J0D01*
G01*
X155416Y0174D02*
G03*
X154816Y018I-0006J0D01*
G01*
X148684Y025743D02*
G03*
X148391Y025036I000707J-000707D01*
G01*
X148708Y025767D02*
G03*
X149001Y026474I-000707J000707D01*
G01*
X147668Y025977D02*
G03*
X147375Y02527I000707J-000707D01*
G01*
X14794Y026249D02*
G03*
X148233Y026956I-000707J000707D01*
G01*
X139391Y027764D02*
G03*
X139684Y027057I001J0D01*
G01*
X144248Y022493D02*
G03*
X144955Y0222I000707J000707D01*
G01*
X156984Y021907D02*
G03*
X156277Y0222I-000707J-000707D01*
G01*
X158591Y019886D02*
G03*
X158298Y020593I-001J0D01*
G01*
X151523Y014318D02*
G03*
X150891Y01458I-000632J-000632D01*
G01*
X153523Y012318D02*
G03*
X15423Y012025I000707J000707D01*
G01*
X158585Y012844D02*
G03*
X158591Y01295I-000919J000106D01*
G01*
X157666Y012025D02*
G03*
X157772Y012031I0J000925D01*
G01*
X141981Y016205D02*
G03*
X142688Y016498I0J001D01*
G01*
X135234Y012893D02*
G03*
X134941Y012186I000707J-000707D01*
G01*
X135348Y013007D02*
G03*
X135641Y013714I-000707J000707D01*
G01*
X134941Y00985D02*
G03*
X135741Y00905I0008J0D01*
G01*
X135724Y012483D02*
G03*
X135441Y0118I000683J-000683D01*
G01*
X13584Y012599D02*
G03*
X136091Y013205I-000606J000605D01*
G01*
X136691Y0097D02*
G03*
X137241Y01025I0J00055D01*
G01*
X137491Y00905D02*
G03*
X13773Y009089I0J00075D01*
G01*
D02*
G03*
X138202Y009561I-000239J000711D01*
G01*
D02*
G03*
X138241Y0098I-000711J000239D01*
G01*
X137091Y016205D02*
G03*
X136091Y015205I0J-001D01*
G01*
X136641Y016502D02*
G03*
X135641Y015502I0J-001D01*
G01*
X138309Y015908D02*
G03*
X137601Y0152I0J-000708D01*
G01*
X139241Y01544D02*
G03*
X138241Y01444I0J-001D01*
G01*
X140191Y01445D02*
G03*
X139241Y0135I0J-00095D01*
G01*
X141241Y01387D02*
G03*
X141101Y01386I0J-001D01*
G01*
D02*
G03*
X140251Y01301I00014J-00099D01*
G01*
D02*
G03*
X140241Y01287I00099J-00014D01*
G01*
X151644Y013497D02*
G03*
X150937Y01379I-000707J-000707D01*
G01*
X140484Y024857D02*
G03*
X139777Y02515I-000707J-000707D01*
G01*
X141848Y016502D02*
G03*
X142555Y016794I0J001D01*
G01*
X144625Y01845D02*
G03*
X143918Y018157I0J-001D01*
G01*
X144505Y0179D02*
G03*
X143798Y017607I0J-001D01*
G01*
X151666Y016025D02*
G03*
X151696Y016269I-00097J000245D01*
G01*
X151503Y015678D02*
G03*
X151666Y016025I-000806J000591D01*
G01*
X150952Y01545D02*
G03*
X151503Y015678I0J000779D01*
G01*
X150377Y01545D02*
G03*
X150353Y01544I0J-000034D01*
G01*
X144548Y023193D02*
G03*
X145255Y0229I000707J000707D01*
G01*
X143598Y021743D02*
G03*
X144305Y02145I000707J000707D01*
G01*
X157534Y022607D02*
G03*
X156827Y0229I-000707J-000707D01*
G01*
X159191Y020536D02*
G03*
X158898Y021243I-001J0D01*
G01*
X153298Y011843D02*
G03*
X154005Y01155I000707J000707D01*
G01*
X158291D02*
G03*
X158397Y011556I0J0009D01*
G01*
D02*
G03*
X159185Y012344I-000106J000894D01*
G01*
D02*
G03*
X159191Y01245I-000894J000106D01*
G01*
X157772Y012031D02*
G03*
X158585Y012844I-000106J000919D01*
G01*
X137491Y03915D02*
Y0406D01*
X135541Y03015D02*
Y0323D01*
X138141Y01705D02*
Y018336D01*
X139348Y019957D02*
X138434Y019043D01*
X139641Y020664D02*
Y02345D01*
X14408Y0459D02*
X141105D01*
X140398Y045607D02*
X139684Y044893D01*
X139391Y027764D02*
Y044186D01*
X140748Y043993D02*
X140491Y04425D01*
X141041Y027114D02*
Y043286D01*
X144548Y023193D02*
X141334Y026407D01*
X147241Y026607D02*
Y040336D01*
X146948Y041043D02*
X145691Y0423D01*
X145491Y042783D02*
Y04325D01*
X146948Y0259D02*
X146495Y025446D01*
X14579Y0237D02*
Y024327D01*
X146495Y025446D02*
X146083Y025035D01*
X147844Y043197D02*
X147791Y04325D01*
X147844Y032503D02*
Y043197D01*
Y032503D02*
X147791Y03245D01*
X148237Y026961D02*
X148233Y026956D01*
X148237Y026961D02*
Y029552D01*
X148233Y029557D01*
X134641Y039362D02*
Y040937D01*
Y0415D01*
X134925Y041784D02*
X134641Y0415D01*
X152027Y0193D02*
X145941D01*
X144699D01*
X143992Y019007D02*
X142403Y017419D01*
X141696Y017126D02*
X141561D01*
X151696Y016269D02*
Y0169D01*
X150696Y0179D02*
X144505D01*
X151291Y01845D02*
X144625D01*
X152291Y01535D02*
Y01745D01*
X152841Y01395D02*
Y0183D01*
X156005Y01464D02*
Y018D01*
X156791Y01425D02*
X156395D01*
X156791Y01325D02*
X156416D01*
X155416Y01425D02*
Y0174D01*
X155005Y019D02*
X154541D01*
X154816Y018D02*
X154541D01*
X148708Y025767D02*
X148684Y025743D01*
X149001Y026474D02*
Y029575D01*
X14794Y026249D02*
X147668Y025977D01*
X135541Y0244D02*
Y03015D01*
X139641Y02345D02*
X138941Y02415D01*
X144248Y022493D02*
X139684Y027057D01*
X156277Y0222D02*
X144955D01*
X150891Y01458D02*
X150353D01*
X158298Y020593D02*
X156984Y021907D01*
X153523Y012318D02*
X151523Y014318D01*
X157666Y012025D02*
X15423D01*
X158591Y01295D02*
Y019886D01*
X135428Y042287D02*
X134925Y041784D01*
X136303Y042287D02*
X135428D01*
X134641Y038583D02*
Y039362D01*
Y024D02*
Y033858D01*
X138091Y02345D02*
X135191D01*
X143798Y017607D02*
X142688Y016498D01*
X141981Y016205D02*
X137091D01*
X134941Y00985D02*
Y012186D01*
X135348Y013007D02*
X135234Y012893D01*
X135641Y013714D02*
Y015502D01*
X13584Y012599D02*
X135724Y012483D01*
X136091Y013205D02*
Y015205D01*
X135441Y00995D02*
Y0118D01*
X136691Y0097D02*
X135691D01*
X137241Y01025D02*
Y0106D01*
X137491Y00905D02*
X135741D01*
X138241Y0098D02*
Y0106D01*
X141848Y016502D02*
X136641D01*
X141499Y015908D02*
X138309D01*
X137601Y01196D02*
Y0152D01*
X144891Y01544D02*
X139241D01*
X138241Y0116D02*
Y01444D01*
X144701Y01445D02*
X140191D01*
X139241Y0116D02*
Y0135D01*
X144891Y01387D02*
X141241D01*
X140241Y0116D02*
Y01287D01*
X153298Y011843D02*
X151644Y013497D01*
X150937Y01379D02*
X150353D01*
X143598Y021743D02*
X140484Y024857D01*
X139777Y02515D02*
X137941D01*
X147375Y02375D02*
Y02527D01*
X148391Y02385D02*
Y025036D01*
X143918Y018157D02*
X142555Y016794D01*
X150952Y01545D02*
X150377D01*
X13638Y0356D02*
X135941D01*
X136434Y035546D02*
X13638Y0356D01*
X136678Y035546D02*
X136434D01*
X136791Y035433D02*
X136678Y035546D01*
X138016Y031188D02*
X136928Y0301D01*
X138016Y031188D02*
Y036025D01*
X137608Y036433D01*
X136791D01*
X135691Y0097D02*
X135441Y00995D01*
X137601Y01196D02*
X137241Y0116D01*
X144569Y015898D02*
X141509D01*
X141499Y015908D01*
X144891Y01622D02*
X144569Y015898D01*
X144891Y01464D02*
X144701Y01445D01*
X138941Y02415D02*
X137941D01*
X156827Y0229D02*
X145255D01*
X156091Y02145D02*
X144305D01*
X158898Y021243D02*
X157534Y022607D01*
X159191Y01245D02*
Y020536D01*
X158291Y01155D02*
X154005D01*
X135491Y03235D02*
Y037744D01*
X138091Y02445D02*
X137941Y0243D01*
X135641D01*
X135541Y0244D01*
X135191Y02345D02*
X134641Y024D01*
X135591Y0301D02*
X135541Y03015D01*
X136141Y0301D02*
X135591D01*
X135541Y0323D02*
X135491Y03235D01*
X136303Y042287D02*
X135991Y0426D01*
D83*
X13584Y012599D02*
D03*
X150353Y01544D02*
D03*
D87*
X156261Y0442D02*
D03*
X158261D02*
D03*
Y0462D02*
D03*
X156261D02*
D03*
D88*
X157261Y0452D02*
D03*
D89*
X142635Y0202D02*
D03*
X137491Y0406D02*
D03*
X146441Y027562D02*
D03*
X136141Y0301D02*
D03*
D90*
X141847Y0202D02*
D03*
X136703Y0406D02*
D03*
X136928Y0301D02*
D03*
D91*
X146441Y026775D02*
D03*
D92*
X137941Y02315D02*
D03*
Y02515D02*
D03*
Y02215D02*
D03*
Y02415D02*
D03*
X136791Y034433D02*
D03*
Y036433D02*
D03*
Y033433D02*
D03*
X136791Y035433D02*
D03*
D93*
X156791Y01325D02*
D03*
D94*
Y01425D02*
D03*
Y01525D02*
D03*
Y01625D02*
D03*
D95*
X140641Y04425D02*
D03*
X142413D02*
D03*
D96*
X149941Y023778D02*
D03*
X150951D02*
D03*
D97*
X139241Y0106D02*
D03*
X136241Y0106D02*
D03*
X140241Y0116D02*
D03*
X140241Y0106D02*
D03*
X139241Y0116D02*
D03*
X138241Y0116D02*
D03*
X137241Y0116D02*
D03*
Y0106D02*
D03*
X138241Y0106D02*
D03*
D98*
X136241Y0116D02*
D03*
D99*
X14408Y0299D02*
D03*
D100*
X14608D02*
D03*
D101*
X150353Y01465D02*
D03*
Y01701D02*
D03*
Y01622D02*
D03*
Y01544D02*
D03*
Y01386D02*
D03*
Y01307D02*
D03*
Y01229D02*
D03*
Y0115D02*
D03*
X144891D02*
D03*
Y01702D02*
D03*
Y01622D02*
D03*
X144891Y01544D02*
D03*
X144891Y01464D02*
D03*
Y01387D02*
D03*
X144891Y01307D02*
D03*
Y01232D02*
D03*
D102*
X153541Y018D02*
D03*
Y019D02*
D03*
X154541Y018D02*
D03*
D103*
Y019D02*
D03*
D104*
X138291Y0436D02*
D03*
D105*
X136291Y0451D02*
D03*
Y0426D02*
D03*
D106*
X135891Y0288D02*
D03*
Y0276D02*
D03*
Y0264D02*
D03*
X137091Y0444D02*
D03*
Y0216D02*
D03*
Y0156D02*
D03*
X138291Y0456D02*
D03*
Y042D02*
D03*
Y0408D02*
D03*
X139491Y0456D02*
D03*
Y024D02*
D03*
Y0228D02*
D03*
Y0216D02*
D03*
X140691Y0228D02*
D03*
Y0216D02*
D03*
X141891Y0432D02*
D03*
Y042D02*
D03*
Y0408D02*
D03*
Y0396D02*
D03*
Y0216D02*
D03*
X143091Y042D02*
D03*
Y0408D02*
D03*
Y0396D02*
D03*
Y0192D02*
D03*
X144291Y042D02*
D03*
Y0408D02*
D03*
Y0396D02*
D03*
Y0204D02*
D03*
X145491Y0408D02*
D03*
Y0396D02*
D03*
Y0324D02*
D03*
Y0312D02*
D03*
Y0288D02*
D03*
Y0276D02*
D03*
X146691Y0456D02*
D03*
Y0444D02*
D03*
Y0432D02*
D03*
X149091Y0396D02*
D03*
Y0372D02*
D03*
X150291Y036D02*
D03*
Y0312D02*
D03*
Y0264D02*
D03*
X151491Y036D02*
D03*
X152691D02*
D03*
Y0204D02*
D03*
X153891Y0444D02*
D03*
Y0432D02*
D03*
Y042D02*
D03*
Y036D02*
D03*
Y0156D02*
D03*
X155091Y0444D02*
D03*
Y0432D02*
D03*
Y0384D02*
D03*
Y0372D02*
D03*
Y03D02*
D03*
Y0288D02*
D03*
Y0204D02*
D03*
X156291Y0432D02*
D03*
Y042D02*
D03*
Y0408D02*
D03*
Y0396D02*
D03*
Y0372D02*
D03*
Y0324D02*
D03*
Y03D02*
D03*
Y0288D02*
D03*
Y0276D02*
D03*
Y0264D02*
D03*
Y0252D02*
D03*
Y024D02*
D03*
X157491Y0372D02*
D03*
Y03D02*
D03*
Y0288D02*
D03*
Y0276D02*
D03*
Y0264D02*
D03*
Y0252D02*
D03*
Y024D02*
D03*
Y0204D02*
D03*
X158691Y0432D02*
D03*
Y042D02*
D03*
Y0408D02*
D03*
Y0396D02*
D03*
Y0384D02*
D03*
Y03D02*
D03*
Y0288D02*
D03*
Y0276D02*
D03*
Y0264D02*
D03*
Y0252D02*
D03*
Y024D02*
D03*
Y0228D02*
D03*
X149001Y029575D02*
D03*
X147791Y03245D02*
D03*
X148233Y029557D02*
D03*
X145491Y04325D02*
D03*
X14408Y0459D02*
D03*
X136991Y0295D02*
D03*
Y0285D02*
D03*
X137041Y030835D02*
D03*
X137101Y031587D02*
D03*
X137773Y0322D02*
D03*
X138271Y033175D02*
D03*
X147791Y04325D02*
D03*
X134985Y041724D02*
D03*
X134591Y040937D02*
D03*
Y039362D02*
D03*
Y037787D02*
D03*
Y036212D02*
D03*
Y034637D02*
D03*
X135772Y041724D02*
D03*
X135378Y040937D02*
D03*
X136559Y041724D02*
D03*
X135633Y031496D02*
D03*
X141144Y012598D02*
D03*
X143507Y028346D02*
D03*
X151381Y025197D02*
D03*
X152168D02*
D03*
X156892Y037795D02*
D03*
X137291Y028D02*
D03*
Y0273D02*
D03*
Y0266D02*
D03*
X137991Y028D02*
D03*
Y0273D02*
D03*
Y0266D02*
D03*
X137391Y03915D02*
D03*
X150059Y027213D02*
D03*
X149741Y020258D02*
D03*
X15081Y020275D02*
D03*
X151722Y02025D02*
D03*
X152524Y019763D02*
D03*
X154641Y0152D02*
D03*
X154591Y01615D02*
D03*
X154407Y01705D02*
D03*
X141561Y017126D02*
D03*
X145941Y0193D02*
D03*
X152291Y01535D02*
D03*
X148391Y02385D02*
D03*
X147375Y02375D02*
D03*
X137766Y0398D02*
D03*
X14579Y0237D02*
D03*
X156091Y02145D02*
D03*
X153391Y0134D02*
D03*
M02*
