G04*
G04 #@! TF.GenerationSoftware,Altium Limited,Altium Designer,20.1.12 (249)*
G04*
G04 Layer_Color=2752767*
%FSTAX24Y24*%
%MOIN*%
G70*
G04*
G04 #@! TF.SameCoordinates,6AE243D0-3920-4146-A994-36ACE33FB78E*
G04*
G04*
G04 #@! TF.FilePolarity,Positive*
G04*
G01*
G75*
%ADD108C,0.0020*%
%ADD109C,0.0027*%
%ADD110C,0.0013*%
D108*
X01315Y04412D02*
Y04428D01*
X01331D01*
Y04412D01*
X01315D01*
X01115D02*
Y04428D01*
X01131D01*
Y04412D01*
X01115D01*
Y04612D02*
Y04628D01*
X01131D01*
Y04612D01*
X01115D01*
X01315D02*
Y04628D01*
X01331D01*
Y04612D01*
X01315D01*
X01215Y04512D02*
Y04528D01*
X01231D01*
Y04512D01*
X01215D01*
X03155Y02307D02*
X03147Y02323D01*
X03163D01*
X03155Y02307D01*
Y02507D02*
X03147Y02523D01*
X03163D01*
X03155Y02507D01*
Y02207D02*
X03159Y02211D01*
X03163D01*
X03159Y02215D01*
X03163Y02219D01*
X03159D01*
X03155Y02223D01*
X03151Y02219D01*
X03147D01*
X03151Y02215D01*
X03147Y02211D01*
X03151D01*
X03155Y02207D01*
Y02407D02*
X03147Y02423D01*
X03163D01*
X03155Y02407D01*
X01262Y01317D02*
X01266Y01325D01*
X01262Y01333D01*
X0127Y01329D01*
X01278Y01333D01*
X01274Y01325D01*
X01278Y01317D01*
X0127Y01321D01*
X01262Y01317D01*
Y01417D02*
X01266Y01425D01*
X01262Y01433D01*
X0127Y01429D01*
X01278Y01433D01*
X01274Y01425D01*
X01278Y01417D01*
X0127Y01421D01*
X01262Y01417D01*
Y01517D02*
X01266Y01525D01*
X01262Y01533D01*
X0127Y01529D01*
X01278Y01533D01*
X01274Y01525D01*
X01278Y01517D01*
X0127Y01521D01*
X01262Y01517D01*
Y01617D02*
X01266Y01625D01*
X01262Y01633D01*
X0127Y01629D01*
X01278Y01633D01*
X01274Y01625D01*
X01278Y01617D01*
X0127Y01621D01*
X01262Y01617D01*
X02881Y04421D02*
Y04417D01*
X02889D01*
Y04421D01*
X02893D01*
Y04429D01*
X02889D01*
Y04433D01*
X02881D01*
Y04429D01*
X02877D01*
Y04421D01*
X02881D01*
X026506Y043186D02*
X026546D01*
X026586Y043226D01*
X026626Y043186D01*
X026666D01*
Y043226D01*
X026626Y043266D01*
X026666Y043306D01*
Y043346D01*
X026626D01*
X026586Y043306D01*
X026546Y043346D01*
X026506D01*
Y043306D01*
X026546Y043266D01*
X026506Y043226D01*
Y043186D01*
X029262D02*
X029302D01*
X029342Y043226D01*
X029382Y043186D01*
X029422D01*
Y043226D01*
X029382Y043266D01*
X029422Y043306D01*
Y043346D01*
X029382D01*
X029342Y043306D01*
X029302Y043346D01*
X029262D01*
Y043306D01*
X029302Y043266D01*
X029262Y043226D01*
Y043186D01*
X027038Y04421D02*
Y04417D01*
X027118D01*
Y04421D01*
X027158D01*
Y04429D01*
X027118D01*
Y04433D01*
X027038D01*
Y04429D01*
X026998D01*
Y04421D01*
X027038D01*
X01947Y023778D02*
X01955Y023858D01*
X01963Y023778D01*
X01955Y023698D01*
X01947Y023778D01*
X01846D02*
X01854Y023858D01*
X01862Y023778D01*
X01854Y023698D01*
X01846Y023778D01*
X0327Y034353D02*
X03262Y034513D01*
X03278D01*
X0327Y034353D01*
Y036353D02*
X03262Y036513D01*
X03278D01*
X0327Y036353D01*
Y033353D02*
X03274Y033393D01*
X03278D01*
X03274Y033433D01*
X03278Y033473D01*
X03274D01*
X0327Y033513D01*
X03266Y033473D01*
X03262D01*
X03266Y033433D01*
X03262Y033393D01*
X03266D01*
X0327Y033353D01*
X0327Y035353D02*
X03262Y035513D01*
X03278D01*
X0327Y035353D01*
X03021Y01056D02*
Y01052D01*
X03029D01*
Y01056D01*
X03033D01*
Y01064D01*
X03029D01*
Y01068D01*
X03021D01*
Y01064D01*
X03017D01*
Y01056D01*
X03021D01*
X03321Y01056D02*
Y01052D01*
X03329D01*
Y01056D01*
X03333D01*
Y01064D01*
X03329D01*
Y01068D01*
X03321D01*
Y01064D01*
X03317D01*
Y01056D01*
X03321D01*
X02921Y01156D02*
Y01152D01*
X02929D01*
Y01156D01*
X02933D01*
Y01164D01*
X02929D01*
Y01168D01*
X02921D01*
Y01164D01*
X02917D01*
Y01156D01*
X02921D01*
X02921Y01056D02*
Y01052D01*
X02929D01*
Y01056D01*
X02933D01*
Y01064D01*
X02929D01*
Y01068D01*
X02921D01*
Y01064D01*
X02917D01*
Y01056D01*
X02921D01*
X03321Y01156D02*
Y01152D01*
X03329D01*
Y01156D01*
X03333D01*
Y01164D01*
X03329D01*
Y01168D01*
X03321D01*
Y01164D01*
X03317D01*
Y01156D01*
X03321D01*
X03021Y01156D02*
Y01152D01*
X03029D01*
Y01156D01*
X03033D01*
Y01164D01*
X03029D01*
Y01168D01*
X03021D01*
Y01164D01*
X03017D01*
Y01156D01*
X03021D01*
X03121Y01156D02*
Y01152D01*
X03129D01*
Y01156D01*
X03133D01*
Y01164D01*
X03129D01*
Y01168D01*
X03121D01*
Y01164D01*
X03117D01*
Y01156D01*
X03121D01*
X03221Y01156D02*
Y01152D01*
X03229D01*
Y01156D01*
X03233D01*
Y01164D01*
X03229D01*
Y01168D01*
X03221D01*
Y01164D01*
X03217D01*
Y01156D01*
X03221D01*
Y01056D02*
Y01052D01*
X03229D01*
Y01056D01*
X03233D01*
Y01064D01*
X03229D01*
Y01068D01*
X03221D01*
Y01064D01*
X03217D01*
Y01056D01*
X03221D01*
X03121Y01056D02*
Y01052D01*
X03129D01*
Y01056D01*
X03133D01*
Y01064D01*
X03129D01*
Y01068D01*
X03121D01*
Y01064D01*
X03117D01*
Y01056D01*
X03121D01*
X02533Y02982D02*
X02537D01*
X02541Y02986D01*
X02545Y02982D01*
X02549D01*
Y02986D01*
X02545Y0299D01*
X02549Y02994D01*
Y02998D01*
X02545D01*
X02541Y02994D01*
X02537Y02998D01*
X02533D01*
Y02994D01*
X02537Y0299D01*
X02533Y02986D01*
Y02982D01*
X02333D02*
X02337D01*
X02341Y02986D01*
X02345Y02982D01*
X02349D01*
Y02986D01*
X02345Y0299D01*
X02349Y02994D01*
Y02998D01*
X02345D01*
X02341Y02994D01*
X02337Y02998D01*
X02333D01*
Y02994D01*
X02337Y0299D01*
X02333Y02986D01*
Y02982D01*
X019058Y01457D02*
Y01473D01*
X019218D01*
Y01457D01*
X019058D01*
X019098Y01461D02*
Y01469D01*
X019178D01*
Y01461D01*
X019098D01*
X019058Y01693D02*
Y01709D01*
X019218D01*
Y01693D01*
X019058D01*
X019098Y01697D02*
Y01705D01*
X019178D01*
Y01697D01*
X019098D01*
X019058Y01614D02*
Y0163D01*
X019218D01*
Y01614D01*
X019058D01*
X019098Y01618D02*
Y01626D01*
X019178D01*
Y01618D01*
X019098D01*
X019058Y01536D02*
Y01552D01*
X019218D01*
Y01536D01*
X019058D01*
X019098Y0154D02*
Y01548D01*
X019178D01*
Y0154D01*
X019098D01*
X019058Y01378D02*
Y01394D01*
X019218D01*
Y01378D01*
X019058D01*
X019098Y01382D02*
Y0139D01*
X019178D01*
Y01382D01*
X019098D01*
X019058Y01299D02*
Y01315D01*
X019218D01*
Y01299D01*
X019058D01*
X019098Y01303D02*
Y01311D01*
X019178D01*
Y01303D01*
X019098D01*
X019058Y01221D02*
Y01237D01*
X019218D01*
Y01221D01*
X019058D01*
X019098Y01225D02*
Y01233D01*
X019178D01*
Y01225D01*
X019098D01*
X019058Y01142D02*
Y01158D01*
X019218D01*
Y01142D01*
X019058D01*
X019098Y01146D02*
Y01154D01*
X019178D01*
Y01146D01*
X019098D01*
X02452Y01142D02*
Y01158D01*
X02468D01*
Y01142D01*
X02452D01*
X02456Y01146D02*
Y01154D01*
X02464D01*
Y01146D01*
X02456D01*
X02452Y01694D02*
Y0171D01*
X02468D01*
Y01694D01*
X02452D01*
X02456Y01698D02*
Y01706D01*
X02464D01*
Y01698D01*
X02456D01*
X02452Y01614D02*
Y0163D01*
X02468D01*
Y01614D01*
X02452D01*
X02456Y01618D02*
Y01626D01*
X02464D01*
Y01618D01*
X02456D01*
X02452Y01536D02*
Y01552D01*
X02468D01*
Y01536D01*
X02452D01*
X02456Y0154D02*
Y01548D01*
X02464D01*
Y0154D01*
X02456D01*
X02452Y01456D02*
Y01472D01*
X02468D01*
Y01456D01*
X02452D01*
X02456Y0146D02*
Y01468D01*
X02464D01*
Y0146D01*
X02456D01*
X02452Y01379D02*
Y01395D01*
X02468D01*
Y01379D01*
X02452D01*
X02456Y01383D02*
Y01391D01*
X02464D01*
Y01383D01*
X02456D01*
X02452Y01299D02*
Y01315D01*
X02468D01*
Y01299D01*
X02452D01*
X02456Y01303D02*
Y01311D01*
X02464D01*
Y01303D01*
X02456D01*
X02452Y01224D02*
Y0124D01*
X02468D01*
Y01224D01*
X02452D01*
X02456Y01228D02*
Y01236D01*
X02464D01*
Y01228D01*
X02456D01*
X0312Y04352D02*
X03112Y04368D01*
X03128D01*
X0312Y04352D01*
Y04356D02*
X03116Y04364D01*
X03124D01*
X0312Y04356D01*
X0332Y04502D02*
X03312Y04518D01*
X03328D01*
X0332Y04502D01*
Y04506D02*
X03316Y04514D01*
X03324D01*
X0332Y04506D01*
Y04252D02*
X03312Y04268D01*
X03328D01*
X0332Y04252D01*
Y04256D02*
X03316Y04264D01*
X03324D01*
X0332Y04256D01*
X0336Y02872D02*
X03364Y02876D01*
X03368D01*
X03364Y0288D01*
X03368Y02884D01*
X03364D01*
X0336Y02888D01*
X03356Y02884D01*
X03352D01*
X03356Y0288D01*
X03352Y02876D01*
X03356D01*
X0336Y02872D01*
Y02876D02*
X03362Y02878D01*
X03364D01*
X03362Y0288D01*
X03364Y02882D01*
X03362D01*
X0336Y02884D01*
X03358Y02882D01*
X03356D01*
X03358Y0288D01*
X03356Y02878D01*
X03358D01*
X0336Y02876D01*
Y02752D02*
X03364Y02756D01*
X03368D01*
X03364Y0276D01*
X03368Y02764D01*
X03364D01*
X0336Y02768D01*
X03356Y02764D01*
X03352D01*
X03356Y0276D01*
X03352Y02756D01*
X03356D01*
X0336Y02752D01*
Y02756D02*
X03362Y02758D01*
X03364D01*
X03362Y0276D01*
X03364Y02762D01*
X03362D01*
X0336Y02764D01*
X03358Y02762D01*
X03356D01*
X03358Y0276D01*
X03356Y02758D01*
X03358D01*
X0336Y02756D01*
Y02632D02*
X03364Y02636D01*
X03368D01*
X03364Y0264D01*
X03368Y02644D01*
X03364D01*
X0336Y02648D01*
X03356Y02644D01*
X03352D01*
X03356Y0264D01*
X03352Y02636D01*
X03356D01*
X0336Y02632D01*
Y02636D02*
X03362Y02638D01*
X03364D01*
X03362Y0264D01*
X03364Y02642D01*
X03362D01*
X0336Y02644D01*
X03358Y02642D01*
X03356D01*
X03358Y0264D01*
X03356Y02638D01*
X03358D01*
X0336Y02636D01*
X0324Y04432D02*
X03244Y04436D01*
X03248D01*
X03244Y0444D01*
X03248Y04444D01*
X03244D01*
X0324Y04448D01*
X03236Y04444D01*
X03232D01*
X03236Y0444D01*
X03232Y04436D01*
X03236D01*
X0324Y04432D01*
Y04436D02*
X03242Y04438D01*
X03244D01*
X03242Y0444D01*
X03244Y04442D01*
X03242D01*
X0324Y04444D01*
X03238Y04442D01*
X03236D01*
X03238Y0444D01*
X03236Y04438D01*
X03238D01*
X0324Y04436D01*
Y02152D02*
X03244Y02156D01*
X03248D01*
X03244Y0216D01*
X03248Y02164D01*
X03244D01*
X0324Y02168D01*
X03236Y02164D01*
X03232D01*
X03236Y0216D01*
X03232Y02156D01*
X03236D01*
X0324Y02152D01*
Y02156D02*
X03242Y02158D01*
X03244D01*
X03242Y0216D01*
X03244Y02162D01*
X03242D01*
X0324Y02164D01*
X03238Y02162D01*
X03236D01*
X03238Y0216D01*
X03236Y02158D01*
X03238D01*
X0324Y02156D01*
Y01552D02*
X03244Y01556D01*
X03248D01*
X03244Y0156D01*
X03248Y01564D01*
X03244D01*
X0324Y01568D01*
X03236Y01564D01*
X03232D01*
X03236Y0156D01*
X03232Y01556D01*
X03236D01*
X0324Y01552D01*
Y01556D02*
X03242Y01558D01*
X03244D01*
X03242Y0156D01*
X03244Y01562D01*
X03242D01*
X0324Y01564D01*
X03238Y01562D01*
X03236D01*
X03238Y0156D01*
X03236Y01558D01*
X03238D01*
X0324Y01556D01*
X0312Y04552D02*
X03124Y04556D01*
X03128D01*
X03124Y0456D01*
X03128Y04564D01*
X03124D01*
X0312Y04568D01*
X03116Y04564D01*
X03112D01*
X03116Y0456D01*
X03112Y04556D01*
X03116D01*
X0312Y04552D01*
Y04556D02*
X03122Y04558D01*
X03124D01*
X03122Y0456D01*
X03124Y04562D01*
X03122D01*
X0312Y04564D01*
X03118Y04562D01*
X03116D01*
X03118Y0456D01*
X03116Y04558D01*
X03118D01*
X0312Y04556D01*
Y04192D02*
X03124Y04196D01*
X03128D01*
X03124Y042D01*
X03128Y04204D01*
X03124D01*
X0312Y04208D01*
X03116Y04204D01*
X03112D01*
X03116Y042D01*
X03112Y04196D01*
X03116D01*
X0312Y04192D01*
Y04196D02*
X03122Y04198D01*
X03124D01*
X03122Y042D01*
X03124Y04202D01*
X03122D01*
X0312Y04204D01*
X03118Y04202D01*
X03116D01*
X03118Y042D01*
X03116Y04198D01*
X03118D01*
X0312Y04196D01*
Y04072D02*
X03124Y04076D01*
X03128D01*
X03124Y0408D01*
X03128Y04084D01*
X03124D01*
X0312Y04088D01*
X03116Y04084D01*
X03112D01*
X03116Y0408D01*
X03112Y04076D01*
X03116D01*
X0312Y04072D01*
Y04076D02*
X03122Y04078D01*
X03124D01*
X03122Y0408D01*
X03124Y04082D01*
X03122D01*
X0312Y04084D01*
X03118Y04082D01*
X03116D01*
X03118Y0408D01*
X03116Y04078D01*
X03118D01*
X0312Y04076D01*
X03Y04552D02*
X03004Y04556D01*
X03008D01*
X03004Y0456D01*
X03008Y04564D01*
X03004D01*
X03Y04568D01*
X02996Y04564D01*
X02992D01*
X02996Y0456D01*
X02992Y04556D01*
X02996D01*
X03Y04552D01*
Y04556D02*
X03002Y04558D01*
X03004D01*
X03002Y0456D01*
X03004Y04562D01*
X03002D01*
X03Y04564D01*
X02998Y04562D01*
X02996D01*
X02998Y0456D01*
X02996Y04558D01*
X02998D01*
X03Y04556D01*
Y02392D02*
X03004Y02396D01*
X03008D01*
X03004Y024D01*
X03008Y02404D01*
X03004D01*
X03Y02408D01*
X02996Y02404D01*
X02992D01*
X02996Y024D01*
X02992Y02396D01*
X02996D01*
X03Y02392D01*
Y02396D02*
X03002Y02398D01*
X03004D01*
X03002Y024D01*
X03004Y02402D01*
X03002D01*
X03Y02404D01*
X02998Y02402D01*
X02996D01*
X02998Y024D01*
X02996Y02398D01*
X02998D01*
X03Y02396D01*
Y02272D02*
X03004Y02276D01*
X03008D01*
X03004Y0228D01*
X03008Y02284D01*
X03004D01*
X03Y02288D01*
X02996Y02284D01*
X02992D01*
X02996Y0228D01*
X02992Y02276D01*
X02996D01*
X03Y02272D01*
Y02276D02*
X03002Y02278D01*
X03004D01*
X03002Y0228D01*
X03004Y02282D01*
X03002D01*
X03Y02284D01*
X02998Y02282D01*
X02996D01*
X02998Y0228D01*
X02996Y02278D01*
X02998D01*
X03Y02276D01*
Y02152D02*
X03004Y02156D01*
X03008D01*
X03004Y0216D01*
X03008Y02164D01*
X03004D01*
X03Y02168D01*
X02996Y02164D01*
X02992D01*
X02996Y0216D01*
X02992Y02156D01*
X02996D01*
X03Y02152D01*
Y02156D02*
X03002Y02158D01*
X03004D01*
X03002Y0216D01*
X03004Y02162D01*
X03002D01*
X03Y02164D01*
X02998Y02162D01*
X02996D01*
X02998Y0216D01*
X02996Y02158D01*
X02998D01*
X03Y02156D01*
X0288Y02272D02*
X02884Y02276D01*
X02888D01*
X02884Y0228D01*
X02888Y02284D01*
X02884D01*
X0288Y02288D01*
X02876Y02284D01*
X02872D01*
X02876Y0228D01*
X02872Y02276D01*
X02876D01*
X0288Y02272D01*
Y02276D02*
X02882Y02278D01*
X02884D01*
X02882Y0228D01*
X02884Y02282D01*
X02882D01*
X0288Y02284D01*
X02878Y02282D01*
X02876D01*
X02878Y0228D01*
X02876Y02278D01*
X02878D01*
X0288Y02276D01*
Y02152D02*
X02884Y02156D01*
X02888D01*
X02884Y0216D01*
X02888Y02164D01*
X02884D01*
X0288Y02168D01*
X02876Y02164D01*
X02872D01*
X02876Y0216D01*
X02872Y02156D01*
X02876D01*
X0288Y02152D01*
Y02156D02*
X02882Y02158D01*
X02884D01*
X02882Y0216D01*
X02884Y02162D01*
X02882D01*
X0288Y02164D01*
X02878Y02162D01*
X02876D01*
X02878Y0216D01*
X02876Y02158D01*
X02878D01*
X0288Y02156D01*
X0276Y04312D02*
X02764Y04316D01*
X02768D01*
X02764Y0432D01*
X02768Y04324D01*
X02764D01*
X0276Y04328D01*
X02756Y04324D01*
X02752D01*
X02756Y0432D01*
X02752Y04316D01*
X02756D01*
X0276Y04312D01*
Y04316D02*
X02762Y04318D01*
X02764D01*
X02762Y0432D01*
X02764Y04322D01*
X02762D01*
X0276Y04324D01*
X02758Y04322D01*
X02756D01*
X02758Y0432D01*
X02756Y04318D01*
X02758D01*
X0276Y04316D01*
Y04192D02*
X02764Y04196D01*
X02768D01*
X02764Y042D01*
X02768Y04204D01*
X02764D01*
X0276Y04208D01*
X02756Y04204D01*
X02752D01*
X02756Y042D01*
X02752Y04196D01*
X02756D01*
X0276Y04192D01*
Y04196D02*
X02762Y04198D01*
X02764D01*
X02762Y042D01*
X02764Y04202D01*
X02762D01*
X0276Y04204D01*
X02758Y04202D01*
X02756D01*
X02758Y042D01*
X02756Y04198D01*
X02758D01*
X0276Y04196D01*
Y04072D02*
X02764Y04076D01*
X02768D01*
X02764Y0408D01*
X02768Y04084D01*
X02764D01*
X0276Y04088D01*
X02756Y04084D01*
X02752D01*
X02756Y0408D01*
X02752Y04076D01*
X02756D01*
X0276Y04072D01*
Y04076D02*
X02762Y04078D01*
X02764D01*
X02762Y0408D01*
X02764Y04082D01*
X02762D01*
X0276Y04084D01*
X02758Y04082D01*
X02756D01*
X02758Y0408D01*
X02756Y04078D01*
X02758D01*
X0276Y04076D01*
Y03952D02*
X02764Y03956D01*
X02768D01*
X02764Y0396D01*
X02768Y03964D01*
X02764D01*
X0276Y03968D01*
X02756Y03964D01*
X02752D01*
X02756Y0396D01*
X02752Y03956D01*
X02756D01*
X0276Y03952D01*
Y03956D02*
X02762Y03958D01*
X02764D01*
X02762Y0396D01*
X02764Y03962D01*
X02762D01*
X0276Y03964D01*
X02758Y03962D01*
X02756D01*
X02758Y0396D01*
X02756Y03958D01*
X02758D01*
X0276Y03956D01*
Y02152D02*
X02764Y02156D01*
X02768D01*
X02764Y0216D01*
X02768Y02164D01*
X02764D01*
X0276Y02168D01*
X02756Y02164D01*
X02752D01*
X02756Y0216D01*
X02752Y02156D01*
X02756D01*
X0276Y02152D01*
Y02156D02*
X02762Y02158D01*
X02764D01*
X02762Y0216D01*
X02764Y02162D01*
X02762D01*
X0276Y02164D01*
X02758Y02162D01*
X02756D01*
X02758Y0216D01*
X02756Y02158D01*
X02758D01*
X0276Y02156D01*
X0264Y04192D02*
X02644Y04196D01*
X02648D01*
X02644Y042D01*
X02648Y04204D01*
X02644D01*
X0264Y04208D01*
X02636Y04204D01*
X02632D01*
X02636Y042D01*
X02632Y04196D01*
X02636D01*
X0264Y04192D01*
Y04196D02*
X02642Y04198D01*
X02644D01*
X02642Y042D01*
X02644Y04202D01*
X02642D01*
X0264Y04204D01*
X02638Y04202D01*
X02636D01*
X02638Y042D01*
X02636Y04198D01*
X02638D01*
X0264Y04196D01*
Y04072D02*
X02644Y04076D01*
X02648D01*
X02644Y0408D01*
X02648Y04084D01*
X02644D01*
X0264Y04088D01*
X02636Y04084D01*
X02632D01*
X02636Y0408D01*
X02632Y04076D01*
X02636D01*
X0264Y04072D01*
Y04076D02*
X02642Y04078D01*
X02644D01*
X02642Y0408D01*
X02644Y04082D01*
X02642D01*
X0264Y04084D01*
X02638Y04082D01*
X02636D01*
X02638Y0408D01*
X02636Y04078D01*
X02638D01*
X0264Y04076D01*
Y03952D02*
X02644Y03956D01*
X02648D01*
X02644Y0396D01*
X02648Y03964D01*
X02644D01*
X0264Y03968D01*
X02636Y03964D01*
X02632D01*
X02636Y0396D01*
X02632Y03956D01*
X02636D01*
X0264Y03952D01*
Y03956D02*
X02642Y03958D01*
X02644D01*
X02642Y0396D01*
X02644Y03962D01*
X02642D01*
X0264Y03964D01*
X02638Y03962D01*
X02636D01*
X02638Y0396D01*
X02636Y03958D01*
X02638D01*
X0264Y03956D01*
Y01912D02*
X02644Y01916D01*
X02648D01*
X02644Y0192D01*
X02648Y01924D01*
X02644D01*
X0264Y01928D01*
X02636Y01924D01*
X02632D01*
X02636Y0192D01*
X02632Y01916D01*
X02636D01*
X0264Y01912D01*
Y01916D02*
X02642Y01918D01*
X02644D01*
X02642Y0192D01*
X02644Y01922D01*
X02642D01*
X0264Y01924D01*
X02638Y01922D01*
X02636D01*
X02638Y0192D01*
X02636Y01918D01*
X02638D01*
X0264Y01916D01*
X0252Y04192D02*
X02524Y04196D01*
X02528D01*
X02524Y042D01*
X02528Y04204D01*
X02524D01*
X0252Y04208D01*
X02516Y04204D01*
X02512D01*
X02516Y042D01*
X02512Y04196D01*
X02516D01*
X0252Y04192D01*
Y04196D02*
X02522Y04198D01*
X02524D01*
X02522Y042D01*
X02524Y04202D01*
X02522D01*
X0252Y04204D01*
X02518Y04202D01*
X02516D01*
X02518Y042D01*
X02516Y04198D01*
X02518D01*
X0252Y04196D01*
Y04072D02*
X02524Y04076D01*
X02528D01*
X02524Y0408D01*
X02528Y04084D01*
X02524D01*
X0252Y04088D01*
X02516Y04084D01*
X02512D01*
X02516Y0408D01*
X02512Y04076D01*
X02516D01*
X0252Y04072D01*
Y04076D02*
X02522Y04078D01*
X02524D01*
X02522Y0408D01*
X02524Y04082D01*
X02522D01*
X0252Y04084D01*
X02518Y04082D01*
X02516D01*
X02518Y0408D01*
X02516Y04078D01*
X02518D01*
X0252Y04076D01*
Y03952D02*
X02524Y03956D01*
X02528D01*
X02524Y0396D01*
X02528Y03964D01*
X02524D01*
X0252Y03968D01*
X02516Y03964D01*
X02512D01*
X02516Y0396D01*
X02512Y03956D01*
X02516D01*
X0252Y03952D01*
Y03956D02*
X02522Y03958D01*
X02524D01*
X02522Y0396D01*
X02524Y03962D01*
X02522D01*
X0252Y03964D01*
X02518Y03962D01*
X02516D01*
X02518Y0396D01*
X02516Y03958D01*
X02518D01*
X0252Y03956D01*
Y02032D02*
X02524Y02036D01*
X02528D01*
X02524Y0204D01*
X02528Y02044D01*
X02524D01*
X0252Y02048D01*
X02516Y02044D01*
X02512D01*
X02516Y0204D01*
X02512Y02036D01*
X02516D01*
X0252Y02032D01*
Y02036D02*
X02522Y02038D01*
X02524D01*
X02522Y0204D01*
X02524Y02042D01*
X02522D01*
X0252Y02044D01*
X02518Y02042D01*
X02516D01*
X02518Y0204D01*
X02516Y02038D01*
X02518D01*
X0252Y02036D01*
X024Y04072D02*
X02404Y04076D01*
X02408D01*
X02404Y0408D01*
X02408Y04084D01*
X02404D01*
X024Y04088D01*
X02396Y04084D01*
X02392D01*
X02396Y0408D01*
X02392Y04076D01*
X02396D01*
X024Y04072D01*
Y04076D02*
X02402Y04078D01*
X02404D01*
X02402Y0408D01*
X02404Y04082D01*
X02402D01*
X024Y04084D01*
X02398Y04082D01*
X02396D01*
X02398Y0408D01*
X02396Y04078D01*
X02398D01*
X024Y04076D01*
Y03952D02*
X02404Y03956D01*
X02408D01*
X02404Y0396D01*
X02408Y03964D01*
X02404D01*
X024Y03968D01*
X02396Y03964D01*
X02392D01*
X02396Y0396D01*
X02392Y03956D01*
X02396D01*
X024Y03952D01*
Y03956D02*
X02402Y03958D01*
X02404D01*
X02402Y0396D01*
X02404Y03962D01*
X02402D01*
X024Y03964D01*
X02398Y03962D01*
X02396D01*
X02398Y0396D01*
X02396Y03958D01*
X02398D01*
X024Y03956D01*
Y03232D02*
X02404Y03236D01*
X02408D01*
X02404Y0324D01*
X02408Y03244D01*
X02404D01*
X024Y03248D01*
X02396Y03244D01*
X02392D01*
X02396Y0324D01*
X02392Y03236D01*
X02396D01*
X024Y03232D01*
Y03236D02*
X02402Y03238D01*
X02404D01*
X02402Y0324D01*
X02404Y03242D01*
X02402D01*
X024Y03244D01*
X02398Y03242D01*
X02396D01*
X02398Y0324D01*
X02396Y03238D01*
X02398D01*
X024Y03236D01*
Y03112D02*
X02404Y03116D01*
X02408D01*
X02404Y0312D01*
X02408Y03124D01*
X02404D01*
X024Y03128D01*
X02396Y03124D01*
X02392D01*
X02396Y0312D01*
X02392Y03116D01*
X02396D01*
X024Y03112D01*
Y03116D02*
X02402Y03118D01*
X02404D01*
X02402Y0312D01*
X02404Y03122D01*
X02402D01*
X024Y03124D01*
X02398Y03122D01*
X02396D01*
X02398Y0312D01*
X02396Y03118D01*
X02398D01*
X024Y03116D01*
Y02872D02*
X02404Y02876D01*
X02408D01*
X02404Y0288D01*
X02408Y02884D01*
X02404D01*
X024Y02888D01*
X02396Y02884D01*
X02392D01*
X02396Y0288D01*
X02392Y02876D01*
X02396D01*
X024Y02872D01*
Y02876D02*
X02402Y02878D01*
X02404D01*
X02402Y0288D01*
X02404Y02882D01*
X02402D01*
X024Y02884D01*
X02398Y02882D01*
X02396D01*
X02398Y0288D01*
X02396Y02878D01*
X02398D01*
X024Y02876D01*
Y02752D02*
X02404Y02756D01*
X02408D01*
X02404Y0276D01*
X02408Y02764D01*
X02404D01*
X024Y02768D01*
X02396Y02764D01*
X02392D01*
X02396Y0276D01*
X02392Y02756D01*
X02396D01*
X024Y02752D01*
Y02756D02*
X02402Y02758D01*
X02404D01*
X02402Y0276D01*
X02404Y02762D01*
X02402D01*
X024Y02764D01*
X02398Y02762D01*
X02396D01*
X02398Y0276D01*
X02396Y02758D01*
X02398D01*
X024Y02756D01*
X0228Y04552D02*
X02284Y04556D01*
X02288D01*
X02284Y0456D01*
X02288Y04564D01*
X02284D01*
X0228Y04568D01*
X02276Y04564D01*
X02272D01*
X02276Y0456D01*
X02272Y04556D01*
X02276D01*
X0228Y04552D01*
Y04556D02*
X02282Y04558D01*
X02284D01*
X02282Y0456D01*
X02284Y04562D01*
X02282D01*
X0228Y04564D01*
X02278Y04562D01*
X02276D01*
X02278Y0456D01*
X02276Y04558D01*
X02278D01*
X0228Y04556D01*
Y04432D02*
X02284Y04436D01*
X02288D01*
X02284Y0444D01*
X02288Y04444D01*
X02284D01*
X0228Y04448D01*
X02276Y04444D01*
X02272D01*
X02276Y0444D01*
X02272Y04436D01*
X02276D01*
X0228Y04432D01*
Y04436D02*
X02282Y04438D01*
X02284D01*
X02282Y0444D01*
X02284Y04442D01*
X02282D01*
X0228Y04444D01*
X02278Y04442D01*
X02276D01*
X02278Y0444D01*
X02276Y04438D01*
X02278D01*
X0228Y04436D01*
Y04312D02*
X02284Y04316D01*
X02288D01*
X02284Y0432D01*
X02288Y04324D01*
X02284D01*
X0228Y04328D01*
X02276Y04324D01*
X02272D01*
X02276Y0432D01*
X02272Y04316D01*
X02276D01*
X0228Y04312D01*
Y04316D02*
X02282Y04318D01*
X02284D01*
X02282Y0432D01*
X02284Y04322D01*
X02282D01*
X0228Y04324D01*
X02278Y04322D01*
X02276D01*
X02278Y0432D01*
X02276Y04318D01*
X02278D01*
X0228Y04316D01*
X0204Y03952D02*
X02044Y03956D01*
X02048D01*
X02044Y0396D01*
X02048Y03964D01*
X02044D01*
X0204Y03968D01*
X02036Y03964D01*
X02032D01*
X02036Y0396D01*
X02032Y03956D01*
X02036D01*
X0204Y03952D01*
Y03956D02*
X02042Y03958D01*
X02044D01*
X02042Y0396D01*
X02044Y03962D01*
X02042D01*
X0204Y03964D01*
X02038Y03962D01*
X02036D01*
X02038Y0396D01*
X02036Y03958D01*
X02038D01*
X0204Y03956D01*
Y03712D02*
X02044Y03716D01*
X02048D01*
X02044Y0372D01*
X02048Y03724D01*
X02044D01*
X0204Y03728D01*
X02036Y03724D01*
X02032D01*
X02036Y0372D01*
X02032Y03716D01*
X02036D01*
X0204Y03712D01*
Y03716D02*
X02042Y03718D01*
X02044D01*
X02042Y0372D01*
X02044Y03722D01*
X02042D01*
X0204Y03724D01*
X02038Y03722D01*
X02036D01*
X02038Y0372D01*
X02036Y03718D01*
X02038D01*
X0204Y03716D01*
X0192Y03592D02*
X01924Y03596D01*
X01928D01*
X01924Y036D01*
X01928Y03604D01*
X01924D01*
X0192Y03608D01*
X01916Y03604D01*
X01912D01*
X01916Y036D01*
X01912Y03596D01*
X01916D01*
X0192Y03592D01*
Y03596D02*
X01922Y03598D01*
X01924D01*
X01922Y036D01*
X01924Y03602D01*
X01922D01*
X0192Y03604D01*
X01918Y03602D01*
X01916D01*
X01918Y036D01*
X01916Y03598D01*
X01918D01*
X0192Y03596D01*
Y03112D02*
X01924Y03116D01*
X01928D01*
X01924Y0312D01*
X01928Y03124D01*
X01924D01*
X0192Y03128D01*
X01916Y03124D01*
X01912D01*
X01916Y0312D01*
X01912Y03116D01*
X01916D01*
X0192Y03112D01*
Y03116D02*
X01922Y03118D01*
X01924D01*
X01922Y0312D01*
X01924Y03122D01*
X01922D01*
X0192Y03124D01*
X01918Y03122D01*
X01916D01*
X01918Y0312D01*
X01916Y03118D01*
X01918D01*
X0192Y03116D01*
Y02632D02*
X01924Y02636D01*
X01928D01*
X01924Y0264D01*
X01928Y02644D01*
X01924D01*
X0192Y02648D01*
X01916Y02644D01*
X01912D01*
X01916Y0264D01*
X01912Y02636D01*
X01916D01*
X0192Y02632D01*
Y02636D02*
X01922Y02638D01*
X01924D01*
X01922Y0264D01*
X01924Y02642D01*
X01922D01*
X0192Y02644D01*
X01918Y02642D01*
X01916D01*
X01918Y0264D01*
X01916Y02638D01*
X01918D01*
X0192Y02636D01*
X018Y03592D02*
X01804Y03596D01*
X01808D01*
X01804Y036D01*
X01808Y03604D01*
X01804D01*
X018Y03608D01*
X01796Y03604D01*
X01792D01*
X01796Y036D01*
X01792Y03596D01*
X01796D01*
X018Y03592D01*
Y03596D02*
X01802Y03598D01*
X01804D01*
X01802Y036D01*
X01804Y03602D01*
X01802D01*
X018Y03604D01*
X01798Y03602D01*
X01796D01*
X01798Y036D01*
X01796Y03598D01*
X01798D01*
X018Y03596D01*
X0168Y03592D02*
X01684Y03596D01*
X01688D01*
X01684Y036D01*
X01688Y03604D01*
X01684D01*
X0168Y03608D01*
X01676Y03604D01*
X01672D01*
X01676Y036D01*
X01672Y03596D01*
X01676D01*
X0168Y03592D01*
Y03596D02*
X01682Y03598D01*
X01684D01*
X01682Y036D01*
X01684Y03602D01*
X01682D01*
X0168Y03604D01*
X01678Y03602D01*
X01676D01*
X01678Y036D01*
X01676Y03598D01*
X01678D01*
X0168Y03596D01*
Y02032D02*
X01684Y02036D01*
X01688D01*
X01684Y0204D01*
X01688Y02044D01*
X01684D01*
X0168Y02048D01*
X01676Y02044D01*
X01672D01*
X01676Y0204D01*
X01672Y02036D01*
X01676D01*
X0168Y02032D01*
Y02036D02*
X01682Y02038D01*
X01684D01*
X01682Y0204D01*
X01684Y02042D01*
X01682D01*
X0168Y02044D01*
X01678Y02042D01*
X01676D01*
X01678Y0204D01*
X01676Y02038D01*
X01678D01*
X0168Y02036D01*
X0156Y04432D02*
X01564Y04436D01*
X01568D01*
X01564Y0444D01*
X01568Y04444D01*
X01564D01*
X0156Y04448D01*
X01556Y04444D01*
X01552D01*
X01556Y0444D01*
X01552Y04436D01*
X01556D01*
X0156Y04432D01*
Y04436D02*
X01562Y04438D01*
X01564D01*
X01562Y0444D01*
X01564Y04442D01*
X01562D01*
X0156Y04444D01*
X01558Y04442D01*
X01556D01*
X01558Y0444D01*
X01556Y04438D01*
X01558D01*
X0156Y04436D01*
Y04312D02*
X01564Y04316D01*
X01568D01*
X01564Y0432D01*
X01568Y04324D01*
X01564D01*
X0156Y04328D01*
X01556Y04324D01*
X01552D01*
X01556Y0432D01*
X01552Y04316D01*
X01556D01*
X0156Y04312D01*
Y04316D02*
X01562Y04318D01*
X01564D01*
X01562Y0432D01*
X01564Y04322D01*
X01562D01*
X0156Y04324D01*
X01558Y04322D01*
X01556D01*
X01558Y0432D01*
X01556Y04318D01*
X01558D01*
X0156Y04316D01*
Y04192D02*
X01564Y04196D01*
X01568D01*
X01564Y042D01*
X01568Y04204D01*
X01564D01*
X0156Y04208D01*
X01556Y04204D01*
X01552D01*
X01556Y042D01*
X01552Y04196D01*
X01556D01*
X0156Y04192D01*
Y04196D02*
X01562Y04198D01*
X01564D01*
X01562Y042D01*
X01564Y04202D01*
X01562D01*
X0156Y04204D01*
X01558Y04202D01*
X01556D01*
X01558Y042D01*
X01556Y04198D01*
X01558D01*
X0156Y04196D01*
Y03592D02*
X01564Y03596D01*
X01568D01*
X01564Y036D01*
X01568Y03604D01*
X01564D01*
X0156Y03608D01*
X01556Y03604D01*
X01552D01*
X01556Y036D01*
X01552Y03596D01*
X01556D01*
X0156Y03592D01*
Y03596D02*
X01562Y03598D01*
X01564D01*
X01562Y036D01*
X01564Y03602D01*
X01562D01*
X0156Y03604D01*
X01558Y03602D01*
X01556D01*
X01558Y036D01*
X01556Y03598D01*
X01558D01*
X0156Y03596D01*
Y01552D02*
X01564Y01556D01*
X01568D01*
X01564Y0156D01*
X01568Y01564D01*
X01564D01*
X0156Y01568D01*
X01556Y01564D01*
X01552D01*
X01556Y0156D01*
X01552Y01556D01*
X01556D01*
X0156Y01552D01*
Y01556D02*
X01562Y01558D01*
X01564D01*
X01562Y0156D01*
X01564Y01562D01*
X01562D01*
X0156Y01564D01*
X01558Y01562D01*
X01556D01*
X01558Y0156D01*
X01556Y01558D01*
X01558D01*
X0156Y01556D01*
X0144Y04432D02*
X01444Y04436D01*
X01448D01*
X01444Y0444D01*
X01448Y04444D01*
X01444D01*
X0144Y04448D01*
X01436Y04444D01*
X01432D01*
X01436Y0444D01*
X01432Y04436D01*
X01436D01*
X0144Y04432D01*
Y04436D02*
X01442Y04438D01*
X01444D01*
X01442Y0444D01*
X01444Y04442D01*
X01442D01*
X0144Y04444D01*
X01438Y04442D01*
X01436D01*
X01438Y0444D01*
X01436Y04438D01*
X01438D01*
X0144Y04436D01*
Y04312D02*
X01444Y04316D01*
X01448D01*
X01444Y0432D01*
X01448Y04324D01*
X01444D01*
X0144Y04328D01*
X01436Y04324D01*
X01432D01*
X01436Y0432D01*
X01432Y04316D01*
X01436D01*
X0144Y04312D01*
Y04316D02*
X01442Y04318D01*
X01444D01*
X01442Y0432D01*
X01444Y04322D01*
X01442D01*
X0144Y04324D01*
X01438Y04322D01*
X01436D01*
X01438Y0432D01*
X01436Y04318D01*
X01438D01*
X0144Y04316D01*
Y03832D02*
X01444Y03836D01*
X01448D01*
X01444Y0384D01*
X01448Y03844D01*
X01444D01*
X0144Y03848D01*
X01436Y03844D01*
X01432D01*
X01436Y0384D01*
X01432Y03836D01*
X01436D01*
X0144Y03832D01*
Y03836D02*
X01442Y03838D01*
X01444D01*
X01442Y0384D01*
X01444Y03842D01*
X01442D01*
X0144Y03844D01*
X01438Y03842D01*
X01436D01*
X01438Y0384D01*
X01436Y03838D01*
X01438D01*
X0144Y03836D01*
Y03712D02*
X01444Y03716D01*
X01448D01*
X01444Y0372D01*
X01448Y03724D01*
X01444D01*
X0144Y03728D01*
X01436Y03724D01*
X01432D01*
X01436Y0372D01*
X01432Y03716D01*
X01436D01*
X0144Y03712D01*
Y03716D02*
X01442Y03718D01*
X01444D01*
X01442Y0372D01*
X01444Y03722D01*
X01442D01*
X0144Y03724D01*
X01438Y03722D01*
X01436D01*
X01438Y0372D01*
X01436Y03718D01*
X01438D01*
X0144Y03716D01*
Y02992D02*
X01444Y02996D01*
X01448D01*
X01444Y03D01*
X01448Y03004D01*
X01444D01*
X0144Y03008D01*
X01436Y03004D01*
X01432D01*
X01436Y03D01*
X01432Y02996D01*
X01436D01*
X0144Y02992D01*
Y02996D02*
X01442Y02998D01*
X01444D01*
X01442Y03D01*
X01444Y03002D01*
X01442D01*
X0144Y03004D01*
X01438Y03002D01*
X01436D01*
X01438Y03D01*
X01436Y02998D01*
X01438D01*
X0144Y02996D01*
Y02872D02*
X01444Y02876D01*
X01448D01*
X01444Y0288D01*
X01448Y02884D01*
X01444D01*
X0144Y02888D01*
X01436Y02884D01*
X01432D01*
X01436Y0288D01*
X01432Y02876D01*
X01436D01*
X0144Y02872D01*
Y02876D02*
X01442Y02878D01*
X01444D01*
X01442Y0288D01*
X01444Y02882D01*
X01442D01*
X0144Y02884D01*
X01438Y02882D01*
X01436D01*
X01438Y0288D01*
X01436Y02878D01*
X01438D01*
X0144Y02876D01*
Y02032D02*
X01444Y02036D01*
X01448D01*
X01444Y0204D01*
X01448Y02044D01*
X01444D01*
X0144Y02048D01*
X01436Y02044D01*
X01432D01*
X01436Y0204D01*
X01432Y02036D01*
X01436D01*
X0144Y02032D01*
Y02036D02*
X01442Y02038D01*
X01444D01*
X01442Y0204D01*
X01444Y02042D01*
X01442D01*
X0144Y02044D01*
X01438Y02042D01*
X01436D01*
X01438Y0204D01*
X01436Y02038D01*
X01438D01*
X0144Y02036D01*
X0132Y04312D02*
X01324Y04316D01*
X01328D01*
X01324Y0432D01*
X01328Y04324D01*
X01324D01*
X0132Y04328D01*
X01316Y04324D01*
X01312D01*
X01316Y0432D01*
X01312Y04316D01*
X01316D01*
X0132Y04312D01*
Y04316D02*
X01322Y04318D01*
X01324D01*
X01322Y0432D01*
X01324Y04322D01*
X01322D01*
X0132Y04324D01*
X01318Y04322D01*
X01316D01*
X01318Y0432D01*
X01316Y04318D01*
X01318D01*
X0132Y04316D01*
Y04192D02*
X01324Y04196D01*
X01328D01*
X01324Y042D01*
X01328Y04204D01*
X01324D01*
X0132Y04208D01*
X01316Y04204D01*
X01312D01*
X01316Y042D01*
X01312Y04196D01*
X01316D01*
X0132Y04192D01*
Y04196D02*
X01322Y04198D01*
X01324D01*
X01322Y042D01*
X01324Y04202D01*
X01322D01*
X0132Y04204D01*
X01318Y04202D01*
X01316D01*
X01318Y042D01*
X01316Y04198D01*
X01318D01*
X0132Y04196D01*
Y04072D02*
X01324Y04076D01*
X01328D01*
X01324Y0408D01*
X01328Y04084D01*
X01324D01*
X0132Y04088D01*
X01316Y04084D01*
X01312D01*
X01316Y0408D01*
X01312Y04076D01*
X01316D01*
X0132Y04072D01*
Y04076D02*
X01322Y04078D01*
X01324D01*
X01322Y0408D01*
X01324Y04082D01*
X01322D01*
X0132Y04084D01*
X01318Y04082D01*
X01316D01*
X01318Y0408D01*
X01316Y04078D01*
X01318D01*
X0132Y04076D01*
Y03952D02*
X01324Y03956D01*
X01328D01*
X01324Y0396D01*
X01328Y03964D01*
X01324D01*
X0132Y03968D01*
X01316Y03964D01*
X01312D01*
X01316Y0396D01*
X01312Y03956D01*
X01316D01*
X0132Y03952D01*
Y03956D02*
X01322Y03958D01*
X01324D01*
X01322Y0396D01*
X01324Y03962D01*
X01322D01*
X0132Y03964D01*
X01318Y03962D01*
X01316D01*
X01318Y0396D01*
X01316Y03958D01*
X01318D01*
X0132Y03956D01*
Y03712D02*
X01324Y03716D01*
X01328D01*
X01324Y0372D01*
X01328Y03724D01*
X01324D01*
X0132Y03728D01*
X01316Y03724D01*
X01312D01*
X01316Y0372D01*
X01312Y03716D01*
X01316D01*
X0132Y03712D01*
Y03716D02*
X01322Y03718D01*
X01324D01*
X01322Y0372D01*
X01324Y03722D01*
X01322D01*
X0132Y03724D01*
X01318Y03722D01*
X01316D01*
X01318Y0372D01*
X01316Y03718D01*
X01318D01*
X0132Y03716D01*
Y03232D02*
X01324Y03236D01*
X01328D01*
X01324Y0324D01*
X01328Y03244D01*
X01324D01*
X0132Y03248D01*
X01316Y03244D01*
X01312D01*
X01316Y0324D01*
X01312Y03236D01*
X01316D01*
X0132Y03232D01*
Y03236D02*
X01322Y03238D01*
X01324D01*
X01322Y0324D01*
X01324Y03242D01*
X01322D01*
X0132Y03244D01*
X01318Y03242D01*
X01316D01*
X01318Y0324D01*
X01316Y03238D01*
X01318D01*
X0132Y03236D01*
Y02992D02*
X01324Y02996D01*
X01328D01*
X01324Y03D01*
X01328Y03004D01*
X01324D01*
X0132Y03008D01*
X01316Y03004D01*
X01312D01*
X01316Y03D01*
X01312Y02996D01*
X01316D01*
X0132Y02992D01*
Y02996D02*
X01322Y02998D01*
X01324D01*
X01322Y03D01*
X01324Y03002D01*
X01322D01*
X0132Y03004D01*
X01318Y03002D01*
X01316D01*
X01318Y03D01*
X01316Y02998D01*
X01318D01*
X0132Y02996D01*
Y02872D02*
X01324Y02876D01*
X01328D01*
X01324Y0288D01*
X01328Y02884D01*
X01324D01*
X0132Y02888D01*
X01316Y02884D01*
X01312D01*
X01316Y0288D01*
X01312Y02876D01*
X01316D01*
X0132Y02872D01*
Y02876D02*
X01322Y02878D01*
X01324D01*
X01322Y0288D01*
X01324Y02882D01*
X01322D01*
X0132Y02884D01*
X01318Y02882D01*
X01316D01*
X01318Y0288D01*
X01316Y02878D01*
X01318D01*
X0132Y02876D01*
Y02752D02*
X01324Y02756D01*
X01328D01*
X01324Y0276D01*
X01328Y02764D01*
X01324D01*
X0132Y02768D01*
X01316Y02764D01*
X01312D01*
X01316Y0276D01*
X01312Y02756D01*
X01316D01*
X0132Y02752D01*
Y02756D02*
X01322Y02758D01*
X01324D01*
X01322Y0276D01*
X01324Y02762D01*
X01322D01*
X0132Y02764D01*
X01318Y02762D01*
X01316D01*
X01318Y0276D01*
X01316Y02758D01*
X01318D01*
X0132Y02756D01*
Y02632D02*
X01324Y02636D01*
X01328D01*
X01324Y0264D01*
X01328Y02644D01*
X01324D01*
X0132Y02648D01*
X01316Y02644D01*
X01312D01*
X01316Y0264D01*
X01312Y02636D01*
X01316D01*
X0132Y02632D01*
Y02636D02*
X01322Y02638D01*
X01324D01*
X01322Y0264D01*
X01324Y02642D01*
X01322D01*
X0132Y02644D01*
X01318Y02642D01*
X01316D01*
X01318Y0264D01*
X01316Y02638D01*
X01318D01*
X0132Y02636D01*
Y02512D02*
X01324Y02516D01*
X01328D01*
X01324Y0252D01*
X01328Y02524D01*
X01324D01*
X0132Y02528D01*
X01316Y02524D01*
X01312D01*
X01316Y0252D01*
X01312Y02516D01*
X01316D01*
X0132Y02512D01*
Y02516D02*
X01322Y02518D01*
X01324D01*
X01322Y0252D01*
X01324Y02522D01*
X01322D01*
X0132Y02524D01*
X01318Y02522D01*
X01316D01*
X01318Y0252D01*
X01316Y02518D01*
X01318D01*
X0132Y02516D01*
Y02392D02*
X01324Y02396D01*
X01328D01*
X01324Y024D01*
X01328Y02404D01*
X01324D01*
X0132Y02408D01*
X01316Y02404D01*
X01312D01*
X01316Y024D01*
X01312Y02396D01*
X01316D01*
X0132Y02392D01*
Y02396D02*
X01322Y02398D01*
X01324D01*
X01322Y024D01*
X01324Y02402D01*
X01322D01*
X0132Y02404D01*
X01318Y02402D01*
X01316D01*
X01318Y024D01*
X01316Y02398D01*
X01318D01*
X0132Y02396D01*
X012Y03712D02*
X01204Y03716D01*
X01208D01*
X01204Y0372D01*
X01208Y03724D01*
X01204D01*
X012Y03728D01*
X01196Y03724D01*
X01192D01*
X01196Y0372D01*
X01192Y03716D01*
X01196D01*
X012Y03712D01*
Y03716D02*
X01202Y03718D01*
X01204D01*
X01202Y0372D01*
X01204Y03722D01*
X01202D01*
X012Y03724D01*
X01198Y03722D01*
X01196D01*
X01198Y0372D01*
X01196Y03718D01*
X01198D01*
X012Y03716D01*
Y02992D02*
X01204Y02996D01*
X01208D01*
X01204Y03D01*
X01208Y03004D01*
X01204D01*
X012Y03008D01*
X01196Y03004D01*
X01192D01*
X01196Y03D01*
X01192Y02996D01*
X01196D01*
X012Y02992D01*
Y02996D02*
X01202Y02998D01*
X01204D01*
X01202Y03D01*
X01204Y03002D01*
X01202D01*
X012Y03004D01*
X01198Y03002D01*
X01196D01*
X01198Y03D01*
X01196Y02998D01*
X01198D01*
X012Y02996D01*
Y02872D02*
X01204Y02876D01*
X01208D01*
X01204Y0288D01*
X01208Y02884D01*
X01204D01*
X012Y02888D01*
X01196Y02884D01*
X01192D01*
X01196Y0288D01*
X01192Y02876D01*
X01196D01*
X012Y02872D01*
Y02876D02*
X01202Y02878D01*
X01204D01*
X01202Y0288D01*
X01204Y02882D01*
X01202D01*
X012Y02884D01*
X01198Y02882D01*
X01196D01*
X01198Y0288D01*
X01196Y02878D01*
X01198D01*
X012Y02876D01*
Y02752D02*
X01204Y02756D01*
X01208D01*
X01204Y0276D01*
X01208Y02764D01*
X01204D01*
X012Y02768D01*
X01196Y02764D01*
X01192D01*
X01196Y0276D01*
X01192Y02756D01*
X01196D01*
X012Y02752D01*
Y02756D02*
X01202Y02758D01*
X01204D01*
X01202Y0276D01*
X01204Y02762D01*
X01202D01*
X012Y02764D01*
X01198Y02762D01*
X01196D01*
X01198Y0276D01*
X01196Y02758D01*
X01198D01*
X012Y02756D01*
Y02632D02*
X01204Y02636D01*
X01208D01*
X01204Y0264D01*
X01208Y02644D01*
X01204D01*
X012Y02648D01*
X01196Y02644D01*
X01192D01*
X01196Y0264D01*
X01192Y02636D01*
X01196D01*
X012Y02632D01*
Y02636D02*
X01202Y02638D01*
X01204D01*
X01202Y0264D01*
X01204Y02642D01*
X01202D01*
X012Y02644D01*
X01198Y02642D01*
X01196D01*
X01198Y0264D01*
X01196Y02638D01*
X01198D01*
X012Y02636D01*
Y02512D02*
X01204Y02516D01*
X01208D01*
X01204Y0252D01*
X01208Y02524D01*
X01204D01*
X012Y02528D01*
X01196Y02524D01*
X01192D01*
X01196Y0252D01*
X01192Y02516D01*
X01196D01*
X012Y02512D01*
Y02516D02*
X01202Y02518D01*
X01204D01*
X01202Y0252D01*
X01204Y02522D01*
X01202D01*
X012Y02524D01*
X01198Y02522D01*
X01196D01*
X01198Y0252D01*
X01196Y02518D01*
X01198D01*
X012Y02516D01*
Y02392D02*
X01204Y02396D01*
X01208D01*
X01204Y024D01*
X01208Y02404D01*
X01204D01*
X012Y02408D01*
X01196Y02404D01*
X01192D01*
X01196Y024D01*
X01192Y02396D01*
X01196D01*
X012Y02392D01*
Y02396D02*
X01202Y02398D01*
X01204D01*
X01202Y024D01*
X01204Y02402D01*
X01202D01*
X012Y02404D01*
X01198Y02402D01*
X01196D01*
X01198Y024D01*
X01196Y02398D01*
X01198D01*
X012Y02396D01*
Y02032D02*
X01204Y02036D01*
X01208D01*
X01204Y0204D01*
X01208Y02044D01*
X01204D01*
X012Y02048D01*
X01196Y02044D01*
X01192D01*
X01196Y0204D01*
X01192Y02036D01*
X01196D01*
X012Y02032D01*
Y02036D02*
X01202Y02038D01*
X01204D01*
X01202Y0204D01*
X01204Y02042D01*
X01202D01*
X012Y02044D01*
X01198Y02042D01*
X01196D01*
X01198Y0204D01*
X01196Y02038D01*
X01198D01*
X012Y02036D01*
X0108Y04312D02*
X01084Y04316D01*
X01088D01*
X01084Y0432D01*
X01088Y04324D01*
X01084D01*
X0108Y04328D01*
X01076Y04324D01*
X01072D01*
X01076Y0432D01*
X01072Y04316D01*
X01076D01*
X0108Y04312D01*
Y04316D02*
X01082Y04318D01*
X01084D01*
X01082Y0432D01*
X01084Y04322D01*
X01082D01*
X0108Y04324D01*
X01078Y04322D01*
X01076D01*
X01078Y0432D01*
X01076Y04318D01*
X01078D01*
X0108Y04316D01*
Y04192D02*
X01084Y04196D01*
X01088D01*
X01084Y042D01*
X01088Y04204D01*
X01084D01*
X0108Y04208D01*
X01076Y04204D01*
X01072D01*
X01076Y042D01*
X01072Y04196D01*
X01076D01*
X0108Y04192D01*
Y04196D02*
X01082Y04198D01*
X01084D01*
X01082Y042D01*
X01084Y04202D01*
X01082D01*
X0108Y04204D01*
X01078Y04202D01*
X01076D01*
X01078Y042D01*
X01076Y04198D01*
X01078D01*
X0108Y04196D01*
Y04072D02*
X01084Y04076D01*
X01088D01*
X01084Y0408D01*
X01088Y04084D01*
X01084D01*
X0108Y04088D01*
X01076Y04084D01*
X01072D01*
X01076Y0408D01*
X01072Y04076D01*
X01076D01*
X0108Y04072D01*
Y04076D02*
X01082Y04078D01*
X01084D01*
X01082Y0408D01*
X01084Y04082D01*
X01082D01*
X0108Y04084D01*
X01078Y04082D01*
X01076D01*
X01078Y0408D01*
X01076Y04078D01*
X01078D01*
X0108Y04076D01*
Y03952D02*
X01084Y03956D01*
X01088D01*
X01084Y0396D01*
X01088Y03964D01*
X01084D01*
X0108Y03968D01*
X01076Y03964D01*
X01072D01*
X01076Y0396D01*
X01072Y03956D01*
X01076D01*
X0108Y03952D01*
Y03956D02*
X01082Y03958D01*
X01084D01*
X01082Y0396D01*
X01084Y03962D01*
X01082D01*
X0108Y03964D01*
X01078Y03962D01*
X01076D01*
X01078Y0396D01*
X01076Y03958D01*
X01078D01*
X0108Y03956D01*
Y03832D02*
X01084Y03836D01*
X01088D01*
X01084Y0384D01*
X01088Y03844D01*
X01084D01*
X0108Y03848D01*
X01076Y03844D01*
X01072D01*
X01076Y0384D01*
X01072Y03836D01*
X01076D01*
X0108Y03832D01*
Y03836D02*
X01082Y03838D01*
X01084D01*
X01082Y0384D01*
X01084Y03842D01*
X01082D01*
X0108Y03844D01*
X01078Y03842D01*
X01076D01*
X01078Y0384D01*
X01076Y03838D01*
X01078D01*
X0108Y03836D01*
Y02992D02*
X01084Y02996D01*
X01088D01*
X01084Y03D01*
X01088Y03004D01*
X01084D01*
X0108Y03008D01*
X01076Y03004D01*
X01072D01*
X01076Y03D01*
X01072Y02996D01*
X01076D01*
X0108Y02992D01*
Y02996D02*
X01082Y02998D01*
X01084D01*
X01082Y03D01*
X01084Y03002D01*
X01082D01*
X0108Y03004D01*
X01078Y03002D01*
X01076D01*
X01078Y03D01*
X01076Y02998D01*
X01078D01*
X0108Y02996D01*
Y02872D02*
X01084Y02876D01*
X01088D01*
X01084Y0288D01*
X01088Y02884D01*
X01084D01*
X0108Y02888D01*
X01076Y02884D01*
X01072D01*
X01076Y0288D01*
X01072Y02876D01*
X01076D01*
X0108Y02872D01*
Y02876D02*
X01082Y02878D01*
X01084D01*
X01082Y0288D01*
X01084Y02882D01*
X01082D01*
X0108Y02884D01*
X01078Y02882D01*
X01076D01*
X01078Y0288D01*
X01076Y02878D01*
X01078D01*
X0108Y02876D01*
Y02752D02*
X01084Y02756D01*
X01088D01*
X01084Y0276D01*
X01088Y02764D01*
X01084D01*
X0108Y02768D01*
X01076Y02764D01*
X01072D01*
X01076Y0276D01*
X01072Y02756D01*
X01076D01*
X0108Y02752D01*
Y02756D02*
X01082Y02758D01*
X01084D01*
X01082Y0276D01*
X01084Y02762D01*
X01082D01*
X0108Y02764D01*
X01078Y02762D01*
X01076D01*
X01078Y0276D01*
X01076Y02758D01*
X01078D01*
X0108Y02756D01*
Y02632D02*
X01084Y02636D01*
X01088D01*
X01084Y0264D01*
X01088Y02644D01*
X01084D01*
X0108Y02648D01*
X01076Y02644D01*
X01072D01*
X01076Y0264D01*
X01072Y02636D01*
X01076D01*
X0108Y02632D01*
Y02636D02*
X01082Y02638D01*
X01084D01*
X01082Y0264D01*
X01084Y02642D01*
X01082D01*
X0108Y02644D01*
X01078Y02642D01*
X01076D01*
X01078Y0264D01*
X01076Y02638D01*
X01078D01*
X0108Y02636D01*
Y02512D02*
X01084Y02516D01*
X01088D01*
X01084Y0252D01*
X01088Y02524D01*
X01084D01*
X0108Y02528D01*
X01076Y02524D01*
X01072D01*
X01076Y0252D01*
X01072Y02516D01*
X01076D01*
X0108Y02512D01*
Y02516D02*
X01082Y02518D01*
X01084D01*
X01082Y0252D01*
X01084Y02522D01*
X01082D01*
X0108Y02524D01*
X01078Y02522D01*
X01076D01*
X01078Y0252D01*
X01076Y02518D01*
X01078D01*
X0108Y02516D01*
Y02392D02*
X01084Y02396D01*
X01088D01*
X01084Y024D01*
X01088Y02404D01*
X01084D01*
X0108Y02408D01*
X01076Y02404D01*
X01072D01*
X01076Y024D01*
X01072Y02396D01*
X01076D01*
X0108Y02392D01*
Y02396D02*
X01082Y02398D01*
X01084D01*
X01082Y024D01*
X01084Y02402D01*
X01082D01*
X0108Y02404D01*
X01078Y02402D01*
X01076D01*
X01078Y024D01*
X01076Y02398D01*
X01078D01*
X0108Y02396D01*
Y02272D02*
X01084Y02276D01*
X01088D01*
X01084Y0228D01*
X01088Y02284D01*
X01084D01*
X0108Y02288D01*
X01076Y02284D01*
X01072D01*
X01076Y0228D01*
X01072Y02276D01*
X01076D01*
X0108Y02272D01*
Y02276D02*
X01082Y02278D01*
X01084D01*
X01082Y0228D01*
X01084Y02282D01*
X01082D01*
X0108Y02284D01*
X01078Y02282D01*
X01076D01*
X01078Y0228D01*
X01076Y02278D01*
X01078D01*
X0108Y02276D01*
X02049Y029495D02*
X02053Y029535D01*
X02057D01*
X02053Y029575D01*
X02057Y029615D01*
X02053D01*
X02049Y029655D01*
X02045Y029615D01*
X02041D01*
X02045Y029575D01*
X02041Y029535D01*
X02045D01*
X02049Y029495D01*
Y029535D02*
X02051Y029555D01*
X02053D01*
X02051Y029575D01*
X02053Y029595D01*
X02051D01*
X02049Y029615D01*
X02047Y029595D01*
X02045D01*
X02047Y029575D01*
X02045Y029555D01*
X02047D01*
X02049Y029535D01*
X0217Y03237D02*
X02174Y03241D01*
X02178D01*
X02174Y03245D01*
X02178Y03249D01*
X02174D01*
X0217Y03253D01*
X02166Y03249D01*
X02162D01*
X02166Y03245D01*
X02162Y03241D01*
X02166D01*
X0217Y03237D01*
Y03241D02*
X02172Y03243D01*
X02174D01*
X02172Y03245D01*
X02174Y03247D01*
X02172D01*
X0217Y03249D01*
X02168Y03247D01*
X02166D01*
X02168Y03245D01*
X02166Y03243D01*
X02168D01*
X0217Y03241D01*
X021258Y029477D02*
X021298Y029517D01*
X021338D01*
X021298Y029557D01*
X021338Y029597D01*
X021298D01*
X021258Y029637D01*
X021218Y029597D01*
X021178D01*
X021218Y029557D01*
X021178Y029517D01*
X021218D01*
X021258Y029477D01*
Y029517D02*
X021278Y029537D01*
X021298D01*
X021278Y029557D01*
X021298Y029577D01*
X021278D01*
X021258Y029597D01*
X021238Y029577D01*
X021218D01*
X021238Y029557D01*
X021218Y029537D01*
X021238D01*
X021258Y029517D01*
X024Y04317D02*
X02404Y04321D01*
X02408D01*
X02404Y04325D01*
X02408Y04329D01*
X02404D01*
X024Y04333D01*
X02396Y04329D01*
X02392D01*
X02396Y04325D01*
X02392Y04321D01*
X02396D01*
X024Y04317D01*
Y04321D02*
X02402Y04323D01*
X02404D01*
X02402Y04325D01*
X02404Y04327D01*
X02402D01*
X024Y04329D01*
X02398Y04327D01*
X02396D01*
X02398Y04325D01*
X02396Y04323D01*
X02398D01*
X024Y04321D01*
X02541Y04582D02*
X02545Y04586D01*
X02549D01*
X02545Y0459D01*
X02549Y04594D01*
X02545D01*
X02541Y04598D01*
X02537Y04594D01*
X02533D01*
X02537Y0459D01*
X02533Y04586D01*
X02537D01*
X02541Y04582D01*
Y04586D02*
X02543Y04588D01*
X02545D01*
X02543Y0459D01*
X02545Y04592D01*
X02543D01*
X02541Y04594D01*
X02539Y04592D01*
X02537D01*
X02539Y0459D01*
X02537Y04588D01*
X02539D01*
X02541Y04586D01*
X0325Y02942D02*
X03254Y02946D01*
X03258D01*
X03254Y0295D01*
X03258Y02954D01*
X03254D01*
X0325Y02958D01*
X03246Y02954D01*
X03242D01*
X03246Y0295D01*
X03242Y02946D01*
X03246D01*
X0325Y02942D01*
Y02946D02*
X03252Y02948D01*
X03254D01*
X03252Y0295D01*
X03254Y02952D01*
X03252D01*
X0325Y02954D01*
X03248Y02952D01*
X03246D01*
X03248Y0295D01*
X03246Y02948D01*
X03248D01*
X0325Y02946D01*
Y02842D02*
X03254Y02846D01*
X03258D01*
X03254Y0285D01*
X03258Y02854D01*
X03254D01*
X0325Y02858D01*
X03246Y02854D01*
X03242D01*
X03246Y0285D01*
X03242Y02846D01*
X03246D01*
X0325Y02842D01*
Y02846D02*
X03252Y02848D01*
X03254D01*
X03252Y0285D01*
X03254Y02852D01*
X03252D01*
X0325Y02854D01*
X03248Y02852D01*
X03246D01*
X03248Y0285D01*
X03246Y02848D01*
X03248D01*
X0325Y02846D01*
X03245Y030755D02*
X03249Y030795D01*
X03253D01*
X03249Y030835D01*
X03253Y030875D01*
X03249D01*
X03245Y030915D01*
X03241Y030875D01*
X03237D01*
X03241Y030835D01*
X03237Y030795D01*
X03241D01*
X03245Y030755D01*
Y030795D02*
X03247Y030815D01*
X03249D01*
X03247Y030835D01*
X03249Y030855D01*
X03247D01*
X03245Y030875D01*
X03243Y030855D01*
X03241D01*
X03243Y030835D01*
X03241Y030815D01*
X03243D01*
X03245Y030795D01*
X03239Y031507D02*
X03243Y031547D01*
X03247D01*
X03243Y031587D01*
X03247Y031627D01*
X03243D01*
X03239Y031667D01*
X03235Y031627D01*
X03231D01*
X03235Y031587D01*
X03231Y031547D01*
X03235D01*
X03239Y031507D01*
Y031547D02*
X03241Y031567D01*
X03243D01*
X03241Y031587D01*
X03243Y031607D01*
X03241D01*
X03239Y031627D01*
X03237Y031607D01*
X03235D01*
X03237Y031587D01*
X03235Y031567D01*
X03237D01*
X03239Y031547D01*
X031718Y03212D02*
X031758Y03216D01*
X031798D01*
X031758Y0322D01*
X031798Y03224D01*
X031758D01*
X031718Y03228D01*
X031678Y03224D01*
X031638D01*
X031678Y0322D01*
X031638Y03216D01*
X031678D01*
X031718Y03212D01*
Y03216D02*
X031738Y03218D01*
X031758D01*
X031738Y0322D01*
X031758Y03222D01*
X031738D01*
X031718Y03224D01*
X031698Y03222D01*
X031678D01*
X031698Y0322D01*
X031678Y03218D01*
X031698D01*
X031718Y03216D01*
X03122Y033095D02*
X03126Y033135D01*
X0313D01*
X03126Y033175D01*
X0313Y033215D01*
X03126D01*
X03122Y033255D01*
X03118Y033215D01*
X03114D01*
X03118Y033175D01*
X03114Y033135D01*
X03118D01*
X03122Y033095D01*
Y033135D02*
X03124Y033155D01*
X03126D01*
X03124Y033175D01*
X03126Y033195D01*
X03124D01*
X03122Y033215D01*
X0312Y033195D01*
X03118D01*
X0312Y033175D01*
X03118Y033155D01*
X0312D01*
X03122Y033135D01*
X0217Y04317D02*
X02174Y04321D01*
X02178D01*
X02174Y04325D01*
X02178Y04329D01*
X02174D01*
X0217Y04333D01*
X02166Y04329D01*
X02162D01*
X02166Y04325D01*
X02162Y04321D01*
X02166D01*
X0217Y04317D01*
Y04321D02*
X02172Y04323D01*
X02174D01*
X02172Y04325D01*
X02174Y04327D01*
X02172D01*
X0217Y04329D01*
X02168Y04327D01*
X02166D01*
X02168Y04325D01*
X02166Y04323D01*
X02168D01*
X0217Y04321D01*
X034506Y041644D02*
X034546Y041684D01*
X034586D01*
X034546Y041724D01*
X034586Y041764D01*
X034546D01*
X034506Y041804D01*
X034466Y041764D01*
X034426D01*
X034466Y041724D01*
X034426Y041684D01*
X034466D01*
X034506Y041644D01*
Y041684D02*
X034526Y041704D01*
X034546D01*
X034526Y041724D01*
X034546Y041744D01*
X034526D01*
X034506Y041764D01*
X034486Y041744D01*
X034466D01*
X034486Y041724D01*
X034466Y041704D01*
X034486D01*
X034506Y041684D01*
X0349Y040857D02*
X03494Y040897D01*
X03498D01*
X03494Y040937D01*
X03498Y040977D01*
X03494D01*
X0349Y041017D01*
X03486Y040977D01*
X03482D01*
X03486Y040937D01*
X03482Y040897D01*
X03486D01*
X0349Y040857D01*
Y040897D02*
X03492Y040917D01*
X03494D01*
X03492Y040937D01*
X03494Y040957D01*
X03492D01*
X0349Y040977D01*
X03488Y040957D01*
X03486D01*
X03488Y040937D01*
X03486Y040917D01*
X03488D01*
X0349Y040897D01*
Y039282D02*
X03494Y039322D01*
X03498D01*
X03494Y039362D01*
X03498Y039402D01*
X03494D01*
X0349Y039442D01*
X03486Y039402D01*
X03482D01*
X03486Y039362D01*
X03482Y039322D01*
X03486D01*
X0349Y039282D01*
Y039322D02*
X03492Y039342D01*
X03494D01*
X03492Y039362D01*
X03494Y039382D01*
X03492D01*
X0349Y039402D01*
X03488Y039382D01*
X03486D01*
X03488Y039362D01*
X03486Y039342D01*
X03488D01*
X0349Y039322D01*
Y037707D02*
X03494Y037747D01*
X03498D01*
X03494Y037787D01*
X03498Y037827D01*
X03494D01*
X0349Y037867D01*
X03486Y037827D01*
X03482D01*
X03486Y037787D01*
X03482Y037747D01*
X03486D01*
X0349Y037707D01*
Y037747D02*
X03492Y037767D01*
X03494D01*
X03492Y037787D01*
X03494Y037807D01*
X03492D01*
X0349Y037827D01*
X03488Y037807D01*
X03486D01*
X03488Y037787D01*
X03486Y037767D01*
X03488D01*
X0349Y037747D01*
Y036132D02*
X03494Y036172D01*
X03498D01*
X03494Y036212D01*
X03498Y036252D01*
X03494D01*
X0349Y036292D01*
X03486Y036252D01*
X03482D01*
X03486Y036212D01*
X03482Y036172D01*
X03486D01*
X0349Y036132D01*
Y036172D02*
X03492Y036192D01*
X03494D01*
X03492Y036212D01*
X03494Y036232D01*
X03492D01*
X0349Y036252D01*
X03488Y036232D01*
X03486D01*
X03488Y036212D01*
X03486Y036192D01*
X03488D01*
X0349Y036172D01*
Y034557D02*
X03494Y034597D01*
X03498D01*
X03494Y034637D01*
X03498Y034677D01*
X03494D01*
X0349Y034717D01*
X03486Y034677D01*
X03482D01*
X03486Y034637D01*
X03482Y034597D01*
X03486D01*
X0349Y034557D01*
Y034597D02*
X03492Y034617D01*
X03494D01*
X03492Y034637D01*
X03494Y034657D01*
X03492D01*
X0349Y034677D01*
X03488Y034657D01*
X03486D01*
X03488Y034637D01*
X03486Y034617D01*
X03488D01*
X0349Y034597D01*
X033719Y041644D02*
X033759Y041684D01*
X033799D01*
X033759Y041724D01*
X033799Y041764D01*
X033759D01*
X033719Y041804D01*
X033679Y041764D01*
X033639D01*
X033679Y041724D01*
X033639Y041684D01*
X033679D01*
X033719Y041644D01*
Y041684D02*
X033739Y041704D01*
X033759D01*
X033739Y041724D01*
X033759Y041744D01*
X033739D01*
X033719Y041764D01*
X033699Y041744D01*
X033679D01*
X033699Y041724D01*
X033679Y041704D01*
X033699D01*
X033719Y041684D01*
X034113Y040857D02*
X034153Y040897D01*
X034193D01*
X034153Y040937D01*
X034193Y040977D01*
X034153D01*
X034113Y041017D01*
X034073Y040977D01*
X034033D01*
X034073Y040937D01*
X034033Y040897D01*
X034073D01*
X034113Y040857D01*
Y040897D02*
X034133Y040917D01*
X034153D01*
X034133Y040937D01*
X034153Y040957D01*
X034133D01*
X034113Y040977D01*
X034093Y040957D01*
X034073D01*
X034093Y040937D01*
X034073Y040917D01*
X034093D01*
X034113Y040897D01*
X032931Y041644D02*
X032971Y041684D01*
X033011D01*
X032971Y041724D01*
X033011Y041764D01*
X032971D01*
X032931Y041804D01*
X032891Y041764D01*
X032851D01*
X032891Y041724D01*
X032851Y041684D01*
X032891D01*
X032931Y041644D01*
Y041684D02*
X032951Y041704D01*
X032971D01*
X032951Y041724D01*
X032971Y041744D01*
X032951D01*
X032931Y041764D01*
X032911Y041744D01*
X032891D01*
X032911Y041724D01*
X032891Y041704D01*
X032911D01*
X032931Y041684D01*
X033858Y031416D02*
X033898Y031456D01*
X033938D01*
X033898Y031496D01*
X033938Y031536D01*
X033898D01*
X033858Y031576D01*
X033818Y031536D01*
X033778D01*
X033818Y031496D01*
X033778Y031456D01*
X033818D01*
X033858Y031416D01*
Y031456D02*
X033878Y031476D01*
X033898D01*
X033878Y031496D01*
X033898Y031516D01*
X033878D01*
X033858Y031536D01*
X033838Y031516D01*
X033818D01*
X033838Y031496D01*
X033818Y031476D01*
X033838D01*
X033858Y031456D01*
X028346Y012518D02*
X028386Y012558D01*
X028426D01*
X028386Y012598D01*
X028426Y012638D01*
X028386D01*
X028346Y012678D01*
X028306Y012638D01*
X028266D01*
X028306Y012598D01*
X028266Y012558D01*
X028306D01*
X028346Y012518D01*
Y012558D02*
X028366Y012578D01*
X028386D01*
X028366Y012598D01*
X028386Y012618D01*
X028366D01*
X028346Y012638D01*
X028326Y012618D01*
X028306D01*
X028326Y012598D01*
X028306Y012578D01*
X028326D01*
X028346Y012558D01*
X025984Y028266D02*
X026024Y028306D01*
X026064D01*
X026024Y028346D01*
X026064Y028386D01*
X026024D01*
X025984Y028426D01*
X025944Y028386D01*
X025904D01*
X025944Y028346D01*
X025904Y028306D01*
X025944D01*
X025984Y028266D01*
Y028306D02*
X026004Y028326D01*
X026024D01*
X026004Y028346D01*
X026024Y028366D01*
X026004D01*
X025984Y028386D01*
X025964Y028366D01*
X025944D01*
X025964Y028346D01*
X025944Y028326D01*
X025964D01*
X025984Y028306D01*
X01811Y025117D02*
X01815Y025157D01*
X01819D01*
X01815Y025197D01*
X01819Y025237D01*
X01815D01*
X01811Y025277D01*
X01807Y025237D01*
X01803D01*
X01807Y025197D01*
X01803Y025157D01*
X01807D01*
X01811Y025117D01*
Y025157D02*
X01813Y025177D01*
X01815D01*
X01813Y025197D01*
X01815Y025217D01*
X01813D01*
X01811Y025237D01*
X01809Y025217D01*
X01807D01*
X01809Y025197D01*
X01807Y025177D01*
X01809D01*
X01811Y025157D01*
X017323Y025117D02*
X017363Y025157D01*
X017403D01*
X017363Y025197D01*
X017403Y025237D01*
X017363D01*
X017323Y025277D01*
X017283Y025237D01*
X017243D01*
X017283Y025197D01*
X017243Y025157D01*
X017283D01*
X017323Y025117D01*
Y025157D02*
X017343Y025177D01*
X017363D01*
X017343Y025197D01*
X017363Y025217D01*
X017343D01*
X017323Y025237D01*
X017303Y025217D01*
X017283D01*
X017303Y025197D01*
X017283Y025177D01*
X017303D01*
X017323Y025157D01*
X012598Y037715D02*
X012638Y037755D01*
X012678D01*
X012638Y037795D01*
X012678Y037835D01*
X012638D01*
X012598Y037875D01*
X012558Y037835D01*
X012518D01*
X012558Y037795D01*
X012518Y037755D01*
X012558D01*
X012598Y037715D01*
Y037755D02*
X012618Y037775D01*
X012638D01*
X012618Y037795D01*
X012638Y037815D01*
X012618D01*
X012598Y037835D01*
X012578Y037815D01*
X012558D01*
X012578Y037795D01*
X012558Y037775D01*
X012578D01*
X012598Y037755D01*
X0322Y02792D02*
X03224Y02796D01*
X03228D01*
X03224Y028D01*
X03228Y02804D01*
X03224D01*
X0322Y02808D01*
X03216Y02804D01*
X03212D01*
X03216Y028D01*
X03212Y02796D01*
X03216D01*
X0322Y02792D01*
Y02796D02*
X03222Y02798D01*
X03224D01*
X03222Y028D01*
X03224Y02802D01*
X03222D01*
X0322Y02804D01*
X03218Y02802D01*
X03216D01*
X03218Y028D01*
X03216Y02798D01*
X03218D01*
X0322Y02796D01*
Y02722D02*
X03224Y02726D01*
X03228D01*
X03224Y0273D01*
X03228Y02734D01*
X03224D01*
X0322Y02738D01*
X03216Y02734D01*
X03212D01*
X03216Y0273D01*
X03212Y02726D01*
X03216D01*
X0322Y02722D01*
Y02726D02*
X03222Y02728D01*
X03224D01*
X03222Y0273D01*
X03224Y02732D01*
X03222D01*
X0322Y02734D01*
X03218Y02732D01*
X03216D01*
X03218Y0273D01*
X03216Y02728D01*
X03218D01*
X0322Y02726D01*
Y02652D02*
X03224Y02656D01*
X03228D01*
X03224Y0266D01*
X03228Y02664D01*
X03224D01*
X0322Y02668D01*
X03216Y02664D01*
X03212D01*
X03216Y0266D01*
X03212Y02656D01*
X03216D01*
X0322Y02652D01*
Y02656D02*
X03222Y02658D01*
X03224D01*
X03222Y0266D01*
X03224Y02662D01*
X03222D01*
X0322Y02664D01*
X03218Y02662D01*
X03216D01*
X03218Y0266D01*
X03216Y02658D01*
X03218D01*
X0322Y02656D01*
X0315Y02792D02*
X03154Y02796D01*
X03158D01*
X03154Y028D01*
X03158Y02804D01*
X03154D01*
X0315Y02808D01*
X03146Y02804D01*
X03142D01*
X03146Y028D01*
X03142Y02796D01*
X03146D01*
X0315Y02792D01*
Y02796D02*
X03152Y02798D01*
X03154D01*
X03152Y028D01*
X03154Y02802D01*
X03152D01*
X0315Y02804D01*
X03148Y02802D01*
X03146D01*
X03148Y028D01*
X03146Y02798D01*
X03148D01*
X0315Y02796D01*
Y02722D02*
X03154Y02726D01*
X03158D01*
X03154Y0273D01*
X03158Y02734D01*
X03154D01*
X0315Y02738D01*
X03146Y02734D01*
X03142D01*
X03146Y0273D01*
X03142Y02726D01*
X03146D01*
X0315Y02722D01*
Y02726D02*
X03152Y02728D01*
X03154D01*
X03152Y0273D01*
X03154Y02732D01*
X03152D01*
X0315Y02734D01*
X03148Y02732D01*
X03146D01*
X03148Y0273D01*
X03146Y02728D01*
X03148D01*
X0315Y02726D01*
Y02652D02*
X03154Y02656D01*
X03158D01*
X03154Y0266D01*
X03158Y02664D01*
X03154D01*
X0315Y02668D01*
X03146Y02664D01*
X03142D01*
X03146Y0266D01*
X03142Y02656D01*
X03146D01*
X0315Y02652D01*
Y02656D02*
X03152Y02658D01*
X03154D01*
X03152Y0266D01*
X03154Y02662D01*
X03152D01*
X0315Y02664D01*
X03148Y02662D01*
X03146D01*
X03148Y0266D01*
X03146Y02658D01*
X03148D01*
X0315Y02656D01*
X0321Y03907D02*
X03214Y03911D01*
X03218D01*
X03214Y03915D01*
X03218Y03919D01*
X03214D01*
X0321Y03923D01*
X03206Y03919D01*
X03202D01*
X03206Y03915D01*
X03202Y03911D01*
X03206D01*
X0321Y03907D01*
Y03911D02*
X03212Y03913D01*
X03214D01*
X03212Y03915D01*
X03214Y03917D01*
X03212D01*
X0321Y03919D01*
X03208Y03917D01*
X03206D01*
X03208Y03915D01*
X03206Y03913D01*
X03208D01*
X0321Y03911D01*
X019432Y027133D02*
X019472Y027173D01*
X019512D01*
X019472Y027213D01*
X019512Y027253D01*
X019472D01*
X019432Y027293D01*
X019392Y027253D01*
X019352D01*
X019392Y027213D01*
X019352Y027173D01*
X019392D01*
X019432Y027133D01*
Y027173D02*
X019452Y027193D01*
X019472D01*
X019452Y027213D01*
X019472Y027233D01*
X019452D01*
X019432Y027253D01*
X019412Y027233D01*
X019392D01*
X019412Y027213D01*
X019392Y027193D01*
X019412D01*
X019432Y027173D01*
X01975Y020178D02*
X01979Y020218D01*
X01983D01*
X01979Y020258D01*
X01983Y020298D01*
X01979D01*
X01975Y020338D01*
X01971Y020298D01*
X01967D01*
X01971Y020258D01*
X01967Y020218D01*
X01971D01*
X01975Y020178D01*
Y020218D02*
X01977Y020238D01*
X01979D01*
X01977Y020258D01*
X01979Y020278D01*
X01977D01*
X01975Y020298D01*
X01973Y020278D01*
X01971D01*
X01973Y020258D01*
X01971Y020238D01*
X01973D01*
X01975Y020218D01*
X01868Y020195D02*
X01872Y020235D01*
X01876D01*
X01872Y020275D01*
X01876Y020315D01*
X01872D01*
X01868Y020355D01*
X01864Y020315D01*
X0186D01*
X01864Y020275D01*
X0186Y020235D01*
X01864D01*
X01868Y020195D01*
Y020235D02*
X0187Y020255D01*
X01872D01*
X0187Y020275D01*
X01872Y020295D01*
X0187D01*
X01868Y020315D01*
X01866Y020295D01*
X01864D01*
X01866Y020275D01*
X01864Y020255D01*
X01866D01*
X01868Y020235D01*
X017769Y02017D02*
X017809Y02021D01*
X017849D01*
X017809Y02025D01*
X017849Y02029D01*
X017809D01*
X017769Y02033D01*
X017729Y02029D01*
X017689D01*
X017729Y02025D01*
X017689Y02021D01*
X017729D01*
X017769Y02017D01*
Y02021D02*
X017789Y02023D01*
X017809D01*
X017789Y02025D01*
X017809Y02027D01*
X017789D01*
X017769Y02029D01*
X017749Y02027D01*
X017729D01*
X017749Y02025D01*
X017729Y02023D01*
X017749D01*
X017769Y02021D01*
X016967Y019683D02*
X017007Y019723D01*
X017047D01*
X017007Y019763D01*
X017047Y019803D01*
X017007D01*
X016967Y019843D01*
X016927Y019803D01*
X016887D01*
X016927Y019763D01*
X016887Y019723D01*
X016927D01*
X016967Y019683D01*
Y019723D02*
X016987Y019743D01*
X017007D01*
X016987Y019763D01*
X017007Y019783D01*
X016987D01*
X016967Y019803D01*
X016947Y019783D01*
X016927D01*
X016947Y019763D01*
X016927Y019743D01*
X016947D01*
X016967Y019723D01*
X01485Y01512D02*
X01489Y01516D01*
X01493D01*
X01489Y0152D01*
X01493Y01524D01*
X01489D01*
X01485Y01528D01*
X01481Y01524D01*
X01477D01*
X01481Y0152D01*
X01477Y01516D01*
X01481D01*
X01485Y01512D01*
Y01516D02*
X01487Y01518D01*
X01489D01*
X01487Y0152D01*
X01489Y01522D01*
X01487D01*
X01485Y01524D01*
X01483Y01522D01*
X01481D01*
X01483Y0152D01*
X01481Y01518D01*
X01483D01*
X01485Y01516D01*
X0149Y01607D02*
X01494Y01611D01*
X01498D01*
X01494Y01615D01*
X01498Y01619D01*
X01494D01*
X0149Y01623D01*
X01486Y01619D01*
X01482D01*
X01486Y01615D01*
X01482Y01611D01*
X01486D01*
X0149Y01607D01*
Y01611D02*
X01492Y01613D01*
X01494D01*
X01492Y01615D01*
X01494Y01617D01*
X01492D01*
X0149Y01619D01*
X01488Y01617D01*
X01486D01*
X01488Y01615D01*
X01486Y01613D01*
X01488D01*
X0149Y01611D01*
X015084Y01697D02*
X015124Y01701D01*
X015164D01*
X015124Y01705D01*
X015164Y01709D01*
X015124D01*
X015084Y01713D01*
X015044Y01709D01*
X015004D01*
X015044Y01705D01*
X015004Y01701D01*
X015044D01*
X015084Y01697D01*
Y01701D02*
X015104Y01703D01*
X015124D01*
X015104Y01705D01*
X015124Y01707D01*
X015104D01*
X015084Y01709D01*
X015064Y01707D01*
X015044D01*
X015064Y01705D01*
X015044Y01703D01*
X015064D01*
X015084Y01701D01*
X02793Y017046D02*
X02797Y017086D01*
X02801D01*
X02797Y017126D01*
X02801Y017166D01*
X02797D01*
X02793Y017206D01*
X02789Y017166D01*
X02785D01*
X02789Y017126D01*
X02785Y017086D01*
X02789D01*
X02793Y017046D01*
Y017086D02*
X02795Y017106D01*
X02797D01*
X02795Y017126D01*
X02797Y017146D01*
X02795D01*
X02793Y017166D01*
X02791Y017146D01*
X02789D01*
X02791Y017126D01*
X02789Y017106D01*
X02791D01*
X02793Y017086D01*
X02355Y01922D02*
X02359Y01926D01*
X02363D01*
X02359Y0193D01*
X02363Y01934D01*
X02359D01*
X02355Y01938D01*
X02351Y01934D01*
X02347D01*
X02351Y0193D01*
X02347Y01926D01*
X02351D01*
X02355Y01922D01*
Y01926D02*
X02357Y01928D01*
X02359D01*
X02357Y0193D01*
X02359Y01932D01*
X02357D01*
X02355Y01934D01*
X02353Y01932D01*
X02351D01*
X02353Y0193D01*
X02351Y01928D01*
X02353D01*
X02355Y01926D01*
X0172Y01527D02*
X01724Y01531D01*
X01728D01*
X01724Y01535D01*
X01728Y01539D01*
X01724D01*
X0172Y01543D01*
X01716Y01539D01*
X01712D01*
X01716Y01535D01*
X01712Y01531D01*
X01716D01*
X0172Y01527D01*
Y01531D02*
X01722Y01533D01*
X01724D01*
X01722Y01535D01*
X01724Y01537D01*
X01722D01*
X0172Y01539D01*
X01718Y01537D01*
X01716D01*
X01718Y01535D01*
X01716Y01533D01*
X01718D01*
X0172Y01531D01*
X0211Y02377D02*
X02114Y02381D01*
X02118D01*
X02114Y02385D01*
X02118Y02389D01*
X02114D01*
X0211Y02393D01*
X02106Y02389D01*
X02102D01*
X02106Y02385D01*
X02102Y02381D01*
X02106D01*
X0211Y02377D01*
Y02381D02*
X02112Y02383D01*
X02114D01*
X02112Y02385D01*
X02114Y02387D01*
X02112D01*
X0211Y02389D01*
X02108Y02387D01*
X02106D01*
X02108Y02385D01*
X02106Y02383D01*
X02108D01*
X0211Y02381D01*
X022116Y02367D02*
X022156Y02371D01*
X022196D01*
X022156Y02375D01*
X022196Y02379D01*
X022156D01*
X022116Y02383D01*
X022076Y02379D01*
X022036D01*
X022076Y02375D01*
X022036Y02371D01*
X022076D01*
X022116Y02367D01*
Y02371D02*
X022136Y02373D01*
X022156D01*
X022136Y02375D01*
X022156Y02377D01*
X022136D01*
X022116Y02379D01*
X022096Y02377D01*
X022076D01*
X022096Y02375D01*
X022076Y02373D01*
X022096D01*
X022116Y02371D01*
X031725Y03972D02*
X031765Y03976D01*
X031805D01*
X031765Y0398D01*
X031805Y03984D01*
X031765D01*
X031725Y03988D01*
X031685Y03984D01*
X031645D01*
X031685Y0398D01*
X031645Y03976D01*
X031685D01*
X031725Y03972D01*
Y03976D02*
X031745Y03978D01*
X031765D01*
X031745Y0398D01*
X031765Y03982D01*
X031745D01*
X031725Y03984D01*
X031705Y03982D01*
X031685D01*
X031705Y0398D01*
X031685Y03978D01*
X031705D01*
X031725Y03976D01*
X023701Y02362D02*
X023741Y02366D01*
X023781D01*
X023741Y0237D01*
X023781Y02374D01*
X023741D01*
X023701Y02378D01*
X023661Y02374D01*
X023621D01*
X023661Y0237D01*
X023621Y02366D01*
X023661D01*
X023701Y02362D01*
Y02366D02*
X023721Y02368D01*
X023741D01*
X023721Y0237D01*
X023741Y02372D01*
X023721D01*
X023701Y02374D01*
X023681Y02372D01*
X023661D01*
X023681Y0237D01*
X023661Y02368D01*
X023681D01*
X023701Y02366D01*
X0134Y02137D02*
X01344Y02141D01*
X01348D01*
X01344Y02145D01*
X01348Y02149D01*
X01344D01*
X0134Y02153D01*
X01336Y02149D01*
X01332D01*
X01336Y02145D01*
X01332Y02141D01*
X01336D01*
X0134Y02137D01*
Y02141D02*
X01342Y02143D01*
X01344D01*
X01342Y02145D01*
X01344Y02147D01*
X01342D01*
X0134Y02149D01*
X01338Y02147D01*
X01336D01*
X01338Y02145D01*
X01336Y02143D01*
X01338D01*
X0134Y02141D01*
X0161Y01332D02*
X01614Y01336D01*
X01618D01*
X01614Y0134D01*
X01618Y01344D01*
X01614D01*
X0161Y01348D01*
X01606Y01344D01*
X01602D01*
X01606Y0134D01*
X01602Y01336D01*
X01606D01*
X0161Y01332D01*
Y01336D02*
X01612Y01338D01*
X01614D01*
X01612Y0134D01*
X01614Y01342D01*
X01612D01*
X0161Y01344D01*
X01608Y01342D01*
X01606D01*
X01608Y0134D01*
X01606Y01338D01*
X01608D01*
X0161Y01336D01*
D109*
X026936Y0202D02*
G03*
X026936Y0202I-00008J0D01*
G01*
X027724D02*
G03*
X027724Y0202I-00008J0D01*
G01*
X03208Y0406D02*
G03*
X03208Y0406I-00008J0D01*
G01*
X032867D02*
G03*
X032867Y0406I-00008J0D01*
G01*
X02313Y027562D02*
G03*
X02313Y027562I-00008J0D01*
G01*
Y026775D02*
G03*
X02313Y026775I-00008J0D01*
G01*
X032643Y0301D02*
G03*
X032643Y0301I-00008J0D01*
G01*
X03343D02*
G03*
X03343Y0301I-00008J0D01*
G01*
X01603Y018D02*
G03*
X01603Y018I-00008J0D01*
G01*
Y019D02*
G03*
X01603Y019I-00008J0D01*
G01*
X01503D02*
G03*
X01503Y019I-00008J0D01*
G01*
Y018D02*
G03*
X01503Y018I-00008J0D01*
G01*
D110*
X01599D02*
G03*
X01599Y018I-00004J0D01*
G01*
Y019D02*
G03*
X01599Y019I-00004J0D01*
G01*
X01499D02*
G03*
X01499Y019I-00004J0D01*
G01*
Y018D02*
G03*
X01499Y018I-00004J0D01*
G01*
M02*
