G04*
G04 #@! TF.GenerationSoftware,Altium Limited,Altium Designer,20.1.12 (249)*
G04*
G04 Layer_Color=16711935*
%FSTAX24Y24*%
%MOIN*%
G70*
G04*
G04 #@! TF.SameCoordinates,89921D2C-3172-4036-8A71-56443DCFD009*
G04*
G04*
G04 #@! TF.FilePolarity,Negative*
G04*
G01*
G75*
%ADD47C,0.0500*%
G04:AMPARAMS|DCode=51|XSize=35.6mil|YSize=78.9mil|CornerRadius=5.4mil|HoleSize=0mil|Usage=FLASHONLY|Rotation=180.000|XOffset=0mil|YOffset=0mil|HoleType=Round|Shape=RoundedRectangle|*
%AMROUNDEDRECTD51*
21,1,0.0356,0.0681,0,0,180.0*
21,1,0.0248,0.0789,0,0,180.0*
1,1,0.0108,-0.0124,0.0341*
1,1,0.0108,0.0124,0.0341*
1,1,0.0108,0.0124,-0.0341*
1,1,0.0108,-0.0124,-0.0341*
%
%ADD51ROUNDEDRECTD51*%
%ADD74C,0.0680*%
%ADD75C,0.0867*%
%ADD76C,0.0900*%
%ADD77C,0.0800*%
%ADD78C,0.0749*%
%ADD79C,0.0730*%
%ADD80P,0.0790X8X292.5*%
%ADD81C,0.0671*%
%ADD82R,0.0671X0.0671*%
%ADD83R,0.0671X0.0671*%
%ADD84R,0.0678X0.0678*%
%ADD85C,0.0678*%
%ADD86C,0.0830*%
%ADD87C,0.0880*%
%ADD88O,0.0730X0.0830*%
%ADD89C,0.0780*%
%ADD90R,0.0780X0.0780*%
%ADD91R,0.1580X0.1580*%
%ADD92C,0.1580*%
%ADD93R,0.0580X0.0580*%
%ADD94C,0.0710*%
%ADD95R,0.0710X0.0710*%
%ADD96O,0.1080X0.1680*%
%ADD97O,0.1680X0.1080*%
%ADD98C,0.0580*%
%ADD99C,0.0330*%
G04:AMPARAMS|DCode=133|XSize=63.1mil|YSize=78.9mil|CornerRadius=6.8mil|HoleSize=0mil|Usage=FLASHONLY|Rotation=0.000|XOffset=0mil|YOffset=0mil|HoleType=Round|Shape=RoundedRectangle|*
%AMROUNDEDRECTD133*
21,1,0.0631,0.0654,0,0,0.0*
21,1,0.0496,0.0789,0,0,0.0*
1,1,0.0135,0.0248,-0.0327*
1,1,0.0135,-0.0248,-0.0327*
1,1,0.0135,-0.0248,0.0327*
1,1,0.0135,0.0248,0.0327*
%
%ADD133ROUNDEDRECTD133*%
G04:AMPARAMS|DCode=134|XSize=67.1mil|YSize=106.4mil|CornerRadius=7mil|HoleSize=0mil|Usage=FLASHONLY|Rotation=0.000|XOffset=0mil|YOffset=0mil|HoleType=Round|Shape=RoundedRectangle|*
%AMROUNDEDRECTD134*
21,1,0.0671,0.0925,0,0,0.0*
21,1,0.0531,0.1064,0,0,0.0*
1,1,0.0139,0.0266,-0.0463*
1,1,0.0139,-0.0266,-0.0463*
1,1,0.0139,-0.0266,0.0463*
1,1,0.0139,0.0266,0.0463*
%
%ADD134ROUNDEDRECTD134*%
G04:AMPARAMS|DCode=135|XSize=78.9mil|YSize=106.4mil|CornerRadius=7.5mil|HoleSize=0mil|Usage=FLASHONLY|Rotation=0.000|XOffset=0mil|YOffset=0mil|HoleType=Round|Shape=RoundedRectangle|*
%AMROUNDEDRECTD135*
21,1,0.0789,0.0913,0,0,0.0*
21,1,0.0638,0.1064,0,0,0.0*
1,1,0.0151,0.0319,-0.0457*
1,1,0.0151,-0.0319,-0.0457*
1,1,0.0151,-0.0319,0.0457*
1,1,0.0151,0.0319,0.0457*
%
%ADD135ROUNDEDRECTD135*%
D47*
X0323Y0291D02*
X032325Y029125D01*
X0323Y0291D02*
Y03185D01*
X0313Y03285D02*
X0323Y03185D01*
X0313Y03285D02*
Y03675D01*
D51*
X016094Y040313D02*
D03*
X017094Y040313D02*
D03*
X018094Y040313D02*
D03*
X015594Y040313D02*
D03*
X016594Y040313D02*
D03*
X017594D02*
D03*
D74*
X019841Y046021D02*
D03*
X016495D02*
D03*
D75*
X0327Y035433D02*
D03*
X0327Y033433D02*
D03*
Y036433D02*
D03*
Y034433D02*
D03*
X03155Y02415D02*
D03*
Y02215D02*
D03*
Y02515D02*
D03*
Y02315D02*
D03*
D76*
X01323Y044073D02*
D03*
X01123D02*
D03*
Y046073D02*
D03*
X01323D02*
D03*
D77*
X01223Y045073D02*
D03*
D78*
X0234Y044363D02*
D03*
X0244D02*
D03*
X0234Y04535D02*
D03*
X0244D02*
D03*
D79*
X0127Y0181D02*
D03*
D80*
Y0191D02*
D03*
D81*
X026866Y0194D02*
D03*
X032Y0406D02*
D03*
X0249Y027544D02*
D03*
X03335Y0301D02*
D03*
D82*
X027653Y0194D02*
D03*
X032787Y0406D02*
D03*
X032563Y0301D02*
D03*
D83*
X0249Y026756D02*
D03*
D84*
X0127Y01325D02*
D03*
D85*
Y01425D02*
D03*
Y01525D02*
D03*
Y01625D02*
D03*
D86*
X02885Y04425D02*
D03*
X027078D02*
D03*
D87*
X026586Y043266D02*
D03*
X029342D02*
D03*
D88*
X01955Y023778D02*
D03*
X01854D02*
D03*
D89*
X03025Y0106D02*
D03*
X03325Y0106D02*
D03*
X02925Y0116D02*
D03*
X02925Y0106D02*
D03*
X03025Y0116D02*
D03*
X03125Y0116D02*
D03*
X03225Y0116D02*
D03*
Y0106D02*
D03*
X03125Y0106D02*
D03*
D90*
X03325Y0116D02*
D03*
D91*
X02535Y0315D02*
D03*
D92*
Y0295D02*
D03*
D93*
X019138Y01465D02*
D03*
Y01701D02*
D03*
Y01622D02*
D03*
Y01544D02*
D03*
Y01386D02*
D03*
Y01307D02*
D03*
Y01229D02*
D03*
Y0115D02*
D03*
X0246D02*
D03*
Y01702D02*
D03*
Y01622D02*
D03*
X0246Y01544D02*
D03*
X0246Y01464D02*
D03*
Y01387D02*
D03*
X0246Y01307D02*
D03*
Y01232D02*
D03*
D94*
X01595Y018D02*
D03*
Y019D02*
D03*
X01495Y018D02*
D03*
D95*
Y019D02*
D03*
D96*
X0312Y0436D02*
D03*
D97*
X0332Y0451D02*
D03*
Y0426D02*
D03*
D98*
X021589Y042591D02*
D03*
X021822Y024378D02*
D03*
X016207Y039262D02*
D03*
X015368Y0393D02*
D03*
X018012Y039075D02*
D03*
X0219Y02905D02*
D03*
X0211Y03D02*
D03*
X02065Y02915D02*
D03*
X0211Y0237D02*
D03*
D99*
X011668Y041056D02*
D03*
Y041557D02*
D03*
X012807Y041108D02*
D03*
Y041608D02*
D03*
X012909Y042061D02*
D03*
Y042561D02*
D03*
X011545Y041982D02*
D03*
Y042481D02*
D03*
X012862Y044719D02*
D03*
X011601Y044725D02*
D03*
X01168Y045589D02*
D03*
X012759Y045569D02*
D03*
X012969Y045069D02*
D03*
X012206Y045801D02*
D03*
X011483Y045074D02*
D03*
X011823Y044446D02*
D03*
Y043946D02*
D03*
X012644Y044411D02*
D03*
Y043911D02*
D03*
X011815Y043594D02*
D03*
Y043094D02*
D03*
X012637Y043559D02*
D03*
Y043059D02*
D03*
X010329Y032824D02*
D03*
Y032324D02*
D03*
X011151Y032789D02*
D03*
Y032289D02*
D03*
X011143Y03315D02*
D03*
X010347D02*
D03*
X013069Y031152D02*
D03*
X012572Y031099D02*
D03*
X012072D02*
D03*
X011572D02*
D03*
X013153Y03193D02*
D03*
X012656Y031877D02*
D03*
X012156D02*
D03*
X011656D02*
D03*
X011169Y033643D02*
D03*
Y034143D02*
D03*
Y034643D02*
D03*
X011143Y035114D02*
D03*
X01109Y035612D02*
D03*
Y036112D02*
D03*
Y036612D02*
D03*
X010347Y033678D02*
D03*
Y034178D02*
D03*
Y034678D02*
D03*
X010401Y035114D02*
D03*
X010347Y035612D02*
D03*
Y036112D02*
D03*
Y036612D02*
D03*
X011804Y040681D02*
D03*
X011819Y040181D02*
D03*
X011733Y039689D02*
D03*
Y039189D02*
D03*
X011922Y038726D02*
D03*
X011605Y038339D02*
D03*
X011251Y037985D02*
D03*
X010898Y037632D02*
D03*
X010584Y037243D02*
D03*
X010476Y031774D02*
D03*
X010761Y031364D02*
D03*
X011116Y032004D02*
D03*
X011227Y036985D02*
D03*
X011577Y037343D02*
D03*
X01193Y037696D02*
D03*
X012282Y038051D02*
D03*
X01255Y038474D02*
D03*
X012763Y038926D02*
D03*
X012864Y03991D02*
D03*
X012685Y040376D02*
D03*
X012479Y040832D02*
D03*
D133*
X01498Y041258D02*
D03*
D134*
Y046219D02*
D03*
X0212D02*
D03*
D135*
Y041258D02*
D03*
M02*
