G04*
G04 #@! TF.GenerationSoftware,Altium Limited,Altium Designer,20.1.12 (249)*
G04*
G04 Layer_Color=8388736*
%FSTAX24Y24*%
%MOIN*%
G70*
G04*
G04 #@! TF.SameCoordinates,89921D2C-3172-4036-8A71-56443DCFD009*
G04*
G04*
G04 #@! TF.FilePolarity,Negative*
G04*
G01*
G75*
%ADD16C,0.0100*%
G04:AMPARAMS|DCode=30|XSize=39.4mil|YSize=133.9mil|CornerRadius=9.8mil|HoleSize=0mil|Usage=FLASHONLY|Rotation=90.000|XOffset=0mil|YOffset=0mil|HoleType=Round|Shape=RoundedRectangle|*
%AMROUNDEDRECTD30*
21,1,0.0394,0.1142,0,0,90.0*
21,1,0.0197,0.1339,0,0,90.0*
1,1,0.0197,0.0571,0.0098*
1,1,0.0197,0.0571,-0.0098*
1,1,0.0197,-0.0571,-0.0098*
1,1,0.0197,-0.0571,0.0098*
%
%ADD30ROUNDEDRECTD30*%
%ADD47C,0.0500*%
%ADD48C,0.0060*%
%ADD49R,0.0316X0.0434*%
G04:AMPARAMS|DCode=50|XSize=31.6mil|YSize=78.9mil|CornerRadius=5.2mil|HoleSize=0mil|Usage=FLASHONLY|Rotation=180.000|XOffset=0mil|YOffset=0mil|HoleType=Round|Shape=RoundedRectangle|*
%AMROUNDEDRECTD50*
21,1,0.0316,0.0685,0,0,180.0*
21,1,0.0213,0.0789,0,0,180.0*
1,1,0.0104,-0.0106,0.0343*
1,1,0.0104,0.0106,0.0343*
1,1,0.0104,0.0106,-0.0343*
1,1,0.0104,-0.0106,-0.0343*
%
%ADD50ROUNDEDRECTD50*%
G04:AMPARAMS|DCode=51|XSize=35.6mil|YSize=78.9mil|CornerRadius=5.4mil|HoleSize=0mil|Usage=FLASHONLY|Rotation=180.000|XOffset=0mil|YOffset=0mil|HoleType=Round|Shape=RoundedRectangle|*
%AMROUNDEDRECTD51*
21,1,0.0356,0.0681,0,0,180.0*
21,1,0.0248,0.0789,0,0,180.0*
1,1,0.0108,-0.0124,0.0341*
1,1,0.0108,0.0124,0.0341*
1,1,0.0108,0.0124,-0.0341*
1,1,0.0108,-0.0124,-0.0341*
%
%ADD51ROUNDEDRECTD51*%
G04:AMPARAMS|DCode=52|XSize=71mil|YSize=67.1mil|CornerRadius=7mil|HoleSize=0mil|Usage=FLASHONLY|Rotation=180.000|XOffset=0mil|YOffset=0mil|HoleType=Round|Shape=RoundedRectangle|*
%AMROUNDEDRECTD52*
21,1,0.0710,0.0531,0,0,180.0*
21,1,0.0571,0.0671,0,0,180.0*
1,1,0.0139,-0.0285,0.0266*
1,1,0.0139,0.0285,0.0266*
1,1,0.0139,0.0285,-0.0266*
1,1,0.0139,-0.0285,-0.0266*
%
%ADD52ROUNDEDRECTD52*%
G04:AMPARAMS|DCode=53|XSize=55.2mil|YSize=94.6mil|CornerRadius=6.4mil|HoleSize=0mil|Usage=FLASHONLY|Rotation=180.000|XOffset=0mil|YOffset=0mil|HoleType=Round|Shape=RoundedRectangle|*
%AMROUNDEDRECTD53*
21,1,0.0552,0.0819,0,0,180.0*
21,1,0.0425,0.0946,0,0,180.0*
1,1,0.0127,-0.0213,0.0409*
1,1,0.0127,0.0213,0.0409*
1,1,0.0127,0.0213,-0.0409*
1,1,0.0127,-0.0213,-0.0409*
%
%ADD53ROUNDEDRECTD53*%
G04:AMPARAMS|DCode=54|XSize=67.1mil|YSize=63.1mil|CornerRadius=6.8mil|HoleSize=0mil|Usage=FLASHONLY|Rotation=180.000|XOffset=0mil|YOffset=0mil|HoleType=Round|Shape=RoundedRectangle|*
%AMROUNDEDRECTD54*
21,1,0.0671,0.0496,0,0,180.0*
21,1,0.0535,0.0631,0,0,180.0*
1,1,0.0135,-0.0268,0.0248*
1,1,0.0135,0.0268,0.0248*
1,1,0.0135,0.0268,-0.0248*
1,1,0.0135,-0.0268,-0.0248*
%
%ADD54ROUNDEDRECTD54*%
%ADD55R,0.0395X0.0513*%
G04:AMPARAMS|DCode=56|XSize=401.7mil|YSize=323mil|CornerRadius=82.7mil|HoleSize=0mil|Usage=FLASHONLY|Rotation=90.000|XOffset=0mil|YOffset=0mil|HoleType=Round|Shape=RoundedRectangle|*
%AMROUNDEDRECTD56*
21,1,0.4017,0.1575,0,0,90.0*
21,1,0.2362,0.3230,0,0,90.0*
1,1,0.1655,0.0787,0.1181*
1,1,0.1655,0.0787,-0.1181*
1,1,0.1655,-0.0787,-0.1181*
1,1,0.1655,-0.0787,0.1181*
%
%ADD56ROUNDEDRECTD56*%
G04:AMPARAMS|DCode=57|XSize=47.4mil|YSize=141.9mil|CornerRadius=13.8mil|HoleSize=0mil|Usage=FLASHONLY|Rotation=90.000|XOffset=0mil|YOffset=0mil|HoleType=Round|Shape=RoundedRectangle|*
%AMROUNDEDRECTD57*
21,1,0.0474,0.1142,0,0,90.0*
21,1,0.0197,0.1419,0,0,90.0*
1,1,0.0277,0.0571,0.0098*
1,1,0.0277,0.0571,-0.0098*
1,1,0.0277,-0.0571,-0.0098*
1,1,0.0277,-0.0571,0.0098*
%
%ADD57ROUNDEDRECTD57*%
%ADD58R,0.0580X0.0730*%
%ADD59R,0.0630X0.0513*%
%ADD60R,0.0513X0.0630*%
%ADD61R,0.1104X0.0946*%
%ADD62R,0.1025X0.1379*%
%ADD63R,0.1025X0.0474*%
%ADD64R,0.0630X0.0474*%
%ADD65O,0.0946X0.0316*%
%ADD66R,0.0434X0.0316*%
%ADD67R,0.0946X0.1104*%
%ADD68R,0.0474X0.0630*%
%ADD69R,0.0680X0.0730*%
%ADD70R,0.0671X0.0592*%
%ADD71R,0.0395X0.0552*%
%ADD72O,0.0316X0.0946*%
%ADD73R,0.2206X0.1261*%
%ADD74C,0.0680*%
%ADD75C,0.0867*%
%ADD76C,0.0900*%
%ADD77C,0.0800*%
%ADD78C,0.0749*%
%ADD79C,0.0730*%
%ADD80P,0.0790X8X292.5*%
%ADD81C,0.0671*%
%ADD82R,0.0671X0.0671*%
%ADD83R,0.0671X0.0671*%
%ADD84R,0.0678X0.0678*%
%ADD85C,0.0678*%
%ADD86C,0.0830*%
%ADD87C,0.0880*%
%ADD88O,0.0730X0.0830*%
%ADD89C,0.0780*%
%ADD90R,0.0780X0.0780*%
%ADD91R,0.1580X0.1580*%
%ADD92C,0.1580*%
%ADD93R,0.0580X0.0580*%
%ADD94C,0.0710*%
%ADD95R,0.0710X0.0710*%
%ADD96O,0.1080X0.1680*%
%ADD97O,0.1680X0.1080*%
%ADD98C,0.0580*%
%ADD99C,0.0330*%
D16*
X036441Y04905D02*
Y04925D01*
X008941Y04905D02*
Y04925D01*
X035841Y04895D02*
X036441Y04915D01*
X035841Y04935D02*
X036441Y04915D01*
X008941D02*
X009541Y04895D01*
X008941Y04915D02*
X009541Y04935D01*
X0255Y04915D02*
X036441D01*
X008941D02*
X019882D01*
D30*
X03Y036362D02*
D03*
D47*
X01995Y0248D02*
Y025658D01*
X015358Y02265D02*
X01755D01*
X0182Y0233D01*
X01995Y025658D02*
X021092Y0268D01*
X0287D01*
X0288Y0267D01*
X0312D01*
X0336Y0344D02*
X03465D01*
X03395Y04125D02*
X0348Y0404D01*
Y0344D02*
Y0404D01*
D48*
X020382Y04879D02*
X019982D01*
X020382Y04919D01*
Y04929D01*
X020282Y04939D01*
X020082D01*
X019982Y04929D01*
X020582Y04939D02*
X020981D01*
Y04929D01*
X020582Y04889D01*
Y04879D01*
X021581Y04939D02*
X021181D01*
Y04909D01*
X021381Y04919D01*
X021481D01*
X021581Y04909D01*
Y04889D01*
X021481Y04879D01*
X021281D01*
X021181Y04889D01*
X021781Y04929D02*
X021881Y04939D01*
X022081D01*
X022181Y04929D01*
Y04889D01*
X022081Y04879D01*
X021881D01*
X021781Y04889D01*
Y04929D01*
X023181Y04879D02*
X022981Y04899D01*
Y04919D01*
X023181Y04939D01*
X023481Y04879D02*
Y04919D01*
X023581D01*
X023681Y04909D01*
Y04879D01*
Y04909D01*
X023781Y04919D01*
X02388Y04909D01*
Y04879D01*
X02408D02*
X02428D01*
X02418D01*
Y04919D01*
X02408D01*
X02458Y04879D02*
X02478D01*
X02468D01*
Y04939D01*
X02458D01*
X02508Y04879D02*
X02528Y04899D01*
Y04919D01*
X02508Y04939D01*
D49*
X02135Y0396D02*
D03*
X020635Y0396D02*
D03*
D50*
X017341Y040892D02*
D03*
X016967D02*
D03*
D51*
X019841D02*
D03*
X019341D02*
D03*
X017841D02*
D03*
X018841D02*
D03*
X018341D02*
D03*
D52*
X015191Y041842D02*
D03*
D53*
X015291Y046492D02*
D03*
X020591D02*
D03*
D54*
X020641Y041792D02*
D03*
D55*
X02435Y0422D02*
D03*
X02355D02*
D03*
X02435Y043033D02*
D03*
X02355D02*
D03*
D56*
X0257Y036312D02*
D03*
D57*
X03Y035024D02*
D03*
Y035693D02*
D03*
Y037032D02*
D03*
Y037701D02*
D03*
D58*
X01805Y0277D02*
D03*
X01935Y0277D02*
D03*
D59*
X016667Y023475D02*
D03*
Y024262D02*
D03*
X032Y024D02*
D03*
Y023213D02*
D03*
X01805Y039037D02*
D03*
Y03825D02*
D03*
X02685Y017794D02*
D03*
Y017006D02*
D03*
X02585Y017006D02*
D03*
Y017794D02*
D03*
X03185Y035544D02*
D03*
Y034756D02*
D03*
D60*
X015663Y02505D02*
D03*
X01645D02*
D03*
X026931Y020888D02*
D03*
X027719D02*
D03*
X016196Y039192D02*
D03*
X015408D02*
D03*
X023856Y020354D02*
D03*
X024644D02*
D03*
X027644Y0117D02*
D03*
X026856D02*
D03*
X033106Y0355D02*
D03*
X033894D02*
D03*
D61*
X017552Y0263D02*
D03*
X015583D02*
D03*
D62*
X02802Y022242D02*
D03*
D63*
X030303Y023147D02*
D03*
X030303Y022242D02*
D03*
X030303Y021336D02*
D03*
D64*
X0211Y020384D02*
D03*
X0211Y019484D02*
D03*
X022116Y020394D02*
D03*
Y019494D02*
D03*
X02595Y0126D02*
D03*
Y0117D02*
D03*
X0261Y0097D02*
D03*
X0261Y0088D02*
D03*
X01275Y01995D02*
D03*
Y02085D02*
D03*
X0318Y0364D02*
D03*
Y0373D02*
D03*
X0327Y0373D02*
D03*
Y0364D02*
D03*
D65*
X020191Y031068D02*
D03*
Y031501D02*
D03*
Y033667D02*
D03*
Y0341D02*
D03*
Y034533D02*
D03*
Y034966D02*
D03*
Y035399D02*
D03*
Y035832D02*
D03*
Y033233D02*
D03*
Y0328D02*
D03*
Y032367D02*
D03*
Y031934D02*
D03*
X014009Y031068D02*
D03*
Y031501D02*
D03*
Y031934D02*
D03*
Y032367D02*
D03*
Y0328D02*
D03*
Y033233D02*
D03*
Y035832D02*
D03*
Y035399D02*
D03*
Y034966D02*
D03*
Y034533D02*
D03*
Y0341D02*
D03*
Y033667D02*
D03*
D66*
X01223Y040446D02*
D03*
X01223Y041161D02*
D03*
X01875Y03825D02*
D03*
X01875Y038965D02*
D03*
X01935Y03825D02*
D03*
X01935Y038965D02*
D03*
X017083Y0383D02*
D03*
X017083Y039015D02*
D03*
D67*
X012129Y033115D02*
D03*
Y035084D02*
D03*
D68*
X022766Y039416D02*
D03*
X023666D02*
D03*
X025678Y01387D02*
D03*
X026578Y01387D02*
D03*
X0174Y01625D02*
D03*
X0165D02*
D03*
X015Y0204D02*
D03*
X0159Y0204D02*
D03*
X01745Y01379D02*
D03*
X01655D02*
D03*
D69*
X01221Y04225D02*
D03*
X01351D02*
D03*
X01231Y03948D02*
D03*
X01361D02*
D03*
X01556Y0277D02*
D03*
X01686D02*
D03*
X01551Y0286D02*
D03*
X01681D02*
D03*
D70*
X0279Y017876D02*
D03*
Y017128D02*
D03*
X0155Y024152D02*
D03*
Y023404D02*
D03*
D71*
X015Y014122D02*
D03*
Y016878D02*
D03*
D72*
X016667Y036915D02*
D03*
X016234Y036915D02*
D03*
X015801Y036915D02*
D03*
X015368D02*
D03*
X0171Y036915D02*
D03*
X017533Y036915D02*
D03*
X017966Y036915D02*
D03*
X018399Y036915D02*
D03*
X018832D02*
D03*
Y029985D02*
D03*
X018399D02*
D03*
X017966Y029985D02*
D03*
X017533Y029985D02*
D03*
X0171Y029985D02*
D03*
X015368Y029985D02*
D03*
X015801D02*
D03*
X016234Y029985D02*
D03*
X016667Y029985D02*
D03*
D73*
X0293Y031979D02*
D03*
Y028121D02*
D03*
D74*
X019841Y046021D02*
D03*
X016495D02*
D03*
D75*
X0327Y035433D02*
D03*
X0327Y033433D02*
D03*
Y036433D02*
D03*
Y034433D02*
D03*
X03155Y02415D02*
D03*
Y02215D02*
D03*
Y02515D02*
D03*
Y02315D02*
D03*
D76*
X01323Y044073D02*
D03*
X01123D02*
D03*
Y046073D02*
D03*
X01323D02*
D03*
D77*
X01223Y045073D02*
D03*
D78*
X0234Y044363D02*
D03*
X0244D02*
D03*
X0234Y04535D02*
D03*
X0244D02*
D03*
D79*
X0127Y0181D02*
D03*
D80*
Y0191D02*
D03*
D81*
X026866Y0194D02*
D03*
X032Y0406D02*
D03*
X0249Y027544D02*
D03*
X03335Y0301D02*
D03*
D82*
X027653Y0194D02*
D03*
X032787Y0406D02*
D03*
X032563Y0301D02*
D03*
D83*
X0249Y026756D02*
D03*
D84*
X0127Y01325D02*
D03*
D85*
Y01425D02*
D03*
Y01525D02*
D03*
Y01625D02*
D03*
D86*
X02885Y04425D02*
D03*
X027078D02*
D03*
D87*
X026586Y043266D02*
D03*
X029342D02*
D03*
D88*
X01955Y023778D02*
D03*
X01854D02*
D03*
D89*
X03025Y0106D02*
D03*
X03325Y0106D02*
D03*
X02925Y0116D02*
D03*
X02925Y0106D02*
D03*
X03025Y0116D02*
D03*
X03125Y0116D02*
D03*
X03225Y0116D02*
D03*
Y0106D02*
D03*
X03125Y0106D02*
D03*
D90*
X03325Y0116D02*
D03*
D91*
X02535Y0315D02*
D03*
D92*
Y0295D02*
D03*
D93*
X019138Y01465D02*
D03*
Y01701D02*
D03*
Y01622D02*
D03*
Y01544D02*
D03*
Y01386D02*
D03*
Y01307D02*
D03*
Y01229D02*
D03*
Y0115D02*
D03*
X0246D02*
D03*
Y01702D02*
D03*
Y01622D02*
D03*
X0246Y01544D02*
D03*
X0246Y01464D02*
D03*
Y01387D02*
D03*
X0246Y01307D02*
D03*
Y01232D02*
D03*
D94*
X01595Y018D02*
D03*
Y019D02*
D03*
X01495Y018D02*
D03*
D95*
Y019D02*
D03*
D96*
X0312Y0436D02*
D03*
D97*
X0332Y0451D02*
D03*
Y0426D02*
D03*
D98*
X021589Y042591D02*
D03*
X021822Y024378D02*
D03*
X016207Y039262D02*
D03*
X015368Y0393D02*
D03*
X018012Y039075D02*
D03*
X0219Y02905D02*
D03*
X0211Y03D02*
D03*
X02065Y02915D02*
D03*
X0211Y0237D02*
D03*
D99*
X011668Y041056D02*
D03*
Y041557D02*
D03*
X012807Y041108D02*
D03*
Y041608D02*
D03*
X012909Y042061D02*
D03*
Y042561D02*
D03*
X011545Y041982D02*
D03*
Y042481D02*
D03*
X012862Y044719D02*
D03*
X011601Y044725D02*
D03*
X01168Y045589D02*
D03*
X012759Y045569D02*
D03*
X012969Y045069D02*
D03*
X012206Y045801D02*
D03*
X011483Y045074D02*
D03*
X011823Y044446D02*
D03*
Y043946D02*
D03*
X012644Y044411D02*
D03*
Y043911D02*
D03*
X011815Y043594D02*
D03*
Y043094D02*
D03*
X012637Y043559D02*
D03*
Y043059D02*
D03*
X010329Y032824D02*
D03*
Y032324D02*
D03*
X011151Y032789D02*
D03*
Y032289D02*
D03*
X011143Y03315D02*
D03*
X010347D02*
D03*
X013069Y031152D02*
D03*
X012572Y031099D02*
D03*
X012072D02*
D03*
X011572D02*
D03*
X013153Y03193D02*
D03*
X012656Y031877D02*
D03*
X012156D02*
D03*
X011656D02*
D03*
X011169Y033643D02*
D03*
Y034143D02*
D03*
Y034643D02*
D03*
X011143Y035114D02*
D03*
X01109Y035612D02*
D03*
Y036112D02*
D03*
Y036612D02*
D03*
X010347Y033678D02*
D03*
Y034178D02*
D03*
Y034678D02*
D03*
X010401Y035114D02*
D03*
X010347Y035612D02*
D03*
Y036112D02*
D03*
Y036612D02*
D03*
X011804Y040681D02*
D03*
X011819Y040181D02*
D03*
X011733Y039689D02*
D03*
Y039189D02*
D03*
X011922Y038726D02*
D03*
X011605Y038339D02*
D03*
X011251Y037985D02*
D03*
X010898Y037632D02*
D03*
X010584Y037243D02*
D03*
X010476Y031774D02*
D03*
X010761Y031364D02*
D03*
X011116Y032004D02*
D03*
X011227Y036985D02*
D03*
X011577Y037343D02*
D03*
X01193Y037696D02*
D03*
X012282Y038051D02*
D03*
X01255Y038474D02*
D03*
X012763Y038926D02*
D03*
X012864Y03991D02*
D03*
X012685Y040376D02*
D03*
X012479Y040832D02*
D03*
M02*
