G04*
G04 #@! TF.GenerationSoftware,Altium Limited,Altium Designer,20.1.12 (249)*
G04*
G04 Layer_Physical_Order=1*
G04 Layer_Color=255*
%FSTAX24Y24*%
%MOIN*%
G70*
G04*
G04 #@! TF.SameCoordinates,89921D2C-3172-4036-8A71-56443DCFD009*
G04*
G04*
G04 #@! TF.FilePolarity,Positive*
G04*
G01*
G75*
%ADD16C,0.0100*%
%ADD22R,0.0236X0.0354*%
G04:AMPARAMS|DCode=23|XSize=23.6mil|YSize=70.9mil|CornerRadius=1.2mil|HoleSize=0mil|Usage=FLASHONLY|Rotation=180.000|XOffset=0mil|YOffset=0mil|HoleType=Round|Shape=RoundedRectangle|*
%AMROUNDEDRECTD23*
21,1,0.0236,0.0685,0,0,180.0*
21,1,0.0213,0.0709,0,0,180.0*
1,1,0.0024,-0.0106,0.0343*
1,1,0.0024,0.0106,0.0343*
1,1,0.0024,0.0106,-0.0343*
1,1,0.0024,-0.0106,-0.0343*
%
%ADD23ROUNDEDRECTD23*%
G04:AMPARAMS|DCode=24|XSize=27.6mil|YSize=70.9mil|CornerRadius=1.4mil|HoleSize=0mil|Usage=FLASHONLY|Rotation=180.000|XOffset=0mil|YOffset=0mil|HoleType=Round|Shape=RoundedRectangle|*
%AMROUNDEDRECTD24*
21,1,0.0276,0.0681,0,0,180.0*
21,1,0.0248,0.0709,0,0,180.0*
1,1,0.0028,-0.0124,0.0341*
1,1,0.0028,0.0124,0.0341*
1,1,0.0028,0.0124,-0.0341*
1,1,0.0028,-0.0124,-0.0341*
%
%ADD24ROUNDEDRECTD24*%
G04:AMPARAMS|DCode=25|XSize=63mil|YSize=59.1mil|CornerRadius=3mil|HoleSize=0mil|Usage=FLASHONLY|Rotation=180.000|XOffset=0mil|YOffset=0mil|HoleType=Round|Shape=RoundedRectangle|*
%AMROUNDEDRECTD25*
21,1,0.0630,0.0531,0,0,180.0*
21,1,0.0571,0.0591,0,0,180.0*
1,1,0.0059,-0.0285,0.0266*
1,1,0.0059,0.0285,0.0266*
1,1,0.0059,0.0285,-0.0266*
1,1,0.0059,-0.0285,-0.0266*
%
%ADD25ROUNDEDRECTD25*%
G04:AMPARAMS|DCode=26|XSize=47.2mil|YSize=86.6mil|CornerRadius=2.4mil|HoleSize=0mil|Usage=FLASHONLY|Rotation=180.000|XOffset=0mil|YOffset=0mil|HoleType=Round|Shape=RoundedRectangle|*
%AMROUNDEDRECTD26*
21,1,0.0472,0.0819,0,0,180.0*
21,1,0.0425,0.0866,0,0,180.0*
1,1,0.0047,-0.0213,0.0409*
1,1,0.0047,0.0213,0.0409*
1,1,0.0047,0.0213,-0.0409*
1,1,0.0047,-0.0213,-0.0409*
%
%ADD26ROUNDEDRECTD26*%
G04:AMPARAMS|DCode=27|XSize=59.1mil|YSize=55.1mil|CornerRadius=2.8mil|HoleSize=0mil|Usage=FLASHONLY|Rotation=180.000|XOffset=0mil|YOffset=0mil|HoleType=Round|Shape=RoundedRectangle|*
%AMROUNDEDRECTD27*
21,1,0.0591,0.0496,0,0,180.0*
21,1,0.0535,0.0551,0,0,180.0*
1,1,0.0055,-0.0268,0.0248*
1,1,0.0055,0.0268,0.0248*
1,1,0.0055,0.0268,-0.0248*
1,1,0.0055,-0.0268,-0.0248*
%
%ADD27ROUNDEDRECTD27*%
%ADD28R,0.0315X0.0433*%
G04:AMPARAMS|DCode=29|XSize=393.7mil|YSize=315mil|CornerRadius=78.7mil|HoleSize=0mil|Usage=FLASHONLY|Rotation=90.000|XOffset=0mil|YOffset=0mil|HoleType=Round|Shape=RoundedRectangle|*
%AMROUNDEDRECTD29*
21,1,0.3937,0.1575,0,0,90.0*
21,1,0.2362,0.3150,0,0,90.0*
1,1,0.1575,0.0787,0.1181*
1,1,0.1575,0.0787,-0.1181*
1,1,0.1575,-0.0787,-0.1181*
1,1,0.1575,-0.0787,0.1181*
%
%ADD29ROUNDEDRECTD29*%
G04:AMPARAMS|DCode=30|XSize=39.4mil|YSize=133.9mil|CornerRadius=9.8mil|HoleSize=0mil|Usage=FLASHONLY|Rotation=90.000|XOffset=0mil|YOffset=0mil|HoleType=Round|Shape=RoundedRectangle|*
%AMROUNDEDRECTD30*
21,1,0.0394,0.1142,0,0,90.0*
21,1,0.0197,0.1339,0,0,90.0*
1,1,0.0197,0.0571,0.0098*
1,1,0.0197,0.0571,-0.0098*
1,1,0.0197,-0.0571,-0.0098*
1,1,0.0197,-0.0571,0.0098*
%
%ADD30ROUNDEDRECTD30*%
%ADD31R,0.0500X0.0650*%
%ADD32R,0.0550X0.0433*%
%ADD33R,0.0433X0.0550*%
%ADD34R,0.1024X0.0866*%
%ADD35R,0.0945X0.1299*%
%ADD36R,0.0945X0.0394*%
%ADD37R,0.0550X0.0394*%
%ADD38O,0.0866X0.0236*%
%ADD39R,0.0354X0.0236*%
%ADD40R,0.0866X0.1024*%
%ADD41R,0.0394X0.0550*%
%ADD42R,0.0600X0.0650*%
%ADD43R,0.0591X0.0512*%
%ADD44R,0.0315X0.0472*%
%ADD45O,0.0236X0.0866*%
%ADD46R,0.2126X0.1181*%
%ADD77C,0.0800*%
%ADD100C,0.0120*%
%ADD101C,0.0197*%
%ADD102C,0.0394*%
%ADD103C,0.0315*%
%ADD104C,0.0600*%
%ADD105C,0.0787*%
%ADD106C,0.0820*%
%ADD107C,0.0720*%
%ADD108C,0.0669*%
%ADD109C,0.0650*%
%ADD110P,0.0704X8X292.5*%
%ADD111C,0.0591*%
%ADD112R,0.0591X0.0591*%
%ADD113R,0.0591X0.0591*%
%ADD114R,0.0598X0.0598*%
%ADD115C,0.0598*%
%ADD116C,0.0750*%
%ADD117O,0.0650X0.0750*%
%ADD118C,0.0700*%
%ADD119R,0.0700X0.0700*%
%ADD120R,0.1500X0.1500*%
%ADD121C,0.1500*%
%ADD122R,0.0500X0.0500*%
%ADD123C,0.0630*%
%ADD124R,0.0630X0.0630*%
%ADD125O,0.1000X0.1600*%
%ADD126O,0.1600X0.1000*%
%ADD127C,0.0500*%
%ADD128C,0.0250*%
G36*
X021178Y046842D02*
X021192Y046828D01*
X0212Y04681D01*
Y0468D01*
Y045637D01*
Y04563D01*
X021194Y045616D01*
X021184Y045606D01*
X02117Y0456D01*
X02052D01*
X020465Y045623D01*
X020423Y045665D01*
X0204Y04572D01*
Y04575D01*
Y0468D01*
Y04681D01*
X020408Y046828D01*
X020422Y046842D01*
X02044Y04685D01*
X02116D01*
X021178Y046842D01*
D02*
G37*
G36*
X01545Y046828D02*
X01549Y046788D01*
X015512Y046736D01*
Y046708D01*
Y045105D01*
Y045097D01*
X015506Y045084D01*
X015496Y045073D01*
X015482Y045068D01*
X01487D01*
Y045068D01*
X01482D01*
X014728Y045106D01*
X014658Y045176D01*
X01462Y045268D01*
Y045318D01*
Y046677D01*
Y046711D01*
X014646Y046775D01*
X014695Y046824D01*
X014758Y04685D01*
X015398D01*
X01545Y046828D01*
D02*
G37*
G36*
X022858Y043334D02*
X02282Y043301D01*
X0228Y043304D01*
X022683Y043288D01*
X022573Y043243D01*
X022479Y043171D01*
X022407Y043077D01*
X022362Y042967D01*
X022346Y04285D01*
X022362Y042733D01*
X022407Y042623D01*
X022479Y042529D01*
X022573Y042457D01*
X022683Y042412D01*
X0228Y042396D01*
X02282Y042399D01*
X022858Y042366D01*
Y041875D01*
X022795Y041812D01*
X022751Y041755D01*
X022723Y041743D01*
X022629Y041671D01*
X022557Y041577D01*
X022512Y041467D01*
X022496Y04135D01*
X022512Y041233D01*
X022557Y041123D01*
X022629Y041029D01*
X022723Y040957D01*
X022833Y040912D01*
X022858Y040908D01*
Y039791D01*
X022816D01*
Y039416D01*
Y039041D01*
X022858D01*
Y027278D01*
X020528D01*
X02045Y027262D01*
X020384Y027218D01*
X019142Y025976D01*
X019097Y02591D01*
X019082Y025831D01*
Y025725D01*
X019032Y025708D01*
X019Y02575D01*
X018927Y025806D01*
X018841Y025841D01*
X0188Y025846D01*
Y0255D01*
Y025154D01*
X018841Y025159D01*
X018927Y025194D01*
X019Y02525D01*
X019032Y025292D01*
X019082Y025275D01*
Y024472D01*
X019036Y024453D01*
X01901Y024478D01*
X018944Y024522D01*
X018866Y024538D01*
X018286D01*
X018208Y024522D01*
X018142Y024478D01*
X018142Y024478D01*
X017568Y023904D01*
X017061D01*
X017042Y023946D01*
X017042Y023954D01*
Y024212D01*
X016667D01*
X016292D01*
Y023954D01*
X016272Y023904D01*
X015995Y023904D01*
Y024142D01*
X016003Y0242D01*
Y024575D01*
X016079D01*
Y025525D01*
X015884D01*
Y025667D01*
X016295D01*
Y026933D01*
X015811D01*
Y027175D01*
X01606D01*
Y028225D01*
X01601D01*
Y02864D01*
X016014Y028643D01*
X016061Y028705D01*
X016092Y028777D01*
X016102Y028855D01*
Y029402D01*
X016103Y029408D01*
X016103Y029435D01*
X016145Y029463D01*
X016154Y029464D01*
X016184Y029458D01*
Y029985D01*
Y030513D01*
X016149Y030506D01*
X016081Y03046D01*
X016079Y030461D01*
X016028Y030527D01*
X015961Y030578D01*
X015884Y03061D01*
X015801Y030621D01*
X015718Y03061D01*
X01564Y030578D01*
X015584Y030535D01*
X015528Y030578D01*
X015451Y03061D01*
X015368Y030621D01*
X015285Y03061D01*
X015207Y030578D01*
X015141Y030527D01*
X01509Y030461D01*
X015058Y030383D01*
X015047Y0303D01*
Y02967D01*
X015058Y029587D01*
X01509Y02951D01*
X015141Y029444D01*
X015207Y029393D01*
X015285Y029361D01*
X015368Y02935D01*
X01545Y02936D01*
X01546Y029361D01*
X0155Y02933D01*
Y029125D01*
X01501D01*
Y028075D01*
X01506D01*
Y027175D01*
X015209D01*
Y026933D01*
X014872D01*
Y025667D01*
X014985D01*
Y02555D01*
X014995Y025472D01*
X015025Y025399D01*
X015073Y025337D01*
X015135Y025289D01*
X015208Y025259D01*
X015246Y025254D01*
Y024608D01*
X015005D01*
Y023904D01*
X0144D01*
X014322Y023888D01*
X014256Y023844D01*
X014212Y023778D01*
X014196Y0237D01*
Y022975D01*
X0097D01*
Y03095D01*
Y031117D01*
Y046644D01*
X009781Y046725D01*
X0143D01*
Y046627D01*
X014416D01*
Y045318D01*
Y045268D01*
X014431Y04519D01*
X014469Y045098D01*
X014513Y045032D01*
X014584Y044962D01*
X01465Y044917D01*
X014742Y044879D01*
X01482Y044864D01*
X01487D01*
X01487Y044864D01*
X015441D01*
Y043329D01*
X015391Y04329D01*
X015386Y043291D01*
X014589D01*
X014563Y043341D01*
X014591Y043409D01*
X014596Y04345D01*
X013904D01*
X013909Y043409D01*
X013944Y043323D01*
X014Y04325D01*
X014055Y043209D01*
D01*
X014073Y043194D01*
X014159Y043159D01*
X014246Y043148D01*
X014261Y043142D01*
X01429Y043111D01*
X014285Y043087D01*
Y043087D01*
X014291Y043057D01*
X014285Y043027D01*
Y041068D01*
X0143Y040991D01*
D01*
X0143Y040989D01*
X014316Y040953D01*
X01436Y040887D01*
X01436Y040887D01*
X014349Y04086D01*
X014334Y040842D01*
X0143Y040846D01*
Y04055D01*
X014596D01*
X014591Y040591D01*
X014556Y040677D01*
X014503Y040746D01*
X014506Y04076D01*
X014527Y040792D01*
X014569Y040783D01*
X015359D01*
X015437Y040799D01*
X015437Y040799D01*
X015474Y040815D01*
X015541Y040859D01*
X015569Y040887D01*
X015613Y040954D01*
X015629Y040991D01*
X015645Y041069D01*
Y041385D01*
X015695Y041395D01*
X015701Y041381D01*
X015773Y041287D01*
X015867Y041214D01*
X015976Y041169D01*
X016094Y041154D01*
X016211Y041169D01*
X016321Y041214D01*
X016415Y041287D01*
X01643Y041307D01*
X016643D01*
X016646Y041303D01*
Y041242D01*
X016645Y041234D01*
Y040549D01*
X016661Y040467D01*
X016708Y040397D01*
X016778Y04035D01*
X016861Y040333D01*
X017073D01*
X017156Y04035D01*
X017226Y040397D01*
X017252Y040435D01*
X017291D01*
Y040892D01*
Y041348D01*
X017252D01*
X017248Y041354D01*
Y041428D01*
X017238Y041506D01*
X017208Y041578D01*
X01716Y041641D01*
X01698Y04182D01*
X016918Y041868D01*
X016845Y041898D01*
X016767Y041909D01*
X01643D01*
X016415Y041928D01*
X016321Y042001D01*
X016211Y042046D01*
X016094Y042061D01*
X015976Y042046D01*
X015867Y042001D01*
X015773Y041928D01*
X015758Y041909D01*
X01571Y041925D01*
Y042108D01*
X015693Y042197D01*
X015645Y042269D01*
Y042498D01*
X01565Y0425D01*
X018955D01*
X018988Y04245D01*
X018956Y042372D01*
X018941Y042261D01*
X01885Y042273D01*
X018733Y042258D01*
X018624Y042212D01*
X01853Y04214D01*
X018457Y042046D01*
X018412Y041937D01*
X018397Y041819D01*
X018412Y041702D01*
X018457Y041592D01*
X01853Y041498D01*
X018547Y041485D01*
X018525Y041438D01*
X018465Y04145D01*
X018217D01*
X018134Y041434D01*
X018091Y041405D01*
X018048Y041434D01*
X017965Y04145D01*
X017717D01*
X017634Y041434D01*
X017563Y041386D01*
X017519Y041321D01*
X017491Y04134D01*
X017447Y041348D01*
X017391D01*
Y040892D01*
Y040435D01*
X017447D01*
X01746Y040438D01*
X01751Y040401D01*
Y040101D01*
X016321D01*
X016243Y040091D01*
X01617Y040061D01*
X016108Y040013D01*
X015983Y039888D01*
X015935Y039825D01*
X015905Y039753D01*
X015895Y039675D01*
Y039667D01*
X015779D01*
Y039445D01*
X015775Y039441D01*
X015725Y039465D01*
Y039567D01*
X015595D01*
X015544Y039606D01*
X015459Y039641D01*
X015418Y039647D01*
Y0393D01*
X015368D01*
Y03925D01*
X015021D01*
X015027Y039209D01*
X015062Y039124D01*
X015092Y039085D01*
Y038817D01*
X015358D01*
Y039192D01*
X015458D01*
Y038817D01*
X015725D01*
Y03906D01*
X015775Y039083D01*
X015779Y03908D01*
Y038717D01*
X015895D01*
Y038254D01*
X015905Y038176D01*
X015935Y038104D01*
X015983Y038042D01*
X016366Y037658D01*
Y037457D01*
X016327Y037436D01*
X016316Y037436D01*
X016284Y037442D01*
Y036915D01*
Y036387D01*
X016319Y036394D01*
X016387Y03644D01*
X016389Y036439D01*
X016424Y036393D01*
X016411Y036348D01*
X016405Y03634D01*
X016323Y036306D01*
X01625Y03625D01*
X016194Y036177D01*
X016159Y036091D01*
X016154Y03605D01*
X016846D01*
X016841Y036091D01*
X016806Y036177D01*
X016757Y03624D01*
X016755Y03625D01*
X01676Y036274D01*
X016769Y036298D01*
X016827Y036322D01*
X016883Y036365D01*
X01694Y036322D01*
X017017Y03629D01*
X0171Y036279D01*
X017183Y03629D01*
X01726Y036322D01*
X017317Y036365D01*
X017373Y036322D01*
X01745Y03629D01*
X017533Y036279D01*
X017616Y03629D01*
X017694Y036322D01*
X017742Y036359D01*
X017784Y036333D01*
X017788Y036282D01*
X017786Y036277D01*
X01775Y03625D01*
X017694Y036177D01*
X017659Y036091D01*
X017654Y03605D01*
X018346D01*
X018341Y036091D01*
X018306Y036177D01*
X01825Y03625D01*
X018224Y03627D01*
X018226Y036331D01*
X018227Y036331D01*
X018239Y036322D01*
X018316Y03629D01*
X018399Y036279D01*
X018482Y03629D01*
X01856Y036322D01*
X018626Y036373D01*
X018677Y036439D01*
X018679Y03644D01*
X018747Y036394D01*
X018782Y036387D01*
Y036915D01*
X018832D01*
Y036965D01*
X019055D01*
Y03723D01*
X019038Y037315D01*
X019017Y037345D01*
X019044Y037395D01*
X019645D01*
X019723Y037406D01*
X019795Y037436D01*
X01985Y037477D01*
X019879Y037471D01*
X019903Y037458D01*
X019909Y037409D01*
X019944Y037323D01*
X02Y03725D01*
X020073Y037194D01*
X020159Y037159D01*
X0202Y037154D01*
Y0375D01*
X02025D01*
Y03755D01*
X020596D01*
X020591Y037591D01*
X020556Y037677D01*
X0205Y03775D01*
X020427Y037806D01*
X020341Y037841D01*
X020284Y037849D01*
X020261Y037901D01*
X020291Y037974D01*
X020301Y038051D01*
Y039185D01*
X020339Y039223D01*
X020673D01*
X020695Y039178D01*
X020694Y039177D01*
X020659Y039091D01*
X020654Y03905D01*
X021346D01*
X021341Y039091D01*
X021306Y039177D01*
X021305Y039178D01*
X021327Y039223D01*
X021668D01*
Y039977D01*
X021668Y039977D01*
X021668D01*
X021668Y039977D01*
X021682Y040021D01*
X022013Y040352D01*
X022061Y040415D01*
X022091Y040487D01*
X022101Y040565D01*
Y042379D01*
X022091Y042457D01*
X022061Y04253D01*
X022039Y042559D01*
X022043Y042591D01*
X022027Y042708D01*
X021982Y042817D01*
X02191Y042912D01*
X021816Y042984D01*
X021706Y043029D01*
X021589Y043044D01*
X021471Y043029D01*
X021362Y042984D01*
X021268Y042912D01*
X021196Y042817D01*
X021151Y042708D01*
X021135Y042591D01*
X021151Y042473D01*
X021196Y042364D01*
X021268Y04227D01*
X021362Y042197D01*
X021471Y042152D01*
X021499Y042149D01*
Y042037D01*
X021455Y042013D01*
X021438Y042024D01*
X021438Y042024D01*
X021405Y042038D01*
X021405Y042038D01*
X021355Y042048D01*
X021326Y042054D01*
X021138D01*
X021123Y042129D01*
X021073Y042204D01*
X020998Y042254D01*
X020909Y042272D01*
X020373D01*
X020284Y042254D01*
X020209Y042204D01*
X020173Y042149D01*
X020113Y042133D01*
X020082Y042156D01*
X019973Y042201D01*
X019855Y042217D01*
X019845Y042227D01*
X019848Y042255D01*
X019833Y042372D01*
X019801Y04245D01*
X019834Y0425D01*
X020141D01*
X020231Y042591D01*
Y045502D01*
X020271Y045518D01*
X020281Y045518D01*
X020321Y045479D01*
X020387Y045434D01*
X020442Y045412D01*
X02052Y045396D01*
X020944D01*
X020947Y045346D01*
X020909Y045341D01*
X020823Y045306D01*
X02075Y04525D01*
X020694Y045177D01*
X020659Y045091D01*
X020654Y04505D01*
X021346D01*
X021341Y045091D01*
X021306Y045177D01*
X02125Y04525D01*
X021177Y045306D01*
X021091Y045341D01*
X021053Y045346D01*
X021056Y045396D01*
X02117D01*
X021248Y045412D01*
X021262Y045417D01*
X021328Y045462D01*
X021338Y045472D01*
X021338Y045472D01*
X021338Y045472D01*
X021356Y045498D01*
X021383Y045538D01*
X021388Y045552D01*
X021388Y045552D01*
X021388Y045552D01*
X021397Y045597D01*
X021404Y04563D01*
X021404Y04563D01*
X021404Y04563D01*
Y046758D01*
X022858D01*
Y043334D01*
D02*
G37*
G36*
X03555Y03245D02*
X034753D01*
X033104Y0341D01*
X0298D01*
X02935Y03455D01*
Y03525D01*
X030766Y03525D01*
X031183Y034833D01*
Y034953D01*
X031576Y034972D01*
Y0348D01*
X032124D01*
Y034972D01*
X032126Y034964D01*
X032131Y034958D01*
X032139Y034952D01*
X03215Y034947D01*
X032165Y034943D01*
X032184Y03494D01*
X032205Y034937D01*
X032258Y034934D01*
X03229Y034933D01*
Y0348D01*
X03435D01*
X0345Y03495D01*
Y038512D01*
X032638Y040374D01*
X032614Y040367D01*
X032568Y040342D01*
X032525Y040306D01*
X032616Y040397D01*
X03255Y040462D01*
Y040894D01*
X032493D01*
X032531Y040896D01*
X03255Y0409D01*
Y0421D01*
X032661Y042211D01*
X032639Y042216D01*
X03257Y042227D01*
X032666Y042216D01*
X0334Y04295D01*
X03335Y04305D01*
X03555D01*
Y03245D01*
D02*
G37*
G36*
Y043254D02*
X033756D01*
X033637Y04329D01*
X0335Y043303D01*
X0329D01*
X032763Y04329D01*
X032631Y04325D01*
X032509Y043185D01*
X032403Y043097D01*
X032315Y042991D01*
X03225Y042869D01*
X03221Y042737D01*
X032197Y0426D01*
X03221Y042463D01*
X03225Y042331D01*
X032315Y042209D01*
X032358Y042158D01*
X032346Y0421D01*
Y041095D01*
X032292D01*
Y040937D01*
X032242Y040912D01*
X032242Y040912D01*
X032199Y040945D01*
X032103Y040985D01*
X03205Y040992D01*
Y0406D01*
Y040208D01*
X032103Y040215D01*
X032199Y040255D01*
X032242Y040288D01*
X032292Y040263D01*
Y04015D01*
X032579D01*
X03415Y038579D01*
Y038574D01*
X034296Y038428D01*
Y037008D01*
X03425Y036988D01*
X034194Y037044D01*
X034128Y037088D01*
X03405Y037104D01*
X033175D01*
Y037697D01*
X032453D01*
X032448Y037698D01*
X032437Y037697D01*
X032426Y0377D01*
X032413Y037697D01*
X032275D01*
Y037697D01*
X032088D01*
X032074Y0377D01*
X032063Y037697D01*
X032052Y037698D01*
X032047Y037697D01*
X031538D01*
X031536Y037697D01*
X031533Y037697D01*
X031515D01*
X031514Y037697D01*
X031513Y037697D01*
X031325D01*
Y037508D01*
X031324Y037502D01*
X031325Y037494D01*
Y037488D01*
X031324Y03748D01*
X031325Y037476D01*
Y037312D01*
X031324Y037311D01*
X031316Y037301D01*
X030882D01*
X030878Y037302D01*
X030863Y037303D01*
X03086Y037303D01*
X030858Y037304D01*
X030855Y037305D01*
X030851Y037307D01*
X030846Y037311D01*
X030839Y037316D01*
X030831Y037325D01*
X030821Y037336D01*
X030807Y037357D01*
X030784Y03739D01*
X030832Y037452D01*
X030862Y037524D01*
X030872Y037602D01*
Y037799D01*
X030862Y037877D01*
X030832Y03795D01*
X030784Y038012D01*
X030721Y03806D01*
X030649Y03809D01*
X030571Y0381D01*
X029429D01*
X029351Y03809D01*
X029279Y03806D01*
X029216Y038012D01*
X029168Y03795D01*
X029138Y037877D01*
X029128Y037799D01*
Y037602D01*
X029138Y037524D01*
X029168Y037452D01*
X029208Y0374D01*
X029213Y037366D01*
X029208Y037333D01*
X029168Y03728D01*
X029138Y037208D01*
X029128Y03713D01*
Y036933D01*
X029138Y036855D01*
X029168Y036783D01*
X029216Y03672D01*
X029279Y036672D01*
X029298Y036665D01*
X029303Y036615D01*
X029286Y036604D01*
X029267Y036575D01*
X030594Y036575D01*
X030609Y03659D01*
Y03655D01*
X03075D01*
X030714Y036604D01*
X030697Y036615D01*
X030702Y036665D01*
X030721Y036672D01*
X030749Y036693D01*
X030808Y036697D01*
X03084Y036698D01*
X030846Y036699D01*
X031376D01*
X031425Y036697D01*
X031425Y036658D01*
Y03655D01*
X032025D01*
X03215Y036425D01*
X03215Y036103D01*
X032175D01*
X032175Y036103D01*
Y036103D01*
X032206Y036066D01*
X032225Y036053D01*
Y036003D01*
X032288D01*
X032369Y035937D01*
X032381Y03593D01*
X032422Y03589D01*
X03242Y03585D01*
X03305D01*
X03305Y03535D01*
X032442D01*
X032418Y035159D01*
X032362Y035213D01*
X032306Y035262D01*
X03225Y035305D01*
X032193Y035342D01*
X032179Y03535D01*
X032126D01*
X032124Y035328D01*
Y03535D01*
X0319D01*
Y035227D01*
X032195D01*
X032198Y035223D01*
X032168Y035173D01*
X032138D01*
X032124Y035176D01*
X03211Y035173D01*
X03159D01*
X031576Y035176D01*
X031572Y035175D01*
X031567Y035175D01*
X031514Y035173D01*
X031375D01*
Y035166D01*
X031173Y035157D01*
X031172Y035157D01*
X031148D01*
X03091Y035394D01*
X030873Y035419D01*
X030844Y035438D01*
X03085Y035488D01*
X030862Y035517D01*
X030872Y035594D01*
Y035791D01*
X030862Y035869D01*
X030832Y035942D01*
X030784Y036004D01*
X030721Y036052D01*
X030702Y03606D01*
X030697Y03611D01*
X030714Y036121D01*
X030758Y036186D01*
X03076Y0362D01*
X030194D01*
X030172Y036222D01*
X029235Y036222D01*
X029239Y036204D01*
X029208Y036154D01*
X0279D01*
X027822Y036138D01*
X027756Y036094D01*
X027506Y035844D01*
X027462Y035778D01*
X027446Y0357D01*
Y033734D01*
X027316Y033604D01*
X0247D01*
X024622Y033588D01*
X024556Y033544D01*
X024512Y033478D01*
X024496Y0334D01*
Y03245D01*
X0244D01*
Y03055D01*
X0263D01*
Y030933D01*
X026338Y03099D01*
X026354Y031068D01*
Y031104D01*
X026547Y031297D01*
X026734D01*
Y028711D01*
X026749Y028633D01*
X026794Y028567D01*
X02686Y028523D01*
X026938Y028508D01*
X028037D01*
Y02733D01*
X028046D01*
Y027278D01*
X025251D01*
X025228Y027322D01*
X025245Y027344D01*
X025248Y02735D01*
X024552D01*
X024555Y027344D01*
X024572Y027322D01*
X024549Y027278D01*
X02335D01*
Y029274D01*
X02326Y041021D01*
X023271Y041029D01*
X023343Y041123D01*
X023388Y041233D01*
X023404Y04135D01*
X023388Y041467D01*
X023363Y041528D01*
X023618Y041783D01*
X023907D01*
Y042617D01*
X023907D01*
X023907Y042617D01*
X023907Y042667D01*
Y04345D01*
X023242D01*
X023239Y043797D01*
X023242Y043804D01*
X023289Y043838D01*
X0234Y043824D01*
X02354Y043842D01*
X02367Y043896D01*
X023781Y043982D01*
X023867Y044093D01*
X023875Y044113D01*
X023925D01*
X023933Y044093D01*
X024019Y043982D01*
X024113Y04391D01*
Y04345D01*
X023993D01*
Y042617D01*
X023993D01*
Y042617D01*
X023993D01*
Y041783D01*
X024707D01*
Y041838D01*
X024935D01*
X024935Y041838D01*
X025002Y041847D01*
X025066Y041873D01*
X02512Y041915D01*
X025427Y042222D01*
X025427Y042222D01*
X025469Y042276D01*
X025495Y042339D01*
X025504Y042407D01*
Y045008D01*
X025495Y045076D01*
X025469Y04514D01*
X025427Y045194D01*
X025427Y045194D01*
X0251Y045521D01*
X025046Y045562D01*
X024983Y045589D01*
X024915Y045598D01*
X024915Y045598D01*
X024876D01*
X024867Y04562D01*
X024781Y045731D01*
X02467Y045817D01*
X02454Y045871D01*
X0244Y045889D01*
X02426Y045871D01*
X02413Y045817D01*
X024019Y045731D01*
X023933Y04562D01*
X023925Y0456D01*
X023875D01*
X023867Y04562D01*
X023781Y045731D01*
X02367Y045817D01*
X02354Y045871D01*
X0234Y045889D01*
X023273Y045873D01*
X023223Y045903D01*
X023217Y04667D01*
X023267Y0467D01*
X03555D01*
Y043254D01*
D02*
G37*
G36*
X02136Y041836D02*
X021386Y04181D01*
X0214Y041776D01*
Y041758D01*
Y04125D01*
Y04123D01*
X021385Y041193D01*
X021357Y041165D01*
X02132Y04115D01*
X02044D01*
X020422Y041158D01*
X020408Y041172D01*
X0204Y04119D01*
Y0412D01*
X02039D01*
X020372Y041208D01*
X020358Y041222D01*
X02035Y04124D01*
Y04125D01*
Y0418D01*
Y04181D01*
X020358Y041828D01*
X020372Y041842D01*
X02039Y04185D01*
X021326D01*
X02136Y041836D01*
D02*
G37*
G36*
X015411Y043077D02*
X01543Y043058D01*
X015441Y043033D01*
Y04302D01*
Y041089D01*
Y041069D01*
X015425Y041032D01*
X015396Y041003D01*
X015359Y040987D01*
X014569D01*
X014532Y041003D01*
X014504Y041031D01*
X014489Y041068D01*
Y041087D01*
Y043012D01*
Y043027D01*
X0145Y043055D01*
X014521Y043076D01*
X014549Y043087D01*
X014489D01*
Y043087D01*
X015386D01*
X015411Y043077D01*
D02*
G37*
G36*
X031972Y037106D02*
X031941Y037127D01*
X031908Y037141D01*
X031872Y037147D01*
X031834Y037145D01*
X031793Y037135D01*
X031751Y037117D01*
X031705Y037091D01*
X031657Y037057D01*
X031607Y037015D01*
X031554Y036965D01*
X031387Y037076D01*
X03144Y037132D01*
X031485Y037185D01*
X031521Y037235D01*
X031548Y037281D01*
X031566Y037325D01*
X031576Y037365D01*
X031577Y037402D01*
X031569Y037436D01*
X031553Y037466D01*
X031527Y037494D01*
X031972Y037106D01*
D02*
G37*
G36*
X032076Y037477D02*
X032082Y037461D01*
X032092Y037446D01*
X032105Y037433D01*
X032123Y037423D01*
X032145Y037414D01*
X03217Y037407D01*
X0322Y037402D01*
X032233Y037399D01*
X03225Y037399D01*
X032267Y037399D01*
X0323Y037402D01*
X03233Y037407D01*
X032355Y037414D01*
X032377Y037423D01*
X032395Y037433D01*
X032408Y037446D01*
X032418Y037461D01*
X032424Y037477D01*
X032426Y037496D01*
Y037104D01*
X032424Y037123D01*
X032418Y037139D01*
X032408Y037154D01*
X032395Y037167D01*
X032377Y037177D01*
X032355Y037186D01*
X03233Y037193D01*
X0323Y037198D01*
X032267Y037201D01*
X03225Y037201D01*
X032233Y037201D01*
X0322Y037198D01*
X03217Y037193D01*
X032145Y037186D01*
X032123Y037177D01*
X032105Y037167D01*
X032092Y037154D01*
X032082Y037139D01*
X032076Y037123D01*
X032074Y037104D01*
Y037496D01*
X032076Y037477D01*
D02*
G37*
G36*
X03066Y037211D02*
X03068Y037188D01*
X0307Y037167D01*
X030722Y037149D01*
X030744Y037133D01*
X030767Y037121D01*
X030791Y037111D01*
X030815Y037104D01*
X030841Y0371D01*
X030867Y037098D01*
X030838Y036902D01*
X030801Y036901D01*
X030643Y036891D01*
X030629Y036887D01*
X030617Y036884D01*
X030609Y036879D01*
X030641Y037238D01*
X03066Y037211D01*
D02*
G37*
G36*
X0343Y03665D02*
Y035423D01*
X0342Y035323D01*
Y03525D01*
X0337D01*
Y035774D01*
X033678D01*
X0337Y035776D01*
Y03585D01*
X03355Y036D01*
X0326D01*
X03239Y03621D01*
X03235D01*
Y03675D01*
X0325Y0369D01*
X03405D01*
X0343Y03665D01*
D02*
G37*
G36*
X02975Y03585D02*
X02945Y03555D01*
Y035544D01*
X028844D01*
X028631Y035331D01*
Y034539D01*
X0304Y032769D01*
Y0316D01*
X030301Y031501D01*
X026463D01*
X02615Y031189D01*
X02615Y031068D01*
X0247Y031068D01*
X0247Y0323D01*
Y0334D01*
X0274D01*
X02765Y03365D01*
Y0357D01*
X0279Y03595D01*
X02975D01*
Y03585D01*
D02*
G37*
G36*
X015699Y02964D02*
X015915D01*
X015912Y029631D01*
X015909Y029619D01*
X015907Y029604D01*
X015903Y029564D01*
X0159Y029481D01*
X015899Y02941D01*
X015702D01*
X015702Y029447D01*
X015692Y029619D01*
X01569Y029631D01*
X015689Y029635D01*
X015676Y029664D01*
X015632Y029752D01*
X01561Y029788D01*
X015588Y029818D01*
X015584Y029823D01*
X01558Y029818D01*
X015559Y029788D01*
X015537Y029752D01*
X015515Y029711D01*
X01547Y029612D01*
Y030359D01*
X015493Y030307D01*
X015537Y030219D01*
X015559Y030183D01*
X01558Y030153D01*
X015584Y030148D01*
X015588Y030153D01*
X01561Y030183D01*
X015632Y030219D01*
X015654Y03026D01*
X015699Y030359D01*
Y02964D01*
D02*
G37*
G36*
X029154Y03529D02*
X029146Y03525D01*
Y035219D01*
X029138Y0352D01*
X029128Y035122D01*
Y034925D01*
X029138Y034847D01*
X029146Y034829D01*
Y03455D01*
X029162Y034472D01*
X029206Y034406D01*
X029656Y033955D01*
X029722Y033911D01*
X0298Y033896D01*
X032256D01*
X032271Y033846D01*
X032204Y033765D01*
X032149Y033661D01*
X032115Y033549D01*
X032103Y033433D01*
X032115Y033317D01*
X032149Y033205D01*
X032204Y033102D01*
X032278Y033011D01*
X032369Y032937D01*
X032472Y032882D01*
X032584Y032848D01*
X0327Y032837D01*
X032816Y032848D01*
X032928Y032882D01*
X033031Y032937D01*
X033122Y033011D01*
X033196Y033102D01*
X033251Y033205D01*
X033285Y033317D01*
X033297Y033433D01*
X033285Y033549D01*
X033281Y033563D01*
X033325Y03359D01*
X034609Y032306D01*
X034675Y032262D01*
X034753Y032246D01*
X035039D01*
X035039Y01065D01*
X034D01*
Y011248D01*
X034001Y01125D01*
X033999Y011256D01*
X034Y011263D01*
X033997Y011276D01*
X033987Y011354D01*
X033947Y01145D01*
X033883Y011533D01*
X0338Y011616D01*
Y01215D01*
X0327D01*
Y011995D01*
X032653Y011979D01*
X032642Y011992D01*
X032527Y01208D01*
X032394Y012136D01*
X03225Y012155D01*
X032106Y012136D01*
X031973Y01208D01*
X031858Y011992D01*
X031779Y01189D01*
X031763Y011886D01*
X031737Y011886D01*
X031721Y01189D01*
X031642Y011992D01*
X031527Y01208D01*
X031394Y012136D01*
X03125Y012155D01*
X031106Y012136D01*
X030973Y01208D01*
X030858Y011992D01*
X030779Y01189D01*
X030763Y011886D01*
X030737Y011886D01*
X030721Y01189D01*
X030642Y011992D01*
X030527Y01208D01*
X030394Y012136D01*
X03025Y012155D01*
X030106Y012136D01*
X029973Y01208D01*
X029858Y011992D01*
X029779Y01189D01*
X029763Y011886D01*
X029737Y011886D01*
X029721Y01189D01*
X029642Y011992D01*
X029527Y01208D01*
X029394Y012136D01*
X02925Y012155D01*
X029106Y012136D01*
X028973Y01208D01*
X028858Y011992D01*
X02877Y011877D01*
X028714Y011744D01*
X028695Y0116D01*
X028714Y011456D01*
X02877Y011323D01*
X028858Y011208D01*
X028973Y01112D01*
X029085Y011073D01*
Y011019D01*
X029023Y010993D01*
X028929Y010921D01*
X028884Y010862D01*
X029253D01*
X029227Y01065D01*
X02925D01*
Y01055D01*
X029214D01*
X029178Y01025D01*
X028967D01*
X029023Y010207D01*
X029133Y010162D01*
X029191Y010154D01*
X029187Y010104D01*
X027304Y010104D01*
X027304Y011285D01*
X027327Y011325D01*
X027354Y011325D01*
X027553D01*
Y0115D01*
X02755D01*
X0274Y01195D01*
X02745Y012D01*
X027553D01*
Y012012D01*
X027594D01*
Y012075D01*
X027378D01*
X027357Y012125D01*
X027972Y01274D01*
X028015Y012712D01*
X028005Y01269D01*
X028Y012648D01*
X028296D01*
Y012945D01*
X028255Y012939D01*
X028233Y01293D01*
X028205Y012973D01*
X028444Y013212D01*
X028488Y013278D01*
X028504Y013356D01*
X028504Y016878D01*
Y0173D01*
X028504Y0173D01*
X028488Y017378D01*
X028479Y017392D01*
X028502Y017436D01*
X034103Y017436D01*
X034181Y017452D01*
X034248Y017496D01*
X034292Y017562D01*
X034307Y01764D01*
X034307Y02549D01*
X034292Y025568D01*
X034248Y025635D01*
X034181Y025679D01*
X034103Y025694D01*
X031791Y025694D01*
X031778Y025701D01*
X031666Y025735D01*
X03155Y025747D01*
X031434Y025735D01*
X031322Y025701D01*
X031309Y025694D01*
X031203D01*
X031125Y025679D01*
X031059Y025635D01*
X031015Y025568D01*
X030999Y02549D01*
Y025379D01*
X030999Y025378D01*
X030965Y025266D01*
X030953Y02515D01*
X030965Y025034D01*
X030999Y024922D01*
X030999Y024921D01*
Y02484D01*
X031015Y024762D01*
X031059Y024696D01*
X031125Y024652D01*
X031203Y024636D01*
X031251D01*
X031277Y024623D01*
X031277Y024623D01*
X031279Y024565D01*
X031198Y024502D01*
X031196Y0245D01*
X0317D01*
Y02405D01*
X031428Y023778D01*
X031224D01*
X031279Y023735D01*
X031277Y023677D01*
X031277Y023677D01*
X031219Y023646D01*
X031128Y023572D01*
X03111Y02355D01*
X030847D01*
X030779Y023602D01*
X030683Y023642D01*
X030579Y023656D01*
X030303D01*
X0302Y023642D01*
X030103Y023602D01*
X030028Y023544D01*
X029631D01*
Y022751D01*
X030678D01*
X030684Y02275D01*
X03111D01*
X031128Y022728D01*
X031184Y022682D01*
Y022618D01*
X031128Y022572D01*
X031054Y022481D01*
X031026Y022429D01*
X030976Y022441D01*
Y022639D01*
X029631D01*
Y022543D01*
X028692D01*
Y023092D01*
X027347D01*
Y021392D01*
X02731Y021363D01*
X027302D01*
Y020413D01*
X027346D01*
Y020342D01*
X027256Y020252D01*
X027212Y020186D01*
X027196Y020108D01*
X027212Y02003D01*
X027256Y019964D01*
X027278Y019941D01*
X027259Y019895D01*
X027158D01*
Y019737D01*
X027108Y019712D01*
X0271Y019719D01*
Y019081D01*
X027108Y019088D01*
X027158Y019063D01*
Y018905D01*
X027396D01*
Y0177D01*
X027399Y017683D01*
X027399Y017666D01*
X027405Y017651D01*
Y017554D01*
X0274D01*
X027322Y017538D01*
X027275Y017507D01*
X027225Y017531D01*
X027225Y017531D01*
Y017744D01*
X0272D01*
Y0177D01*
X0271D01*
Y01765D01*
X026989Y0177D01*
X026576D01*
Y017578D01*
X026574Y017629D01*
X026568Y017674D01*
X026562Y0177D01*
X026475D01*
Y017504D01*
X026475Y017477D01*
X026435Y017454D01*
X026265D01*
X026225Y017477D01*
Y0177D01*
X026138D01*
X026132Y017674D01*
X026126Y017629D01*
X026124Y017578D01*
Y0177D01*
X025576D01*
Y017578D01*
X025574Y017601D01*
X025568Y01762D01*
X025559Y017638D01*
X025545Y017653D01*
X025527Y017666D01*
X025505Y017677D01*
X02548Y017685D01*
X02545Y017691D01*
X025417Y017694D01*
X025379Y017695D01*
Y0177D01*
X0196D01*
X01935Y01745D01*
Y017263D01*
X019358Y017261D01*
X019387Y017259D01*
X01935D01*
Y016878D01*
X0193Y016896D01*
Y016878D01*
X019286D01*
X019158Y01675D01*
X0184D01*
Y016551D01*
X017807D01*
X017802Y016552D01*
X017797Y016552D01*
Y016725D01*
X017609D01*
X017596Y016728D01*
X01759Y016727D01*
X017584Y016727D01*
X017575Y016725D01*
X017003D01*
Y016003D01*
X017002Y015998D01*
X017003Y015987D01*
X017Y015976D01*
X017003Y015963D01*
Y015775D01*
X016968Y015739D01*
X016879Y015671D01*
X016807Y015577D01*
X016762Y015467D01*
X016746Y01535D01*
X016762Y015233D01*
X016807Y015123D01*
X016879Y015029D01*
X016973Y014957D01*
X016987Y014951D01*
X016977Y014901D01*
X016065D01*
X01605Y014904D01*
X015115D01*
X015107Y014929D01*
X015102Y014954D01*
X015156Y015023D01*
X015191Y015109D01*
X015196Y01515D01*
X0149D01*
X0148Y01505D01*
X014533D01*
X014544Y015023D01*
X0146Y01495D01*
X014673Y014894D01*
X014752Y014862D01*
X014763Y014839D01*
X014769Y014807D01*
X014656Y014694D01*
X014612Y014628D01*
X014596Y01455D01*
Y01394D01*
X014612Y013862D01*
X014643Y013816D01*
Y013704D01*
X014594Y013681D01*
X014106Y01417D01*
X014107Y014171D01*
X013951Y014304D01*
X013777Y01441D01*
X013588Y014489D01*
X01339Y014536D01*
X013234Y014549D01*
X013193Y014552D01*
X013191Y014552D01*
X013186Y014552D01*
X013137Y014555D01*
X013123Y014557D01*
X013109Y01456D01*
X0131Y014563D01*
X013094Y014565D01*
X013091Y014567D01*
X013085Y014573D01*
X013081Y014577D01*
X013078Y014581D01*
X013073Y014584D01*
X013056Y014606D01*
X012952Y014686D01*
X01283Y014736D01*
X0127Y014754D01*
X01257Y014736D01*
X012448Y014686D01*
X012344Y014606D01*
X012264Y014502D01*
X012214Y01438D01*
X012196Y01425D01*
X012214Y01412D01*
X012264Y013998D01*
X012344Y013894D01*
X012448Y013814D01*
X012484Y013799D01*
X012474Y013749D01*
X012422D01*
X012413Y013752D01*
X012407Y013751D01*
X012402Y013752D01*
X012388Y013749D01*
X012201D01*
Y013568D01*
X012198Y013559D01*
X012198Y013552D01*
X012194Y013552D01*
X01219Y013551D01*
X011875D01*
X011751Y013675D01*
Y016289D01*
X01175Y016294D01*
X011765Y016406D01*
X011798Y016484D01*
X01181Y016514D01*
X011882Y016607D01*
X011975Y016679D01*
X012023Y016699D01*
X012196Y016716D01*
X012297Y016747D01*
X012308Y016748D01*
X012326Y016755D01*
X012384Y016773D01*
X012557Y016866D01*
X012709Y016991D01*
X012834Y017143D01*
X012927Y017316D01*
X012984Y017504D01*
X013Y017669D01*
X013074Y017726D01*
X013159Y017835D01*
X013211Y017963D01*
X01323Y0181D01*
X013211Y018237D01*
X013159Y018365D01*
X013074Y018474D01*
X012992Y018537D01*
X012988Y0186D01*
X012988Y018601D01*
X013142Y018754D01*
X013144Y018756D01*
X013344Y018956D01*
X013388Y019022D01*
X013404Y0191D01*
Y02015D01*
X013388Y020228D01*
X013344Y020294D01*
X013278Y020338D01*
X0132Y020354D01*
X01255D01*
X012543Y020352D01*
X012536Y020353D01*
X012512Y020347D01*
X012275D01*
Y019778D01*
X012273Y019771D01*
X012274Y019763D01*
X012272Y019754D01*
X012275Y019741D01*
Y019553D01*
X012296D01*
Y019502D01*
X012282Y019493D01*
X012279Y019488D01*
X012274Y019484D01*
X012257Y019455D01*
X012238Y019427D01*
X012237Y019425D01*
X012175Y019362D01*
Y018837D01*
X012412Y018601D01*
X012412Y0186D01*
X012408Y018537D01*
X012326Y018474D01*
X012241Y018365D01*
X012189Y018237D01*
X01217Y0181D01*
X012189Y017963D01*
X012241Y017835D01*
X012326Y017726D01*
X012396Y017671D01*
X012386Y017596D01*
X012346Y0175D01*
X012283Y017417D01*
X0122Y017354D01*
X012161Y017338D01*
X012035Y017328D01*
X011875Y017289D01*
X011723Y017226D01*
X011582Y01714D01*
X011456Y017033D01*
X011349Y016907D01*
X011263Y016766D01*
X0112Y016614D01*
X011161Y016453D01*
X011148Y016289D01*
X011149D01*
Y01355D01*
X011159Y013472D01*
X011189Y013399D01*
X011237Y013337D01*
X011537Y013037D01*
X0116Y012989D01*
X011672Y012959D01*
X01175Y012949D01*
X01219D01*
X012194Y012948D01*
X012198Y012948D01*
X012198Y012941D01*
X012201Y012932D01*
Y012751D01*
X012388D01*
X012402Y012748D01*
X012407Y012749D01*
X012413Y012748D01*
X012422Y012751D01*
X012978D01*
X012987Y012748D01*
X012993Y012749D01*
X012998Y012748D01*
X013012Y012751D01*
X013199D01*
Y012824D01*
X013242Y012849D01*
X013275Y012832D01*
X013378Y012748D01*
X01338Y012744D01*
X014745Y01138D01*
X014745Y01138D01*
X014743Y011379D01*
X014873Y011272D01*
X015022Y011193D01*
X015163Y01115D01*
X015155Y0111D01*
X010128D01*
X009928Y0113D01*
Y02155D01*
X012396D01*
X012415Y021504D01*
X012306Y021394D01*
X012262Y021328D01*
X012246Y02125D01*
Y02085D01*
X012246Y02085D01*
X012262Y020772D01*
X012275Y020752D01*
Y020453D01*
X013007D01*
X013019Y02045D01*
X013035Y020453D01*
X013225D01*
Y020546D01*
X01325D01*
X013328Y020562D01*
X013394Y020606D01*
X014044Y021256D01*
X014088Y021322D01*
X014104Y0214D01*
Y02155D01*
X020393D01*
X020749Y021906D01*
X020799Y021885D01*
Y020781D01*
X020625D01*
Y019987D01*
X021575D01*
Y020781D01*
X021401D01*
Y023364D01*
X021421Y023379D01*
X021493Y023473D01*
X021538Y023583D01*
X021554Y0237D01*
X021538Y023817D01*
X021493Y023927D01*
X021421Y024021D01*
X021327Y024093D01*
X021217Y024138D01*
X0211Y024154D01*
X020983Y024138D01*
X020873Y024093D01*
X020779Y024021D01*
X020707Y023927D01*
X020662Y023817D01*
X020659Y023801D01*
X020609Y023804D01*
Y025413D01*
X0211Y025904D01*
X021133Y02587D01*
X02335D01*
Y026146D01*
X0323D01*
X032378Y026162D01*
X032444Y026206D01*
X032444Y026206D01*
X032506Y026267D01*
X032521Y026279D01*
X032532Y026294D01*
X032994Y026756D01*
X033038Y026822D01*
X033054Y0269D01*
Y029605D01*
X033058D01*
Y029763D01*
X033108Y029788D01*
X033151Y029755D01*
X033247Y029715D01*
X0333Y029708D01*
Y0301D01*
Y030492D01*
X033247Y030485D01*
X033151Y030445D01*
X033114Y030417D01*
X033064Y030442D01*
Y031739D01*
X033049Y031817D01*
X033005Y031883D01*
X033005Y031883D01*
X031954Y032934D01*
Y033551D01*
X031938Y033629D01*
X031894Y033695D01*
X031828Y03374D01*
X03175Y033755D01*
X031477D01*
X031451Y033775D01*
X031378Y033805D01*
X0313Y033816D01*
X031222Y033805D01*
X031149Y033775D01*
X031123Y033755D01*
X030898D01*
X030891Y03376D01*
X030813Y033775D01*
X030735Y03376D01*
X030669Y033715D01*
X030656Y033702D01*
X030612Y033636D01*
X030596Y033558D01*
Y032926D01*
X030546Y032911D01*
X030544Y032913D01*
X028835Y034623D01*
Y035246D01*
X028928Y03534D01*
X029114D01*
X029154Y03529D01*
D02*
G37*
G36*
X019Y0242D02*
Y02275D01*
X0184Y02215D01*
X0145D01*
X0144Y02225D01*
Y0237D01*
X017652Y0237D01*
X018286Y024334D01*
X018866D01*
X019Y0242D01*
D02*
G37*
G36*
X030833Y033551D02*
X03175D01*
Y032849D01*
X03286Y031739D01*
Y030007D01*
X03285Y029997D01*
Y0269D01*
X0323Y02635D01*
X0212D01*
X02015Y0253D01*
Y0234D01*
X0194D01*
X019286Y023589D01*
Y025831D01*
X020528Y027074D01*
X02825D01*
Y028D01*
X02875Y0286D01*
X032D01*
X03235Y02895D01*
Y030032D01*
X0321Y03005D01*
Y031311D01*
X031659Y031752D01*
X0311D01*
X0308Y032052D01*
Y033558D01*
X030813Y033571D01*
X030833Y033551D01*
D02*
G37*
G36*
X033146Y019688D02*
X028412D01*
Y0204D01*
X028412Y0204D01*
X028396Y020478D01*
X028352Y020544D01*
X028302Y020594D01*
X028236Y020638D01*
X028158Y020654D01*
X028135D01*
Y021363D01*
X028173Y021392D01*
X028692D01*
Y021941D01*
X029631D01*
Y021845D01*
X030976D01*
Y021859D01*
X031026Y021871D01*
X031054Y021819D01*
X031128Y021728D01*
X031219Y021654D01*
X031322Y021599D01*
X031434Y021565D01*
X03155Y021553D01*
X031666Y021565D01*
X031778Y021599D01*
X031881Y021654D01*
X031972Y021728D01*
X032046Y021819D01*
X032101Y021922D01*
X032135Y022034D01*
X032147Y02215D01*
X032135Y022266D01*
X032101Y022378D01*
X032046Y022481D01*
X031972Y022572D01*
X031916Y022618D01*
Y022682D01*
X031972Y022728D01*
X032028Y022796D01*
X032475D01*
Y023629D01*
X031948D01*
X031945Y023633D01*
X03195Y023643D01*
Y024D01*
X032D01*
Y02405D01*
X032375D01*
Y024317D01*
X032015D01*
X031981Y024399D01*
X031902Y024502D01*
X031821Y024565D01*
X031823Y024623D01*
X031823Y024623D01*
X031849Y024636D01*
X033146D01*
Y019688D01*
D02*
G37*
G36*
X0137Y0217D02*
X0139D01*
Y0214D01*
X01325Y02075D01*
X013027D01*
X013025Y020718D01*
X013024Y020654D01*
X01289Y02075D01*
X01275D01*
X0125Y0208D01*
X01245Y02085D01*
Y02125D01*
X0129Y0217D01*
X0136D01*
X01365Y02175D01*
X0137Y0217D01*
D02*
G37*
G36*
X034103Y01764D02*
X027703Y01764D01*
Y017717D01*
X0276Y0177D01*
Y019908D01*
X0274Y020108D01*
X02755Y020258D01*
Y02045D01*
X028158D01*
X028208Y0204D01*
Y019484D01*
X03335D01*
Y02484D01*
X031203D01*
X031203Y02549D01*
X034103Y02549D01*
X034103Y01764D01*
D02*
G37*
G36*
X0132Y0191D02*
X013Y0189D01*
X0125D01*
Y019349D01*
X012426D01*
X01246Y019351D01*
X012489Y019357D01*
X0125Y019361D01*
Y019752D01*
X012476Y019754D01*
X0125D01*
Y02D01*
X01255Y02015D01*
X0132D01*
Y0191D01*
D02*
G37*
G36*
X01294Y017949D02*
X012911Y017943D01*
X012884Y017933D01*
X012862Y01792D01*
X012842Y017902D01*
X012826Y01788D01*
X012814Y017855D01*
X012805Y017825D01*
X0128Y017792D01*
X012798Y017754D01*
X012602D01*
X0126Y017792D01*
X012595Y017825D01*
X012586Y017855D01*
X012574Y01788D01*
X012558Y017902D01*
X012538Y01792D01*
X012516Y017933D01*
X012489Y017943D01*
X01246Y017949D01*
X012426Y017951D01*
X012974D01*
X01294Y017949D01*
D02*
G37*
G36*
X0283Y0173D02*
Y016878D01*
D01*
X0283Y013356D01*
X0271Y012156D01*
X0271Y0099D01*
X029992Y0099D01*
X029992Y01075D01*
X0305Y01075D01*
X0305Y00945D01*
X02585Y00945D01*
X02585Y011443D01*
X02584Y011437D01*
X025811Y011416D01*
X025783Y011392D01*
X025754Y011365D01*
X02561Y0115D01*
X025623Y011511D01*
X025634Y011521D01*
X025644Y011528D01*
X025653Y011532D01*
X02566Y011534D01*
X025666Y011533D01*
X02567Y01153D01*
X025674Y011524D01*
X025676Y011515D01*
X025676Y011504D01*
X02585Y011505D01*
Y011975D01*
X026575Y011975D01*
X02655Y012D01*
Y016064D01*
X02592Y016694D01*
X02455D01*
X02435Y01675D01*
Y01715D01*
X02445Y01725D01*
X024849D01*
Y017269D01*
X02485Y01725D01*
X0272D01*
X027226Y017224D01*
X027274Y017224D01*
X0274Y01735D01*
X02825D01*
X0283Y0173D01*
D02*
G37*
G36*
X018889Y015971D02*
X018887Y016005D01*
X018882Y016036D01*
X018872Y016063D01*
X018858Y016087D01*
X01884Y016106D01*
X018819Y016123D01*
X018793Y016135D01*
X018763Y016144D01*
X01873Y01615D01*
X018693Y016152D01*
Y016348D01*
X01873Y01635D01*
X018763Y016353D01*
X018793Y016359D01*
X018819Y016368D01*
X01884Y016379D01*
X018858Y016392D01*
X018872Y016407D01*
X018882Y016425D01*
X018887Y016446D01*
X018889Y016469D01*
Y015971D01*
D02*
G37*
G36*
X017598Y01649D02*
X017604Y016461D01*
X017613Y016434D01*
X017627Y016412D01*
X017645Y016392D01*
X017666Y016376D01*
X017692Y016364D01*
X017722Y016355D01*
X017755Y01635D01*
X017792Y016348D01*
Y016152D01*
X017755Y01615D01*
X017722Y016145D01*
X017692Y016136D01*
X017666Y016124D01*
X017645Y016108D01*
X017627Y016088D01*
X017613Y016066D01*
X017604Y016039D01*
X017598Y01601D01*
X017596Y015976D01*
X017577Y015974D01*
X017561Y015968D01*
X017546Y015958D01*
X017533Y015945D01*
X017523Y015927D01*
X017514Y015905D01*
X017507Y01588D01*
X017502Y01585D01*
X017499Y015817D01*
X017498Y015779D01*
X017302D01*
X017301Y015817D01*
X017298Y01585D01*
X017293Y01588D01*
X017286Y015905D01*
X017277Y015927D01*
X017267Y015945D01*
X017254Y015958D01*
X017239Y015968D01*
X017223Y015974D01*
X017204Y015976D01*
X017596D01*
Y016524D01*
X017598Y01649D01*
D02*
G37*
G36*
X018889Y014401D02*
X018887Y01442D01*
X018882Y014437D01*
X018872Y014452D01*
X018858Y014465D01*
X01884Y014476D01*
X018819Y014486D01*
X018793Y014493D01*
X018763Y014498D01*
X01873Y014501D01*
X018693Y014502D01*
Y014698D01*
X01873Y0147D01*
X018763Y014706D01*
X018793Y014716D01*
X018819Y01473D01*
X01884Y014749D01*
X018858Y014771D01*
X018872Y014797D01*
X018882Y014827D01*
X018887Y014861D01*
X018889Y014899D01*
Y014401D01*
D02*
G37*
G36*
X012949Y01442D02*
X012966Y014405D01*
X012986Y014392D01*
X013008Y01438D01*
X013032Y01437D01*
X013058Y014363D01*
X013087Y014356D01*
X013118Y014352D01*
X013151Y014349D01*
X013186Y014348D01*
Y014152D01*
X013151Y014151D01*
X013118Y014148D01*
X013087Y014144D01*
X013058Y014137D01*
X013032Y01413D01*
X013008Y01412D01*
X012986Y014108D01*
X012966Y014095D01*
X012949Y01408D01*
X012934Y014063D01*
Y014437D01*
X012949Y01442D01*
D02*
G37*
G36*
X01605Y0146D02*
X01535Y0139D01*
X015157D01*
X015156Y013887D01*
X015148Y0139D01*
X01484D01*
X0148Y01394D01*
Y01455D01*
X01495Y0147D01*
X01605D01*
Y0146D01*
D02*
G37*
G36*
X024851Y01409D02*
X024857Y014065D01*
X024867Y014042D01*
X02488Y014023D01*
X024898Y014006D01*
X02492Y013992D01*
X024945Y013982D01*
X024975Y013974D01*
X025008Y01397D01*
X025046Y013968D01*
Y013772D01*
X025008Y01377D01*
X024975Y013766D01*
X024945Y013758D01*
X02492Y013748D01*
X024898Y013734D01*
X02488Y013717D01*
X024867Y013698D01*
X024857Y013675D01*
X024851Y01365D01*
X024849Y013621D01*
Y014119D01*
X024851Y01409D01*
D02*
G37*
G36*
X018889Y013611D02*
X018887Y013626D01*
X018882Y01364D01*
X018872Y013652D01*
X018858Y013663D01*
X01884Y013671D01*
X018819Y013679D01*
X018793Y013684D01*
X018763Y013688D01*
X01873Y013691D01*
X018693Y013692D01*
Y013888D01*
X01873Y013891D01*
X018763Y013897D01*
X018793Y013908D01*
X018819Y013924D01*
X01884Y013944D01*
X018858Y013968D01*
X018872Y013996D01*
X018882Y014029D01*
X018887Y014067D01*
X018889Y014109D01*
Y013611D01*
D02*
G37*
G36*
X025483Y013596D02*
X025481Y01363D01*
X025475Y013659D01*
X025465Y013686D01*
X025451Y013708D01*
X025433Y013728D01*
X025412Y013744D01*
X025386Y013756D01*
X025357Y013765D01*
X025323Y01377D01*
X025286Y013772D01*
Y013968D01*
X025323Y01397D01*
X025357Y013975D01*
X025386Y013984D01*
X025412Y013996D01*
X025433Y014012D01*
X025451Y014032D01*
X025465Y014054D01*
X025475Y014081D01*
X025481Y01411D01*
X025483Y014144D01*
Y013596D01*
D02*
G37*
G36*
X017648Y01403D02*
X017654Y014001D01*
X017663Y013974D01*
X017677Y013952D01*
X017695Y013932D01*
X017716Y013916D01*
X017742Y013904D01*
X017772Y013895D01*
X017805Y01389D01*
X017842Y013888D01*
Y013692D01*
X017805Y01369D01*
X017772Y013685D01*
X017742Y013676D01*
X017716Y013664D01*
X017695Y013648D01*
X017677Y013628D01*
X017663Y013606D01*
X017654Y013579D01*
X017648Y01355D01*
X017646Y013516D01*
Y014064D01*
X017648Y01403D01*
D02*
G37*
G36*
X013Y013509D02*
X013006Y013474D01*
X013015Y013442D01*
X013029Y013412D01*
X013046Y013387D01*
X013067Y013364D01*
X013093Y013344D01*
X013122Y013328D01*
X013154Y013315D01*
X013191Y013305D01*
X013189Y013099D01*
X013153Y013105D01*
X01312Y013106D01*
X013092Y013103D01*
X013067Y013095D01*
X013046Y013083D01*
X013029Y013066D01*
X013015Y013044D01*
X013006Y013018D01*
X013Y012987D01*
X012998Y012952D01*
Y013548D01*
X013Y013509D01*
D02*
G37*
G36*
X012402Y012952D02*
X0124Y01299D01*
X012394Y013024D01*
X012384Y013054D01*
X01237Y01308D01*
X012353Y013102D01*
X012331Y01312D01*
X012306Y013134D01*
X012276Y013144D01*
X012243Y01315D01*
X012205Y013152D01*
Y013348D01*
X012243Y01335D01*
X012276Y013356D01*
X012306Y013366D01*
X012331Y01338D01*
X012353Y013398D01*
X01237Y01342D01*
X012384Y013446D01*
X012394Y013476D01*
X0124Y01351D01*
X012402Y013548D01*
Y012952D01*
D02*
G37*
G36*
X024851Y013277D02*
X024857Y013239D01*
X024867Y013206D01*
X02488Y013178D01*
X024898Y013154D01*
X02492Y013134D01*
X024945Y013118D01*
X024975Y013107D01*
X025008Y013101D01*
X025046Y013098D01*
Y012902D01*
X025008Y012901D01*
X024945Y012894D01*
X02492Y012889D01*
X024898Y012881D01*
X02488Y012873D01*
X024867Y012862D01*
X024857Y01285D01*
X024851Y012836D01*
X024849Y012821D01*
Y013319D01*
X024851Y013277D01*
D02*
G37*
G36*
X016354Y01405D02*
X016725D01*
Y012925D01*
X0166Y0128D01*
X01605D01*
X0156Y01325D01*
Y0135D01*
X01615Y01405D01*
X016354D01*
X016354Y014064D01*
Y01405D01*
D02*
G37*
G36*
X025784Y012908D02*
X025818Y012885D01*
X025855Y012864D01*
X025896Y012846D01*
X025941Y01283D01*
X02599Y012818D01*
X026043Y012808D01*
X026099Y012801D01*
X02616Y012797D01*
X026224Y012796D01*
X025676Y012404D01*
X025675Y012469D01*
X025664Y012585D01*
X025654Y012638D01*
X025641Y012687D01*
X025626Y012732D01*
X025608Y012773D01*
X025587Y01281D01*
X025563Y012844D01*
X025537Y012874D01*
X025754Y012935D01*
X025784Y012908D01*
D02*
G37*
G36*
X018889Y012041D02*
X018887Y012056D01*
X018882Y01207D01*
X018872Y012082D01*
X018858Y012093D01*
X01884Y012101D01*
X018819Y012109D01*
X018793Y012114D01*
X018763Y012118D01*
X01873Y012121D01*
X018693Y012122D01*
Y012318D01*
X01873Y012321D01*
X018763Y012327D01*
X018793Y012338D01*
X018819Y012354D01*
X01884Y012374D01*
X018858Y012398D01*
X018872Y012426D01*
X018882Y012459D01*
X018887Y012497D01*
X018889Y012539D01*
Y012041D01*
D02*
G37*
G36*
X024851Y011707D02*
X024857Y011669D01*
X024867Y011636D01*
X02488Y011608D01*
X024898Y011584D01*
X02492Y011564D01*
X024945Y011548D01*
X024975Y011537D01*
X025008Y011531D01*
X025046Y011528D01*
Y011332D01*
X025008Y011331D01*
X024945Y011324D01*
X02492Y011319D01*
X024898Y011311D01*
X02488Y011303D01*
X024867Y011292D01*
X024857Y01128D01*
X024851Y011266D01*
X024849Y011251D01*
Y011749D01*
X024851Y011707D01*
D02*
G37*
G36*
X018889Y011251D02*
X018887Y011266D01*
X018882Y01128D01*
X018872Y011292D01*
X018858Y011303D01*
X01884Y011311D01*
X018819Y011319D01*
X018793Y011324D01*
X018763Y011328D01*
X01873Y011331D01*
X018693Y011332D01*
Y011528D01*
X01873Y011531D01*
X018763Y011537D01*
X018793Y011548D01*
X018819Y011564D01*
X01884Y011584D01*
X018858Y011608D01*
X018872Y011636D01*
X018882Y011669D01*
X018887Y011707D01*
X018889Y011749D01*
Y011251D01*
D02*
G37*
G36*
X033595Y010659D02*
X033588Y010651D01*
X03311Y010921D01*
X033166Y010947D01*
X033215Y010975D01*
X033259Y011004D01*
X033298Y011035D01*
X03333Y011067D01*
X033356Y011101D01*
X033377Y011136D01*
X033391Y011173D01*
X0334Y011211D01*
X033403Y01125D01*
X033797D01*
X033595Y010659D01*
D02*
G37*
G36*
X033597Y010646D02*
X033797Y01025D01*
X033403D01*
X033402Y010252D01*
X033398Y010253D01*
X033298Y010252D01*
X033273Y010251D01*
X033588Y010651D01*
X033597Y010646D01*
D02*
G37*
G36*
X032489Y010335D02*
X032459Y010288D01*
X032433Y010238D01*
X032411Y010184D01*
X032392Y010128D01*
X032376Y010068D01*
X032364Y010006D01*
X032355Y00994D01*
X03235Y009872D01*
X032348Y0098D01*
X032152D01*
X03215Y009872D01*
X032136Y010006D01*
X032124Y010068D01*
X032108Y010128D01*
X032089Y010184D01*
X032067Y010238D01*
X032041Y010288D01*
X032011Y010335D01*
X031978Y010379D01*
X032522D01*
X032489Y010335D01*
D02*
G37*
G36*
X026376Y008977D02*
X026382Y008961D01*
X026392Y008946D01*
X026405Y008933D01*
X026423Y008923D01*
X026445Y008914D01*
X02647Y008907D01*
X0265Y008902D01*
X026533Y008899D01*
X026571Y008898D01*
Y008702D01*
X026533Y008701D01*
X0265Y008698D01*
X02647Y008693D01*
X026445Y008686D01*
X026423Y008677D01*
X026405Y008667D01*
X026392Y008654D01*
X026382Y008639D01*
X026376Y008623D01*
X026374Y008604D01*
Y008996D01*
X026376Y008977D01*
D02*
G37*
%LPC*%
G36*
X01128Y04658D02*
Y046123D01*
X011738D01*
X011727Y046206D01*
X011676Y04633D01*
X011594Y046436D01*
X011487Y046518D01*
X011363Y046569D01*
X01128Y04658D01*
D02*
G37*
G36*
X01328D02*
Y046123D01*
X013738D01*
X013727Y046206D01*
X013676Y04633D01*
X013594Y046436D01*
X013487Y046518D01*
X013363Y046569D01*
X01328Y04658D01*
D02*
G37*
G36*
X01118D02*
X011097Y046569D01*
X010973Y046518D01*
X010866Y046436D01*
X010785Y04633D01*
X010733Y046206D01*
X010722Y046123D01*
X01118D01*
Y04658D01*
D02*
G37*
G36*
X01318D02*
X013097Y046569D01*
X012973Y046518D01*
X012866Y046436D01*
X012785Y04633D01*
X012733Y046206D01*
X012722Y046123D01*
X01318D01*
Y04658D01*
D02*
G37*
G36*
X012256Y04602D02*
Y045851D01*
X012425D01*
X012418Y045889D01*
X012368Y045963D01*
X012294Y046013D01*
X012256Y04602D01*
D02*
G37*
G36*
X012156D02*
X012118Y046013D01*
X012044Y045963D01*
X011994Y045889D01*
X011986Y045851D01*
X012156D01*
Y04602D01*
D02*
G37*
G36*
X013738Y046023D02*
X01328D01*
Y045565D01*
X013363Y045576D01*
X013487Y045627D01*
X013594Y045709D01*
X013676Y045815D01*
X013727Y045939D01*
X013738Y046023D01*
D02*
G37*
G36*
X011738D02*
X01128D01*
Y045565D01*
X011363Y045576D01*
X011405Y045593D01*
X011457Y04556D01*
X011468Y045501D01*
X011518Y045427D01*
X011593Y045377D01*
X01168Y04536D01*
X01169Y045362D01*
X011726Y045318D01*
X011697Y045249D01*
X011659Y04524D01*
X011639Y04524D01*
X011571Y045286D01*
X011533Y045294D01*
Y045074D01*
X011483D01*
Y045024D01*
X011264D01*
X011271Y044987D01*
X011321Y044912D01*
X011395Y044862D01*
X011397Y044859D01*
X011389Y044813D01*
X011381Y044775D01*
X011601D01*
Y044675D01*
X011381D01*
X011389Y044638D01*
X011411Y044604D01*
X011378Y044563D01*
X011363Y044569D01*
X01128Y04458D01*
Y044073D01*
Y043565D01*
X011363Y043576D01*
X011487Y043627D01*
X011551Y043676D01*
X011597Y043648D01*
X011596Y043644D01*
X011815D01*
Y043544D01*
X011596D01*
X011603Y043506D01*
X011653Y043432D01*
X011728Y043382D01*
X011791Y043369D01*
Y043318D01*
X011728Y043306D01*
X011653Y043256D01*
X011603Y043182D01*
X011596Y043144D01*
X011815D01*
Y043094D01*
X011865D01*
Y042874D01*
X011903Y042882D01*
X011924Y042896D01*
X011968Y042872D01*
Y042775D01*
X01171D01*
Y042702D01*
X01166Y042676D01*
X011633Y042693D01*
X011595Y042701D01*
Y042481D01*
X011545D01*
Y042432D01*
X011326D01*
X011334Y042394D01*
X011383Y042319D01*
X011458Y04227D01*
X011521Y042257D01*
Y042206D01*
X011458Y042193D01*
X011383Y042144D01*
X011334Y042069D01*
X011326Y042031D01*
X011545D01*
Y041932D01*
X011326D01*
X011334Y041894D01*
X011383Y041819D01*
X011458Y04177D01*
X011484Y041764D01*
X011493Y041746D01*
X0115Y04171D01*
X011456Y041644D01*
X011448Y041606D01*
X011668D01*
Y041507D01*
X011448D01*
X011456Y041469D01*
X011505Y041394D01*
X01158Y041345D01*
X011643Y041332D01*
Y041281D01*
X01158Y041268D01*
X011505Y041219D01*
X011456Y041144D01*
X011448Y041107D01*
X011668D01*
Y041006D01*
X011448D01*
X011456Y040969D01*
X011505Y040894D01*
X01158Y040845D01*
X011591Y040842D01*
X01161Y040796D01*
X011592Y040769D01*
X011583Y040723D01*
X011529Y040711D01*
X0115Y04075D01*
X011427Y040806D01*
X011341Y040841D01*
X0113Y040846D01*
Y0405D01*
Y040154D01*
X011341Y040159D01*
X011427Y040194D01*
X0115Y04025D01*
X011556Y040323D01*
X011591Y040409D01*
X011602Y04049D01*
X011618Y040501D01*
X011627Y040506D01*
X011652Y040512D01*
X011716Y040469D01*
X011786Y040455D01*
Y040404D01*
X011731Y040393D01*
X011657Y040343D01*
X011607Y040269D01*
X0116Y040231D01*
X011819D01*
Y040131D01*
X0116D01*
X011607Y040093D01*
X011657Y040019D01*
X011731Y039969D01*
X011742Y039967D01*
X011733Y039918D01*
X011645Y039901D01*
X01157Y039851D01*
X011521Y039776D01*
X011513Y039739D01*
X011733D01*
Y039639D01*
X011513D01*
X011521Y039601D01*
X01157Y039526D01*
X011645Y039477D01*
X011708Y039464D01*
Y039413D01*
X011645Y039401D01*
X01157Y039351D01*
X011521Y039276D01*
X011513Y039239D01*
X011733D01*
Y039139D01*
X011513D01*
X011521Y039101D01*
X01157Y039026D01*
X011645Y038977D01*
X011733Y038959D01*
X011763Y038965D01*
X011772Y038954D01*
X011761Y038889D01*
X01176Y038888D01*
X01171Y038814D01*
X011702Y038776D01*
X011922D01*
Y038676D01*
X011702D01*
X01171Y038638D01*
X01176Y038564D01*
X011728Y038527D01*
X011693Y038551D01*
X011655Y038558D01*
Y038339D01*
X011605D01*
Y038289D01*
X011385D01*
X011393Y038251D01*
X011429Y038198D01*
X011393Y038162D01*
X011339Y038197D01*
X011301Y038205D01*
Y037985D01*
X011251D01*
Y037935D01*
X011032D01*
X011039Y037898D01*
X011075Y037844D01*
X011039Y037808D01*
X010986Y037844D01*
X010948Y037851D01*
Y037632D01*
X010898D01*
Y037582D01*
X010678D01*
X010686Y037544D01*
X010736Y03747D01*
X010705Y037432D01*
X010672Y037455D01*
X010634Y037462D01*
Y037243D01*
X010584D01*
Y037193D01*
X010365D01*
X010372Y037155D01*
X010422Y03708D01*
X010496Y037031D01*
X010526Y037025D01*
X010544Y036992D01*
X010546Y03697D01*
X010513Y036832D01*
X010456Y036809D01*
X010435Y036824D01*
X010397Y036831D01*
Y036612D01*
X010347D01*
Y036562D01*
X010128D01*
X010136Y036524D01*
X010185Y036449D01*
X01026Y0364D01*
X010323Y036387D01*
Y036336D01*
X01026Y036324D01*
X010185Y036274D01*
X010136Y036199D01*
X010128Y036162D01*
X010347D01*
Y036062D01*
X010128D01*
X010136Y036024D01*
X010185Y035949D01*
X01026Y0359D01*
X010323Y035887D01*
Y035836D01*
X01026Y035824D01*
X010185Y035774D01*
X010136Y035699D01*
X010128Y035662D01*
X010347D01*
Y035562D01*
X010128D01*
X010136Y035524D01*
X010185Y035449D01*
X01026Y0354D01*
X010347Y035382D01*
X010352Y035334D01*
X010313Y035326D01*
X010239Y035277D01*
X010189Y035202D01*
X010181Y035164D01*
X010401D01*
Y035064D01*
X010181D01*
X010189Y035027D01*
X010239Y034952D01*
X010256Y03494D01*
X010258Y034921D01*
X010251Y034884D01*
X010185Y03484D01*
X010136Y034766D01*
X010128Y034728D01*
X010347D01*
Y034628D01*
X010128D01*
X010136Y03459D01*
X010185Y034516D01*
X01026Y034466D01*
X010323Y034454D01*
Y034403D01*
X01026Y03439D01*
X010185Y03434D01*
X010136Y034266D01*
X010128Y034228D01*
X010347D01*
Y034128D01*
X010128D01*
X010136Y03409D01*
X010185Y034016D01*
X01026Y033966D01*
X010323Y033954D01*
Y033903D01*
X01026Y03389D01*
X010185Y03384D01*
X010136Y033766D01*
X010128Y033728D01*
X010347D01*
Y033678D01*
X010397D01*
Y033459D01*
X010435Y033466D01*
X010444Y033472D01*
X010488Y033448D01*
Y03338D01*
X010444Y033357D01*
X010435Y033362D01*
X010397Y03337D01*
Y03315D01*
X010347D01*
Y0331D01*
X010128D01*
X010136Y033063D01*
X010181Y032995D01*
X010167Y032986D01*
X010117Y032911D01*
X01011Y032874D01*
X010329D01*
Y032774D01*
X01011D01*
X010117Y032736D01*
X010167Y032661D01*
X010241Y032612D01*
X010304Y032599D01*
Y032548D01*
X010241Y032536D01*
X010167Y032486D01*
X010117Y032411D01*
X01011Y032374D01*
X010329D01*
Y032324D01*
X010379D01*
Y032104D01*
X010417Y032112D01*
X010436Y032124D01*
X010489Y0321D01*
X010496Y032022D01*
X010476Y032004D01*
X010388Y031986D01*
X010313Y031936D01*
X010264Y031862D01*
X010256Y031824D01*
X010476D01*
Y031774D01*
X010526D01*
Y031555D01*
X010563Y031562D01*
X010571Y031568D01*
X010599Y031526D01*
X010549Y031452D01*
X010542Y031414D01*
X010761D01*
Y031364D01*
X010811D01*
Y031145D01*
X010849Y031152D01*
X010924Y031202D01*
X010973Y031276D01*
X011028Y031292D01*
X011159Y031252D01*
X011309Y031237D01*
Y031237D01*
X011333Y031228D01*
X01136Y031186D01*
X011353Y031149D01*
X011572D01*
Y031099D01*
X011622D01*
Y030879D01*
X01166Y030887D01*
X011734Y030936D01*
X011784Y031011D01*
X011797Y031074D01*
X011848D01*
X01186Y031011D01*
X01191Y030936D01*
X011984Y030887D01*
X012022Y030879D01*
Y031099D01*
X012122D01*
Y030879D01*
X01216Y030887D01*
X012234Y030936D01*
X012284Y031011D01*
X012297Y031074D01*
X012348D01*
X01236Y031011D01*
X01241Y030936D01*
X012485Y030887D01*
X012522Y030879D01*
Y031099D01*
X012622D01*
Y030879D01*
X01266Y030887D01*
X012735Y030936D01*
X012784Y031011D01*
X012799Y031084D01*
X012854Y031082D01*
X012857Y031064D01*
X012907Y03099D01*
X012982Y03094D01*
X013019Y030933D01*
Y031152D01*
X013119D01*
Y030933D01*
X013157Y03094D01*
X013232Y03099D01*
X013281Y031064D01*
X013283Y031073D01*
X013472Y031069D01*
X013472Y031068D01*
X013489Y030983D01*
X013537Y030911D01*
X013609Y030863D01*
X013694Y030846D01*
X013959D01*
Y031068D01*
X014009D01*
Y031118D01*
X014537D01*
X01453Y031153D01*
X014484Y031221D01*
X014485Y031223D01*
X014551Y031274D01*
X014602Y031341D01*
X014634Y031418D01*
X014645Y031501D01*
X014634Y031584D01*
X014602Y031662D01*
X014551Y031728D01*
X014485Y031779D01*
X014484Y031781D01*
X01453Y031849D01*
X014537Y031884D01*
X013482D01*
X013489Y031849D01*
X013513Y031813D01*
X013486Y031763D01*
X013372D01*
X013345Y031813D01*
X013365Y031843D01*
X013372Y03188D01*
X013153D01*
Y03193D01*
X013103D01*
Y03215D01*
X013065Y032142D01*
X012991Y032093D01*
X012941Y032018D01*
X012923Y03193D01*
X012875Y031926D01*
X012868Y031965D01*
X012818Y032039D01*
X012744Y032089D01*
X012706Y032096D01*
Y031877D01*
X012606D01*
Y032096D01*
X012568Y032089D01*
X012494Y032039D01*
X012444Y031965D01*
X012431Y031902D01*
X01238D01*
X012368Y031965D01*
X012318Y032039D01*
X012244Y032089D01*
X012206Y032096D01*
Y031877D01*
X012106D01*
Y032096D01*
X012068Y032089D01*
X011994Y032039D01*
X011944Y031965D01*
X011931Y031902D01*
X01188D01*
X011868Y031965D01*
X011818Y032039D01*
X011744Y032089D01*
X011706Y032096D01*
Y031877D01*
X011656D01*
Y031827D01*
X011436D01*
X011439Y031813D01*
X011405Y031763D01*
X011309D01*
X011303Y031763D01*
X011262Y031771D01*
X011251Y031824D01*
X011278Y031842D01*
X011328Y031917D01*
X011335Y031954D01*
X011116D01*
Y032054D01*
X011335D01*
X011328Y032092D01*
X011308Y032123D01*
X011313Y032126D01*
X011363Y032201D01*
X01137Y032239D01*
X011151D01*
Y032339D01*
X01137D01*
X011363Y032376D01*
X011313Y032451D01*
X011238Y032501D01*
X011175Y032513D01*
Y032564D01*
X011238Y032577D01*
X011313Y032626D01*
X011363Y032701D01*
X01137Y032739D01*
X011151D01*
Y032839D01*
X01137D01*
X011363Y032876D01*
X011313Y032951D01*
X011314Y033001D01*
X011355Y033063D01*
X011363Y0331D01*
X011143D01*
Y0332D01*
X011363D01*
X011355Y033238D01*
X011305Y033313D01*
X011231Y033362D01*
X011199Y033369D01*
Y03342D01*
X011257Y033431D01*
X011331Y033481D01*
X011381Y033555D01*
X011388Y033593D01*
X011169D01*
Y033693D01*
X011388D01*
X011381Y033731D01*
X011331Y033805D01*
X011257Y033855D01*
X011194Y033868D01*
Y033919D01*
X011257Y033931D01*
X011331Y033981D01*
X011381Y034055D01*
X011388Y034093D01*
X011169D01*
Y034193D01*
X011388D01*
X011381Y034231D01*
X011331Y034305D01*
X011257Y034355D01*
X011194Y034368D01*
Y034419D01*
X011257Y034431D01*
X011331Y034481D01*
X011381Y034555D01*
X011388Y034593D01*
X011169D01*
Y034693D01*
X011388D01*
X011381Y034731D01*
X011331Y034805D01*
X011257Y034855D01*
X011246Y034857D01*
X011243Y034868D01*
X011241Y034909D01*
X011305Y034952D01*
X011355Y035027D01*
X011363Y035064D01*
X011143D01*
Y035164D01*
X011363D01*
X011355Y035202D01*
X011305Y035277D01*
X011231Y035326D01*
X011143Y035344D01*
X011139Y035392D01*
X011178Y0354D01*
X011252Y035449D01*
X011302Y035524D01*
X011309Y035562D01*
X01109D01*
Y035662D01*
X011309D01*
X011302Y035699D01*
X011252Y035774D01*
X011178Y035824D01*
X011115Y035836D01*
Y035887D01*
X011178Y0359D01*
X011252Y035949D01*
X011302Y036024D01*
X011309Y036062D01*
X01109D01*
Y036162D01*
X011309D01*
X011302Y036199D01*
X011252Y036274D01*
X011178Y036324D01*
X011115Y036336D01*
Y036387D01*
X011178Y0364D01*
X011252Y036449D01*
X011302Y036524D01*
X011309Y036562D01*
X01109D01*
Y036662D01*
X011309D01*
X011302Y036699D01*
X011285Y036725D01*
X011304Y036771D01*
X011315Y036773D01*
X011389Y036823D01*
X011439Y036898D01*
X011447Y036935D01*
X011227D01*
Y037035D01*
X011447D01*
X011439Y037073D01*
X011402Y037129D01*
X011438Y037165D01*
X011489Y037131D01*
X011527Y037123D01*
Y037343D01*
X011577D01*
Y037393D01*
X011796D01*
X011789Y037431D01*
X011753Y037484D01*
X011789Y03752D01*
X011843Y037484D01*
X01188Y037477D01*
Y037696D01*
X01193D01*
Y037746D01*
X01215D01*
X012142Y037784D01*
X012106Y037839D01*
X012142Y037875D01*
X012194Y03784D01*
X012232Y037832D01*
Y038051D01*
X012282D01*
Y038101D01*
X012502D01*
X012494Y038139D01*
X012444Y038214D01*
X012435Y03822D01*
X012462Y038262D01*
X0125Y038254D01*
Y038474D01*
X01255D01*
Y038524D01*
X01277D01*
X012762Y038561D01*
X012712Y038636D01*
X01267Y038664D01*
X01269Y038711D01*
X012713Y038706D01*
Y038926D01*
X012763D01*
Y038955D01*
X01281D01*
Y038976D01*
X012983D01*
X012975Y039014D01*
X012926Y039088D01*
X012851Y039138D01*
X01281Y039146D01*
Y039652D01*
X012814Y039655D01*
Y03991D01*
Y040129D01*
X012808Y040128D01*
X012788Y040175D01*
X012847Y040214D01*
X012897Y040289D01*
X012904Y040326D01*
X012685D01*
Y040426D01*
X012904D01*
X012897Y040464D01*
X012847Y040539D01*
X012772Y040588D01*
X012685Y040606D01*
X012638Y040647D01*
X012639Y040668D01*
X012641Y04067D01*
X012691Y040744D01*
X012699Y040782D01*
X012479D01*
Y040843D01*
X012607D01*
Y040882D01*
X01274D01*
X012748Y04089D01*
X012757Y040888D01*
Y041108D01*
X012807D01*
Y041158D01*
X013026D01*
X013019Y041195D01*
X012969Y04127D01*
X012895Y041319D01*
X012832Y041332D01*
Y041383D01*
X012895Y041396D01*
X012969Y041445D01*
X013019Y04152D01*
X013026Y041558D01*
X012807D01*
Y041658D01*
X013026D01*
X013019Y041695D01*
X012969Y04177D01*
X012943Y041787D01*
X012954Y04184D01*
X012997Y041849D01*
X01306Y041891D01*
X01311Y041873D01*
Y041825D01*
X01346D01*
Y04225D01*
Y042675D01*
X01311D01*
X01311Y042675D01*
Y042675D01*
X013079Y042712D01*
X013071Y042723D01*
X012997Y042773D01*
X012959Y04278D01*
Y042561D01*
X012859D01*
Y04278D01*
X012821Y042773D01*
X01276Y042731D01*
X01271Y042751D01*
Y042775D01*
X012492D01*
Y042832D01*
X012536Y042855D01*
X012549Y042847D01*
X012587Y042839D01*
Y043059D01*
X012637D01*
Y043109D01*
X012856D01*
X012849Y043146D01*
X012799Y043221D01*
X012725Y043271D01*
X012662Y043283D01*
Y043334D01*
X012725Y043347D01*
X012799Y043396D01*
X012849Y043471D01*
X012856Y043509D01*
X012637D01*
Y043609D01*
X012856D01*
X012849Y043646D01*
X012828Y043678D01*
X012866Y043709D01*
X012973Y043627D01*
X013097Y043576D01*
X01318Y043565D01*
Y044073D01*
Y04458D01*
X013097Y044569D01*
X013091Y044567D01*
X013058Y044608D01*
X013074Y044631D01*
X013082Y044669D01*
X012862D01*
Y044769D01*
X013082D01*
X013074Y044807D01*
X01307Y044812D01*
X013087Y044877D01*
X013113Y044894D01*
X013164Y044883D01*
X013172Y044878D01*
X013194Y044823D01*
X01325Y04475D01*
X013323Y044694D01*
X013409Y044659D01*
X01345Y044654D01*
Y045D01*
Y045346D01*
X013409Y045341D01*
X013323Y045306D01*
X01325Y04525D01*
X013212Y0452D01*
X013153Y045199D01*
X013152Y045199D01*
X013131Y045231D01*
X013056Y045281D01*
X013019Y045288D01*
Y045069D01*
X012919D01*
Y045288D01*
X012881Y045281D01*
X012821Y045241D01*
X012773Y045248D01*
X012763Y045253D01*
X012748Y045301D01*
X012778Y045343D01*
X012847Y045357D01*
X012921Y045406D01*
X012971Y045481D01*
X012988Y045567D01*
X012991Y045575D01*
X013031Y045603D01*
X013097Y045576D01*
X01318Y045565D01*
Y046023D01*
X012722D01*
X012733Y045939D01*
X012772Y045847D01*
X012769Y045836D01*
X01274Y045794D01*
X012671Y045781D01*
X012597Y045731D01*
X012547Y045656D01*
X012537Y045603D01*
X012537Y045603D01*
X012481Y045575D01*
X012403Y045607D01*
X012385Y045663D01*
X012386Y045666D01*
X012418Y045713D01*
X012425Y045751D01*
X011986D01*
X011994Y045713D01*
X012035Y045652D01*
X012027Y045594D01*
X011956Y045565D01*
X011925Y045581D01*
X011909Y045595D01*
X011892Y045677D01*
X011843Y045751D01*
X011768Y045801D01*
X011727Y045809D01*
X011697Y045866D01*
X011727Y045939D01*
X011738Y046023D01*
D02*
G37*
G36*
X01118D02*
X010722D01*
X010733Y045939D01*
X010785Y045815D01*
X010866Y045709D01*
X010973Y045627D01*
X011097Y045576D01*
X01118Y045565D01*
Y046023D01*
D02*
G37*
G36*
X011433Y045294D02*
X011395Y045286D01*
X011321Y045237D01*
X011271Y045162D01*
X011264Y045124D01*
X011433D01*
Y045294D01*
D02*
G37*
G36*
X01355Y045346D02*
Y04505D01*
X013846D01*
X013841Y045091D01*
X013806Y045177D01*
X01375Y04525D01*
X013677Y045306D01*
X013591Y045341D01*
X01355Y045346D01*
D02*
G37*
G36*
X01055D02*
Y04505D01*
X010846D01*
X010841Y045091D01*
X010806Y045177D01*
X01075Y04525D01*
X010677Y045306D01*
X010591Y045341D01*
X01055Y045346D01*
D02*
G37*
G36*
X01045D02*
X010409Y045341D01*
X010323Y045306D01*
X01025Y04525D01*
X010194Y045177D01*
X010159Y045091D01*
X010154Y04505D01*
X01045D01*
Y045346D01*
D02*
G37*
G36*
X021346Y04495D02*
X02105D01*
Y044654D01*
X021091Y044659D01*
X021177Y044694D01*
X02125Y04475D01*
X021306Y044823D01*
X021341Y044909D01*
X021346Y04495D01*
D02*
G37*
G36*
X02095D02*
X020654D01*
X020659Y044909D01*
X020694Y044823D01*
X02075Y04475D01*
X020823Y044694D01*
X020909Y044659D01*
X02095Y044654D01*
Y04495D01*
D02*
G37*
G36*
X013846D02*
X01355D01*
Y044654D01*
X013591Y044659D01*
X013677Y044694D01*
X01375Y04475D01*
X013806Y044823D01*
X013841Y044909D01*
X013846Y04495D01*
D02*
G37*
G36*
X010846D02*
X01055D01*
Y044654D01*
X010591Y044659D01*
X010677Y044694D01*
X01075Y04475D01*
X010806Y044823D01*
X010841Y044909D01*
X010846Y04495D01*
D02*
G37*
G36*
X01045D02*
X010154D01*
X010159Y044909D01*
X010194Y044823D01*
X01025Y04475D01*
X010323Y044694D01*
X010409Y044659D01*
X01045Y044654D01*
Y04495D01*
D02*
G37*
G36*
X01328Y04458D02*
Y044123D01*
X013738D01*
X013727Y044206D01*
X013676Y04433D01*
X013594Y044436D01*
X013487Y044518D01*
X013363Y044569D01*
X01328Y04458D01*
D02*
G37*
G36*
X01118D02*
X011097Y044569D01*
X010973Y044518D01*
X010866Y044436D01*
X010785Y04433D01*
X010733Y044206D01*
X010722Y044123D01*
X01118D01*
Y04458D01*
D02*
G37*
G36*
X013738Y044023D02*
X01328D01*
Y043565D01*
X013363Y043576D01*
X013487Y043627D01*
X013594Y043709D01*
X013676Y043815D01*
X013727Y043939D01*
X013738Y044023D01*
D02*
G37*
G36*
X01118D02*
X010722D01*
X010733Y043939D01*
X010785Y043815D01*
X010866Y043709D01*
X010973Y043627D01*
X011097Y043576D01*
X01118Y043565D01*
Y044023D01*
D02*
G37*
G36*
X0143Y043846D02*
Y04355D01*
X014596D01*
X014591Y043591D01*
X014556Y043677D01*
X0145Y04375D01*
X014427Y043806D01*
X014341Y043841D01*
X0143Y043846D01*
D02*
G37*
G36*
X0142D02*
X014159Y043841D01*
X014073Y043806D01*
X014Y04375D01*
X013944Y043677D01*
X013909Y043591D01*
X013904Y04355D01*
X0142D01*
Y043846D01*
D02*
G37*
G36*
X011765Y043044D02*
X011596D01*
X011603Y043006D01*
X011653Y042932D01*
X011728Y042882D01*
X011765Y042874D01*
Y043044D01*
D02*
G37*
G36*
X012856Y043009D02*
X012687D01*
Y042839D01*
X012725Y042847D01*
X012799Y042896D01*
X012849Y042971D01*
X012856Y043009D01*
D02*
G37*
G36*
X011495Y042701D02*
X011458Y042693D01*
X011383Y042644D01*
X011334Y042569D01*
X011326Y042531D01*
X011495D01*
Y042701D01*
D02*
G37*
G36*
X01391Y042675D02*
X01356D01*
Y0423D01*
X01391D01*
Y042675D01*
D02*
G37*
G36*
X01055Y042346D02*
Y04205D01*
X010846D01*
X010841Y042091D01*
X010806Y042177D01*
X01075Y04225D01*
X010677Y042306D01*
X010591Y042341D01*
X01055Y042346D01*
D02*
G37*
G36*
X01045D02*
X010409Y042341D01*
X010323Y042306D01*
X01025Y04225D01*
X010194Y042177D01*
X010159Y042091D01*
X010154Y04205D01*
X01045D01*
Y042346D01*
D02*
G37*
G36*
X01391Y0422D02*
X01356D01*
Y041825D01*
X01391D01*
Y0422D01*
D02*
G37*
G36*
X010846Y04195D02*
X01055D01*
Y041654D01*
X010591Y041659D01*
X010677Y041694D01*
X01075Y04175D01*
X010806Y041823D01*
X010841Y041909D01*
X010846Y04195D01*
D02*
G37*
G36*
X01045D02*
X010154D01*
X010159Y041909D01*
X010194Y041823D01*
X01025Y04175D01*
X010323Y041694D01*
X010409Y041659D01*
X01045Y041654D01*
Y04195D01*
D02*
G37*
G36*
X013026Y041058D02*
X012857D01*
Y040888D01*
X012895Y040896D01*
X012969Y040945D01*
X013019Y04102D01*
X013026Y041058D01*
D02*
G37*
G36*
X0142Y040846D02*
X014159Y040841D01*
X014073Y040806D01*
X014Y04075D01*
X013944Y040677D01*
X013909Y040591D01*
X013904Y04055D01*
X0142D01*
Y040846D01*
D02*
G37*
G36*
X0112D02*
X011159Y040841D01*
X011073Y040806D01*
X011Y04075D01*
X010944Y040677D01*
X010909Y040591D01*
X010904Y04055D01*
X0112D01*
Y040846D01*
D02*
G37*
G36*
X014596Y04045D02*
X0143D01*
Y040154D01*
X014341Y040159D01*
X014427Y040194D01*
X0145Y04025D01*
X014556Y040323D01*
X014591Y040409D01*
X014596Y04045D01*
D02*
G37*
G36*
X0142D02*
X013904D01*
X013909Y040409D01*
X013944Y040323D01*
X014Y04025D01*
X014055Y040209D01*
D01*
X014073Y040194D01*
X014159Y040159D01*
X0142Y040154D01*
Y04045D01*
D02*
G37*
G36*
X0112D02*
X010904D01*
X010909Y040409D01*
X010944Y040323D01*
X011Y04025D01*
X011073Y040194D01*
X011159Y040159D01*
X0112Y040154D01*
Y04045D01*
D02*
G37*
G36*
X012914Y040129D02*
Y03996D01*
X013084D01*
X013076Y039998D01*
X013026Y040072D01*
X012952Y040122D01*
X012914Y040129D01*
D02*
G37*
G36*
X013084Y03986D02*
X012914D01*
Y03969D01*
X012952Y039698D01*
X013026Y039748D01*
X013076Y039822D01*
X013084Y03986D01*
D02*
G37*
G36*
X01401Y039905D02*
X01366D01*
Y03953D01*
X01401D01*
Y039905D01*
D02*
G37*
G36*
X01356D02*
X01321D01*
Y03953D01*
X01356D01*
Y039905D01*
D02*
G37*
G36*
X022716Y039791D02*
X02247D01*
Y039466D01*
X022716D01*
Y039791D01*
D02*
G37*
G36*
X015318Y039647D02*
X015276Y039641D01*
X015191Y039606D01*
X015141Y039567D01*
X015092D01*
Y039516D01*
X015062Y039477D01*
X015027Y039392D01*
X015021Y03935D01*
X015318D01*
Y039647D01*
D02*
G37*
G36*
X01401Y03943D02*
X01366D01*
Y039055D01*
X01401D01*
Y03943D01*
D02*
G37*
G36*
X01356D02*
X01321D01*
Y039055D01*
X01356D01*
Y03943D01*
D02*
G37*
G36*
X01055Y039346D02*
Y03905D01*
X010846D01*
X010841Y039091D01*
X010806Y039177D01*
X01075Y03925D01*
X010677Y039306D01*
X010591Y039341D01*
X01055Y039346D01*
D02*
G37*
G36*
X01045D02*
X010409Y039341D01*
X010323Y039306D01*
X01025Y03925D01*
X010194Y039177D01*
X010159Y039091D01*
X010154Y03905D01*
X01045D01*
Y039346D01*
D02*
G37*
G36*
X022716Y039366D02*
X02247D01*
Y039041D01*
X022716D01*
Y039366D01*
D02*
G37*
G36*
X012983Y038876D02*
X012813D01*
Y038706D01*
X012851Y038714D01*
X012926Y038764D01*
X012975Y038838D01*
X012983Y038876D01*
D02*
G37*
G36*
X021346Y03895D02*
X02105D01*
Y038654D01*
X021091Y038659D01*
X021177Y038694D01*
X02125Y03875D01*
X021306Y038823D01*
X021341Y038909D01*
X021346Y03895D01*
D02*
G37*
G36*
X02095D02*
X020654D01*
X020659Y038909D01*
X020694Y038823D01*
X02075Y03875D01*
X020823Y038694D01*
X020909Y038659D01*
X02095Y038654D01*
Y03895D01*
D02*
G37*
G36*
X010846D02*
X01055D01*
Y038654D01*
X010591Y038659D01*
X010677Y038694D01*
X01075Y03875D01*
X010806Y038823D01*
X010841Y038909D01*
X010846Y03895D01*
D02*
G37*
G36*
X01045D02*
X010154D01*
X010159Y038909D01*
X010194Y038823D01*
X01025Y03875D01*
X010323Y038694D01*
X010409Y038659D01*
X01045Y038654D01*
Y03895D01*
D02*
G37*
G36*
X011555Y038558D02*
X011517Y038551D01*
X011443Y038501D01*
X011393Y038427D01*
X011385Y038389D01*
X011555D01*
Y038558D01*
D02*
G37*
G36*
X01277Y038424D02*
X0126D01*
Y038254D01*
X012638Y038262D01*
X012712Y038311D01*
X012762Y038386D01*
X01277Y038424D01*
D02*
G37*
G36*
X011201Y038205D02*
X011164Y038197D01*
X011089Y038148D01*
X011039Y038073D01*
X011032Y038035D01*
X011201D01*
Y038205D01*
D02*
G37*
G36*
X012502Y038001D02*
X012332D01*
Y037832D01*
X01237Y03784D01*
X012444Y037889D01*
X012494Y037964D01*
X012502Y038001D01*
D02*
G37*
G36*
X010848Y037851D02*
X01081Y037844D01*
X010736Y037794D01*
X010686Y03772D01*
X010678Y037682D01*
X010848D01*
Y037851D01*
D02*
G37*
G36*
X0143Y037846D02*
Y03755D01*
X014596D01*
X014591Y037591D01*
X014556Y037677D01*
X0145Y03775D01*
X014427Y037806D01*
X014341Y037841D01*
X0143Y037846D01*
D02*
G37*
G36*
X0142D02*
X014159Y037841D01*
X014073Y037806D01*
X014Y03775D01*
X013944Y037677D01*
X013909Y037591D01*
X013904Y03755D01*
X0142D01*
Y037846D01*
D02*
G37*
G36*
X0128D02*
Y03755D01*
X013096D01*
X013091Y037591D01*
X013056Y037677D01*
X013Y03775D01*
X012927Y037806D01*
X012841Y037841D01*
X0128Y037846D01*
D02*
G37*
G36*
X0127D02*
X012659Y037841D01*
X012573Y037806D01*
X0125Y03775D01*
X012444Y037677D01*
X012409Y037591D01*
X012404Y03755D01*
X0127D01*
Y037846D01*
D02*
G37*
G36*
X01215Y037646D02*
X01198D01*
Y037477D01*
X012018Y037484D01*
X012093Y037534D01*
X012142Y037608D01*
X01215Y037646D01*
D02*
G37*
G36*
X015801Y03755D02*
X015718Y037539D01*
X01564Y037507D01*
X015574Y037456D01*
X015523Y03739D01*
X015521Y037389D01*
X015453Y037435D01*
X015418Y037442D01*
Y036915D01*
Y036387D01*
X015453Y036394D01*
X015521Y03644D01*
X015523Y036439D01*
X015574Y036373D01*
X01564Y036322D01*
X015718Y03629D01*
X015801Y036279D01*
X015884Y03629D01*
X015961Y036322D01*
X016028Y036373D01*
X016079Y036439D01*
X016081Y03644D01*
X016149Y036394D01*
X016184Y036387D01*
Y036915D01*
Y037442D01*
X016149Y037435D01*
X016081Y037389D01*
X016079Y03739D01*
X016028Y037456D01*
X015961Y037507D01*
X015884Y037539D01*
X015801Y03755D01*
D02*
G37*
G36*
X010534Y037462D02*
X010496Y037455D01*
X010422Y037405D01*
X010372Y03733D01*
X010365Y037293D01*
X010534D01*
Y037462D01*
D02*
G37*
G36*
X020596Y03745D02*
X0203D01*
Y037154D01*
X020341Y037159D01*
X020427Y037194D01*
X0205Y03725D01*
X020556Y037323D01*
X020591Y037409D01*
X020596Y03745D01*
D02*
G37*
G36*
X014596D02*
X0143D01*
Y037154D01*
X014341Y037159D01*
X014427Y037194D01*
X0145Y03725D01*
X014556Y037323D01*
X014591Y037409D01*
X014596Y03745D01*
D02*
G37*
G36*
X0142D02*
X013904D01*
X013909Y037409D01*
X013944Y037323D01*
X014Y03725D01*
X014055Y037209D01*
D01*
X014073Y037194D01*
X014159Y037159D01*
X0142Y037154D01*
Y03745D01*
D02*
G37*
G36*
X013096D02*
X0128D01*
Y037154D01*
X012841Y037159D01*
X012927Y037194D01*
X013Y03725D01*
X013056Y037323D01*
X013091Y037409D01*
X013096Y03745D01*
D02*
G37*
G36*
X0127D02*
X012404D01*
X012409Y037409D01*
X012444Y037323D01*
X0125Y03725D01*
X012573Y037194D01*
X012659Y037159D01*
X0127Y037154D01*
Y03745D01*
D02*
G37*
G36*
X011796Y037293D02*
X011627D01*
Y037123D01*
X011665Y037131D01*
X011739Y03718D01*
X011789Y037255D01*
X011796Y037293D01*
D02*
G37*
G36*
X015318Y037442D02*
X015283Y037435D01*
X01521Y037387D01*
X015162Y037315D01*
X015145Y03723D01*
Y036965D01*
X015318D01*
Y037442D01*
D02*
G37*
G36*
X010297Y036831D02*
X01026Y036824D01*
X010185Y036774D01*
X010136Y036699D01*
X010128Y036662D01*
X010297D01*
Y036831D01*
D02*
G37*
G36*
X015318Y036865D02*
X015145D01*
Y0366D01*
X015162Y036514D01*
X01521Y036442D01*
X015283Y036394D01*
X015318Y036387D01*
Y036865D01*
D02*
G37*
G36*
X019055D02*
X018882D01*
Y036387D01*
X018917Y036394D01*
X01899Y036442D01*
X019038Y036514D01*
X019055Y0366D01*
Y036865D01*
D02*
G37*
G36*
X01505Y036346D02*
Y03605D01*
X015346D01*
X015341Y036091D01*
X015306Y036177D01*
X01525Y03625D01*
X015177Y036306D01*
X015091Y036341D01*
X01505Y036346D01*
D02*
G37*
G36*
X01205D02*
Y03605D01*
X012346D01*
X012341Y036091D01*
X012306Y036177D01*
X01225Y03625D01*
X012177Y036306D01*
X012091Y036341D01*
X01205Y036346D01*
D02*
G37*
G36*
X01195D02*
X011909Y036341D01*
X011823Y036306D01*
X01175Y03625D01*
X011694Y036177D01*
X011659Y036091D01*
X011654Y03605D01*
X01195D01*
Y036346D01*
D02*
G37*
G36*
X01495D02*
X014909Y036341D01*
X014823Y036306D01*
X01475Y03625D01*
X014694Y036177D01*
X014659Y036091D01*
X014648Y036011D01*
X014617Y035998D01*
X014598Y035997D01*
X014551Y036059D01*
X014485Y03611D01*
X014407Y036142D01*
X014324Y036153D01*
X013694D01*
X013611Y036142D01*
X013534Y03611D01*
X013468Y036059D01*
X013417Y035992D01*
X013385Y035915D01*
X013374Y035832D01*
X013385Y035749D01*
X013417Y035671D01*
X01346Y035615D01*
X013417Y035559D01*
X013385Y035482D01*
X013374Y035399D01*
X013385Y035316D01*
X013417Y035238D01*
X01346Y035182D01*
X013417Y035126D01*
X013385Y035049D01*
X013374Y034966D01*
X013385Y034883D01*
X013417Y034805D01*
X01346Y034749D01*
X013417Y034693D01*
X013385Y034616D01*
X013374Y034533D01*
X013385Y03445D01*
X013417Y034372D01*
X01346Y034316D01*
X013417Y03426D01*
X013385Y034183D01*
X013374Y0341D01*
X013385Y034017D01*
X013417Y033939D01*
X013468Y033873D01*
X013534Y033822D01*
X013535Y03382D01*
X013489Y033752D01*
X013482Y033717D01*
X014537D01*
X01453Y033752D01*
X014484Y03382D01*
X014485Y033822D01*
X014551Y033873D01*
X014602Y033939D01*
X014634Y034017D01*
X014645Y0341D01*
X014634Y034183D01*
X014602Y03426D01*
X014559Y034316D01*
X014602Y034372D01*
X014634Y03445D01*
X014645Y034533D01*
X014634Y034616D01*
X014602Y034693D01*
X014559Y034749D01*
X014602Y034805D01*
X014634Y034883D01*
X014645Y034966D01*
X014634Y035049D01*
X014602Y035126D01*
X014559Y035182D01*
X014602Y035238D01*
X014634Y035316D01*
X014645Y035399D01*
X014634Y035482D01*
X014602Y035559D01*
X014559Y035615D01*
X014602Y035671D01*
X014634Y035749D01*
X014643Y035816D01*
X014693Y035823D01*
X014695Y035823D01*
X01475Y03575D01*
X014823Y035694D01*
X014909Y035659D01*
X01495Y035654D01*
Y036D01*
Y036346D01*
D02*
G37*
G36*
X015346Y03595D02*
X01505D01*
Y035654D01*
X015091Y035659D01*
X015177Y035694D01*
X01525Y03575D01*
X015306Y035823D01*
X015341Y035909D01*
X015346Y03595D01*
D02*
G37*
G36*
X018346D02*
X017654D01*
X017659Y035909D01*
X017694Y035823D01*
X01775Y03575D01*
X017823Y035694D01*
X017841Y035687D01*
X017831Y035637D01*
X016669D01*
X016659Y035687D01*
X016677Y035694D01*
X01675Y03575D01*
X016806Y035823D01*
X016841Y035909D01*
X016846Y03595D01*
X016154D01*
X016159Y035909D01*
X016194Y035823D01*
X01625Y03575D01*
X016323Y035694D01*
X016341Y035687D01*
X016331Y035637D01*
X015367D01*
X015289Y035621D01*
X015223Y035577D01*
X015179Y035511D01*
X015163Y035433D01*
Y03173D01*
X015162Y031728D01*
X015146Y03165D01*
X015162Y031572D01*
X015206Y031506D01*
X015272Y031462D01*
X01535Y031446D01*
X0188D01*
X018878Y031462D01*
X018944Y031506D01*
X018988Y031572D01*
X019004Y03165D01*
Y035433D01*
X018988Y035511D01*
X018944Y035577D01*
X018878Y035621D01*
X0188Y035637D01*
X018169D01*
X018159Y035687D01*
X018177Y035694D01*
X01825Y03575D01*
X018306Y035823D01*
X018341Y035909D01*
X018346Y03595D01*
D02*
G37*
G36*
X012346D02*
X011654D01*
X011659Y035909D01*
X011694Y035823D01*
X01175Y03575D01*
X01176Y035743D01*
X011744Y035696D01*
X011596D01*
Y035134D01*
X012129D01*
X012662D01*
Y035696D01*
X012256D01*
X01224Y035743D01*
X01225Y03575D01*
X012306Y035823D01*
X012341Y035909D01*
X012346Y03595D01*
D02*
G37*
G36*
X012662Y035034D02*
X012179D01*
Y034472D01*
X012662D01*
Y035034D01*
D02*
G37*
G36*
X012079D02*
X011596D01*
Y034472D01*
X012079D01*
Y035034D01*
D02*
G37*
G36*
X020506Y036153D02*
X019876D01*
X019793Y036142D01*
X019715Y03611D01*
X019649Y036059D01*
X019598Y035992D01*
X019566Y035915D01*
X019555Y035832D01*
X019566Y035749D01*
X019598Y035671D01*
X019641Y035615D01*
X019598Y035559D01*
X019566Y035482D01*
X019555Y035399D01*
X019566Y035316D01*
X019598Y035238D01*
X019641Y035182D01*
X019598Y035126D01*
X019566Y035049D01*
X019555Y034966D01*
X019566Y034883D01*
X019598Y034805D01*
X019641Y034749D01*
X019598Y034693D01*
X019566Y034616D01*
X019555Y034533D01*
X019566Y03445D01*
X019598Y034372D01*
X019649Y034306D01*
X019715Y034255D01*
X019716Y034253D01*
X01967Y034185D01*
X019663Y03415D01*
X020718D01*
X020711Y034185D01*
X020665Y034253D01*
X020666Y034255D01*
X020732Y034306D01*
X020783Y034372D01*
X020815Y03445D01*
X020826Y034533D01*
X020815Y034616D01*
X020783Y034693D01*
X02074Y034749D01*
X020783Y034805D01*
X020815Y034883D01*
X020826Y034966D01*
X020815Y035049D01*
X020783Y035126D01*
X02074Y035182D01*
X020783Y035238D01*
X020815Y035316D01*
X020826Y035399D01*
X020815Y035482D01*
X020783Y035559D01*
X02074Y035615D01*
X020783Y035671D01*
X020815Y035749D01*
X020826Y035832D01*
X020815Y035915D01*
X020783Y035992D01*
X020732Y036059D01*
X020666Y03611D01*
X020589Y036142D01*
X020506Y036153D01*
D02*
G37*
G36*
X010297Y033628D02*
X010128D01*
X010136Y03359D01*
X010185Y033516D01*
X01026Y033466D01*
X010297Y033459D01*
Y033628D01*
D02*
G37*
G36*
Y03337D02*
X01026Y033362D01*
X010185Y033313D01*
X010136Y033238D01*
X010128Y0332D01*
X010297D01*
Y03337D01*
D02*
G37*
G36*
X012762Y033827D02*
X011496D01*
Y032404D01*
X012762D01*
Y032971D01*
X013367D01*
X0134Y032921D01*
X013385Y032883D01*
X013374Y0328D01*
X013385Y032717D01*
X013417Y03264D01*
X013468Y032574D01*
X013534Y032523D01*
X013535Y032521D01*
X013489Y032452D01*
X013482Y032417D01*
X014537D01*
X01453Y032452D01*
X014484Y032521D01*
X014485Y032523D01*
X014551Y032574D01*
X014602Y03264D01*
X014634Y032717D01*
X014645Y0328D01*
X014634Y032883D01*
X014602Y032961D01*
X014559Y033017D01*
X014602Y033073D01*
X014634Y03315D01*
X014645Y033233D01*
X014634Y033317D01*
X014602Y033394D01*
X014551Y03346D01*
X014485Y033511D01*
X014484Y033513D01*
X01453Y033581D01*
X014537Y033617D01*
X013482D01*
X013489Y033581D01*
X013513Y033546D01*
X013486Y033496D01*
X012762D01*
Y033827D01*
D02*
G37*
G36*
X010279Y032274D02*
X01011D01*
X010117Y032236D01*
X010167Y032161D01*
X010241Y032112D01*
X010279Y032104D01*
Y032274D01*
D02*
G37*
G36*
X014537Y032317D02*
X013482D01*
X013489Y032282D01*
X013537Y03221D01*
X013581Y032181D01*
Y032121D01*
X013537Y032092D01*
X013489Y032019D01*
X013482Y031984D01*
X014537D01*
X01453Y032019D01*
X014482Y032092D01*
X014438Y032121D01*
Y032181D01*
X014482Y03221D01*
X01453Y032282D01*
X014537Y032317D01*
D02*
G37*
G36*
X013203Y03215D02*
Y03198D01*
X013372D01*
X013365Y032018D01*
X013315Y032093D01*
X013241Y032142D01*
X013203Y03215D01*
D02*
G37*
G36*
X011606Y032096D02*
X011568Y032089D01*
X011494Y032039D01*
X011444Y031965D01*
X011436Y031927D01*
X011606D01*
Y032096D01*
D02*
G37*
G36*
X010426Y031724D02*
X010256D01*
X010264Y031686D01*
X010313Y031612D01*
X010388Y031562D01*
X010426Y031555D01*
Y031724D01*
D02*
G37*
G36*
X010711Y031314D02*
X010542D01*
X010549Y031276D01*
X010599Y031202D01*
X010674Y031152D01*
X010711Y031145D01*
Y031314D01*
D02*
G37*
G36*
X011522Y031049D02*
X011353D01*
X01136Y031011D01*
X011372Y030994D01*
X01141Y030936D01*
X011485Y030887D01*
X011522Y030879D01*
Y031049D01*
D02*
G37*
G36*
X014537Y031018D02*
X014059D01*
Y030846D01*
X014324D01*
X01441Y030863D01*
X014482Y030911D01*
X01453Y030983D01*
X014537Y031018D01*
D02*
G37*
G36*
X01955Y030346D02*
Y03005D01*
X019846D01*
X019841Y030091D01*
X019806Y030177D01*
X01975Y03025D01*
X019677Y030306D01*
X019591Y030341D01*
X01955Y030346D01*
D02*
G37*
G36*
X01355D02*
Y03005D01*
X013846D01*
X013841Y030091D01*
X013806Y030177D01*
X01375Y03025D01*
X013677Y030306D01*
X013591Y030341D01*
X01355Y030346D01*
D02*
G37*
G36*
X01345D02*
X013409Y030341D01*
X013323Y030306D01*
X01325Y03025D01*
X013194Y030177D01*
X013159Y030091D01*
X013154Y03005D01*
X01345D01*
Y030346D01*
D02*
G37*
G36*
X01205D02*
Y03005D01*
X012346D01*
X012341Y030091D01*
X012306Y030177D01*
X01225Y03025D01*
X012177Y030306D01*
X012091Y030341D01*
X01205Y030346D01*
D02*
G37*
G36*
X01195D02*
X011909Y030341D01*
X011823Y030306D01*
X01175Y03025D01*
X011694Y030177D01*
X011659Y030091D01*
X011654Y03005D01*
X01195D01*
Y030346D01*
D02*
G37*
G36*
X01055D02*
Y03005D01*
X010846D01*
X010841Y030091D01*
X010806Y030177D01*
X01075Y03025D01*
X010677Y030306D01*
X010591Y030341D01*
X01055Y030346D01*
D02*
G37*
G36*
X01045D02*
X010409Y030341D01*
X010323Y030306D01*
X01025Y03025D01*
X010194Y030177D01*
X010159Y030091D01*
X010154Y03005D01*
X01045D01*
Y030346D01*
D02*
G37*
G36*
X019846Y02995D02*
X01955D01*
Y029654D01*
X019591Y029659D01*
X019677Y029694D01*
X01975Y02975D01*
X019806Y029823D01*
X019841Y029909D01*
X019846Y02995D01*
D02*
G37*
G36*
X020718Y03405D02*
X019663D01*
X01967Y034014D01*
X019716Y033946D01*
X019715Y033944D01*
X019649Y033893D01*
X019598Y033827D01*
X019566Y03375D01*
X019555Y033667D01*
X019566Y033583D01*
X019598Y033506D01*
X019641Y03345D01*
X019598Y033394D01*
X019566Y033317D01*
X019555Y033233D01*
X019566Y03315D01*
X019598Y033073D01*
X019641Y033017D01*
X019598Y032961D01*
X019566Y032883D01*
X019555Y0328D01*
X019566Y032717D01*
X019598Y03264D01*
X019641Y032584D01*
X019598Y032528D01*
X019566Y03245D01*
X019555Y032367D01*
X019566Y032284D01*
X019598Y032207D01*
X019641Y032151D01*
X019598Y032095D01*
X019566Y032017D01*
X019555Y031934D01*
X019566Y031851D01*
X019598Y031774D01*
X019641Y031718D01*
X019598Y031662D01*
X019566Y031584D01*
X019555Y031501D01*
X019566Y031418D01*
X019598Y031341D01*
X019641Y031285D01*
X019598Y031229D01*
X019566Y031151D01*
X019555Y031068D01*
X019566Y030985D01*
X019598Y030908D01*
X019649Y030841D01*
X019715Y03079D01*
X019793Y030758D01*
X019876Y030747D01*
X020106D01*
Y029475D01*
X020116Y029397D01*
X020146Y029324D01*
X020194Y029262D01*
X020209Y029247D01*
X020196Y02915D01*
X020212Y029033D01*
X020245Y028951D01*
X020214Y028901D01*
X019093D01*
X018707Y029287D01*
X018709Y029329D01*
X018747Y029361D01*
X01875Y02936D01*
X018832Y02935D01*
X018915Y029361D01*
X018993Y029393D01*
X019059Y029444D01*
X01911Y02951D01*
X019142Y029587D01*
X019153Y02967D01*
Y029799D01*
X019203Y029812D01*
X01925Y02975D01*
X019323Y029694D01*
X019409Y029659D01*
X01945Y029654D01*
Y03D01*
Y030346D01*
X019409Y030341D01*
X019323Y030306D01*
X01925Y03025D01*
X019203Y030188D01*
X019153Y030201D01*
Y0303D01*
X019142Y030383D01*
X01911Y030461D01*
X019059Y030527D01*
X018993Y030578D01*
X018915Y03061D01*
X018832Y030621D01*
X018749Y03061D01*
X018672Y030578D01*
X018616Y030535D01*
X01856Y030578D01*
X018482Y03061D01*
X018399Y030621D01*
X018316Y03061D01*
X018239Y030578D01*
X018183Y030535D01*
X018127Y030578D01*
X018049Y03061D01*
X017966Y030621D01*
X017883Y03061D01*
X017806Y030578D01*
X01775Y030535D01*
X017694Y030578D01*
X017616Y03061D01*
X017533Y030621D01*
X01745Y03061D01*
X017373Y030578D01*
X017317Y030535D01*
X01726Y030578D01*
X017183Y03061D01*
X0171Y030621D01*
X017017Y03061D01*
X01694Y030578D01*
X016873Y030527D01*
X016822Y030461D01*
X01682Y03046D01*
X016752Y030506D01*
X016717Y030513D01*
Y029985D01*
Y029458D01*
X016752Y029465D01*
X01682Y029511D01*
X016822Y02951D01*
X016873Y029444D01*
X01694Y029393D01*
X017017Y029361D01*
X0171Y02935D01*
X017182Y02936D01*
X017193Y029361D01*
X017232Y02933D01*
Y029066D01*
X01721Y029025D01*
X017182Y029025D01*
X01686D01*
Y02865D01*
X01721D01*
Y028856D01*
X01726Y028866D01*
X017272Y028836D01*
X01732Y028773D01*
X017749Y028345D01*
Y028225D01*
X0176D01*
Y027175D01*
X0185D01*
Y028225D01*
X018351D01*
Y028469D01*
X018341Y028547D01*
X018311Y02862D01*
X018263Y028682D01*
X017834Y029111D01*
Y02933D01*
X017873Y029361D01*
X017884Y02936D01*
X017966Y02935D01*
X018048Y02936D01*
X018059Y029361D01*
X018098Y02933D01*
Y029169D01*
X018108Y029091D01*
X018139Y029019D01*
X018186Y028956D01*
X018755Y028387D01*
X018818Y028339D01*
X01889Y028309D01*
X018968Y028299D01*
X02145D01*
X021528Y028309D01*
X0216Y028339D01*
X021663Y028387D01*
X021875Y028599D01*
X0219Y028596D01*
X022017Y028612D01*
X022127Y028657D01*
X022221Y028729D01*
X022293Y028823D01*
X022338Y028933D01*
X022354Y02905D01*
X022338Y029167D01*
X022293Y029277D01*
X022221Y029371D01*
X022127Y029443D01*
X022017Y029488D01*
X0219Y029504D01*
X021783Y029488D01*
X021673Y029443D01*
X021579Y029371D01*
X021507Y029277D01*
X021462Y029167D01*
X021446Y02905D01*
X021449Y029025D01*
X021325Y028901D01*
X021086D01*
X021055Y028951D01*
X021088Y029033D01*
X021104Y02915D01*
X021088Y029267D01*
X021043Y029377D01*
X020971Y029471D01*
X020877Y029543D01*
X020767Y029588D01*
X020712Y029596D01*
X020708Y0296D01*
Y029694D01*
X020755Y02971D01*
X020779Y029679D01*
X020873Y029607D01*
X020983Y029562D01*
X0211Y029546D01*
X021217Y029562D01*
X021327Y029607D01*
X021421Y029679D01*
X021493Y029773D01*
X021538Y029883D01*
X021554Y03D01*
X021538Y030117D01*
X021493Y030227D01*
X021421Y030321D01*
X021401Y030336D01*
Y031275D01*
X021391Y031353D01*
X021361Y031425D01*
X021313Y031488D01*
X021087Y031714D01*
X021024Y031762D01*
X020952Y031792D01*
X020874Y031802D01*
X020846D01*
X020815Y031842D01*
X020816Y031852D01*
X020826Y031934D01*
X020815Y032017D01*
X020783Y032095D01*
X02074Y032151D01*
X020783Y032207D01*
X020815Y032284D01*
X020826Y032367D01*
X020815Y03245D01*
X020783Y032528D01*
X02074Y032584D01*
X020783Y03264D01*
X020815Y032717D01*
X020826Y0328D01*
X020815Y032883D01*
X020783Y032961D01*
X02074Y033017D01*
X020783Y033073D01*
X020815Y03315D01*
X020826Y033233D01*
X020815Y033317D01*
X020783Y033394D01*
X02074Y03345D01*
X020783Y033506D01*
X020815Y033583D01*
X020826Y033667D01*
X020815Y03375D01*
X020783Y033827D01*
X020732Y033893D01*
X020666Y033944D01*
X020665Y033946D01*
X020711Y034014D01*
X020718Y03405D01*
D02*
G37*
G36*
X013846Y02995D02*
X01355D01*
Y029654D01*
X013591Y029659D01*
X013677Y029694D01*
X01375Y02975D01*
X013806Y029823D01*
X013841Y029909D01*
X013846Y02995D01*
D02*
G37*
G36*
X01345D02*
X013154D01*
X013159Y029909D01*
X013194Y029823D01*
X01325Y02975D01*
X013323Y029694D01*
X013409Y029659D01*
X01345Y029654D01*
Y02995D01*
D02*
G37*
G36*
X012346D02*
X01205D01*
Y029654D01*
X012091Y029659D01*
X012177Y029694D01*
X01225Y02975D01*
X012306Y029823D01*
X012341Y029909D01*
X012346Y02995D01*
D02*
G37*
G36*
X01195D02*
X011654D01*
X011659Y029909D01*
X011694Y029823D01*
X01175Y02975D01*
X011823Y029694D01*
X011909Y029659D01*
X01195Y029654D01*
Y02995D01*
D02*
G37*
G36*
X010846D02*
X01055D01*
Y029654D01*
X010591Y029659D01*
X010677Y029694D01*
X01075Y02975D01*
X010806Y029823D01*
X010841Y029909D01*
X010846Y02995D01*
D02*
G37*
G36*
X01045D02*
X010154D01*
X010159Y029909D01*
X010194Y029823D01*
X01025Y02975D01*
X010323Y029694D01*
X010409Y029659D01*
X01045Y029654D01*
Y02995D01*
D02*
G37*
G36*
X016284Y030513D02*
Y029985D01*
Y029458D01*
X016319Y029465D01*
X016391Y029513D01*
X01642Y029557D01*
X01648D01*
X01651Y029513D01*
X016582Y029465D01*
X016617Y029458D01*
Y029985D01*
Y030513D01*
X016582Y030506D01*
X01651Y030458D01*
X01648Y030414D01*
X01642D01*
X016391Y030458D01*
X016319Y030506D01*
X016284Y030513D01*
D02*
G37*
G36*
X01676Y029025D02*
X01641D01*
Y02865D01*
X01676D01*
Y029025D01*
D02*
G37*
G36*
X0143Y028846D02*
Y02855D01*
X014596D01*
X014591Y028591D01*
X014556Y028677D01*
X0145Y02875D01*
X014427Y028806D01*
X014341Y028841D01*
X0143Y028846D01*
D02*
G37*
G36*
X0142D02*
X014159Y028841D01*
X014073Y028806D01*
X014Y02875D01*
X013944Y028677D01*
X013909Y028591D01*
X013904Y02855D01*
X0142D01*
Y028846D01*
D02*
G37*
G36*
X0128D02*
Y02855D01*
X013096D01*
X013091Y028591D01*
X013056Y028677D01*
X013Y02875D01*
X012927Y028806D01*
X012841Y028841D01*
X0128Y028846D01*
D02*
G37*
G36*
X0127D02*
X012659Y028841D01*
X012573Y028806D01*
X0125Y02875D01*
X012444Y028677D01*
X012409Y028591D01*
X012404Y02855D01*
X0127D01*
Y028846D01*
D02*
G37*
G36*
X0113D02*
Y02855D01*
X011596D01*
X011591Y028591D01*
X011556Y028677D01*
X0115Y02875D01*
X011427Y028806D01*
X011341Y028841D01*
X0113Y028846D01*
D02*
G37*
G36*
X0112D02*
X011159Y028841D01*
X011073Y028806D01*
X011Y02875D01*
X010944Y028677D01*
X010909Y028591D01*
X010904Y02855D01*
X0112D01*
Y028846D01*
D02*
G37*
G36*
X01721Y02855D02*
X01686D01*
Y028175D01*
X01721D01*
Y02855D01*
D02*
G37*
G36*
X01676D02*
X01641D01*
Y028175D01*
X01676D01*
Y02855D01*
D02*
G37*
G36*
X014596Y02845D02*
X0143D01*
Y028154D01*
X014341Y028159D01*
X014427Y028194D01*
X0145Y02825D01*
X014556Y028323D01*
X014591Y028409D01*
X014596Y02845D01*
D02*
G37*
G36*
X0142D02*
X013904D01*
X013909Y028409D01*
X013944Y028323D01*
X014Y02825D01*
X014073Y028194D01*
X014159Y028159D01*
X0142Y028154D01*
Y02845D01*
D02*
G37*
G36*
X013096D02*
X0128D01*
Y028154D01*
X012841Y028159D01*
X012927Y028194D01*
X013Y02825D01*
X013056Y028323D01*
X013091Y028409D01*
X013096Y02845D01*
D02*
G37*
G36*
X0127D02*
X012404D01*
X012409Y028409D01*
X012444Y028323D01*
X0125Y02825D01*
X012573Y028194D01*
X012659Y028159D01*
X0127Y028154D01*
Y02845D01*
D02*
G37*
G36*
X011596D02*
X0113D01*
Y028154D01*
X011341Y028159D01*
X011427Y028194D01*
X0115Y02825D01*
X011556Y028323D01*
X011591Y028409D01*
X011596Y02845D01*
D02*
G37*
G36*
X0112D02*
X010904D01*
X010909Y028409D01*
X010944Y028323D01*
X011Y02825D01*
X011073Y028194D01*
X011159Y028159D01*
X0112Y028154D01*
Y02845D01*
D02*
G37*
G36*
X0197Y028125D02*
X0194D01*
Y02775D01*
X0197D01*
Y028125D01*
D02*
G37*
G36*
X0193D02*
X019D01*
Y02775D01*
X0193D01*
Y028125D01*
D02*
G37*
G36*
X01726Y028125D02*
X01691D01*
Y02775D01*
X01726D01*
Y028125D01*
D02*
G37*
G36*
X01681D02*
X01646D01*
Y02775D01*
X01681D01*
Y028125D01*
D02*
G37*
G36*
X01726Y02765D02*
X01691D01*
Y027275D01*
X01726D01*
Y02765D01*
D02*
G37*
G36*
X01681D02*
X01646D01*
Y027275D01*
X01681D01*
Y02765D01*
D02*
G37*
G36*
X0197Y02765D02*
X01935D01*
X019D01*
Y027275D01*
X019207D01*
X019231Y027225D01*
X019194Y027177D01*
X019159Y027091D01*
X019154Y02705D01*
X019846D01*
X019841Y027091D01*
X019806Y027177D01*
X01975Y02725D01*
X0197Y027288D01*
Y02765D01*
D02*
G37*
G36*
X01355Y027346D02*
Y02705D01*
X013846D01*
X013841Y027091D01*
X013806Y027177D01*
X01375Y02725D01*
X013677Y027306D01*
X013591Y027341D01*
X01355Y027346D01*
D02*
G37*
G36*
X01345D02*
X013409Y027341D01*
X013323Y027306D01*
X01325Y02725D01*
X013194Y027177D01*
X013159Y027091D01*
X013154Y02705D01*
X01345D01*
Y027346D01*
D02*
G37*
G36*
X01205D02*
Y02705D01*
X012346D01*
X012341Y027091D01*
X012306Y027177D01*
X01225Y02725D01*
X012177Y027306D01*
X012091Y027341D01*
X01205Y027346D01*
D02*
G37*
G36*
X01195D02*
X011909Y027341D01*
X011823Y027306D01*
X01175Y02725D01*
X011694Y027177D01*
X011659Y027091D01*
X011654Y02705D01*
X01195D01*
Y027346D01*
D02*
G37*
G36*
X01055D02*
Y02705D01*
X010846D01*
X010841Y027091D01*
X010806Y027177D01*
X01075Y02725D01*
X010677Y027306D01*
X010591Y027341D01*
X01055Y027346D01*
D02*
G37*
G36*
X01045D02*
X010409Y027341D01*
X010323Y027306D01*
X01025Y02725D01*
X010194Y027177D01*
X010159Y027091D01*
X010154Y02705D01*
X01045D01*
Y027346D01*
D02*
G37*
G36*
X019846Y02695D02*
X01955D01*
Y026654D01*
X019591Y026659D01*
X019677Y026694D01*
X01975Y02675D01*
X019806Y026823D01*
X019841Y026909D01*
X019846Y02695D01*
D02*
G37*
G36*
X01945D02*
X019154D01*
X019159Y026909D01*
X019194Y026823D01*
X01925Y02675D01*
X019323Y026694D01*
X019409Y026659D01*
X01945Y026654D01*
Y02695D01*
D02*
G37*
G36*
X013846D02*
X01355D01*
Y026654D01*
X013591Y026659D01*
X013677Y026694D01*
X01375Y02675D01*
X013806Y026823D01*
X013841Y026909D01*
X013846Y02695D01*
D02*
G37*
G36*
X01345D02*
X013154D01*
X013159Y026909D01*
X013194Y026823D01*
X01325Y02675D01*
X013323Y026694D01*
X013409Y026659D01*
X01345Y026654D01*
Y02695D01*
D02*
G37*
G36*
X012346D02*
X01205D01*
Y026654D01*
X012091Y026659D01*
X012177Y026694D01*
X01225Y02675D01*
X012306Y026823D01*
X012341Y026909D01*
X012346Y02695D01*
D02*
G37*
G36*
X01195D02*
X011654D01*
X011659Y026909D01*
X011694Y026823D01*
X01175Y02675D01*
X011823Y026694D01*
X011909Y026659D01*
X01195Y026654D01*
Y02695D01*
D02*
G37*
G36*
X010846D02*
X01055D01*
Y026654D01*
X010591Y026659D01*
X010677Y026694D01*
X01075Y02675D01*
X010806Y026823D01*
X010841Y026909D01*
X010846Y02695D01*
D02*
G37*
G36*
X01045D02*
X010154D01*
X010159Y026909D01*
X010194Y026823D01*
X01025Y02675D01*
X010323Y026694D01*
X010409Y026659D01*
X01045Y026654D01*
Y02695D01*
D02*
G37*
G36*
X018164Y026833D02*
X017602D01*
Y02635D01*
X018164D01*
Y026833D01*
D02*
G37*
G36*
X017502D02*
X01694D01*
Y02635D01*
X017502D01*
Y026833D01*
D02*
G37*
G36*
X0187Y025846D02*
X018659Y025841D01*
X018573Y025806D01*
X0185Y02575D01*
X018444Y025677D01*
X018409Y025591D01*
X018404Y02555D01*
X0187D01*
Y025846D01*
D02*
G37*
G36*
X018164Y02625D02*
X01694D01*
Y025767D01*
X016951D01*
X016975Y025717D01*
X016944Y025677D01*
X016909Y025591D01*
X016904Y02555D01*
X017596D01*
X017591Y025591D01*
X017556Y025677D01*
X017525Y025717D01*
X017549Y025767D01*
X018164D01*
Y02625D01*
D02*
G37*
G36*
X0143Y025846D02*
Y02555D01*
X014596D01*
X014591Y025591D01*
X014556Y025677D01*
X0145Y02575D01*
X014427Y025806D01*
X014341Y025841D01*
X0143Y025846D01*
D02*
G37*
G36*
X0142D02*
X014159Y025841D01*
X014073Y025806D01*
X014Y02575D01*
X013944Y025677D01*
X013909Y025591D01*
X013904Y02555D01*
X0142D01*
Y025846D01*
D02*
G37*
G36*
X0128D02*
Y02555D01*
X013096D01*
X013091Y025591D01*
X013056Y025677D01*
X013Y02575D01*
X012927Y025806D01*
X012841Y025841D01*
X0128Y025846D01*
D02*
G37*
G36*
X0127D02*
X012659Y025841D01*
X012573Y025806D01*
X0125Y02575D01*
X012444Y025677D01*
X012409Y025591D01*
X012404Y02555D01*
X0127D01*
Y025846D01*
D02*
G37*
G36*
X0113D02*
Y02555D01*
X011596D01*
X011591Y025591D01*
X011556Y025677D01*
X0115Y02575D01*
X011427Y025806D01*
X011341Y025841D01*
X0113Y025846D01*
D02*
G37*
G36*
X0112D02*
X011159Y025841D01*
X011073Y025806D01*
X011Y02575D01*
X010944Y025677D01*
X010909Y025591D01*
X010904Y02555D01*
X0112D01*
Y025846D01*
D02*
G37*
G36*
X0187Y02545D02*
X018404D01*
X018409Y025409D01*
X018444Y025323D01*
X0185Y02525D01*
X018573Y025194D01*
X018659Y025159D01*
X0187Y025154D01*
Y02545D01*
D02*
G37*
G36*
X017596D02*
X0173D01*
Y025154D01*
X017341Y025159D01*
X017427Y025194D01*
X0175Y02525D01*
X017556Y025323D01*
X017591Y025409D01*
X017596Y02545D01*
D02*
G37*
G36*
X0172D02*
X016904D01*
X016909Y025409D01*
X016944Y025323D01*
X017Y02525D01*
X017073Y025194D01*
X017159Y025159D01*
X0172Y025154D01*
Y02545D01*
D02*
G37*
G36*
X014596D02*
X0143D01*
Y025154D01*
X014341Y025159D01*
X014427Y025194D01*
X0145Y02525D01*
X014556Y025323D01*
X014591Y025409D01*
X014596Y02545D01*
D02*
G37*
G36*
X0142D02*
X013904D01*
X013909Y025409D01*
X013944Y025323D01*
X014Y02525D01*
X014073Y025194D01*
X014159Y025159D01*
X0142Y025154D01*
Y02545D01*
D02*
G37*
G36*
X013096D02*
X0128D01*
Y025154D01*
X012841Y025159D01*
X012927Y025194D01*
X013Y02525D01*
X013056Y025323D01*
X013091Y025409D01*
X013096Y02545D01*
D02*
G37*
G36*
X0127D02*
X012404D01*
X012409Y025409D01*
X012444Y025323D01*
X0125Y02525D01*
X012573Y025194D01*
X012659Y025159D01*
X0127Y025154D01*
Y02545D01*
D02*
G37*
G36*
X011596D02*
X0113D01*
Y025154D01*
X011341Y025159D01*
X011427Y025194D01*
X0115Y02525D01*
X011556Y025323D01*
X011591Y025409D01*
X011596Y02545D01*
D02*
G37*
G36*
X0112D02*
X010904D01*
X010909Y025409D01*
X010944Y025323D01*
X011Y02525D01*
X011073Y025194D01*
X011159Y025159D01*
X0112Y025154D01*
Y02545D01*
D02*
G37*
G36*
X016766Y025425D02*
X0165D01*
Y0251D01*
X016766D01*
Y025425D01*
D02*
G37*
G36*
X0164D02*
X016133D01*
Y0251D01*
X0164D01*
Y025425D01*
D02*
G37*
G36*
X016766Y025D02*
X0165D01*
Y024675D01*
X016766D01*
Y025D01*
D02*
G37*
G36*
X0164D02*
X016133D01*
Y024675D01*
X0164D01*
Y025D01*
D02*
G37*
G36*
X017042Y024579D02*
X016717D01*
Y024312D01*
X017042D01*
Y024579D01*
D02*
G37*
G36*
X016617D02*
X016292D01*
Y024312D01*
X016617D01*
Y024579D01*
D02*
G37*
G36*
X01355Y024346D02*
Y02405D01*
X013846D01*
X013841Y024091D01*
X013806Y024177D01*
X01375Y02425D01*
X013677Y024306D01*
X013591Y024341D01*
X01355Y024346D01*
D02*
G37*
G36*
X01345D02*
X013409Y024341D01*
X013323Y024306D01*
X01325Y02425D01*
X013194Y024177D01*
X013159Y024091D01*
X013154Y02405D01*
X01345D01*
Y024346D01*
D02*
G37*
G36*
X01205D02*
Y02405D01*
X012346D01*
X012341Y024091D01*
X012306Y024177D01*
X01225Y02425D01*
X012177Y024306D01*
X012091Y024341D01*
X01205Y024346D01*
D02*
G37*
G36*
X01195D02*
X011909Y024341D01*
X011823Y024306D01*
X01175Y02425D01*
X011694Y024177D01*
X011659Y024091D01*
X011654Y02405D01*
X01195D01*
Y024346D01*
D02*
G37*
G36*
X01055D02*
Y02405D01*
X010846D01*
X010841Y024091D01*
X010806Y024177D01*
X01075Y02425D01*
X010677Y024306D01*
X010591Y024341D01*
X01055Y024346D01*
D02*
G37*
G36*
X01045D02*
X010409Y024341D01*
X010323Y024306D01*
X01025Y02425D01*
X010194Y024177D01*
X010159Y024091D01*
X010154Y02405D01*
X01045D01*
Y024346D01*
D02*
G37*
G36*
X013846Y02395D02*
X01355D01*
Y023654D01*
X013591Y023659D01*
X013677Y023694D01*
X01375Y02375D01*
X013806Y023823D01*
X013841Y023909D01*
X013846Y02395D01*
D02*
G37*
G36*
X01345D02*
X013154D01*
X013159Y023909D01*
X013194Y023823D01*
X01325Y02375D01*
X013323Y023694D01*
X013409Y023659D01*
X01345Y023654D01*
Y02395D01*
D02*
G37*
G36*
X012346D02*
X01205D01*
Y023654D01*
X012091Y023659D01*
X012177Y023694D01*
X01225Y02375D01*
X012306Y023823D01*
X012341Y023909D01*
X012346Y02395D01*
D02*
G37*
G36*
X01195D02*
X011654D01*
X011659Y023909D01*
X011694Y023823D01*
X01175Y02375D01*
X011823Y023694D01*
X011909Y023659D01*
X01195Y023654D01*
Y02395D01*
D02*
G37*
G36*
X010846D02*
X01055D01*
Y023654D01*
X010591Y023659D01*
X010677Y023694D01*
X01075Y02375D01*
X010806Y023823D01*
X010841Y023909D01*
X010846Y02395D01*
D02*
G37*
G36*
X01045D02*
X010154D01*
X010159Y023909D01*
X010194Y023823D01*
X01025Y02375D01*
X010323Y023694D01*
X010409Y023659D01*
X01045Y023654D01*
Y02395D01*
D02*
G37*
G36*
X033719Y045661D02*
Y04515D01*
X034098D01*
X034091Y045218D01*
X034057Y045331D01*
X034001Y045435D01*
X033926Y045526D01*
X033835Y045601D01*
X033731Y045657D01*
X033719Y045661D01*
D02*
G37*
G36*
X034098Y04505D02*
X03325D01*
Y044497D01*
X0335D01*
X033618Y044509D01*
X033731Y044543D01*
X033835Y044599D01*
X033926Y044674D01*
X034001Y044765D01*
X034057Y044869D01*
X034091Y044982D01*
X034098Y04505D01*
D02*
G37*
G36*
X0326D02*
X032302D01*
X032309Y044982D01*
X032343Y044869D01*
X032399Y044765D01*
X032474Y044674D01*
X032565Y044599D01*
X032669Y044543D01*
X032782Y044509D01*
X0329Y044497D01*
X03315D01*
Y045D01*
X0329Y04475D01*
X0326Y04505D01*
D02*
G37*
G36*
X0268Y044635D02*
X02674Y044589D01*
X026663Y04449D01*
X026616Y044374D01*
X026606Y0443D01*
X0268D01*
Y044635D01*
D02*
G37*
G36*
Y0442D02*
X026606D01*
X026616Y044126D01*
X026663Y04401D01*
X02674Y043911D01*
X026767Y04389D01*
X026744Y043845D01*
X026704Y043857D01*
X026586Y043869D01*
X026469Y043857D01*
X026356Y043823D01*
X026251Y043767D01*
X02616Y043692D01*
X026085Y043601D01*
X026029Y043496D01*
X025995Y043383D01*
X025983Y043266D01*
X025995Y043148D01*
X026029Y043035D01*
X026085Y042931D01*
X02616Y042839D01*
X026251Y042764D01*
X026356Y042709D01*
X026469Y042674D01*
X026586Y042663D01*
X026704Y042674D01*
X026817Y042709D01*
X026921Y042764D01*
X027013Y042839D01*
X027088Y042931D01*
X027143Y043035D01*
X027178Y043148D01*
X027189Y043266D01*
X027178Y043383D01*
X027143Y043496D01*
X027088Y043601D01*
X027013Y043692D01*
X026959Y043736D01*
X026979Y043784D01*
X027028Y043777D01*
Y043902D01*
X0268Y044131D01*
Y0442D01*
D02*
G37*
G36*
X027128Y043802D02*
Y043777D01*
X02715Y04378D01*
X027128Y043802D01*
D02*
G37*
G36*
X03125Y044498D02*
Y04365D01*
X031803D01*
Y0439D01*
X031791Y044018D01*
X031757Y044131D01*
X031701Y044235D01*
X031626Y044326D01*
X031535Y044401D01*
X031431Y044457D01*
X031318Y044491D01*
X03125Y044498D01*
D02*
G37*
G36*
X03115D02*
X031082Y044491D01*
X030969Y044457D01*
X030865Y044401D01*
X030774Y044326D01*
X030699Y044235D01*
X030643Y044131D01*
X030609Y044018D01*
X030597Y0439D01*
Y04365D01*
X03115D01*
Y044498D01*
D02*
G37*
G36*
Y04355D02*
X030597D01*
Y0433D01*
X030609Y043182D01*
X030643Y043069D01*
X030699Y042965D01*
X030774Y042874D01*
X030865Y042799D01*
X030969Y042743D01*
X031082Y042709D01*
X03115Y042702D01*
Y04355D01*
D02*
G37*
G36*
X031803D02*
X03125D01*
Y042702D01*
X031318Y042709D01*
X031431Y042743D01*
X031535Y042799D01*
X031626Y042874D01*
X031701Y042965D01*
X031757Y043069D01*
X031791Y043182D01*
X031803Y0433D01*
Y04355D01*
D02*
G37*
G36*
X02885Y04483D02*
X0287Y04481D01*
X02856Y044752D01*
X02844Y04466D01*
X028348Y04454D01*
X02829Y0444D01*
X02827Y04425D01*
X02829Y0441D01*
X028348Y04396D01*
X02844Y04384D01*
X02856Y043748D01*
X0287Y04369D01*
X028835Y043672D01*
X028861Y043625D01*
X028841Y043601D01*
X028785Y043496D01*
X028751Y043383D01*
X028739Y043266D01*
X028751Y043148D01*
X028785Y043035D01*
X028841Y042931D01*
X028916Y042839D01*
X029007Y042764D01*
X029111Y042709D01*
X029225Y042674D01*
X029342Y042663D01*
X02946Y042674D01*
X029573Y042709D01*
X029677Y042764D01*
X029768Y042839D01*
X029843Y042931D01*
X029899Y043035D01*
X029933Y043148D01*
X029945Y043266D01*
X029933Y043383D01*
X029899Y043496D01*
X029843Y043601D01*
X029768Y043692D01*
X029677Y043767D01*
X029573Y043823D01*
X02946Y043857D01*
X029345Y043868D01*
X029329Y043887D01*
X029316Y043912D01*
X029352Y04396D01*
X02941Y0441D01*
X02943Y04425D01*
X02941Y0444D01*
X029352Y04454D01*
X02926Y04466D01*
X02914Y044752D01*
X029Y04481D01*
X02885Y04483D01*
D02*
G37*
G36*
X03195Y040992D02*
X031897Y040985D01*
X031801Y040945D01*
X031718Y040882D01*
X031655Y040799D01*
X031615Y040703D01*
X031608Y04065D01*
X03195D01*
Y040992D01*
D02*
G37*
G36*
Y04055D02*
X031608D01*
X031615Y040497D01*
X031655Y040401D01*
X031718Y040318D01*
X031801Y040255D01*
X031897Y040215D01*
X03195Y040208D01*
Y04055D01*
D02*
G37*
G36*
X0234Y039791D02*
X02337D01*
Y039466D01*
X0234D01*
Y039791D01*
D02*
G37*
G36*
Y039366D02*
X02337D01*
Y039041D01*
X0234D01*
Y039366D01*
D02*
G37*
G36*
X027078Y036428D02*
X027012Y036362D01*
X027078D01*
Y036428D01*
D02*
G37*
G36*
X0315Y0362D02*
X031425D01*
Y036103D01*
X0315D01*
Y0362D01*
D02*
G37*
G36*
X032225Y03586D02*
X03215D01*
Y03585D01*
X032225D01*
Y03586D01*
D02*
G37*
G36*
X0315D02*
X031475D01*
Y035594D01*
X0315D01*
Y03586D01*
D02*
G37*
G36*
Y035494D02*
X031475D01*
Y035227D01*
X0318D01*
Y03535D01*
X03155D01*
X0315Y0354D01*
Y035494D01*
D02*
G37*
G36*
X027379Y036262D02*
X026912D01*
X026306Y035656D01*
Y034375D01*
X02575D01*
Y034239D01*
X026487D01*
X026661Y034257D01*
X026829Y034307D01*
X026983Y03439D01*
X027118Y034501D01*
X027229Y034636D01*
X027311Y03479D01*
X027362Y034957D01*
X027379Y035131D01*
Y036262D01*
D02*
G37*
G36*
X02565Y034375D02*
X024472D01*
X024462Y034365D01*
X024571Y034307D01*
X024739Y034257D01*
X024913Y034239D01*
X02565D01*
Y034375D01*
D02*
G37*
G36*
X0253Y030349D02*
X025183Y030338D01*
X025023Y030289D01*
X024875Y03021D01*
X024746Y030104D01*
X024665Y030005D01*
X024666Y030003D01*
Y029985D01*
X0253D01*
Y030349D01*
D02*
G37*
G36*
X0254D02*
Y029985D01*
X025585D01*
X0257Y0301D01*
X025891Y029909D01*
X026095D01*
X02606Y029975D01*
X025954Y030104D01*
X025825Y03021D01*
X025677Y030289D01*
X025517Y030338D01*
X0254Y030349D01*
D02*
G37*
G36*
X02615Y029791D02*
Y02955D01*
X026199D01*
X026188Y029667D01*
X02615Y029791D01*
D02*
G37*
G36*
X026199Y02945D02*
X02615D01*
Y029209D01*
X026188Y029333D01*
X026199Y02945D01*
D02*
G37*
G36*
X033908Y031843D02*
Y031546D01*
X034205D01*
X034199Y031587D01*
X034164Y031673D01*
X034108Y031746D01*
X034035Y031802D01*
X03395Y031837D01*
X033908Y031843D01*
D02*
G37*
G36*
X033808D02*
X033767Y031837D01*
X033682Y031802D01*
X033609Y031746D01*
X033553Y031673D01*
X033517Y031587D01*
X033512Y031546D01*
X033808D01*
Y031843D01*
D02*
G37*
G36*
X034205Y031446D02*
X033908D01*
Y03115D01*
X03395Y031155D01*
X034035Y03119D01*
X034108Y031246D01*
X034164Y03132D01*
X034199Y031405D01*
X034205Y031446D01*
D02*
G37*
G36*
X033808D02*
X033512D01*
X033517Y031405D01*
X033553Y03132D01*
X033609Y031246D01*
X033682Y03119D01*
X033767Y031155D01*
X033808Y03115D01*
Y031446D01*
D02*
G37*
G36*
X0334Y030492D02*
Y03015D01*
X033742D01*
X033735Y030203D01*
X033695Y030299D01*
X033632Y030382D01*
X033549Y030445D01*
X033453Y030485D01*
X0334Y030492D01*
D02*
G37*
G36*
X033742Y03005D02*
X0334D01*
Y029708D01*
X033453Y029715D01*
X033549Y029755D01*
X033632Y029818D01*
X033695Y029901D01*
X033735Y029997D01*
X033742Y03005D01*
D02*
G37*
G36*
X027248Y021263D02*
X0271D01*
Y020938D01*
X027248D01*
Y021263D01*
D02*
G37*
G36*
X02496Y020729D02*
X024694D01*
Y0206D01*
X02496D01*
Y020729D01*
D02*
G37*
G36*
X027248Y020838D02*
X0271D01*
Y020513D01*
X027248D01*
Y020838D01*
D02*
G37*
G36*
X015297Y020775D02*
X01505D01*
Y02045D01*
X015297D01*
Y020775D01*
D02*
G37*
G36*
X01495D02*
X014703D01*
Y02065D01*
X014768D01*
X014789Y020591D01*
X014796Y020611D01*
X014802Y02064D01*
X014804Y020674D01*
Y020548D01*
X01484Y02045D01*
X01495D01*
Y020775D01*
D02*
G37*
G36*
X024594Y020729D02*
X024327D01*
Y020404D01*
X02448D01*
X0245Y0206D01*
X024594D01*
Y020729D01*
D02*
G37*
G36*
X01873Y020621D02*
Y020325D01*
X019027D01*
X019021Y020366D01*
X018986Y020452D01*
X01893Y020525D01*
X018857Y020581D01*
X018772Y020616D01*
X01873Y020621D01*
D02*
G37*
G36*
X01863D02*
X018589Y020616D01*
X018504Y020581D01*
X018431Y020525D01*
X018375Y020452D01*
X018339Y020366D01*
X018334Y020325D01*
X01863D01*
Y020621D01*
D02*
G37*
G36*
X0198Y020604D02*
Y020308D01*
X020096D01*
X020091Y020349D01*
X020056Y020434D01*
X02Y020508D01*
X019927Y020564D01*
X019841Y020599D01*
X0198Y020604D01*
D02*
G37*
G36*
X0197D02*
X019659Y020599D01*
X019573Y020564D01*
X0195Y020508D01*
X019444Y020434D01*
X019409Y020349D01*
X019404Y020308D01*
X0197D01*
Y020604D01*
D02*
G37*
G36*
X017819Y020596D02*
Y0203D01*
X018116D01*
X01811Y020341D01*
X018075Y020427D01*
X018019Y0205D01*
X017946Y020556D01*
X017861Y020591D01*
X017819Y020596D01*
D02*
G37*
G36*
X017719D02*
X017678Y020591D01*
X017593Y020556D01*
X01752Y0205D01*
X017464Y020427D01*
X017428Y020341D01*
X017423Y0203D01*
X017719D01*
Y020596D01*
D02*
G37*
G36*
X01495Y02035D02*
X014875D01*
X014948Y020146D01*
X014804Y020148D01*
Y020126D01*
X014803Y020148D01*
X014703Y020149D01*
Y020025D01*
X01495D01*
Y02035D01*
D02*
G37*
G36*
X015297D02*
X01505D01*
Y020025D01*
X015297D01*
Y02035D01*
D02*
G37*
G36*
X021822Y024832D02*
X021704Y024817D01*
X021595Y024771D01*
X021501Y024699D01*
X021429Y024605D01*
X021383Y024496D01*
X021368Y024378D01*
X021383Y024261D01*
X021429Y024151D01*
X021501Y024057D01*
X021595Y023985D01*
X021704Y02394D01*
X02176Y023932D01*
X021815Y023877D01*
Y020791D01*
X021641D01*
Y019997D01*
X022591D01*
Y020791D01*
X022417D01*
Y024002D01*
X022407Y02408D01*
X022377Y024152D01*
X022329Y024215D01*
X022263Y024281D01*
X022276Y024378D01*
X02226Y024496D01*
X022215Y024605D01*
X022143Y024699D01*
X022049Y024771D01*
X021939Y024817D01*
X021822Y024832D01*
D02*
G37*
G36*
X02447Y020304D02*
X024327D01*
Y019979D01*
X024579D01*
X02445Y020108D01*
X02447Y020304D01*
D02*
G37*
G36*
X019027Y020225D02*
X01873D01*
Y019929D01*
X018772Y019934D01*
X018857Y019969D01*
X01893Y020025D01*
X018986Y020098D01*
X019021Y020184D01*
X019027Y020225D01*
D02*
G37*
G36*
X01863D02*
X018334D01*
X018339Y020184D01*
X018375Y020098D01*
X018431Y020025D01*
X018504Y019969D01*
X018589Y019934D01*
X01863Y019929D01*
Y020225D01*
D02*
G37*
G36*
X020096Y020208D02*
X0198D01*
Y019911D01*
X019841Y019917D01*
X019927Y019952D01*
X02Y020008D01*
X020056Y020081D01*
X020091Y020167D01*
X020096Y020208D01*
D02*
G37*
G36*
X0197D02*
X019404D01*
X019409Y020167D01*
X019444Y020081D01*
X0195Y020008D01*
X019573Y019952D01*
X019659Y019917D01*
X0197Y019911D01*
Y020208D01*
D02*
G37*
G36*
X018116Y0202D02*
X017819D01*
Y019904D01*
X017861Y019909D01*
X017946Y019944D01*
X018019Y02D01*
X018075Y020073D01*
X01811Y020159D01*
X018116Y0202D01*
D02*
G37*
G36*
X017719D02*
X017423D01*
X017428Y020159D01*
X017464Y020073D01*
X01752Y02D01*
X017593Y019944D01*
X017678Y019909D01*
X017719Y019904D01*
Y0202D01*
D02*
G37*
G36*
X017017Y020109D02*
Y019813D01*
X017313D01*
X017308Y019854D01*
X017273Y019939D01*
X017217Y020012D01*
X017144Y020068D01*
X017058Y020104D01*
X017017Y020109D01*
D02*
G37*
G36*
X016917D02*
X016876Y020104D01*
X016791Y020068D01*
X016717Y020012D01*
X016661Y019939D01*
X016626Y019854D01*
X016621Y019813D01*
X016917D01*
Y020109D01*
D02*
G37*
G36*
X02655Y019637D02*
X026521Y019599D01*
X026481Y019503D01*
X026474Y01945D01*
X02655D01*
Y019637D01*
D02*
G37*
G36*
X017313Y019713D02*
X017017D01*
Y019416D01*
X017058Y019422D01*
X017144Y019457D01*
X017217Y019513D01*
X017273Y019586D01*
X017308Y019671D01*
X017313Y019713D01*
D02*
G37*
G36*
X016917D02*
X016621D01*
X016626Y019671D01*
X016661Y019586D01*
X016717Y019513D01*
X016791Y019457D01*
X016876Y019422D01*
X016917Y019416D01*
Y019713D01*
D02*
G37*
G36*
X016297Y020875D02*
X015503D01*
Y020153D01*
X015502Y020148D01*
X015503Y020137D01*
X0155Y020126D01*
X015503Y020113D01*
Y019925D01*
X015549D01*
X015554Y019924D01*
X015597Y019875D01*
X01559Y019604D01*
X015577Y019456D01*
X01557Y019403D01*
X015561Y019362D01*
X015554Y019337D01*
X015552Y019332D01*
X015546Y019324D01*
X015542Y019315D01*
X015515Y019279D01*
X015465Y019296D01*
Y019515D01*
X014435D01*
Y018485D01*
X014654D01*
X014671Y018435D01*
X014583Y018367D01*
X0145Y01826D01*
X014448Y018134D01*
X014431Y018D01*
X014448Y017866D01*
X0145Y01774D01*
X014583Y017633D01*
X01469Y01755D01*
X014816Y017498D01*
X01495Y017481D01*
X015084Y017498D01*
X01521Y01755D01*
X015317Y017633D01*
X0154Y01774D01*
X015425Y017801D01*
X015475D01*
X0155Y01774D01*
X015583Y017633D01*
X01569Y01755D01*
X015816Y017498D01*
X01595Y017481D01*
X016084Y017498D01*
X01621Y01755D01*
X016317Y017633D01*
X016335Y017656D01*
X016341Y01766D01*
X016344Y017665D01*
X016349Y017668D01*
X016357Y017678D01*
X016358Y017679D01*
X016361Y01768D01*
X016365Y017683D01*
X016372Y017686D01*
X016383Y017689D01*
X016397Y017692D01*
X016412Y017695D01*
X016461Y017698D01*
X016466Y017698D01*
X016468Y017698D01*
X016509Y017701D01*
X016665Y017714D01*
X016863Y017761D01*
X017052Y01784D01*
X01715Y0179D01*
X017162Y017904D01*
X017176Y017915D01*
X017176Y017915D01*
X017224Y017952D01*
X017225Y017954D01*
X01726Y017977D01*
X017276Y017987D01*
X017335Y017999D01*
X017337Y017999D01*
X018949D01*
X01905Y0181D01*
X022026D01*
X022077Y018127D01*
X022193Y018223D01*
X022289Y018339D01*
X02236Y018472D01*
X022404Y018616D01*
X022418Y018766D01*
X022417D01*
Y019087D01*
X022418Y019092D01*
X022419Y019097D01*
X022591D01*
Y019284D01*
X022594Y019298D01*
X022593Y019304D01*
X022594Y01931D01*
X022591Y019319D01*
Y019891D01*
X021641D01*
Y019319D01*
X021639Y01931D01*
X02164Y019304D01*
X021639Y019298D01*
X021641Y019284D01*
Y019097D01*
X021814D01*
X021814Y019092D01*
X021815Y019087D01*
Y018766D01*
X021816Y018764D01*
X021803Y018703D01*
X021767Y018649D01*
X021714Y018613D01*
X021652Y018601D01*
X02165Y018601D01*
X021267D01*
X021246Y018646D01*
X021275Y018682D01*
X021345Y018812D01*
X021388Y018953D01*
X0214Y019083D01*
X021401Y019087D01*
X021575D01*
Y019275D01*
X021578Y019288D01*
X021577Y019294D01*
X021577Y0193D01*
X021575Y019309D01*
Y019881D01*
X020625D01*
Y019309D01*
X020623Y0193D01*
X020623Y019294D01*
X020622Y019288D01*
X020625Y019275D01*
Y019087D01*
X020757D01*
X020778Y019063D01*
X020784Y019037D01*
X020756Y018994D01*
X020707Y018962D01*
X020651Y018951D01*
X02065Y018951D01*
X017552D01*
X017548Y01895D01*
X017445Y018964D01*
X01737Y018995D01*
X017301Y019054D01*
X017217Y019105D01*
X017199Y019119D01*
X017185Y019125D01*
X017127Y01916D01*
X016938Y019239D01*
X01674Y019286D01*
X016546Y019302D01*
X016544Y019302D01*
X016513Y019303D01*
X016489Y019306D01*
X016465Y019311D01*
X01644Y019318D01*
X016413Y019327D01*
X016386Y019339D01*
X016359Y019352D01*
X016293Y019392D01*
X016291Y019394D01*
X01628Y01941D01*
X016266Y019439D01*
X016252Y019479D01*
X016238Y01953D01*
X016226Y019592D01*
X016216Y019663D01*
X016204Y019842D01*
X016203Y019889D01*
X016238Y019925D01*
X016297D01*
Y020113D01*
X0163Y020126D01*
X016297Y020137D01*
X016298Y020148D01*
X016297Y020153D01*
Y020875D01*
D02*
G37*
G36*
X02655Y01935D02*
X026474D01*
X026481Y019297D01*
X026521Y019201D01*
X02655Y019163D01*
Y01935D01*
D02*
G37*
G36*
X024Y024204D02*
X02325D01*
X023172Y024188D01*
X023106Y024144D01*
X023062Y024078D01*
X023046Y024D01*
Y018767D01*
X023062Y018689D01*
X023106Y018623D01*
X023172Y018578D01*
X02325Y018563D01*
X02405Y018563D01*
X024128Y018578D01*
X024194Y018623D01*
X024238Y018689D01*
X024254Y018767D01*
X024254Y01935D01*
X024254Y01935D01*
X024238Y019428D01*
X024204Y01948D01*
Y019879D01*
X024273D01*
Y020829D01*
X024204D01*
Y024D01*
X024188Y024078D01*
X024144Y024144D01*
X024078Y024188D01*
X024Y024204D01*
D02*
G37*
G36*
X02655Y01811D02*
X026475D01*
Y0181D01*
X02655D01*
Y01811D01*
D02*
G37*
G36*
X026225Y01811D02*
X0259D01*
Y0181D01*
X026225D01*
Y01811D01*
D02*
G37*
G36*
X0258D02*
X025475D01*
Y0181D01*
X0258D01*
Y01811D01*
D02*
G37*
G36*
X027225Y01811D02*
X0271D01*
Y0181D01*
X0272D01*
Y017844D01*
X027225D01*
Y01811D01*
D02*
G37*
G36*
X015034Y017396D02*
X014992Y017391D01*
X014907Y017356D01*
X014834Y0173D01*
X014778Y017227D01*
X014773Y017214D01*
X014743D01*
Y0172D01*
X015034D01*
Y017396D01*
D02*
G37*
G36*
X0189Y017808D02*
X0184D01*
Y01715D01*
X018873D01*
X018882Y017179D01*
X018887Y017217D01*
X018889Y017259D01*
Y01715D01*
X0189D01*
Y017259D01*
X018889D01*
X0189Y01726D01*
Y017808D01*
D02*
G37*
G36*
X015134Y017396D02*
Y0172D01*
X01535D01*
Y01715D01*
X015421D01*
X015389Y017227D01*
X015333Y0173D01*
X01526Y017356D01*
X015175Y017391D01*
X015134Y017396D01*
D02*
G37*
G36*
X016797Y016625D02*
X016725D01*
Y0165D01*
X01675D01*
X016731Y0163D01*
X016797D01*
Y016625D01*
D02*
G37*
G36*
Y0162D02*
X016721D01*
X0167Y015975D01*
X016675Y01595D01*
X01655D01*
Y015875D01*
X016797D01*
Y0162D01*
D02*
G37*
G36*
X01645Y01595D02*
X016203D01*
Y015875D01*
X01645D01*
Y01595D01*
D02*
G37*
G36*
X0127Y016754D02*
X01257Y016736D01*
X012448Y016686D01*
X012344Y016606D01*
X012264Y016502D01*
X012214Y01638D01*
X012196Y01625D01*
X012214Y01612D01*
X012264Y015998D01*
X012344Y015894D01*
X012448Y015814D01*
X01257Y015764D01*
X0127Y015746D01*
X01283Y015764D01*
X012952Y015814D01*
X013056Y015894D01*
X013136Y015998D01*
X013186Y01612D01*
X013204Y01625D01*
X013186Y01638D01*
X013136Y016502D01*
X013056Y016606D01*
X012952Y016686D01*
X01283Y016736D01*
X0127Y016754D01*
D02*
G37*
G36*
X01275Y015646D02*
Y01555D01*
X012965D01*
X012901Y015599D01*
X012804Y015639D01*
X01275Y015646D01*
D02*
G37*
G36*
X01265D02*
X012596Y015639D01*
X012499Y015599D01*
X012415Y015535D01*
X012351Y015451D01*
X012311Y015354D01*
X012304Y0153D01*
X01265D01*
Y015646D01*
D02*
G37*
G36*
X015143Y015393D02*
X015Y01525D01*
X015196D01*
X015191Y015291D01*
X015156Y015377D01*
X015143Y015393D01*
D02*
G37*
G36*
X013049Y01505D02*
X012926D01*
X012911Y015038D01*
Y01505D01*
X01275D01*
Y014854D01*
X012804Y014861D01*
X012901Y014901D01*
X012985Y014965D01*
X013049Y015049D01*
X013049Y01505D01*
D02*
G37*
G36*
X01265Y0152D02*
X012304D01*
X012311Y015146D01*
X012351Y015049D01*
X012415Y014965D01*
X012499Y014901D01*
X012596Y014861D01*
X01265Y014854D01*
Y01505D01*
D01*
Y0152D01*
D02*
G37*
G36*
X028396Y012945D02*
Y012648D01*
X028693D01*
X028687Y01269D01*
X028652Y012775D01*
X028596Y012848D01*
X028523Y012904D01*
X028438Y012939D01*
X028396Y012945D01*
D02*
G37*
G36*
X028693Y012548D02*
X028396D01*
Y012252D01*
X028438Y012257D01*
X028523Y012293D01*
X028596Y012349D01*
X028652Y012422D01*
X028687Y012507D01*
X028693Y012548D01*
D02*
G37*
G36*
X028296D02*
X028D01*
X028005Y012507D01*
X028041Y012422D01*
X028097Y012349D01*
X02817Y012293D01*
X028255Y012257D01*
X028296Y012252D01*
Y012548D01*
D02*
G37*
G36*
X02796Y012075D02*
X027694D01*
Y012012D01*
X02796D01*
Y012075D01*
D02*
G37*
%LPD*%
G36*
X022357Y019296D02*
X022327Y01929D01*
X022301Y01928D01*
X022278Y019267D01*
X022258Y019249D01*
X022243Y019227D01*
X02223Y019202D01*
X022222Y019172D01*
X022216Y019139D01*
X022215Y019101D01*
X022018D01*
X022016Y019139D01*
X022011Y019172D01*
X022002Y019202D01*
X02199Y019227D01*
X021974Y019249D01*
X021955Y019267D01*
X021932Y01928D01*
X021906Y01929D01*
X021876Y019296D01*
X021842Y019298D01*
X02239D01*
X022357Y019296D01*
D02*
G37*
G36*
X02134Y019286D02*
X021311Y019281D01*
X021284Y019271D01*
X021262Y019258D01*
X021242Y019241D01*
X021226Y019221D01*
X021214Y019196D01*
X021205Y019168D01*
X0212Y019136D01*
X021198Y0191D01*
X021002D01*
X021Y019136D01*
X020995Y019168D01*
X020986Y019196D01*
X020974Y019221D01*
X020958Y019241D01*
X020938Y019258D01*
X020916Y019271D01*
X020889Y019281D01*
X02086Y019286D01*
X020826Y019288D01*
X021374D01*
X02134Y019286D01*
D02*
G37*
G36*
X016077Y020124D02*
X016061Y020118D01*
X016046Y020108D01*
X016033Y020095D01*
X016023Y020077D01*
X016014Y020055D01*
X016007Y02003D01*
X016002Y02D01*
X015999Y019967D01*
X015999Y019934D01*
X016Y019833D01*
X016013Y019642D01*
X016024Y019559D01*
X016039Y019484D01*
X016057Y019417D01*
X016078Y019359D01*
X016103Y019309D01*
X01613Y019267D01*
X016155Y01924D01*
X01618Y019222D01*
X01626Y019173D01*
X0163Y019153D01*
X01634Y019137D01*
X016379Y019123D01*
X016419Y019112D01*
X016458Y019105D01*
X016497Y0191D01*
X016536Y019098D01*
Y018902D01*
X016497Y0189D01*
X016458Y018895D01*
X016419Y018888D01*
X016379Y018877D01*
X01634Y018863D01*
X0163Y018847D01*
X01626Y018827D01*
X01622Y018804D01*
X01618Y018778D01*
X01614Y018749D01*
Y019233D01*
X015715Y01921D01*
X015732Y019234D01*
X015746Y019269D01*
X015759Y019313D01*
X015771Y019368D01*
X01578Y019433D01*
X015794Y019592D01*
X015802Y019908D01*
X015929Y019929D01*
X015802D01*
X015801Y019967D01*
X015798Y02D01*
X015793Y02003D01*
X015786Y020055D01*
X015777Y020077D01*
X015767Y020095D01*
X015754Y020108D01*
X015739Y020118D01*
X015723Y020124D01*
X015704Y020126D01*
X016096D01*
X016077Y020124D01*
D02*
G37*
G36*
X016213Y018177D02*
X016232Y018161D01*
X016253Y018146D01*
X016276Y018133D01*
X016301Y018123D01*
X016329Y018114D01*
X016359Y018107D01*
X01639Y018102D01*
X016425Y018099D01*
X016461Y018098D01*
Y017902D01*
X016425Y017901D01*
X01639Y017898D01*
X016359Y017893D01*
X016329Y017886D01*
X016301Y017877D01*
X016276Y017867D01*
X016253Y017854D01*
X016232Y017839D01*
X016213Y017823D01*
X016197Y017804D01*
Y018196D01*
X016213Y018177D01*
D02*
G37*
G36*
X024Y0194D02*
X02405Y01935D01*
X02405Y018767D01*
X02325Y018767D01*
Y024D01*
X024D01*
Y0194D01*
D02*
G37*
%LPC*%
G36*
X032375Y02395D02*
X03205D01*
Y023683D01*
X032375D01*
Y02395D01*
D02*
G37*
G36*
X030876Y021633D02*
X030353D01*
Y021386D01*
X030876D01*
Y021633D01*
D02*
G37*
G36*
X030253D02*
X029731D01*
Y021386D01*
X030253D01*
Y021633D01*
D02*
G37*
G36*
X030876Y021286D02*
X030353D01*
Y02104D01*
X030876D01*
Y021286D01*
D02*
G37*
G36*
X030253D02*
X029731D01*
Y02104D01*
X030253D01*
Y021286D01*
D02*
G37*
%LPD*%
D16*
X019395Y040892D02*
Y042255D01*
X019895Y040892D02*
Y041724D01*
X019855Y041763D02*
X019895Y041724D01*
X01935Y039934D02*
Y040887D01*
X01985Y03995D02*
Y040887D01*
X01875Y039334D02*
X01935Y039934D01*
X01875Y038965D02*
Y039334D01*
X01935Y03825D02*
Y038554D01*
X018391Y038612D02*
X019291D01*
X017533Y036915D02*
Y038554D01*
X017596Y038617D02*
X018387D01*
X019291Y038612D02*
X01935Y038554D01*
X018387Y038617D02*
X018391Y038612D01*
X017533Y038554D02*
X017596Y038617D01*
X01935Y038965D02*
Y03945D01*
X01985Y03995D01*
D22*
X02135Y0396D02*
D03*
X020635Y0396D02*
D03*
D23*
X017341Y040892D02*
D03*
X016967D02*
D03*
D24*
X019841D02*
D03*
X019341D02*
D03*
X017841D02*
D03*
X018841D02*
D03*
X018341D02*
D03*
D25*
X015191Y041842D02*
D03*
D26*
X015291Y046492D02*
D03*
X020591D02*
D03*
D27*
X020641Y041792D02*
D03*
D28*
X02435Y0422D02*
D03*
X02355D02*
D03*
X02435Y043033D02*
D03*
X02355D02*
D03*
D29*
X0257Y036312D02*
D03*
D30*
X03Y035024D02*
D03*
Y035693D02*
D03*
Y037032D02*
D03*
Y036362D02*
D03*
Y037701D02*
D03*
D31*
X01805Y0277D02*
D03*
X01935Y0277D02*
D03*
D32*
X016667Y023475D02*
D03*
Y024262D02*
D03*
X032Y024D02*
D03*
Y023213D02*
D03*
X01805Y039037D02*
D03*
Y03825D02*
D03*
X02685Y017794D02*
D03*
Y017006D02*
D03*
X02585Y017006D02*
D03*
Y017794D02*
D03*
X03185Y035544D02*
D03*
Y034756D02*
D03*
D33*
X015663Y02505D02*
D03*
X01645D02*
D03*
X026931Y020888D02*
D03*
X027719D02*
D03*
X016196Y039192D02*
D03*
X015408D02*
D03*
X023856Y020354D02*
D03*
X024644D02*
D03*
X027644Y0117D02*
D03*
X026856D02*
D03*
X033106Y0355D02*
D03*
X033894D02*
D03*
D34*
X017552Y0263D02*
D03*
X015583D02*
D03*
D35*
X02802Y022242D02*
D03*
D36*
X030303Y023147D02*
D03*
X030303Y022242D02*
D03*
X030303Y021336D02*
D03*
D37*
X0211Y020384D02*
D03*
X0211Y019484D02*
D03*
X022116Y020394D02*
D03*
Y019494D02*
D03*
X02595Y0126D02*
D03*
Y0117D02*
D03*
X0261Y0097D02*
D03*
X0261Y0088D02*
D03*
X01275Y01995D02*
D03*
Y02085D02*
D03*
X0318Y0364D02*
D03*
Y0373D02*
D03*
X0327Y0373D02*
D03*
Y0364D02*
D03*
D38*
X020191Y031068D02*
D03*
Y031501D02*
D03*
Y033667D02*
D03*
Y0341D02*
D03*
Y034533D02*
D03*
Y034966D02*
D03*
Y035399D02*
D03*
Y035832D02*
D03*
Y033233D02*
D03*
Y0328D02*
D03*
Y032367D02*
D03*
Y031934D02*
D03*
X014009Y031068D02*
D03*
Y031501D02*
D03*
Y031934D02*
D03*
Y032367D02*
D03*
Y0328D02*
D03*
Y033233D02*
D03*
Y035832D02*
D03*
Y035399D02*
D03*
Y034966D02*
D03*
Y034533D02*
D03*
Y0341D02*
D03*
Y033667D02*
D03*
D39*
X01223Y040446D02*
D03*
X01223Y041161D02*
D03*
X01875Y03825D02*
D03*
X01875Y038965D02*
D03*
X01935Y03825D02*
D03*
X01935Y038965D02*
D03*
X017083Y0383D02*
D03*
X017083Y039015D02*
D03*
D40*
X012129Y033115D02*
D03*
Y035084D02*
D03*
D41*
X022766Y039416D02*
D03*
X023666D02*
D03*
X025678Y01387D02*
D03*
X026578Y01387D02*
D03*
X0174Y01625D02*
D03*
X0165D02*
D03*
X015Y0204D02*
D03*
X0159Y0204D02*
D03*
X01745Y01379D02*
D03*
X01655D02*
D03*
D42*
X01221Y04225D02*
D03*
X01351D02*
D03*
X01231Y03948D02*
D03*
X01361D02*
D03*
X01556Y0277D02*
D03*
X01686D02*
D03*
X01551Y0286D02*
D03*
X01681D02*
D03*
D43*
X0279Y017876D02*
D03*
Y017128D02*
D03*
X0155Y024152D02*
D03*
Y023404D02*
D03*
D44*
X015Y014122D02*
D03*
Y016878D02*
D03*
D45*
X016667Y036915D02*
D03*
X016234Y036915D02*
D03*
X015801Y036915D02*
D03*
X015368D02*
D03*
X0171Y036915D02*
D03*
X017533Y036915D02*
D03*
X017966Y036915D02*
D03*
X018399Y036915D02*
D03*
X018832D02*
D03*
Y029985D02*
D03*
X018399D02*
D03*
X017966Y029985D02*
D03*
X017533Y029985D02*
D03*
X0171Y029985D02*
D03*
X015368Y029985D02*
D03*
X015801D02*
D03*
X016234Y029985D02*
D03*
X016667Y029985D02*
D03*
D46*
X0293Y031979D02*
D03*
Y028121D02*
D03*
D77*
X026586Y043266D02*
D03*
X029342D02*
D03*
D100*
X012017Y038267D02*
G03*
X01231Y038974I-000707J000707D01*
G01*
X011043Y037293D02*
G03*
X01075Y036586I000707J-000707D01*
G01*
Y032133D02*
G03*
X01095Y03165I000683J0D01*
G01*
D02*
G03*
X011309Y031501I000359J000359D01*
G01*
X018811Y040023D02*
Y040861D01*
X018841Y040892D01*
X017083Y039015D02*
Y039433D01*
X017192Y039542D01*
X018329D01*
X018811Y040023D01*
X018841Y040892D02*
X018846Y040897D01*
Y041814D01*
X01885Y041819D01*
X025242Y042407D02*
Y045008D01*
X0244Y04535D02*
X024415Y045335D01*
X024915D01*
X025242Y045008D01*
X012247Y033233D02*
X014009D01*
X01231Y038974D02*
Y03948D01*
X011043Y037293D02*
X012017Y038267D01*
X01075Y032133D02*
Y036586D01*
X011309Y031501D02*
X014009D01*
X01223Y03956D02*
Y040446D01*
Y03956D02*
X01231Y03948D01*
X01221Y04225D02*
X01223Y04223D01*
Y041161D02*
Y04223D01*
X01223Y04227D02*
Y045073D01*
X01221Y04225D02*
X01223Y04227D01*
X012129Y033115D02*
X012247Y033233D01*
X024935Y0421D02*
X025242Y042407D01*
X024447Y0421D02*
X024935D01*
X02435Y043033D02*
X024375Y043058D01*
Y044338D01*
X0244Y044363D01*
X02435Y042197D02*
Y0422D01*
Y042197D02*
X024447Y0421D01*
D101*
X0122Y017039D02*
G03*
X011525Y016617I0J-00075D01*
G01*
X01223Y017039D02*
G03*
X0127Y0177I-00023J000661D01*
G01*
X012Y017D02*
G03*
X01223Y017039I0J0007D01*
G01*
X011525Y016617D02*
G03*
X01145Y016289I000675J-000328D01*
G01*
X013893Y013957D02*
G03*
X013186Y01425I-000707J-000707D01*
G01*
X013593Y012957D02*
G03*
X012886Y01325I-000707J-000707D01*
G01*
X016461Y018D02*
G03*
X017011Y018165I0J001D01*
G01*
X017113Y018242D02*
G03*
X017011Y018165I000224J-000403D01*
G01*
X017337Y0183D02*
G03*
X017113Y018242I0J-000461D01*
G01*
X017049Y018858D02*
G03*
X016536Y019I-000513J-000858D01*
G01*
X017213Y018736D02*
G03*
X017049Y018858I-000677J-000736D01*
G01*
X017213Y018736D02*
G03*
X017552Y01865I000339J000626D01*
G01*
X017049Y018858D02*
G03*
X017213Y018736I000503J000503D01*
G01*
X02065Y01865D02*
G03*
X0211Y0191I0J00045D01*
G01*
X02165Y0183D02*
G03*
X022116Y018766I0J000466D01*
G01*
X03125Y0088D02*
G03*
X03225Y0098I0J001D01*
G01*
X014957Y011593D02*
G03*
X01535Y01143I000393J000393D01*
G01*
X015337Y012513D02*
G03*
X016044Y01222I000707J000707D01*
G01*
X016947Y040911D02*
X016967Y040892D01*
X016947Y040911D02*
Y041428D01*
X016767Y041608D02*
X016947Y041428D01*
X016094Y041608D02*
X016767D01*
X021589Y042591D02*
X0218Y042379D01*
Y040565D02*
Y042379D01*
X02135Y040115D02*
X0218Y040565D01*
X02135Y0396D02*
Y040115D01*
X020635Y0396D02*
Y039655D01*
X020615Y039675D02*
X020635Y039655D01*
X020365Y039675D02*
X020615D01*
X02Y039309D02*
X020365Y039675D01*
X02Y038051D02*
Y039309D01*
X019645Y037696D02*
X02Y038051D01*
X01855Y037696D02*
X019645D01*
X018399Y037545D02*
X01855Y037696D01*
X018399Y036915D02*
Y037545D01*
X0222Y043228D02*
X023335Y044363D01*
X021589Y038986D02*
X0222Y039597D01*
Y043228D01*
X01123Y032789D02*
Y03315D01*
X013153Y031934D02*
X014009D01*
X012156D02*
X012656D01*
X015408Y0393D02*
Y039807D01*
X021Y038986D02*
X021589D01*
X012072Y031068D02*
X012572D01*
X01123Y033643D02*
Y034143D01*
X015408Y039807D02*
X015739Y040139D01*
X01123Y032484D02*
Y032789D01*
X010683Y031068D02*
X011572D01*
X011779Y031934D02*
X012156D01*
X015408Y039192D02*
Y0393D01*
X020493Y038986D02*
X021D01*
X011572Y031068D02*
X012072D01*
X01123Y03315D02*
Y033643D01*
Y034143D02*
Y034643D01*
X017321Y040254D02*
Y040872D01*
X01123Y0405D02*
Y044073D01*
X010407Y039093D02*
X01123Y039917D01*
X012656Y031934D02*
X013153D01*
X012129Y036D02*
Y036157D01*
Y035084D02*
Y036D01*
X016667Y0286D02*
Y029985D01*
X017206Y040139D02*
X017321Y040254D01*
X0102Y038887D02*
X010407Y039093D01*
X015739Y040139D02*
X017206D01*
X01123Y034643D02*
Y035114D01*
X013069Y031068D02*
X014009D01*
X01123Y035114D02*
Y03648D01*
Y039917D02*
Y0405D01*
X016667Y027893D02*
Y0286D01*
X012572Y031068D02*
X013069D01*
X016196Y038254D02*
Y039675D01*
X017811Y040892D02*
Y041031D01*
X01785Y041071D01*
X016196Y039675D02*
X016321Y0398D01*
X017695D01*
X017811Y039915D01*
Y040892D01*
X017321Y040872D02*
X017341Y040892D01*
X027078Y04425D02*
X028521Y045693D01*
X032307D01*
X0329Y0451D02*
X0332D01*
X032307Y045693D02*
X0329Y0451D01*
X02865Y0364D02*
X03135D01*
X028356Y0406D02*
X031818D01*
X028277D02*
X028356D01*
X0284Y040556D01*
X028031Y040846D02*
Y043297D01*
X03188Y04048D02*
Y040539D01*
X031818Y0406D02*
X03188Y040539D01*
X028031Y040846D02*
X028277Y0406D01*
X020231Y037131D02*
X020493Y037393D01*
Y038986D01*
X027078Y04425D02*
X028031Y043297D01*
X02685Y017944D02*
Y020194D01*
X027735Y020119D02*
Y021147D01*
Y0194D02*
Y020119D01*
X027725Y02115D02*
Y021947D01*
Y0202D02*
Y02115D01*
X026856Y0202D02*
Y023728D01*
X031072Y024122D02*
X0314Y02445D01*
X03155Y02415D02*
X03239D01*
X032563Y023977D01*
Y021596D02*
Y023977D01*
X032303Y021336D02*
X032563Y021596D01*
X030303Y021336D02*
X032303D01*
X027725Y020119D02*
X0279Y019944D01*
X027653Y0194D02*
X027735Y019319D01*
Y0194D01*
X027725Y021947D02*
X02802Y022242D01*
X030303D01*
X023701Y020198D02*
Y0237D01*
X021822Y024296D02*
X022116Y024002D01*
X021822Y024296D02*
Y024378D01*
X022116Y020394D02*
Y024002D01*
X0199Y02417D02*
Y02575D01*
X02095Y0268D02*
X02305D01*
X0199Y02575D02*
X02095Y0268D01*
X02305D02*
X0249D01*
X02945D01*
X01955Y02382D02*
X0199Y02417D01*
X01955Y023778D02*
Y02382D01*
X02355Y030878D02*
Y039306D01*
X0249Y029528D02*
Y029597D01*
X024666Y029832D02*
X0249Y029597D01*
X02355Y030878D02*
X024597Y029832D01*
X024666D01*
X02555Y0396D02*
X0284D01*
X023844D02*
X02555D01*
X0257Y036312D02*
Y03945D01*
X02555Y0396D02*
X0257Y03945D01*
X0131Y03835D02*
Y03929D01*
Y037128D02*
Y03835D01*
X01123Y03648D02*
X0131Y03835D01*
X01123Y032484D02*
X011779Y031934D01*
X02535Y027994D02*
Y0295D01*
X02355Y039306D02*
X023844Y0396D01*
X0249Y027544D02*
X02535Y027994D01*
X032787Y0406D02*
Y041887D01*
X0284Y03665D02*
Y0396D01*
X031D01*
X026728Y032609D02*
X027282D01*
X028481Y035731D02*
X03D01*
X0284Y03665D02*
X02865Y0364D01*
X026071Y031952D02*
X026728Y032609D01*
X02755Y0327D02*
X02825Y0334D01*
X027373Y0327D02*
X02755D01*
X0283Y0334D02*
Y03555D01*
X0284Y0396D02*
Y040556D01*
X027282Y032609D02*
X027373Y0327D01*
X0283Y03555D02*
X028481Y035731D01*
X013183Y033667D02*
X014009D01*
X012129Y036157D02*
X0131Y037128D01*
X012129Y035163D02*
X012432Y03486D01*
Y034418D02*
Y03486D01*
Y034418D02*
X013183Y033667D01*
X01884Y03646D02*
X019291Y036009D01*
Y034273D02*
X019465Y0341D01*
X019291Y034273D02*
Y036009D01*
X015368Y036915D02*
Y039192D01*
X01884Y03646D02*
Y036907D01*
X01323Y03948D02*
Y044073D01*
X018832Y036915D02*
X01884Y036907D01*
X018832Y036915D02*
Y037083D01*
X016196Y038254D02*
X016667Y037783D01*
Y036915D02*
Y037783D01*
X018012Y039075D02*
X01805Y039037D01*
X02355Y042141D02*
Y0422D01*
X023008Y041599D02*
X02355Y042141D01*
X023008Y041408D02*
Y041599D01*
X02295Y04135D02*
X023008Y041408D01*
X0249Y029528D02*
X025322D01*
X023728D02*
X0249D01*
Y027544D02*
Y029528D01*
X0237Y029557D02*
X023728Y029528D01*
X025322D02*
X02535Y0295D01*
X014009Y031068D02*
X015019D01*
X015225Y031275D01*
X015909D01*
X016234Y03095D01*
Y029985D02*
Y03095D01*
X020231Y037131D02*
X021557D01*
X01885D02*
X020231D01*
X0218Y03555D02*
Y037374D01*
X021557Y037131D02*
X0218Y037374D01*
X01341Y0393D02*
X015368D01*
X01326Y03945D02*
X01341Y0393D01*
X017092Y036922D02*
X0171Y036915D01*
X017092Y036922D02*
Y038291D01*
X017083Y0383D02*
X017092Y038291D01*
X0211Y03D02*
Y031275D01*
X020874Y031501D02*
X0211Y031275D01*
X020191Y031501D02*
X020874D01*
X0218Y03555D02*
X0228Y03455D01*
X018399Y029169D02*
Y029985D01*
Y029169D02*
X018968Y0286D01*
X02145D01*
X0219Y02905D01*
X020191Y031068D02*
X020389D01*
X020407Y03105D01*
Y029475D02*
Y03105D01*
Y029475D02*
X02065Y029232D01*
Y02915D02*
Y029232D01*
X0211Y0237D02*
X0211Y0237D01*
Y020384D02*
Y0237D01*
X0211Y0191D02*
Y019484D01*
X022116Y018766D02*
Y019494D01*
X01935Y0277D02*
X021779D01*
X0228Y028721D01*
Y03455D01*
X023342Y043033D02*
X02355D01*
X022858Y042908D02*
X023216D01*
X0228Y04285D02*
X022858Y042908D01*
X023216D02*
X023342Y043033D01*
X019465Y0341D02*
X020191D01*
X01323Y03948D02*
X01326Y03945D01*
X0131Y03929D02*
X01326Y03945D01*
X010665Y03105D02*
X010683Y031068D01*
X0102Y031165D02*
Y038887D01*
Y031165D02*
X010315Y03105D01*
X010665D01*
X01123Y044073D02*
Y046073D01*
X01323D01*
Y044073D02*
Y046073D01*
X01805Y0277D02*
Y028469D01*
X017533Y028986D02*
X01805Y028469D01*
X01935Y027074D02*
Y0277D01*
X018576Y0263D02*
X01935Y027074D01*
X017552Y0263D02*
X018576D01*
X01645Y02505D02*
Y025108D01*
X017139Y025797D01*
Y025965D01*
X017473Y0263D01*
X017552D01*
X016667Y024262D02*
Y024774D01*
X01645Y024991D02*
X016667Y024774D01*
X01645Y024991D02*
Y02505D01*
X015286Y026146D02*
X015512Y026372D01*
X015607Y026467D01*
X01551Y026373D02*
Y0286D01*
X015583Y024235D02*
Y0263D01*
X015702Y0242D02*
Y02515D01*
X0155Y024152D02*
X015583Y024235D01*
X015512Y026372D02*
X015583Y0263D01*
X01551Y026373D02*
X015512Y026372D01*
X01686Y026913D02*
Y0277D01*
Y026913D02*
X017473Y0263D01*
X016667Y027893D02*
X01686Y0277D01*
X016234Y029985D02*
X016234Y029985D01*
X016667D01*
X015368Y036915D02*
X015368Y036915D01*
X015368Y0393D02*
X015368Y0393D01*
X01805Y03825D02*
X01805Y03825D01*
X01875D01*
X01875Y03825D01*
X017966Y036915D02*
X017974Y036922D01*
Y038174D01*
X01805Y03825D01*
X016226Y036907D02*
X016234Y036915D01*
X016226Y036322D02*
Y036907D01*
X016004Y0361D02*
X016226Y036322D01*
X015368Y036215D02*
Y036915D01*
Y036215D02*
X015483Y0361D01*
X016004D01*
X01885Y037102D02*
Y037131D01*
X018832Y037083D02*
X01885Y037102D01*
X023335Y044363D02*
X0234D01*
X032563Y030835D02*
Y031645D01*
Y0295D02*
Y0301D01*
X0313Y033175D02*
Y033515D01*
X0315Y028121D02*
X031721D01*
X015368Y029985D02*
X015801D01*
Y028855D02*
Y029985D01*
X017018Y0234D02*
X018162D01*
X0162D02*
X017018D01*
X03185Y035544D02*
X03275D01*
X026Y017944D02*
X02685D01*
X01679Y01694D02*
X019138D01*
X015Y0165D02*
X0153Y0162D01*
X015Y01615D02*
Y0165D01*
X0141Y01525D02*
X015Y01615D01*
X0127Y0177D02*
Y0182D01*
X0122Y017039D02*
X01223D01*
X01145Y01355D02*
Y016289D01*
X0268Y017126D02*
X02755D01*
X0276D02*
X02793D01*
X0127Y01425D02*
X013186D01*
X0127Y01325D02*
X012886D01*
X017337Y0183D02*
X02165D01*
X017552Y01865D02*
X02065D01*
X01595Y019D02*
X016536D01*
X01595Y018D02*
X016461D01*
X0313Y032907D02*
Y033175D01*
Y032907D02*
X032563Y031645D01*
Y0301D02*
Y030835D01*
X017533Y028986D02*
Y029985D01*
X02725Y024122D02*
X031072D01*
X024644Y020354D02*
X026702D01*
X0141Y017581D02*
Y0202D01*
X0143Y0204D01*
X032787Y0406D02*
X034922Y038465D01*
X015286Y02555D02*
Y026146D01*
X01745Y01379D02*
X019138D01*
X03225Y0098D02*
Y0106D01*
X0261Y0088D02*
X03125D01*
X019038Y01625D02*
X019138Y01615D01*
X0174Y01555D02*
Y01625D01*
X0172Y01535D02*
X0174Y01555D01*
X0149Y0234D02*
X0162D01*
X018162D02*
X01854Y023778D01*
X033894Y0355D02*
Y036256D01*
X03375Y0364D02*
X033894Y036256D01*
X0327Y0364D02*
X03375D01*
X0246Y01387D02*
X0246Y01387D01*
X025678D01*
X0268Y0118D02*
Y017126D01*
X0267Y0117D02*
X026778Y011778D01*
X023701Y020198D02*
X023856Y020354D01*
X02355Y020048D02*
X023701Y020198D01*
X0246Y01695D02*
X024656Y017006D01*
X0246Y01143D02*
X02568D01*
X019138Y01701D02*
Y017538D01*
Y01694D02*
Y01701D01*
X02835Y0117D02*
X031425Y014775D01*
X03135Y01705D02*
X031425Y016975D01*
Y014775D02*
Y016975D01*
X02355Y0193D02*
Y020048D01*
X0159Y01905D02*
Y0204D01*
X0143Y0204D02*
X015D01*
X0159Y01905D02*
X01595Y019D01*
X013593Y012957D02*
X014957Y011593D01*
X013893Y013957D02*
X015337Y012513D01*
X01535Y01143D02*
X019138D01*
X016044Y01222D02*
X019138D01*
X027644Y0117D02*
X02835D01*
X0132Y0213D02*
X01345Y02155D01*
X0134Y02145D02*
X0135Y02155D01*
X01345D02*
X0135D01*
X0132Y0213D02*
Y0213D01*
X01275Y02085D02*
X0132Y0213D01*
X0127Y0199D02*
X01275Y01995D01*
X0127Y0191D02*
Y0199D01*
X01145Y01355D02*
X01175Y01325D01*
X0127D01*
X026702Y020354D02*
X026856Y0202D01*
X0174Y01625D02*
X019038D01*
X0141Y017581D02*
X014675Y017006D01*
X019394Y017794D02*
X02585D01*
X019138Y017538D02*
X019394Y017794D01*
X0165Y01665D02*
X01679Y01694D01*
X0165Y01625D02*
Y01665D01*
X02595Y0117D02*
X0267D01*
X0318Y035594D02*
Y0364D01*
Y035594D02*
X03185Y035544D01*
X030069Y037D02*
X03145D01*
X03175Y0373D01*
X0318D01*
X0318Y0373D01*
X0327D01*
X0153Y0162D02*
X01645D01*
X0161Y0134D02*
Y01345D01*
X01644Y01379D01*
X01655D01*
X026856Y023728D02*
X02725Y024122D01*
X02685Y020194D02*
X026856Y0202D01*
X0279Y017924D02*
Y019944D01*
X02585Y017794D02*
X026Y017944D01*
X015Y0165D02*
Y016878D01*
X0127Y01525D02*
X0141D01*
X019118Y0146D02*
X019138Y01458D01*
X015368Y0146D02*
X019118D01*
X015Y014232D02*
X015368Y0146D01*
X015Y014122D02*
Y014232D01*
X01645Y0162D02*
X0165Y01625D01*
X024656Y017006D02*
X02585D01*
X02597Y017126D01*
X0268D01*
X02793D02*
X02795Y017106D01*
X02568Y01143D02*
X02595Y0117D01*
X02555Y013D02*
X02595Y0126D01*
X0246Y013D02*
X02555D01*
X032563Y028963D02*
Y0295D01*
X031721Y028121D02*
X032563Y028963D01*
X0293Y028121D02*
X0315D01*
X02945Y0268D02*
X03035D01*
X0293Y02695D02*
X02945Y0268D01*
X0293Y02695D02*
Y028121D01*
X032787Y041887D02*
X0335Y0426D01*
X03Y037069D02*
X030069Y037D01*
X0293Y031979D02*
Y0321D01*
X02825Y03315D02*
X0293Y0321D01*
X02825Y03315D02*
X0283Y0332D01*
Y0334D01*
X03035Y0268D02*
X0309Y02735D01*
D102*
X030684Y02315D02*
X03155D01*
X030579Y023256D02*
X030684Y02315D01*
X030303Y023256D02*
X030579D01*
X0336Y01025D02*
Y01125D01*
X030472Y034987D02*
Y035061D01*
X034465Y034433D02*
X035039Y033858D01*
Y038348D01*
Y033858D02*
Y033858D01*
X03495Y038437D02*
X035039Y038348D01*
X0327Y034433D02*
X034465D01*
X03Y035061D02*
X030472D01*
Y034987D02*
X030703Y034756D01*
X03185D01*
X03187Y034737D01*
X03229D01*
X032593Y034433D01*
X0327D01*
X0336Y01025D02*
X0352D01*
X03325Y0116D02*
X0336Y01125D01*
D103*
X0352Y01025D02*
X0354Y01045D01*
X0354Y033498D02*
X0354Y01045D01*
D104*
X019841Y046021D02*
D03*
X016495D02*
D03*
D105*
X0327Y035433D02*
D03*
X0327Y033433D02*
D03*
Y036433D02*
D03*
Y034433D02*
D03*
X03155Y02415D02*
D03*
Y02215D02*
D03*
Y02515D02*
D03*
Y02315D02*
D03*
D106*
X01323Y044073D02*
D03*
X01123D02*
D03*
Y046073D02*
D03*
X01323D02*
D03*
D107*
X01223Y045073D02*
D03*
D108*
X0234Y044363D02*
D03*
X0244D02*
D03*
X0234Y04535D02*
D03*
X0244D02*
D03*
D109*
X0127Y0181D02*
D03*
D110*
Y0191D02*
D03*
D111*
X026866Y0194D02*
D03*
X032Y0406D02*
D03*
X0249Y027544D02*
D03*
X03335Y0301D02*
D03*
D112*
X027653Y0194D02*
D03*
X032787Y0406D02*
D03*
X032563Y0301D02*
D03*
D113*
X0249Y026756D02*
D03*
D114*
X0127Y01325D02*
D03*
D115*
Y01425D02*
D03*
Y01525D02*
D03*
Y01625D02*
D03*
D116*
X02885Y04425D02*
D03*
X027078D02*
D03*
D117*
X01955Y023778D02*
D03*
X01854D02*
D03*
D118*
X03025Y0106D02*
D03*
X03325Y0106D02*
D03*
X02925Y0116D02*
D03*
X02925Y0106D02*
D03*
X03025Y0116D02*
D03*
X03125Y0116D02*
D03*
X03225Y0116D02*
D03*
Y0106D02*
D03*
X03125Y0106D02*
D03*
D119*
X03325Y0116D02*
D03*
D120*
X02535Y0315D02*
D03*
D121*
Y0295D02*
D03*
D122*
X019138Y01465D02*
D03*
Y01701D02*
D03*
Y01622D02*
D03*
Y01544D02*
D03*
Y01386D02*
D03*
Y01307D02*
D03*
Y01229D02*
D03*
Y0115D02*
D03*
X0246D02*
D03*
Y01702D02*
D03*
Y01622D02*
D03*
X0246Y01544D02*
D03*
X0246Y01464D02*
D03*
Y01387D02*
D03*
X0246Y01307D02*
D03*
Y01232D02*
D03*
D123*
X01595Y018D02*
D03*
Y019D02*
D03*
X01495Y018D02*
D03*
D124*
Y019D02*
D03*
D125*
X0312Y0436D02*
D03*
D126*
X0332Y0451D02*
D03*
Y0426D02*
D03*
D127*
X016094Y041608D02*
D03*
X019395Y042255D02*
D03*
X019855Y041763D02*
D03*
X021589Y042591D02*
D03*
X01885Y041819D02*
D03*
X021Y045D02*
D03*
Y039D02*
D03*
X02025Y0375D02*
D03*
X0195Y03D02*
D03*
Y027D02*
D03*
X018Y036D02*
D03*
X01875Y0255D02*
D03*
X0165Y036D02*
D03*
X01725Y0255D02*
D03*
X015Y036D02*
D03*
X0135Y045D02*
D03*
X01425Y0435D02*
D03*
Y0405D02*
D03*
Y0375D02*
D03*
X0135Y03D02*
D03*
X01425Y0285D02*
D03*
X0135Y027D02*
D03*
X01425Y0255D02*
D03*
X0135Y024D02*
D03*
X01275Y0375D02*
D03*
X012Y036D02*
D03*
Y03D02*
D03*
X01275Y0285D02*
D03*
X012Y027D02*
D03*
X01275Y0255D02*
D03*
X012Y024D02*
D03*
X0105Y045D02*
D03*
Y042D02*
D03*
X01125Y0405D02*
D03*
X0105Y039D02*
D03*
Y03D02*
D03*
X01125Y0285D02*
D03*
X0105Y027D02*
D03*
X01125Y0255D02*
D03*
X0105Y024D02*
D03*
X021822Y024378D02*
D03*
X016207Y039262D02*
D03*
X015368Y0393D02*
D03*
X018012Y039075D02*
D03*
X02295Y04135D02*
D03*
X0219Y02905D02*
D03*
X0211Y03D02*
D03*
X02065Y02915D02*
D03*
X0211Y0237D02*
D03*
X0228Y04285D02*
D03*
X0325Y0295D02*
D03*
Y0285D02*
D03*
X03245Y030835D02*
D03*
X03239Y031587D02*
D03*
X031718Y0322D02*
D03*
X03122Y033175D02*
D03*
X034506Y041724D02*
D03*
X0349Y040937D02*
D03*
Y039362D02*
D03*
Y037787D02*
D03*
Y036212D02*
D03*
Y034637D02*
D03*
X033719Y041724D02*
D03*
X034113Y040937D02*
D03*
X032931Y041724D02*
D03*
X033858Y031496D02*
D03*
X028346Y012598D02*
D03*
X0322Y028D02*
D03*
Y0273D02*
D03*
Y0266D02*
D03*
X0315Y028D02*
D03*
Y0273D02*
D03*
Y0266D02*
D03*
X0321Y03915D02*
D03*
X01975Y020258D02*
D03*
X01868Y020275D02*
D03*
X017769Y02025D02*
D03*
X016967Y019763D02*
D03*
X01485Y0152D02*
D03*
X0149Y01615D02*
D03*
X015084Y01705D02*
D03*
X02793Y017126D02*
D03*
X02355Y0193D02*
D03*
X0172Y01535D02*
D03*
X031725Y0398D02*
D03*
X023701Y0237D02*
D03*
X0134Y02145D02*
D03*
X0161Y0134D02*
D03*
D128*
X011668Y041056D02*
D03*
Y041557D02*
D03*
X012807Y041108D02*
D03*
Y041608D02*
D03*
X012909Y042061D02*
D03*
Y042561D02*
D03*
X011545Y041982D02*
D03*
Y042481D02*
D03*
X012862Y044719D02*
D03*
X011601Y044725D02*
D03*
X01168Y045589D02*
D03*
X012759Y045569D02*
D03*
X012969Y045069D02*
D03*
X012206Y045801D02*
D03*
X011483Y045074D02*
D03*
X011823Y044446D02*
D03*
Y043946D02*
D03*
X012644Y044411D02*
D03*
Y043911D02*
D03*
X011815Y043594D02*
D03*
Y043094D02*
D03*
X012637Y043559D02*
D03*
Y043059D02*
D03*
X010329Y032824D02*
D03*
Y032324D02*
D03*
X011151Y032789D02*
D03*
Y032289D02*
D03*
X011143Y03315D02*
D03*
X010347D02*
D03*
X013069Y031152D02*
D03*
X012572Y031099D02*
D03*
X012072D02*
D03*
X011572D02*
D03*
X013153Y03193D02*
D03*
X012656Y031877D02*
D03*
X012156D02*
D03*
X011656D02*
D03*
X011169Y033643D02*
D03*
Y034143D02*
D03*
Y034643D02*
D03*
X011143Y035114D02*
D03*
X01109Y035612D02*
D03*
Y036112D02*
D03*
Y036612D02*
D03*
X010347Y033678D02*
D03*
Y034178D02*
D03*
Y034678D02*
D03*
X010401Y035114D02*
D03*
X010347Y035612D02*
D03*
Y036112D02*
D03*
Y036612D02*
D03*
X011804Y040681D02*
D03*
X011819Y040181D02*
D03*
X011733Y039689D02*
D03*
Y039189D02*
D03*
X011922Y038726D02*
D03*
X011605Y038339D02*
D03*
X011251Y037985D02*
D03*
X010898Y037632D02*
D03*
X010584Y037243D02*
D03*
X010476Y031774D02*
D03*
X010761Y031364D02*
D03*
X011116Y032004D02*
D03*
X011227Y036985D02*
D03*
X011577Y037343D02*
D03*
X01193Y037696D02*
D03*
X012282Y038051D02*
D03*
X01255Y038474D02*
D03*
X012763Y038926D02*
D03*
X012864Y03991D02*
D03*
X012685Y040376D02*
D03*
X012479Y040832D02*
D03*
M02*
