M48
;Layer_Color=9474304
;FILE_FORMAT=2:4
INCH,LZ
;TYPE=PLATED
T1F00S00C0.0150
T2F00S00C0.0280
T3F00S00C0.0315
T4F00S00C0.0354
T5F00S00C0.0360
T6F00S00C0.0400
T7F00S00C0.0402
T8F00S00C0.0433
T9F00S00C0.0450
T10F00S00C0.0472
T12F00S00C0.0512
T13F00S00C0.0600
%
T01
X011572Y031099
X012072
X012572
X013069Y031152
X013153Y03193
X012656Y031877
X012156
X011656
X011116Y032004
X011151Y032289
Y032789
X011143Y03315
X011169Y033643
Y034143
Y034643
X011143Y035114
X01109Y035612
Y036112
Y036612
X011227Y036985
X011577Y037343
X01193Y037696
X012282Y038051
X01255Y038474
X012763Y038926
X011922Y038726
X011733Y039189
Y039689
X011819Y040181
X011804Y040681
X011668Y041056
Y041557
X011545Y041982
Y042481
X011815Y043094
Y043594
X011823Y043946
Y044446
X011601Y044725
X011483Y045074
X01168Y045589
X012206Y045801
X012759Y045569
X012969Y045069
X012862Y044719
X012644Y044411
Y043911
X012637Y043559
Y043059
X012909Y042561
Y042061
X012807Y041608
Y041108
X012479Y040832
X012685Y040376
X012864Y03991
X011605Y038339
X011251Y037985
X010898Y037632
X010584Y037243
X010347Y036612
Y036112
Y035612
X010401Y035114
X010347Y034678
Y034178
Y033678
Y03315
X010329Y032824
Y032324
X010476Y031774
X010761Y031364
T02
X01485Y0152
X0172Y01535
X019138Y01544
Y01465
Y01386
Y01307
Y01229
Y0115
X0161Y0134
X0246Y01307
Y01232
X0246Y0115
Y01387
Y01464
X0246Y01544
X028346Y012598
X0315Y0266
X0322
Y0273
Y028
X0315
Y0273
X0325Y0285
Y0295
X03245Y030835
X0211Y03
X02065Y02915
X0219Y02905
X0195Y03
Y027
X01875Y0255
X01725
X0211Y0237
X021822Y024378
X023701Y0237
X02355Y0193
X0246Y01702
Y01622
X02793Y017126
X019138Y01701
Y01622
X01868Y020275
X017769Y02025
X016967Y019763
X01975Y020258
X0134Y02145
X0135Y024
X012
X0105
X01125Y0255
X01275
X01425
X0135Y027
X012
X0105
X01125Y0285
X01275
X01425
X0135Y03
X012
X0105
X015084Y01705
X0149Y01615
X015Y036
X01425Y0375
X01275
X012Y036
X0105Y039
X01125Y0405
X0105Y042
Y045
X0135
X01425Y0435
Y0405
X015368Y0393
X016207Y039262
X018012Y039075
X021Y039
X02025Y0375
X018Y036
X0165
X016094Y041608
X01885Y041819
X019395Y042255
X019855Y041763
X021589Y042591
X0228Y04285
X02295Y04135
X021Y045
X03122Y033175
X031718Y0322
X03239Y031587
X033858Y031496
X0349Y034637
Y036212
Y037787
Y039362
Y040937
X034113
X034506Y041724
X033719
X032931
X031725Y0398
X0321Y03915
T03
X032563Y0301
X03335
X0249Y027544
Y026756
X026866Y0194
X027653
X032Y0406
X032787
T04
X016495Y046021
X019841
X0234Y04535
Y044363
X0244
Y04535
T05
X01854Y023778
X01955
T06
X02925Y0106
X03025Y0106
X03025Y0116
X02925Y0116
X03125Y0116
X03125Y0106
X03225Y0106
Y0116
X03325Y0116
X03325Y0106
X0127Y0181
Y0191
X027078Y04425
X02885
T07
X0127Y01325
Y01425
Y01525
Y01625
T08
X01595Y018
Y019
X01495
Y018
T09
X01123Y044073
X01323
Y046073
X01123
X01223Y045073
T10
X03155Y02315
Y02415
Y02515
X0327Y034433
X0327Y035433
X0327Y036433
T12
X03155Y02215
X0327Y033433
T13
X02535Y0295
Y0315
X026586Y043266
X029342
M30
