G04*
G04 #@! TF.GenerationSoftware,Altium Limited,Altium Designer,20.1.12 (249)*
G04*
G04 Layer_Physical_Order=2*
G04 Layer_Color=16711680*
%FSTAX24Y24*%
%MOIN*%
G70*
G04*
G04 #@! TF.SameCoordinates,89921D2C-3172-4036-8A71-56443DCFD009*
G04*
G04*
G04 #@! TF.FilePolarity,Positive*
G04*
G01*
G75*
%ADD16C,0.0100*%
G04:AMPARAMS|DCode=24|XSize=27.6mil|YSize=70.9mil|CornerRadius=1.4mil|HoleSize=0mil|Usage=FLASHONLY|Rotation=180.000|XOffset=0mil|YOffset=0mil|HoleType=Round|Shape=RoundedRectangle|*
%AMROUNDEDRECTD24*
21,1,0.0276,0.0681,0,0,180.0*
21,1,0.0248,0.0709,0,0,180.0*
1,1,0.0028,-0.0124,0.0341*
1,1,0.0028,0.0124,0.0341*
1,1,0.0028,0.0124,-0.0341*
1,1,0.0028,-0.0124,-0.0341*
%
%ADD24ROUNDEDRECTD24*%
%ADD77C,0.0800*%
%ADD101C,0.0197*%
%ADD104C,0.0600*%
%ADD105C,0.0787*%
%ADD106C,0.0820*%
%ADD107C,0.0720*%
%ADD108C,0.0669*%
%ADD109C,0.0650*%
%ADD110P,0.0704X8X292.5*%
%ADD111C,0.0591*%
%ADD112R,0.0591X0.0591*%
%ADD113R,0.0591X0.0591*%
%ADD114R,0.0598X0.0598*%
%ADD115C,0.0598*%
%ADD116C,0.0750*%
%ADD117O,0.0650X0.0750*%
%ADD118C,0.0700*%
%ADD119R,0.0700X0.0700*%
%ADD120R,0.1500X0.1500*%
%ADD121C,0.1500*%
%ADD122R,0.0500X0.0500*%
%ADD123C,0.0630*%
%ADD124R,0.0630X0.0630*%
%ADD125O,0.1000X0.1600*%
%ADD126O,0.1600X0.1000*%
%ADD127C,0.0500*%
%ADD128C,0.0250*%
%ADD129C,0.0197*%
G04:AMPARAMS|DCode=130|XSize=55.1mil|YSize=70.9mil|CornerRadius=2.8mil|HoleSize=0mil|Usage=FLASHONLY|Rotation=0.000|XOffset=0mil|YOffset=0mil|HoleType=Round|Shape=RoundedRectangle|*
%AMROUNDEDRECTD130*
21,1,0.0551,0.0654,0,0,0.0*
21,1,0.0496,0.0709,0,0,0.0*
1,1,0.0055,0.0248,-0.0327*
1,1,0.0055,-0.0248,-0.0327*
1,1,0.0055,-0.0248,0.0327*
1,1,0.0055,0.0248,0.0327*
%
%ADD130ROUNDEDRECTD130*%
G04:AMPARAMS|DCode=131|XSize=59.1mil|YSize=98.4mil|CornerRadius=3mil|HoleSize=0mil|Usage=FLASHONLY|Rotation=0.000|XOffset=0mil|YOffset=0mil|HoleType=Round|Shape=RoundedRectangle|*
%AMROUNDEDRECTD131*
21,1,0.0591,0.0925,0,0,0.0*
21,1,0.0531,0.0984,0,0,0.0*
1,1,0.0059,0.0266,-0.0463*
1,1,0.0059,-0.0266,-0.0463*
1,1,0.0059,-0.0266,0.0463*
1,1,0.0059,0.0266,0.0463*
%
%ADD131ROUNDEDRECTD131*%
G04:AMPARAMS|DCode=132|XSize=70.9mil|YSize=98.4mil|CornerRadius=3.5mil|HoleSize=0mil|Usage=FLASHONLY|Rotation=0.000|XOffset=0mil|YOffset=0mil|HoleType=Round|Shape=RoundedRectangle|*
%AMROUNDEDRECTD132*
21,1,0.0709,0.0913,0,0,0.0*
21,1,0.0638,0.0984,0,0,0.0*
1,1,0.0071,0.0319,-0.0457*
1,1,0.0071,-0.0319,-0.0457*
1,1,0.0071,-0.0319,0.0457*
1,1,0.0071,0.0319,0.0457*
%
%ADD132ROUNDEDRECTD132*%
G36*
X0228Y043203D02*
X022709Y043191D01*
X022624Y043156D01*
X02255Y0431D01*
X022494Y043027D01*
X022459Y042941D01*
X022447Y04285D01*
X022455Y042791D01*
X022005Y042341D01*
X021962Y042276D01*
X021946Y042198D01*
Y029482D01*
X021896Y029432D01*
X021874Y0294D01*
X021809Y029391D01*
X021723Y029356D01*
X021697Y029336D01*
X021652Y029358D01*
Y029582D01*
X021637Y029659D01*
X021593Y029725D01*
X021432Y029886D01*
X021441Y029909D01*
X021453Y03D01*
X021441Y030091D01*
X021406Y030177D01*
X02135Y03025D01*
X021277Y030306D01*
X021191Y030341D01*
X0211Y030353D01*
X021009Y030341D01*
X020923Y030306D01*
X02085Y03025D01*
X020794Y030177D01*
X020759Y030091D01*
X020747Y03D01*
X020759Y029909D01*
X020794Y029823D01*
X02085Y02975D01*
X020923Y029694D01*
X021009Y029659D01*
X021099Y029647D01*
X021248Y029498D01*
Y028909D01*
X021198Y028888D01*
X020995Y029091D01*
X021003Y02915D01*
X020991Y029241D01*
X020956Y029327D01*
X0209Y0294D01*
X020827Y029456D01*
X020741Y029491D01*
X02065Y029503D01*
X020559Y029491D01*
X020473Y029456D01*
X0204Y0294D01*
X020344Y029327D01*
X020309Y029241D01*
X020297Y02915D01*
X020309Y029059D01*
X020344Y028973D01*
X0204Y0289D01*
X020473Y028844D01*
X020559Y028809D01*
X02065Y028797D01*
X020709Y028805D01*
X020898Y028616D01*
Y023986D01*
X02085Y02395D01*
X020794Y023877D01*
X020759Y023791D01*
X020747Y0237D01*
X020759Y023609D01*
X020794Y023523D01*
X02085Y02345D01*
X020923Y023394D01*
X021009Y023359D01*
X0211Y023347D01*
X021191Y023359D01*
X021277Y023394D01*
X02135Y02345D01*
X021406Y023523D01*
X021441Y023609D01*
X021453Y0237D01*
X021441Y023791D01*
X021406Y023877D01*
X02135Y02395D01*
X021302Y023986D01*
Y024541D01*
X021352Y024562D01*
X021477Y024437D01*
X021469Y024378D01*
X021481Y024287D01*
X021516Y024202D01*
X021572Y024129D01*
X021645Y024072D01*
X02173Y024037D01*
X021822Y024025D01*
X021913Y024037D01*
X021998Y024072D01*
X022071Y024129D01*
X022128Y024202D01*
X022163Y024287D01*
X022175Y024378D01*
X022163Y02447D01*
X022128Y024555D01*
X022071Y024628D01*
X021998Y024684D01*
X021913Y024719D01*
X021822Y024731D01*
X021763Y024723D01*
X021652Y024834D01*
Y028742D01*
X021697Y028764D01*
X021723Y028744D01*
X021809Y028709D01*
X0219Y028697D01*
X021991Y028709D01*
X022077Y028744D01*
X02215Y0288D01*
X022206Y028873D01*
X022241Y028959D01*
X022253Y02905D01*
X022241Y029141D01*
X022222Y029186D01*
X022291Y029255D01*
X022335Y029321D01*
X022351Y029398D01*
Y042115D01*
X022741Y042505D01*
X0228Y042497D01*
Y041667D01*
X022773Y041656D01*
X0227Y0416D01*
X022644Y041527D01*
X022609Y041441D01*
X022597Y04135D01*
X022609Y041259D01*
X022644Y041173D01*
X0227Y0411D01*
X022748Y041064D01*
Y024451D01*
X022763Y024373D01*
X022807Y024308D01*
X02285Y024265D01*
Y02325D01*
X019561D01*
X019557Y0233D01*
X01959Y023304D01*
X019661Y023314D01*
X019764Y023356D01*
X019853Y023425D01*
X019921Y023513D01*
X019964Y023617D01*
X019979Y023728D01*
Y023828D01*
X019964Y023939D01*
X019921Y024042D01*
X019853Y024131D01*
X019764Y024199D01*
X019661Y024242D01*
X01955Y024256D01*
X019439Y024242D01*
X019336Y024199D01*
X019247Y024131D01*
X019179Y024042D01*
X019136Y023939D01*
X019121Y023828D01*
Y023728D01*
X019136Y023617D01*
X019179Y023513D01*
X019247Y023425D01*
X019336Y023356D01*
X019439Y023314D01*
X01951Y023304D01*
X019543Y0233D01*
X019539Y02325D01*
X018551D01*
X018547Y0233D01*
X01858Y023304D01*
X018651Y023314D01*
X018754Y023356D01*
X018843Y023425D01*
X018911Y023513D01*
X018954Y023617D01*
X018969Y023728D01*
Y023828D01*
X018954Y023939D01*
X018911Y024042D01*
X018843Y024131D01*
X018754Y024199D01*
X018651Y024242D01*
X01854Y024256D01*
X018429Y024242D01*
X018326Y024199D01*
X018237Y024131D01*
X018169Y024042D01*
X018126Y023939D01*
X018111Y023828D01*
Y023728D01*
X018126Y023617D01*
X018169Y023513D01*
X018237Y023425D01*
X018326Y023356D01*
X018429Y023314D01*
X0185Y023304D01*
X018533Y0233D01*
X018529Y02325D01*
X0097D01*
Y04675D01*
X014548D01*
X014585Y0467D01*
X014582Y046681D01*
Y045756D01*
X014592Y045706D01*
X01462Y045663D01*
X014663Y045634D01*
X014714Y045624D01*
X015245D01*
X015296Y045634D01*
X015339Y045663D01*
X015367Y045706D01*
X015377Y045756D01*
Y046681D01*
X015374Y0467D01*
X015411Y04675D01*
X020769D01*
X020806Y0467D01*
X020802Y046681D01*
Y045756D01*
X020812Y045706D01*
X020841Y045663D01*
X020884Y045634D01*
X020934Y045624D01*
X021466D01*
X021516Y045634D01*
X021559Y045663D01*
X021588Y045706D01*
X021598Y045756D01*
Y046681D01*
X021594Y0467D01*
X021631Y04675D01*
X0228D01*
Y043203D01*
D02*
G37*
G36*
X029006Y043909D02*
X028926Y043869D01*
X028854Y043826D01*
X028789Y04378D01*
X028732Y043731D01*
X028683Y043679D01*
X028642Y043624D01*
X028608Y043566D01*
X028582Y043505D01*
X028563Y043441D01*
X028553Y043374D01*
X028367Y043466D01*
X028489Y04415D01*
X029006Y043909D01*
D02*
G37*
G36*
X0333Y04275D02*
X0347D01*
X0355Y04195D01*
X0355Y02285D01*
X03155Y02285D01*
Y02325D01*
X03175Y02345D01*
X0341D01*
X034453Y023803D01*
X034453Y04035D01*
X03295Y04035D01*
X0329Y0403D01*
X0325Y04055D01*
Y04205D01*
X03307Y04262D01*
X0331Y04295D01*
X0333Y04275D01*
D02*
G37*
G36*
X0233Y04665D02*
X03555D01*
Y04211D01*
X035504Y04209D01*
X034772Y042822D01*
X034739Y042844D01*
X0347Y042852D01*
X034046D01*
X034001Y042935D01*
X033926Y043026D01*
X033835Y043101D01*
X033731Y043157D01*
X033618Y043191D01*
X0335Y043203D01*
X0329D01*
X032782Y043191D01*
X032669Y043157D01*
X032565Y043101D01*
X032474Y043026D01*
X032399Y042935D01*
X032343Y042831D01*
X032309Y042718D01*
X032297Y0426D01*
X032309Y042482D01*
X032343Y042369D01*
X032399Y042265D01*
X032474Y042174D01*
X032474Y042168D01*
X032428Y042122D01*
X032406Y042089D01*
X032398Y04205D01*
Y040995D01*
X032392D01*
Y040837D01*
X032348Y040803D01*
X032342Y040803D01*
X032282Y040882D01*
X032199Y040945D01*
X032103Y040985D01*
X03205Y040992D01*
Y0406D01*
Y040208D01*
X032103Y040215D01*
X032199Y040255D01*
X032282Y040318D01*
X032342Y040397D01*
X032348Y040397D01*
X032392Y040363D01*
Y040205D01*
X032866D01*
X032872Y040204D01*
X032883Y040199D01*
X032892Y0402D01*
X0329Y040198D01*
X032911Y0402D01*
X032923Y040201D01*
X032931Y040204D01*
X032934Y040205D01*
X033183D01*
Y040248D01*
X034351Y040248D01*
X034351Y023845D01*
X034158Y023652D01*
X031769D01*
X031759Y023702D01*
X031799Y023719D01*
X031902Y023798D01*
X031964Y023878D01*
X031293D01*
Y023852D01*
X031259Y023878D01*
X031175D01*
Y023931D01*
X031129Y023954D01*
X031091Y023969D01*
X031119Y023901D01*
X031198Y023798D01*
X031301Y023719D01*
X031358Y023695D01*
X031353Y023643D01*
X031323Y023637D01*
X031257Y023593D01*
X031213Y023527D01*
X03121Y023511D01*
X031198Y023502D01*
X031119Y023399D01*
X031069Y023279D01*
X031052Y02315D01*
X031069Y023021D01*
X031119Y022901D01*
X031198Y022798D01*
X031301Y022719D01*
X031402Y022677D01*
Y022623D01*
X031301Y022581D01*
X031198Y022502D01*
X031119Y022399D01*
X031069Y022279D01*
X031052Y02215D01*
X031069Y022021D01*
X031119Y021901D01*
X031198Y021798D01*
X031301Y021719D01*
X031421Y021669D01*
X03155Y021652D01*
X031679Y021669D01*
X031799Y021719D01*
X031902Y021798D01*
X031981Y021901D01*
X032031Y022021D01*
X032048Y02215D01*
X032031Y022279D01*
X031981Y022399D01*
X031902Y022502D01*
X031799Y022581D01*
X031698Y022623D01*
Y022677D01*
X031799Y022719D01*
X031837Y022748D01*
X0355Y022748D01*
X03555Y022708D01*
Y00995D01*
X0354Y0098D01*
X0353Y0099D01*
X034752D01*
Y012186D01*
X034752Y012187D01*
X034737Y012374D01*
X034693Y012557D01*
X034621Y012732D01*
X034523Y012892D01*
X034401Y013035D01*
X0344Y013036D01*
X034286Y01315D01*
X034278Y013155D01*
X034184Y01327D01*
X034111Y013408D01*
X034065Y013558D01*
X03405Y013705D01*
X034052Y013714D01*
Y015502D01*
X034052Y015503D01*
X034037Y01569D01*
X033993Y015873D01*
X033921Y016047D01*
X033823Y016208D01*
X0337Y016352D01*
X033557Y016474D01*
X033396Y016573D01*
X033221Y016645D01*
X033038Y016689D01*
X032852Y016704D01*
X03285Y016704D01*
X027643D01*
X027634Y016702D01*
X027487Y016717D01*
X027337Y016762D01*
X027198Y016836D01*
X027084Y01693D01*
X027079Y016938D01*
X025716Y0183D01*
X025715Y018301D01*
X025573Y018423D01*
X025412Y018521D01*
X025237Y018593D01*
X025054Y018637D01*
X024867Y018652D01*
X024866Y018652D01*
X0182D01*
X018198Y018652D01*
X018012Y018637D01*
X017829Y018593D01*
X017654Y018521D01*
X017493Y018423D01*
X01735Y0183D01*
X017227Y018157D01*
X017129Y017996D01*
X017057Y017821D01*
X017013Y017638D01*
X016998Y017452D01*
X016998Y01745D01*
Y015962D01*
X016993Y015838D01*
X016981Y015718D01*
X016973Y015673D01*
X016965Y015637D01*
X016957Y015612D01*
X016951Y0156D01*
X016951Y0156D01*
X01695Y0156D01*
X016902Y015537D01*
X016857Y015547D01*
X016852Y01555D01*
Y0183D01*
X01685Y018309D01*
X016865Y018456D01*
X016911Y018606D01*
X016984Y018745D01*
X017084Y018866D01*
X017205Y018966D01*
X017344Y019039D01*
X017484Y019082D01*
X017484Y019082D01*
X017519Y019091D01*
X017529Y019098D01*
X022938D01*
X023062Y019093D01*
X023182Y019081D01*
X023227Y019073D01*
X023263Y019065D01*
X023288Y019057D01*
X0233Y019051D01*
X0233Y019051D01*
X0233Y01905D01*
X023373Y018994D01*
X023459Y018959D01*
X02355Y018947D01*
X023641Y018959D01*
X023727Y018994D01*
X0238Y01905D01*
X0238Y019051D01*
X0238Y019051D01*
X023812Y019057D01*
X023837Y019065D01*
X023873Y019073D01*
X023916Y019081D01*
X024175Y019098D01*
X024792D01*
X024801Y0191D01*
X024948Y019085D01*
X025098Y019039D01*
X025237Y018966D01*
X025351Y018872D01*
X025356Y018864D01*
X026944Y017276D01*
X026946Y017275D01*
X027088Y017153D01*
X027171Y017103D01*
X027182Y017094D01*
X027186Y017093D01*
X027191Y01709D01*
X027192Y01709D01*
X027249Y017055D01*
X027423Y016983D01*
X027545Y016954D01*
X027654Y016911D01*
X027681Y016876D01*
X027754Y01682D01*
X027839Y016785D01*
X02793Y016773D01*
X028022Y016785D01*
X028107Y01682D01*
X02818Y016876D01*
X028236Y016949D01*
X028271Y017035D01*
X028283Y017126D01*
X028271Y017217D01*
X028236Y017302D01*
X02818Y017376D01*
X028107Y017432D01*
X028022Y017467D01*
X02793Y017479D01*
X027839Y017467D01*
X027754Y017432D01*
X02775Y017429D01*
X027711Y017409D01*
X027668Y017394D01*
X027627Y017385D01*
X027585Y017381D01*
X027543Y017384D01*
X027499Y017392D01*
X027454Y017406D01*
X027433Y017416D01*
X027362Y017454D01*
X027357Y017457D01*
X027336Y017472D01*
X027236Y017554D01*
X02723Y017562D01*
X025642Y01915D01*
X025641Y019151D01*
X025499Y019273D01*
X025338Y019371D01*
X025164Y019443D01*
X02498Y019487D01*
X024794Y019502D01*
X024792Y019502D01*
X024162D01*
X024038Y019507D01*
X023918Y019519D01*
X023873Y019527D01*
X023837Y019535D01*
X023812Y019543D01*
X0238Y019549D01*
X0238Y019549D01*
X0238Y01955D01*
X023727Y019606D01*
X023641Y019641D01*
X02355Y019653D01*
X023459Y019641D01*
X023373Y019606D01*
X0233Y01955D01*
X0233Y019549D01*
X0233Y019549D01*
X023288Y019543D01*
X023263Y019535D01*
X023227Y019527D01*
X023184Y019519D01*
X022925Y019502D01*
X017464D01*
Y019503D01*
X017378Y019486D01*
X017335Y019457D01*
X017279Y019443D01*
X017104Y019371D01*
X016943Y019273D01*
X0168Y01915D01*
X016677Y019007D01*
X016579Y018846D01*
X016507Y018671D01*
X016463Y018488D01*
X016448Y018302D01*
X016448Y0183D01*
Y01395D01*
X016449Y013944D01*
X016438Y01386D01*
X016403Y013775D01*
X016347Y013703D01*
X016341Y013698D01*
X01634Y013698D01*
X016244Y013723D01*
X016214Y013733D01*
X016209Y013734D01*
X016191Y013741D01*
X0161Y013753D01*
X016009Y013741D01*
X015923Y013706D01*
X01585Y01365D01*
X015794Y013577D01*
X015759Y013491D01*
X015747Y0134D01*
X015759Y013309D01*
X015794Y013223D01*
X01585Y01315D01*
X015923Y013094D01*
X016009Y013059D01*
X0161Y013047D01*
X016191Y013059D01*
X016277Y013094D01*
X01635Y01315D01*
X016384Y013195D01*
X01639Y013201D01*
X016414Y013235D01*
X016436Y013261D01*
X016445Y013271D01*
X016466Y013291D01*
X016474Y013298D01*
X016482Y013304D01*
X016493Y013311D01*
X016494Y013312D01*
X016495Y013312D01*
X016496Y013313D01*
X016496Y013313D01*
X016518Y013325D01*
X016632Y013418D01*
X016725Y013532D01*
X016795Y013662D01*
X016838Y013803D01*
X016852Y013947D01*
X016852Y01395D01*
Y01515D01*
X016857Y015153D01*
X016902Y015163D01*
X01695Y0151D01*
X017023Y015044D01*
X017109Y015009D01*
X0172Y014997D01*
X017291Y015009D01*
X017377Y015044D01*
X01745Y0151D01*
X017506Y015173D01*
X017541Y015259D01*
X017553Y01535D01*
X017541Y015441D01*
X017506Y015527D01*
X01745Y0156D01*
X017449Y0156D01*
X017449Y0156D01*
X017443Y015612D01*
X017435Y015637D01*
X017427Y015673D01*
X017419Y015716D01*
X017402Y015975D01*
Y01745D01*
X0174Y017459D01*
X017415Y017606D01*
X017461Y017756D01*
X017534Y017895D01*
X017634Y018016D01*
X017755Y018116D01*
X017894Y01819D01*
X018044Y018235D01*
X018191Y01825D01*
X0182Y018248D01*
X024866D01*
X024875Y01825D01*
X025022Y018235D01*
X025172Y01819D01*
X025311Y018116D01*
X025327Y018102D01*
X025304Y018056D01*
X025174Y018087D01*
X024987Y018102D01*
X024986Y018102D01*
X018795D01*
X018793Y018102D01*
X018607Y018087D01*
X018423Y018043D01*
X018249Y017971D01*
X018088Y017873D01*
X017945Y01775D01*
X017822Y017607D01*
X017724Y017446D01*
X017651Y017271D01*
X017607Y017088D01*
X017593Y016902D01*
X017592Y0169D01*
Y016269D01*
X017593Y016268D01*
X017607Y016081D01*
X017632Y015981D01*
X017638Y015947D01*
X01764Y015944D01*
X017651Y015898D01*
X017724Y015724D01*
X017799Y015601D01*
X017815Y015574D01*
X017816Y015573D01*
X017816Y015573D01*
X017822Y015563D01*
X017845Y015534D01*
X017845Y015534D01*
X017993Y015412D01*
X018163Y015322D01*
X018347Y015266D01*
X018539Y015247D01*
Y015248D01*
X018725D01*
X018743Y015245D01*
X018759Y015241D01*
X018769Y015236D01*
X018775Y015232D01*
X018779Y015229D01*
X018781Y015225D01*
X018784Y015219D01*
X018786Y015208D01*
X018788Y015185D01*
X018788Y015183D01*
Y01509D01*
X018886D01*
X018889Y015089D01*
X018893Y01509D01*
X018896Y015089D01*
X018898Y01509D01*
X019488D01*
Y01579D01*
X018899D01*
X018897Y01579D01*
X018893Y01579D01*
X018889Y015791D01*
X018886Y01579D01*
X018788D01*
Y015698D01*
X018788Y015696D01*
X018786Y015678D01*
X018785Y015672D01*
X018784Y01567D01*
X018783Y015669D01*
X01878Y015667D01*
X018774Y015663D01*
X018763Y015659D01*
X018745Y015655D01*
X018728Y015652D01*
X018539D01*
X018527Y01565D01*
X018389Y015668D01*
X018249Y015726D01*
X018144Y015807D01*
X018129Y015825D01*
X018055Y015963D01*
X018022Y016074D01*
X01801Y016113D01*
X017995Y01626D01*
X017997Y016269D01*
Y0169D01*
X017995Y016909D01*
X01801Y017056D01*
X018055Y017206D01*
X018129Y017345D01*
X018229Y017466D01*
X01835Y017566D01*
X018488Y017639D01*
X018639Y017685D01*
X018786Y0177D01*
X018795Y017698D01*
X024986D01*
X024995Y0177D01*
X025142Y017685D01*
X025292Y017639D01*
X02543Y017566D01*
X025545Y017472D01*
X02555Y017464D01*
X026659Y016355D01*
X026661Y016354D01*
X026803Y016232D01*
X026937Y01615D01*
X026923Y0161D01*
X025007D01*
X024992Y016117D01*
X024967Y016149D01*
X02495Y016174D01*
Y016261D01*
X024951Y016264D01*
X02495Y016268D01*
Y01657D01*
X02425D01*
Y01587D01*
X024552D01*
X024555Y015869D01*
X024559Y01587D01*
X024646D01*
X02467Y015854D01*
X024687Y01584D01*
X024669Y01579D01*
X02425D01*
Y01509D01*
X02484D01*
X024842Y015089D01*
X024845Y01509D01*
X024849Y015089D01*
X024853Y01509D01*
X02495D01*
Y015182D01*
X024951Y015184D01*
X024952Y015205D01*
X024954Y015213D01*
X024956Y015218D01*
X024958Y01522D01*
X02496Y015223D01*
X024966Y015226D01*
X024977Y015231D01*
X024994Y015235D01*
X025012Y015238D01*
X03025D01*
X030259Y01524D01*
X030406Y015225D01*
X030556Y01518D01*
X030695Y015106D01*
X030816Y015006D01*
X030916Y014885D01*
X03099Y014746D01*
X031035Y014596D01*
X03105Y014449D01*
X031048Y01444D01*
Y012561D01*
X031044Y012406D01*
X031026Y012216D01*
X031014Y012138D01*
X030999Y012071D01*
X030982Y012015D01*
X030964Y011971D01*
X030946Y01194D01*
X030934Y011925D01*
X030929Y011921D01*
X030857Y011827D01*
X030812Y011717D01*
X030796Y0116D01*
X030812Y011483D01*
X030857Y011373D01*
X030929Y011279D01*
X031023Y011207D01*
X031133Y011162D01*
X03125Y011146D01*
X031367Y011162D01*
X031477Y011207D01*
X031571Y011279D01*
X031643Y011373D01*
X031688Y011483D01*
X031704Y0116D01*
X031688Y011717D01*
X031643Y011827D01*
X031571Y011921D01*
X031566Y011925D01*
X031554Y01194D01*
X031536Y011971D01*
X031518Y012015D01*
X031501Y012071D01*
X031486Y012138D01*
X031474Y012215D01*
X031452Y012511D01*
Y01444D01*
X031452Y014442D01*
X031437Y014628D01*
X031393Y014811D01*
X031321Y014986D01*
X031223Y015147D01*
X0311Y01529D01*
X030957Y015413D01*
X030796Y015511D01*
X030621Y015583D01*
X030438Y015627D01*
X030252Y015642D01*
X03025Y015642D01*
X025041D01*
X025037Y015646D01*
X025058Y015696D01*
X027982D01*
X028032Y015706D01*
X031182D01*
X031192Y015708D01*
X031314Y015691D01*
X031436Y015641D01*
X031542Y01556D01*
X031623Y015454D01*
X031673Y015332D01*
X031689Y01521D01*
X031687Y0152D01*
Y01196D01*
X031703Y011883D01*
X031747Y011817D01*
X031779Y011784D01*
X031784Y011779D01*
X031797Y011764D01*
X031806Y01175D01*
X031813Y011738D01*
X031817Y011731D01*
X031817Y01173D01*
X031812Y011717D01*
X031796Y0116D01*
X031812Y011483D01*
X031857Y011373D01*
X031929Y011279D01*
X032023Y011207D01*
X032133Y011162D01*
X03225Y011146D01*
X032367Y011162D01*
X032477Y011207D01*
X032571Y011279D01*
X032643Y011373D01*
X032688Y011483D01*
X032704Y0116D01*
X032688Y011717D01*
X032643Y011827D01*
X032571Y011921D01*
X032477Y011993D01*
X032367Y012038D01*
X03225Y012054D01*
X032138Y012039D01*
X032114Y012053D01*
X032092Y012071D01*
Y0152D01*
X032093D01*
X032075Y015378D01*
X032023Y015548D01*
X031939Y015706D01*
X031826Y015844D01*
X031694Y015952D01*
X031697Y015995D01*
X031699Y016002D01*
X0324D01*
X032409Y016004D01*
X032556Y01599D01*
X032706Y015944D01*
X032845Y01587D01*
X032966Y015771D01*
X033066Y015649D01*
X03314Y015511D01*
X033185Y015361D01*
X0332Y015214D01*
X033198Y015205D01*
Y013205D01*
X033199Y013199D01*
X033211Y013039D01*
X03325Y012878D01*
X033314Y012724D01*
X0334Y012583D01*
X033504Y012461D01*
X033507Y012456D01*
X033508Y012456D01*
X033508Y012456D01*
X033508Y012456D01*
X033589Y012375D01*
X033624Y01234D01*
X033657Y012304D01*
X033721Y012226D01*
X033792Y012093D01*
X033836Y011949D01*
X033849Y011809D01*
X033848Y0118D01*
Y010034D01*
X033716Y009902D01*
X0328D01*
X032795Y009901D01*
X032785Y009902D01*
X032747Y009907D01*
X032717Y009918D01*
X032692Y009936D01*
X032671Y009964D01*
X032653Y010008D01*
X032641Y010069D01*
X032638Y01015D01*
X032644Y010248D01*
X032661Y010362D01*
X032685Y010475D01*
X032688Y010483D01*
X032704Y0106D01*
X032688Y010717D01*
X032643Y010827D01*
X032571Y010921D01*
X032477Y010993D01*
X032367Y011038D01*
X03225Y011054D01*
X032133Y011038D01*
X032023Y010993D01*
X031929Y010921D01*
X031857Y010827D01*
X031812Y010717D01*
X031796Y0106D01*
X031812Y010483D01*
X031857Y010373D01*
X031929Y010279D01*
X032023Y010207D01*
X032053Y010194D01*
X032062Y010103D01*
X032105Y009962D01*
X032116Y009943D01*
X03209Y0099D01*
X031493D01*
X03146Y00995D01*
X031465Y009989D01*
X031476Y010046D01*
X031489Y010099D01*
X031506Y010148D01*
X031526Y010194D01*
X031548Y010237D01*
X031573Y010278D01*
X031604Y010319D01*
X031607Y010326D01*
X031643Y010373D01*
X031688Y010483D01*
X031704Y0106D01*
X031688Y010717D01*
X031643Y010827D01*
X031571Y010921D01*
X031477Y010993D01*
X031367Y011038D01*
X03125Y011054D01*
X031133Y011038D01*
X031023Y010993D01*
X030929Y010921D01*
X030857Y010827D01*
X030812Y010717D01*
X030796Y0106D01*
X030812Y010483D01*
X030857Y010373D01*
X030893Y010326D01*
X030896Y010319D01*
X030927Y010278D01*
X030952Y010237D01*
X030974Y010194D01*
X030994Y010148D01*
X031011Y010099D01*
X031024Y010046D01*
X031035Y009991D01*
X031041Y009937D01*
X031007Y0099D01*
X0099D01*
X0099Y0229D01*
X011913D01*
X011931Y02285D01*
X011815Y022751D01*
X011814Y02275D01*
X01045Y021386D01*
X010449Y021385D01*
X010327Y021242D01*
X010229Y021082D01*
X010157Y020907D01*
X010113Y020724D01*
X010098Y020537D01*
X010098Y020536D01*
Y01245D01*
X010099Y012446D01*
X010106Y012353D01*
X010104Y012344D01*
X010108Y012322D01*
X010112Y012278D01*
X010152Y01211D01*
X010218Y01195D01*
X010309Y011802D01*
X010421Y011671D01*
X010552Y011559D01*
X0107Y011468D01*
X01086Y011402D01*
X011028Y011362D01*
X011072Y011358D01*
X011094Y011354D01*
X011103Y011356D01*
X011196Y011349D01*
X0112Y011348D01*
X015486D01*
X015487Y011348D01*
X015674Y011363D01*
X015857Y011407D01*
X016032Y011479D01*
X016192Y011577D01*
X016335Y011699D01*
X016336Y0117D01*
X01799Y013354D01*
X017995Y013362D01*
X01811Y013456D01*
X018248Y013529D01*
X018398Y013575D01*
X018545Y01359D01*
X018554Y013588D01*
X018742D01*
X018753Y013587D01*
X018775Y013584D01*
X018788Y013581D01*
Y01351D01*
X018886D01*
X018889Y013509D01*
X018893Y01351D01*
X019488D01*
Y01421D01*
X018897D01*
X018894Y014211D01*
X018892Y01421D01*
X018889Y014211D01*
X018886Y01421D01*
X018788D01*
Y014116D01*
X018788Y014114D01*
X018786Y014077D01*
X018782Y014052D01*
X018776Y014033D01*
X01877Y01402D01*
X018764Y014012D01*
X018757Y014006D01*
X018748Y014D01*
X018736Y013996D01*
X018719Y013992D01*
X018554D01*
X018553Y013992D01*
X018366Y013977D01*
X018183Y013933D01*
X018008Y013861D01*
X017848Y013763D01*
X017705Y013641D01*
X017704Y01364D01*
X01605Y011986D01*
X016045Y011978D01*
X01593Y011884D01*
X015792Y01181D01*
X015642Y011765D01*
X015495Y01175D01*
X015486Y011752D01*
X0112D01*
X011192Y011751D01*
X011063Y011763D01*
X010932Y011803D01*
X010811Y011868D01*
X010705Y011955D01*
X010618Y012061D01*
X010553Y012182D01*
X010513Y012313D01*
X010501Y012442D01*
X010502Y01245D01*
Y020536D01*
X0105Y020545D01*
X010515Y020692D01*
X01056Y020842D01*
X010634Y02098D01*
X010728Y021095D01*
X010736Y0211D01*
X0121Y022464D01*
X012105Y022472D01*
X01222Y022566D01*
X012358Y02264D01*
X012508Y022685D01*
X012655Y0227D01*
X012664Y022698D01*
X024236D01*
X024237Y022698D01*
X024424Y022713D01*
X024607Y022757D01*
X024782Y022829D01*
X024942Y022927D01*
X025085Y023049D01*
X025086Y02305D01*
X0283Y026264D01*
X028301Y026265D01*
X028423Y026408D01*
X028521Y026568D01*
X028593Y026743D01*
X028637Y026926D01*
X028652Y027113D01*
X028652Y027114D01*
Y043286D01*
X02865Y043295D01*
X028662Y043412D01*
X028663Y043419D01*
X028678Y043471D01*
X028699Y04352D01*
X028727Y043568D01*
X028761Y043613D01*
X028803Y043657D01*
X028852Y0437D01*
X02891Y043741D01*
X028975Y04378D01*
X029052Y043818D01*
X029056Y043821D01*
X02909Y043835D01*
X029189Y043911D01*
X029265Y04401D01*
X029313Y044126D01*
X029329Y04425D01*
X029313Y044374D01*
X029265Y04449D01*
X029189Y044589D01*
X02909Y044665D01*
X028974Y044713D01*
X02885Y044729D01*
X028726Y044713D01*
X02861Y044665D01*
X028511Y044589D01*
X028435Y04449D01*
X028387Y044374D01*
X028371Y04425D01*
X028384Y044147D01*
X028269Y0435D01*
X028263Y043474D01*
X028248Y043287D01*
X028248Y043286D01*
Y027114D01*
X02825Y027105D01*
X028235Y026958D01*
X028189Y026808D01*
X028116Y02667D01*
X028022Y026555D01*
X028014Y02655D01*
X0248Y023336D01*
X024795Y023328D01*
X02468Y023234D01*
X024542Y023161D01*
X024392Y023115D01*
X024245Y0231D01*
X024236Y023102D01*
X023342D01*
X023339Y023528D01*
X023389Y023538D01*
X023395Y023523D01*
X023451Y02345D01*
X023524Y023394D01*
X023609Y023359D01*
X023701Y023347D01*
X023792Y023359D01*
X023877Y023394D01*
X02395Y02345D01*
X024007Y023523D01*
X024042Y023609D01*
X024054Y0237D01*
X024042Y023791D01*
X024007Y023877D01*
X02395Y02395D01*
X023877Y024006D01*
X023792Y024041D01*
X023701Y024053D01*
X023642Y024045D01*
X023334Y024353D01*
X023234Y041145D01*
X023256Y041173D01*
X023291Y041259D01*
X023303Y04135D01*
X023291Y041441D01*
X023256Y041527D01*
X023231Y041559D01*
X023217Y043923D01*
X023258Y043951D01*
X023287Y04394D01*
X0234Y043925D01*
X023513Y04394D01*
X023619Y043983D01*
X02371Y044053D01*
X02378Y044144D01*
X023823Y04425D01*
X023838Y044363D01*
X023823Y044476D01*
X02378Y044582D01*
X02371Y044673D01*
X023619Y044743D01*
X023513Y044786D01*
X0234Y044801D01*
X023287Y044786D01*
X023253Y044773D01*
X023212Y0448D01*
X023211Y044913D01*
X023252Y044941D01*
X023287Y044927D01*
X0234Y044912D01*
X023513Y044927D01*
X023619Y04497D01*
X02371Y04504D01*
X02378Y045131D01*
X023823Y045237D01*
X023838Y04535D01*
X023823Y045463D01*
X02378Y045569D01*
X02371Y04566D01*
X023619Y04573D01*
X023602Y045737D01*
Y045916D01*
X023784Y046098D01*
X028191D01*
X028597Y045692D01*
X028597Y045692D01*
X028682Y045607D01*
X028748Y045563D01*
X028825Y045548D01*
X028847Y045552D01*
X028945Y045472D01*
X02895Y045464D01*
X029664Y04475D01*
X029672Y044745D01*
X029766Y04463D01*
X029839Y044492D01*
X029885Y044342D01*
X0299Y044195D01*
X029898Y044186D01*
Y027764D01*
X0299Y027755D01*
X029885Y027608D01*
X029839Y027458D01*
X029766Y02732D01*
X029672Y027205D01*
X029664Y0272D01*
X0251Y022636D01*
X025095Y022628D01*
X02498Y022534D01*
X024842Y02246D01*
X024692Y022415D01*
X024545Y0224D01*
X024536Y022402D01*
X013214D01*
X013213Y022402D01*
X013026Y022387D01*
X012843Y022343D01*
X012668Y022271D01*
X012508Y022173D01*
X012365Y022051D01*
X012364Y02205D01*
X01105Y020736D01*
X011049Y020735D01*
X010927Y020592D01*
X010829Y020432D01*
X010757Y020257D01*
X010713Y020074D01*
X010698Y019887D01*
X010698Y019886D01*
Y01295D01*
X010698Y012947D01*
X010706Y012853D01*
X010704Y012844D01*
X010708Y012822D01*
X010712Y012774D01*
X010753Y012602D01*
X010821Y012438D01*
X010913Y012288D01*
X011028Y012153D01*
X011163Y012038D01*
X011313Y011946D01*
X011477Y011878D01*
X011649Y011837D01*
X011697Y011833D01*
X011719Y011829D01*
X011728Y011831D01*
X011822Y011823D01*
X011825Y011823D01*
X015261D01*
X015262Y011823D01*
X015449Y011838D01*
X015632Y011882D01*
X015807Y011954D01*
X015967Y012052D01*
X01611Y012174D01*
X016111Y012175D01*
X018077Y014141D01*
X018111Y014175D01*
X018148Y014208D01*
X018215Y014263D01*
X018335Y014327D01*
X018465Y014367D01*
X018593Y014379D01*
X0186Y014378D01*
X018742D01*
X018753Y014377D01*
X018775Y014374D01*
X018788Y014371D01*
Y0143D01*
X018886D01*
X018889Y014299D01*
X018893Y0143D01*
X019488D01*
Y015D01*
X018897D01*
X018894Y015001D01*
X018892Y015D01*
X018889Y015001D01*
X018886Y015D01*
X018788D01*
Y014906D01*
X018788Y014904D01*
X018786Y014867D01*
X018782Y014842D01*
X018776Y014823D01*
X01877Y01481D01*
X018764Y014802D01*
X018757Y014796D01*
X018748Y01479D01*
X018736Y014786D01*
X018719Y014782D01*
X0186D01*
X018596Y014781D01*
X018429Y014768D01*
X018262Y014728D01*
X018103Y014662D01*
X017956Y014573D01*
X017829Y014464D01*
X017825Y014461D01*
X015825Y012461D01*
X01582Y012453D01*
X015705Y012359D01*
X015567Y012285D01*
X015417Y01224D01*
X01527Y012225D01*
X015261Y012227D01*
X011825D01*
X011817Y012226D01*
X011684Y012239D01*
X011548Y01228D01*
X011422Y012347D01*
X011312Y012437D01*
X011222Y012547D01*
X011155Y012673D01*
X011114Y012809D01*
X011101Y012942D01*
X011102Y01295D01*
Y019886D01*
X0111Y019895D01*
X011115Y020042D01*
X011161Y020192D01*
X011234Y02033D01*
X011328Y020445D01*
X011336Y02045D01*
X01265Y021764D01*
X012655Y021772D01*
X01277Y021866D01*
X012908Y021939D01*
X013058Y021985D01*
X013205Y022D01*
X013214Y021998D01*
X024536D01*
X024537Y021998D01*
X024724Y022013D01*
X024907Y022057D01*
X025082Y022129D01*
X025242Y022227D01*
X025385Y022349D01*
X025386Y02235D01*
X02995Y026914D01*
X029951Y026915D01*
X030073Y027058D01*
X030171Y027218D01*
X030243Y027393D01*
X030287Y027576D01*
X030302Y027763D01*
X030302Y027764D01*
Y044186D01*
X030302Y044187D01*
X030287Y044374D01*
X030243Y044557D01*
X030171Y044732D01*
X030073Y044892D01*
X029951Y045035D01*
X02995Y045036D01*
X029236Y04575D01*
X029235Y045751D01*
X029092Y045873D01*
X028932Y045971D01*
X028861Y046D01*
X028418Y046443D01*
X028352Y046487D01*
X028275Y046502D01*
X0237D01*
X023623Y046487D01*
X023557Y046443D01*
X023257Y046143D01*
X023254Y046138D01*
X023204Y046153D01*
X0232Y046684D01*
X023247Y046703D01*
X0233Y04665D01*
D02*
G37*
G36*
X023746Y019462D02*
X023774Y019449D01*
X023809Y019437D01*
X023853Y019427D01*
X023904Y019418D01*
X024031Y019405D01*
X024189Y019399D01*
X02428Y019398D01*
Y019202D01*
X024189Y019201D01*
X023904Y019182D01*
X023853Y019173D01*
X023809Y019163D01*
X023774Y019151D01*
X023746Y019138D01*
X023727Y019123D01*
Y019477D01*
X023746Y019462D01*
D02*
G37*
G36*
X023373Y019123D02*
X023354Y019138D01*
X023326Y019151D01*
X023291Y019163D01*
X023247Y019173D01*
X023196Y019182D01*
X023069Y019195D01*
X022911Y019201D01*
X02282Y019202D01*
Y019398D01*
X022911Y019399D01*
X023196Y019418D01*
X023247Y019427D01*
X023291Y019437D01*
X023326Y019449D01*
X023354Y019462D01*
X023373Y019477D01*
Y019123D01*
D02*
G37*
G36*
X027302Y017371D02*
X02736Y017337D01*
X027417Y017311D01*
X027474Y017293D01*
X02753Y017282D01*
X027586Y017279D01*
X027642Y017283D01*
X027697Y017296D01*
X027751Y017315D01*
X027805Y017343D01*
X027717Y016996D01*
X027227Y017185D01*
X027244Y017412D01*
X027302Y017371D01*
D02*
G37*
G36*
X024836Y016248D02*
X02483Y016228D01*
X024829Y016206D01*
X024834Y016181D01*
X024845Y016153D01*
X024862Y016122D01*
X024885Y016088D01*
X024913Y016052D01*
X024948Y016013D01*
X024988Y015971D01*
X024849Y015832D01*
X024807Y015872D01*
X024732Y015935D01*
X024698Y015958D01*
X024667Y015975D01*
X024639Y015986D01*
X024614Y015991D01*
X024592Y01599D01*
X024572Y015984D01*
X024555Y015971D01*
X024849Y016264D01*
X024836Y016248D01*
D02*
G37*
G36*
X017299Y015989D02*
X017318Y015704D01*
X017327Y015653D01*
X017337Y015609D01*
X017349Y015574D01*
X017362Y015546D01*
X017377Y015527D01*
X017023D01*
X017038Y015546D01*
X017051Y015574D01*
X017063Y015609D01*
X017073Y015653D01*
X017082Y015704D01*
X017095Y015831D01*
X017101Y015989D01*
X017102Y01608D01*
X017298D01*
X017299Y015989D01*
D02*
G37*
G36*
X024851Y01566D02*
X024857Y015635D01*
X024867Y015612D01*
X02488Y015593D01*
X024898Y015576D01*
X02492Y015562D01*
X024945Y015552D01*
X024975Y015544D01*
X025008Y01554D01*
X025046Y015538D01*
Y015342D01*
X025008Y01534D01*
X024975Y015336D01*
X024945Y015328D01*
X02492Y015318D01*
X024898Y015304D01*
X02488Y015287D01*
X024867Y015268D01*
X024857Y015245D01*
X024851Y01522D01*
X024849Y015191D01*
Y015689D01*
X024851Y01566D01*
D02*
G37*
G36*
X018889Y015191D02*
X018887Y015222D01*
X018882Y015249D01*
X018872Y015273D01*
X018858Y015294D01*
X01884Y015311D01*
X018819Y015326D01*
X018793Y015337D01*
X018763Y015345D01*
X01873Y01535D01*
X018693Y015352D01*
Y015548D01*
X01873Y01555D01*
X018763Y015554D01*
X018793Y015561D01*
X018819Y015571D01*
X01884Y015584D01*
X018858Y015599D01*
X018872Y015617D01*
X018882Y015638D01*
X018887Y015662D01*
X018889Y015689D01*
Y015191D01*
D02*
G37*
G36*
Y014401D02*
X018887Y014416D01*
X018882Y01443D01*
X018872Y014442D01*
X018858Y014453D01*
X01884Y014461D01*
X018819Y014469D01*
X018793Y014474D01*
X018763Y014478D01*
X01873Y014481D01*
X018693Y014482D01*
Y014678D01*
X01873Y014681D01*
X018763Y014687D01*
X018793Y014698D01*
X018819Y014714D01*
X01884Y014734D01*
X018858Y014758D01*
X018872Y014786D01*
X018882Y014819D01*
X018887Y014857D01*
X018889Y014899D01*
Y014401D01*
D02*
G37*
G36*
Y013611D02*
X018887Y013626D01*
X018882Y01364D01*
X018872Y013652D01*
X018858Y013663D01*
X01884Y013671D01*
X018819Y013679D01*
X018793Y013684D01*
X018763Y013688D01*
X01873Y013691D01*
X018693Y013692D01*
Y013888D01*
X01873Y013891D01*
X018763Y013897D01*
X018793Y013908D01*
X018819Y013924D01*
X01884Y013944D01*
X018858Y013968D01*
X018872Y013996D01*
X018882Y014029D01*
X018887Y014067D01*
X018889Y014109D01*
Y013611D01*
D02*
G37*
G36*
X016215Y013625D02*
X016321Y013598D01*
X01634Y013595D01*
X016357Y013595D01*
X01637Y013596D01*
X016381Y013598D01*
X016389Y013603D01*
X016437Y013396D01*
X016424Y013388D01*
X016411Y013378D01*
X016398Y013367D01*
X016372Y013342D01*
X016359Y013328D01*
X016333Y013297D01*
X016307Y01326D01*
X016182Y013636D01*
X016215Y013625D01*
D02*
G37*
G36*
X03135Y012513D02*
X031372Y012203D01*
X031386Y012119D01*
X031402Y012045D01*
X031422Y011981D01*
X031444Y011927D01*
X031469Y011882D01*
X031498Y011847D01*
X031002D01*
X031031Y011882D01*
X031056Y011927D01*
X031078Y011981D01*
X031098Y012045D01*
X031114Y012119D01*
X031128Y012203D01*
X031146Y0124D01*
X031152Y012636D01*
X031348D01*
X03135Y012513D01*
D02*
G37*
G36*
X031982Y012008D02*
X032025Y011972D01*
X032045Y011958D01*
X032064Y011947D01*
X032082Y011938D01*
X032099Y011933D01*
X032114Y01193D01*
X032129Y01193D01*
X032142Y011933D01*
X031917Y011708D01*
X03192Y011721D01*
X03192Y011736D01*
X031917Y011751D01*
X031912Y011768D01*
X031903Y011786D01*
X031892Y011805D01*
X031878Y011825D01*
X031862Y011846D01*
X03182Y011891D01*
X031959Y01203D01*
X031982Y012008D01*
D02*
G37*
G36*
X031489Y010335D02*
X031459Y010288D01*
X031433Y010238D01*
X031411Y010184D01*
X031392Y010128D01*
X031376Y010068D01*
X031364Y010006D01*
X031355Y00994D01*
X03135Y009872D01*
X031348Y0098D01*
X031152D01*
X03115Y009872D01*
X031136Y010006D01*
X031124Y010068D01*
X031108Y010128D01*
X031089Y010184D01*
X031067Y010238D01*
X031041Y010288D01*
X031011Y010335D01*
X030978Y010379D01*
X031522D01*
X031489Y010335D01*
D02*
G37*
G36*
X032561Y010381D02*
X032543Y010258D01*
X032536Y010151D01*
X03254Y010057D01*
X032555Y009978D01*
X032582Y009913D01*
X03262Y009863D01*
X032668Y009827D01*
X032729Y009806D01*
X0328Y009798D01*
Y009602D01*
X032168Y01026D01*
X03259Y010517D01*
X032561Y010381D01*
D02*
G37*
%LPC*%
G36*
X01128Y04658D02*
Y046123D01*
X011738D01*
X011727Y046206D01*
X011676Y04633D01*
X011594Y046436D01*
X011487Y046518D01*
X011363Y046569D01*
X01128Y04658D01*
D02*
G37*
G36*
X01328D02*
Y046123D01*
X013738D01*
X013727Y046206D01*
X013676Y04633D01*
X013594Y046436D01*
X013487Y046518D01*
X013363Y046569D01*
X01328Y04658D01*
D02*
G37*
G36*
X01118D02*
X011097Y046569D01*
X010973Y046518D01*
X010866Y046436D01*
X010785Y04633D01*
X010733Y046206D01*
X010722Y046123D01*
X01118D01*
Y04658D01*
D02*
G37*
G36*
X01318D02*
X013097Y046569D01*
X012973Y046518D01*
X012866Y046436D01*
X012785Y04633D01*
X012733Y046206D01*
X012722Y046123D01*
X01318D01*
Y04658D01*
D02*
G37*
G36*
X012256Y04602D02*
Y045851D01*
X012425D01*
X012418Y045889D01*
X012368Y045963D01*
X012294Y046013D01*
X012256Y04602D01*
D02*
G37*
G36*
X012156D02*
X012118Y046013D01*
X012044Y045963D01*
X011994Y045889D01*
X011986Y045851D01*
X012156D01*
Y04602D01*
D02*
G37*
G36*
X019841Y046424D02*
X019737Y046411D01*
X019639Y04637D01*
X019556Y046306D01*
X019492Y046223D01*
X019451Y046125D01*
X019438Y046021D01*
X019451Y045917D01*
X019492Y045819D01*
X019556Y045736D01*
X019639Y045672D01*
X019737Y045631D01*
X019841Y045617D01*
X019945Y045631D01*
X020043Y045672D01*
X020126Y045736D01*
X02019Y045819D01*
X020231Y045917D01*
X020244Y046021D01*
X020231Y046125D01*
X02019Y046223D01*
X020126Y046306D01*
X020043Y04637D01*
X019945Y046411D01*
X019841Y046424D01*
D02*
G37*
G36*
X016495D02*
X01639Y046411D01*
X016293Y04637D01*
X016209Y046306D01*
X016145Y046223D01*
X016105Y046125D01*
X016091Y046021D01*
X016105Y045917D01*
X016145Y045819D01*
X016209Y045736D01*
X016293Y045672D01*
X01639Y045631D01*
X016495Y045617D01*
X016599Y045631D01*
X016696Y045672D01*
X01678Y045736D01*
X016844Y045819D01*
X016884Y045917D01*
X016898Y046021D01*
X016884Y046125D01*
X016844Y046223D01*
X01678Y046306D01*
X016696Y04637D01*
X016599Y046411D01*
X016495Y046424D01*
D02*
G37*
G36*
X013738Y046023D02*
X01328D01*
Y045565D01*
X013363Y045576D01*
X013487Y045627D01*
X013594Y045709D01*
X013676Y045815D01*
X013727Y045939D01*
X013738Y046023D01*
D02*
G37*
G36*
X01318D02*
X012722D01*
X012733Y045939D01*
X012772Y045847D01*
X012769Y045836D01*
X01274Y045794D01*
X012671Y045781D01*
X012597Y045731D01*
X012547Y045656D01*
X01254Y045619D01*
X012759D01*
Y045569D01*
X012809D01*
Y045349D01*
X012847Y045357D01*
X012921Y045406D01*
X012971Y045481D01*
X012988Y045567D01*
X012991Y045575D01*
X013031Y045603D01*
X013097Y045576D01*
X01318Y045565D01*
Y046023D01*
D02*
G37*
G36*
X01118D02*
X010722D01*
X010733Y045939D01*
X010785Y045815D01*
X010866Y045709D01*
X010973Y045627D01*
X011097Y045576D01*
X01118Y045565D01*
Y046023D01*
D02*
G37*
G36*
X0119Y045539D02*
X01173D01*
Y04537D01*
X011768Y045377D01*
X011843Y045427D01*
X011892Y045501D01*
X0119Y045539D01*
D02*
G37*
G36*
X011738Y046023D02*
X01128D01*
Y045565D01*
X011363Y045576D01*
X011405Y045593D01*
X011457Y04556D01*
X011468Y045501D01*
X011518Y045427D01*
X011593Y045377D01*
X01163Y04537D01*
Y045589D01*
X01168D01*
Y045639D01*
X0119D01*
X011892Y045677D01*
X011843Y045751D01*
X011768Y045801D01*
X011727Y045809D01*
X011697Y045866D01*
X011727Y045939D01*
X011738Y046023D01*
D02*
G37*
G36*
X012425Y045751D02*
X011986D01*
X011994Y045713D01*
X012044Y045639D01*
X012118Y045589D01*
X012169Y045579D01*
X012167Y045528D01*
X01211Y045521D01*
X011998Y045474D01*
X011902Y045401D01*
X011828Y045305D01*
X011782Y045193D01*
X011766Y045073D01*
X011782Y044953D01*
X011793Y044925D01*
X011752Y044895D01*
X011688Y044937D01*
X011687Y044941D01*
X011695Y044987D01*
X011703Y045024D01*
X011264D01*
X011271Y044987D01*
X011321Y044912D01*
X011395Y044862D01*
X011397Y044859D01*
X011389Y044813D01*
X011381Y044775D01*
X01184D01*
X011869Y044788D01*
X011902Y044745D01*
X011998Y044671D01*
X01211Y044624D01*
X01223Y044609D01*
X01235Y044624D01*
X012462Y044671D01*
X012558Y044745D01*
X012597Y044795D01*
X012644Y044774D01*
X012643Y044769D01*
X013082D01*
X013074Y044807D01*
X01307Y044812D01*
X013087Y044877D01*
X013113Y044894D01*
X013164Y044883D01*
X013172Y044878D01*
X013194Y044823D01*
X01325Y04475D01*
X013323Y044694D01*
X013409Y044659D01*
X01345Y044654D01*
Y045D01*
Y045346D01*
X013409Y045341D01*
X013323Y045306D01*
X01325Y04525D01*
X013212Y0452D01*
X013153Y045199D01*
X013152Y045199D01*
X013131Y045231D01*
X013056Y045281D01*
X013019Y045288D01*
Y045069D01*
X012919D01*
Y045288D01*
X012881Y045281D01*
X012806Y045231D01*
X012757Y045156D01*
X012746Y045102D01*
X012743Y045086D01*
X012692Y045088D01*
X01269Y045103D01*
X012678Y045193D01*
X012632Y045305D01*
X012603Y045342D01*
X012638Y045379D01*
X012671Y045357D01*
X012709Y045349D01*
Y045519D01*
X01254D01*
X012547Y045481D01*
X012559Y045463D01*
X012522Y045428D01*
X012462Y045474D01*
X01235Y045521D01*
X012264Y045532D01*
X012262Y045583D01*
X012294Y045589D01*
X012368Y045639D01*
X012418Y045713D01*
X012425Y045751D01*
D02*
G37*
G36*
X011533Y045294D02*
Y045124D01*
X011703D01*
X011695Y045162D01*
X011645Y045237D01*
X011571Y045286D01*
X011533Y045294D01*
D02*
G37*
G36*
X011433D02*
X011395Y045286D01*
X011321Y045237D01*
X011271Y045162D01*
X011264Y045124D01*
X011433D01*
Y045294D01*
D02*
G37*
G36*
X02105Y045346D02*
Y04505D01*
X021346D01*
X021341Y045091D01*
X021306Y045177D01*
X02125Y04525D01*
X021177Y045306D01*
X021091Y045341D01*
X02105Y045346D01*
D02*
G37*
G36*
X02095D02*
X020909Y045341D01*
X020823Y045306D01*
X02075Y04525D01*
X020694Y045177D01*
X020659Y045091D01*
X020654Y04505D01*
X02095D01*
Y045346D01*
D02*
G37*
G36*
X01355D02*
Y04505D01*
X013846D01*
X013841Y045091D01*
X013806Y045177D01*
X01375Y04525D01*
X013677Y045306D01*
X013591Y045341D01*
X01355Y045346D01*
D02*
G37*
G36*
X01055D02*
Y04505D01*
X010846D01*
X010841Y045091D01*
X010806Y045177D01*
X01075Y04525D01*
X010677Y045306D01*
X010591Y045341D01*
X01055Y045346D01*
D02*
G37*
G36*
X01045D02*
X010409Y045341D01*
X010323Y045306D01*
X01025Y04525D01*
X010194Y045177D01*
X010159Y045091D01*
X010154Y04505D01*
X01045D01*
Y045346D01*
D02*
G37*
G36*
X021346Y04495D02*
X02105D01*
Y044654D01*
X021091Y044659D01*
X021177Y044694D01*
X02125Y04475D01*
X021306Y044823D01*
X021341Y044909D01*
X021346Y04495D01*
D02*
G37*
G36*
X02095D02*
X020654D01*
X020659Y044909D01*
X020694Y044823D01*
X02075Y04475D01*
X020823Y044694D01*
X020909Y044659D01*
X02095Y044654D01*
Y04495D01*
D02*
G37*
G36*
X013846D02*
X01355D01*
Y044654D01*
X013591Y044659D01*
X013677Y044694D01*
X01375Y04475D01*
X013806Y044823D01*
X013841Y044909D01*
X013846Y04495D01*
D02*
G37*
G36*
X010846D02*
X01055D01*
Y044654D01*
X010591Y044659D01*
X010677Y044694D01*
X01075Y04475D01*
X010806Y044823D01*
X010841Y044909D01*
X010846Y04495D01*
D02*
G37*
G36*
X01045D02*
X010154D01*
X010159Y044909D01*
X010194Y044823D01*
X01025Y04475D01*
X010323Y044694D01*
X010409Y044659D01*
X01045Y044654D01*
Y04495D01*
D02*
G37*
G36*
X011823Y044675D02*
X011381D01*
X011389Y044638D01*
X011411Y044604D01*
X011378Y044563D01*
X011363Y044569D01*
X01128Y04458D01*
Y044073D01*
Y043565D01*
X011363Y043576D01*
X011487Y043627D01*
X011551Y043676D01*
X011597Y043648D01*
X011596Y043644D01*
X012035D01*
X012027Y043682D01*
X011995Y04373D01*
X011986Y043776D01*
X011998Y043803D01*
X012035Y043858D01*
X012042Y043896D01*
X011823D01*
Y043996D01*
X012042D01*
X012035Y044034D01*
X011985Y044108D01*
X011911Y044158D01*
X011847Y04417D01*
Y044221D01*
X011911Y044234D01*
X011985Y044284D01*
X012035Y044358D01*
X012042Y044396D01*
X011823D01*
Y044496D01*
X012042D01*
X012035Y044534D01*
X011985Y044608D01*
X011911Y044658D01*
X011823Y044675D01*
X011823Y044675D01*
D02*
G37*
G36*
X01328Y04458D02*
Y044123D01*
X013738D01*
X013727Y044206D01*
X013676Y04433D01*
X013594Y044436D01*
X013487Y044518D01*
X013363Y044569D01*
X01328Y04458D01*
D02*
G37*
G36*
X01118D02*
X011097Y044569D01*
X010973Y044518D01*
X010866Y044436D01*
X010785Y04433D01*
X010733Y044206D01*
X010722Y044123D01*
X01118D01*
Y04458D01*
D02*
G37*
G36*
X013738Y044023D02*
X01328D01*
Y043565D01*
X013363Y043576D01*
X013487Y043627D01*
X013594Y043709D01*
X013676Y043815D01*
X013727Y043939D01*
X013738Y044023D01*
D02*
G37*
G36*
X013082Y044669D02*
X012626D01*
X0126Y044631D01*
X012557Y044623D01*
X012482Y044573D01*
X012432Y044499D01*
X012425Y044461D01*
X012644D01*
Y044361D01*
X012425D01*
X012432Y044323D01*
X012482Y044248D01*
X012557Y044199D01*
X01262Y044186D01*
Y044135D01*
X012557Y044123D01*
X012482Y044073D01*
X012432Y043999D01*
X012425Y043961D01*
X012644D01*
Y043861D01*
X012425D01*
X012432Y043823D01*
X012465Y043774D01*
X012473Y043728D01*
X012462Y043702D01*
X012425Y043646D01*
X012417Y043609D01*
X012856D01*
X012849Y043646D01*
X012828Y043678D01*
X012866Y043709D01*
X012973Y043627D01*
X013097Y043576D01*
X01318Y043565D01*
Y044073D01*
Y04458D01*
X013097Y044569D01*
X013091Y044567D01*
X013058Y044608D01*
X013074Y044631D01*
X013082Y044669D01*
D02*
G37*
G36*
X01118Y044023D02*
X010722D01*
X010733Y043939D01*
X010785Y043815D01*
X010866Y043709D01*
X010973Y043627D01*
X011097Y043576D01*
X01118Y043565D01*
Y044023D01*
D02*
G37*
G36*
X0143Y043846D02*
Y04355D01*
X014596D01*
X014591Y043591D01*
X014556Y043677D01*
X0145Y04375D01*
X014427Y043806D01*
X014341Y043841D01*
X0143Y043846D01*
D02*
G37*
G36*
X0142D02*
X014159Y043841D01*
X014073Y043806D01*
X014Y04375D01*
X013944Y043677D01*
X013909Y043591D01*
X013904Y04355D01*
X0142D01*
Y043846D01*
D02*
G37*
G36*
X014596Y04345D02*
X0143D01*
Y043154D01*
X014341Y043159D01*
X014427Y043194D01*
X0145Y04325D01*
X014556Y043323D01*
X014591Y043409D01*
X014596Y04345D01*
D02*
G37*
G36*
X0142D02*
X013904D01*
X013909Y043409D01*
X013944Y043323D01*
X014Y04325D01*
X014073Y043194D01*
X014159Y043159D01*
X0142Y043154D01*
Y04345D01*
D02*
G37*
G36*
X012035Y043544D02*
X011596D01*
X011603Y043506D01*
X011653Y043432D01*
X011728Y043382D01*
X011791Y043369D01*
Y043318D01*
X011728Y043306D01*
X011653Y043256D01*
X011603Y043182D01*
X011596Y043144D01*
X012035D01*
X012027Y043182D01*
X011978Y043256D01*
X011903Y043306D01*
X01184Y043318D01*
Y043369D01*
X011903Y043382D01*
X011978Y043432D01*
X012027Y043506D01*
X012035Y043544D01*
D02*
G37*
G36*
X012856Y043509D02*
X012417D01*
X012425Y043471D01*
X012475Y043396D01*
X012549Y043347D01*
X012612Y043334D01*
Y043283D01*
X012549Y043271D01*
X012475Y043221D01*
X012425Y043146D01*
X012417Y043109D01*
X012856D01*
X012849Y043146D01*
X012799Y043221D01*
X012725Y043271D01*
X012662Y043283D01*
Y043334D01*
X012725Y043347D01*
X012799Y043396D01*
X012849Y043471D01*
X012856Y043509D01*
D02*
G37*
G36*
X012035Y043044D02*
X011865D01*
Y042874D01*
X011903Y042882D01*
X011978Y042932D01*
X012027Y043006D01*
X012035Y043044D01*
D02*
G37*
G36*
X011765D02*
X011596D01*
X011603Y043006D01*
X011653Y042932D01*
X011728Y042882D01*
X011765Y042874D01*
Y043044D01*
D02*
G37*
G36*
X012856Y043009D02*
X012687D01*
Y042839D01*
X012725Y042847D01*
X012799Y042896D01*
X012849Y042971D01*
X012856Y043009D01*
D02*
G37*
G36*
X012587D02*
X012417D01*
X012425Y042971D01*
X012475Y042896D01*
X012549Y042847D01*
X012587Y042839D01*
Y043009D01*
D02*
G37*
G36*
X012959Y04278D02*
Y042611D01*
X013129D01*
X013121Y042648D01*
X013071Y042723D01*
X012997Y042773D01*
X012959Y04278D01*
D02*
G37*
G36*
X012859D02*
X012821Y042773D01*
X012747Y042723D01*
X012697Y042648D01*
X01269Y042611D01*
X012859D01*
Y04278D01*
D02*
G37*
G36*
X011595Y042701D02*
Y042531D01*
X011765D01*
X011757Y042569D01*
X011708Y042644D01*
X011633Y042693D01*
X011595Y042701D01*
D02*
G37*
G36*
X011495D02*
X011458Y042693D01*
X011383Y042644D01*
X011334Y042569D01*
X011326Y042531D01*
X011495D01*
Y042701D01*
D02*
G37*
G36*
X021177Y043152D02*
X017139D01*
X017062Y043137D01*
X016996Y043093D01*
X015951Y042047D01*
X015907Y041982D01*
X015891Y041904D01*
Y041893D01*
X015844Y041857D01*
X015788Y041784D01*
X015753Y041699D01*
X015741Y041608D01*
X015753Y041516D01*
X015788Y041431D01*
X015844Y041358D01*
X015917Y041302D01*
X016002Y041267D01*
X016094Y041255D01*
X016185Y041267D01*
X01627Y041302D01*
X016343Y041358D01*
X016399Y041431D01*
X016435Y041516D01*
X016447Y041608D01*
X016435Y041699D01*
X016399Y041784D01*
X016343Y041857D01*
X016343Y041867D01*
X017223Y042748D01*
X021093D01*
X021238Y042604D01*
X021236Y042591D01*
X021248Y042499D01*
X021283Y042414D01*
X021339Y042341D01*
X021412Y042285D01*
X021498Y04225D01*
X021589Y042238D01*
X02168Y04225D01*
X021765Y042285D01*
X021839Y042341D01*
X021895Y042414D01*
X02193Y042499D01*
X021942Y042591D01*
X02193Y042682D01*
X021895Y042767D01*
X021839Y04284D01*
X021765Y042896D01*
X02168Y042932D01*
X021589Y042944D01*
X021498Y042932D01*
X021486Y042927D01*
X02132Y043093D01*
X021255Y043137D01*
X021177Y043152D01*
D02*
G37*
G36*
X019395Y042608D02*
X019303Y042596D01*
X019218Y042561D01*
X019145Y042504D01*
X019089Y042431D01*
X019054Y042346D01*
X019042Y042255D01*
X019053Y042166D01*
X01905Y042161D01*
X019013Y042131D01*
X018942Y04216D01*
X01885Y042172D01*
X018759Y04216D01*
X018674Y042125D01*
X018601Y042069D01*
X018558Y042013D01*
X018004D01*
X018003Y042012D01*
X017816Y041998D01*
X017633Y041954D01*
X017593Y041937D01*
X017577Y041934D01*
X017563Y041925D01*
X017458Y041881D01*
X017297Y041783D01*
X017155Y041661D01*
X017154Y04166D01*
X017154Y041661D01*
X017042Y041525D01*
X016959Y04137D01*
X016908Y041202D01*
X016891Y041027D01*
X016891D01*
Y040738D01*
X016888Y040736D01*
X016871Y040712D01*
X016863Y040709D01*
X016825D01*
X016816Y040712D01*
X0168Y040736D01*
X016762Y040761D01*
X016718Y04077D01*
X01647D01*
X016459Y040768D01*
X016456Y040768D01*
X016404Y0408D01*
X016402Y040803D01*
X016394Y040843D01*
X01635Y040909D01*
X016284Y040953D01*
X016207Y040968D01*
X016094D01*
X016016Y040953D01*
X015951Y040909D01*
X015907Y040843D01*
X015891Y040766D01*
Y040738D01*
X015888Y040736D01*
X015871Y040712D01*
X015863Y040709D01*
X015825D01*
X015816Y040712D01*
X0158Y040736D01*
X015762Y040761D01*
X015718Y04077D01*
X015644D01*
Y040313D01*
Y039857D01*
X015718D01*
X015762Y039866D01*
X0158Y039891D01*
X015816Y039915D01*
X015825Y039917D01*
X015863D01*
X015871Y039915D01*
X015888Y039891D01*
X015925Y039866D01*
X01597Y039857D01*
X016005D01*
Y039548D01*
X015957Y039512D01*
X015901Y039439D01*
X015866Y039354D01*
X015854Y039262D01*
X015866Y039171D01*
X015901Y039086D01*
X015957Y039013D01*
X01603Y038956D01*
X016116Y038921D01*
X016207Y038909D01*
X016298Y038921D01*
X016384Y038956D01*
X016457Y039013D01*
X016513Y039086D01*
X016548Y039171D01*
X01656Y039262D01*
X016548Y039354D01*
X016513Y039439D01*
X016457Y039512D01*
X016409Y039548D01*
Y039821D01*
X016459Y039859D01*
X01647Y039857D01*
X016718D01*
X016762Y039866D01*
X0168Y039891D01*
X016816Y039915D01*
X016825Y039917D01*
X016863D01*
X016871Y039915D01*
X016888Y039891D01*
X016925Y039866D01*
X01697Y039857D01*
X017218D01*
X017262Y039866D01*
X0173Y039891D01*
X017316Y039915D01*
X017325Y039917D01*
X017363D01*
X017371Y039915D01*
X017388Y039891D01*
X017425Y039866D01*
X01747Y039857D01*
X017718D01*
X017762Y039866D01*
X0178Y039891D01*
X017816Y039915D01*
X017825Y039917D01*
X017863D01*
X017871Y039915D01*
X017888Y039891D01*
X017925Y039866D01*
X01797Y039857D01*
X018218D01*
X018262Y039866D01*
X0183Y039891D01*
X018325Y039928D01*
X018334Y039973D01*
Y04016D01*
X019561D01*
X01957Y040162D01*
X019633Y04017D01*
X0197Y040198D01*
X019751Y040237D01*
X019758Y040242D01*
X019758Y040242D01*
X019846Y040348D01*
X019911Y040469D01*
X019951Y040601D01*
X019964Y040738D01*
X019964D01*
Y041429D01*
X020032Y041457D01*
X020105Y041513D01*
X020161Y041586D01*
X020196Y041672D01*
X020208Y041763D01*
X020196Y041854D01*
X020161Y04194D01*
X020105Y042013D01*
X020032Y042069D01*
X019947Y042104D01*
X019855Y042116D01*
X019764Y042104D01*
X019727Y042143D01*
X019736Y042163D01*
X019748Y042255D01*
X019736Y042346D01*
X0197Y042431D01*
X019644Y042504D01*
X019571Y042561D01*
X019486Y042596D01*
X019395Y042608D01*
D02*
G37*
G36*
X013129Y042511D02*
X01269D01*
X012697Y042473D01*
X012747Y042398D01*
X012821Y042349D01*
X012885Y042336D01*
Y042285D01*
X012821Y042273D01*
X012747Y042223D01*
X012697Y042148D01*
X01269Y042111D01*
X013129D01*
X013121Y042148D01*
X013071Y042223D01*
X012997Y042273D01*
X012934Y042285D01*
Y042336D01*
X012997Y042349D01*
X013071Y042398D01*
X013121Y042473D01*
X013129Y042511D01*
D02*
G37*
G36*
X01055Y042346D02*
Y04205D01*
X010846D01*
X010841Y042091D01*
X010806Y042177D01*
X01075Y04225D01*
X010677Y042306D01*
X010591Y042341D01*
X01055Y042346D01*
D02*
G37*
G36*
X01045D02*
X010409Y042341D01*
X010323Y042306D01*
X01025Y04225D01*
X010194Y042177D01*
X010159Y042091D01*
X010154Y04205D01*
X01045D01*
Y042346D01*
D02*
G37*
G36*
X011765Y042432D02*
X011326D01*
X011334Y042394D01*
X011383Y042319D01*
X011458Y04227D01*
X011521Y042257D01*
Y042206D01*
X011458Y042193D01*
X011383Y042144D01*
X011334Y042069D01*
X011326Y042031D01*
X011765D01*
X011757Y042069D01*
X011708Y042144D01*
X011633Y042193D01*
X01157Y042206D01*
Y042257D01*
X011633Y04227D01*
X011708Y042319D01*
X011757Y042394D01*
X011765Y042432D01*
D02*
G37*
G36*
X013129Y042011D02*
X01269D01*
X012697Y041973D01*
X012747Y041898D01*
X012773Y041881D01*
X012762Y041828D01*
X012719Y041819D01*
X012645Y04177D01*
X012595Y041695D01*
X012588Y041658D01*
X013026D01*
X013019Y041695D01*
X012969Y04177D01*
X012943Y041787D01*
X012954Y04184D01*
X012997Y041849D01*
X013071Y041898D01*
X013121Y041973D01*
X013129Y042011D01*
D02*
G37*
G36*
X010846Y04195D02*
X01055D01*
Y041654D01*
X010591Y041659D01*
X010677Y041694D01*
X01075Y04175D01*
X010806Y041823D01*
X010841Y041909D01*
X010846Y04195D01*
D02*
G37*
G36*
X01045D02*
X010154D01*
X010159Y041909D01*
X010194Y041823D01*
X01025Y04175D01*
X010323Y041694D01*
X010409Y041659D01*
X01045Y041654D01*
Y04195D01*
D02*
G37*
G36*
X011765Y041932D02*
X011326D01*
X011334Y041894D01*
X011383Y041819D01*
X011458Y04177D01*
X011484Y041764D01*
X011493Y041746D01*
X0115Y04171D01*
X011456Y041644D01*
X011448Y041606D01*
X011887D01*
X01188Y041644D01*
X01183Y041719D01*
X011755Y041768D01*
X011729Y041774D01*
X011721Y041792D01*
X011713Y041828D01*
X011757Y041894D01*
X011765Y041932D01*
D02*
G37*
G36*
X013026Y041558D02*
X012588D01*
X012595Y04152D01*
X012645Y041445D01*
X012719Y041396D01*
X012782Y041383D01*
Y041332D01*
X012719Y041319D01*
X012645Y04127D01*
X012595Y041195D01*
X012588Y041158D01*
X013026D01*
X013019Y041195D01*
X012969Y04127D01*
X012895Y041319D01*
X012832Y041332D01*
Y041383D01*
X012895Y041396D01*
X012969Y041445D01*
X013019Y04152D01*
X013026Y041558D01*
D02*
G37*
G36*
X011887Y041507D02*
X011448D01*
X011456Y041469D01*
X011505Y041394D01*
X01158Y041345D01*
X011643Y041332D01*
Y041281D01*
X01158Y041268D01*
X011505Y041219D01*
X011456Y041144D01*
X011448Y041107D01*
X011887D01*
X01188Y041144D01*
X01183Y041219D01*
X011755Y041268D01*
X011692Y041281D01*
Y041332D01*
X011755Y041345D01*
X01183Y041394D01*
X01188Y041469D01*
X011887Y041507D01*
D02*
G37*
G36*
X012757Y041058D02*
X012546D01*
X012538Y04105D01*
X012529Y041052D01*
Y040882D01*
X01274D01*
X012748Y04089D01*
X012757Y040888D01*
Y041058D01*
D02*
G37*
G36*
X013026D02*
X012857D01*
Y040888D01*
X012895Y040896D01*
X012969Y040945D01*
X013019Y04102D01*
X013026Y041058D01*
D02*
G37*
G36*
X012429Y041052D02*
X012391Y041044D01*
X012317Y040994D01*
X012267Y04092D01*
X01226Y040882D01*
X012429D01*
Y041052D01*
D02*
G37*
G36*
X015228Y041715D02*
X014732D01*
X014682Y041705D01*
X01464Y041677D01*
X014611Y041635D01*
X014601Y041585D01*
Y040931D01*
X014611Y040882D01*
X01464Y040839D01*
X014682Y040811D01*
X014732Y040801D01*
X015228D01*
X015277Y040811D01*
X01532Y040839D01*
X015348Y040882D01*
X015358Y040931D01*
Y041585D01*
X015348Y041635D01*
X01532Y041677D01*
X015277Y041705D01*
X015228Y041715D01*
D02*
G37*
G36*
X011887Y041006D02*
X011448D01*
X011456Y040969D01*
X011505Y040894D01*
X01158Y040845D01*
X011591Y040842D01*
X01161Y040796D01*
X011592Y040769D01*
X011583Y040723D01*
X011529Y040711D01*
X0115Y04075D01*
X011427Y040806D01*
X011341Y040841D01*
X0113Y040846D01*
Y0405D01*
Y040154D01*
X011341Y040159D01*
X011427Y040194D01*
X0115Y04025D01*
X011556Y040323D01*
X011591Y040409D01*
X011602Y04049D01*
X011618Y040501D01*
X011627Y040506D01*
X011652Y040512D01*
X011716Y040469D01*
X011786Y040455D01*
Y040404D01*
X011731Y040393D01*
X011657Y040343D01*
X011607Y040269D01*
X0116Y040231D01*
X012039D01*
X012031Y040269D01*
X011981Y040343D01*
X011907Y040393D01*
X011837Y040407D01*
Y040458D01*
X011891Y040469D01*
X011966Y040519D01*
X012016Y040593D01*
X012023Y040631D01*
X011804D01*
Y040731D01*
X012023D01*
X012016Y040769D01*
X011966Y040843D01*
X011891Y040893D01*
X01188Y040895D01*
X011861Y040941D01*
X01188Y040969D01*
X011887Y041006D01*
D02*
G37*
G36*
X021519Y041853D02*
X020881D01*
X020828Y041842D01*
X020783Y041812D01*
X020754Y041768D01*
X020743Y041715D01*
Y040801D01*
X020754Y040749D01*
X020783Y040704D01*
X020828Y040674D01*
X020881Y040663D01*
X021519D01*
X021572Y040674D01*
X021617Y040704D01*
X021646Y040749D01*
X021657Y040801D01*
Y041715D01*
X021646Y041768D01*
X021617Y041812D01*
X021572Y041842D01*
X021519Y041853D01*
D02*
G37*
G36*
X012429Y040782D02*
X01226D01*
X012267Y040744D01*
X012317Y04067D01*
X012391Y04062D01*
X012429Y040613D01*
Y040782D01*
D02*
G37*
G36*
X0143Y040846D02*
Y04055D01*
X014596D01*
X014591Y040591D01*
X014556Y040677D01*
X0145Y04075D01*
X014427Y040806D01*
X014341Y040841D01*
X0143Y040846D01*
D02*
G37*
G36*
X0142D02*
X014159Y040841D01*
X014073Y040806D01*
X014Y04075D01*
X013944Y040677D01*
X013909Y040591D01*
X013904Y04055D01*
X0142D01*
Y040846D01*
D02*
G37*
G36*
X0112D02*
X011159Y040841D01*
X011073Y040806D01*
X011Y04075D01*
X010944Y040677D01*
X010909Y040591D01*
X010904Y04055D01*
X0112D01*
Y040846D01*
D02*
G37*
G36*
X012735Y040596D02*
Y040426D01*
X012904D01*
X012897Y040464D01*
X012847Y040539D01*
X012772Y040588D01*
X012735Y040596D01*
D02*
G37*
G36*
X012699Y040782D02*
X012529D01*
Y040613D01*
X012549Y040617D01*
X012569Y04057D01*
X012522Y040539D01*
X012473Y040464D01*
X012465Y040426D01*
X012635D01*
Y040596D01*
X012614Y040592D01*
X012595Y040639D01*
X012641Y04067D01*
X012691Y040744D01*
X012699Y040782D01*
D02*
G37*
G36*
X015544Y04077D02*
X01547D01*
X015425Y040761D01*
X015388Y040736D01*
X015363Y040698D01*
X015354Y040654D01*
Y040363D01*
X015544D01*
Y04077D01*
D02*
G37*
G36*
X012635Y040326D02*
X012465D01*
X012473Y040289D01*
X012522Y040214D01*
X012597Y040164D01*
X012635Y040157D01*
Y040326D01*
D02*
G37*
G36*
X014596Y04045D02*
X0143D01*
Y040154D01*
X014341Y040159D01*
X014427Y040194D01*
X0145Y04025D01*
X014556Y040323D01*
X014591Y040409D01*
X014596Y04045D01*
D02*
G37*
G36*
X0142D02*
X013904D01*
X013909Y040409D01*
X013944Y040323D01*
X014Y04025D01*
X014073Y040194D01*
X014159Y040159D01*
X0142Y040154D01*
Y04045D01*
D02*
G37*
G36*
X0112D02*
X010904D01*
X010909Y040409D01*
X010944Y040323D01*
X011Y04025D01*
X011073Y040194D01*
X011159Y040159D01*
X0112Y040154D01*
Y04045D01*
D02*
G37*
G36*
X012914Y040129D02*
Y03996D01*
X013084D01*
X013076Y039998D01*
X013026Y040072D01*
X012952Y040122D01*
X012914Y040129D01*
D02*
G37*
G36*
X012904Y040326D02*
X012735D01*
Y040157D01*
X012741Y040158D01*
X012761Y040111D01*
X012702Y040072D01*
X012652Y039998D01*
X012645Y03996D01*
X012814D01*
Y040129D01*
X012808Y040128D01*
X012788Y040175D01*
X012847Y040214D01*
X012897Y040289D01*
X012904Y040326D01*
D02*
G37*
G36*
X015544Y040263D02*
X015354D01*
Y039973D01*
X015363Y039928D01*
X015388Y039891D01*
X015425Y039866D01*
X01547Y039857D01*
X015544D01*
Y040263D01*
D02*
G37*
G36*
X012039Y040131D02*
X0116D01*
X011607Y040093D01*
X011657Y040019D01*
X011731Y039969D01*
X011742Y039967D01*
X011733Y039918D01*
X011645Y039901D01*
X01157Y039851D01*
X011521Y039776D01*
X011513Y039739D01*
X011952D01*
X011945Y039776D01*
X011895Y039851D01*
X01182Y039901D01*
X01181Y039903D01*
X011819Y039952D01*
X011907Y039969D01*
X011981Y040019D01*
X012031Y040093D01*
X012039Y040131D01*
D02*
G37*
G36*
X013084Y03986D02*
X012914D01*
Y03969D01*
X012952Y039698D01*
X013026Y039748D01*
X013076Y039822D01*
X013084Y03986D01*
D02*
G37*
G36*
X012814D02*
X012645D01*
X012652Y039822D01*
X012702Y039748D01*
X012776Y039698D01*
X012814Y03969D01*
Y03986D01*
D02*
G37*
G36*
X015418Y039647D02*
Y03935D01*
X015714D01*
X015709Y039392D01*
X015673Y039477D01*
X015617Y03955D01*
X015544Y039606D01*
X015459Y039641D01*
X015418Y039647D01*
D02*
G37*
G36*
X015318D02*
X015276Y039641D01*
X015191Y039606D01*
X015118Y03955D01*
X015062Y039477D01*
X015027Y039392D01*
X015021Y03935D01*
X015318D01*
Y039647D01*
D02*
G37*
G36*
X011952Y039639D02*
X011513D01*
X011521Y039601D01*
X01157Y039526D01*
X011645Y039477D01*
X011708Y039464D01*
Y039413D01*
X011645Y039401D01*
X01157Y039351D01*
X011521Y039276D01*
X011513Y039239D01*
X011952D01*
X011945Y039276D01*
X011895Y039351D01*
X01182Y039401D01*
X011757Y039413D01*
Y039464D01*
X01182Y039477D01*
X011895Y039526D01*
X011945Y039601D01*
X011952Y039639D01*
D02*
G37*
G36*
X018062Y039422D02*
Y039125D01*
X018358D01*
X018353Y039167D01*
X018318Y039252D01*
X018262Y039325D01*
X018188Y039381D01*
X018103Y039416D01*
X018062Y039422D01*
D02*
G37*
G36*
X017962D02*
X017921Y039416D01*
X017835Y039381D01*
X017762Y039325D01*
X017706Y039252D01*
X017671Y039167D01*
X017666Y039125D01*
X017962D01*
Y039422D01*
D02*
G37*
G36*
X02105Y039346D02*
Y03905D01*
X021346D01*
X021341Y039091D01*
X021306Y039177D01*
X02125Y03925D01*
X021177Y039306D01*
X021091Y039341D01*
X02105Y039346D01*
D02*
G37*
G36*
X02095D02*
X020909Y039341D01*
X020823Y039306D01*
X02075Y03925D01*
X020694Y039177D01*
X020659Y039091D01*
X020654Y03905D01*
X02095D01*
Y039346D01*
D02*
G37*
G36*
X01055D02*
Y03905D01*
X010846D01*
X010841Y039091D01*
X010806Y039177D01*
X01075Y03925D01*
X010677Y039306D01*
X010591Y039341D01*
X01055Y039346D01*
D02*
G37*
G36*
X01045D02*
X010409Y039341D01*
X010323Y039306D01*
X01025Y03925D01*
X010194Y039177D01*
X010159Y039091D01*
X010154Y03905D01*
X01045D01*
Y039346D01*
D02*
G37*
G36*
X012813Y039145D02*
Y038976D01*
X012983D01*
X012975Y039014D01*
X012926Y039088D01*
X012851Y039138D01*
X012813Y039145D01*
D02*
G37*
G36*
X012713D02*
X012676Y039138D01*
X012601Y039088D01*
X012551Y039014D01*
X012544Y038976D01*
X012713D01*
Y039145D01*
D02*
G37*
G36*
X011683Y039139D02*
X011513D01*
X011521Y039101D01*
X01157Y039026D01*
X011645Y038977D01*
X011683Y038969D01*
Y039139D01*
D02*
G37*
G36*
X015714Y03925D02*
X015418D01*
Y038954D01*
X015459Y038959D01*
X015544Y038995D01*
X015617Y039051D01*
X015673Y039124D01*
X015709Y039209D01*
X015714Y03925D01*
D02*
G37*
G36*
X015318D02*
X015021D01*
X015027Y039209D01*
X015062Y039124D01*
X015118Y039051D01*
X015191Y038995D01*
X015276Y038959D01*
X015318Y038954D01*
Y03925D01*
D02*
G37*
G36*
X011972Y038945D02*
Y038776D01*
X012141D01*
X012134Y038814D01*
X012084Y038888D01*
X01201Y038938D01*
X011972Y038945D01*
D02*
G37*
G36*
X011952Y039139D02*
X011783D01*
Y038969D01*
X011795Y038971D01*
X011814Y038924D01*
X01176Y038888D01*
X01171Y038814D01*
X011702Y038776D01*
X011872D01*
Y038945D01*
X01186Y038943D01*
X01184Y03899D01*
X011895Y039026D01*
X011945Y039101D01*
X011952Y039139D01*
D02*
G37*
G36*
X018358Y039025D02*
X018062D01*
Y038729D01*
X018103Y038734D01*
X018188Y03877D01*
X018262Y038826D01*
X018318Y038899D01*
X018353Y038984D01*
X018358Y039025D01*
D02*
G37*
G36*
X017962D02*
X017666D01*
X017671Y038984D01*
X017706Y038899D01*
X017762Y038826D01*
X017835Y03877D01*
X017921Y038734D01*
X017962Y038729D01*
Y039025D01*
D02*
G37*
G36*
X012983Y038876D02*
X012813D01*
Y038706D01*
X012851Y038714D01*
X012926Y038764D01*
X012975Y038838D01*
X012983Y038876D01*
D02*
G37*
G36*
X012713D02*
X012544D01*
X012551Y038838D01*
X012601Y038764D01*
X012643Y038735D01*
X012624Y038688D01*
X0126Y038693D01*
Y038524D01*
X01277D01*
X012762Y038561D01*
X012712Y038636D01*
X01267Y038664D01*
X01269Y038711D01*
X012713Y038706D01*
Y038876D01*
D02*
G37*
G36*
X021346Y03895D02*
X02105D01*
Y038654D01*
X021091Y038659D01*
X021177Y038694D01*
X02125Y03875D01*
X021306Y038823D01*
X021341Y038909D01*
X021346Y03895D01*
D02*
G37*
G36*
X02095D02*
X020654D01*
X020659Y038909D01*
X020694Y038823D01*
X02075Y03875D01*
X020823Y038694D01*
X020909Y038659D01*
X02095Y038654D01*
Y03895D01*
D02*
G37*
G36*
X010846D02*
X01055D01*
Y038654D01*
X010591Y038659D01*
X010677Y038694D01*
X01075Y03875D01*
X010806Y038823D01*
X010841Y038909D01*
X010846Y03895D01*
D02*
G37*
G36*
X01045D02*
X010154D01*
X010159Y038909D01*
X010194Y038823D01*
X01025Y03875D01*
X010323Y038694D01*
X010409Y038659D01*
X01045Y038654D01*
Y03895D01*
D02*
G37*
G36*
X011872Y038676D02*
X011702D01*
X01171Y038638D01*
X011757Y038567D01*
X01176Y038564D01*
X011728Y038527D01*
X011727Y038528D01*
X011693Y038551D01*
X011655Y038558D01*
Y038389D01*
X011824D01*
X011817Y038427D01*
X011769Y038498D01*
X011767Y038501D01*
X011798Y038538D01*
X0118Y038537D01*
X011834Y038514D01*
X011872Y038506D01*
Y038676D01*
D02*
G37*
G36*
X0125Y038693D02*
X012462Y038686D01*
X012388Y038636D01*
X012338Y038561D01*
X012331Y038524D01*
X0125D01*
Y038693D01*
D02*
G37*
G36*
X012141Y038676D02*
X011972D01*
Y038506D01*
X01201Y038514D01*
X012084Y038564D01*
X012134Y038638D01*
X012141Y038676D01*
D02*
G37*
G36*
X011555Y038558D02*
X011517Y038551D01*
X011443Y038501D01*
X011393Y038427D01*
X011385Y038389D01*
X011555D01*
Y038558D01*
D02*
G37*
G36*
X0125Y038424D02*
X012331D01*
X012338Y038386D01*
X012388Y038311D01*
X012397Y038305D01*
X01237Y038263D01*
X012332Y038271D01*
Y038101D01*
X012502D01*
X012494Y038139D01*
X012444Y038214D01*
X012435Y03822D01*
X012462Y038262D01*
X0125Y038254D01*
Y038424D01*
D02*
G37*
G36*
X01277D02*
X0126D01*
Y038254D01*
X012638Y038262D01*
X012712Y038311D01*
X012762Y038386D01*
X01277Y038424D01*
D02*
G37*
G36*
X011555Y038289D02*
X011385D01*
X011393Y038251D01*
X011429Y038198D01*
X011393Y038162D01*
X011339Y038197D01*
X011301Y038205D01*
Y038035D01*
X011471D01*
X011463Y038073D01*
X011428Y038127D01*
X011464Y038163D01*
X011517Y038127D01*
X011555Y03812D01*
Y038289D01*
D02*
G37*
G36*
X011824D02*
X011655D01*
Y03812D01*
X011693Y038127D01*
X011767Y038177D01*
X011817Y038251D01*
X011824Y038289D01*
D02*
G37*
G36*
X012232Y038271D02*
X012194Y038263D01*
X01212Y038214D01*
X01207Y038139D01*
X012063Y038101D01*
X012232D01*
Y038271D01*
D02*
G37*
G36*
X011201Y038205D02*
X011164Y038197D01*
X011089Y038148D01*
X011039Y038073D01*
X011032Y038035D01*
X011201D01*
Y038205D01*
D02*
G37*
G36*
X012232Y038001D02*
X012063D01*
X01207Y037964D01*
X012107Y037909D01*
X012071Y037873D01*
X012018Y037908D01*
X01198Y037916D01*
Y037746D01*
X01215D01*
X012142Y037784D01*
X012106Y037839D01*
X012142Y037875D01*
X012194Y03784D01*
X012232Y037832D01*
Y038001D01*
D02*
G37*
G36*
X012502D02*
X012332D01*
Y037832D01*
X01237Y03784D01*
X012444Y037889D01*
X012494Y037964D01*
X012502Y038001D01*
D02*
G37*
G36*
X011201Y037935D02*
X011032D01*
X011039Y037898D01*
X011075Y037844D01*
X011039Y037808D01*
X010986Y037844D01*
X010948Y037851D01*
Y037682D01*
X011117D01*
X01111Y03772D01*
X011074Y037773D01*
X01111Y037809D01*
X011164Y037774D01*
X011201Y037766D01*
Y037935D01*
D02*
G37*
G36*
X011471D02*
X011301D01*
Y037766D01*
X011339Y037774D01*
X011414Y037823D01*
X011463Y037898D01*
X011471Y037935D01*
D02*
G37*
G36*
X01188Y037916D02*
X011843Y037908D01*
X011768Y037858D01*
X011718Y037784D01*
X011711Y037746D01*
X01188D01*
Y037916D01*
D02*
G37*
G36*
X010848Y037851D02*
X01081Y037844D01*
X010736Y037794D01*
X010686Y03772D01*
X010678Y037682D01*
X010848D01*
Y037851D01*
D02*
G37*
G36*
X0203Y037846D02*
Y03755D01*
X020596D01*
X020591Y037591D01*
X020556Y037677D01*
X0205Y03775D01*
X020427Y037806D01*
X020341Y037841D01*
X0203Y037846D01*
D02*
G37*
G36*
X0202D02*
X020159Y037841D01*
X020073Y037806D01*
X02Y03775D01*
X019944Y037677D01*
X019909Y037591D01*
X019904Y03755D01*
X0202D01*
Y037846D01*
D02*
G37*
G36*
X0143D02*
Y03755D01*
X014596D01*
X014591Y037591D01*
X014556Y037677D01*
X0145Y03775D01*
X014427Y037806D01*
X014341Y037841D01*
X0143Y037846D01*
D02*
G37*
G36*
X0142D02*
X014159Y037841D01*
X014073Y037806D01*
X014Y03775D01*
X013944Y037677D01*
X013909Y037591D01*
X013904Y03755D01*
X0142D01*
Y037846D01*
D02*
G37*
G36*
X0128D02*
Y03755D01*
X013096D01*
X013091Y037591D01*
X013056Y037677D01*
X013Y03775D01*
X012927Y037806D01*
X012841Y037841D01*
X0128Y037846D01*
D02*
G37*
G36*
X0127D02*
X012659Y037841D01*
X012573Y037806D01*
X0125Y03775D01*
X012444Y037677D01*
X012409Y037591D01*
X012404Y03755D01*
X0127D01*
Y037846D01*
D02*
G37*
G36*
X01188Y037646D02*
X011711D01*
X011718Y037608D01*
X011754Y037555D01*
X011718Y037519D01*
X011665Y037555D01*
X011627Y037562D01*
Y037393D01*
X011796D01*
X011789Y037431D01*
X011753Y037484D01*
X011789Y03752D01*
X011843Y037484D01*
X01188Y037477D01*
Y037646D01*
D02*
G37*
G36*
X01215D02*
X01198D01*
Y037477D01*
X012018Y037484D01*
X012093Y037534D01*
X012142Y037608D01*
X01215Y037646D01*
D02*
G37*
G36*
X010848Y037582D02*
X010678D01*
X010686Y037544D01*
X010736Y03747D01*
X010707Y037435D01*
Y037435D01*
X010707Y037435D01*
X010672Y037455D01*
X010665Y037456D01*
X010634Y037462D01*
Y037293D01*
X010803D01*
X010796Y03733D01*
X010746Y037405D01*
X010775Y037439D01*
Y037439D01*
X010775Y037439D01*
X01081Y03742D01*
X010817Y037419D01*
X010848Y037412D01*
Y037582D01*
D02*
G37*
G36*
X011117D02*
X010948D01*
Y037412D01*
X010986Y03742D01*
X01106Y03747D01*
X01111Y037544D01*
X011117Y037582D01*
D02*
G37*
G36*
X011527Y037562D02*
X011489Y037555D01*
X011415Y037505D01*
X011365Y037431D01*
X011357Y037393D01*
X011527D01*
Y037562D01*
D02*
G37*
G36*
X010534Y037462D02*
X010496Y037455D01*
X010422Y037405D01*
X010372Y03733D01*
X010365Y037293D01*
X010534D01*
Y037462D01*
D02*
G37*
G36*
X011527Y037293D02*
X011357D01*
X011365Y037255D01*
X011402Y037199D01*
X011366Y037163D01*
X011315Y037197D01*
X011277Y037205D01*
Y037035D01*
X011447D01*
X011439Y037073D01*
X011402Y037129D01*
X011438Y037165D01*
X011489Y037131D01*
X011527Y037123D01*
Y037293D01*
D02*
G37*
G36*
X020596Y03745D02*
X0203D01*
Y037154D01*
X020341Y037159D01*
X020427Y037194D01*
X0205Y03725D01*
X020556Y037323D01*
X020591Y037409D01*
X020596Y03745D01*
D02*
G37*
G36*
X0202D02*
X019904D01*
X019909Y037409D01*
X019944Y037323D01*
X02Y03725D01*
X020073Y037194D01*
X020159Y037159D01*
X0202Y037154D01*
Y03745D01*
D02*
G37*
G36*
X014596D02*
X0143D01*
Y037154D01*
X014341Y037159D01*
X014427Y037194D01*
X0145Y03725D01*
X014556Y037323D01*
X014591Y037409D01*
X014596Y03745D01*
D02*
G37*
G36*
X0142D02*
X013904D01*
X013909Y037409D01*
X013944Y037323D01*
X014Y03725D01*
X014073Y037194D01*
X014159Y037159D01*
X0142Y037154D01*
Y03745D01*
D02*
G37*
G36*
X013096D02*
X0128D01*
Y037154D01*
X012841Y037159D01*
X012927Y037194D01*
X013Y03725D01*
X013056Y037323D01*
X013091Y037409D01*
X013096Y03745D01*
D02*
G37*
G36*
X0127D02*
X012404D01*
X012409Y037409D01*
X012444Y037323D01*
X0125Y03725D01*
X012573Y037194D01*
X012659Y037159D01*
X0127Y037154D01*
Y03745D01*
D02*
G37*
G36*
X011796Y037293D02*
X011627D01*
Y037123D01*
X011665Y037131D01*
X011739Y03718D01*
X011789Y037255D01*
X011796Y037293D01*
D02*
G37*
G36*
X011177Y037205D02*
X011139Y037197D01*
X011065Y037148D01*
X011015Y037073D01*
X011008Y037035D01*
X011177D01*
Y037205D01*
D02*
G37*
G36*
X010803Y037193D02*
X010634D01*
Y037023D01*
X010672Y037031D01*
X010746Y03708D01*
X010796Y037155D01*
X010803Y037193D01*
D02*
G37*
G36*
X010534D02*
X010365D01*
X010372Y037155D01*
X010422Y03708D01*
X010496Y037031D01*
X010534Y037023D01*
Y037193D01*
D02*
G37*
G36*
X011447Y036935D02*
X011008D01*
X011015Y036898D01*
X011032Y036872D01*
X011013Y036826D01*
X011002Y036824D01*
X010928Y036774D01*
X010878Y036699D01*
X01087Y036662D01*
X011309D01*
X011302Y036699D01*
X011285Y036725D01*
X011304Y036771D01*
X011315Y036773D01*
X011389Y036823D01*
X011439Y036898D01*
X011447Y036935D01*
D02*
G37*
G36*
X010397Y036831D02*
Y036662D01*
X010567D01*
X010559Y036699D01*
X01051Y036774D01*
X010435Y036824D01*
X010397Y036831D01*
D02*
G37*
G36*
X010297D02*
X01026Y036824D01*
X010185Y036774D01*
X010136Y036699D01*
X010128Y036662D01*
X010297D01*
Y036831D01*
D02*
G37*
G36*
X011309Y036562D02*
X01087D01*
X010878Y036524D01*
X010928Y036449D01*
X011002Y0364D01*
X011065Y036387D01*
Y036336D01*
X011002Y036324D01*
X010928Y036274D01*
X010878Y036199D01*
X01087Y036162D01*
X011309D01*
X011302Y036199D01*
X011252Y036274D01*
X011178Y036324D01*
X011115Y036336D01*
Y036387D01*
X011178Y0364D01*
X011252Y036449D01*
X011302Y036524D01*
X011309Y036562D01*
D02*
G37*
G36*
X010567D02*
X010128D01*
X010136Y036524D01*
X010185Y036449D01*
X01026Y0364D01*
X010323Y036387D01*
Y036336D01*
X01026Y036324D01*
X010185Y036274D01*
X010136Y036199D01*
X010128Y036162D01*
X010567D01*
X010559Y036199D01*
X01051Y036274D01*
X010435Y036324D01*
X010372Y036336D01*
Y036387D01*
X010435Y0364D01*
X01051Y036449D01*
X010559Y036524D01*
X010567Y036562D01*
D02*
G37*
G36*
X01805Y036346D02*
Y03605D01*
X018346D01*
X018341Y036091D01*
X018306Y036177D01*
X01825Y03625D01*
X018177Y036306D01*
X018091Y036341D01*
X01805Y036346D01*
D02*
G37*
G36*
X01795D02*
X017909Y036341D01*
X017823Y036306D01*
X01775Y03625D01*
X017694Y036177D01*
X017659Y036091D01*
X017654Y03605D01*
X01795D01*
Y036346D01*
D02*
G37*
G36*
X01655D02*
Y03605D01*
X016846D01*
X016841Y036091D01*
X016806Y036177D01*
X01675Y03625D01*
X016677Y036306D01*
X016591Y036341D01*
X01655Y036346D01*
D02*
G37*
G36*
X01645D02*
X016409Y036341D01*
X016323Y036306D01*
X01625Y03625D01*
X016194Y036177D01*
X016159Y036091D01*
X016154Y03605D01*
X01645D01*
Y036346D01*
D02*
G37*
G36*
X01505D02*
Y03605D01*
X015346D01*
X015341Y036091D01*
X015306Y036177D01*
X01525Y03625D01*
X015177Y036306D01*
X015091Y036341D01*
X01505Y036346D01*
D02*
G37*
G36*
X01495D02*
X014909Y036341D01*
X014823Y036306D01*
X01475Y03625D01*
X014694Y036177D01*
X014659Y036091D01*
X014654Y03605D01*
X01495D01*
Y036346D01*
D02*
G37*
G36*
X01205D02*
Y03605D01*
X012346D01*
X012341Y036091D01*
X012306Y036177D01*
X01225Y03625D01*
X012177Y036306D01*
X012091Y036341D01*
X01205Y036346D01*
D02*
G37*
G36*
X01195D02*
X011909Y036341D01*
X011823Y036306D01*
X01175Y03625D01*
X011694Y036177D01*
X011659Y036091D01*
X011654Y03605D01*
X01195D01*
Y036346D01*
D02*
G37*
G36*
X011309Y036062D02*
X01087D01*
X010878Y036024D01*
X010928Y035949D01*
X011002Y0359D01*
X011065Y035887D01*
Y035836D01*
X011002Y035824D01*
X010928Y035774D01*
X010878Y035699D01*
X01087Y035662D01*
X011309D01*
X011302Y035699D01*
X011252Y035774D01*
X011178Y035824D01*
X011115Y035836D01*
Y035887D01*
X011178Y0359D01*
X011252Y035949D01*
X011302Y036024D01*
X011309Y036062D01*
D02*
G37*
G36*
X010567D02*
X010128D01*
X010136Y036024D01*
X010185Y035949D01*
X01026Y0359D01*
X010323Y035887D01*
Y035836D01*
X01026Y035824D01*
X010185Y035774D01*
X010136Y035699D01*
X010128Y035662D01*
X010567D01*
X010559Y035699D01*
X01051Y035774D01*
X010435Y035824D01*
X010372Y035836D01*
Y035887D01*
X010435Y0359D01*
X01051Y035949D01*
X010559Y036024D01*
X010567Y036062D01*
D02*
G37*
G36*
X018346Y03595D02*
X01805D01*
Y035654D01*
X018091Y035659D01*
X018177Y035694D01*
X01825Y03575D01*
X018306Y035823D01*
X018341Y035909D01*
X018346Y03595D01*
D02*
G37*
G36*
X01795D02*
X017654D01*
X017659Y035909D01*
X017694Y035823D01*
X01775Y03575D01*
X017823Y035694D01*
X017909Y035659D01*
X01795Y035654D01*
Y03595D01*
D02*
G37*
G36*
X016846D02*
X01655D01*
Y035654D01*
X016591Y035659D01*
X016677Y035694D01*
X01675Y03575D01*
X016806Y035823D01*
X016841Y035909D01*
X016846Y03595D01*
D02*
G37*
G36*
X01645D02*
X016154D01*
X016159Y035909D01*
X016194Y035823D01*
X01625Y03575D01*
X016323Y035694D01*
X016409Y035659D01*
X01645Y035654D01*
Y03595D01*
D02*
G37*
G36*
X015346D02*
X01505D01*
Y035654D01*
X015091Y035659D01*
X015177Y035694D01*
X01525Y03575D01*
X015306Y035823D01*
X015341Y035909D01*
X015346Y03595D01*
D02*
G37*
G36*
X01495D02*
X014654D01*
X014659Y035909D01*
X014694Y035823D01*
X01475Y03575D01*
X014823Y035694D01*
X014909Y035659D01*
X01495Y035654D01*
Y03595D01*
D02*
G37*
G36*
X012346D02*
X01205D01*
Y035654D01*
X012091Y035659D01*
X012177Y035694D01*
X01225Y03575D01*
X012306Y035823D01*
X012341Y035909D01*
X012346Y03595D01*
D02*
G37*
G36*
X01195D02*
X011654D01*
X011659Y035909D01*
X011694Y035823D01*
X01175Y03575D01*
X011823Y035694D01*
X011909Y035659D01*
X01195Y035654D01*
Y03595D01*
D02*
G37*
G36*
X011309Y035562D02*
X01087D01*
X010878Y035524D01*
X010928Y035449D01*
X011002Y0354D01*
X01109Y035382D01*
X011094Y035338D01*
X011094D01*
Y035338D01*
X011055Y035326D01*
X01105Y035323D01*
X010981Y035277D01*
X010931Y035202D01*
X010924Y035164D01*
X011363D01*
X011355Y035202D01*
X011305Y035277D01*
X011231Y035326D01*
X011143Y035344D01*
X011139Y035388D01*
X011139D01*
Y035388D01*
X011178Y0354D01*
X011183Y035403D01*
X011252Y035449D01*
X011302Y035524D01*
X011309Y035562D01*
D02*
G37*
G36*
X010567D02*
X010128D01*
X010136Y035524D01*
X010185Y035449D01*
X01026Y0354D01*
X010347Y035382D01*
X010352Y035338D01*
X010352D01*
Y035338D01*
X010313Y035326D01*
X010307Y035323D01*
X010239Y035277D01*
X010189Y035202D01*
X010181Y035164D01*
X01062D01*
X010613Y035202D01*
X010563Y035277D01*
X010489Y035326D01*
X010401Y035344D01*
X010397Y035388D01*
X010397D01*
Y035388D01*
X010435Y0354D01*
X010441Y035403D01*
X01051Y035449D01*
X010559Y035524D01*
X010567Y035562D01*
D02*
G37*
G36*
X01062Y035064D02*
X010181D01*
X010189Y035027D01*
X010239Y034952D01*
X010256Y03494D01*
X010258Y034921D01*
X010251Y034884D01*
X010185Y03484D01*
X010136Y034766D01*
X010128Y034728D01*
X010567D01*
X010559Y034766D01*
X01051Y03484D01*
X010492Y034852D01*
X010491Y034872D01*
X010498Y034909D01*
X010563Y034952D01*
X010613Y035027D01*
X01062Y035064D01*
D02*
G37*
G36*
X011363D02*
X010924D01*
X010931Y035027D01*
X010981Y034952D01*
X011055Y034902D01*
X011066Y0349D01*
X01107Y034889D01*
X011071Y034848D01*
X011007Y034805D01*
X010957Y034731D01*
X01095Y034693D01*
X011388D01*
X011381Y034731D01*
X011331Y034805D01*
X011257Y034855D01*
X011246Y034857D01*
X011243Y034868D01*
X011241Y034909D01*
X011305Y034952D01*
X011355Y035027D01*
X011363Y035064D01*
D02*
G37*
G36*
X010567Y034628D02*
X010128D01*
X010136Y03459D01*
X010185Y034516D01*
X01026Y034466D01*
X010323Y034454D01*
Y034403D01*
X01026Y03439D01*
X010185Y03434D01*
X010136Y034266D01*
X010128Y034228D01*
X010567D01*
X010559Y034266D01*
X01051Y03434D01*
X010435Y03439D01*
X010372Y034403D01*
Y034454D01*
X010435Y034466D01*
X01051Y034516D01*
X010559Y03459D01*
X010567Y034628D01*
D02*
G37*
G36*
X011388Y034593D02*
X01095D01*
X010957Y034555D01*
X011007Y034481D01*
X011081Y034431D01*
X011144Y034419D01*
Y034368D01*
X011081Y034355D01*
X011007Y034305D01*
X010957Y034231D01*
X01095Y034193D01*
X011388D01*
X011381Y034231D01*
X011331Y034305D01*
X011257Y034355D01*
X011194Y034368D01*
Y034419D01*
X011257Y034431D01*
X011331Y034481D01*
X011381Y034555D01*
X011388Y034593D01*
D02*
G37*
G36*
X010567Y034128D02*
X010128D01*
X010136Y03409D01*
X010185Y034016D01*
X01026Y033966D01*
X010323Y033954D01*
Y033903D01*
X01026Y03389D01*
X010185Y03384D01*
X010136Y033766D01*
X010128Y033728D01*
X010567D01*
X010559Y033766D01*
X01051Y03384D01*
X010435Y03389D01*
X010372Y033903D01*
Y033954D01*
X010435Y033966D01*
X01051Y034016D01*
X010559Y03409D01*
X010567Y034128D01*
D02*
G37*
G36*
X011388Y034093D02*
X01095D01*
X010957Y034055D01*
X011007Y033981D01*
X011081Y033931D01*
X011144Y033919D01*
Y033868D01*
X011081Y033855D01*
X011007Y033805D01*
X010957Y033731D01*
X01095Y033693D01*
X011388D01*
X011381Y033731D01*
X011331Y033805D01*
X011257Y033855D01*
X011194Y033868D01*
Y033919D01*
X011257Y033931D01*
X011331Y033981D01*
X011381Y034055D01*
X011388Y034093D01*
D02*
G37*
G36*
X010567Y033628D02*
X010397D01*
Y033459D01*
X010435Y033466D01*
X01051Y033516D01*
X010559Y03359D01*
X010567Y033628D01*
D02*
G37*
G36*
X010297D02*
X010128D01*
X010136Y03359D01*
X010185Y033516D01*
X01026Y033466D01*
X010297Y033459D01*
Y033628D01*
D02*
G37*
G36*
X011388Y033593D02*
X01095D01*
X010957Y033555D01*
X011007Y033481D01*
X011081Y033431D01*
X011113Y033425D01*
Y033374D01*
X011055Y033362D01*
X010981Y033313D01*
X010931Y033238D01*
X010924Y0332D01*
X011363D01*
X011355Y033238D01*
X011305Y033313D01*
X011231Y033362D01*
X011199Y033369D01*
Y03342D01*
X011257Y033431D01*
X011331Y033481D01*
X011381Y033555D01*
X011388Y033593D01*
D02*
G37*
G36*
X010397Y03337D02*
Y0332D01*
X010567D01*
X010559Y033238D01*
X01051Y033313D01*
X010435Y033362D01*
X010397Y03337D01*
D02*
G37*
G36*
X010297D02*
X01026Y033362D01*
X010185Y033313D01*
X010136Y033238D01*
X010128Y0332D01*
X010297D01*
Y03337D01*
D02*
G37*
G36*
X010567Y0331D02*
X010128D01*
X010136Y033063D01*
X010181Y032995D01*
X010167Y032986D01*
X010117Y032911D01*
X01011Y032874D01*
X010549D01*
X010541Y032911D01*
X010496Y032979D01*
X01051Y032988D01*
X010559Y033063D01*
X010567Y0331D01*
D02*
G37*
G36*
X011363D02*
X010924D01*
X010931Y033063D01*
X010981Y032988D01*
X01098Y032938D01*
X010939Y032876D01*
X010931Y032839D01*
X01137D01*
X011363Y032876D01*
X011313Y032951D01*
X011314Y033001D01*
X011355Y033063D01*
X011363Y0331D01*
D02*
G37*
G36*
X010549Y032774D02*
X01011D01*
X010117Y032736D01*
X010167Y032661D01*
X010241Y032612D01*
X010304Y032599D01*
Y032548D01*
X010241Y032536D01*
X010167Y032486D01*
X010117Y032411D01*
X01011Y032374D01*
X010549D01*
X010541Y032411D01*
X010491Y032486D01*
X010417Y032536D01*
X010354Y032548D01*
Y032599D01*
X010417Y032612D01*
X010491Y032661D01*
X010541Y032736D01*
X010549Y032774D01*
D02*
G37*
G36*
X01137Y032739D02*
X010931D01*
X010939Y032701D01*
X010988Y032626D01*
X011063Y032577D01*
X011126Y032564D01*
Y032513D01*
X011063Y032501D01*
X010988Y032451D01*
X010939Y032376D01*
X010931Y032339D01*
X01137D01*
X011363Y032376D01*
X011313Y032451D01*
X011238Y032501D01*
X011175Y032513D01*
Y032564D01*
X011238Y032577D01*
X011313Y032626D01*
X011363Y032701D01*
X01137Y032739D01*
D02*
G37*
G36*
X010549Y032274D02*
X010379D01*
Y032104D01*
X010417Y032112D01*
X010491Y032161D01*
X010541Y032236D01*
X010549Y032274D01*
D02*
G37*
G36*
X010279D02*
X01011D01*
X010117Y032236D01*
X010167Y032161D01*
X010241Y032112D01*
X010279Y032104D01*
Y032274D01*
D02*
G37*
G36*
X01137Y032239D02*
X010931D01*
X010939Y032201D01*
X010959Y03217D01*
X010954Y032167D01*
X010904Y032092D01*
X010897Y032054D01*
X011335D01*
X011328Y032092D01*
X011308Y032123D01*
X011313Y032126D01*
X011363Y032201D01*
X01137Y032239D01*
D02*
G37*
G36*
X013203Y03215D02*
Y03198D01*
X013372D01*
X013365Y032018D01*
X013315Y032093D01*
X013241Y032142D01*
X013203Y03215D01*
D02*
G37*
G36*
X011606Y032096D02*
X011568Y032089D01*
X011494Y032039D01*
X011444Y031965D01*
X011436Y031927D01*
X011606D01*
Y032096D01*
D02*
G37*
G36*
X013103Y03215D02*
X013065Y032142D01*
X012991Y032093D01*
X012941Y032018D01*
X012923Y03193D01*
X012879Y031926D01*
Y031926D01*
X012879D01*
X012868Y031965D01*
X012864Y031971D01*
X012818Y032039D01*
X012744Y032089D01*
X012706Y032096D01*
Y031877D01*
Y031658D01*
X012744Y031665D01*
X012818Y031715D01*
X012868Y031789D01*
X012885Y031877D01*
X01293Y031881D01*
Y031881D01*
X01293D01*
X012941Y031843D01*
X012945Y031837D01*
X012991Y031768D01*
X013065Y031718D01*
X013103Y031711D01*
Y03193D01*
Y03215D01*
D02*
G37*
G36*
X012606Y032096D02*
X012568Y032089D01*
X012494Y032039D01*
X012444Y031965D01*
X012431Y031902D01*
X01238D01*
X012368Y031965D01*
X012318Y032039D01*
X012244Y032089D01*
X012206Y032096D01*
Y031877D01*
Y031658D01*
X012244Y031665D01*
X012318Y031715D01*
X012368Y031789D01*
X01238Y031852D01*
X012431D01*
X012444Y031789D01*
X012494Y031715D01*
X012568Y031665D01*
X012606Y031658D01*
Y031877D01*
Y032096D01*
D02*
G37*
G36*
X012106D02*
X012068Y032089D01*
X011994Y032039D01*
X011944Y031965D01*
X011931Y031902D01*
X01188D01*
X011868Y031965D01*
X011818Y032039D01*
X011744Y032089D01*
X011706Y032096D01*
Y031877D01*
Y031658D01*
X011744Y031665D01*
X011818Y031715D01*
X011868Y031789D01*
X01188Y031852D01*
X011931D01*
X011944Y031789D01*
X011994Y031715D01*
X012068Y031665D01*
X012106Y031658D01*
Y031877D01*
Y032096D01*
D02*
G37*
G36*
X010526Y031994D02*
Y031824D01*
X010695D01*
X010687Y031862D01*
X010638Y031936D01*
X010563Y031986D01*
X010526Y031994D01*
D02*
G37*
G36*
X010426D02*
X010388Y031986D01*
X010313Y031936D01*
X010264Y031862D01*
X010256Y031824D01*
X010426D01*
Y031994D01*
D02*
G37*
G36*
X011335Y031954D02*
X011166D01*
Y031785D01*
X011204Y031792D01*
X011278Y031842D01*
X011328Y031917D01*
X011335Y031954D01*
D02*
G37*
G36*
X011066D02*
X010897D01*
X010904Y031917D01*
X010954Y031842D01*
X011028Y031792D01*
X011066Y031785D01*
Y031954D01*
D02*
G37*
G36*
X013372Y03188D02*
X013203D01*
Y031711D01*
X013241Y031718D01*
X013315Y031768D01*
X013365Y031843D01*
X013372Y03188D01*
D02*
G37*
G36*
X011606Y031827D02*
X011436D01*
X011444Y031789D01*
X011494Y031715D01*
X011568Y031665D01*
X011606Y031658D01*
Y031827D01*
D02*
G37*
G36*
X010426Y031724D02*
X010256D01*
X010264Y031686D01*
X010313Y031612D01*
X010388Y031562D01*
X010426Y031555D01*
Y031724D01*
D02*
G37*
G36*
X0188Y035535D02*
X015367D01*
X015328Y035527D01*
X015295Y035505D01*
X015273Y035472D01*
X015265Y035433D01*
Y031703D01*
X015256Y031689D01*
X015248Y03165D01*
X015256Y031611D01*
X015278Y031578D01*
X015311Y031556D01*
X01535Y031548D01*
X0188D01*
X018839Y031556D01*
X018872Y031578D01*
X018894Y031611D01*
X018902Y03165D01*
Y035433D01*
X018894Y035472D01*
X018872Y035505D01*
X018839Y035527D01*
X0188Y035535D01*
D02*
G37*
G36*
X010811Y031583D02*
Y031414D01*
X010981D01*
X010973Y031452D01*
X010924Y031526D01*
X010849Y031576D01*
X010811Y031583D01*
D02*
G37*
G36*
X010695Y031724D02*
X010526D01*
Y031555D01*
X010563Y031562D01*
X010571Y031568D01*
X010599Y031526D01*
X010549Y031452D01*
X010542Y031414D01*
X010711D01*
Y031583D01*
X010674Y031576D01*
X010666Y031571D01*
X010638Y031612D01*
X010687Y031686D01*
X010695Y031724D01*
D02*
G37*
G36*
X013119Y031371D02*
Y031202D01*
X013289D01*
X013281Y03124D01*
X013232Y031314D01*
X013157Y031364D01*
X013119Y031371D01*
D02*
G37*
G36*
X011522Y031318D02*
X011485Y031311D01*
X01141Y031261D01*
X01136Y031186D01*
X011353Y031149D01*
X011522D01*
Y031318D01*
D02*
G37*
G36*
X013019Y031371D02*
X012982Y031364D01*
X012907Y031314D01*
X012857Y03124D01*
X01284Y031152D01*
X012796Y031148D01*
Y031148D01*
X012796D01*
X012784Y031186D01*
X01278Y031192D01*
X012735Y031261D01*
X01266Y031311D01*
X012622Y031318D01*
Y031099D01*
Y030879D01*
X01266Y030887D01*
X012735Y030936D01*
X012784Y031011D01*
X012802Y031099D01*
X012846Y031103D01*
Y031103D01*
X012846D01*
X012857Y031064D01*
X012861Y031058D01*
X012907Y03099D01*
X012982Y03094D01*
X013019Y030933D01*
Y031152D01*
Y031371D01*
D02*
G37*
G36*
X010981Y031314D02*
X010811D01*
Y031145D01*
X010849Y031152D01*
X010924Y031202D01*
X010973Y031276D01*
X010981Y031314D01*
D02*
G37*
G36*
X010711D02*
X010542D01*
X010549Y031276D01*
X010599Y031202D01*
X010674Y031152D01*
X010711Y031145D01*
Y031314D01*
D02*
G37*
G36*
X012522Y031318D02*
X012485Y031311D01*
X01241Y031261D01*
X01236Y031186D01*
X012348Y031123D01*
X012297D01*
X012284Y031186D01*
X012234Y031261D01*
X01216Y031311D01*
X012122Y031318D01*
Y031099D01*
Y030879D01*
X01216Y030887D01*
X012234Y030936D01*
X012284Y031011D01*
X012297Y031074D01*
X012348D01*
X01236Y031011D01*
X01241Y030936D01*
X012485Y030887D01*
X012522Y030879D01*
Y031099D01*
Y031318D01*
D02*
G37*
G36*
X012022D02*
X011984Y031311D01*
X01191Y031261D01*
X01186Y031186D01*
X011848Y031123D01*
X011797D01*
X011784Y031186D01*
X011734Y031261D01*
X01166Y031311D01*
X011622Y031318D01*
Y031099D01*
Y030879D01*
X01166Y030887D01*
X011734Y030936D01*
X011784Y031011D01*
X011797Y031074D01*
X011848D01*
X01186Y031011D01*
X01191Y030936D01*
X011984Y030887D01*
X012022Y030879D01*
Y031099D01*
Y031318D01*
D02*
G37*
G36*
X013289Y031102D02*
X013119D01*
Y030933D01*
X013157Y03094D01*
X013232Y03099D01*
X013281Y031064D01*
X013289Y031102D01*
D02*
G37*
G36*
X011522Y031049D02*
X011353D01*
X01136Y031011D01*
X01141Y030936D01*
X011485Y030887D01*
X011522Y030879D01*
Y031049D01*
D02*
G37*
G36*
X01955Y030346D02*
Y03005D01*
X019846D01*
X019841Y030091D01*
X019806Y030177D01*
X01975Y03025D01*
X019677Y030306D01*
X019591Y030341D01*
X01955Y030346D01*
D02*
G37*
G36*
X01945D02*
X019409Y030341D01*
X019323Y030306D01*
X01925Y03025D01*
X019194Y030177D01*
X019159Y030091D01*
X019154Y03005D01*
X01945D01*
Y030346D01*
D02*
G37*
G36*
X01355D02*
Y03005D01*
X013846D01*
X013841Y030091D01*
X013806Y030177D01*
X01375Y03025D01*
X013677Y030306D01*
X013591Y030341D01*
X01355Y030346D01*
D02*
G37*
G36*
X01345D02*
X013409Y030341D01*
X013323Y030306D01*
X01325Y03025D01*
X013194Y030177D01*
X013159Y030091D01*
X013154Y03005D01*
X01345D01*
Y030346D01*
D02*
G37*
G36*
X01205D02*
Y03005D01*
X012346D01*
X012341Y030091D01*
X012306Y030177D01*
X01225Y03025D01*
X012177Y030306D01*
X012091Y030341D01*
X01205Y030346D01*
D02*
G37*
G36*
X01195D02*
X011909Y030341D01*
X011823Y030306D01*
X01175Y03025D01*
X011694Y030177D01*
X011659Y030091D01*
X011654Y03005D01*
X01195D01*
Y030346D01*
D02*
G37*
G36*
X01055D02*
Y03005D01*
X010846D01*
X010841Y030091D01*
X010806Y030177D01*
X01075Y03025D01*
X010677Y030306D01*
X010591Y030341D01*
X01055Y030346D01*
D02*
G37*
G36*
X01045D02*
X010409Y030341D01*
X010323Y030306D01*
X01025Y03025D01*
X010194Y030177D01*
X010159Y030091D01*
X010154Y03005D01*
X01045D01*
Y030346D01*
D02*
G37*
G36*
X019846Y02995D02*
X01955D01*
Y029654D01*
X019591Y029659D01*
X019677Y029694D01*
X01975Y02975D01*
X019806Y029823D01*
X019841Y029909D01*
X019846Y02995D01*
D02*
G37*
G36*
X01945D02*
X019154D01*
X019159Y029909D01*
X019194Y029823D01*
X01925Y02975D01*
X019323Y029694D01*
X019409Y029659D01*
X01945Y029654D01*
Y02995D01*
D02*
G37*
G36*
X013846D02*
X01355D01*
Y029654D01*
X013591Y029659D01*
X013677Y029694D01*
X01375Y02975D01*
X013806Y029823D01*
X013841Y029909D01*
X013846Y02995D01*
D02*
G37*
G36*
X01345D02*
X013154D01*
X013159Y029909D01*
X013194Y029823D01*
X01325Y02975D01*
X013323Y029694D01*
X013409Y029659D01*
X01345Y029654D01*
Y02995D01*
D02*
G37*
G36*
X012346D02*
X01205D01*
Y029654D01*
X012091Y029659D01*
X012177Y029694D01*
X01225Y02975D01*
X012306Y029823D01*
X012341Y029909D01*
X012346Y02995D01*
D02*
G37*
G36*
X01195D02*
X011654D01*
X011659Y029909D01*
X011694Y029823D01*
X01175Y02975D01*
X011823Y029694D01*
X011909Y029659D01*
X01195Y029654D01*
Y02995D01*
D02*
G37*
G36*
X010846D02*
X01055D01*
Y029654D01*
X010591Y029659D01*
X010677Y029694D01*
X01075Y02975D01*
X010806Y029823D01*
X010841Y029909D01*
X010846Y02995D01*
D02*
G37*
G36*
X01045D02*
X010154D01*
X010159Y029909D01*
X010194Y029823D01*
X01025Y02975D01*
X010323Y029694D01*
X010409Y029659D01*
X01045Y029654D01*
Y02995D01*
D02*
G37*
G36*
X0143Y028846D02*
Y02855D01*
X014596D01*
X014591Y028591D01*
X014556Y028677D01*
X0145Y02875D01*
X014427Y028806D01*
X014341Y028841D01*
X0143Y028846D01*
D02*
G37*
G36*
X0142D02*
X014159Y028841D01*
X014073Y028806D01*
X014Y02875D01*
X013944Y028677D01*
X013909Y028591D01*
X013904Y02855D01*
X0142D01*
Y028846D01*
D02*
G37*
G36*
X0128D02*
Y02855D01*
X013096D01*
X013091Y028591D01*
X013056Y028677D01*
X013Y02875D01*
X012927Y028806D01*
X012841Y028841D01*
X0128Y028846D01*
D02*
G37*
G36*
X0127D02*
X012659Y028841D01*
X012573Y028806D01*
X0125Y02875D01*
X012444Y028677D01*
X012409Y028591D01*
X012404Y02855D01*
X0127D01*
Y028846D01*
D02*
G37*
G36*
X0113D02*
Y02855D01*
X011596D01*
X011591Y028591D01*
X011556Y028677D01*
X0115Y02875D01*
X011427Y028806D01*
X011341Y028841D01*
X0113Y028846D01*
D02*
G37*
G36*
X0112D02*
X011159Y028841D01*
X011073Y028806D01*
X011Y02875D01*
X010944Y028677D01*
X010909Y028591D01*
X010904Y02855D01*
X0112D01*
Y028846D01*
D02*
G37*
G36*
X014596Y02845D02*
X0143D01*
Y028154D01*
X014341Y028159D01*
X014427Y028194D01*
X0145Y02825D01*
X014556Y028323D01*
X014591Y028409D01*
X014596Y02845D01*
D02*
G37*
G36*
X0142D02*
X013904D01*
X013909Y028409D01*
X013944Y028323D01*
X014Y02825D01*
X014073Y028194D01*
X014159Y028159D01*
X0142Y028154D01*
Y02845D01*
D02*
G37*
G36*
X013096D02*
X0128D01*
Y028154D01*
X012841Y028159D01*
X012927Y028194D01*
X013Y02825D01*
X013056Y028323D01*
X013091Y028409D01*
X013096Y02845D01*
D02*
G37*
G36*
X0127D02*
X012404D01*
X012409Y028409D01*
X012444Y028323D01*
X0125Y02825D01*
X012573Y028194D01*
X012659Y028159D01*
X0127Y028154D01*
Y02845D01*
D02*
G37*
G36*
X011596D02*
X0113D01*
Y028154D01*
X011341Y028159D01*
X011427Y028194D01*
X0115Y02825D01*
X011556Y028323D01*
X011591Y028409D01*
X011596Y02845D01*
D02*
G37*
G36*
X0112D02*
X010904D01*
X010909Y028409D01*
X010944Y028323D01*
X011Y02825D01*
X011073Y028194D01*
X011159Y028159D01*
X0112Y028154D01*
Y02845D01*
D02*
G37*
G36*
X01955Y027346D02*
Y02705D01*
X019846D01*
X019841Y027091D01*
X019806Y027177D01*
X01975Y02725D01*
X019677Y027306D01*
X019591Y027341D01*
X01955Y027346D01*
D02*
G37*
G36*
X01945D02*
X019409Y027341D01*
X019323Y027306D01*
X01925Y02725D01*
X019194Y027177D01*
X019159Y027091D01*
X019154Y02705D01*
X01945D01*
Y027346D01*
D02*
G37*
G36*
X01355D02*
Y02705D01*
X013846D01*
X013841Y027091D01*
X013806Y027177D01*
X01375Y02725D01*
X013677Y027306D01*
X013591Y027341D01*
X01355Y027346D01*
D02*
G37*
G36*
X01345D02*
X013409Y027341D01*
X013323Y027306D01*
X01325Y02725D01*
X013194Y027177D01*
X013159Y027091D01*
X013154Y02705D01*
X01345D01*
Y027346D01*
D02*
G37*
G36*
X01205D02*
Y02705D01*
X012346D01*
X012341Y027091D01*
X012306Y027177D01*
X01225Y02725D01*
X012177Y027306D01*
X012091Y027341D01*
X01205Y027346D01*
D02*
G37*
G36*
X01195D02*
X011909Y027341D01*
X011823Y027306D01*
X01175Y02725D01*
X011694Y027177D01*
X011659Y027091D01*
X011654Y02705D01*
X01195D01*
Y027346D01*
D02*
G37*
G36*
X01055D02*
Y02705D01*
X010846D01*
X010841Y027091D01*
X010806Y027177D01*
X01075Y02725D01*
X010677Y027306D01*
X010591Y027341D01*
X01055Y027346D01*
D02*
G37*
G36*
X01045D02*
X010409Y027341D01*
X010323Y027306D01*
X01025Y02725D01*
X010194Y027177D01*
X010159Y027091D01*
X010154Y02705D01*
X01045D01*
Y027346D01*
D02*
G37*
G36*
X019846Y02695D02*
X01955D01*
Y026654D01*
X019591Y026659D01*
X019677Y026694D01*
X01975Y02675D01*
X019806Y026823D01*
X019841Y026909D01*
X019846Y02695D01*
D02*
G37*
G36*
X01945D02*
X019154D01*
X019159Y026909D01*
X019194Y026823D01*
X01925Y02675D01*
X019323Y026694D01*
X019409Y026659D01*
X01945Y026654D01*
Y02695D01*
D02*
G37*
G36*
X013846D02*
X01355D01*
Y026654D01*
X013591Y026659D01*
X013677Y026694D01*
X01375Y02675D01*
X013806Y026823D01*
X013841Y026909D01*
X013846Y02695D01*
D02*
G37*
G36*
X01345D02*
X013154D01*
X013159Y026909D01*
X013194Y026823D01*
X01325Y02675D01*
X013323Y026694D01*
X013409Y026659D01*
X01345Y026654D01*
Y02695D01*
D02*
G37*
G36*
X012346D02*
X01205D01*
Y026654D01*
X012091Y026659D01*
X012177Y026694D01*
X01225Y02675D01*
X012306Y026823D01*
X012341Y026909D01*
X012346Y02695D01*
D02*
G37*
G36*
X01195D02*
X011654D01*
X011659Y026909D01*
X011694Y026823D01*
X01175Y02675D01*
X011823Y026694D01*
X011909Y026659D01*
X01195Y026654D01*
Y02695D01*
D02*
G37*
G36*
X010846D02*
X01055D01*
Y026654D01*
X010591Y026659D01*
X010677Y026694D01*
X01075Y02675D01*
X010806Y026823D01*
X010841Y026909D01*
X010846Y02695D01*
D02*
G37*
G36*
X01045D02*
X010154D01*
X010159Y026909D01*
X010194Y026823D01*
X01025Y02675D01*
X010323Y026694D01*
X010409Y026659D01*
X01045Y026654D01*
Y02695D01*
D02*
G37*
G36*
X0188Y025846D02*
Y02555D01*
X019096D01*
X019091Y025591D01*
X019056Y025677D01*
X019Y02575D01*
X018927Y025806D01*
X018841Y025841D01*
X0188Y025846D01*
D02*
G37*
G36*
X0187D02*
X018659Y025841D01*
X018573Y025806D01*
X0185Y02575D01*
X018444Y025677D01*
X018409Y025591D01*
X018404Y02555D01*
X0187D01*
Y025846D01*
D02*
G37*
G36*
X0173D02*
Y02555D01*
X017596D01*
X017591Y025591D01*
X017556Y025677D01*
X0175Y02575D01*
X017427Y025806D01*
X017341Y025841D01*
X0173Y025846D01*
D02*
G37*
G36*
X0172D02*
X017159Y025841D01*
X017073Y025806D01*
X017Y02575D01*
X016944Y025677D01*
X016909Y025591D01*
X016904Y02555D01*
X0172D01*
Y025846D01*
D02*
G37*
G36*
X0143D02*
Y02555D01*
X014596D01*
X014591Y025591D01*
X014556Y025677D01*
X0145Y02575D01*
X014427Y025806D01*
X014341Y025841D01*
X0143Y025846D01*
D02*
G37*
G36*
X0142D02*
X014159Y025841D01*
X014073Y025806D01*
X014Y02575D01*
X013944Y025677D01*
X013909Y025591D01*
X013904Y02555D01*
X0142D01*
Y025846D01*
D02*
G37*
G36*
X0128D02*
Y02555D01*
X013096D01*
X013091Y025591D01*
X013056Y025677D01*
X013Y02575D01*
X012927Y025806D01*
X012841Y025841D01*
X0128Y025846D01*
D02*
G37*
G36*
X0127D02*
X012659Y025841D01*
X012573Y025806D01*
X0125Y02575D01*
X012444Y025677D01*
X012409Y025591D01*
X012404Y02555D01*
X0127D01*
Y025846D01*
D02*
G37*
G36*
X0113D02*
Y02555D01*
X011596D01*
X011591Y025591D01*
X011556Y025677D01*
X0115Y02575D01*
X011427Y025806D01*
X011341Y025841D01*
X0113Y025846D01*
D02*
G37*
G36*
X0112D02*
X011159Y025841D01*
X011073Y025806D01*
X011Y02575D01*
X010944Y025677D01*
X010909Y025591D01*
X010904Y02555D01*
X0112D01*
Y025846D01*
D02*
G37*
G36*
X019096Y02545D02*
X0188D01*
Y025154D01*
X018841Y025159D01*
X018927Y025194D01*
X019Y02525D01*
X019056Y025323D01*
X019091Y025409D01*
X019096Y02545D01*
D02*
G37*
G36*
X0187D02*
X018404D01*
X018409Y025409D01*
X018444Y025323D01*
X0185Y02525D01*
X018573Y025194D01*
X018659Y025159D01*
X0187Y025154D01*
Y02545D01*
D02*
G37*
G36*
X017596D02*
X0173D01*
Y025154D01*
X017341Y025159D01*
X017427Y025194D01*
X0175Y02525D01*
X017556Y025323D01*
X017591Y025409D01*
X017596Y02545D01*
D02*
G37*
G36*
X0172D02*
X016904D01*
X016909Y025409D01*
X016944Y025323D01*
X017Y02525D01*
X017073Y025194D01*
X017159Y025159D01*
X0172Y025154D01*
Y02545D01*
D02*
G37*
G36*
X014596D02*
X0143D01*
Y025154D01*
X014341Y025159D01*
X014427Y025194D01*
X0145Y02525D01*
X014556Y025323D01*
X014591Y025409D01*
X014596Y02545D01*
D02*
G37*
G36*
X0142D02*
X013904D01*
X013909Y025409D01*
X013944Y025323D01*
X014Y02525D01*
X014073Y025194D01*
X014159Y025159D01*
X0142Y025154D01*
Y02545D01*
D02*
G37*
G36*
X013096D02*
X0128D01*
Y025154D01*
X012841Y025159D01*
X012927Y025194D01*
X013Y02525D01*
X013056Y025323D01*
X013091Y025409D01*
X013096Y02545D01*
D02*
G37*
G36*
X0127D02*
X012404D01*
X012409Y025409D01*
X012444Y025323D01*
X0125Y02525D01*
X012573Y025194D01*
X012659Y025159D01*
X0127Y025154D01*
Y02545D01*
D02*
G37*
G36*
X011596D02*
X0113D01*
Y025154D01*
X011341Y025159D01*
X011427Y025194D01*
X0115Y02525D01*
X011556Y025323D01*
X011591Y025409D01*
X011596Y02545D01*
D02*
G37*
G36*
X0112D02*
X010904D01*
X010909Y025409D01*
X010944Y025323D01*
X011Y02525D01*
X011073Y025194D01*
X011159Y025159D01*
X0112Y025154D01*
Y02545D01*
D02*
G37*
G36*
X01355Y024346D02*
Y02405D01*
X013846D01*
X013841Y024091D01*
X013806Y024177D01*
X01375Y02425D01*
X013677Y024306D01*
X013591Y024341D01*
X01355Y024346D01*
D02*
G37*
G36*
X01345D02*
X013409Y024341D01*
X013323Y024306D01*
X01325Y02425D01*
X013194Y024177D01*
X013159Y024091D01*
X013154Y02405D01*
X01345D01*
Y024346D01*
D02*
G37*
G36*
X01205D02*
Y02405D01*
X012346D01*
X012341Y024091D01*
X012306Y024177D01*
X01225Y02425D01*
X012177Y024306D01*
X012091Y024341D01*
X01205Y024346D01*
D02*
G37*
G36*
X01195D02*
X011909Y024341D01*
X011823Y024306D01*
X01175Y02425D01*
X011694Y024177D01*
X011659Y024091D01*
X011654Y02405D01*
X01195D01*
Y024346D01*
D02*
G37*
G36*
X01055D02*
Y02405D01*
X010846D01*
X010841Y024091D01*
X010806Y024177D01*
X01075Y02425D01*
X010677Y024306D01*
X010591Y024341D01*
X01055Y024346D01*
D02*
G37*
G36*
X01045D02*
X010409Y024341D01*
X010323Y024306D01*
X01025Y02425D01*
X010194Y024177D01*
X010159Y024091D01*
X010154Y02405D01*
X01045D01*
Y024346D01*
D02*
G37*
G36*
X013846Y02395D02*
X01355D01*
Y023654D01*
X013591Y023659D01*
X013677Y023694D01*
X01375Y02375D01*
X013806Y023823D01*
X013841Y023909D01*
X013846Y02395D01*
D02*
G37*
G36*
X01345D02*
X013154D01*
X013159Y023909D01*
X013194Y023823D01*
X01325Y02375D01*
X013323Y023694D01*
X013409Y023659D01*
X01345Y023654D01*
Y02395D01*
D02*
G37*
G36*
X012346D02*
X01205D01*
Y023654D01*
X012091Y023659D01*
X012177Y023694D01*
X01225Y02375D01*
X012306Y023823D01*
X012341Y023909D01*
X012346Y02395D01*
D02*
G37*
G36*
X01195D02*
X011654D01*
X011659Y023909D01*
X011694Y023823D01*
X01175Y02375D01*
X011823Y023694D01*
X011909Y023659D01*
X01195Y023654D01*
Y02395D01*
D02*
G37*
G36*
X010846D02*
X01055D01*
Y023654D01*
X010591Y023659D01*
X010677Y023694D01*
X01075Y02375D01*
X010806Y023823D01*
X010841Y023909D01*
X010846Y02395D01*
D02*
G37*
G36*
X01045D02*
X010154D01*
X010159Y023909D01*
X010194Y023823D01*
X01025Y02375D01*
X010323Y023694D01*
X010409Y023659D01*
X01045Y023654D01*
Y02395D01*
D02*
G37*
G36*
X0335Y045703D02*
X03325D01*
Y04515D01*
X034098D01*
X034091Y045218D01*
X034057Y045331D01*
X034001Y045435D01*
X033926Y045526D01*
X033835Y045601D01*
X033731Y045657D01*
X033618Y045691D01*
X0335Y045703D01*
D02*
G37*
G36*
X03315D02*
X0329D01*
X032782Y045691D01*
X032669Y045657D01*
X032565Y045601D01*
X032474Y045526D01*
X032399Y045435D01*
X032343Y045331D01*
X032309Y045218D01*
X032302Y04515D01*
X03315D01*
Y045703D01*
D02*
G37*
G36*
X0244Y045788D02*
X024287Y045773D01*
X024181Y04573D01*
X02409Y04566D01*
X02402Y045569D01*
X023977Y045463D01*
X023962Y04535D01*
X023977Y045237D01*
X02402Y045131D01*
X02409Y04504D01*
X024181Y04497D01*
X024287Y044927D01*
X0244Y044912D01*
X024513Y044927D01*
X024619Y04497D01*
X02471Y04504D01*
X02478Y045131D01*
X024823Y045237D01*
X024838Y04535D01*
X024823Y045463D01*
X02478Y045569D01*
X02471Y04566D01*
X024619Y04573D01*
X024513Y045773D01*
X0244Y045788D01*
D02*
G37*
G36*
X034098Y04505D02*
X03325D01*
Y044497D01*
X0335D01*
X033618Y044509D01*
X033731Y044543D01*
X033835Y044599D01*
X033926Y044674D01*
X034001Y044765D01*
X034057Y044869D01*
X034091Y044982D01*
X034098Y04505D01*
D02*
G37*
G36*
X03315D02*
X032302D01*
X032309Y044982D01*
X032343Y044869D01*
X032399Y044765D01*
X032474Y044674D01*
X032565Y044599D01*
X032669Y044543D01*
X032782Y044509D01*
X0329Y044497D01*
X03315D01*
Y04505D01*
D02*
G37*
G36*
X027128Y044723D02*
Y0443D01*
X027551D01*
X027541Y044374D01*
X027493Y04449D01*
X027417Y044589D01*
X027318Y044665D01*
X027202Y044713D01*
X027128Y044723D01*
D02*
G37*
G36*
X027028D02*
X026954Y044713D01*
X026839Y044665D01*
X02674Y044589D01*
X026663Y04449D01*
X026616Y044374D01*
X026606Y0443D01*
X027028D01*
Y044723D01*
D02*
G37*
G36*
X0244Y044801D02*
X024287Y044786D01*
X024181Y044743D01*
X02409Y044673D01*
X02402Y044582D01*
X023977Y044476D01*
X023962Y044363D01*
X023977Y04425D01*
X02402Y044144D01*
X02409Y044053D01*
X024181Y043983D01*
X024287Y04394D01*
X0244Y043925D01*
X024513Y04394D01*
X024619Y043983D01*
X02471Y044053D01*
X02478Y044144D01*
X024823Y04425D01*
X024838Y044363D01*
X024823Y044476D01*
X02478Y044582D01*
X02471Y044673D01*
X024619Y044743D01*
X024513Y044786D01*
X0244Y044801D01*
D02*
G37*
G36*
X027551Y0442D02*
X027128D01*
Y043777D01*
X027202Y043787D01*
X027318Y043835D01*
X027417Y043911D01*
X027493Y04401D01*
X027541Y044126D01*
X027551Y0442D01*
D02*
G37*
G36*
X027028D02*
X026606D01*
X026616Y044126D01*
X026663Y04401D01*
X02674Y043911D01*
X026839Y043835D01*
X026954Y043787D01*
X027028Y043777D01*
Y0442D01*
D02*
G37*
G36*
X03125Y044498D02*
Y04365D01*
X031803D01*
Y0439D01*
X031791Y044018D01*
X031757Y044131D01*
X031701Y044235D01*
X031626Y044326D01*
X031535Y044401D01*
X031431Y044457D01*
X031318Y044491D01*
X03125Y044498D01*
D02*
G37*
G36*
X03115D02*
X031082Y044491D01*
X030969Y044457D01*
X030865Y044401D01*
X030774Y044326D01*
X030699Y044235D01*
X030643Y044131D01*
X030609Y044018D01*
X030597Y0439D01*
Y04365D01*
X03115D01*
Y044498D01*
D02*
G37*
G36*
X029342Y04377D02*
X029212Y043753D01*
X02909Y043703D01*
X028986Y043622D01*
X028905Y043518D01*
X028855Y043396D01*
X028838Y043266D01*
X028855Y043135D01*
X028905Y043014D01*
X028986Y042909D01*
X02909Y042829D01*
X029212Y042779D01*
X029342Y042761D01*
X029473Y042779D01*
X029594Y042829D01*
X029699Y042909D01*
X029779Y043014D01*
X029829Y043135D01*
X029846Y043266D01*
X029829Y043396D01*
X029779Y043518D01*
X029699Y043622D01*
X029594Y043703D01*
X029473Y043753D01*
X029342Y04377D01*
D02*
G37*
G36*
X026586D02*
X026456Y043753D01*
X026334Y043703D01*
X02623Y043622D01*
X026149Y043518D01*
X026099Y043396D01*
X026082Y043266D01*
X026099Y043135D01*
X026149Y043014D01*
X02623Y042909D01*
X026334Y042829D01*
X026456Y042779D01*
X026586Y042761D01*
X026717Y042779D01*
X026838Y042829D01*
X026943Y042909D01*
X027023Y043014D01*
X027073Y043135D01*
X027091Y043266D01*
X027073Y043396D01*
X027023Y043518D01*
X026943Y043622D01*
X026838Y043703D01*
X026717Y043753D01*
X026586Y04377D01*
D02*
G37*
G36*
X03115Y04355D02*
X030597D01*
Y0433D01*
X030609Y043182D01*
X030643Y043069D01*
X030699Y042965D01*
X030774Y042874D01*
X030865Y042799D01*
X030969Y042743D01*
X031082Y042709D01*
X03115Y042702D01*
Y04355D01*
D02*
G37*
G36*
X031803D02*
X03125D01*
Y042702D01*
X031318Y042709D01*
X031431Y042743D01*
X031535Y042799D01*
X031626Y042874D01*
X031701Y042965D01*
X031757Y043069D01*
X031791Y043182D01*
X031803Y0433D01*
Y04355D01*
D02*
G37*
G36*
X03195Y040992D02*
X031897Y040985D01*
X031801Y040945D01*
X031718Y040882D01*
X031677Y040828D01*
X031775Y040814D01*
Y04065D01*
X03195D01*
Y040992D01*
D02*
G37*
G36*
Y04055D02*
X031775D01*
X031775Y040274D01*
X031801Y040255D01*
X031897Y040215D01*
X03195Y040208D01*
Y04055D01*
D02*
G37*
G36*
X031775Y040146D02*
Y039978D01*
X031903Y03985D01*
X032071D01*
X032066Y039891D01*
X032031Y039977D01*
X031975Y04005D01*
X031902Y040106D01*
X031816Y040141D01*
X031775Y040146D01*
D02*
G37*
G36*
X031381Y039866D02*
X031379Y03985D01*
X031397D01*
X031381Y039866D01*
D02*
G37*
G36*
X032071Y03975D02*
X032003D01*
X03206Y039693D01*
X032066Y039709D01*
X032071Y03975D01*
D02*
G37*
G36*
X031775Y039472D02*
Y039454D01*
X031791Y039456D01*
X031775Y039472D01*
D02*
G37*
G36*
X031497Y03975D02*
X031379D01*
X031384Y039709D01*
X031419Y039623D01*
X031475Y03955D01*
X031548Y039494D01*
X031634Y039459D01*
X031675Y039454D01*
Y039572D01*
X031497Y03975D01*
D02*
G37*
G36*
X031849Y039398D02*
X031794Y039327D01*
X031759Y039241D01*
X031754Y0392D01*
X032047D01*
X031849Y039398D01*
D02*
G37*
G36*
X03215Y039097D02*
Y038804D01*
X032191Y038809D01*
X032277Y038844D01*
X032348Y038899D01*
X03215Y039097D01*
D02*
G37*
G36*
X03205Y0391D02*
X031754D01*
X031759Y039059D01*
X031794Y038973D01*
X03185Y0389D01*
X031923Y038844D01*
X032009Y038809D01*
X03205Y038804D01*
Y0391D01*
D02*
G37*
G36*
X032875Y037302D02*
X032836Y037294D01*
X032803Y037272D01*
X032783Y037252D01*
X0306D01*
X030561Y037244D01*
X030528Y037222D01*
X030478Y037172D01*
X030456Y037139D01*
X030448Y0371D01*
X030448Y02605D01*
X030456Y026011D01*
X030478Y025978D01*
X030511Y025956D01*
X03055Y025948D01*
X0325Y025948D01*
X032539Y025956D01*
X032572Y025978D01*
X032972Y026378D01*
X032994Y026411D01*
X033002Y02645D01*
X032994Y026489D01*
X032977Y026515D01*
Y0298D01*
X032976Y029806D01*
X032976Y029813D01*
X03297Y029864D01*
X033018Y029884D01*
X033068Y029818D01*
X033151Y029755D01*
X033247Y029715D01*
X0333Y029708D01*
Y0301D01*
Y030492D01*
X033247Y030485D01*
X033151Y030445D01*
X033068Y030382D01*
X033008Y030303D01*
X033002Y030303D01*
X032958Y030337D01*
Y030495D01*
X032952D01*
Y032027D01*
X032944Y032066D01*
X032922Y032099D01*
X032052Y032969D01*
Y035858D01*
X032192Y035998D01*
X03246D01*
X032552Y03596D01*
Y035906D01*
X032451Y035864D01*
X032348Y035785D01*
X032269Y035682D01*
X032219Y035562D01*
X032209Y035483D01*
X0327D01*
X033191D01*
X033181Y035562D01*
X033131Y035682D01*
X033052Y035785D01*
X032949Y035864D01*
X032848Y035906D01*
Y03596D01*
X032949Y036002D01*
X033052Y036081D01*
X033131Y036184D01*
X033181Y036304D01*
X033198Y036433D01*
X033181Y036562D01*
X033152Y036632D01*
Y0371D01*
X033144Y037139D01*
X033122Y037172D01*
X033089Y037194D01*
X03305Y037202D01*
X033017D01*
X032947Y037272D01*
X032914Y037294D01*
X032875Y037302D01*
D02*
G37*
G36*
X033191Y035383D02*
X0327D01*
X032209D01*
X032219Y035304D01*
X032269Y035184D01*
X032348Y035081D01*
X032451Y035002D01*
X032552Y03496D01*
Y034906D01*
X032451Y034864D01*
X032348Y034785D01*
X032269Y034682D01*
X032219Y034562D01*
X032202Y034433D01*
X032219Y034304D01*
X032269Y034184D01*
X032348Y034081D01*
X032451Y034002D01*
X032552Y03396D01*
Y033906D01*
X032451Y033864D01*
X032348Y033785D01*
X032269Y033682D01*
X032219Y033562D01*
X032202Y033433D01*
X032219Y033304D01*
X032269Y033184D01*
X032348Y033081D01*
X032451Y033002D01*
X032571Y032952D01*
X0327Y032935D01*
X032829Y032952D01*
X032949Y033002D01*
X033052Y033081D01*
X033131Y033184D01*
X033181Y033304D01*
X033198Y033433D01*
X033181Y033562D01*
X033131Y033682D01*
X033052Y033785D01*
X032949Y033864D01*
X032848Y033906D01*
Y03396D01*
X032949Y034002D01*
X033052Y034081D01*
X033131Y034184D01*
X033181Y034304D01*
X033198Y034433D01*
X033181Y034562D01*
X033131Y034682D01*
X033052Y034785D01*
X032949Y034864D01*
X032848Y034906D01*
Y03496D01*
X032949Y035002D01*
X033052Y035081D01*
X033131Y035184D01*
X033181Y035304D01*
X033191Y035383D01*
D02*
G37*
G36*
X033975Y031827D02*
Y031546D01*
X034205D01*
X034199Y031587D01*
X034164Y031673D01*
X034108Y031746D01*
X034035Y031802D01*
X033975Y031827D01*
D02*
G37*
G36*
X034205Y031446D02*
X033975D01*
Y031166D01*
X034035Y03119D01*
X034108Y031246D01*
X034164Y03132D01*
X034199Y031405D01*
X034205Y031446D01*
D02*
G37*
G36*
X0262Y03235D02*
X0245D01*
Y03065D01*
X0262D01*
Y03235D01*
D02*
G37*
G36*
X0254Y030349D02*
Y02955D01*
X026199D01*
X026188Y029667D01*
X026139Y029827D01*
X02606Y029975D01*
X025954Y030104D01*
X025825Y03021D01*
X025677Y030289D01*
X025517Y030338D01*
X0254Y030349D01*
D02*
G37*
G36*
X0253D02*
X025183Y030338D01*
X025023Y030289D01*
X024875Y03021D01*
X024746Y030104D01*
X02464Y029975D01*
X024561Y029827D01*
X024512Y029667D01*
X024501Y02955D01*
X0253D01*
Y030349D01*
D02*
G37*
G36*
X026199Y02945D02*
X0254D01*
Y028651D01*
X025517Y028662D01*
X025677Y028711D01*
X025825Y02879D01*
X025954Y028896D01*
X02606Y029025D01*
X026139Y029173D01*
X026188Y029333D01*
X026199Y02945D01*
D02*
G37*
G36*
X0253D02*
X024501D01*
X024512Y029333D01*
X024561Y029173D01*
X02464Y029025D01*
X024746Y028896D01*
X024875Y02879D01*
X025023Y028711D01*
X025183Y028662D01*
X0253Y028651D01*
Y02945D01*
D02*
G37*
G36*
X02495Y027936D02*
Y027594D01*
X025292D01*
X025285Y027647D01*
X025245Y027743D01*
X025182Y027826D01*
X025099Y027889D01*
X025003Y027929D01*
X02495Y027936D01*
D02*
G37*
G36*
X02485D02*
X024797Y027929D01*
X024701Y027889D01*
X024618Y027826D01*
X024555Y027743D01*
X024515Y027647D01*
X024508Y027594D01*
X02485D01*
Y027936D01*
D02*
G37*
G36*
X025292Y027494D02*
X0249D01*
X024508D01*
X024515Y027441D01*
X024555Y027344D01*
X024618Y027262D01*
X024697Y027202D01*
X024697Y027196D01*
X024663Y027152D01*
X024505D01*
Y026361D01*
X025295D01*
Y027152D01*
X025137D01*
X025103Y027196D01*
X025103Y027202D01*
X025182Y027262D01*
X025245Y027344D01*
X025285Y027441D01*
X025292Y027494D01*
D02*
G37*
G36*
X03155Y025648D02*
X031421Y025631D01*
X031301Y025581D01*
X031198Y025502D01*
X031193Y025496D01*
X031172Y025478D01*
X031132Y025455D01*
X03108Y025432D01*
X031015Y025412D01*
X030939Y025393D01*
X030852Y025379D01*
X030516Y025352D01*
X029714D01*
X029713Y025352D01*
X029526Y025337D01*
X029343Y025293D01*
X029168Y025221D01*
X029008Y025123D01*
X028865Y025001D01*
X028864Y025D01*
X02575Y021886D01*
X025745Y021878D01*
X02563Y021784D01*
X025492Y021711D01*
X025342Y021665D01*
X025195Y02165D01*
X025186Y021652D01*
X014012D01*
X013888Y021657D01*
X013768Y021669D01*
X013723Y021677D01*
X013687Y021685D01*
X013662Y021693D01*
X01365Y021699D01*
X01365Y021699D01*
X01365Y0217D01*
X013577Y021756D01*
X013491Y021791D01*
X0134Y021803D01*
X013309Y021791D01*
X013223Y021756D01*
X01315Y0217D01*
X013094Y021627D01*
X013059Y021541D01*
X013047Y02145D01*
X013059Y021359D01*
X013094Y021273D01*
X01315Y0212D01*
X013223Y021144D01*
X013309Y021109D01*
X0134Y021097D01*
X013491Y021109D01*
X013577Y021144D01*
X01365Y0212D01*
X01365Y021201D01*
X01365Y021201D01*
X013662Y021207D01*
X013687Y021215D01*
X013723Y021223D01*
X013766Y021231D01*
X014025Y021248D01*
X025186D01*
X025187Y021248D01*
X025374Y021263D01*
X025557Y021307D01*
X025732Y021379D01*
X025892Y021477D01*
X026035Y021599D01*
X026036Y0216D01*
X02915Y024714D01*
X029155Y024722D01*
X02927Y024816D01*
X029408Y02489D01*
X029558Y024935D01*
X029705Y02495D01*
X029714Y024948D01*
X030519D01*
X030637Y024943D01*
X030851Y024922D01*
X030939Y024907D01*
X031015Y024888D01*
X03108Y024868D01*
X031132Y024845D01*
X031172Y024822D01*
X031193Y024804D01*
X031198Y024798D01*
X031301Y024719D01*
X031402Y024677D01*
Y024623D01*
X031301Y024581D01*
X031198Y024502D01*
X031154Y024445D01*
X031289D01*
X031293Y024448D01*
Y024445D01*
X03179D01*
X031787Y024464D01*
X031811Y024452D01*
X031835Y024445D01*
X031946D01*
X031902Y024502D01*
X031799Y024581D01*
X031698Y024623D01*
Y024677D01*
X031799Y024719D01*
X031902Y024798D01*
X031981Y024901D01*
X032031Y025021D01*
X032048Y02515D01*
X032031Y025279D01*
X031981Y025399D01*
X031902Y025502D01*
X031799Y025581D01*
X031679Y025631D01*
X03155Y025648D01*
D02*
G37*
G36*
X01873Y020621D02*
Y020325D01*
X019027D01*
X019021Y020366D01*
X018986Y020452D01*
X01893Y020525D01*
X018857Y020581D01*
X018772Y020616D01*
X01873Y020621D01*
D02*
G37*
G36*
X01863D02*
X018589Y020616D01*
X018504Y020581D01*
X018431Y020525D01*
X018375Y020452D01*
X018339Y020366D01*
X018334Y020325D01*
X01863D01*
Y020621D01*
D02*
G37*
G36*
X0198Y020604D02*
Y020308D01*
X020096D01*
X020091Y020349D01*
X020056Y020434D01*
X02Y020508D01*
X019927Y020564D01*
X019841Y020599D01*
X0198Y020604D01*
D02*
G37*
G36*
X0197D02*
X019659Y020599D01*
X019573Y020564D01*
X0195Y020508D01*
X019444Y020434D01*
X019409Y020349D01*
X019404Y020308D01*
X0197D01*
Y020604D01*
D02*
G37*
G36*
X017819Y020596D02*
Y0203D01*
X018116D01*
X01811Y020341D01*
X018075Y020427D01*
X018019Y0205D01*
X017946Y020556D01*
X017861Y020591D01*
X017819Y020596D01*
D02*
G37*
G36*
X017719D02*
X017678Y020591D01*
X017593Y020556D01*
X01752Y0205D01*
X017464Y020427D01*
X017428Y020341D01*
X017423Y0203D01*
X017719D01*
Y020596D01*
D02*
G37*
G36*
X019027Y020225D02*
X01873D01*
Y019929D01*
X018772Y019934D01*
X018857Y019969D01*
X01893Y020025D01*
X018986Y020098D01*
X019021Y020184D01*
X019027Y020225D01*
D02*
G37*
G36*
X01863D02*
X018334D01*
X018339Y020184D01*
X018375Y020098D01*
X018431Y020025D01*
X018504Y019969D01*
X018589Y019934D01*
X01863Y019929D01*
Y020225D01*
D02*
G37*
G36*
X020096Y020208D02*
X0198D01*
Y019911D01*
X019841Y019917D01*
X019927Y019952D01*
X02Y020008D01*
X020056Y020081D01*
X020091Y020167D01*
X020096Y020208D01*
D02*
G37*
G36*
X0197D02*
X019404D01*
X019409Y020167D01*
X019444Y020081D01*
X0195Y020008D01*
X019573Y019952D01*
X019659Y019917D01*
X0197Y019911D01*
Y020208D01*
D02*
G37*
G36*
X018116Y0202D02*
X017819D01*
Y019904D01*
X017861Y019909D01*
X017946Y019944D01*
X018019Y02D01*
X018075Y020073D01*
X01811Y020159D01*
X018116Y0202D01*
D02*
G37*
G36*
X017719D02*
X017423D01*
X017428Y020159D01*
X017464Y020073D01*
X01752Y02D01*
X017593Y019944D01*
X017678Y019909D01*
X017719Y019904D01*
Y0202D01*
D02*
G37*
G36*
X017017Y020109D02*
Y019813D01*
X017313D01*
X017308Y019854D01*
X017273Y019939D01*
X017217Y020012D01*
X017144Y020068D01*
X017058Y020104D01*
X017017Y020109D01*
D02*
G37*
G36*
X016917D02*
X016876Y020104D01*
X016791Y020068D01*
X016717Y020012D01*
X016661Y019939D01*
X016626Y019854D01*
X016621Y019813D01*
X016917D01*
Y020109D01*
D02*
G37*
G36*
X028049Y019795D02*
X027258D01*
Y019637D01*
X027214Y019603D01*
X027208Y019603D01*
X027148Y019682D01*
X027065Y019745D01*
X026969Y019785D01*
X026916Y019792D01*
Y0194D01*
Y019008D01*
X026969Y019015D01*
X027065Y019055D01*
X027148Y019118D01*
X027208Y019197D01*
X027214Y019197D01*
X027258Y019163D01*
Y019005D01*
X028049D01*
Y019795D01*
D02*
G37*
G36*
X026816Y019792D02*
X026763Y019785D01*
X026667Y019745D01*
X026584Y019682D01*
X026521Y019599D01*
X026481Y019503D01*
X026474Y01945D01*
X026816D01*
Y019792D01*
D02*
G37*
G36*
X017313Y019713D02*
X017017D01*
Y019416D01*
X017058Y019422D01*
X017144Y019457D01*
X017217Y019513D01*
X017273Y019586D01*
X017308Y019671D01*
X017313Y019713D01*
D02*
G37*
G36*
X016917D02*
X016621D01*
X016626Y019671D01*
X016661Y019586D01*
X016717Y019513D01*
X016791Y019457D01*
X016876Y019422D01*
X016917Y019416D01*
Y019713D01*
D02*
G37*
G36*
X026816Y01935D02*
X026474D01*
X026481Y019297D01*
X026521Y019201D01*
X026584Y019118D01*
X026667Y019055D01*
X026763Y019015D01*
X026816Y019008D01*
Y01935D01*
D02*
G37*
G36*
X012912Y019525D02*
X012487D01*
X012275Y019312D01*
Y018887D01*
X012487Y018675D01*
X012912D01*
X013125Y018887D01*
Y019312D01*
X012912Y019525D01*
D02*
G37*
G36*
X015365Y019415D02*
X014535D01*
Y019291D01*
X014534Y019271D01*
X014531Y019247D01*
X014527Y019229D01*
X014522Y019217D01*
X014518Y019211D01*
X014515Y019207D01*
X014512Y019206D01*
X014508Y019204D01*
X014503Y019202D01*
X014486D01*
X014485Y019202D01*
X014298Y019187D01*
X014115Y019143D01*
X01394Y019071D01*
X01378Y018973D01*
X013636Y01885D01*
X013514Y018707D01*
X013415Y018546D01*
X013343Y018371D01*
X013299Y018188D01*
X013284Y018002D01*
X013284Y018D01*
Y01464D01*
X013285Y014634D01*
X013272Y014567D01*
X013231Y014505D01*
X013169Y014464D01*
X013103Y014451D01*
X013096Y014452D01*
X013048D01*
X012985Y014535D01*
X012901Y014599D01*
X012804Y014639D01*
X0127Y014653D01*
X012596Y014639D01*
X012499Y014599D01*
X012415Y014535D01*
X012351Y014451D01*
X012311Y014354D01*
X012297Y01425D01*
X012311Y014146D01*
X012351Y014049D01*
X012415Y013965D01*
X012499Y013901D01*
X012596Y013861D01*
X0127Y013847D01*
X012804Y013861D01*
X012901Y013901D01*
X012985Y013965D01*
X013048Y014048D01*
X013096D01*
X013106Y01405D01*
X013211Y01406D01*
X013322Y014094D01*
X013425Y014148D01*
X013514Y014222D01*
X013588Y014312D01*
X013642Y014414D01*
X013676Y014525D01*
X013686Y01463D01*
X013688Y01464D01*
Y018D01*
X013687Y018009D01*
X013701Y018156D01*
X013747Y018306D01*
X013821Y018445D01*
X01392Y018566D01*
X014041Y018666D01*
X01418Y01874D01*
X01433Y018785D01*
X014477Y0188D01*
X014486Y018798D01*
X014503D01*
X014508Y018796D01*
X014512Y018794D01*
X014515Y018793D01*
X014518Y018789D01*
X014522Y018783D01*
X014527Y018771D01*
X014531Y018753D01*
X014534Y018729D01*
X014535Y018709D01*
Y018585D01*
X015365D01*
Y019415D01*
D02*
G37*
G36*
X01595Y019419D02*
X015842Y019404D01*
X015741Y019362D01*
X015654Y019296D01*
X015588Y019209D01*
X015546Y019108D01*
X015531Y019D01*
X015546Y018892D01*
X015588Y018791D01*
X015654Y018704D01*
X015741Y018638D01*
X015842Y018596D01*
X01595Y018581D01*
X016058Y018596D01*
X016159Y018638D01*
X016246Y018704D01*
X016312Y018791D01*
X016354Y018892D01*
X016369Y019D01*
X016354Y019108D01*
X016312Y019209D01*
X016246Y019296D01*
X016159Y019362D01*
X016058Y019404D01*
X01595Y019419D01*
D02*
G37*
G36*
X0127Y018529D02*
X012589Y018514D01*
X012486Y018471D01*
X012397Y018403D01*
X012329Y018314D01*
X012286Y018211D01*
X012271Y0181D01*
X012286Y017989D01*
X012329Y017886D01*
X012397Y017797D01*
X012486Y017729D01*
X012589Y017686D01*
X0127Y017671D01*
X012811Y017686D01*
X012914Y017729D01*
X013003Y017797D01*
X013071Y017886D01*
X013114Y017989D01*
X013129Y0181D01*
X013114Y018211D01*
X013071Y018314D01*
X013003Y018403D01*
X012914Y018471D01*
X012811Y018514D01*
X0127Y018529D01*
D02*
G37*
G36*
X01595Y018419D02*
X015842Y018404D01*
X015741Y018362D01*
X015654Y018296D01*
X015588Y018209D01*
X015546Y018108D01*
X015531Y018D01*
X015546Y017892D01*
X015588Y017791D01*
X015654Y017704D01*
X015741Y017638D01*
X015842Y017596D01*
X01595Y017581D01*
X016058Y017596D01*
X016159Y017638D01*
X016246Y017704D01*
X016312Y017791D01*
X016354Y017892D01*
X016369Y018D01*
X016354Y018108D01*
X016312Y018209D01*
X016246Y018296D01*
X016159Y018362D01*
X016058Y018404D01*
X01595Y018419D01*
D02*
G37*
G36*
X01495D02*
X014842Y018404D01*
X014741Y018362D01*
X014654Y018296D01*
X014589Y018211D01*
X014584Y018209D01*
X014504Y018183D01*
X014478Y018176D01*
X014472Y018173D01*
X014471Y018172D01*
X014464Y018171D01*
X014463Y01817D01*
X014368Y018141D01*
X014229Y018067D01*
X014108Y017967D01*
X014008Y017846D01*
X013934Y017707D01*
X013888Y017557D01*
X013873Y0174D01*
X013873Y0174D01*
Y01425D01*
X013875Y014241D01*
X01386Y014094D01*
X013815Y013944D01*
X013741Y013805D01*
X013641Y013684D01*
X01352Y013584D01*
X013381Y013511D01*
X013231Y013465D01*
X013136Y013456D01*
X013099Y013489D01*
Y013649D01*
X012301D01*
Y012851D01*
X013099D01*
Y01305D01*
X013203Y013058D01*
X013209Y013057D01*
X013223Y01306D01*
X013263Y013063D01*
X013446Y013107D01*
X013621Y013179D01*
X013782Y013277D01*
X013925Y0134D01*
X014048Y013543D01*
X014146Y013704D01*
X014218Y013879D01*
X014262Y014062D01*
X014277Y014248D01*
X014277Y01425D01*
Y0174D01*
X014276Y017407D01*
X014289Y017504D01*
X014329Y0176D01*
X014392Y017683D01*
X014475Y017746D01*
X014566Y017784D01*
X014575Y017786D01*
X014587Y017788D01*
X014589Y017789D01*
X014654Y017704D01*
X014741Y017638D01*
X014842Y017596D01*
X01495Y017581D01*
X015058Y017596D01*
X015159Y017638D01*
X015246Y017704D01*
X015312Y017791D01*
X015354Y017892D01*
X015369Y018D01*
X015354Y018108D01*
X015312Y018209D01*
X015246Y018296D01*
X015159Y018362D01*
X015058Y018404D01*
X01495Y018419D01*
D02*
G37*
G36*
X015134Y017396D02*
Y0171D01*
X01543D01*
X015425Y017141D01*
X015389Y017227D01*
X015333Y0173D01*
X01526Y017356D01*
X015175Y017391D01*
X015134Y017396D01*
D02*
G37*
G36*
X015034D02*
X014992Y017391D01*
X014907Y017356D01*
X014834Y0173D01*
X014778Y017227D01*
X014743Y017141D01*
X014737Y0171D01*
X015034D01*
Y017396D01*
D02*
G37*
G36*
X019488Y01736D02*
X019188D01*
Y01706D01*
X019488D01*
Y01736D01*
D02*
G37*
G36*
X019088D02*
X018788D01*
Y01706D01*
X019088D01*
Y01736D01*
D02*
G37*
G36*
X01543Y017D02*
X015134D01*
Y016704D01*
X015175Y016709D01*
X01526Y016744D01*
X015333Y0168D01*
X015389Y016873D01*
X015425Y016959D01*
X01543Y017D01*
D02*
G37*
G36*
X015034D02*
X014737D01*
X014743Y016959D01*
X014778Y016873D01*
X014834Y0168D01*
X014907Y016744D01*
X014992Y016709D01*
X015034Y016704D01*
Y017D01*
D02*
G37*
G36*
X02495Y01737D02*
X02425D01*
Y01667D01*
X02495D01*
Y01737D01*
D02*
G37*
G36*
X019488Y01696D02*
X019188D01*
Y01666D01*
X019488D01*
Y01696D01*
D02*
G37*
G36*
X019088D02*
X018788D01*
Y01666D01*
X019088D01*
Y01696D01*
D02*
G37*
G36*
X01495Y016496D02*
Y0162D01*
X015246D01*
X015241Y016241D01*
X015206Y016327D01*
X01515Y0164D01*
X015077Y016456D01*
X014991Y016491D01*
X01495Y016496D01*
D02*
G37*
G36*
X01485D02*
X014809Y016491D01*
X014723Y016456D01*
X01465Y0164D01*
X014594Y016327D01*
X014559Y016241D01*
X014554Y0162D01*
X01485D01*
Y016496D01*
D02*
G37*
G36*
X019488Y01657D02*
X018788D01*
Y01587D01*
X019488D01*
Y01657D01*
D02*
G37*
G36*
X0127Y016653D02*
X012596Y016639D01*
X012499Y016599D01*
X012415Y016535D01*
X012351Y016451D01*
X012311Y016354D01*
X012297Y01625D01*
X012311Y016146D01*
X012351Y016049D01*
X012415Y015965D01*
X012499Y015901D01*
X012596Y015861D01*
X0127Y015847D01*
X012804Y015861D01*
X012901Y015901D01*
X012985Y015965D01*
X013049Y016049D01*
X013089Y016146D01*
X013103Y01625D01*
X013089Y016354D01*
X013049Y016451D01*
X012985Y016535D01*
X012901Y016599D01*
X012804Y016639D01*
X0127Y016653D01*
D02*
G37*
G36*
X015246Y0161D02*
X01495D01*
Y015804D01*
X014991Y015809D01*
X015077Y015844D01*
X01515Y0159D01*
X015206Y015973D01*
X015241Y016059D01*
X015246Y0161D01*
D02*
G37*
G36*
X01485D02*
X014554D01*
X014559Y016059D01*
X014594Y015973D01*
X01465Y0159D01*
X014723Y015844D01*
X014809Y015809D01*
X01485Y015804D01*
Y0161D01*
D02*
G37*
G36*
X01275Y015646D02*
Y0153D01*
X013096D01*
X013089Y015354D01*
X013049Y015451D01*
X012985Y015535D01*
X012901Y015599D01*
X012804Y015639D01*
X01275Y015646D01*
D02*
G37*
G36*
X01265D02*
X012596Y015639D01*
X012499Y015599D01*
X012415Y015535D01*
X012351Y015451D01*
X012311Y015354D01*
X012304Y0153D01*
X01265D01*
Y015646D01*
D02*
G37*
G36*
X0149Y015546D02*
Y01525D01*
X015196D01*
X015191Y015291D01*
X015156Y015377D01*
X0151Y01545D01*
X015027Y015506D01*
X014941Y015541D01*
X0149Y015546D01*
D02*
G37*
G36*
X0148D02*
X014759Y015541D01*
X014673Y015506D01*
X0146Y01545D01*
X014544Y015377D01*
X014509Y015291D01*
X014504Y01525D01*
X0148D01*
Y015546D01*
D02*
G37*
G36*
X013096Y0152D02*
X01275D01*
Y014854D01*
X012804Y014861D01*
X012901Y014901D01*
X012985Y014965D01*
X013049Y015049D01*
X013089Y015146D01*
X013096Y0152D01*
D02*
G37*
G36*
X01265D02*
X012304D01*
X012311Y015146D01*
X012351Y015049D01*
X012415Y014965D01*
X012499Y014901D01*
X012596Y014861D01*
X01265Y014854D01*
Y0152D01*
D02*
G37*
G36*
X015196Y01515D02*
X0149D01*
Y014854D01*
X014941Y014859D01*
X015027Y014894D01*
X0151Y01495D01*
X015156Y015023D01*
X015191Y015109D01*
X015196Y01515D01*
D02*
G37*
G36*
X0148D02*
X014504D01*
X014509Y015109D01*
X014544Y015023D01*
X0146Y01495D01*
X014673Y014894D01*
X014759Y014859D01*
X0148Y014854D01*
Y01515D01*
D02*
G37*
G36*
X02495Y01342D02*
X02425D01*
Y01272D01*
X02495D01*
Y01342D01*
D02*
G37*
G36*
X019488D02*
X018788D01*
Y01272D01*
X019488D01*
Y01342D01*
D02*
G37*
G36*
X028396Y012945D02*
Y012648D01*
X028693D01*
X028687Y01269D01*
X028652Y012775D01*
X028596Y012848D01*
X028523Y012904D01*
X028438Y012939D01*
X028396Y012945D01*
D02*
G37*
G36*
X028296D02*
X028255Y012939D01*
X02817Y012904D01*
X028097Y012848D01*
X028041Y012775D01*
X028005Y01269D01*
X028Y012648D01*
X028296D01*
Y012945D01*
D02*
G37*
G36*
X028693Y012548D02*
X028396D01*
Y012252D01*
X028438Y012257D01*
X028523Y012293D01*
X028596Y012349D01*
X028652Y012422D01*
X028687Y012507D01*
X028693Y012548D01*
D02*
G37*
G36*
X028296D02*
X028D01*
X028005Y012507D01*
X028041Y012422D01*
X028097Y012349D01*
X02817Y012293D01*
X028255Y012257D01*
X028296Y012252D01*
Y012548D01*
D02*
G37*
G36*
X02495Y01267D02*
X02425D01*
Y01197D01*
X02495D01*
Y01267D01*
D02*
G37*
G36*
X019488Y01264D02*
X018788D01*
Y01194D01*
X019488D01*
Y01264D01*
D02*
G37*
G36*
X0337Y01205D02*
X0328D01*
Y01115D01*
X0337D01*
Y01205D01*
D02*
G37*
G36*
X02495Y01185D02*
X02425D01*
Y01115D01*
X02495D01*
Y01185D01*
D02*
G37*
G36*
X019488D02*
X018788D01*
Y01115D01*
X019488D01*
Y01185D01*
D02*
G37*
G36*
X02495Y01499D02*
X02425D01*
Y01429D01*
X02466D01*
X02468Y01427D01*
X024659Y01422D01*
X02425D01*
Y01352D01*
X02484D01*
X024842Y013519D01*
X024845Y01352D01*
X024849Y013519D01*
X024853Y01352D01*
X02495D01*
Y013612D01*
X024951Y013614D01*
X024952Y013635D01*
X024954Y013643D01*
X024956Y013648D01*
X024958Y01365D01*
X02496Y013653D01*
X024966Y013657D01*
X024977Y013661D01*
X024994Y013665D01*
X025012Y013668D01*
X02825D01*
X028259Y01367D01*
X028406Y013655D01*
X028556Y013609D01*
X028695Y013536D01*
X028816Y013436D01*
X028916Y013315D01*
X02899Y013176D01*
X029035Y013026D01*
X02905Y012879D01*
X029048Y01287D01*
Y012561D01*
X029044Y012406D01*
X029026Y012216D01*
X029014Y012138D01*
X028999Y012071D01*
X028982Y012015D01*
X028964Y011971D01*
X028946Y01194D01*
X028934Y011925D01*
X028929Y011921D01*
X028857Y011827D01*
X028812Y011717D01*
X028796Y0116D01*
X028812Y011483D01*
X028857Y011373D01*
X028929Y011279D01*
X029023Y011207D01*
X029133Y011162D01*
X02925Y011146D01*
X029367Y011162D01*
X029477Y011207D01*
X029571Y011279D01*
X029643Y011373D01*
X029688Y011483D01*
X029704Y0116D01*
X029688Y011717D01*
X029643Y011827D01*
X029571Y011921D01*
X029566Y011925D01*
X029554Y01194D01*
X029536Y011971D01*
X029518Y012015D01*
X029501Y012071D01*
X029486Y012138D01*
X029474Y012215D01*
X029452Y012511D01*
Y01287D01*
X029452Y012872D01*
X029442Y013005D01*
X029442Y01301D01*
X02944Y013021D01*
X029437Y013058D01*
X029393Y013241D01*
X029321Y013416D01*
X029223Y013577D01*
X0291Y01372D01*
X028957Y013843D01*
X028796Y013941D01*
X028621Y014013D01*
X028438Y014057D01*
X028401Y01406D01*
X02839Y014062D01*
X028385Y014062D01*
X028252Y014072D01*
X02825Y014072D01*
X025012D01*
X024994Y014075D01*
X024977Y014079D01*
X024966Y014084D01*
X02496Y014087D01*
X024958Y01409D01*
X024956Y014092D01*
X024954Y014097D01*
X024952Y014105D01*
X024951Y014126D01*
X02495Y014128D01*
X02495Y01422D01*
X024989Y014248D01*
X0293D01*
X029308Y014249D01*
X029446Y014236D01*
X029587Y014193D01*
X029717Y014124D01*
X02983Y01403D01*
X029924Y013917D01*
X029993Y013787D01*
X030036Y013646D01*
X030049Y013508D01*
X030048Y0135D01*
Y012561D01*
X030044Y012406D01*
X030026Y012216D01*
X030014Y012138D01*
X029999Y012071D01*
X029982Y012015D01*
X029964Y011971D01*
X029946Y01194D01*
X029934Y011925D01*
X029929Y011921D01*
X029857Y011827D01*
X029812Y011717D01*
X029796Y0116D01*
X029812Y011483D01*
X029857Y011373D01*
X029929Y011279D01*
X030023Y011207D01*
X030133Y011162D01*
X03025Y011146D01*
X030367Y011162D01*
X030477Y011207D01*
X030571Y011279D01*
X030643Y011373D01*
X030688Y011483D01*
X030704Y0116D01*
X030688Y011717D01*
X030643Y011827D01*
X030571Y011921D01*
X030566Y011925D01*
X030554Y01194D01*
X030536Y011971D01*
X030518Y012015D01*
X030501Y012071D01*
X030486Y012138D01*
X030474Y012215D01*
X030452Y012511D01*
Y0135D01*
X030452Y013503D01*
X030438Y01368D01*
X030396Y013856D01*
X030326Y014023D01*
X030232Y014177D01*
X030115Y014315D01*
X029977Y014432D01*
X029823Y014526D01*
X029656Y014596D01*
X02948Y014638D01*
X029303Y014652D01*
X0293Y014652D01*
X025025D01*
X025011Y014656D01*
X025Y014661D01*
X024991Y014668D01*
X024982Y01468D01*
X024973Y014697D01*
X024964Y014722D01*
X024956Y014755D01*
X024951Y014796D01*
X02495Y014834D01*
Y01499D01*
D02*
G37*
G36*
X0293Y011047D02*
Y01065D01*
X029697D01*
X029688Y010717D01*
X029643Y010827D01*
X029571Y010921D01*
X029477Y010993D01*
X029367Y011038D01*
X0293Y011047D01*
D02*
G37*
G36*
X0292D02*
X029133Y011038D01*
X029023Y010993D01*
X028929Y010921D01*
X028857Y010827D01*
X028812Y010717D01*
X028803Y01065D01*
X0292D01*
Y011047D01*
D02*
G37*
G36*
X029697Y01055D02*
X0293D01*
Y010153D01*
X029367Y010162D01*
X029477Y010207D01*
X029571Y010279D01*
X029643Y010373D01*
X029688Y010483D01*
X029697Y01055D01*
D02*
G37*
G36*
X0292D02*
X028803D01*
X028812Y010483D01*
X028857Y010373D01*
X028929Y010279D01*
X029023Y010207D01*
X029133Y010162D01*
X0292Y010153D01*
Y01055D01*
D02*
G37*
G36*
X03325Y011054D02*
X033133Y011038D01*
X033023Y010993D01*
X032929Y010921D01*
X032857Y010827D01*
X032812Y010717D01*
X032796Y0106D01*
X032812Y010483D01*
X032857Y010373D01*
X032929Y010279D01*
X033023Y010207D01*
X033133Y010162D01*
X03325Y010146D01*
X033367Y010162D01*
X033477Y010207D01*
X033571Y010279D01*
X033643Y010373D01*
X033688Y010483D01*
X033704Y0106D01*
X033688Y010717D01*
X033643Y010827D01*
X033571Y010921D01*
X033477Y010993D01*
X033367Y011038D01*
X03325Y011054D01*
D02*
G37*
G36*
X03025Y011054D02*
X030133Y011038D01*
X030023Y010993D01*
X029929Y010921D01*
X029857Y010827D01*
X029812Y010717D01*
X029796Y0106D01*
X029812Y010483D01*
X029857Y010373D01*
X029929Y010279D01*
X030023Y010207D01*
X030133Y010162D01*
X03025Y010146D01*
X030367Y010162D01*
X030477Y010207D01*
X030571Y010279D01*
X030643Y010373D01*
X030688Y010483D01*
X030704Y0106D01*
X030688Y010717D01*
X030643Y010827D01*
X030571Y010921D01*
X030477Y010993D01*
X030367Y011038D01*
X03025Y011054D01*
D02*
G37*
%LPD*%
G36*
X032975Y0371D02*
X03305D01*
Y0363D01*
X03285Y0361D01*
X03215D01*
X03195Y0359D01*
Y032927D01*
X03285Y032027D01*
Y03D01*
X032875Y0298D01*
Y026475D01*
X0329Y02645D01*
X0325Y02605D01*
X03055Y02605D01*
X03055Y0371D01*
X0306Y03715D01*
X032825D01*
X032875Y0372D01*
X032975Y0371D01*
D02*
G37*
G36*
X031272Y024871D02*
X03123Y024906D01*
X031178Y024936D01*
X031116Y024963D01*
X031043Y024987D01*
X030959Y025007D01*
X030865Y025023D01*
X030644Y025044D01*
X030518Y02505D01*
X030381Y025052D01*
Y025248D01*
X030518Y02525D01*
X030865Y025277D01*
X030959Y025293D01*
X031043Y025313D01*
X031116Y025337D01*
X031178Y025364D01*
X03123Y025394D01*
X031272Y025429D01*
Y024871D01*
D02*
G37*
G36*
X013596Y021612D02*
X013624Y021599D01*
X013659Y021587D01*
X013703Y021577D01*
X013754Y021568D01*
X013881Y021555D01*
X014039Y021549D01*
X01413Y021548D01*
Y021352D01*
X014039Y021351D01*
X013754Y021332D01*
X013703Y021323D01*
X013659Y021313D01*
X013624Y021301D01*
X013596Y021288D01*
X013577Y021273D01*
Y021627D01*
X013596Y021612D01*
D02*
G37*
G36*
X014637Y0187D02*
X014636Y018738D01*
X014631Y018772D01*
X014624Y018803D01*
X014613Y018829D01*
X0146Y018851D01*
X014583Y018869D01*
X014563Y018883D01*
X014541Y018894D01*
X014515Y0189D01*
X014486Y018902D01*
Y019098D01*
X014515Y0191D01*
X014541Y019107D01*
X014563Y019117D01*
X014583Y019131D01*
X0146Y019149D01*
X014613Y019171D01*
X014624Y019197D01*
X014631Y019228D01*
X014636Y019262D01*
X014637Y0193D01*
Y0187D01*
D02*
G37*
G36*
X014673Y017851D02*
X014664Y017863D01*
X014654Y017873D01*
X014642Y017881D01*
X014628Y017887D01*
X014613Y01789D01*
X014595Y017891D01*
X014576Y01789D01*
X014554Y017886D01*
X014531Y01788D01*
X014506Y017872D01*
X014504Y018077D01*
X014533Y018085D01*
X014621Y018114D01*
X014637Y018121D01*
X014649Y018127D01*
X014659Y018134D01*
X014667Y018141D01*
X014671Y018147D01*
X014673Y017851D01*
D02*
G37*
G36*
X012998Y013393D02*
X013Y013384D01*
X013004Y013376D01*
X013009Y013368D01*
X013016Y013362D01*
X013025Y013357D01*
X013035Y013353D01*
X013047Y013351D01*
X01306Y013349D01*
X013075Y013348D01*
Y013152D01*
X01306Y013151D01*
X013047Y013149D01*
X013035Y013147D01*
X013025Y013143D01*
X013016Y013138D01*
X013009Y013132D01*
X013004Y013124D01*
X013Y013116D01*
X012998Y013107D01*
X012997Y013096D01*
Y013404D01*
X012998Y013393D01*
D02*
G37*
G36*
X02485Y014788D02*
X024856Y014737D01*
X024866Y014693D01*
X02488Y014655D01*
X024897Y014622D01*
X024919Y014596D01*
X024945Y014575D01*
X024975Y01456D01*
X025008Y014551D01*
X025046Y014548D01*
Y014352D01*
X024849Y014391D01*
X024848Y014844D01*
X02485Y014788D01*
D02*
G37*
G36*
X024851Y01409D02*
X024857Y014065D01*
X024867Y014042D01*
X02488Y014023D01*
X024898Y014006D01*
X02492Y013992D01*
X024945Y013982D01*
X024975Y013974D01*
X025008Y01397D01*
X025046Y013968D01*
Y013772D01*
X025008Y01377D01*
X024975Y013766D01*
X024945Y013758D01*
X02492Y013748D01*
X024898Y013734D01*
X02488Y013717D01*
X024867Y013698D01*
X024857Y013675D01*
X024851Y01365D01*
X024849Y013621D01*
Y014119D01*
X024851Y01409D01*
D02*
G37*
G36*
X02935Y012513D02*
X029372Y012203D01*
X029386Y012119D01*
X029402Y012045D01*
X029422Y011981D01*
X029444Y011927D01*
X029469Y011882D01*
X029498Y011847D01*
X029002D01*
X029031Y011882D01*
X029056Y011927D01*
X029078Y011981D01*
X029098Y012045D01*
X029114Y012119D01*
X029128Y012203D01*
X029146Y0124D01*
X029152Y012636D01*
X029348D01*
X02935Y012513D01*
D02*
G37*
G36*
X03035Y012513D02*
X030372Y012203D01*
X030386Y012119D01*
X030402Y012045D01*
X030422Y011981D01*
X030444Y011927D01*
X030469Y011882D01*
X030498Y011847D01*
X030002D01*
X030031Y011882D01*
X030056Y011927D01*
X030078Y011981D01*
X030098Y012045D01*
X030114Y012119D01*
X030128Y012203D01*
X030146Y0124D01*
X030152Y012636D01*
X030348D01*
X03035Y012513D01*
D02*
G37*
D16*
X017952Y04115D02*
G03*
X01777Y041109I0J-000421D01*
G01*
X018867Y04115D02*
G03*
X01935Y04135I0J000684D01*
G01*
X019561Y040313D02*
G03*
X01965Y04035I0J000126D01*
G01*
D02*
G03*
X019811Y040738I-000388J000388D01*
G01*
X01935Y04135D02*
Y04225D01*
X0194Y0422D01*
X019811Y040738D02*
Y041758D01*
X017594Y040933D02*
X01777Y041109D01*
X017594Y040313D02*
Y040933D01*
X017952Y04115D02*
X018867D01*
X018094Y040313D02*
X019561D01*
D24*
X016094D02*
D03*
X017094Y040313D02*
D03*
X018094Y040313D02*
D03*
X015594Y040313D02*
D03*
X016594Y040313D02*
D03*
X017594D02*
D03*
D77*
X026586Y043266D02*
D03*
X029342D02*
D03*
D101*
X017654Y041747D02*
G03*
X017297Y041517I00035J-000937D01*
G01*
D02*
G03*
X017094Y041027I000491J-000491D01*
G01*
X018004Y04181D02*
G03*
X017654Y041747I0J-001D01*
G01*
X024236Y0229D02*
G03*
X024943Y023193I0J001D01*
G01*
X012664Y0229D02*
G03*
X011957Y022607I0J-001D01*
G01*
X029093Y045607D02*
G03*
X02874Y045835I-000707J-000707D01*
G01*
X025186Y02145D02*
G03*
X025893Y021743I0J001D01*
G01*
X013214Y0222D02*
G03*
X012507Y021907I0J-001D01*
G01*
X011193Y020593D02*
G03*
X0109Y019886I000707J-000707D01*
G01*
X010593Y021243D02*
G03*
X0103Y020536I000707J-000707D01*
G01*
X024536Y0222D02*
G03*
X025243Y022493I0J001D01*
G01*
X03135Y018336D02*
G03*
X031057Y019043I-001J0D01*
G01*
X02985Y020664D02*
G03*
X030143Y019957I001J0D01*
G01*
X0301Y044186D02*
G03*
X029807Y044893I-001J0D01*
G01*
X028743Y043993D02*
G03*
X02845Y043286I000707J-000707D01*
G01*
X028157Y026407D02*
G03*
X02845Y027114I-000707J000707D01*
G01*
X025499Y019007D02*
G03*
X024792Y0193I-000707J-000707D01*
G01*
X027087Y017419D02*
G03*
X027795Y017126I000707J000707D01*
G01*
X018795Y0179D02*
G03*
X017795Y0169I0J-001D01*
G01*
X0182Y01845D02*
G03*
X0172Y01745I0J-001D01*
G01*
X017464Y0193D02*
G03*
X017442Y019278I0J-000022D01*
G01*
D02*
G03*
X01665Y0183I000208J-000978D01*
G01*
X0161Y0134D02*
G03*
X01665Y01395I0J00055D01*
G01*
X013096Y01425D02*
G03*
X013486Y01464I0J00039D01*
G01*
X013209Y013259D02*
G03*
X014075Y01425I-000134J000991D01*
G01*
X013075Y01325D02*
G03*
X013209Y013259I0J001D01*
G01*
X014486Y019D02*
G03*
X013486Y018I0J-001D01*
G01*
X014675D02*
G03*
X014075Y0174I0J-0006D01*
G01*
X029807Y027057D02*
G03*
X0301Y027764I-000707J000707D01*
G01*
X0186Y01458D02*
G03*
X017968Y014318I0J-000893D01*
G01*
X015261Y012025D02*
G03*
X015968Y012318I0J001D01*
G01*
X0109Y01295D02*
G03*
X010906Y012844I000925J0D01*
G01*
X011719Y012031D02*
G03*
X011825Y012025I000106J000919D01*
G01*
X026802Y016498D02*
G03*
X027509Y016205I000707J000707D01*
G01*
X03455Y012186D02*
G03*
X034257Y012893I-001J0D01*
G01*
X03385Y013714D02*
G03*
X034143Y013007I001J0D01*
G01*
X03375Y00905D02*
G03*
X03455Y00985I0J0008D01*
G01*
X03405Y0118D02*
G03*
X033767Y012483I-000966J0D01*
G01*
X0334Y013205D02*
G03*
X033651Y012599I000856J0D01*
G01*
X03225Y01025D02*
G03*
X0328Y0097I00055J0D01*
G01*
X031761Y009089D02*
G03*
X032Y00905I000239J000711D01*
G01*
X031289Y009561D02*
G03*
X031761Y009089I000711J000239D01*
G01*
X03125Y0098D02*
G03*
X031289Y009561I00075J0D01*
G01*
X0334Y015205D02*
G03*
X0324Y016205I-001J0D01*
G01*
X03385Y015502D02*
G03*
X03285Y016502I-001J0D01*
G01*
X03189Y0152D02*
G03*
X031182Y015908I-000708J0D01*
G01*
X03125Y01444D02*
G03*
X03025Y01544I-001J0D01*
G01*
X03025Y0135D02*
G03*
X0293Y01445I-00095J0D01*
G01*
X02839Y01386D02*
G03*
X02825Y01387I-00014J-00099D01*
G01*
X02924Y01301D02*
G03*
X02839Y01386I-00099J-00014D01*
G01*
X02925Y01287D02*
G03*
X02924Y01301I-001J0D01*
G01*
X018554Y01379D02*
G03*
X017847Y013497I0J-001D01*
G01*
X029714Y02515D02*
G03*
X029007Y024857I0J-001D01*
G01*
X026936Y016794D02*
G03*
X027643Y016502I000707J000707D01*
G01*
X025573Y018157D02*
G03*
X024866Y01845I-000707J-000707D01*
G01*
X025693Y017607D02*
G03*
X024986Y0179I-000707J-000707D01*
G01*
X017795Y016269D02*
G03*
X017825Y016025I001J0D01*
G01*
D02*
G03*
X017988Y015678I00097J000245D01*
G01*
X017988Y015678D02*
G03*
X018539Y01545I000551J000551D01*
G01*
X019138Y01544D02*
G03*
X019114Y01545I-000024J-000024D01*
G01*
X015486Y01155D02*
G03*
X016193Y011843I0J001D01*
G01*
X011094Y011556D02*
G03*
X0112Y01155I000106J000894D01*
G01*
X010306Y012344D02*
G03*
X011094Y011556I000894J000106D01*
G01*
X0103Y01245D02*
G03*
X010306Y012344I0009J0D01*
G01*
X010906Y012844D02*
G03*
X011719Y012031I000919J000106D01*
G01*
X016094Y041608D02*
Y041904D01*
X017139Y04295D01*
X021177D01*
X021537Y042591D02*
X021589D01*
X021177Y04295D02*
X021537Y042591D01*
X018004Y04181D02*
X01885D01*
X032Y03915D02*
Y0406D01*
X025893Y021743D02*
X029007Y024857D01*
X0314Y02345D02*
X0343D01*
X02295Y024451D02*
Y04135D01*
Y024451D02*
X023701Y0237D01*
X02145Y02475D02*
X021822Y024378D01*
X03395Y03015D02*
Y0323D01*
X0314Y02445D02*
X03155Y0243D01*
X0211Y029932D02*
X02145Y029582D01*
Y02475D02*
Y029582D01*
X022148Y029398D02*
Y042198D01*
X0219Y02905D02*
Y029132D01*
X022039Y029271D01*
Y029289D01*
X022148Y029398D01*
X016207Y039262D02*
Y040766D01*
X017094Y040313D02*
Y041027D01*
X0234Y045478D02*
Y046D01*
X0239Y0463D02*
X028275D01*
X0237D02*
X0239D01*
X0234Y046D02*
X0237Y0463D01*
X015594Y040097D02*
Y040313D01*
X015483Y039986D02*
X015594Y040097D01*
X015483Y039498D02*
Y039986D01*
X015368Y039382D02*
X015483Y039498D01*
X015368Y0393D02*
Y039382D01*
X01323Y040437D02*
X015551Y038117D01*
X017053D01*
X01323Y040437D02*
Y044073D01*
X016094Y040766D02*
X016207D01*
X016094Y040313D02*
Y040766D01*
X017053Y038117D02*
X018012Y039075D01*
X012664Y0229D02*
X024236D01*
X010593Y021243D02*
X011957Y022607D01*
X0211Y029932D02*
Y03D01*
Y0237D02*
Y0287D01*
X02065Y02915D02*
X0211Y0287D01*
X011193Y020593D02*
X012507Y021907D01*
X0134Y02145D02*
X025186D01*
X02874Y045835D02*
X028825Y04575D01*
X013214Y0222D02*
X024536D01*
X028275Y0463D02*
X02874Y045835D01*
X022148Y042198D02*
X0228Y04285D01*
X0234Y04535D02*
Y045478D01*
X03135Y01705D02*
Y018336D01*
X030143Y019957D02*
X031057Y019043D01*
X02985Y020664D02*
Y02345D01*
X029093Y045607D02*
X029807Y044893D01*
X0301Y027764D02*
Y044186D01*
X028743Y043993D02*
X029Y04425D01*
X02845Y027114D02*
Y043286D01*
X024943Y023193D02*
X028157Y026407D01*
X03485Y038583D02*
Y0415D01*
X034063Y042287D02*
X03485Y0415D01*
X017464Y0193D02*
X02355D01*
X024792D01*
X025499Y019007D02*
X027087Y017419D01*
X027795Y017126D02*
X02793D01*
X017795Y016269D02*
Y0169D01*
X018795Y0179D02*
X024986D01*
X0182Y01845D02*
X024866D01*
X0172Y01535D02*
Y01745D01*
X01665Y01395D02*
Y0183D01*
X013486Y01464D02*
Y018D01*
X0127Y01425D02*
X013096D01*
X0127Y01325D02*
X013075D01*
X014075Y01425D02*
Y0174D01*
X014486Y019D02*
X01495D01*
X014675Y018D02*
X01495D01*
X03395Y0244D02*
Y03015D01*
X02985Y02345D02*
X03055Y02415D01*
X025243Y022493D02*
X029807Y027057D01*
X0186Y01458D02*
X019138D01*
X015968Y012318D02*
X017968Y014318D01*
X011825Y012025D02*
X015261D01*
X0109Y01295D02*
Y019886D01*
X033187Y042287D02*
X034063D01*
X03485Y024D02*
Y033858D01*
X025693Y017607D02*
X026802Y016498D01*
X027509Y016205D02*
X0324D01*
X03455Y00985D02*
Y012186D01*
X034143Y013007D02*
X034257Y012893D01*
X03385Y013714D02*
Y015502D01*
X033651Y012599D02*
X033767Y012483D01*
X0334Y013205D02*
Y015205D01*
X03405Y00995D02*
Y0118D01*
X0328Y0097D02*
X0338D01*
X03225Y01025D02*
Y0106D01*
X032Y00905D02*
X03375D01*
X03125Y0098D02*
Y0106D01*
X027643Y016502D02*
X03285D01*
X027992Y015908D02*
X031182D01*
X03189Y01196D02*
Y0152D01*
X0246Y01544D02*
X03025D01*
X03125Y0116D02*
Y01444D01*
X02479Y01445D02*
X0293D01*
X03025Y0116D02*
Y0135D01*
X0246Y01387D02*
X02825D01*
X02925Y0116D02*
Y01287D01*
X016193Y011843D02*
X017847Y013497D01*
X018554Y01379D02*
X019138D01*
X029714Y02515D02*
X03155D01*
X025573Y018157D02*
X026936Y016794D01*
X018539Y01545D02*
X019114D01*
X033111Y0356D02*
X03355D01*
X033057Y035546D02*
X033111Y0356D01*
X032813Y035546D02*
X033057D01*
X0327Y035433D02*
X032813Y035546D01*
X031475Y031188D02*
X032563Y0301D01*
X031475Y031188D02*
Y036025D01*
X031883Y036433D01*
X0327D01*
X0338Y0097D02*
X03405Y00995D01*
X03189Y01196D02*
X03225Y0116D01*
X024922Y015898D02*
X027982D01*
X027992Y015908D01*
X0246Y01622D02*
X024922Y015898D01*
X0246Y01464D02*
X02479Y01445D01*
X03055Y02415D02*
X03155D01*
X0103Y01245D02*
Y020536D01*
X0112Y01155D02*
X015486D01*
X034Y03235D02*
Y037744D01*
X03155Y0243D02*
X03385D01*
X03395Y0244D01*
X0343Y02345D02*
X03485Y024D01*
X0339Y0301D02*
X03395Y03015D01*
X03335Y0301D02*
X0339D01*
X03395Y0323D02*
X034Y03235D01*
X033187Y042287D02*
X0335Y0426D01*
D104*
X019841Y046021D02*
D03*
X016495D02*
D03*
D105*
X0327Y035433D02*
D03*
X0327Y033433D02*
D03*
Y036433D02*
D03*
Y034433D02*
D03*
X03155Y02415D02*
D03*
Y02215D02*
D03*
Y02515D02*
D03*
Y02315D02*
D03*
D106*
X01323Y044073D02*
D03*
X01123D02*
D03*
Y046073D02*
D03*
X01323D02*
D03*
D107*
X01223Y045073D02*
D03*
D108*
X0234Y044363D02*
D03*
X0244D02*
D03*
X0234Y04535D02*
D03*
X0244D02*
D03*
D109*
X0127Y0181D02*
D03*
D110*
Y0191D02*
D03*
D111*
X026866Y0194D02*
D03*
X032Y0406D02*
D03*
X0249Y027544D02*
D03*
X03335Y0301D02*
D03*
D112*
X027653Y0194D02*
D03*
X032787Y0406D02*
D03*
X032563Y0301D02*
D03*
D113*
X0249Y026756D02*
D03*
D114*
X0127Y01325D02*
D03*
D115*
Y01425D02*
D03*
Y01525D02*
D03*
Y01625D02*
D03*
D116*
X02885Y04425D02*
D03*
X027078D02*
D03*
D117*
X01955Y023778D02*
D03*
X01854D02*
D03*
D118*
X03025Y0106D02*
D03*
X03325Y0106D02*
D03*
X02925Y0116D02*
D03*
X02925Y0106D02*
D03*
X03025Y0116D02*
D03*
X03125Y0116D02*
D03*
X03225Y0116D02*
D03*
Y0106D02*
D03*
X03125Y0106D02*
D03*
D119*
X03325Y0116D02*
D03*
D120*
X02535Y0315D02*
D03*
D121*
Y0295D02*
D03*
D122*
X019138Y01465D02*
D03*
Y01701D02*
D03*
Y01622D02*
D03*
Y01544D02*
D03*
Y01386D02*
D03*
Y01307D02*
D03*
Y01229D02*
D03*
Y0115D02*
D03*
X0246D02*
D03*
Y01702D02*
D03*
Y01622D02*
D03*
X0246Y01544D02*
D03*
X0246Y01464D02*
D03*
Y01387D02*
D03*
X0246Y01307D02*
D03*
Y01232D02*
D03*
D123*
X01595Y018D02*
D03*
Y019D02*
D03*
X01495Y018D02*
D03*
D124*
Y019D02*
D03*
D125*
X0312Y0436D02*
D03*
D126*
X0332Y0451D02*
D03*
Y0426D02*
D03*
D127*
X016094Y041608D02*
D03*
X019395Y042255D02*
D03*
X019855Y041763D02*
D03*
X021589Y042591D02*
D03*
X01885Y041819D02*
D03*
X021Y045D02*
D03*
Y039D02*
D03*
X02025Y0375D02*
D03*
X0195Y03D02*
D03*
Y027D02*
D03*
X018Y036D02*
D03*
X01875Y0255D02*
D03*
X0165Y036D02*
D03*
X01725Y0255D02*
D03*
X015Y036D02*
D03*
X0135Y045D02*
D03*
X01425Y0435D02*
D03*
Y0405D02*
D03*
Y0375D02*
D03*
X0135Y03D02*
D03*
X01425Y0285D02*
D03*
X0135Y027D02*
D03*
X01425Y0255D02*
D03*
X0135Y024D02*
D03*
X01275Y0375D02*
D03*
X012Y036D02*
D03*
Y03D02*
D03*
X01275Y0285D02*
D03*
X012Y027D02*
D03*
X01275Y0255D02*
D03*
X012Y024D02*
D03*
X0105Y045D02*
D03*
Y042D02*
D03*
X01125Y0405D02*
D03*
X0105Y039D02*
D03*
Y03D02*
D03*
X01125Y0285D02*
D03*
X0105Y027D02*
D03*
X01125Y0255D02*
D03*
X0105Y024D02*
D03*
X021822Y024378D02*
D03*
X016207Y039262D02*
D03*
X015368Y0393D02*
D03*
X018012Y039075D02*
D03*
X02295Y04135D02*
D03*
X0219Y02905D02*
D03*
X0211Y03D02*
D03*
X02065Y02915D02*
D03*
X0211Y0237D02*
D03*
X0228Y04285D02*
D03*
X0325Y0295D02*
D03*
Y0285D02*
D03*
X03245Y030835D02*
D03*
X03239Y031587D02*
D03*
X031718Y0322D02*
D03*
X03122Y033175D02*
D03*
X034506Y041724D02*
D03*
X0349Y040937D02*
D03*
Y039362D02*
D03*
Y037787D02*
D03*
Y036212D02*
D03*
Y034637D02*
D03*
X033719Y041724D02*
D03*
X034113Y040937D02*
D03*
X032931Y041724D02*
D03*
X033858Y031496D02*
D03*
X028346Y012598D02*
D03*
X0322Y028D02*
D03*
Y0273D02*
D03*
Y0266D02*
D03*
X0315Y028D02*
D03*
Y0273D02*
D03*
Y0266D02*
D03*
X0321Y03915D02*
D03*
X01975Y020258D02*
D03*
X01868Y020275D02*
D03*
X017769Y02025D02*
D03*
X016967Y019763D02*
D03*
X01485Y0152D02*
D03*
X0149Y01615D02*
D03*
X015084Y01705D02*
D03*
X02793Y017126D02*
D03*
X02355Y0193D02*
D03*
X0172Y01535D02*
D03*
X031725Y0398D02*
D03*
X023701Y0237D02*
D03*
X0134Y02145D02*
D03*
X0161Y0134D02*
D03*
D128*
X011668Y041056D02*
D03*
Y041557D02*
D03*
X012807Y041108D02*
D03*
Y041608D02*
D03*
X012909Y042061D02*
D03*
Y042561D02*
D03*
X011545Y041982D02*
D03*
Y042481D02*
D03*
X012862Y044719D02*
D03*
X011601Y044725D02*
D03*
X01168Y045589D02*
D03*
X012759Y045569D02*
D03*
X012969Y045069D02*
D03*
X012206Y045801D02*
D03*
X011483Y045074D02*
D03*
X011823Y044446D02*
D03*
Y043946D02*
D03*
X012644Y044411D02*
D03*
Y043911D02*
D03*
X011815Y043594D02*
D03*
Y043094D02*
D03*
X012637Y043559D02*
D03*
Y043059D02*
D03*
X010329Y032824D02*
D03*
Y032324D02*
D03*
X011151Y032789D02*
D03*
Y032289D02*
D03*
X011143Y03315D02*
D03*
X010347D02*
D03*
X013069Y031152D02*
D03*
X012572Y031099D02*
D03*
X012072D02*
D03*
X011572D02*
D03*
X013153Y03193D02*
D03*
X012656Y031877D02*
D03*
X012156D02*
D03*
X011656D02*
D03*
X011169Y033643D02*
D03*
Y034143D02*
D03*
Y034643D02*
D03*
X011143Y035114D02*
D03*
X01109Y035612D02*
D03*
Y036112D02*
D03*
Y036612D02*
D03*
X010347Y033678D02*
D03*
Y034178D02*
D03*
Y034678D02*
D03*
X010401Y035114D02*
D03*
X010347Y035612D02*
D03*
Y036112D02*
D03*
Y036612D02*
D03*
X011804Y040681D02*
D03*
X011819Y040181D02*
D03*
X011733Y039689D02*
D03*
Y039189D02*
D03*
X011922Y038726D02*
D03*
X011605Y038339D02*
D03*
X011251Y037985D02*
D03*
X010898Y037632D02*
D03*
X010584Y037243D02*
D03*
X010476Y031774D02*
D03*
X010761Y031364D02*
D03*
X011116Y032004D02*
D03*
X011227Y036985D02*
D03*
X011577Y037343D02*
D03*
X01193Y037696D02*
D03*
X012282Y038051D02*
D03*
X01255Y038474D02*
D03*
X012763Y038926D02*
D03*
X012864Y03991D02*
D03*
X012685Y040376D02*
D03*
X012479Y040832D02*
D03*
D129*
X033651Y012599D02*
D03*
X019138Y01544D02*
D03*
D130*
X01498Y041258D02*
D03*
D131*
Y046219D02*
D03*
X0212D02*
D03*
D132*
Y041258D02*
D03*
M02*
