G04*
G04 #@! TF.GenerationSoftware,Altium Limited,Altium Designer,20.1.12 (249)*
G04*
G04 Layer_Color=65535*
%FSTAX24Y24*%
%MOIN*%
G70*
G04*
G04 #@! TF.SameCoordinates,89921D2C-3172-4036-8A71-56443DCFD009*
G04*
G04*
G04 #@! TF.FilePolarity,Positive*
G04*
G01*
G75*
%ADD10C,0.0098*%
%ADD11C,0.0040*%
%ADD12C,0.0050*%
%ADD13C,0.0080*%
%ADD14C,0.0160*%
%ADD15C,0.0118*%
%ADD16C,0.0100*%
%ADD17C,0.0039*%
%ADD18C,0.0079*%
%ADD19C,0.0070*%
%ADD20R,0.0740X0.0299*%
%ADD21R,0.0500X0.1000*%
G36*
X023829Y011495D02*
X023329Y011745D01*
Y011245D01*
X023829Y011495D01*
D02*
G37*
G36*
X01955Y024338D02*
X0198Y024588D01*
X0193D01*
X01955Y024338D01*
D02*
G37*
G36*
X0122Y0126D02*
X011014D01*
Y016211D01*
X0122D01*
Y0126D01*
D02*
G37*
G36*
X022447Y022056D02*
X01735D01*
Y023218D01*
X022447D01*
Y022056D01*
D02*
G37*
G36*
D02*
Y02075D01*
X01735D01*
Y022056D01*
X022447D01*
D02*
G37*
G36*
X012351Y024476D02*
X010451D01*
Y03048D01*
X012351D01*
Y024476D01*
D02*
G37*
G36*
X034713Y013836D02*
Y0124D01*
X027165D01*
Y013836D01*
Y015197D01*
X034713D01*
Y013836D01*
D02*
G37*
G36*
X018474Y044164D02*
X018492Y044161D01*
X018514Y044156D01*
X018537Y044151D01*
X018563Y044142D01*
X018591Y04413D01*
Y043843D01*
X018588Y043844D01*
X018582Y043847D01*
X018572Y043852D01*
X018559Y043856D01*
X018531Y043865D01*
X01852Y043868D01*
X018508Y043869D01*
X018504D01*
X018498Y043868D01*
X01849D01*
X018476Y043862D01*
X018467Y043859D01*
X01846Y043853D01*
X018458Y043852D01*
X018457Y04385D01*
X01845Y043841D01*
X018442Y04383D01*
X018441Y043821D01*
X018439Y043812D01*
Y043811D01*
Y043809D01*
X018441Y043804D01*
X018444Y043796D01*
X018448Y043786D01*
X018455Y043771D01*
X018464Y043754D01*
X018476Y043732D01*
Y043731D01*
X018479Y043728D01*
X018482Y04372D01*
X018486Y043713D01*
X01849Y043703D01*
X018496Y043691D01*
X018501Y043678D01*
X018506Y043662D01*
X018518Y043629D01*
X018528Y043592D01*
X018536Y043551D01*
X018537Y043531D01*
X018539Y04351D01*
Y043509D01*
Y043505D01*
Y043497D01*
X018537Y043489D01*
X018536Y043477D01*
X018534Y043464D01*
X018531Y043448D01*
X018527Y043432D01*
X018515Y043395D01*
X018508Y043376D01*
X018499Y043357D01*
X018487Y043337D01*
X018474Y043318D01*
X01846Y043299D01*
X018444Y04328D01*
X018442Y043279D01*
X018439Y043276D01*
X018434Y043271D01*
X018426Y043264D01*
X018417Y043257D01*
X018406Y043249D01*
X018394Y043241D01*
X01838Y043231D01*
X018364Y043222D01*
X018346Y043213D01*
X018307Y043197D01*
X018285Y043191D01*
X018263Y043187D01*
X01824Y043184D01*
X018215Y043182D01*
X018205D01*
X018193Y043184D01*
X018177Y043185D01*
X018158Y043188D01*
X018138Y043193D01*
X018114Y043198D01*
X018089Y043207D01*
Y043489D01*
X018091D01*
X018097Y043487D01*
X018105Y043486D01*
X018114Y043483D01*
X018135Y04348D01*
X018143Y043478D01*
X018154D01*
X018158Y04348D01*
X018164Y043481D01*
X018177Y043486D01*
X018184Y043492D01*
X018191Y043497D01*
Y043499D01*
X018194Y0435D01*
X018197Y043505D01*
X0182Y04351D01*
X018206Y043524D01*
X018208Y043532D01*
X018209Y043541D01*
Y043543D01*
Y043545D01*
X018208Y043551D01*
X018206Y043559D01*
X018203Y043567D01*
X0182Y043579D01*
X018194Y043591D01*
X018187Y043605D01*
X018167Y04364D01*
Y043642D01*
X018164Y043645D01*
X018161Y04365D01*
X018158Y043658D01*
X018154Y043666D01*
X018148Y043677D01*
X018138Y043701D01*
X018127Y043732D01*
X018117Y043764D01*
X018111Y043799D01*
X018108Y043834D01*
Y043836D01*
Y04384D01*
Y043847D01*
X01811Y043857D01*
X018111Y043869D01*
X018114Y043884D01*
X018117Y0439D01*
X01812Y043916D01*
X018133Y043954D01*
X01814Y043973D01*
X018151Y043993D01*
X018161Y044013D01*
X018175Y044032D01*
X01819Y044051D01*
X018208Y04407D01*
X018209Y044072D01*
X018212Y044075D01*
X018218Y044079D01*
X018225Y044085D01*
X018235Y044092D01*
X018247Y044101D01*
X01826Y044108D01*
X018275Y044117D01*
X018292Y044127D01*
X01831Y044134D01*
X01833Y044143D01*
X01835Y044151D01*
X018374Y044156D01*
X018397Y044161D01*
X018422Y044164D01*
X018448Y044165D01*
X01846D01*
X018474Y044164D01*
D02*
G37*
G36*
X017524Y043473D02*
Y043471D01*
Y043467D01*
Y043461D01*
X017522Y043451D01*
X017521Y04344D01*
X017519Y043427D01*
X017518Y043414D01*
X017514Y043398D01*
X017505Y043366D01*
X017492Y043331D01*
X017483Y043314D01*
X017471Y043296D01*
X01746Y04328D01*
X017446Y043264D01*
X017445Y043263D01*
X017444Y043261D01*
X017439Y043257D01*
X017432Y043251D01*
X017425Y043245D01*
X017416Y043238D01*
X017404Y043231D01*
X017393Y043223D01*
X017363Y043209D01*
X017328Y043196D01*
X017289Y043185D01*
X017269Y043184D01*
X017245Y043182D01*
X017238D01*
X017231Y043184D01*
X01722D01*
X017209Y043187D01*
X017194Y04319D01*
X01718Y043193D01*
X017162Y043198D01*
X017145Y043206D01*
X017127Y043213D01*
X01711Y043225D01*
X017091Y043236D01*
X017075Y043251D01*
X017059Y043268D01*
X017043Y043287D01*
X017029Y043311D01*
Y043309D01*
X017028Y043308D01*
X017024Y043301D01*
X017015Y043289D01*
X017005Y043274D01*
X016992Y04326D01*
X016977Y043244D01*
X016959Y043228D01*
X016939Y043214D01*
X016936Y043213D01*
X016929Y04321D01*
X016917Y043204D01*
X016901Y043198D01*
X016881Y043193D01*
X016857Y043187D01*
X016831Y043184D01*
X016802Y043182D01*
X016789D01*
X01678Y043184D01*
X01677Y043185D01*
X016757Y043187D01*
X016729Y043193D01*
X016697Y043203D01*
X01668Y043209D01*
X016664Y043217D01*
X016647Y043228D01*
X016631Y043238D01*
X016617Y043251D01*
X016604Y043266D01*
X016602Y043267D01*
X016601Y04327D01*
X016598Y043274D01*
X016592Y04328D01*
X016588Y043289D01*
X016582Y043299D01*
X016575Y043311D01*
X016569Y043325D01*
X016561Y04334D01*
X016556Y043357D01*
X01655Y043376D01*
X016544Y043397D01*
X01654Y04342D01*
X016537Y043443D01*
X016535Y043468D01*
X016534Y043496D01*
Y044142D01*
X016833D01*
Y043537D01*
Y043535D01*
Y043531D01*
Y043524D01*
Y043516D01*
X016836Y0435D01*
X016837Y043493D01*
X016838Y043489D01*
X01684Y043487D01*
X016841Y043483D01*
X016847Y04348D01*
X016855Y043478D01*
X016856D01*
X016859Y04348D01*
X016862Y043481D01*
X016866Y043486D01*
X016872Y043492D01*
X016875Y043502D01*
X016878Y043515D01*
X016879Y043532D01*
Y044142D01*
X017178D01*
Y043537D01*
Y043535D01*
Y043531D01*
Y043524D01*
Y043516D01*
X017181Y0435D01*
X017183Y043493D01*
X017184Y043489D01*
X017185Y043487D01*
X017187Y043483D01*
X017193Y04348D01*
X0172Y043478D01*
X017202D01*
X017204Y04348D01*
X017207Y043481D01*
X017212Y043486D01*
X017218Y043493D01*
X01722Y043503D01*
X017223Y043518D01*
X017225Y043537D01*
Y044142D01*
X017524D01*
Y043473D01*
D02*
G37*
G36*
X017967Y043206D02*
X017668D01*
Y044142D01*
X017967D01*
Y043206D01*
D02*
G37*
G36*
X012186Y017479D02*
X010872D01*
Y019479D01*
X012186D01*
Y017479D01*
D02*
G37*
G36*
X034506Y036256D02*
X033333D01*
Y038287D01*
X034506D01*
Y036256D01*
D02*
G37*
G36*
X033801Y022441D02*
X03262D01*
Y024462D01*
X033801D01*
Y022441D01*
D02*
G37*
%LPC*%
G36*
X011799Y015817D02*
X011415D01*
X011611D01*
X011592Y015816D01*
X011574Y015815D01*
X011566Y015814D01*
X011559Y015813D01*
X011552Y015812D01*
X011545Y015811D01*
X01154Y015809D01*
X011535Y015808D01*
X01153Y015807D01*
X011527Y015806D01*
X011524Y015805D01*
X011522Y015805D01*
X011521Y015804D01*
X01152D01*
X011507Y015799D01*
X011495Y015793D01*
X011484Y015787D01*
X011476Y015781D01*
X011468Y015776D01*
X011463Y015771D01*
X011459Y015769D01*
X011458Y015768D01*
Y015768D01*
X011449Y015758D01*
X011442Y015749D01*
X011436Y015739D01*
X011431Y01573D01*
X011427Y015722D01*
X011424Y015715D01*
X011424Y015713D01*
X011423Y015712D01*
X011423Y01571D01*
Y01571D01*
X01142Y015699D01*
X011418Y015688D01*
X011417Y015675D01*
X011416Y015664D01*
X011416Y015653D01*
X011415Y015649D01*
Y015496D01*
X011799D01*
Y015817D01*
D02*
G37*
G36*
Y015414D02*
X011415D01*
Y015342D01*
X011674D01*
X011415Y015183D01*
Y015108D01*
X011799D01*
Y015414D01*
D02*
G37*
G36*
X011806Y015036D02*
X011408D01*
D01*
X011593D01*
Y014869D01*
X011658D01*
Y014958D01*
X011708D01*
X011712Y014951D01*
X011717Y014944D01*
X011721Y014937D01*
X011724Y01493D01*
X011727Y014925D01*
X011729Y01492D01*
X01173Y014917D01*
X011731Y014916D01*
Y014916D01*
X011734Y014907D01*
X011736Y014898D01*
X011738Y01489D01*
X011739Y014882D01*
X01174Y014876D01*
X01174Y014871D01*
Y014867D01*
X01174Y014858D01*
X011739Y014849D01*
X011737Y014841D01*
X011735Y014834D01*
X011729Y01482D01*
X011726Y014814D01*
X011723Y014809D01*
X01172Y014804D01*
X011717Y014799D01*
X011714Y014796D01*
X011711Y014792D01*
X011709Y01479D01*
X011708Y014789D01*
X011706Y014787D01*
X011706Y014787D01*
X011699Y014782D01*
X011691Y014777D01*
X011684Y014773D01*
X011675Y01477D01*
X011658Y014764D01*
X011641Y014761D01*
X011634Y01476D01*
X011626Y014759D01*
X01162Y014758D01*
X011614Y014757D01*
X011609Y014757D01*
X011605D01*
X011603D01*
X011603D01*
X011591Y014757D01*
X01158Y014758D01*
X01157Y01476D01*
X01156Y014761D01*
X011552Y014764D01*
X011544Y014766D01*
X011537Y014769D01*
X01153Y014772D01*
X011525Y014774D01*
X01152Y014777D01*
X011516Y01478D01*
X011513Y014782D01*
X01151Y014784D01*
X011508Y014785D01*
X011507Y014786D01*
X011507Y014786D01*
X011501Y014792D01*
X011495Y014799D01*
X011492Y014805D01*
X011488Y014812D01*
X011484Y014819D01*
X011482Y014825D01*
X011478Y014838D01*
X011477Y014844D01*
X011476Y01485D01*
X011475Y014855D01*
X011474Y014859D01*
X011474Y014862D01*
Y014867D01*
X011474Y01488D01*
X011477Y01489D01*
X011479Y0149D01*
X011482Y014908D01*
X011485Y014914D01*
X011488Y014919D01*
X01149Y014922D01*
X01149Y014923D01*
X011497Y014931D01*
X011504Y014937D01*
X011512Y014943D01*
X011519Y014947D01*
X011525Y01495D01*
X01153Y014952D01*
X011534Y014953D01*
X011534Y014954D01*
X011535D01*
X01152Y015031D01*
X011511Y015029D01*
X011502Y015026D01*
X011493Y015022D01*
X011486Y015018D01*
X011478Y015014D01*
X011471Y015009D01*
X011465Y015005D01*
X011459Y015001D01*
X011454Y014996D01*
X01145Y014992D01*
X011446Y014989D01*
X011443Y014986D01*
X011441Y014983D01*
X011439Y014981D01*
X011438Y014979D01*
X011438Y014979D01*
X011432Y014971D01*
X011428Y014963D01*
X011424Y014954D01*
X011421Y014945D01*
X011415Y014926D01*
X011412Y014908D01*
X01141Y0149D01*
X011409Y014892D01*
X011409Y014885D01*
X011408Y014879D01*
X011408Y014874D01*
Y014677D01*
Y014867D01*
X011408Y014847D01*
X011411Y01483D01*
X011412Y014822D01*
X011414Y014814D01*
X011416Y014807D01*
X011417Y014801D01*
X011419Y014795D01*
X011421Y01479D01*
X011423Y014786D01*
X011424Y014782D01*
X011426Y014779D01*
X011426Y014777D01*
X011427Y014776D01*
Y014775D01*
X011437Y014758D01*
X011443Y014751D01*
X011449Y014744D01*
X011455Y014737D01*
X011461Y014731D01*
X011467Y014725D01*
X011473Y01472D01*
X011478Y014716D01*
X011483Y014713D01*
X011488Y014709D01*
X011492Y014706D01*
X011495Y014705D01*
X011497Y014703D01*
X011499Y014703D01*
X011499Y014702D01*
X011508Y014698D01*
X011517Y014694D01*
X011535Y014688D01*
X011554Y014683D01*
X01157Y01468D01*
X011578Y014679D01*
X011584Y014678D01*
X01159Y014678D01*
X011596D01*
X0116Y014677D01*
X011606D01*
X011626Y014678D01*
X011645Y01468D01*
X011663Y014684D01*
X011671Y014686D01*
X011678Y014688D01*
X011685Y01469D01*
X011691Y014692D01*
X011696Y014694D01*
X0117Y014696D01*
X011704Y014697D01*
X011706Y014698D01*
X011708Y014699D01*
X011709D01*
X011725Y014709D01*
X01174Y014719D01*
X011752Y01473D01*
X011762Y014741D01*
X011767Y014746D01*
X011771Y014751D01*
X011774Y014755D01*
X011776Y014759D01*
X011779Y014762D01*
X01178Y014765D01*
X011781Y014766D01*
X011781Y014766D01*
X011786Y014775D01*
X01179Y014784D01*
X011796Y014802D01*
X0118Y01482D01*
X011803Y014836D01*
X011804Y014844D01*
X011805Y01485D01*
X011806Y014856D01*
Y014862D01*
X011806Y014866D01*
Y014872D01*
X011806Y01489D01*
X011804Y014906D01*
X011801Y014922D01*
X011797Y014936D01*
X011796Y014942D01*
X011794Y014948D01*
X011792Y014953D01*
X011791Y014957D01*
X01179Y014961D01*
X011789Y014963D01*
X011789Y014965D01*
Y014965D01*
X011782Y014982D01*
X011775Y014996D01*
X011767Y015008D01*
X011761Y015018D01*
X011756Y015026D01*
X011754Y015029D01*
X011751Y015032D01*
X01175Y015033D01*
X011749Y015035D01*
X011747Y015036D01*
X011806D01*
D01*
D02*
G37*
G36*
X011696Y014648D02*
X011623D01*
Y014503D01*
X011696D01*
Y014648D01*
D02*
G37*
G36*
X01152Y01432D02*
Y014271D01*
D01*
Y01432D01*
D02*
G37*
G36*
X011799Y014467D02*
X01152D01*
Y014372D01*
X011598Y01432D01*
X01152Y014271D01*
Y014177D01*
Y014181D01*
X011656Y014277D01*
X011799Y014177D01*
D01*
Y014263D01*
X011713Y01432D01*
X011799Y014377D01*
Y014467D01*
D02*
G37*
G36*
Y014171D02*
X011415D01*
D01*
X011799D01*
X011724Y014124D01*
X011716Y014119D01*
X011709Y014114D01*
X011702Y01411D01*
X011696Y014105D01*
X01169Y014101D01*
X011685Y014098D01*
X011676Y014091D01*
X01167Y014087D01*
X011665Y014083D01*
X011663Y01408D01*
X011662Y01408D01*
X011655Y014074D01*
X011649Y014067D01*
X011644Y01406D01*
X011639Y014053D01*
X011635Y014048D01*
X011633Y014043D01*
X01163Y01404D01*
X01163Y014039D01*
Y014039D01*
X011628Y014048D01*
X011626Y014057D01*
X011624Y014064D01*
X011621Y014072D01*
X011618Y014079D01*
X011615Y014085D01*
X011613Y014091D01*
X011609Y014096D01*
X011607Y0141D01*
X011604Y014104D01*
X011601Y014108D01*
X011599Y01411D01*
X011597Y014112D01*
X011595Y014114D01*
X011595Y014114D01*
X011594Y014115D01*
X011589Y014119D01*
X011583Y014123D01*
X011571Y01413D01*
X011559Y014134D01*
X011548Y014137D01*
X011538Y014139D01*
X011534Y01414D01*
X01153D01*
X011527Y01414D01*
X011524D01*
X011523D01*
X011523D01*
X01151Y01414D01*
X011499Y014138D01*
X011489Y014135D01*
X01148Y014132D01*
X011473Y014129D01*
X011467Y014126D01*
X011466Y014125D01*
X011464Y014124D01*
X011463Y014123D01*
X011463D01*
X011453Y014116D01*
X011446Y014109D01*
X011439Y014102D01*
X011434Y014095D01*
X011431Y014088D01*
X011428Y014083D01*
X011426Y01408D01*
X011426Y014079D01*
Y014079D01*
X011424Y014073D01*
X011422Y014067D01*
X011419Y014053D01*
X011418Y014038D01*
X011416Y014024D01*
Y014017D01*
X011416Y01401D01*
Y014004D01*
X011415Y013999D01*
Y013826D01*
X011799D01*
Y014007D01*
Y013904D01*
X011639D01*
Y013929D01*
X011639Y013937D01*
X01164Y013943D01*
X011641Y013949D01*
X011641Y013953D01*
X011643Y013956D01*
X011643Y013958D01*
Y013958D01*
X011645Y013963D01*
X011648Y013967D01*
X01165Y013971D01*
X011653Y013975D01*
X011655Y013978D01*
X011658Y01398D01*
X011659Y013981D01*
X011659Y013982D01*
X011662Y013984D01*
X011665Y013987D01*
X011673Y013993D01*
X011682Y013999D01*
X011692Y014007D01*
X011701Y014013D01*
X011705Y014015D01*
X011709Y014018D01*
X011711Y01402D01*
X011714Y014022D01*
X011715Y014022D01*
X011716Y014023D01*
X011799Y014078D01*
Y014171D01*
D02*
G37*
G36*
X011696Y013783D02*
X011623D01*
Y013638D01*
X011696D01*
Y013783D01*
D02*
G37*
G36*
X011799Y013603D02*
X01152D01*
Y013508D01*
X011598Y013455D01*
X01152Y013407D01*
Y013455D01*
Y013407D01*
D01*
Y013312D01*
Y013317D01*
X011656Y013413D01*
X011799Y013312D01*
D01*
Y013398D01*
X011713Y013455D01*
X011799Y013513D01*
Y013603D01*
D02*
G37*
G36*
Y013298D02*
X011415D01*
Y012994D01*
X01148D01*
Y013107D01*
X011799D01*
Y012994D01*
D01*
Y013298D01*
D02*
G37*
%LPD*%
G36*
Y015641D02*
X011799Y015656D01*
X011798Y01567D01*
X011797Y015682D01*
X011795Y015691D01*
X011794Y015699D01*
X011792Y015705D01*
X011792Y015707D01*
Y015708D01*
X011791Y015709D01*
Y015709D01*
X011787Y015722D01*
X011782Y015733D01*
X011777Y015742D01*
X011772Y015749D01*
X011767Y015755D01*
X011764Y01576D01*
X011762Y015763D01*
X011761Y015764D01*
X01175Y015773D01*
X011739Y015781D01*
X011727Y015789D01*
X011717Y015794D01*
X011707Y015799D01*
X011703Y015801D01*
X0117Y015802D01*
X011696Y015803D01*
X011694Y015804D01*
X011693Y015805D01*
X011693D01*
X011679Y015809D01*
X011665Y015812D01*
X011652Y015814D01*
X011639Y015815D01*
X011633Y015816D01*
X011628Y015816D01*
X011623D01*
X011619Y015817D01*
X011799D01*
Y015641D01*
D02*
G37*
G36*
X011623Y015737D02*
X011638Y015736D01*
X011649Y015734D01*
X011659Y015733D01*
X011668Y015732D01*
X011671Y015731D01*
X011673Y01573D01*
X011675Y015729D01*
X011677D01*
X011678Y015729D01*
X011678D01*
X011687Y015725D01*
X011695Y015723D01*
X011701Y015719D01*
X011706Y015716D01*
X01171Y015713D01*
X011712Y015711D01*
X011714Y015709D01*
X011715Y015709D01*
X011719Y015704D01*
X011722Y015699D01*
X011725Y015694D01*
X011727Y015689D01*
X011729Y015684D01*
X01173Y015681D01*
X011731Y015679D01*
Y015678D01*
X011732Y015672D01*
X011732Y015664D01*
X011734Y015657D01*
Y015649D01*
X011734Y015642D01*
Y015573D01*
X01148D01*
Y015624D01*
X011481Y015631D01*
Y015638D01*
X011481Y015643D01*
Y015648D01*
X011482Y015653D01*
Y015657D01*
X011483Y015663D01*
X011483Y015668D01*
X011484Y01567D01*
Y015671D01*
X011486Y015679D01*
X011489Y015685D01*
X011492Y015692D01*
X011495Y015697D01*
X011498Y015701D01*
X0115Y015704D01*
X011502Y015706D01*
X011502Y015707D01*
X011508Y015712D01*
X011514Y015716D01*
X01152Y01572D01*
X011525Y015723D01*
X011531Y015725D01*
X011535Y015727D01*
X011538Y015728D01*
X011539Y015729D01*
X011539D01*
X011549Y015732D01*
X01156Y015734D01*
X011572Y015735D01*
X011583Y015736D01*
X011592Y015737D01*
X011597Y015737D01*
X0116D01*
X011603D01*
X011605D01*
X011607D01*
X011608D01*
X011623Y015737D01*
D02*
G37*
G36*
X011799Y01518D02*
X011546D01*
X011799Y015336D01*
Y01518D01*
D02*
G37*
G36*
X011653Y014365D02*
X01152Y014458D01*
Y014467D01*
X011799D01*
X011653Y014365D01*
D02*
G37*
G36*
X011534Y01406D02*
X01154Y014059D01*
X011545Y014058D01*
X011549Y014057D01*
X011553Y014055D01*
X011555Y014053D01*
X011557Y014053D01*
X011557Y014052D01*
X011561Y014049D01*
X011564Y014045D01*
X011569Y014038D01*
X011571Y014035D01*
X011572Y014033D01*
X011573Y014031D01*
Y01403D01*
X011574Y014028D01*
X011575Y014023D01*
X011575Y014019D01*
X011576Y014014D01*
X011577Y014002D01*
X011577Y01399D01*
X011578Y013979D01*
Y013904D01*
X01148D01*
Y013993D01*
X011481Y013998D01*
Y01401D01*
X011481Y014015D01*
Y014018D01*
X011482Y01402D01*
Y01402D01*
X011483Y014027D01*
X011486Y014033D01*
X011488Y014038D01*
X01149Y014042D01*
X011493Y014045D01*
X011495Y014048D01*
X011497Y014049D01*
X011497Y01405D01*
X011502Y014053D01*
X011507Y014056D01*
X011512Y014058D01*
X011517Y014059D01*
X011522Y01406D01*
X011525Y01406D01*
X011527D01*
X011528D01*
X011534Y01406D01*
D02*
G37*
G36*
X011653Y0135D02*
X01152Y013594D01*
Y013603D01*
X011799D01*
X011653Y0135D01*
D02*
G37*
G36*
X011799Y013185D02*
X01148D01*
Y013298D01*
X011799D01*
Y013185D01*
D02*
G37*
%LPC*%
G36*
X01949Y022628D02*
X018979D01*
X019207D01*
X019188Y022626D01*
X019169Y022624D01*
X019151Y022621D01*
X019136Y022617D01*
X019122Y022613D01*
X019109Y022609D01*
X019097Y022604D01*
X019087Y022599D01*
X019078Y022595D01*
X019071Y02259D01*
X019065Y022587D01*
X01906Y022584D01*
X019056Y022581D01*
X019055Y02258D01*
X019054Y022579D01*
X019044Y022571D01*
X019036Y022561D01*
X019028Y022551D01*
X019023Y02254D01*
X019012Y02252D01*
X019005Y022502D01*
X019002Y022485D01*
X019001Y022478D01*
X019Y022472D01*
X018998Y022467D01*
Y022463D01*
Y022461D01*
Y02246D01*
X019Y022446D01*
X019002Y022433D01*
X019004Y02242D01*
X019008Y022408D01*
X019019Y022387D01*
X019031Y022369D01*
X019042Y022355D01*
X019053Y022345D01*
X019057Y022341D01*
X01906Y022339D01*
X019062Y022338D01*
X019063Y022337D01*
X019073Y022331D01*
X019086Y022325D01*
X019101Y022318D01*
X019118Y022313D01*
X019135Y022306D01*
X019154Y022301D01*
X019192Y02229D01*
X019211Y022284D01*
X019228Y02228D01*
X019243Y022275D01*
X019258Y022272D01*
X01927Y02227D01*
X019278Y022268D01*
X019284Y022266D01*
X019286D01*
X019299Y022262D01*
X019309Y022259D01*
X019318Y022256D01*
X019324Y022254D01*
X019329Y02225D01*
X019332Y022249D01*
X019334Y022247D01*
X019341Y022238D01*
X019344Y022229D01*
X019345Y022223D01*
Y022221D01*
Y02222D01*
X019344Y022211D01*
X019342Y022203D01*
X019338Y022197D01*
X019335Y022191D01*
X019332Y022187D01*
X019329Y022184D01*
X019326Y022181D01*
X019325Y02218D01*
X019313Y022174D01*
X0193Y022169D01*
X019286Y022165D01*
X019273Y022163D01*
X019261Y022162D01*
X01925Y022161D01*
X019241D01*
X019223Y022162D01*
X019207Y022164D01*
X019193Y022167D01*
X019182Y022172D01*
X019173Y022175D01*
X019167Y022178D01*
X019162Y02218D01*
X019161Y022181D01*
X019151Y02219D01*
X019144Y022201D01*
X019137Y022211D01*
X019132Y022222D01*
X019129Y022232D01*
X019126Y022239D01*
X019124Y022244D01*
Y022246D01*
X018979Y022224D01*
X018989Y022197D01*
X019001Y022172D01*
X019014Y022151D01*
X019028Y022133D01*
X019041Y022119D01*
X019053Y022109D01*
X019056Y022105D01*
X01906Y022103D01*
X019062Y022102D01*
X019063Y022101D01*
X019076Y022093D01*
X019089Y022085D01*
X019119Y022074D01*
X019148Y022067D01*
X019177Y022061D01*
X01919Y022059D01*
X019202Y022058D01*
X019213Y022057D01*
X019223D01*
X01923Y022056D01*
X019241D01*
X019263Y022057D01*
X019284Y022058D01*
X019303Y022061D01*
X019322Y022064D01*
X019338Y022068D01*
X019354Y022073D01*
X019368Y022078D01*
X01938Y022083D01*
X019391Y022087D01*
X019401Y022093D01*
X019408Y022097D01*
X019415Y022101D01*
X01942Y022105D01*
X019424Y022107D01*
X019426Y022108D01*
X019427Y022109D01*
X019438Y02212D01*
X019448Y022131D01*
X019456Y022142D01*
X019464Y022153D01*
X01947Y022164D01*
X019475Y022175D01*
X019483Y022195D01*
X019487Y022213D01*
X019488Y022221D01*
X019489Y022226D01*
X01949Y022232D01*
Y022111D01*
Y022245D01*
Y022239D01*
X019488Y022263D01*
X019483Y022285D01*
X019476Y022304D01*
X019467Y022319D01*
X019459Y022331D01*
X019452Y02234D01*
X019447Y022344D01*
X019444Y022346D01*
X019435Y022353D01*
X019425Y022361D01*
X019413Y022366D01*
X0194Y022373D01*
X019373Y022384D01*
X019346Y022393D01*
X019322Y022401D01*
X019311Y022403D01*
X019301Y022407D01*
X019294Y022409D01*
X019288Y02241D01*
X019284Y022411D01*
X019283D01*
X019262Y022416D01*
X019243Y022421D01*
X019227Y022425D01*
X019213Y02243D01*
X0192Y022433D01*
X019189Y022436D01*
X01918Y022439D01*
X019171Y022442D01*
X019165Y022445D01*
X019159Y022447D01*
X019155Y022448D01*
X019153Y02245D01*
X019148Y022451D01*
X019147Y022452D01*
X019143Y022457D01*
X019139Y022461D01*
X019135Y02247D01*
X019133Y022477D01*
Y022478D01*
Y022479D01*
X019134Y022485D01*
X019135Y022491D01*
X019142Y022501D01*
X019147Y022506D01*
X019148Y022508D01*
X019149D01*
X01916Y022514D01*
X019172Y022518D01*
X019185Y02252D01*
X0192Y022522D01*
X019212Y022524D01*
X019221Y022525D01*
X019231D01*
X019248Y022524D01*
X019262Y022522D01*
X019274Y022519D01*
X019284Y022516D01*
X019291Y022513D01*
X019297Y02251D01*
X0193Y022508D01*
X019301Y022507D01*
X01931Y022501D01*
X019317Y022493D01*
X019323Y022485D01*
X019327Y022477D01*
X019331Y02247D01*
X019333Y022464D01*
X019335Y02246D01*
Y022459D01*
X019472Y022484D01*
X019463Y022509D01*
X019451Y022531D01*
X019439Y02255D01*
X019426Y022564D01*
X019415Y022576D01*
X019405Y022585D01*
X019398Y022589D01*
X019397Y022591D01*
X019396D01*
X019385Y022598D01*
X019373Y022603D01*
X019347Y022613D01*
X01932Y02262D01*
X019292Y022624D01*
X019279Y022625D01*
X019267Y022626D01*
X019256Y022627D01*
X019248Y022628D01*
X01949D01*
D02*
G37*
G36*
X021187Y022824D02*
X021024D01*
X020839Y022264D01*
X020647Y022824D01*
X020681D01*
X020482D01*
X020753Y022068D01*
X020482D01*
X021187D01*
D01*
X020918D01*
X021187Y022824D01*
D02*
G37*
G36*
X022053D02*
X021908D01*
Y022068D01*
X022053D01*
Y022824D01*
D02*
G37*
G36*
X018344Y022824D02*
X017744D01*
Y022068D01*
X018344D01*
D01*
X018121D01*
Y022696D01*
X018344D01*
Y022824D01*
D02*
G37*
G36*
X021523Y022628D02*
X021511D01*
X021482Y022627D01*
X021454Y022623D01*
X021429Y022617D01*
X021407Y022611D01*
X021399Y022607D01*
X02139Y022603D01*
X021382Y022601D01*
X021377Y022598D01*
X021371Y022596D01*
X021368Y022593D01*
X021366Y022592D01*
X021365D01*
X021342Y022577D01*
X021322Y022561D01*
X021305Y022543D01*
X02129Y022527D01*
X02128Y022511D01*
X021271Y022499D01*
X021268Y022495D01*
X021266Y022492D01*
X021264Y02249D01*
Y022489D01*
X021252Y022463D01*
X021245Y022438D01*
X021238Y022415D01*
X021234Y022395D01*
X021231Y022376D01*
X02123Y022368D01*
Y022362D01*
X021229Y022357D01*
Y02235D01*
X02123Y022316D01*
X021235Y022284D01*
X02124Y022257D01*
X021243Y022245D01*
X021247Y022234D01*
X02125Y022224D01*
X021253Y022215D01*
X021257Y022208D01*
X021259Y022201D01*
X021261Y022196D01*
X021263Y022192D01*
X021264Y02219D01*
Y022189D01*
X02128Y022166D01*
X021296Y022146D01*
X021313Y022129D01*
X02133Y022115D01*
X021345Y022104D01*
X021357Y022096D01*
X021362Y022093D01*
X021365Y022091D01*
X021367Y02209D01*
X021368D01*
X021394Y022079D01*
X021419Y02207D01*
X021444Y022064D01*
X021466Y02206D01*
X021485Y022058D01*
X021493Y022057D01*
X021499D01*
X021505Y022056D01*
X021229D01*
X021795D01*
X021512D01*
X021535Y022057D01*
X021556Y022059D01*
X021577Y022063D01*
X021595Y022069D01*
X021614Y022074D01*
X02163Y022081D01*
X021646Y022088D01*
X02166Y022096D01*
X021672Y022104D01*
X021683Y022111D01*
X021693Y022118D01*
X0217Y022123D01*
X021707Y022129D01*
X021711Y022133D01*
X021713Y022135D01*
X021715Y022137D01*
X021729Y022153D01*
X021741Y022169D01*
X021752Y022186D01*
X021762Y022203D01*
X021769Y022221D01*
X021776Y022238D01*
X021781Y022255D01*
X021786Y022271D01*
X021789Y022285D01*
X021791Y022299D01*
X021793Y022311D01*
X021794Y022322D01*
X021795Y022331D01*
Y022343D01*
X021794Y022366D01*
X021792Y022388D01*
X021788Y022408D01*
X021783Y022427D01*
X021777Y022445D01*
X02177Y022462D01*
X021763Y022478D01*
X021756Y022492D01*
X021748Y022504D01*
X021741Y022516D01*
X021734Y022525D01*
X021728Y022533D01*
X021723Y022539D01*
X021719Y022544D01*
X021717Y022546D01*
X021716Y022548D01*
X0217Y022562D01*
X021684Y022574D01*
X021668Y022585D01*
X02165Y022595D01*
X021633Y022602D01*
X021616Y022609D01*
X0216Y022614D01*
X021583Y022619D01*
X021569Y022622D01*
X021555Y022624D01*
X021543Y022626D01*
X021532Y022627D01*
X021523Y022628D01*
D02*
G37*
G36*
X01977Y022811D02*
D01*
X019625Y022726D01*
Y022616D01*
X019558D01*
Y022056D01*
X019882D01*
D01*
X019767D01*
X01979Y022057D01*
X019812Y022059D01*
X019831Y022062D01*
X019848Y022067D01*
X019862Y02207D01*
X019873Y022073D01*
X019879Y022075D01*
X019881Y022076D01*
X019882D01*
D01*
X019868Y022189D01*
X019855Y022185D01*
X019843Y022181D01*
X019834Y022179D01*
X019825Y022178D01*
X019818Y022177D01*
X019814Y022176D01*
X019809D01*
X0198Y022177D01*
X019792Y022179D01*
X019788Y022181D01*
X019785Y022182D01*
X019779Y022189D01*
X019776Y022195D01*
X019773Y022199D01*
X019772Y022201D01*
Y022203D01*
X019771Y022208D01*
Y022217D01*
Y022231D01*
X01977Y022244D01*
Y022257D01*
Y022268D01*
Y022272D01*
Y022275D01*
Y022278D01*
Y022279D01*
Y022501D01*
X01987D01*
Y022616D01*
X01977D01*
Y022811D01*
D02*
G37*
G36*
X018662Y022628D02*
X018399D01*
X01865D01*
X01863Y022627D01*
X018612Y022625D01*
X018593Y022621D01*
X018577Y022616D01*
X01856Y022611D01*
X018546Y022604D01*
X018532Y022597D01*
X01852Y02259D01*
X018509Y022583D01*
X018499Y022575D01*
X01849Y022568D01*
X018484Y022563D01*
X018478Y022558D01*
X018474Y022554D01*
X018472Y022552D01*
X018471Y022551D01*
X018459Y022536D01*
X018448Y022519D01*
X018438Y022503D01*
X018429Y022485D01*
X018422Y022467D01*
X018417Y022449D01*
X018408Y022415D01*
X018405Y022399D01*
X018403Y022385D01*
X018402Y022372D01*
X018401Y022361D01*
X018399Y022351D01*
Y022338D01*
X018401Y022317D01*
X018402Y022296D01*
X018405Y022278D01*
X018408Y02226D01*
X018412Y022243D01*
X018417Y022227D01*
X018421Y022213D01*
X018427Y0222D01*
X018431Y022188D01*
X018437Y022178D01*
X018441Y022169D01*
X018444Y022162D01*
X018449Y022156D01*
X018451Y022152D01*
X018452Y02215D01*
X018453Y022149D01*
X018467Y022132D01*
X018481Y022118D01*
X018498Y022106D01*
X018515Y022095D01*
X018533Y022086D01*
X01855Y022079D01*
X018568Y022072D01*
X018585Y022068D01*
X018601Y022063D01*
X018616Y022061D01*
X01863Y022059D01*
X018642Y022057D01*
X018652D01*
X018659Y022056D01*
X018665D01*
D01*
X018911D01*
Y022299D01*
Y02233D01*
X018909Y022357D01*
X018906Y022384D01*
X018901Y022408D01*
X018896Y022431D01*
X01889Y02245D01*
X018884Y022469D01*
X018877Y022485D01*
X018871Y022499D01*
X018864Y022513D01*
X018859Y022522D01*
X018853Y022531D01*
X018849Y022538D01*
X018845Y022543D01*
X018843Y022545D01*
X018842Y022546D01*
X018829Y022561D01*
X018814Y022574D01*
X018798Y022585D01*
X018783Y022593D01*
X018767Y022602D01*
X01875Y022609D01*
X018735Y022614D01*
X01872Y022619D01*
X018706Y022622D01*
X018692Y022624D01*
X01868Y022626D01*
X018671Y022627D01*
X018662Y022628D01*
D02*
G37*
%LPD*%
G36*
X017968Y022068D02*
X017744D01*
Y022696D01*
X017968D01*
Y022068D01*
D02*
G37*
G36*
X021533Y022508D02*
X021552Y022504D01*
X021567Y022496D01*
X021581Y022489D01*
X021592Y022481D01*
X021601Y022473D01*
X021605Y022469D01*
X021607Y022467D01*
X021621Y022449D01*
X02163Y022428D01*
X021637Y022408D01*
X021642Y022388D01*
X021645Y02237D01*
X021646Y022362D01*
Y022355D01*
X021647Y02235D01*
Y022345D01*
Y022343D01*
Y022342D01*
X021645Y022314D01*
X02164Y022287D01*
X021635Y022267D01*
X021627Y022248D01*
X021619Y022235D01*
X021614Y022224D01*
X02161Y022219D01*
X021607Y022216D01*
X021592Y022202D01*
X021577Y022191D01*
X02156Y022185D01*
X021545Y022179D01*
X021532Y022176D01*
X021522Y022175D01*
X021518Y022174D01*
X021512D01*
X021492Y022176D01*
X021473Y02218D01*
X021457Y022187D01*
X021444Y022196D01*
X021431Y022203D01*
X021423Y02221D01*
X021418Y022214D01*
X021416Y022216D01*
X021403Y022234D01*
X021394Y022255D01*
X021388Y022275D01*
X021382Y022296D01*
X02138Y022314D01*
X021379Y022321D01*
Y022329D01*
X021378Y022334D01*
Y022339D01*
Y022341D01*
Y022342D01*
X02138Y02237D01*
X021384Y022396D01*
X02139Y022417D01*
X021398Y022435D01*
X021404Y022448D01*
X021411Y022459D01*
X021415Y022464D01*
X021416Y022467D01*
X021431Y022481D01*
X021448Y022492D01*
X021464Y022499D01*
X02148Y022505D01*
X021493Y022508D01*
X021503Y022509D01*
X021507Y02251D01*
X021512D01*
X021533Y022508D01*
D02*
G37*
G36*
X019625Y022261D02*
Y022247D01*
Y022235D01*
Y022223D01*
X019626Y022213D01*
Y022196D01*
X019627Y022181D01*
X019628Y02217D01*
Y022164D01*
X019629Y02216D01*
Y022158D01*
X019631Y022146D01*
X019635Y022135D01*
X019638Y022126D01*
X019641Y022118D01*
X019644Y022111D01*
X019647Y022107D01*
X019648Y022104D01*
X019649Y022103D01*
X019655Y022095D01*
X019663Y022088D01*
X019678Y022078D01*
X019685Y022074D01*
X01969Y022071D01*
X019695Y02207D01*
X019696Y022069D01*
X019708Y022064D01*
X01972Y022061D01*
X019732Y022059D01*
X019743Y022058D01*
X019753Y022057D01*
X01976Y022056D01*
X019558D01*
Y022501D01*
X019625D01*
Y022261D01*
D02*
G37*
G36*
X018675Y022516D02*
X018689Y022511D01*
X018702Y022506D01*
X018713Y022501D01*
X018722Y022494D01*
X018728Y022489D01*
X018733Y022484D01*
X018734Y022483D01*
X018744Y02247D01*
X018753Y022455D01*
X018758Y022438D01*
X018762Y022423D01*
X018765Y02241D01*
X018766Y022398D01*
X018767Y022393D01*
Y022391D01*
Y022389D01*
Y022388D01*
X01855D01*
X018551Y022409D01*
X018555Y022427D01*
X018559Y022444D01*
X018566Y022457D01*
X018571Y022468D01*
X018577Y022475D01*
X01858Y022481D01*
X018581Y022482D01*
X018593Y022494D01*
X018606Y022503D01*
X018619Y022508D01*
X018631Y022513D01*
X018642Y022515D01*
X018651Y022517D01*
X018659D01*
X018675Y022516D01*
D02*
G37*
G36*
X018911Y022056D02*
X018665D01*
X018697Y022058D01*
X018726Y022062D01*
X018751Y022069D01*
X018773Y022076D01*
X018783Y022081D01*
X018791Y022084D01*
X018798Y022087D01*
X018804Y022091D01*
X018808Y022094D01*
X018813Y022095D01*
X018814Y022097D01*
X018815D01*
X018836Y022115D01*
X018854Y022133D01*
X018869Y022154D01*
X018882Y022174D01*
X018891Y022191D01*
X018895Y022199D01*
X018898Y022205D01*
X0189Y022211D01*
X018902Y022215D01*
X018903Y022217D01*
Y022219D01*
X018759Y022243D01*
X018754Y022228D01*
X018748Y022215D01*
X018743Y022205D01*
X018736Y022197D01*
X018732Y02219D01*
X018727Y022186D01*
X018724Y022184D01*
X018723Y022182D01*
X018714Y022176D01*
X018704Y022172D01*
X018695Y022168D01*
X018686Y022166D01*
X018678Y022165D01*
X018672Y022164D01*
X018666D01*
X018649Y022165D01*
X018632Y022169D01*
X018617Y022175D01*
X018605Y022181D01*
X018595Y022188D01*
X018589Y022193D01*
X018583Y022198D01*
X018582Y022199D01*
X018571Y022213D01*
X018563Y022229D01*
X018557Y022247D01*
X018553Y022262D01*
X01855Y022278D01*
X018549Y022289D01*
X018548Y022293D01*
Y022296D01*
Y022298D01*
Y022299D01*
X018911D01*
Y022056D01*
D02*
G37*
%LPC*%
G36*
X019021Y021904D02*
X018903D01*
X018892Y021879D01*
X018878Y021856D01*
X018863Y021834D01*
X018848Y021817D01*
X018835Y021803D01*
X018822Y021792D01*
X018818Y021787D01*
X018815Y021784D01*
X018813Y021783D01*
X018812Y021782D01*
X018788Y021765D01*
X018765Y021749D01*
X018744Y021737D01*
X018725Y021728D01*
X01871Y021722D01*
X018699Y021716D01*
X018695Y021715D01*
X018691Y021714D01*
X01869Y021713D01*
X018689D01*
Y021904D01*
D01*
D01*
Y021582D01*
X018728Y021597D01*
X018763Y021614D01*
X01878Y021622D01*
X018795Y021632D01*
X018809Y021641D01*
X018822Y02165D01*
X018835Y021658D01*
X018845Y021666D01*
X018854Y021673D01*
X018862Y021679D01*
X018868Y021685D01*
X018873Y021688D01*
X018875Y02169D01*
X018876Y021691D01*
Y021144D01*
X018689D01*
X019021D01*
Y021904D01*
D02*
G37*
G36*
X018288Y021903D02*
Y021422D01*
X018194D01*
Y021903D01*
X018072D01*
X017744Y021421D01*
Y021144D01*
X018288D01*
Y021903D01*
D02*
G37*
G36*
X019899Y0219D02*
X019194D01*
X019465Y021144D01*
X01963D01*
X019899Y0219D01*
D02*
G37*
G36*
X018533Y021289D02*
X018387D01*
Y021144D01*
X018533D01*
Y021289D01*
D02*
G37*
%LPD*%
G36*
X018054Y021422D02*
X017878D01*
X018054Y021683D01*
Y021422D01*
D02*
G37*
G36*
X018288Y021144D02*
X018194D01*
Y021296D01*
X018288D01*
Y021144D01*
D02*
G37*
G36*
X018054D02*
X017744D01*
Y021296D01*
X018054D01*
Y021144D01*
D02*
G37*
G36*
X019552Y02134D02*
X019359Y0219D01*
X019736D01*
X019552Y02134D01*
D02*
G37*
%LPC*%
G36*
X011943Y029318D02*
X011183D01*
Y0292D01*
X011208Y029189D01*
X011231Y029175D01*
X011253Y029159D01*
X01127Y029144D01*
X011284Y029131D01*
X011295Y029119D01*
X0113Y029115D01*
X011303Y029111D01*
X011304Y029109D01*
X011305Y029108D01*
X011323Y029084D01*
X011338Y029061D01*
X01135Y02904D01*
X011359Y029022D01*
X011365Y029006D01*
X011371Y028995D01*
X011372Y028991D01*
X011373Y028988D01*
X011374Y028987D01*
Y028986D01*
X011183D01*
X011505D01*
X01149Y029025D01*
X011473Y02906D01*
X011465Y029076D01*
X011455Y029092D01*
X011446Y029106D01*
X011437Y029119D01*
X011429Y029131D01*
X011421Y029142D01*
X011414Y029151D01*
X011408Y029158D01*
X011402Y029165D01*
X011399Y029169D01*
X011397Y029171D01*
X011396Y029172D01*
X011943D01*
Y028986D01*
D01*
D01*
Y029318D01*
D02*
G37*
G36*
Y028849D02*
X011809D01*
Y02856D01*
X011795Y028569D01*
X011783Y028579D01*
X011777Y028583D01*
X011773Y028587D01*
X011771Y028589D01*
X01177Y02859D01*
X011765Y028594D01*
X01176Y028599D01*
X011748Y028612D01*
X011734Y028626D01*
X011719Y02864D01*
X011706Y028654D01*
X011695Y028666D01*
X011691Y028671D01*
X011688Y028674D01*
X011687Y028676D01*
X011685Y028677D01*
X011662Y028701D01*
X011644Y028721D01*
X011626Y028737D01*
X011613Y028751D01*
X011602Y02876D01*
X011595Y028767D01*
X011589Y028771D01*
X011588Y028772D01*
X01157Y028787D01*
X011552Y028799D01*
X011536Y028808D01*
X011521Y028816D01*
X011509Y028823D01*
X0115Y028827D01*
X011494Y028829D01*
X011492Y02883D01*
X011474Y028837D01*
X011457Y028841D01*
X011441Y028845D01*
X011425Y028847D01*
X011413Y028848D01*
X011403Y028849D01*
X011395D01*
X011378Y028848D01*
X011362Y028846D01*
X011347Y028843D01*
X011332Y028839D01*
X011307Y028828D01*
X011285Y028817D01*
X011276Y028811D01*
X011268Y028805D01*
X01126Y0288D01*
X011255Y028794D01*
X01125Y02879D01*
X011246Y028788D01*
X011245Y028786D01*
X011244Y028784D01*
X011233Y028772D01*
X011223Y028758D01*
X011215Y028745D01*
X011209Y02873D01*
X011198Y028701D01*
X01119Y028673D01*
X011188Y02866D01*
X011186Y028648D01*
X011185Y028637D01*
X011184Y028627D01*
X011183Y028619D01*
Y028608D01*
X011184Y02859D01*
X011185Y028572D01*
X01119Y028538D01*
X011199Y02851D01*
X011203Y028497D01*
X011209Y028485D01*
X011213Y028474D01*
X011219Y028465D01*
X011223Y028457D01*
X011226Y02845D01*
X011231Y028444D01*
X011233Y028441D01*
X011234Y028439D01*
X011235Y028438D01*
X011246Y028426D01*
X011257Y028415D01*
X01127Y028405D01*
X011284Y028396D01*
X011313Y028383D01*
X01134Y028372D01*
X011354Y028369D01*
X011366Y028366D01*
X011377Y028363D01*
X011387Y028361D01*
X011396Y028359D01*
X011401D01*
X011406Y028358D01*
X011407D01*
X011421Y028502D01*
X011399Y028505D01*
X01138Y028509D01*
X011364Y028513D01*
X011352Y028519D01*
X011342Y028523D01*
X011336Y028528D01*
X011331Y028531D01*
X01133Y028532D01*
X011321Y028543D01*
X011315Y028555D01*
X011309Y028567D01*
X011306Y028579D01*
X011304Y028589D01*
X011303Y028598D01*
Y028605D01*
X011304Y028622D01*
X011307Y028636D01*
X011312Y028648D01*
X011316Y028659D01*
X01132Y028666D01*
X011325Y028673D01*
X011328Y028676D01*
X011329Y028677D01*
X01134Y028686D01*
X011352Y028693D01*
X011364Y028697D01*
X011376Y0287D01*
X011387Y028702D01*
X011397Y028704D01*
X011402D01*
X011403D01*
X011405D01*
X011421Y028702D01*
X011436Y028699D01*
X011452Y028694D01*
X011465Y028688D01*
X011477Y028683D01*
X011485Y028677D01*
X011491Y028674D01*
X011493Y028673D01*
X0115Y028669D01*
X011507Y028662D01*
X011517Y028653D01*
X011526Y028645D01*
X011547Y028625D01*
X011567Y028605D01*
X011587Y028586D01*
X011596Y028577D01*
X011602Y028568D01*
X011609Y028561D01*
X011613Y028557D01*
X011617Y028554D01*
X011618Y028553D01*
X011638Y028531D01*
X011658Y028511D01*
X011677Y028493D01*
X011693Y028476D01*
X011709Y028461D01*
X011725Y028448D01*
X011738Y028436D01*
X011751Y028426D01*
X011762Y028417D01*
X011772Y02841D01*
X011779Y028403D01*
X011787Y028399D01*
X011791Y028394D01*
X011796Y028392D01*
X011798Y02839D01*
X011799D01*
X011824Y028376D01*
X01185Y028365D01*
X011875Y028356D01*
X011896Y028349D01*
X011916Y028345D01*
X011924Y028344D01*
X01193Y028343D01*
X011936Y028342D01*
X01194Y028341D01*
X011943D01*
Y028849D01*
D02*
G37*
G36*
X011183Y028043D02*
Y028027D01*
D01*
Y028043D01*
D02*
G37*
G36*
X011591Y028262D02*
X011571D01*
X011531Y028261D01*
X011495Y028259D01*
X011462Y028255D01*
X011432Y02825D01*
X011403Y028244D01*
X011378Y028239D01*
X011355Y028231D01*
X011336Y028225D01*
X011317Y028218D01*
X011303Y028212D01*
X01129Y028205D01*
X011279Y0282D01*
X011271Y028194D01*
X011266Y028191D01*
X011262Y028189D01*
X011261Y028188D01*
X011247Y028176D01*
X011235Y028163D01*
X011225Y028148D01*
X011215Y028134D01*
X011208Y02812D01*
X011202Y028106D01*
X011197Y028093D01*
X011192Y028078D01*
X011189Y028065D01*
X011187Y028054D01*
X011185Y028043D01*
X011184Y028035D01*
X011183Y028027D01*
Y028016D01*
X011184Y027996D01*
X011186Y027978D01*
X01119Y027959D01*
X011195Y027943D01*
X011201Y027928D01*
X011208Y027913D01*
X011214Y027901D01*
X011222Y027889D01*
X01123Y027879D01*
X011236Y02787D01*
X011243Y027862D01*
X011249Y027856D01*
X011254Y027851D01*
X011258Y027848D01*
X01126Y027846D01*
X011261Y027844D01*
X01128Y027831D01*
X011302Y02782D01*
X011325Y027811D01*
X011349Y027802D01*
X011374Y027795D01*
X0114Y027789D01*
X011425Y027784D01*
X01145Y02778D01*
X011474Y027778D01*
X011496Y027776D01*
X011517Y027773D01*
X011535Y027772D01*
X011549Y027771D01*
X011958D01*
X01157D01*
X011609Y027772D01*
X011645Y027775D01*
X011679Y027778D01*
X011709Y027782D01*
X011737Y027787D01*
X011762Y027792D01*
X011784Y027799D01*
X011803Y027805D01*
X01182Y027811D01*
X011835Y027817D01*
X011847Y027823D01*
X011857Y027828D01*
X011864Y027831D01*
X011869Y027835D01*
X011872Y027837D01*
X011873Y027838D01*
X011889Y027851D01*
X011901Y027865D01*
X011913Y027879D01*
X011922Y027895D01*
X01193Y027909D01*
X011937Y027924D01*
X011942Y027938D01*
X011947Y027953D01*
X011951Y027966D01*
X011953Y027978D01*
X011955Y027989D01*
X011956Y027997D01*
Y028005D01*
X011958Y028012D01*
Y028016D01*
X011956Y028036D01*
X011954Y028054D01*
X01195Y028073D01*
X011946Y028089D01*
X01194Y028105D01*
X011934Y028119D01*
X011926Y028131D01*
X011918Y028143D01*
X011912Y028153D01*
X011904Y028163D01*
X011897Y02817D01*
X011892Y028177D01*
X011888Y028181D01*
X011883Y028184D01*
X011881Y028187D01*
X01188Y028188D01*
X011861Y028201D01*
X01184Y028212D01*
X011817Y028223D01*
X011791Y02823D01*
X011766Y028238D01*
X011741Y028243D01*
X011715Y028249D01*
X01169Y028253D01*
X011666Y028255D01*
X011644Y028258D01*
X011623Y02826D01*
X011606Y028261D01*
X011591Y028262D01*
D02*
G37*
G36*
X011183Y027964D02*
Y027771D01*
D01*
Y027964D01*
D02*
G37*
G36*
X011943Y027673D02*
X011809D01*
Y027384D01*
X011795Y027393D01*
X011783Y027403D01*
X011777Y027407D01*
X011773Y027411D01*
X011771Y027413D01*
X01177Y027414D01*
X011765Y027418D01*
X01176Y027423D01*
X011748Y027436D01*
X011734Y02745D01*
X011719Y027464D01*
X011706Y027478D01*
X011695Y02749D01*
X011691Y027495D01*
X011688Y027498D01*
X011687Y0275D01*
X011685Y027501D01*
X011662Y027525D01*
X011644Y027545D01*
X011626Y027561D01*
X011613Y027574D01*
X011602Y027584D01*
X011595Y027591D01*
X011589Y027595D01*
X011588Y027596D01*
X01157Y027611D01*
X011552Y027623D01*
X011536Y027632D01*
X011521Y02764D01*
X011509Y027647D01*
X0115Y027651D01*
X011494Y027653D01*
X011492Y027654D01*
X011474Y027661D01*
X011457Y027665D01*
X011441Y027668D01*
X011425Y027671D01*
X011413Y027672D01*
X011403Y027673D01*
X011395D01*
X011378Y027672D01*
X011362Y02767D01*
X011347Y027667D01*
X011332Y027663D01*
X011307Y027652D01*
X011285Y027641D01*
X011276Y027635D01*
X011268Y027629D01*
X01126Y027624D01*
X011255Y027618D01*
X01125Y027614D01*
X011246Y027612D01*
X011245Y027609D01*
X011244Y027608D01*
X011233Y027596D01*
X011223Y027582D01*
X011215Y027569D01*
X011209Y027554D01*
X011198Y027525D01*
X01119Y027497D01*
X011188Y027484D01*
X011186Y027472D01*
X011185Y027461D01*
X011184Y027451D01*
X011183Y027443D01*
Y027432D01*
X011184Y027414D01*
X011185Y027396D01*
X01119Y027362D01*
X011199Y027334D01*
X011203Y027321D01*
X011209Y027309D01*
X011213Y027298D01*
X011219Y027289D01*
X011223Y02728D01*
X011226Y027274D01*
X011231Y027268D01*
X011233Y027265D01*
X011234Y027263D01*
X011235Y027262D01*
X011246Y02725D01*
X011257Y027239D01*
X01127Y027229D01*
X011284Y02722D01*
X011313Y027207D01*
X01134Y027196D01*
X011354Y027193D01*
X011366Y02719D01*
X011377Y027186D01*
X011387Y027185D01*
X011396Y027183D01*
X011401D01*
X011406Y027182D01*
X011407D01*
X011421Y027326D01*
X011399Y027329D01*
X01138Y027333D01*
X011364Y027337D01*
X011352Y027343D01*
X011342Y027347D01*
X011336Y027352D01*
X011331Y027355D01*
X01133Y027356D01*
X011321Y027367D01*
X011315Y027379D01*
X011309Y027391D01*
X011306Y027403D01*
X011304Y027413D01*
X011303Y027421D01*
Y027429D01*
X011304Y027445D01*
X011307Y02746D01*
X011312Y027472D01*
X011316Y027483D01*
X01132Y02749D01*
X011325Y027497D01*
X011328Y0275D01*
X011329Y027501D01*
X01134Y02751D01*
X011352Y027517D01*
X011364Y027521D01*
X011376Y027524D01*
X011387Y027526D01*
X011397Y027527D01*
X011402D01*
X011403D01*
X011405D01*
X011421Y027526D01*
X011436Y027523D01*
X011452Y027518D01*
X011465Y027512D01*
X011477Y027507D01*
X011485Y027501D01*
X011491Y027498D01*
X011493Y027497D01*
X0115Y027492D01*
X011507Y027486D01*
X011517Y027477D01*
X011526Y027468D01*
X011547Y027449D01*
X011567Y027429D01*
X011587Y027409D01*
X011596Y027401D01*
X011602Y027392D01*
X011609Y027385D01*
X011613Y027381D01*
X011617Y027378D01*
X011618Y027377D01*
X011638Y027355D01*
X011658Y027335D01*
X011677Y027317D01*
X011693Y0273D01*
X011709Y027285D01*
X011725Y027272D01*
X011738Y02726D01*
X011751Y02725D01*
X011762Y027241D01*
X011772Y027233D01*
X011779Y027227D01*
X011787Y027223D01*
X011791Y027218D01*
X011796Y027216D01*
X011798Y027214D01*
X011799D01*
X011824Y0272D01*
X01185Y027189D01*
X011875Y02718D01*
X011896Y027173D01*
X011916Y027169D01*
X011924Y027168D01*
X01193Y027167D01*
X011936Y027166D01*
X01194Y027165D01*
X011943D01*
Y027673D01*
D02*
G37*
G36*
X011956Y027139D02*
D01*
Y02695D01*
X011174Y027139D01*
Y02703D01*
X011956Y026843D01*
X011174D01*
X011956D01*
Y027139D01*
D02*
G37*
G36*
X011943Y026672D02*
X011183D01*
Y026554D01*
X011208Y026543D01*
X011231Y026528D01*
X011253Y026513D01*
X01127Y026498D01*
X011284Y026485D01*
X011295Y026473D01*
X0113Y026468D01*
X011303Y026465D01*
X011304Y026463D01*
X011305Y026462D01*
X011323Y026438D01*
X011338Y026415D01*
X01135Y026394D01*
X011359Y026375D01*
X011365Y02636D01*
X011371Y026349D01*
X011372Y026345D01*
X011373Y026342D01*
X011374Y02634D01*
Y026339D01*
X011183D01*
X011505D01*
X01149Y026379D01*
X011473Y026414D01*
X011465Y02643D01*
X011455Y026445D01*
X011446Y02646D01*
X011437Y026473D01*
X011429Y026485D01*
X011421Y026496D01*
X011414Y026504D01*
X011408Y026512D01*
X011402Y026519D01*
X011399Y026523D01*
X011397Y026525D01*
X011396Y026526D01*
X011943D01*
Y026339D01*
D01*
Y026672D01*
D02*
G37*
G36*
X011956Y026257D02*
D01*
Y026068D01*
X011174Y026257D01*
Y026148D01*
X011956Y025961D01*
X011174D01*
X011956D01*
Y026257D01*
D02*
G37*
G36*
X011731Y025915D02*
X011183D01*
X011722D01*
X011699Y025914D01*
X011678Y02591D01*
X011658Y025905D01*
X011642Y025899D01*
X011629Y025893D01*
X011619Y025888D01*
X011612Y025884D01*
X01161Y025883D01*
X011593Y025869D01*
X011577Y025854D01*
X011564Y025838D01*
X011554Y025822D01*
X011546Y025808D01*
X011539Y025797D01*
X011537Y025793D01*
X011536Y02579D01*
X011535Y025787D01*
Y025786D01*
X011526Y025804D01*
X011516Y025819D01*
X011506Y025832D01*
X011495Y025843D01*
X011487Y025852D01*
X011479Y025857D01*
X011474Y025862D01*
X011472Y025863D01*
X011456Y025873D01*
X01144Y025879D01*
X011424Y025885D01*
X01141Y025888D01*
X011397Y02589D01*
X011387Y025891D01*
X01138D01*
X011379D01*
X011378D01*
X011363Y02589D01*
X011348Y025889D01*
X01132Y025881D01*
X011297Y025873D01*
X011277Y025862D01*
X01126Y02585D01*
X011254Y025845D01*
X011248Y025841D01*
X011244Y025837D01*
X011241Y025833D01*
X011239Y025832D01*
X011238Y025831D01*
X011229Y025819D01*
X01122Y025807D01*
X011212Y025793D01*
X011206Y02578D01*
X011196Y025751D01*
X011189Y025724D01*
X011187Y025712D01*
X011186Y0257D01*
X011185Y02569D01*
X011184Y02568D01*
X011183Y025674D01*
Y025663D01*
X011184Y025643D01*
X011185Y025625D01*
X011188Y025607D01*
X011191Y025591D01*
X011196Y025575D01*
X0112Y025561D01*
X011206Y025549D01*
X01121Y025538D01*
X011215Y025527D01*
X011221Y025519D01*
X011225Y025512D01*
X01123Y025505D01*
X011233Y025501D01*
X011236Y025498D01*
X011237Y025496D01*
X011238Y025494D01*
X011249Y025485D01*
X01126Y025475D01*
X011272Y025467D01*
X011283Y025461D01*
X011307Y02545D01*
X011329Y025443D01*
X011349Y025439D01*
X011358Y025438D01*
X011364Y025437D01*
X011371Y025435D01*
X011375D01*
X011377D01*
X011378D01*
X011397Y025437D01*
X011413Y02544D01*
X01143Y025443D01*
X011443Y025449D01*
X011455Y025453D01*
X011462Y025456D01*
X011468Y02546D01*
X01147Y025461D01*
X011484Y025472D01*
X011497Y025485D01*
X011508Y025498D01*
X011518Y025512D01*
X011525Y025524D01*
X01153Y025534D01*
X011533Y02554D01*
X011535Y025542D01*
Y025543D01*
X011547Y02552D01*
X011559Y0255D01*
X011572Y025484D01*
X011585Y02547D01*
X011597Y02546D01*
X011606Y025452D01*
X011612Y025447D01*
X011613Y025446D01*
X011614D01*
X011634Y025437D01*
X011654Y025429D01*
X011673Y025425D01*
X011691Y02542D01*
X011705Y025418D01*
X011717Y025417D01*
X011183D01*
X011958D01*
Y025669D01*
X011956Y02569D01*
X011954Y025709D01*
X011951Y025727D01*
X011948Y025745D01*
X011942Y02576D01*
X011937Y025774D01*
X011931Y025789D01*
X011925Y025801D01*
X011918Y025811D01*
X011913Y02582D01*
X011907Y025829D01*
X011902Y025836D01*
X011899Y025841D01*
X011895Y025844D01*
X011893Y025846D01*
X011892Y025848D01*
X011879Y02586D01*
X011866Y025869D01*
X011852Y025879D01*
X011837Y025887D01*
X011823Y025893D01*
X011809Y025899D01*
X011782Y025907D01*
X01177Y02591D01*
X011759Y025912D01*
X011748Y025913D01*
X011739Y025914D01*
X011731Y025915D01*
D02*
G37*
G36*
X011958Y025745D02*
Y025744D01*
D01*
Y025745D01*
D02*
G37*
G36*
X011943Y025202D02*
X011183D01*
Y025084D01*
X011208Y025073D01*
X011231Y025058D01*
X011253Y025043D01*
X01127Y025028D01*
X011284Y025015D01*
X011295Y025003D01*
X0113Y024998D01*
X011303Y024995D01*
X011304Y024993D01*
X011305Y024992D01*
X011323Y024968D01*
X011338Y024945D01*
X01135Y024924D01*
X011359Y024905D01*
X011365Y02489D01*
X011371Y024879D01*
X011372Y024875D01*
X011373Y024871D01*
X011374Y02487D01*
Y024869D01*
X011183D01*
X011505D01*
X01149Y024909D01*
X011473Y024944D01*
X011465Y02496D01*
X011455Y024975D01*
X011446Y02499D01*
X011437Y025003D01*
X011429Y025015D01*
X011421Y025026D01*
X011414Y025034D01*
X011408Y025042D01*
X011402Y025049D01*
X011399Y025053D01*
X011397Y025055D01*
X011396Y025056D01*
X011943D01*
Y024869D01*
D01*
D01*
Y025202D01*
D02*
G37*
%LPD*%
G36*
X011618Y028108D02*
X011638D01*
X011657Y028107D01*
X011674Y028106D01*
X01169Y028105D01*
X011704Y028102D01*
X011716Y028101D01*
X011727Y0281D01*
X011736Y028098D01*
X011743Y028097D01*
X01175Y028096D01*
X011754Y028095D01*
X011759D01*
X01176Y028094D01*
X011761D01*
X011776Y028089D01*
X011788Y028084D01*
X011799Y028078D01*
X011807Y028074D01*
X011813Y02807D01*
X011818Y028065D01*
X01182Y028063D01*
X011821Y028062D01*
X011826Y028054D01*
X011831Y028047D01*
X011833Y028039D01*
X011835Y028031D01*
X011836Y028026D01*
X011837Y02802D01*
Y028016D01*
X011836Y028006D01*
X011835Y027997D01*
X011832Y02799D01*
X011829Y027983D01*
X011826Y027978D01*
X011823Y027973D01*
X011822Y027971D01*
X011821Y02797D01*
X011813Y027964D01*
X011803Y027957D01*
X011793Y027952D01*
X011782Y027946D01*
X011772Y027943D01*
X011763Y02794D01*
X011758Y027938D01*
X011755Y027937D01*
X011744Y027935D01*
X011732Y027933D01*
X011719Y027931D01*
X011705Y02793D01*
X011674Y027928D01*
X011644Y027926D01*
X01163Y027925D01*
X011615D01*
X011603Y027924D01*
X011593D01*
X011584D01*
X011576D01*
X011572D01*
X011571D01*
X011547D01*
X011524Y027925D01*
X011504D01*
X011484Y027926D01*
X011468Y027928D01*
X011452Y027929D01*
X011438Y02793D01*
X011425Y027932D01*
X011414Y027933D01*
X011406Y027934D01*
X011398Y027935D01*
X011391Y027936D01*
X011387Y027937D01*
X011383D01*
X011382Y027938D01*
X01138D01*
X011365Y027943D01*
X011352Y027948D01*
X011342Y027953D01*
X011333Y027958D01*
X011328Y027962D01*
X011324Y027966D01*
X011321Y027968D01*
X01132Y027969D01*
X011315Y027977D01*
X011311Y027985D01*
X011307Y027993D01*
X011305Y028001D01*
X011304Y028006D01*
X011303Y028012D01*
Y028016D01*
X011304Y028026D01*
X011305Y028035D01*
X011308Y028042D01*
X011312Y028049D01*
X011315Y028054D01*
X011317Y028059D01*
X011319Y028061D01*
X01132Y028062D01*
X011328Y028069D01*
X011338Y028075D01*
X011349Y028081D01*
X01136Y028086D01*
X011371Y028089D01*
X011379Y028093D01*
X011385Y028094D01*
X011386Y028095D01*
X011387D01*
X011397Y028097D01*
X011409Y028099D01*
X011423Y028101D01*
X011437Y028103D01*
X011467Y028106D01*
X011497Y028107D01*
X011512Y028108D01*
X011526D01*
X011538Y028109D01*
X011549D01*
X011558D01*
X011565D01*
X01157D01*
X011571D01*
X011595D01*
X011618Y028108D01*
D02*
G37*
G36*
X011403Y025754D02*
X011418Y02575D01*
X011429Y025747D01*
X011438Y025743D01*
X011447Y025737D01*
X011453Y025734D01*
X011456Y025731D01*
X011457Y025729D01*
X011465Y02572D01*
X011471Y025709D01*
X011476Y025698D01*
X011478Y025687D01*
X01148Y025677D01*
X011481Y025669D01*
Y025663D01*
X01148Y025649D01*
X011478Y025635D01*
X011473Y025625D01*
X011469Y025615D01*
X011465Y025607D01*
X01146Y025602D01*
X011458Y025598D01*
X011457Y025597D01*
X011447Y02559D01*
X011436Y025583D01*
X011425Y025579D01*
X011414Y025576D01*
X011405Y025574D01*
X011397Y025573D01*
X011391D01*
X011389D01*
X011374Y025574D01*
X011361Y025576D01*
X01135Y025581D01*
X01134Y025585D01*
X011332Y02559D01*
X011327Y025594D01*
X011324Y025596D01*
X011323Y025597D01*
X011314Y025607D01*
X011308Y025618D01*
X011304Y025629D01*
X011301Y02564D01*
X011299Y02565D01*
X011297Y025657D01*
Y025664D01*
X011299Y025678D01*
X011302Y025691D01*
X011305Y025702D01*
X011309Y025712D01*
X011315Y02572D01*
X011318Y025725D01*
X011321Y025728D01*
X011323Y025729D01*
X011332Y025738D01*
X011343Y025744D01*
X011354Y025748D01*
X011365Y025751D01*
X011374Y025754D01*
X011382Y025755D01*
X011386D01*
X011388D01*
X011403Y025754D01*
D02*
G37*
G36*
X011737Y025771D02*
X011755Y025768D01*
X011772Y025762D01*
X011785Y025757D01*
X011796Y025751D01*
X011802Y025746D01*
X011808Y025743D01*
X011809Y025742D01*
X01182Y025729D01*
X011828Y025717D01*
X011833Y025705D01*
X011836Y025693D01*
X011838Y025682D01*
X011841Y025675D01*
Y025667D01*
X01184Y025651D01*
X011835Y025635D01*
X01183Y025622D01*
X011824Y025611D01*
X011818Y025603D01*
X011813Y025596D01*
X011809Y025592D01*
X011808Y025591D01*
X011794Y025581D01*
X011778Y025573D01*
X011763Y025568D01*
X011748Y025564D01*
X011734Y025562D01*
X011723Y02556D01*
X011718D01*
X011715D01*
X011714D01*
X011713D01*
X011697Y025561D01*
X011682Y025564D01*
X011669Y025568D01*
X011657Y025573D01*
X011647Y025578D01*
X01164Y025581D01*
X011635Y025584D01*
X011633Y025585D01*
X011621Y025596D01*
X011611Y025609D01*
X011605Y025622D01*
X0116Y025635D01*
X011598Y025646D01*
X011596Y025656D01*
Y025665D01*
X011597Y025681D01*
X011601Y025697D01*
X011606Y02571D01*
X011612Y025721D01*
X011618Y025729D01*
X011623Y025736D01*
X011628Y02574D01*
X011629Y025742D01*
X011642Y025751D01*
X011656Y025759D01*
X01167Y025764D01*
X011684Y025769D01*
X011696Y025771D01*
X011706Y025772D01*
X011713D01*
X011714D01*
X011715D01*
X011737Y025771D01*
D02*
G37*
G36*
X011958Y025417D02*
X011728D01*
X011749Y025418D01*
X011767Y02542D01*
X011786Y025425D01*
X011802Y02543D01*
X011819Y025435D01*
X011833Y025442D01*
X011846Y02545D01*
X011858Y025457D01*
X011868Y025465D01*
X011878Y025473D01*
X011885Y025479D01*
X011892Y025485D01*
X011897Y02549D01*
X011901Y025494D01*
X011903Y025497D01*
X011904Y025498D01*
X011914Y025511D01*
X011922Y025525D01*
X011929Y025539D01*
X011935Y025554D01*
X011944Y025582D01*
X011951Y025609D01*
X011953Y025622D01*
X011954Y025633D01*
X011955Y025643D01*
X011956Y025652D01*
X011958Y02566D01*
Y025417D01*
D02*
G37*
%LPC*%
G36*
X028335Y014328D02*
X02833D01*
X028319Y014327D01*
X028308Y014326D01*
X028298Y014323D01*
X028289Y014321D01*
X02828Y014317D01*
X028271Y014313D01*
X028264Y014309D01*
X028257Y014305D01*
X028251Y0143D01*
X028246Y014296D01*
X028241Y014292D01*
X028237Y014288D01*
X028234Y014286D01*
X028232Y014284D01*
X028231Y014282D01*
X02823Y014281D01*
X028224Y014272D01*
X028218Y014262D01*
X028213Y01425D01*
X028208Y014239D01*
X028205Y014226D01*
X028201Y014214D01*
X028199Y014201D01*
X028197Y014189D01*
X028195Y014178D01*
X028194Y014167D01*
X028193Y014157D01*
X028193Y014148D01*
X028192Y014141D01*
Y014131D01*
X028193Y014113D01*
X028194Y014096D01*
X028195Y01408D01*
X028198Y014066D01*
X028201Y014052D01*
X028204Y01404D01*
X028207Y01403D01*
X028211Y01402D01*
X028214Y014012D01*
X028217Y014005D01*
X02822Y013999D01*
X028223Y013994D01*
X028225Y01399D01*
X028227Y013987D01*
X028228Y013985D01*
X028229Y013985D01*
X028236Y013977D01*
X028243Y01397D01*
X028251Y013964D01*
X028259Y013959D01*
X028267Y013955D01*
X028275Y013952D01*
X028283Y013948D01*
X02829Y013946D01*
X028297Y013944D01*
X028303Y013943D01*
X028309Y013942D01*
X028314Y013941D01*
X028318D01*
X02832Y013941D01*
X028323D01*
X028333Y013941D01*
X028342Y013942D01*
X028351Y013944D01*
X028359Y013946D01*
X028367Y013949D01*
X028374Y013952D01*
X028381Y013955D01*
X028387Y013958D01*
X028392Y013961D01*
X028397Y013965D01*
X028401Y013967D01*
X028404Y01397D01*
X028407Y013972D01*
X028409Y013974D01*
X02841Y013975D01*
X02841Y013976D01*
X028416Y013982D01*
X028422Y01399D01*
X028426Y013997D01*
X02843Y014005D01*
X028434Y014013D01*
X028437Y01402D01*
X02844Y014036D01*
X028442Y014042D01*
X028443Y014049D01*
X028444Y014054D01*
X028444Y014059D01*
X028445Y014063D01*
Y014069D01*
X028444Y014079D01*
X028443Y014089D01*
X028442Y014098D01*
X02844Y014106D01*
X028437Y014114D01*
X028434Y014121D01*
X028432Y014128D01*
X028428Y014134D01*
X028425Y01414D01*
X028422Y014145D01*
X02842Y014149D01*
X028417Y014152D01*
X028415Y014155D01*
X028414Y014157D01*
X028413Y014158D01*
X028412Y014158D01*
X028406Y014165D01*
X0284Y01417D01*
X028393Y014175D01*
X028386Y014179D01*
X02838Y014182D01*
X028373Y014185D01*
X028361Y014189D01*
X028356Y014191D01*
X02835Y014192D01*
X028346Y014192D01*
X028342Y014193D01*
X028339Y014193D01*
X028335D01*
X028327Y014193D01*
X02832Y014192D01*
X028313Y014191D01*
X028307Y014189D01*
X028295Y014183D01*
X028285Y014178D01*
X028278Y014172D01*
X028275Y014169D01*
X028272Y014166D01*
X02827Y014164D01*
X028268Y014163D01*
X028267Y014162D01*
X028267Y014161D01*
X028268Y014173D01*
X028269Y014184D01*
X02827Y014193D01*
X028272Y014202D01*
X028273Y01421D01*
X028275Y014217D01*
X028277Y014223D01*
X028279Y014228D01*
X028281Y014233D01*
X028282Y014237D01*
X028283Y01424D01*
X028284Y014243D01*
X028285Y014245D01*
X028287Y014246D01*
X028287Y014247D01*
X028293Y014254D01*
X0283Y014259D01*
X028306Y014263D01*
X028312Y014265D01*
X028318Y014267D01*
X028322Y014267D01*
X028325Y014268D01*
X028326D01*
X028332Y014267D01*
X028338Y014266D01*
X028343Y014264D01*
X028347Y014263D01*
X02835Y014261D01*
X028352Y014259D01*
X028354Y014258D01*
X028354Y014257D01*
X028358Y014253D01*
X028361Y014248D01*
X028363Y014243D01*
X028365Y014238D01*
X028366Y014233D01*
X028367Y014229D01*
X028368Y014227D01*
Y014226D01*
X028438Y014233D01*
X028434Y01425D01*
X028428Y014263D01*
X028422Y014275D01*
X028416Y014286D01*
X02841Y014293D01*
X028408Y014296D01*
X028406Y014299D01*
X028404Y0143D01*
X028402Y014302D01*
X028402Y014303D01*
X028401D01*
X028396Y014308D01*
X02839Y014311D01*
X028378Y014317D01*
X028366Y014322D01*
X028355Y014324D01*
X028345Y014327D01*
X028341Y014327D01*
X028337D01*
X028335Y014328D01*
D02*
G37*
G36*
X033961Y014326D02*
X033879D01*
X033787Y014046D01*
X033691Y014326D01*
X033608D01*
X033744Y013948D01*
X033826D01*
X033961Y014326D01*
D02*
G37*
G36*
X032579Y014328D02*
X032574D01*
X032562Y014327D01*
X032552Y014326D01*
X032542Y014324D01*
X032534Y014322D01*
X032527Y01432D01*
X032522Y014317D01*
X032519Y014316D01*
X032518Y014316D01*
X032517D01*
X032509Y014311D01*
X032501Y014305D01*
X032494Y0143D01*
X032489Y014295D01*
X032484Y01429D01*
X032481Y014286D01*
X032479Y014284D01*
X032478Y014283D01*
X032473Y014275D01*
X032469Y014266D01*
X032466Y014257D01*
X032462Y014248D01*
X03246Y01424D01*
X032459Y014234D01*
X032458Y014231D01*
Y014229D01*
X032457Y014228D01*
Y014228D01*
X032524Y014217D01*
X032526Y014226D01*
X032528Y014233D01*
X03253Y01424D01*
X032533Y014245D01*
X032535Y014249D01*
X032538Y014252D01*
X032539Y014254D01*
X03254Y014255D01*
X032545Y014259D01*
X03255Y014262D01*
X032556Y014264D01*
X032561Y014266D01*
X032565Y014267D01*
X032568Y014268D01*
X032572D01*
X032578Y014267D01*
X032585Y014266D01*
X03259Y014264D01*
X032594Y014262D01*
X032598Y01426D01*
X0326Y014258D01*
X032602Y014257D01*
X032602Y014256D01*
X032606Y014252D01*
X032609Y014246D01*
X032611Y014241D01*
X032612Y014237D01*
X032613Y014232D01*
X032614Y014229D01*
Y014227D01*
Y014226D01*
X032613Y014217D01*
X032611Y01421D01*
X032609Y014204D01*
X032606Y014199D01*
X032603Y014195D01*
X0326Y014192D01*
X032598Y01419D01*
X032598Y01419D01*
X032591Y014185D01*
X032584Y014182D01*
X032576Y01418D01*
X032569Y014178D01*
X032563Y014178D01*
X032557Y014177D01*
X032552D01*
X032545Y014119D01*
X032552Y01412D01*
X032558Y014122D01*
X032564Y014123D01*
X032569Y014124D01*
X032573Y014124D01*
X032578D01*
X032586Y014124D01*
X032592Y014121D01*
X032598Y014119D01*
X032604Y014116D01*
X032608Y014113D01*
X032611Y01411D01*
X032613Y014108D01*
X032614Y014108D01*
X032618Y014101D01*
X032622Y014094D01*
X032625Y014087D01*
X032627Y01408D01*
X032628Y014073D01*
X032629Y014068D01*
Y014065D01*
Y014065D01*
Y014064D01*
X032628Y014054D01*
X032627Y014044D01*
X032624Y014036D01*
X032621Y01403D01*
X032618Y014025D01*
X032616Y014021D01*
X032614Y014018D01*
X032613Y014018D01*
X032607Y014012D01*
X0326Y014008D01*
X032594Y014005D01*
X032588Y014003D01*
X032583Y014002D01*
X032579Y014001D01*
X032576Y014001D01*
X032575D01*
X032568Y014001D01*
X032561Y014003D01*
X032555Y014005D01*
X03255Y014008D01*
X032546Y01401D01*
X032543Y014012D01*
X03254Y014014D01*
X03254Y014014D01*
X032535Y01402D01*
X032531Y014027D01*
X032528Y014034D01*
X032525Y014041D01*
X032523Y014047D01*
X032522Y014051D01*
X032522Y014055D01*
Y014055D01*
Y014056D01*
X032452Y014047D01*
X032453Y014038D01*
X032455Y01403D01*
X03246Y014015D01*
X032466Y014002D01*
X03247Y013996D01*
X032473Y013991D01*
X032477Y013986D01*
X03248Y013982D01*
X032483Y013978D01*
X032485Y013976D01*
X032487Y013973D01*
X032489Y013972D01*
X03249Y013971D01*
X032491Y01397D01*
X032497Y013965D01*
X032504Y01396D01*
X032511Y013956D01*
X032519Y013953D01*
X032533Y013948D01*
X032546Y013944D01*
X032552Y013943D01*
X032558Y013942D01*
X032563Y013942D01*
X032567Y013941D01*
X032571Y013941D01*
X032576D01*
X032586Y013941D01*
X032596Y013942D01*
X032604Y013944D01*
X032613Y013946D01*
X032621Y013949D01*
X032628Y013952D01*
X032635Y013955D01*
X032641Y013958D01*
X032647Y013961D01*
X032652Y013965D01*
X032656Y013967D01*
X03266Y01397D01*
X032663Y013972D01*
X032665Y013974D01*
X032666Y013975D01*
X032667Y013976D01*
X032673Y013982D01*
X032679Y013989D01*
X032683Y013996D01*
X032688Y014003D01*
X032691Y014011D01*
X032694Y014018D01*
X032699Y014031D01*
X0327Y014037D01*
X032701Y014043D01*
X032702Y014048D01*
X032703Y014053D01*
X032703Y014056D01*
Y014061D01*
X032702Y014073D01*
X0327Y014084D01*
X032697Y014095D01*
X032693Y014103D01*
X032689Y01411D01*
X032687Y014115D01*
X032685Y014118D01*
X032683Y014119D01*
X032676Y014127D01*
X032667Y014134D01*
X032658Y01414D01*
X03265Y014144D01*
X032643Y014148D01*
X032637Y014149D01*
X032635Y01415D01*
X032633D01*
X032632Y014151D01*
X032632D01*
X032641Y014157D01*
X03265Y014163D01*
X032657Y014169D01*
X032663Y014176D01*
X032669Y014183D01*
X032673Y014189D01*
X032676Y014196D01*
X03268Y014202D01*
X032682Y014208D01*
X032683Y014213D01*
X032685Y014218D01*
X032685Y014222D01*
X032686Y014226D01*
X032686Y014228D01*
Y01423D01*
Y014231D01*
X032686Y014237D01*
X032685Y014243D01*
X032682Y014255D01*
X032678Y014266D01*
X032673Y014275D01*
X032668Y014283D01*
X032664Y014288D01*
X032662Y014291D01*
X032661Y014292D01*
X03266Y014293D01*
X032659Y014293D01*
X032653Y014299D01*
X032646Y014305D01*
X03264Y014309D01*
X032633Y014313D01*
X032625Y014317D01*
X032618Y01432D01*
X032604Y014323D01*
X032598Y014325D01*
X032592Y014326D01*
X032587Y014327D01*
X032582Y014327D01*
X032579Y014328D01*
D02*
G37*
G36*
X033467D02*
X033461D01*
X033452Y014327D01*
X033443Y014327D01*
X033427Y014324D01*
X033412Y01432D01*
X033406Y014317D01*
X0334Y014315D01*
X033394Y014312D01*
X03339Y01431D01*
X033386Y014308D01*
X033382Y014306D01*
X03338Y014304D01*
X033378Y014303D01*
X033377Y014302D01*
X033376Y014302D01*
X03337Y014296D01*
X033365Y014291D01*
X03336Y014284D01*
X033356Y014277D01*
X033349Y014263D01*
X033344Y014249D01*
X033342Y014242D01*
X03334Y014236D01*
X033339Y014231D01*
X033338Y014226D01*
X033337Y014221D01*
Y014219D01*
X033336Y014216D01*
Y014216D01*
X033409Y014209D01*
X03341Y01422D01*
X033412Y014229D01*
X033414Y014237D01*
X033417Y014243D01*
X033419Y014248D01*
X033421Y014251D01*
X033423Y014253D01*
X033423Y014254D01*
X033429Y014258D01*
X033435Y014262D01*
X033441Y014264D01*
X033447Y014266D01*
X033452Y014267D01*
X033456Y014268D01*
X03346D01*
X033468Y014267D01*
X033475Y014266D01*
X033481Y014263D01*
X033487Y014261D01*
X03349Y014259D01*
X033494Y014257D01*
X033495Y014255D01*
X033496Y014255D01*
X0335Y014249D01*
X033504Y014243D01*
X033506Y014237D01*
X033507Y014231D01*
X033508Y014226D01*
X033509Y014221D01*
Y014218D01*
Y014217D01*
Y014217D01*
X033508Y014209D01*
X033507Y014201D01*
X033504Y014193D01*
X033501Y014187D01*
X033499Y014181D01*
X033496Y014177D01*
X033494Y014174D01*
X033494Y014173D01*
X033492Y014169D01*
X033488Y014166D01*
X033484Y014161D01*
X03348Y014156D01*
X03347Y014146D01*
X03346Y014136D01*
X03345Y014126D01*
X033446Y014121D01*
X033441Y014118D01*
X033438Y014115D01*
X033436Y014113D01*
X033434Y014111D01*
X033434Y01411D01*
X033423Y0141D01*
X033413Y01409D01*
X033404Y014081D01*
X033395Y014073D01*
X033388Y014065D01*
X033381Y014057D01*
X033375Y01405D01*
X03337Y014044D01*
X033366Y014038D01*
X033362Y014033D01*
X033359Y01403D01*
X033357Y014026D01*
X033354Y014024D01*
X033353Y014021D01*
X033352Y01402D01*
Y01402D01*
X033345Y014007D01*
X03334Y013994D01*
X033335Y013982D01*
X033332Y013971D01*
X03333Y013961D01*
X033329Y013958D01*
X033329Y013954D01*
X033328Y013952D01*
X033328Y013949D01*
Y013948D01*
X033582D01*
Y014015D01*
X033437D01*
X033442Y014022D01*
X033447Y014028D01*
X033449Y014031D01*
X033451Y014033D01*
X033452Y014034D01*
X033452Y014035D01*
X033454Y014037D01*
X033457Y014039D01*
X033463Y014045D01*
X03347Y014053D01*
X033477Y01406D01*
X033484Y014066D01*
X03349Y014072D01*
X033493Y014074D01*
X033494Y014075D01*
X033495Y014076D01*
X033496Y014077D01*
X033508Y014088D01*
X033518Y014097D01*
X033526Y014106D01*
X033532Y014113D01*
X033537Y014118D01*
X033541Y014122D01*
X033543Y014125D01*
X033543Y014125D01*
X033551Y014134D01*
X033557Y014143D01*
X033561Y014151D01*
X033565Y014158D01*
X033569Y014165D01*
X033571Y014169D01*
X033572Y014172D01*
X033572Y014173D01*
X033576Y014182D01*
X033578Y014191D01*
X033579Y014199D01*
X033581Y014207D01*
X033581Y014213D01*
X033582Y014217D01*
Y014222D01*
X033581Y01423D01*
X03358Y014238D01*
X033579Y014246D01*
X033577Y014253D01*
X033571Y014266D01*
X033566Y014276D01*
X033563Y014281D01*
X03356Y014285D01*
X033557Y014289D01*
X033554Y014292D01*
X033552Y014294D01*
X033551Y014296D01*
X03355Y014297D01*
X033549Y014297D01*
X033543Y014303D01*
X033536Y014308D01*
X03353Y014311D01*
X033522Y014315D01*
X033508Y01432D01*
X033494Y014324D01*
X033487Y014325D01*
X033481Y014326D01*
X033476Y014327D01*
X033471Y014327D01*
X033467Y014328D01*
D02*
G37*
G36*
X033228D02*
X033169D01*
X033164Y014315D01*
X033157Y014304D01*
X033149Y014293D01*
X033142Y014284D01*
X033135Y014277D01*
X033129Y014272D01*
X033127Y014269D01*
X033125Y014268D01*
X033124Y014267D01*
X033124Y014267D01*
X033112Y014258D01*
X0331Y01425D01*
X03309Y014244D01*
X03308Y01424D01*
X033073Y014237D01*
X033067Y014234D01*
X033065Y014233D01*
X033063Y014233D01*
X033063Y014232D01*
X033062D01*
Y014167D01*
X033082Y014174D01*
X0331Y014183D01*
X033108Y014187D01*
X033115Y014192D01*
X033122Y014196D01*
X033129Y014201D01*
X033135Y014205D01*
X03314Y014209D01*
X033145Y014212D01*
X033149Y014215D01*
X033152Y014218D01*
X033154Y01422D01*
X033155Y014221D01*
X033156Y014221D01*
Y013948D01*
X033228D01*
Y014328D01*
D02*
G37*
G36*
X032346D02*
X032287D01*
X032282Y014315D01*
X032274Y014304D01*
X032267Y014293D01*
X032259Y014284D01*
X032253Y014277D01*
X032247Y014272D01*
X032244Y014269D01*
X032243Y014268D01*
X032242Y014267D01*
X032241Y014267D01*
X032229Y014258D01*
X032218Y01425D01*
X032207Y014244D01*
X032198Y01424D01*
X03219Y014237D01*
X032185Y014234D01*
X032183Y014233D01*
X032181Y014233D01*
X032181Y014232D01*
X03218D01*
Y014167D01*
X0322Y014174D01*
X032217Y014183D01*
X032225Y014187D01*
X032233Y014192D01*
X03224Y014196D01*
X032247Y014201D01*
X032253Y014205D01*
X032258Y014209D01*
X032262Y014212D01*
X032266Y014215D01*
X03227Y014218D01*
X032272Y01422D01*
X032273Y014221D01*
X032273Y014221D01*
Y013948D01*
X032346D01*
Y014328D01*
D02*
G37*
G36*
X031555D02*
X03155D01*
X031541Y014327D01*
X031532Y014327D01*
X031515Y014324D01*
X031501Y01432D01*
X031494Y014317D01*
X031488Y014315D01*
X031483Y014312D01*
X031478Y01431D01*
X031474Y014308D01*
X031471Y014306D01*
X031468Y014304D01*
X031466Y014303D01*
X031465Y014302D01*
X031465Y014302D01*
X031459Y014296D01*
X031453Y014291D01*
X031448Y014284D01*
X031444Y014277D01*
X031437Y014263D01*
X031432Y014249D01*
X03143Y014242D01*
X031429Y014236D01*
X031427Y014231D01*
X031427Y014226D01*
X031425Y014221D01*
Y014219D01*
X031425Y014216D01*
Y014216D01*
X031497Y014209D01*
X031498Y01422D01*
X0315Y014229D01*
X031502Y014237D01*
X031505Y014243D01*
X031507Y014248D01*
X03151Y014251D01*
X031511Y014253D01*
X031512Y014254D01*
X031517Y014258D01*
X031523Y014262D01*
X031529Y014264D01*
X031535Y014266D01*
X03154Y014267D01*
X031544Y014268D01*
X031548D01*
X031557Y014267D01*
X031564Y014266D01*
X03157Y014263D01*
X031575Y014261D01*
X031579Y014259D01*
X031582Y014257D01*
X031584Y014255D01*
X031584Y014255D01*
X031589Y014249D01*
X031592Y014243D01*
X031594Y014237D01*
X031596Y014231D01*
X031597Y014226D01*
X031597Y014221D01*
Y014218D01*
Y014217D01*
Y014217D01*
X031597Y014209D01*
X031595Y014201D01*
X031593Y014193D01*
X03159Y014187D01*
X031587Y014181D01*
X031584Y014177D01*
X031583Y014174D01*
X031582Y014173D01*
X03158Y014169D01*
X031577Y014166D01*
X031572Y014161D01*
X031568Y014156D01*
X031558Y014146D01*
X031548Y014136D01*
X031538Y014126D01*
X031534Y014121D01*
X03153Y014118D01*
X031526Y014115D01*
X031524Y014113D01*
X031523Y014111D01*
X031522Y01411D01*
X031511Y0141D01*
X031501Y01409D01*
X031492Y014081D01*
X031484Y014073D01*
X031476Y014065D01*
X03147Y014057D01*
X031464Y01405D01*
X031459Y014044D01*
X031454Y014038D01*
X031451Y014033D01*
X031447Y01403D01*
X031445Y014026D01*
X031443Y014024D01*
X031442Y014021D01*
X031441Y01402D01*
Y01402D01*
X031434Y014007D01*
X031428Y013994D01*
X031424Y013982D01*
X031421Y013971D01*
X031418Y013961D01*
X031418Y013958D01*
X031417Y013954D01*
X031417Y013952D01*
X031416Y013949D01*
Y013948D01*
X03167D01*
Y014015D01*
X031526D01*
X03153Y014022D01*
X031535Y014028D01*
X031537Y014031D01*
X031539Y014033D01*
X03154Y014034D01*
X031541Y014035D01*
X031543Y014037D01*
X031545Y014039D01*
X031552Y014045D01*
X031559Y014053D01*
X031566Y01406D01*
X031573Y014066D01*
X031579Y014072D01*
X031581Y014074D01*
X031583Y014075D01*
X031584Y014076D01*
X031584Y014077D01*
X031596Y014088D01*
X031606Y014097D01*
X031614Y014106D01*
X031621Y014113D01*
X031626Y014118D01*
X031629Y014122D01*
X031631Y014125D01*
X031632Y014125D01*
X031639Y014134D01*
X031645Y014143D01*
X03165Y014151D01*
X031654Y014158D01*
X031657Y014165D01*
X031659Y014169D01*
X03166Y014172D01*
X031661Y014173D01*
X031664Y014182D01*
X031666Y014191D01*
X031668Y014199D01*
X031669Y014207D01*
X03167Y014213D01*
X03167Y014217D01*
Y014222D01*
X03167Y01423D01*
X031668Y014238D01*
X031667Y014246D01*
X031665Y014253D01*
X03166Y014266D01*
X031654Y014276D01*
X031651Y014281D01*
X031648Y014285D01*
X031646Y014289D01*
X031643Y014292D01*
X031641Y014294D01*
X031639Y014296D01*
X031638Y014297D01*
X031638Y014297D01*
X031632Y014303D01*
X031625Y014308D01*
X031618Y014311D01*
X031611Y014315D01*
X031596Y01432D01*
X031582Y014324D01*
X031576Y014325D01*
X03157Y014326D01*
X031564Y014327D01*
X031559Y014327D01*
X031555Y014328D01*
D02*
G37*
G36*
X031317D02*
X031258D01*
X031252Y014315D01*
X031245Y014304D01*
X031238Y014293D01*
X03123Y014284D01*
X031223Y014277D01*
X031217Y014272D01*
X031215Y014269D01*
X031214Y014268D01*
X031213Y014267D01*
X031212Y014267D01*
X0312Y014258D01*
X031189Y01425D01*
X031178Y014244D01*
X031169Y01424D01*
X031161Y014237D01*
X031156Y014234D01*
X031154Y014233D01*
X031152Y014233D01*
X031151Y014232D01*
X031151D01*
Y014167D01*
X03117Y014174D01*
X031188Y014183D01*
X031196Y014187D01*
X031204Y014192D01*
X031211Y014196D01*
X031217Y014201D01*
X031223Y014205D01*
X031229Y014209D01*
X031233Y014212D01*
X031237Y014215D01*
X03124Y014218D01*
X031243Y01422D01*
X031244Y014221D01*
X031244Y014221D01*
Y013948D01*
X031317D01*
Y014328D01*
D02*
G37*
G36*
X030168Y014327D02*
X030107D01*
X029943Y014086D01*
Y014024D01*
X030098D01*
Y013948D01*
X030168D01*
Y014024D01*
X030215D01*
Y014087D01*
X030168D01*
Y014327D01*
D02*
G37*
G36*
X029847Y014328D02*
X029788D01*
X029783Y014315D01*
X029775Y014304D01*
X029768Y014293D01*
X02976Y014284D01*
X029754Y014277D01*
X029748Y014272D01*
X029745Y014269D01*
X029744Y014268D01*
X029743Y014267D01*
X029742Y014267D01*
X02973Y014258D01*
X029719Y01425D01*
X029708Y014244D01*
X029699Y01424D01*
X029691Y014237D01*
X029686Y014234D01*
X029684Y014233D01*
X029682Y014233D01*
X029682Y014232D01*
X029681D01*
Y014167D01*
X029701Y014174D01*
X029718Y014183D01*
X029726Y014187D01*
X029734Y014192D01*
X029741Y014196D01*
X029748Y014201D01*
X029754Y014205D01*
X029759Y014209D01*
X029763Y014212D01*
X029767Y014215D01*
X029771Y014218D01*
X029773Y01422D01*
X029774Y014221D01*
X029774Y014221D01*
Y013948D01*
X029847D01*
Y014328D01*
D02*
G37*
G36*
X028083D02*
X028024D01*
X028019Y014315D01*
X028012Y014304D01*
X028004Y014293D01*
X027997Y014284D01*
X02799Y014277D01*
X027984Y014272D01*
X027982Y014269D01*
X02798Y014268D01*
X027979Y014267D01*
X027979Y014267D01*
X027967Y014258D01*
X027955Y01425D01*
X027945Y014244D01*
X027935Y01424D01*
X027928Y014237D01*
X027922Y014234D01*
X02792Y014233D01*
X027919Y014233D01*
X027918Y014232D01*
X027917D01*
Y014167D01*
X027937Y014174D01*
X027955Y014183D01*
X027963Y014187D01*
X02797Y014192D01*
X027977Y014196D01*
X027984Y014201D01*
X02799Y014205D01*
X027996Y014209D01*
X028Y014212D01*
X028004Y014215D01*
X028007Y014218D01*
X028009Y01422D01*
X02801Y014221D01*
X028011Y014221D01*
Y013948D01*
X028083D01*
Y014328D01*
D02*
G37*
G36*
X032976Y014332D02*
X032919D01*
Y013836D01*
X032976D01*
Y014332D01*
D02*
G37*
G36*
X031947D02*
X03189D01*
Y013836D01*
X031947D01*
Y014332D01*
D02*
G37*
G36*
X030771D02*
X030713D01*
Y013836D01*
X030771D01*
Y014332D01*
D02*
G37*
G36*
X029301D02*
X029244D01*
Y013836D01*
X029301D01*
Y014332D01*
D02*
G37*
G36*
X027928Y013761D02*
X027922D01*
X027902Y01376D01*
X027884Y013758D01*
X027877Y013756D01*
X027869Y013755D01*
X027862Y013753D01*
X027856Y013751D01*
X027851Y013749D01*
X027845Y013748D01*
X027841Y013746D01*
X027837Y013745D01*
X027835Y013743D01*
X027833Y013743D01*
X027831Y013742D01*
X027831D01*
X027814Y013732D01*
X027807Y013726D01*
X0278Y01372D01*
X027793Y013714D01*
X027787Y013708D01*
X027782Y013702D01*
X027777Y013697D01*
X027773Y013691D01*
X027769Y013687D01*
X027766Y013682D01*
X027763Y013678D01*
X027762Y013675D01*
X02776Y013673D01*
X027759Y013671D01*
X027759Y013671D01*
X027754Y013662D01*
X027751Y013653D01*
X027745Y013635D01*
X02774Y013617D01*
X027738Y013601D01*
X027736Y013594D01*
X027735Y013587D01*
X027735Y013581D01*
Y013576D01*
X027734Y013572D01*
Y013566D01*
X027735Y013546D01*
X027738Y013527D01*
X027741Y01351D01*
X027743Y013502D01*
X027745Y013495D01*
X027747Y013488D01*
X027749Y013482D01*
X027751Y013477D01*
X027753Y013473D01*
X027754Y01347D01*
X027755Y013467D01*
X027756Y013465D01*
Y013465D01*
X027765Y013448D01*
X027776Y013434D01*
X027787Y013422D01*
X027798Y013412D01*
X027802Y013408D01*
X027807Y013404D01*
X027811Y0134D01*
X027815Y013398D01*
X027818Y013396D01*
X02782Y013394D01*
X027822Y013394D01*
X027822Y013393D01*
X027831Y013389D01*
X027839Y013385D01*
X027857Y013379D01*
X027875Y013375D01*
X02789Y013372D01*
X027898Y013371D01*
X027905Y01337D01*
X027911Y013369D01*
X027916D01*
X02792Y013369D01*
X027926D01*
X027943Y013369D01*
X02796Y013371D01*
X027976Y013374D01*
X027989Y013377D01*
X027995Y013379D01*
X028001Y013381D01*
X028006Y013382D01*
X02801Y013384D01*
X028013Y013385D01*
X028015Y013386D01*
X028017Y013386D01*
X028018D01*
X028034Y013393D01*
X028048Y0134D01*
X02806Y013407D01*
X02807Y013413D01*
X028078Y013418D01*
X02808Y013421D01*
X028083Y013423D01*
X028085Y013424D01*
X028086Y013426D01*
X028087Y013427D01*
Y013578D01*
X027923D01*
Y013515D01*
X028011D01*
Y013466D01*
X028004Y013461D01*
X027997Y013457D01*
X02799Y013453D01*
X027983Y01345D01*
X027978Y013447D01*
X027973Y013445D01*
X02797Y013444D01*
X02797Y013443D01*
X027969D01*
X02796Y01344D01*
X027952Y013438D01*
X027943Y013436D01*
X027936Y013435D01*
X02793Y013434D01*
X027925Y013434D01*
X027921D01*
X027912Y013434D01*
X027903Y013435D01*
X027896Y013437D01*
X027888Y013439D01*
X027875Y013445D01*
X027869Y013447D01*
X027864Y013451D01*
X027859Y013454D01*
X027854Y013457D01*
X027851Y01346D01*
X027848Y013462D01*
X027846Y013464D01*
X027844Y013466D01*
X027843Y013467D01*
X027842Y013468D01*
X027837Y013474D01*
X027833Y013482D01*
X027829Y013489D01*
X027825Y013498D01*
X02782Y013515D01*
X027817Y013531D01*
X027816Y013539D01*
X027815Y013546D01*
X027814Y013552D01*
X027813Y013558D01*
X027813Y013563D01*
Y013566D01*
Y013569D01*
Y013569D01*
X027813Y013581D01*
X027814Y013591D01*
X027816Y013601D01*
X027817Y013611D01*
X027819Y013619D01*
X027822Y013626D01*
X027825Y013634D01*
X027828Y01364D01*
X02783Y013646D01*
X027833Y01365D01*
X027835Y013654D01*
X027837Y013658D01*
X027839Y01366D01*
X027841Y013662D01*
X027841Y013663D01*
X027842Y013664D01*
X027848Y013669D01*
X027854Y013675D01*
X02786Y013678D01*
X027867Y013682D01*
X027873Y013685D01*
X02788Y013688D01*
X027893Y013692D01*
X027899Y013693D01*
X027904Y013694D01*
X027909Y013695D01*
X027913Y013695D01*
X027917Y013696D01*
X027922D01*
X027934Y013695D01*
X027944Y013693D01*
X027953Y013691D01*
X027961Y013688D01*
X027967Y013685D01*
X027972Y013682D01*
X027975Y01368D01*
X027976Y013679D01*
X027984Y013673D01*
X02799Y013666D01*
X027996Y013659D01*
X028Y013652D01*
X028003Y013645D01*
X028005Y01364D01*
X028006Y013637D01*
X028007Y013636D01*
Y013636D01*
X028083Y01365D01*
X02808Y013659D01*
X028077Y013669D01*
X028074Y013677D01*
X028069Y013684D01*
X028066Y013692D01*
X028061Y013699D01*
X028057Y013705D01*
X028053Y01371D01*
X028048Y013715D01*
X028044Y013719D01*
X028041Y013723D01*
X028038Y013726D01*
X028035Y013728D01*
X028033Y01373D01*
X028032Y013731D01*
X028031Y013731D01*
X028024Y013737D01*
X028015Y013741D01*
X028007Y013745D01*
X027997Y013748D01*
X027979Y013754D01*
X027962Y013757D01*
X027954Y013759D01*
X027946Y013759D01*
X027939Y01376D01*
X027933Y01376D01*
X027928Y013761D01*
D02*
G37*
G36*
X028459Y013754D02*
X028388D01*
Y013499D01*
X028232Y013754D01*
X028158D01*
Y013376D01*
X028229D01*
Y013625D01*
X028382Y013376D01*
X028459D01*
Y013754D01*
D02*
G37*
G36*
X034144D02*
X034062D01*
X03397Y013474D01*
X033874Y013754D01*
X033792D01*
X033927Y013376D01*
X034009D01*
X034144Y013754D01*
D02*
G37*
G36*
X03041D02*
X030329D01*
X030237Y013474D01*
X03014Y013754D01*
X030058D01*
X030193Y013376D01*
X030276D01*
X03041Y013754D01*
D02*
G37*
G36*
X029911Y013756D02*
X029906D01*
X029894Y013755D01*
X029884Y013754D01*
X029874Y013752D01*
X029866Y01375D01*
X029859Y013748D01*
X029854Y013745D01*
X029851Y013744D01*
X02985Y013744D01*
X029849D01*
X029841Y013739D01*
X029833Y013733D01*
X029826Y013728D01*
X02982Y013723D01*
X029816Y013718D01*
X029813Y013714D01*
X029811Y013712D01*
X02981Y013711D01*
X029805Y013703D01*
X029801Y013694D01*
X029798Y013685D01*
X029794Y013676D01*
X029792Y013668D01*
X02979Y013662D01*
X02979Y013659D01*
Y013658D01*
X029789Y013657D01*
Y013656D01*
X029856Y013645D01*
X029858Y013654D01*
X02986Y013661D01*
X029862Y013668D01*
X029865Y013673D01*
X029867Y013677D01*
X02987Y013681D01*
X029871Y013682D01*
X029872Y013683D01*
X029877Y013687D01*
X029882Y01369D01*
X029888Y013693D01*
X029893Y013694D01*
X029897Y013695D01*
X0299Y013696D01*
X029903D01*
X02991Y013695D01*
X029917Y013694D01*
X029922Y013692D01*
X029926Y01369D01*
X02993Y013688D01*
X029932Y013686D01*
X029934Y013685D01*
X029934Y013684D01*
X029938Y01368D01*
X029941Y013675D01*
X029943Y01367D01*
X029944Y013665D01*
X029945Y01366D01*
X029946Y013657D01*
Y013655D01*
Y013654D01*
X029945Y013646D01*
X029943Y013638D01*
X029941Y013632D01*
X029938Y013628D01*
X029935Y013623D01*
X029932Y01362D01*
X02993Y013618D01*
X02993Y013618D01*
X029923Y013613D01*
X029916Y01361D01*
X029908Y013608D01*
X029901Y013606D01*
X029895Y013606D01*
X029889Y013605D01*
X029884D01*
X029877Y013547D01*
X029884Y013548D01*
X02989Y01355D01*
X029896Y013551D01*
X029901Y013552D01*
X029905Y013552D01*
X02991D01*
X029918Y013552D01*
X029924Y013549D01*
X02993Y013547D01*
X029936Y013544D01*
X02994Y013541D01*
X029943Y013539D01*
X029945Y013536D01*
X029946Y013536D01*
X02995Y013529D01*
X029954Y013522D01*
X029957Y013515D01*
X029959Y013508D01*
X02996Y013501D01*
X029961Y013497D01*
Y013493D01*
Y013493D01*
Y013492D01*
X02996Y013482D01*
X029959Y013472D01*
X029956Y013464D01*
X029953Y013458D01*
X02995Y013453D01*
X029948Y013449D01*
X029946Y013446D01*
X029945Y013446D01*
X029939Y01344D01*
X029932Y013436D01*
X029926Y013433D01*
X02992Y013431D01*
X029915Y01343D01*
X029911Y013429D01*
X029908Y013429D01*
X029907D01*
X0299Y013429D01*
X029893Y013431D01*
X029887Y013433D01*
X029882Y013436D01*
X029878Y013438D01*
X029875Y01344D01*
X029872Y013442D01*
X029872Y013442D01*
X029867Y013448D01*
X029863Y013455D01*
X02986Y013462D01*
X029857Y013469D01*
X029855Y013475D01*
X029854Y01348D01*
X029854Y013483D01*
Y013483D01*
Y013484D01*
X029784Y013475D01*
X029785Y013466D01*
X029787Y013458D01*
X029792Y013443D01*
X029798Y01343D01*
X029802Y013424D01*
X029805Y013419D01*
X029808Y013414D01*
X029812Y01341D01*
X029815Y013406D01*
X029817Y013404D01*
X029819Y013402D01*
X029821Y0134D01*
X029822Y013399D01*
X029823Y013398D01*
X029829Y013393D01*
X029836Y013388D01*
X029843Y013385D01*
X029851Y013381D01*
X029865Y013376D01*
X029878Y013373D01*
X029884Y013371D01*
X02989Y01337D01*
X029895Y01337D01*
X029899Y013369D01*
X029903Y013369D01*
X029908D01*
X029918Y013369D01*
X029928Y01337D01*
X029936Y013372D01*
X029945Y013374D01*
X029953Y013377D01*
X02996Y01338D01*
X029967Y013383D01*
X029973Y013386D01*
X029979Y01339D01*
X029984Y013393D01*
X029988Y013396D01*
X029992Y013398D01*
X029995Y0134D01*
X029997Y013402D01*
X029998Y013403D01*
X029999Y013404D01*
X030005Y01341D01*
X030011Y013417D01*
X030015Y013424D01*
X03002Y013432D01*
X030023Y013439D01*
X030026Y013446D01*
X030031Y013459D01*
X030032Y013465D01*
X030033Y013471D01*
X030034Y013476D01*
X030035Y013481D01*
X030035Y013484D01*
Y013489D01*
X030034Y013501D01*
X030032Y013512D01*
X030029Y013523D01*
X030025Y013531D01*
X030021Y013538D01*
X030019Y013543D01*
X030017Y013546D01*
X030015Y013547D01*
X030008Y013555D01*
X029999Y013563D01*
X02999Y013568D01*
X029982Y013572D01*
X029975Y013576D01*
X029969Y013577D01*
X029967Y013578D01*
X029965D01*
X029964Y013579D01*
X029964D01*
X029973Y013585D01*
X029982Y013591D01*
X029989Y013598D01*
X029995Y013604D01*
X030001Y013611D01*
X030005Y013617D01*
X030008Y013624D01*
X030012Y01363D01*
X030014Y013636D01*
X030015Y013641D01*
X030017Y013646D01*
X030017Y01365D01*
X030018Y013654D01*
X030018Y013657D01*
Y013658D01*
Y013659D01*
X030018Y013665D01*
X030017Y013671D01*
X030014Y013683D01*
X03001Y013694D01*
X030005Y013703D01*
X03Y013711D01*
X029996Y013717D01*
X029994Y013719D01*
X029992Y01372D01*
X029992Y013721D01*
X029991Y013721D01*
X029985Y013727D01*
X029978Y013733D01*
X029972Y013737D01*
X029965Y013741D01*
X029957Y013745D01*
X02995Y013748D01*
X029936Y013751D01*
X02993Y013753D01*
X029924Y013754D01*
X029919Y013755D01*
X029914Y013755D01*
X029911Y013756D01*
D02*
G37*
G36*
X02947D02*
X029465D01*
X029454Y013755D01*
X029443Y013754D01*
X029433Y013752D01*
X029425Y01375D01*
X029419Y013748D01*
X029413Y013745D01*
X02941Y013744D01*
X029409Y013744D01*
X029409D01*
X0294Y013739D01*
X029392Y013733D01*
X029385Y013728D01*
X02938Y013723D01*
X029376Y013718D01*
X029372Y013714D01*
X02937Y013712D01*
X02937Y013711D01*
X029365Y013703D01*
X02936Y013694D01*
X029357Y013685D01*
X029354Y013676D01*
X029351Y013668D01*
X02935Y013662D01*
X029349Y013659D01*
Y013658D01*
X029349Y013657D01*
Y013656D01*
X029415Y013645D01*
X029417Y013654D01*
X029419Y013661D01*
X029421Y013668D01*
X029424Y013673D01*
X029427Y013677D01*
X029429Y013681D01*
X029431Y013682D01*
X029431Y013683D01*
X029436Y013687D01*
X029442Y01369D01*
X029447Y013693D01*
X029452Y013694D01*
X029456Y013695D01*
X02946Y013696D01*
X029463D01*
X029469Y013695D01*
X029476Y013694D01*
X029481Y013692D01*
X029485Y01369D01*
X029489Y013688D01*
X029491Y013686D01*
X029493Y013685D01*
X029493Y013684D01*
X029497Y01368D01*
X0295Y013675D01*
X029502Y01367D01*
X029503Y013665D01*
X029504Y01366D01*
X029505Y013657D01*
Y013655D01*
Y013654D01*
X029504Y013646D01*
X029503Y013638D01*
X0295Y013632D01*
X029497Y013628D01*
X029494Y013623D01*
X029492Y01362D01*
X02949Y013618D01*
X029489Y013618D01*
X029483Y013613D01*
X029475Y01361D01*
X029468Y013608D01*
X029461Y013606D01*
X029454Y013606D01*
X029449Y013605D01*
X029444D01*
X029436Y013547D01*
X029443Y013548D01*
X029449Y01355D01*
X029455Y013551D01*
X02946Y013552D01*
X029464Y013552D01*
X029469D01*
X029477Y013552D01*
X029484Y013549D01*
X02949Y013547D01*
X029495Y013544D01*
X029499Y013541D01*
X029502Y013539D01*
X029504Y013536D01*
X029505Y013536D01*
X02951Y013529D01*
X029514Y013522D01*
X029516Y013515D01*
X029519Y013508D01*
X02952Y013501D01*
X02952Y013497D01*
Y013493D01*
Y013493D01*
Y013492D01*
X02952Y013482D01*
X029518Y013472D01*
X029515Y013464D01*
X029513Y013458D01*
X029509Y013453D01*
X029507Y013449D01*
X029505Y013446D01*
X029504Y013446D01*
X029498Y01344D01*
X029492Y013436D01*
X029486Y013433D01*
X02948Y013431D01*
X029474Y01343D01*
X029471Y013429D01*
X029468Y013429D01*
X029467D01*
X029459Y013429D01*
X029453Y013431D01*
X029446Y013433D01*
X029441Y013436D01*
X029437Y013438D01*
X029434Y01344D01*
X029432Y013442D01*
X029431Y013442D01*
X029426Y013448D01*
X029422Y013455D01*
X029419Y013462D01*
X029416Y013469D01*
X029415Y013475D01*
X029414Y01348D01*
X029413Y013483D01*
Y013483D01*
Y013484D01*
X029343Y013475D01*
X029344Y013466D01*
X029347Y013458D01*
X029351Y013443D01*
X029357Y01343D01*
X029361Y013424D01*
X029365Y013419D01*
X029368Y013414D01*
X029371Y01341D01*
X029374Y013406D01*
X029377Y013404D01*
X029379Y013402D01*
X02938Y0134D01*
X029382Y013399D01*
X029382Y013398D01*
X029389Y013393D01*
X029396Y013388D01*
X029402Y013385D01*
X02941Y013381D01*
X029424Y013376D01*
X029437Y013373D01*
X029444Y013371D01*
X029449Y01337D01*
X029454Y01337D01*
X029458Y013369D01*
X029462Y013369D01*
X029467D01*
X029477Y013369D01*
X029487Y01337D01*
X029496Y013372D01*
X029504Y013374D01*
X029512Y013377D01*
X02952Y01338D01*
X029527Y013383D01*
X029533Y013386D01*
X029538Y01339D01*
X029544Y013393D01*
X029548Y013396D01*
X029551Y013398D01*
X029554Y0134D01*
X029556Y013402D01*
X029557Y013403D01*
X029558Y013404D01*
X029564Y01341D01*
X02957Y013417D01*
X029575Y013424D01*
X029579Y013432D01*
X029582Y013439D01*
X029586Y013446D01*
X02959Y013459D01*
X029591Y013465D01*
X029592Y013471D01*
X029593Y013476D01*
X029594Y013481D01*
X029594Y013484D01*
Y013489D01*
X029593Y013501D01*
X029591Y013512D01*
X029588Y013523D01*
X029585Y013531D01*
X029581Y013538D01*
X029578Y013543D01*
X029576Y013546D01*
X029575Y013547D01*
X029567Y013555D01*
X029558Y013563D01*
X02955Y013568D01*
X029541Y013572D01*
X029534Y013576D01*
X029528Y013577D01*
X029526Y013578D01*
X029525D01*
X029523Y013579D01*
X029523D01*
X029533Y013585D01*
X029541Y013591D01*
X029548Y013598D01*
X029555Y013604D01*
X02956Y013611D01*
X029564Y013617D01*
X029568Y013624D01*
X029571Y01363D01*
X029573Y013636D01*
X029575Y013641D01*
X029576Y013646D01*
X029576Y01365D01*
X029577Y013654D01*
X029578Y013657D01*
Y013658D01*
Y013659D01*
X029577Y013665D01*
X029576Y013671D01*
X029573Y013683D01*
X029569Y013694D01*
X029564Y013703D01*
X02956Y013711D01*
X029555Y013717D01*
X029554Y013719D01*
X029552Y01372D01*
X029551Y013721D01*
X029551Y013721D01*
X029545Y013727D01*
X029538Y013733D01*
X029531Y013737D01*
X029524Y013741D01*
X029516Y013745D01*
X029509Y013748D01*
X029496Y013751D01*
X02949Y013753D01*
X029484Y013754D01*
X029479Y013755D01*
X029474Y013755D01*
X02947Y013756D01*
D02*
G37*
G36*
X031554Y013749D02*
X031362D01*
X031325Y013552D01*
X031383Y013543D01*
X031388Y013548D01*
X031393Y013553D01*
X031398Y013557D01*
X031403Y01356D01*
X031412Y013565D01*
X031421Y013568D01*
X031428Y01357D01*
X031434Y013571D01*
X031436Y013571D01*
X031439D01*
X031448Y013571D01*
X031456Y013569D01*
X031463Y013566D01*
X031469Y013563D01*
X031474Y013559D01*
X031478Y013556D01*
X03148Y013554D01*
X03148Y013553D01*
X031486Y013546D01*
X03149Y013538D01*
X031492Y013529D01*
X031494Y013521D01*
X031496Y013513D01*
X031496Y013507D01*
Y013504D01*
Y013503D01*
Y013501D01*
Y013501D01*
X031496Y013488D01*
X031494Y013476D01*
X031491Y013467D01*
X031489Y013459D01*
X031485Y013453D01*
X031483Y013448D01*
X031481Y013446D01*
X03148Y013445D01*
X031474Y013439D01*
X031468Y013434D01*
X031461Y013431D01*
X031455Y013429D01*
X03145Y013428D01*
X031445Y013427D01*
X031443Y013427D01*
X031442D01*
X031434Y013427D01*
X031427Y013429D01*
X031421Y013431D01*
X031416Y013434D01*
X031412Y013436D01*
X031409Y013439D01*
X031407Y01344D01*
X031406Y013441D01*
X031401Y013447D01*
X031397Y013453D01*
X031394Y013459D01*
X031391Y013465D01*
X03139Y013471D01*
X031389Y013476D01*
X031388Y013478D01*
Y01348D01*
X031316Y013472D01*
X031318Y013463D01*
X031319Y013455D01*
X031325Y01344D01*
X031331Y013427D01*
X031334Y013422D01*
X031338Y013416D01*
X031341Y013412D01*
X031344Y013408D01*
X031347Y013405D01*
X031349Y013402D01*
X031351Y013399D01*
X031353Y013398D01*
X031354Y013397D01*
X031355Y013397D01*
X031361Y013392D01*
X031368Y013387D01*
X031375Y013384D01*
X031382Y013381D01*
X031397Y013375D01*
X03141Y013372D01*
X031416Y013371D01*
X031422Y01337D01*
X031427Y01337D01*
X031432Y013369D01*
X031436Y013369D01*
X03144D01*
X031453Y013369D01*
X031464Y013371D01*
X031474Y013373D01*
X031484Y013376D01*
X031493Y01338D01*
X031502Y013385D01*
X031509Y013389D01*
X031516Y013394D01*
X031522Y013398D01*
X031528Y013403D01*
X031533Y013407D01*
X031537Y013411D01*
X031539Y013414D01*
X031541Y013416D01*
X031543Y013418D01*
X031543Y013418D01*
X031548Y013426D01*
X031552Y013433D01*
X031556Y01344D01*
X031559Y013447D01*
X031564Y013462D01*
X031567Y013475D01*
X031568Y01348D01*
X031569Y013486D01*
X03157Y013491D01*
Y013495D01*
X03157Y013498D01*
Y013503D01*
X03157Y013513D01*
X031569Y013523D01*
X031567Y013532D01*
X031565Y013541D01*
X031563Y013548D01*
X03156Y013556D01*
X031557Y013563D01*
X031554Y013569D01*
X03155Y013575D01*
X031548Y01358D01*
X031544Y013584D01*
X031542Y013587D01*
X03154Y01359D01*
X031538Y013592D01*
X031537Y013593D01*
X031537Y013594D01*
X03153Y0136D01*
X031523Y013605D01*
X031516Y01361D01*
X031509Y013614D01*
X031503Y013618D01*
X031496Y01362D01*
X031483Y013625D01*
X031477Y013626D01*
X031472Y013628D01*
X031467Y013628D01*
X031463Y013629D01*
X03146Y013629D01*
X031455D01*
X031445Y013629D01*
X031436Y013627D01*
X031428Y013625D01*
X03142Y013623D01*
X031414Y01362D01*
X031409Y013619D01*
X031406Y013617D01*
X031406Y013617D01*
X031405D01*
X031416Y013681D01*
X031554D01*
Y013749D01*
D02*
G37*
G36*
X03365Y013756D02*
X033645D01*
X033635Y013755D01*
X033627Y013755D01*
X03361Y013752D01*
X033596Y013748D01*
X033589Y013745D01*
X033583Y013743D01*
X033578Y013741D01*
X033573Y013738D01*
X033569Y013736D01*
X033566Y013734D01*
X033563Y013732D01*
X033561Y013731D01*
X03356Y01373D01*
X03356Y01373D01*
X033554Y013724D01*
X033548Y013719D01*
X033543Y013712D01*
X033539Y013705D01*
X033532Y013691D01*
X033527Y013677D01*
X033525Y01367D01*
X033523Y013664D01*
X033522Y013659D01*
X033521Y013654D01*
X03352Y013649D01*
Y013647D01*
X03352Y013644D01*
Y013644D01*
X033592Y013637D01*
X033593Y013648D01*
X033595Y013657D01*
X033597Y013665D01*
X0336Y013671D01*
X033602Y013676D01*
X033604Y013679D01*
X033606Y013682D01*
X033606Y013682D01*
X033612Y013687D01*
X033618Y01369D01*
X033624Y013693D01*
X03363Y013694D01*
X033635Y013695D01*
X033639Y013696D01*
X033643D01*
X033651Y013695D01*
X033658Y013694D01*
X033664Y013691D01*
X03367Y013689D01*
X033674Y013687D01*
X033677Y013685D01*
X033679Y013683D01*
X033679Y013683D01*
X033683Y013677D01*
X033687Y013671D01*
X033689Y013665D01*
X033691Y013659D01*
X033692Y013654D01*
X033692Y013649D01*
Y013646D01*
Y013646D01*
Y013645D01*
X033692Y013637D01*
X03369Y013629D01*
X033687Y013622D01*
X033685Y013615D01*
X033682Y013609D01*
X033679Y013605D01*
X033677Y013602D01*
X033677Y013601D01*
X033675Y013598D01*
X033671Y013594D01*
X033667Y013589D01*
X033663Y013584D01*
X033653Y013574D01*
X033643Y013564D01*
X033633Y013554D01*
X033629Y013549D01*
X033624Y013546D01*
X033621Y013543D01*
X033619Y013541D01*
X033617Y013539D01*
X033617Y013539D01*
X033606Y013528D01*
X033596Y013518D01*
X033587Y013509D01*
X033579Y013501D01*
X033571Y013493D01*
X033564Y013485D01*
X033558Y013478D01*
X033554Y013472D01*
X033549Y013466D01*
X033545Y013462D01*
X033542Y013458D01*
X03354Y013454D01*
X033538Y013452D01*
X033537Y01345D01*
X033535Y013448D01*
Y013448D01*
X033528Y013435D01*
X033523Y013422D01*
X033519Y01341D01*
X033515Y013399D01*
X033513Y01339D01*
X033513Y013386D01*
X033512Y013382D01*
X033511Y01338D01*
X033511Y013377D01*
Y013376D01*
X033765D01*
Y013443D01*
X033621D01*
X033625Y01345D01*
X03363Y013456D01*
X033632Y013459D01*
X033634Y013461D01*
X033635Y013462D01*
X033635Y013463D01*
X033638Y013465D01*
X03364Y013468D01*
X033646Y013474D01*
X033653Y013481D01*
X033661Y013488D01*
X033668Y013494D01*
X033674Y0135D01*
X033676Y013502D01*
X033677Y013504D01*
X033679Y013504D01*
X033679Y013505D01*
X033691Y013516D01*
X033701Y013525D01*
X033709Y013534D01*
X033716Y013541D01*
X033721Y013546D01*
X033724Y01355D01*
X033726Y013553D01*
X033727Y013553D01*
X033734Y013563D01*
X03374Y013571D01*
X033745Y01358D01*
X033748Y013587D01*
X033752Y013593D01*
X033754Y013598D01*
X033755Y0136D01*
X033756Y013601D01*
X033759Y01361D01*
X033761Y013619D01*
X033763Y013627D01*
X033764Y013635D01*
X033764Y013641D01*
X033765Y013646D01*
Y01365D01*
X033764Y013658D01*
X033763Y013666D01*
X033762Y013674D01*
X03376Y013681D01*
X033754Y013694D01*
X033749Y013705D01*
X033746Y013709D01*
X033743Y013713D01*
X03374Y013717D01*
X033738Y01372D01*
X033735Y013722D01*
X033734Y013724D01*
X033733Y013725D01*
X033733Y013725D01*
X033727Y013731D01*
X033719Y013736D01*
X033713Y013739D01*
X033705Y013743D01*
X033691Y013748D01*
X033677Y013752D01*
X03367Y013753D01*
X033664Y013754D01*
X033659Y013755D01*
X033654Y013755D01*
X03365Y013756D01*
D02*
G37*
G36*
X033412D02*
X033353D01*
X033347Y013743D01*
X03334Y013732D01*
X033332Y013721D01*
X033325Y013712D01*
X033318Y013705D01*
X033312Y0137D01*
X03331Y013697D01*
X033308Y013696D01*
X033307Y013695D01*
X033307Y013695D01*
X033295Y013686D01*
X033283Y013678D01*
X033273Y013672D01*
X033264Y013668D01*
X033256Y013665D01*
X03325Y013662D01*
X033248Y013661D01*
X033247Y013661D01*
X033246Y01366D01*
X033246D01*
Y013595D01*
X033265Y013602D01*
X033283Y013611D01*
X033291Y013615D01*
X033299Y01362D01*
X033306Y013624D01*
X033312Y013629D01*
X033318Y013633D01*
X033324Y013637D01*
X033328Y01364D01*
X033332Y013643D01*
X033335Y013646D01*
X033337Y013648D01*
X033338Y013649D01*
X033339Y013649D01*
Y013376D01*
X033412D01*
Y013756D01*
D02*
G37*
G36*
X032327D02*
X032322D01*
X032312Y013755D01*
X032304Y013755D01*
X032287Y013752D01*
X032273Y013748D01*
X032266Y013745D01*
X03226Y013743D01*
X032255Y013741D01*
X03225Y013738D01*
X032246Y013736D01*
X032243Y013734D01*
X03224Y013732D01*
X032238Y013731D01*
X032237Y01373D01*
X032237Y01373D01*
X032231Y013724D01*
X032225Y013719D01*
X03222Y013712D01*
X032216Y013705D01*
X032209Y013691D01*
X032204Y013677D01*
X032202Y01367D01*
X032201Y013664D01*
X032199Y013659D01*
X032198Y013654D01*
X032197Y013649D01*
Y013647D01*
X032197Y013644D01*
Y013644D01*
X032269Y013637D01*
X03227Y013648D01*
X032272Y013657D01*
X032274Y013665D01*
X032277Y013671D01*
X032279Y013676D01*
X032281Y013679D01*
X032283Y013682D01*
X032284Y013682D01*
X032289Y013687D01*
X032295Y01369D01*
X032301Y013693D01*
X032307Y013694D01*
X032312Y013695D01*
X032316Y013696D01*
X03232D01*
X032328Y013695D01*
X032335Y013694D01*
X032341Y013691D01*
X032347Y013689D01*
X032351Y013687D01*
X032354Y013685D01*
X032356Y013683D01*
X032356Y013683D01*
X03236Y013677D01*
X032364Y013671D01*
X032366Y013665D01*
X032368Y013659D01*
X032369Y013654D01*
X032369Y013649D01*
Y013646D01*
Y013646D01*
Y013645D01*
X032369Y013637D01*
X032367Y013629D01*
X032364Y013622D01*
X032362Y013615D01*
X032359Y013609D01*
X032356Y013605D01*
X032354Y013602D01*
X032354Y013601D01*
X032352Y013598D01*
X032348Y013594D01*
X032344Y013589D01*
X03234Y013584D01*
X03233Y013574D01*
X03232Y013564D01*
X03231Y013554D01*
X032306Y013549D01*
X032302Y013546D01*
X032298Y013543D01*
X032296Y013541D01*
X032294Y013539D01*
X032294Y013539D01*
X032283Y013528D01*
X032273Y013518D01*
X032264Y013509D01*
X032256Y013501D01*
X032248Y013493D01*
X032241Y013485D01*
X032235Y013478D01*
X032231Y013472D01*
X032226Y013466D01*
X032222Y013462D01*
X032219Y013458D01*
X032217Y013454D01*
X032215Y013452D01*
X032214Y01345D01*
X032213Y013448D01*
Y013448D01*
X032205Y013435D01*
X0322Y013422D01*
X032196Y01341D01*
X032192Y013399D01*
X03219Y01339D01*
X03219Y013386D01*
X032189Y013382D01*
X032188Y01338D01*
X032188Y013377D01*
Y013376D01*
X032442D01*
Y013443D01*
X032298D01*
X032302Y01345D01*
X032307Y013456D01*
X032309Y013459D01*
X032311Y013461D01*
X032312Y013462D01*
X032312Y013463D01*
X032315Y013465D01*
X032317Y013468D01*
X032323Y013474D01*
X03233Y013481D01*
X032338Y013488D01*
X032345Y013494D01*
X032351Y0135D01*
X032353Y013502D01*
X032354Y013504D01*
X032356Y013504D01*
X032356Y013505D01*
X032368Y013516D01*
X032378Y013525D01*
X032386Y013534D01*
X032393Y013541D01*
X032398Y013546D01*
X032401Y01355D01*
X032403Y013553D01*
X032404Y013553D01*
X032411Y013563D01*
X032417Y013571D01*
X032422Y01358D01*
X032425Y013587D01*
X032429Y013593D01*
X032431Y013598D01*
X032432Y0136D01*
X032433Y013601D01*
X032436Y01361D01*
X032438Y013619D01*
X03244Y013627D01*
X032441Y013635D01*
X032441Y013641D01*
X032442Y013646D01*
Y01365D01*
X032441Y013658D01*
X03244Y013666D01*
X032439Y013674D01*
X032437Y013681D01*
X032431Y013694D01*
X032426Y013705D01*
X032423Y013709D01*
X03242Y013713D01*
X032417Y013717D01*
X032415Y01372D01*
X032412Y013722D01*
X032411Y013724D01*
X03241Y013725D01*
X03241Y013725D01*
X032404Y013731D01*
X032397Y013736D01*
X03239Y013739D01*
X032382Y013743D01*
X032368Y013748D01*
X032354Y013752D01*
X032347Y013753D01*
X032341Y013754D01*
X032336Y013755D01*
X032331Y013755D01*
X032327Y013756D01*
D02*
G37*
G36*
X031206D02*
X031147D01*
X031142Y013743D01*
X031135Y013732D01*
X031127Y013721D01*
X031119Y013712D01*
X031113Y013705D01*
X031107Y0137D01*
X031105Y013697D01*
X031103Y013696D01*
X031102Y013695D01*
X031101Y013695D01*
X031089Y013686D01*
X031078Y013678D01*
X031068Y013672D01*
X031058Y013668D01*
X031051Y013665D01*
X031045Y013662D01*
X031043Y013661D01*
X031041Y013661D01*
X031041Y01366D01*
X03104D01*
Y013595D01*
X03106Y013602D01*
X031077Y013611D01*
X031086Y013615D01*
X031093Y01362D01*
X0311Y013624D01*
X031107Y013629D01*
X031113Y013633D01*
X031118Y013637D01*
X031123Y01364D01*
X031127Y013643D01*
X03113Y013646D01*
X031132Y013648D01*
X031133Y013649D01*
X031134Y013649D01*
Y013376D01*
X031206D01*
Y013756D01*
D02*
G37*
G36*
X029728Y013448D02*
X029655D01*
Y013376D01*
X029728D01*
Y013448D01*
D02*
G37*
G36*
X02869Y013754D02*
X02854D01*
Y013376D01*
X028683D01*
X028697Y013376D01*
X028711Y013377D01*
X028723Y013378D01*
X028732Y01338D01*
X028739Y013381D01*
X028745Y013382D01*
X028747Y013383D01*
X028749D01*
X028749Y013384D01*
X02875D01*
X028762Y013388D01*
X028773Y013393D01*
X028781Y013398D01*
X028789Y013403D01*
X028795Y013407D01*
X028799Y01341D01*
X028802Y013412D01*
X028803Y013414D01*
X028813Y013424D01*
X028821Y013435D01*
X028828Y013446D01*
X028833Y013457D01*
X028838Y013466D01*
X02884Y01347D01*
X028841Y013474D01*
X028842Y013477D01*
X028843Y013479D01*
X028844Y01348D01*
Y013481D01*
X028848Y013494D01*
X028851Y013507D01*
X028853Y013521D01*
X028854Y013533D01*
X028855Y013539D01*
X028855Y013545D01*
Y013549D01*
X028856Y013553D01*
Y013561D01*
X028855Y01358D01*
X028854Y013597D01*
X028853Y013605D01*
X028852Y013612D01*
X028851Y013619D01*
X02885Y013625D01*
X028848Y013631D01*
X028847Y013636D01*
X028846Y01364D01*
X028845Y013643D01*
X028844Y013646D01*
X028844Y013648D01*
X028843Y013649D01*
Y01365D01*
X028838Y013663D01*
X028832Y013675D01*
X028826Y013685D01*
X02882Y013694D01*
X028815Y013701D01*
X028811Y013707D01*
X028808Y01371D01*
X028808Y013711D01*
X028807D01*
X028798Y01372D01*
X028789Y013727D01*
X028779Y013733D01*
X02877Y013738D01*
X028762Y013742D01*
X028756Y013744D01*
X028754Y013745D01*
X028752Y013745D01*
X028751Y013746D01*
X02875D01*
X02874Y013749D01*
X028728Y01375D01*
X028716Y013752D01*
X028705Y013753D01*
X028695Y013753D01*
X02869Y013754D01*
D02*
G37*
G36*
X033012Y01376D02*
X032955D01*
Y013264D01*
X033012D01*
Y01376D01*
D02*
G37*
G36*
X031836D02*
X031779D01*
Y013264D01*
X031836D01*
Y01376D01*
D02*
G37*
G36*
X03066D02*
X030603D01*
Y013264D01*
X03066D01*
Y01376D01*
D02*
G37*
G36*
X029132D02*
X029075D01*
Y013264D01*
X029132D01*
Y01376D01*
D02*
G37*
%LPD*%
G36*
X028331Y014139D02*
X028338Y014137D01*
X028344Y014134D01*
X028349Y014131D01*
X028354Y014128D01*
X028356Y014125D01*
X028359Y014123D01*
X028359Y014122D01*
X028364Y014115D01*
X028368Y014107D01*
X02837Y014097D01*
X028372Y014089D01*
X028373Y01408D01*
X028374Y014074D01*
Y014072D01*
Y014069D01*
Y014068D01*
Y014068D01*
X028373Y014055D01*
X028372Y014044D01*
X02837Y014036D01*
X028367Y014029D01*
X028365Y014023D01*
X028362Y014019D01*
X028361Y014017D01*
X02836Y014016D01*
X028355Y014011D01*
X028349Y014007D01*
X028343Y014005D01*
X028338Y014003D01*
X028333Y014002D01*
X02833Y014001D01*
X028326D01*
X028319Y014002D01*
X028312Y014004D01*
X028306Y014007D01*
X0283Y014011D01*
X028296Y014014D01*
X028292Y014017D01*
X02829Y014019D01*
X028289Y01402D01*
X028284Y014027D01*
X02828Y014036D01*
X028277Y014045D01*
X028276Y014054D01*
X028275Y014062D01*
X028273Y014068D01*
Y014071D01*
Y014073D01*
Y014074D01*
Y014074D01*
X028274Y014086D01*
X028276Y014096D01*
X028278Y014104D01*
X028281Y014111D01*
X028283Y014116D01*
X028285Y01412D01*
X028287Y014122D01*
X028288Y014123D01*
X028293Y014128D01*
X028299Y014133D01*
X028305Y014136D01*
X028311Y014138D01*
X028315Y014139D01*
X02832Y01414D01*
X028323D01*
X028331Y014139D01*
D02*
G37*
G36*
X030098Y014087D02*
X03001D01*
X030098Y014217D01*
Y014087D01*
D02*
G37*
G36*
X028673Y013689D02*
X028679D01*
X028685Y013689D01*
X02869D01*
X028695Y013688D01*
X028698D01*
X028704Y013687D01*
X028709Y013687D01*
X028712Y013686D01*
X028712D01*
X02872Y013684D01*
X028726Y013681D01*
X028732Y013678D01*
X028738Y013675D01*
X028742Y013672D01*
X028745Y01367D01*
X028747Y013669D01*
X028747Y013668D01*
X028752Y013663D01*
X028756Y013657D01*
X02876Y01365D01*
X028763Y013645D01*
X028766Y01364D01*
X028767Y013635D01*
X028768Y013632D01*
X028769Y013632D01*
Y013631D01*
X028772Y013622D01*
X028774Y013611D01*
X028775Y0136D01*
X028776Y013589D01*
X028777Y01358D01*
X028777Y013575D01*
Y013571D01*
Y013569D01*
Y013566D01*
Y013565D01*
Y013564D01*
X028777Y013549D01*
X028776Y013535D01*
X028774Y013523D01*
X028773Y013513D01*
X028772Y013505D01*
X028771Y013502D01*
X02877Y0135D01*
X028769Y013498D01*
Y013496D01*
X028769Y013495D01*
Y013495D01*
X028766Y013486D01*
X028763Y013478D01*
X028759Y013472D01*
X028756Y013468D01*
X028754Y013464D01*
X028751Y013461D01*
X02875Y013459D01*
X028749Y013459D01*
X028744Y013455D01*
X028739Y013452D01*
X028735Y013449D01*
X02873Y013447D01*
X028725Y013445D01*
X028722Y013444D01*
X02872Y013443D01*
X028719D01*
X028713Y013442D01*
X028706Y013441D01*
X028698Y01344D01*
X02869D01*
X028683Y01344D01*
X028616D01*
Y01369D01*
X028666D01*
X028673Y013689D01*
D02*
G37*
%LPC*%
G36*
X011792Y019085D02*
X011461D01*
Y018887D01*
X011266D01*
Y019085D01*
D01*
Y018556D01*
D01*
Y018755D01*
X011461D01*
Y018556D01*
X011266D01*
X011597D01*
Y018755D01*
X011792D01*
Y018887D01*
X011597D01*
Y019085D01*
X011792D01*
D02*
G37*
G36*
X011504Y018158D02*
X011358D01*
Y017873D01*
X011504D01*
Y018158D01*
D02*
G37*
G36*
X033729Y037894D02*
Y037811D01*
X034013Y037717D01*
X033729Y03762D01*
Y037536D01*
X034113Y037673D01*
Y037536D01*
X033729D01*
X034113D01*
Y037757D01*
X033729Y037894D01*
D02*
G37*
G36*
X034113Y037299D02*
X033726D01*
Y037239D01*
X033739Y037233D01*
X033751Y037226D01*
X033762Y037218D01*
X033771Y037211D01*
X033778Y037204D01*
X033783Y037198D01*
X033786Y037196D01*
X033787Y037194D01*
X033788Y037193D01*
X033788Y037192D01*
X033797Y03718D01*
X033805Y037168D01*
X033811Y037158D01*
X033816Y037148D01*
X033819Y037141D01*
X033822Y037135D01*
X033822Y037133D01*
X033823Y037131D01*
X033823Y037131D01*
Y03713D01*
X034113D01*
Y037299D01*
D02*
G37*
G36*
Y037051D02*
X034039D01*
Y036977D01*
X034113D01*
Y037051D01*
D02*
G37*
G36*
Y036926D02*
D01*
Y036879D01*
X034035D01*
Y036926D01*
X034113D01*
X033971D01*
D01*
X033727D01*
X033971D01*
Y036879D01*
X033727D01*
Y036816D01*
X033972Y03665D01*
X034035D01*
Y036808D01*
X034113D01*
Y03665D01*
D01*
Y036926D01*
D02*
G37*
%LPD*%
G36*
Y03713D02*
X03389D01*
X033882Y03715D01*
X033874Y037168D01*
X03387Y037176D01*
X033865Y037184D01*
X03386Y037191D01*
X033856Y037198D01*
X033851Y037204D01*
X033847Y037209D01*
X033844Y037214D01*
X033841Y037218D01*
X033838Y037221D01*
X033836Y037223D01*
X033835Y037224D01*
X033835Y037225D01*
X034113D01*
Y03713D01*
D02*
G37*
G36*
X033971Y036718D02*
X033839Y036808D01*
X033971D01*
Y036718D01*
D02*
G37*
%LPC*%
G36*
X0334Y024068D02*
X033016D01*
Y023986D01*
X0333Y023892D01*
X033016Y023794D01*
Y02371D01*
D01*
X0334Y023848D01*
Y02371D01*
D01*
Y023932D01*
X033016Y024068D01*
X0334D01*
D01*
D02*
G37*
G36*
X033407Y023538D02*
X033014D01*
D01*
X033285D01*
X033272Y023537D01*
X033261Y023535D01*
X033251Y023532D01*
X033242Y023528D01*
X033235Y023524D01*
X03323Y023521D01*
X033227Y023519D01*
X033226Y023518D01*
X033217Y02351D01*
X03321Y023501D01*
X033205Y023492D01*
X0332Y023484D01*
X033197Y023477D01*
X033195Y023471D01*
X033194Y023468D01*
Y023467D01*
X033194Y023466D01*
Y023465D01*
X033187Y023475D01*
X033181Y023483D01*
X033175Y023491D01*
X033168Y023497D01*
X033161Y023503D01*
X033155Y023507D01*
X033148Y023511D01*
X033142Y023514D01*
X033136Y023516D01*
X03313Y023518D01*
X033125Y023519D01*
X033121Y02352D01*
X033118Y02352D01*
X033115Y023521D01*
X033113D01*
X033113D01*
X033106Y02352D01*
X0331Y02352D01*
X033088Y023516D01*
X033076Y023512D01*
X033067Y023507D01*
X033059Y023502D01*
X033054Y023498D01*
X033051Y023496D01*
X03305Y023495D01*
X033049Y023494D01*
X033049Y023493D01*
X033043Y023487D01*
X033037Y02348D01*
X033033Y023473D01*
X033029Y023466D01*
X033025Y023458D01*
X033022Y023451D01*
X033018Y023437D01*
X033016Y023431D01*
X033015Y023425D01*
X033015Y02342D01*
X033014Y023415D01*
X033014Y023411D01*
Y023406D01*
X033014Y023395D01*
X033015Y023384D01*
X033018Y023374D01*
X03302Y023366D01*
X033022Y023359D01*
X033024Y023354D01*
X033025Y02335D01*
X033026Y02335D01*
Y023349D01*
X033031Y02334D01*
X033036Y023332D01*
X033042Y023325D01*
X033047Y02332D01*
X033052Y023315D01*
X033056Y023312D01*
X033058Y02331D01*
X033059Y023309D01*
X033068Y023304D01*
X033076Y0233D01*
X033086Y023296D01*
X033095Y023293D01*
X033103Y023291D01*
X033109Y023289D01*
X033112Y023289D01*
X033114D01*
X033115Y023288D01*
X033115D01*
X033126Y023356D01*
X033118Y023357D01*
X03311Y02336D01*
X033103Y023362D01*
X033098Y023365D01*
X033094Y023367D01*
X03309Y02337D01*
X033089Y023371D01*
X033088Y023372D01*
X033084Y023377D01*
X03308Y023382D01*
X033078Y023388D01*
X033076Y023393D01*
X033075Y023397D01*
X033075Y023401D01*
Y023404D01*
X033075Y023411D01*
X033076Y023417D01*
X033079Y023422D01*
X03308Y023427D01*
X033083Y023431D01*
X033085Y023433D01*
X033086Y023435D01*
X033086Y023435D01*
X033091Y023439D01*
X033096Y023442D01*
X033101Y023444D01*
X033106Y023445D01*
X033111Y023446D01*
X033114Y023447D01*
X033116D01*
X033118D01*
X033126Y023446D01*
X033133Y023445D01*
X033139Y023442D01*
X033144Y023439D01*
X033149Y023436D01*
X033151Y023433D01*
X033154Y023431D01*
X033154Y023431D01*
X033159Y023424D01*
X033162Y023417D01*
X033164Y023409D01*
X033166Y023402D01*
X033166Y023395D01*
X033167Y02339D01*
Y023385D01*
X033226Y023377D01*
X033225Y023384D01*
X033223Y02339D01*
X033222Y023396D01*
X033221Y023401D01*
X033221Y023405D01*
Y023411D01*
X033221Y023419D01*
X033224Y023425D01*
X033226Y023431D01*
X033229Y023437D01*
X033232Y023441D01*
X033235Y023444D01*
X033237Y023446D01*
X033237Y023447D01*
X033244Y023452D01*
X033251Y023456D01*
X033258Y023458D01*
X033266Y023461D01*
X033272Y023462D01*
X033277Y023462D01*
X033281D01*
X033281D01*
X033282D01*
X033292Y023462D01*
X033302Y02346D01*
X03331Y023457D01*
X033317Y023455D01*
X033322Y023451D01*
X033326Y023449D01*
X033328Y023447D01*
X033329Y023446D01*
X033335Y02344D01*
X033339Y023433D01*
X033342Y023427D01*
X033344Y023421D01*
X033345Y023416D01*
X033346Y023412D01*
X033346Y023409D01*
Y023408D01*
X033346Y0234D01*
X033344Y023394D01*
X033342Y023387D01*
X033339Y023382D01*
X033337Y023378D01*
X033335Y023375D01*
X033333Y023372D01*
X033332Y023372D01*
X033326Y023367D01*
X03332Y023362D01*
X033312Y02336D01*
X033306Y023357D01*
X0333Y023355D01*
X033295Y023354D01*
X033291Y023354D01*
X033291D01*
X03329D01*
X033299Y023283D01*
D01*
X033308Y023284D01*
X033316Y023286D01*
X033332Y023291D01*
X033345Y023297D01*
X033351Y023301D01*
X033356Y023304D01*
X033361Y023308D01*
X033365Y023311D01*
X033369Y023314D01*
X033372Y023316D01*
X033374Y023319D01*
X033376Y02332D01*
X033377Y023321D01*
X033377Y023322D01*
X033382Y023329D01*
X033387Y023336D01*
X033391Y023342D01*
X033394Y02335D01*
X0334Y023365D01*
X033403Y023378D01*
X033404Y023385D01*
X033406Y02339D01*
X033406Y023395D01*
X033407Y0234D01*
X033407Y023404D01*
Y023301D01*
Y023538D01*
D02*
G37*
G36*
X0334Y023225D02*
X033326D01*
Y023152D01*
X0334D01*
Y023225D01*
D02*
G37*
G36*
X033407Y02309D02*
Y022961D01*
X033407Y022971D01*
X033406Y022981D01*
X033404Y022989D01*
X033402Y022998D01*
X033399Y023006D01*
X033396Y023014D01*
X033393Y023021D01*
X033389Y023027D01*
X033386Y023033D01*
X033383Y023038D01*
X03338Y023042D01*
X033377Y023046D01*
X033375Y023049D01*
X033373Y023051D01*
X033372Y023052D01*
X033372Y023053D01*
X033365Y023059D01*
X033358Y023065D01*
X033351Y02307D01*
X033343Y023074D01*
X033336Y023078D01*
X033328Y023081D01*
X033315Y023086D01*
X033309Y023087D01*
X033303Y023088D01*
X033298Y023089D01*
X033293Y023089D01*
X03329Y02309D01*
X033407D01*
X033014D01*
X033285D01*
X033272Y023089D01*
X033261Y023087D01*
X033251Y023084D01*
X033242Y02308D01*
X033235Y023076D01*
X03323Y023073D01*
X033227Y023071D01*
X033226Y02307D01*
X033217Y023062D01*
X03321Y023053D01*
X033205Y023044D01*
X0332Y023036D01*
X033197Y023029D01*
X033195Y023023D01*
X033194Y023021D01*
Y023019D01*
X033194Y023018D01*
Y023017D01*
X033187Y023027D01*
X033181Y023036D01*
X033175Y023043D01*
X033168Y023049D01*
X033161Y023055D01*
X033155Y023059D01*
X033148Y023063D01*
X033142Y023066D01*
X033136Y023068D01*
X03313Y02307D01*
X033125Y023071D01*
X033121Y023072D01*
X033118Y023072D01*
X033115Y023073D01*
X033113D01*
X033113D01*
X033106Y023072D01*
X0331Y023072D01*
X033088Y023068D01*
X033076Y023064D01*
X033067Y023059D01*
X033059Y023054D01*
X033054Y02305D01*
X033051Y023048D01*
X03305Y023047D01*
X033049Y023046D01*
X033049Y023046D01*
X033043Y023039D01*
X033037Y023032D01*
X033033Y023026D01*
X033029Y023018D01*
X033025Y023011D01*
X033022Y023003D01*
X033018Y022989D01*
X033016Y022983D01*
X033015Y022977D01*
X033015Y022972D01*
X033014Y022967D01*
X033014Y022963D01*
Y022958D01*
X033014Y022947D01*
X033015Y022936D01*
X033018Y022926D01*
X03302Y022918D01*
X033022Y022911D01*
X033024Y022906D01*
X033025Y022902D01*
X033026Y022902D01*
Y022901D01*
X033031Y022892D01*
X033036Y022884D01*
X033042Y022877D01*
X033047Y022872D01*
X033052Y022867D01*
X033056Y022864D01*
X033058Y022862D01*
X033059Y022861D01*
X033068Y022856D01*
X033076Y022852D01*
X033086Y022849D01*
X033095Y022845D01*
X033103Y022843D01*
X033109Y022841D01*
X033112Y022841D01*
X033114D01*
X033115Y02284D01*
X033115D01*
X033126Y022908D01*
X033118Y02291D01*
X03311Y022912D01*
X033103Y022914D01*
X033098Y022917D01*
X033094Y02292D01*
X03309Y022922D01*
X033089Y022923D01*
X033088Y022924D01*
X033084Y022929D01*
X03308Y022935D01*
X033078Y02294D01*
X033076Y022945D01*
X033075Y02295D01*
X033075Y022953D01*
Y022956D01*
X033075Y022963D01*
X033076Y02297D01*
X033079Y022975D01*
X03308Y022979D01*
X033083Y022983D01*
X033085Y022985D01*
X033086Y022987D01*
X033086Y022987D01*
X033091Y022991D01*
X033096Y022994D01*
X033101Y022996D01*
X033106Y022997D01*
X033111Y022998D01*
X033114Y022999D01*
X033116D01*
X033118D01*
X033126Y022998D01*
X033133Y022997D01*
X033139Y022994D01*
X033144Y022991D01*
X033149Y022988D01*
X033151Y022986D01*
X033154Y022983D01*
X033154Y022983D01*
X033159Y022976D01*
X033162Y022969D01*
X033164Y022961D01*
X033166Y022954D01*
X033166Y022947D01*
X033167Y022942D01*
Y022937D01*
X033226Y022929D01*
X033225Y022936D01*
X033223Y022942D01*
X033222Y022948D01*
X033221Y022953D01*
X033221Y022957D01*
Y022963D01*
X033221Y022971D01*
X033224Y022977D01*
X033226Y022983D01*
X033229Y022989D01*
X033232Y022993D01*
X033235Y022996D01*
X033237Y022998D01*
X033237Y022999D01*
X033244Y023004D01*
X033251Y023008D01*
X033258Y023011D01*
X033266Y023013D01*
X033272Y023014D01*
X033277Y023014D01*
X033281D01*
X033281D01*
X033282D01*
X033292Y023014D01*
X033302Y023012D01*
X03331Y023009D01*
X033317Y023007D01*
X033322Y023003D01*
X033326Y023001D01*
X033328Y022999D01*
X033329Y022998D01*
X033335Y022992D01*
X033339Y022986D01*
X033342Y02298D01*
X033344Y022973D01*
X033345Y022968D01*
X033346Y022964D01*
X033346Y022961D01*
Y02296D01*
X033346Y022952D01*
X033344Y022946D01*
X033342Y02294D01*
X033339Y022934D01*
X033337Y02293D01*
X033335Y022927D01*
X033333Y022925D01*
X033332Y022924D01*
X033326Y022919D01*
X03332Y022915D01*
X033312Y022912D01*
X033306Y022909D01*
X0333Y022907D01*
X033295Y022906D01*
X033291Y022906D01*
X033291D01*
X03329D01*
X033299Y022835D01*
D01*
X033308Y022836D01*
X033316Y022838D01*
X033332Y022843D01*
X033345Y022849D01*
X033351Y022853D01*
X033356Y022856D01*
X033361Y02286D01*
X033365Y022863D01*
X033369Y022866D01*
X033372Y022869D01*
X033374Y022871D01*
X033376Y022872D01*
X033377Y022874D01*
X033377Y022874D01*
X033382Y022881D01*
X033387Y022888D01*
X033391Y022895D01*
X033394Y022902D01*
X0334Y022917D01*
X033403Y02293D01*
X033404Y022937D01*
X033406Y022942D01*
X033406Y022947D01*
X033407Y022952D01*
X033407Y022956D01*
Y022835D01*
Y02309D01*
D02*
G37*
%LPD*%
G36*
Y023409D02*
X033407Y023419D01*
X033406Y023429D01*
X033404Y023437D01*
X033402Y023446D01*
X033399Y023454D01*
X033396Y023462D01*
X033393Y023469D01*
X033389Y023475D01*
X033386Y023481D01*
X033383Y023486D01*
X03338Y02349D01*
X033377Y023494D01*
X033375Y023497D01*
X033373Y023499D01*
X033372Y0235D01*
X033372Y023501D01*
X033365Y023507D01*
X033358Y023513D01*
X033351Y023518D01*
X033343Y023522D01*
X033336Y023526D01*
X033328Y023529D01*
X033315Y023533D01*
X033309Y023535D01*
X033303Y023536D01*
X033298Y023537D01*
X033293Y023537D01*
X03329Y023538D01*
X033407D01*
Y023409D01*
D02*
G37*
D10*
X030649Y034463D02*
G03*
X030649Y034463I-000049J0D01*
G01*
X015121Y026989D02*
G03*
X015121Y026989I-000049J0D01*
G01*
X030353Y020923D02*
G03*
X030353Y020923I-000049J0D01*
G01*
X011489Y032604D02*
G03*
X011489Y032604I-000049J0D01*
G01*
D11*
X013291Y0186D02*
G03*
X013291Y0186I-000591J0D01*
G01*
X01839Y0274D02*
X01901D01*
X01839Y028D02*
X01901D01*
X016917Y023699D02*
Y024039D01*
X016417Y023699D02*
Y024039D01*
X015886Y0248D02*
X016226D01*
X015886Y0253D02*
X016226D01*
X03175Y023436D02*
Y023776D01*
X03225D02*
X03225Y023436D01*
X027155Y020638D02*
X027495D01*
X027155Y021138D02*
X027495D01*
X02085Y019764D02*
X02085Y020104D01*
X02135Y019764D02*
X02135Y020104D01*
X021866Y019774D02*
Y020114D01*
X022366Y019774D02*
Y020114D01*
X01308Y047173D02*
Y047273D01*
X01318Y047373D01*
X01128Y047273D02*
X01138Y047173D01*
X01128Y048823D02*
Y048873D01*
Y049223D02*
Y049273D01*
Y049623D02*
Y049706D01*
X01318Y049323D02*
Y049373D01*
Y048923D02*
Y048973D01*
X01318Y047723D02*
X01318Y047773D01*
X01128Y047623D02*
Y047673D01*
Y048073D02*
X01128Y048023D01*
X01128Y048423D02*
X01128Y048473D01*
X01318Y048523D02*
Y048573D01*
X01318Y048173D02*
X01318Y048123D01*
X01108Y047373D02*
X01128Y047273D01*
X01108Y047373D02*
X01338Y047473D01*
X01318Y047723D02*
X01338Y047623D01*
X01108Y047523D02*
X01338Y047623D01*
X01108Y047373D02*
Y047523D01*
X01128Y047623D01*
X01338Y047473D02*
Y047623D01*
X01318Y047373D02*
X01338Y047473D01*
X01108Y047773D02*
X01128Y047673D01*
X01108Y047773D02*
X01338Y047873D01*
X01318Y048123D02*
X01338Y048023D01*
X01108Y047923D02*
X01338Y048023D01*
X01108Y047773D02*
Y047923D01*
X01128Y048023D01*
X01338Y047873D02*
Y048023D01*
X01318Y047773D02*
X01338Y047873D01*
X01353Y046623D02*
X01383Y046323D01*
X01318Y046623D02*
X01353D01*
X01378Y046373D02*
X01383Y046323D01*
Y043823D02*
Y046323D01*
X01348Y043473D02*
X01353Y043523D01*
X01098Y043473D02*
X01348D01*
X01063Y043823D02*
X01068Y043773D01*
X01063Y043823D02*
Y044323D01*
X01353Y043523D02*
X01383Y043823D01*
X01068Y043773D02*
X01098Y043473D01*
X01063Y044273D02*
Y046323D01*
X01093Y046623D01*
X01128D01*
X01138Y047023D02*
X01308D01*
X012813Y050073D02*
X01318Y049706D01*
X01308Y047073D02*
Y047173D01*
Y047023D02*
Y047073D01*
Y047023D02*
X01318Y046923D01*
Y046473D02*
Y046923D01*
X013163Y046489D02*
X01318Y046473D01*
X01128Y049706D02*
X011697Y050073D01*
X01138Y047073D02*
Y047173D01*
Y047023D02*
Y047073D01*
X01128Y046923D02*
X01138Y047023D01*
X01128Y046473D02*
Y046923D01*
Y046473D02*
X011297Y046489D01*
X011697Y050073D02*
X012813D01*
X01108Y048173D02*
X01128Y048073D01*
X01108Y048173D02*
X01338Y048273D01*
X01318Y048523D02*
X01338Y048423D01*
X01108Y048323D02*
X01338Y048423D01*
X01108Y048173D02*
Y048323D01*
X01128Y048423D01*
X01338Y048273D02*
Y048423D01*
X01318Y048173D02*
X01338Y048273D01*
X01108Y048573D02*
X01128Y048473D01*
X01108Y048573D02*
X01338Y048673D01*
X01318Y048923D02*
X01338Y048823D01*
X01108Y048723D02*
X01338Y048823D01*
X01108Y048573D02*
Y048723D01*
X01128Y048823D01*
X01338Y048673D02*
Y048823D01*
X01318Y048573D02*
X01338Y048673D01*
X01108Y048973D02*
X01128Y048873D01*
X01108Y048973D02*
X01338Y049073D01*
X01318Y049323D02*
X01338Y049223D01*
X01108Y049123D02*
X01338Y049223D01*
X01108Y048973D02*
Y049123D01*
X01128Y049223D01*
X01338Y049073D02*
Y049223D01*
X01318Y048973D02*
X01338Y049073D01*
X01108Y049373D02*
X01128Y049273D01*
X01108Y049373D02*
X01338Y049473D01*
X01318Y049723D02*
X01338Y049623D01*
X01108Y049523D02*
X01338Y049623D01*
X01108Y049373D02*
Y049523D01*
X01128Y049623D01*
X01338Y049473D02*
Y049623D01*
X01318Y049373D02*
X01338Y049473D01*
X0122Y0188D02*
X0132D01*
X0122D02*
X0127Y0184D01*
X0122D02*
X0127D01*
X0132Y0188D01*
X0127Y0184D02*
X0132D01*
X023046Y039166D02*
X023386D01*
X023046Y039666D02*
X023386D01*
X0178Y038474D02*
Y038814D01*
X0183D02*
X0183Y038474D01*
X01255Y04195D02*
X01317D01*
X01255Y04255D02*
X01317D01*
X01265Y03918D02*
X01327Y03918D01*
X01265Y03978D02*
X01327Y03978D01*
X0159Y0274D02*
X01652D01*
X0159Y028D02*
X01652D01*
X01585Y0283D02*
X01647D01*
X01585Y0289D02*
X01647D01*
X015632Y039442D02*
X015972D01*
X015632Y038942D02*
X015972D01*
X02408Y020104D02*
X02442D01*
X02408Y020604D02*
X02442D01*
X0266Y01723D02*
Y01757D01*
X0271Y01723D02*
Y01757D01*
X0261Y01723D02*
Y01757D01*
X0256Y01723D02*
Y01757D01*
X025958Y01362D02*
X026298Y01362D01*
X025958Y01412D02*
X026298Y01412D01*
X02708Y01195D02*
X02742D01*
X02708Y01145D02*
X02742D01*
X0257Y01198D02*
Y01232D01*
X0262Y01198D02*
Y01232D01*
X02585Y00908D02*
Y00942D01*
X02635D02*
X02635Y00908D01*
X013Y02023D02*
Y02057D01*
X0125Y02023D02*
Y02057D01*
X026567Y042537D02*
X027964D01*
X026567Y043758D02*
X026567Y045096D01*
Y042537D02*
Y042774D01*
X027964Y042537D02*
X029362D01*
X02722Y04756D02*
X02872Y04756D01*
X029362Y043758D02*
Y045096D01*
X029362Y042537D02*
X029362Y042774D01*
X02872Y045096D02*
Y04756D01*
X026567Y045096D02*
X029362Y045096D01*
X02722Y045096D02*
Y04756D01*
X0354Y0099D02*
X0354Y0063D01*
X0271Y0099D02*
X0354Y0099D01*
X0271Y0063D02*
Y0099D01*
Y0063D02*
X0354Y0063D01*
X03205Y03668D02*
Y03702D01*
X03155Y03668D02*
Y03702D01*
X03245Y03668D02*
Y03702D01*
X03295Y03668D02*
Y03702D01*
X01678Y0165D02*
X01712D01*
X01678Y016D02*
X01712D01*
X01528Y02015D02*
X01562Y02015D01*
X01528Y02065D02*
X01562Y02065D01*
X01683Y01404D02*
X01717D01*
X01683Y01354D02*
X01717D01*
X0316Y03498D02*
Y03532D01*
X0321Y03498D02*
Y03532D01*
X03333Y03525D02*
X03367D01*
X03333Y03575D02*
X03367D01*
D12*
X028244Y0194D02*
G03*
X028244Y0194I-000984J0D01*
G01*
X033378Y0406D02*
G03*
X033378Y0406I-000984J0D01*
G01*
X025884Y02715D02*
G03*
X025884Y02715I-000984J0D01*
G01*
X033941Y0301D02*
G03*
X033941Y0301I-000984J0D01*
G01*
X029032Y034522D02*
X029237Y034727D01*
X029107Y034447D02*
X029237Y034727D01*
X029032Y034522D02*
X029107Y034447D01*
X028957Y034597D02*
X029237Y034727D01*
X028957Y034597D02*
X029032Y034522D01*
X01771Y02808D02*
X01969D01*
X01771Y02731D02*
X01771Y02808D01*
X01771Y02731D02*
X01969D01*
Y02808D01*
X016327Y023169D02*
Y024569D01*
Y023169D02*
X016997D01*
Y024569D01*
X016327D02*
X016997D01*
X015356Y02539D02*
X016756D01*
X015356Y02472D02*
Y02539D01*
Y02472D02*
X016756D01*
Y02539D01*
X03166Y024306D02*
X03233Y024306D01*
Y022906D02*
Y024306D01*
X03166Y022906D02*
X03233Y022906D01*
X03166Y022906D02*
Y024306D01*
X026625Y020548D02*
Y021218D01*
X028025D01*
Y020548D02*
Y021218D01*
X026625Y020548D02*
X028025D01*
X02076Y020634D02*
X02143Y020634D01*
X02143Y019234D02*
X02143Y020634D01*
X02076Y019234D02*
X02143Y019234D01*
X02076Y019234D02*
X02076Y020634D01*
X021776Y020644D02*
X022446D01*
Y019244D02*
Y020644D01*
X021776Y019244D02*
X022446D01*
X021776D02*
Y020644D01*
X022516Y039756D02*
X023916D01*
X022516Y039086D02*
Y039756D01*
Y039086D02*
X023916D01*
Y039756D01*
X01771Y039344D02*
X01838Y039344D01*
Y037944D02*
Y039344D01*
X01771Y037944D02*
X01838Y037944D01*
X01771Y037944D02*
Y039344D01*
X01187Y04187D02*
Y04264D01*
X01385Y04264D01*
Y04187D02*
Y04264D01*
X01187Y04187D02*
X01385Y04187D01*
X01197Y0391D02*
Y03987D01*
X01395D01*
X01395Y0391D01*
X01197Y0391D02*
X01395Y0391D01*
X01522Y02732D02*
Y02809D01*
X0172Y02809D01*
Y02732D02*
Y02809D01*
X01522Y02732D02*
X0172Y02732D01*
X01517Y02822D02*
Y02899D01*
X01715Y02899D01*
Y02822D02*
Y02899D01*
X01517Y02822D02*
X01715Y02822D01*
X016502Y038862D02*
Y039532D01*
X015102Y038862D02*
X016502D01*
X015102D02*
Y039532D01*
X016502D01*
X02355Y020694D02*
X02495D01*
X02355Y020024D02*
Y020694D01*
Y020024D02*
X02495D01*
Y020694D01*
X02719Y0167D02*
Y0181D01*
X02652D02*
X02719D01*
X02652Y0167D02*
Y0181D01*
Y0167D02*
X02719D01*
X02551D02*
Y0181D01*
Y0167D02*
X02618D01*
Y0181D01*
X02551D02*
X02618D01*
X025428Y0142D02*
X025428Y01353D01*
X025428Y0142D02*
X026828Y0142D01*
X026828Y01353D02*
X026828Y0142D01*
X025428Y01353D02*
X026828Y01353D01*
X02795Y01137D02*
Y01204D01*
X02655Y01137D02*
X02795D01*
X02655D02*
Y01204D01*
X02795D01*
X02561Y01285D02*
X02628D01*
Y01145D02*
Y01285D01*
X02561Y01145D02*
X02628D01*
X02561D02*
Y01285D01*
X02576Y00995D02*
X02643Y00995D01*
X02643Y00855D01*
X02576Y00855D02*
X02643Y00855D01*
X02576Y00855D02*
Y00995D01*
X01242Y0197D02*
X01309D01*
X01242D02*
Y0211D01*
X01309D01*
Y0197D02*
Y0211D01*
X03146Y03615D02*
Y03755D01*
Y03615D02*
X03213D01*
Y03755D01*
X03146D02*
X03213D01*
X03304Y03615D02*
Y03755D01*
X03237D02*
X03304D01*
X03237Y03615D02*
Y03755D01*
Y03615D02*
X03304D01*
X01625Y01591D02*
X01765D01*
Y01658D01*
X01625D02*
X01765D01*
X01625Y01591D02*
Y01658D01*
X01475Y02074D02*
X01615Y02074D01*
X01475Y02007D02*
X01475Y02074D01*
X01475Y02007D02*
X01615Y02007D01*
X01615Y02074D02*
X01615Y02007D01*
X0163Y01345D02*
X0177D01*
Y01412D01*
X0163D02*
X0177D01*
X0163Y01345D02*
Y01412D01*
X03151Y03585D02*
X03218D01*
Y03445D02*
Y03585D01*
X03151Y03445D02*
X03218D01*
X03151D02*
Y03585D01*
X0328Y03516D02*
Y03583D01*
X0342D01*
Y03516D02*
Y03583D01*
X0328Y03516D02*
X0342D01*
X028766Y019395D02*
X028372D01*
X028569Y019198D02*
Y019592D01*
X0339Y040595D02*
X033506D01*
X033703Y040398D02*
Y040792D01*
X024895Y025644D02*
Y026038D01*
X024698Y025841D02*
X025092D01*
X03145Y030105D02*
X031844D01*
X031647Y030302D02*
Y029908D01*
D13*
X0262Y0295D02*
G03*
X0262Y0295I-00085J0D01*
G01*
X01551Y040642D02*
Y046092D01*
X024746Y043897D02*
Y047098D01*
X023054D02*
X023054Y043912D01*
X023068Y043897D02*
X024746D01*
X023054Y047098D02*
X024746D01*
X02535Y03068D02*
X02607Y03039D01*
X02461Y03038D02*
X02533Y03067D01*
X02462Y03039D02*
X02607D01*
X02463Y03069D02*
X02608D01*
X029661Y034384D02*
X029643Y034421D01*
X029586Y034477D01*
X02998D01*
D14*
X024404Y01025D02*
G03*
X024404Y01025I-0003J0D01*
G01*
X018759Y00953D02*
X024969D01*
X018759D02*
Y0178D01*
X019584Y0099D02*
X023524D01*
Y01066D01*
X019584Y0099D02*
Y01066D01*
X023524D01*
X019684Y01111D02*
X024014D01*
Y01701D01*
X019684Y01111D02*
Y01701D01*
X024014D01*
X018759Y0178D02*
X024969D01*
Y00953D02*
Y0178D01*
D15*
X025583Y010989D02*
G03*
X025583Y010989I-000059J0D01*
G01*
D16*
X014521Y030615D02*
G03*
X014521Y032387I0J000886D01*
G01*
Y031009D02*
G03*
X014521Y031993I0J000492D01*
G01*
X014009Y036796D02*
G03*
X014128Y036915I0J000118D01*
G01*
X020072D02*
G03*
X020191Y036796I000118J0D01*
G01*
X014128Y029985D02*
G03*
X014009Y030104I-000118J0D01*
G01*
X020191D02*
G03*
X020072Y029985I0J-000118D01*
G01*
X02028Y041333D02*
Y047357D01*
X01551Y046202D02*
X016215Y046907D01*
X02028D01*
X01551Y046072D02*
Y046202D01*
Y040642D02*
X016341D01*
X01551D02*
Y041261D01*
X016541Y041335D02*
X017798D01*
X019184D02*
X020241D01*
X017798D02*
X019184D01*
X016541Y040842D02*
Y041335D01*
X01551Y041261D02*
Y042111D01*
X019941Y047357D02*
X020241D01*
X019391D02*
X019691D01*
X018641D02*
X019041D01*
X017941D02*
X018291D01*
X017191D02*
X017541D01*
X016541D02*
X016891D01*
X016241Y047042D02*
X016541Y047342D01*
X01551Y042111D02*
Y046072D01*
X016341Y040642D02*
X016541Y040842D01*
X030937Y034112D02*
Y038662D01*
X02405D02*
X030937D01*
X02405Y034112D02*
Y038662D01*
Y034112D02*
X030937D01*
X0254Y032733D02*
X0332Y032733D01*
X02535D02*
Y034983D01*
Y037133D01*
X0332D01*
X0332Y032733D02*
X0332Y037133D01*
X02425Y02145D02*
X03205D01*
X0242D02*
Y0237D01*
Y02585D01*
X03205D01*
X03205Y02145D01*
X02535Y03037D02*
Y03068D01*
X01427Y01439D02*
X01472D01*
X01528D02*
X01573D01*
Y01661D01*
X01427Y01439D02*
Y01661D01*
X01475Y015D02*
Y016D01*
X01525D01*
Y015D02*
Y016D01*
X01475Y015D02*
X01525D01*
X01427Y01661D02*
X01472D01*
X01528D02*
X01573D01*
X014521Y031993D02*
Y032387D01*
Y030615D02*
Y031009D01*
X020191Y030104D02*
Y030832D01*
X014009Y030104D02*
Y030832D01*
Y036068D02*
Y036796D01*
X014128Y036915D02*
X015131Y036915D01*
X019068D02*
X020072Y036915D01*
X020191Y036068D02*
Y036796D01*
X014128Y029985D02*
X015131Y029985D01*
X019068D02*
X020072Y029985D01*
X0216Y040256D02*
X0217Y040356D01*
X0219D01*
X022Y040256D01*
Y040156D01*
X0218Y039956D01*
Y039856D02*
Y039756D01*
X014377Y049441D02*
X014277Y049541D01*
X014077D01*
X013977Y049441D01*
Y049341D01*
X014077Y049241D01*
X014277D01*
X014377Y049142D01*
Y049042D01*
X014277Y048942D01*
X014077D01*
X013977Y049042D01*
X014677Y048942D02*
X014877D01*
X014977Y049042D01*
Y049241D01*
X014877Y049341D01*
X014677D01*
X014577Y049241D01*
Y049042D01*
X014677Y048942D01*
X015577Y049341D02*
X015277D01*
X015177Y049241D01*
Y049042D01*
X015277Y048942D01*
X015577D01*
X015777Y049441D02*
X015877Y049541D01*
X016076D01*
X016176Y049441D01*
Y049341D01*
X015977Y049142D01*
Y049042D02*
Y048942D01*
X023105Y01365D02*
X023504D01*
Y01425D01*
X023105D01*
X023504Y01395D02*
X023305D01*
X022505Y01375D02*
X022605Y01365D01*
X022805D01*
X022905Y01375D01*
Y01385D01*
X022805Y01395D01*
X022605D01*
X022505Y01405D01*
Y01415D01*
X022605Y01425D01*
X022805D01*
X022905Y01415D01*
X022305Y01425D02*
Y01365D01*
X022005D01*
X021905Y01375D01*
Y01395D01*
X022005Y01405D01*
X022305D01*
X021705Y01395D02*
X021305D01*
X021105Y01375D02*
X021005Y01365D01*
X020805D01*
X020705Y01375D01*
Y01415D01*
X020805Y01425D01*
X021005D01*
X021105Y01415D01*
Y01375D01*
X020505Y01365D02*
X020106D01*
Y01375D01*
X020505Y01415D01*
Y01425D01*
X02553Y02225D02*
X02543Y02235D01*
X02523D01*
X02513Y02225D01*
Y02185D01*
X02523Y02175D01*
X02543D01*
X02553Y02185D01*
X02573Y02215D02*
X02613Y02175D01*
X02593Y02195D01*
X02613Y02215D01*
X02573Y02175D01*
X02633D02*
X02653D01*
X02643D01*
Y02235D01*
X02633Y02225D01*
X02723Y02175D02*
X02683D01*
X02723Y02215D01*
Y02225D01*
X02713Y02235D01*
X02693D01*
X02683Y02225D01*
X032363Y020668D02*
X032263Y020568D01*
Y020368D01*
X032363Y020268D01*
X032763D01*
X032863Y020368D01*
Y020568D01*
X032763Y020668D01*
X032463Y020868D02*
X032863Y021268D01*
X032663Y021068D01*
X032463Y021268D01*
X032863Y020868D01*
Y021468D02*
Y021668D01*
Y021568D01*
X032263D01*
X032363Y021468D01*
X032863Y021968D02*
Y022168D01*
Y022068D01*
X032263D01*
X032363Y021968D01*
X02755Y0233D02*
X02805D01*
X02815Y0234D01*
Y0236D01*
X02805Y0237D01*
X02755D01*
X02765Y0239D02*
X02755Y024D01*
Y0242D01*
X02765Y0243D01*
X02775D01*
X02785Y0242D01*
Y0241D01*
Y0242D01*
X02795Y0243D01*
X02805D01*
X02815Y0242D01*
Y024D01*
X02805Y0239D01*
X023326Y03662D02*
X023826D01*
X023926Y03672D01*
Y03692D01*
X023826Y03702D01*
X023326D01*
X023926Y03722D02*
Y03742D01*
Y03732D01*
X023326D01*
X023426Y03722D01*
X02465Y04195D02*
Y04255D01*
X02495D01*
X02505Y04245D01*
Y04225D01*
X02495Y04215D01*
X02465D01*
X02485D02*
X02505Y04195D01*
X02555D02*
Y04255D01*
X02525Y04225D01*
X02565D01*
X02465Y04275D02*
Y04335D01*
X02495D01*
X02505Y04325D01*
Y04305D01*
X02495Y04295D01*
X02465D01*
X02485D02*
X02505Y04275D01*
X02525Y04325D02*
X02535Y04335D01*
X02555D01*
X02565Y04325D01*
Y04315D01*
X02555Y04305D01*
X02545D01*
X02555D01*
X02565Y04295D01*
Y04285D01*
X02555Y04275D01*
X02535D01*
X02525Y04285D01*
X014Y0253D02*
X0139Y0254D01*
X0137D01*
X0136Y0253D01*
Y0249D01*
X0137Y0248D01*
X0139D01*
X014Y0249D01*
X0142Y0248D02*
X0144D01*
X0143D01*
Y0254D01*
X0142Y0253D01*
X0147D02*
X0148Y0254D01*
X015D01*
X0151Y0253D01*
Y0249D01*
X015Y0248D01*
X0148D01*
X0147Y0249D01*
Y0253D01*
X01725Y023835D02*
X01715Y023735D01*
Y023535D01*
X01725Y023435D01*
X01765D01*
X01775Y023535D01*
Y023735D01*
X01765Y023835D01*
X01715Y024035D02*
Y024435D01*
X01725D01*
X01765Y024035D01*
X01775D01*
X011844Y036434D02*
X011744Y036534D01*
X011544D01*
X011444Y036434D01*
Y036035D01*
X011544Y035935D01*
X011744D01*
X011844Y036035D01*
X012044Y035935D02*
X012244D01*
X012144D01*
Y036534D01*
X012044Y036434D01*
X012543D02*
X012643Y036534D01*
X012843D01*
X012943Y036434D01*
Y036334D01*
X012843Y036235D01*
X012743D01*
X012843D01*
X012943Y036135D01*
Y036035D01*
X012843Y035935D01*
X012643D01*
X012543Y036035D01*
X0188Y0264D02*
X0187Y0265D01*
X0185D01*
X0184Y0264D01*
Y026D01*
X0185Y0259D01*
X0187D01*
X0188Y026D01*
X0194Y0265D02*
X0192Y0264D01*
X019Y0262D01*
Y026D01*
X0191Y0259D01*
X0193D01*
X0194Y026D01*
Y0261D01*
X0193Y0262D01*
X019D01*
X01071Y050894D02*
X01061Y050993D01*
X01041D01*
X01031Y050894D01*
Y050494D01*
X01041Y050394D01*
X01061D01*
X01071Y050494D01*
X01091Y050394D02*
X01111D01*
X01101D01*
Y050993D01*
X01091Y050894D01*
X01181Y050394D02*
X01141D01*
X01181Y050794D01*
Y050894D01*
X01171Y050993D01*
X01151D01*
X01141Y050894D01*
X01818Y040164D02*
X01808Y040264D01*
X01788D01*
X01778Y040164D01*
Y039764D01*
X01788Y039664D01*
X01808D01*
X01818Y039764D01*
X01838Y039664D02*
X01858D01*
X01848D01*
Y040264D01*
X01838Y040164D01*
X01888Y039664D02*
X01908D01*
X01898D01*
Y040264D01*
X01888Y040164D01*
X01125Y041034D02*
X01165D01*
Y040934D01*
X01125Y040534D01*
Y040434D01*
X022196Y039685D02*
X021996Y039585D01*
X021796Y039385D01*
Y039185D01*
X021896Y039085D01*
X022096D01*
X022196Y039185D01*
Y039285D01*
X022096Y039385D01*
X021796D01*
X02025Y027988D02*
X01985D01*
Y027688D01*
X02005Y027788D01*
X02015D01*
X02025Y027688D01*
Y027488D01*
X02015Y027388D01*
X01995D01*
X01985Y027488D01*
X01905Y025294D02*
X01885D01*
X01895D01*
Y024794D01*
X01885Y024694D01*
X01875D01*
X01865Y024794D01*
X01925Y024694D02*
X01945D01*
X01935D01*
Y025294D01*
X01925Y025194D01*
X02465Y03375D02*
X02525D01*
Y03405D01*
X02515Y03415D01*
X02475D01*
X02465Y03405D01*
Y03375D01*
X02475Y03475D02*
X02465Y03465D01*
Y03445D01*
X02475Y03435D01*
X02515D01*
X02525Y03445D01*
Y03465D01*
X02515Y03475D01*
X02525Y035349D02*
Y03495D01*
X02485Y035349D01*
X02475D01*
X02465Y03525D01*
Y03505D01*
X02475Y03495D01*
X02545Y01445D02*
X02565D01*
X02555D01*
Y01505D01*
X02545Y01495D01*
X02595D02*
X02605Y01505D01*
X02625D01*
X02635Y01495D01*
Y01455D01*
X02625Y01445D01*
X02605D01*
X02595Y01455D01*
Y01495D01*
X02655Y01445D02*
Y01505D01*
Y01465D02*
X02685Y01485D01*
X02655Y01465D02*
X02685Y01445D01*
X0273Y0086D02*
Y0088D01*
Y0087D01*
X0267D01*
X0268Y0086D01*
Y0091D02*
X0267Y0092D01*
Y0094D01*
X0268Y0095D01*
X0272D01*
X0273Y0094D01*
Y0092D01*
X0272Y0091D01*
X0268D01*
X0273Y0097D02*
X0267D01*
X0271D02*
X0269Y01D01*
X0271Y0097D02*
X0273Y01D01*
X030325Y0131D02*
Y0125D01*
Y0128D01*
X030725D01*
Y0131D01*
Y0125D01*
X030925Y0131D02*
Y0125D01*
X031225D01*
X031325Y0126D01*
Y013D01*
X031225Y0131D01*
X030925D01*
X031525Y0125D02*
X031725D01*
X031625D01*
Y0131D01*
X031525Y013D01*
X012Y0202D02*
Y0204D01*
Y0203D01*
X0114D01*
X0115Y0202D01*
X0114Y0207D02*
X012D01*
X0118D01*
X0114Y0211D01*
X0117Y0208D01*
X012Y0211D01*
X0234Y020802D02*
X0236D01*
X0235D01*
Y021402D01*
X0234Y021302D01*
X0239D02*
X024Y021402D01*
X0242D01*
X0243Y021302D01*
Y020902D01*
X0242Y020802D01*
X024D01*
X0239Y020902D01*
Y021302D01*
X0245Y021202D02*
Y020902D01*
X0246Y020802D01*
X0249D01*
Y021202D01*
X025499Y021402D02*
X025099D01*
Y021102D01*
X025299D01*
X025099D01*
Y020802D01*
X02645Y01065D02*
X02665D01*
X02655D01*
Y01125D01*
X02645Y01115D01*
X02695D02*
X02705Y01125D01*
X02725D01*
X02735Y01115D01*
Y01075D01*
X02725Y01065D01*
X02705D01*
X02695Y01075D01*
Y01115D01*
X02755D02*
X02765Y01125D01*
X02785D01*
X02795Y01115D01*
Y01075D01*
X02785Y01065D01*
X02765D01*
X02755Y01075D01*
Y01115D01*
X028149Y01065D02*
Y01105D01*
X028449D01*
X028549Y01095D01*
Y01065D01*
X029149Y01125D02*
X028749D01*
Y01095D01*
X028949D01*
X028749D01*
Y01065D01*
X024025Y028381D02*
X023626D01*
X024025Y028781D01*
Y028881D01*
X023926Y028981D01*
X023726D01*
X023626Y028881D01*
X024625Y028381D02*
X024225D01*
X024625Y028781D01*
Y028881D01*
X024525Y028981D01*
X024325D01*
X024225Y028881D01*
X024825D02*
X024925Y028981D01*
X025125D01*
X025225Y028881D01*
Y028481D01*
X025125Y028381D01*
X024925D01*
X024825Y028481D01*
Y028881D01*
X025425D02*
X025525Y028981D01*
X025725D01*
X025825Y028881D01*
Y028481D01*
X025725Y028381D01*
X025525D01*
X025425Y028481D01*
Y028881D01*
X026025Y028781D02*
Y028481D01*
X026125Y028381D01*
X026425D01*
Y028781D01*
X027025Y028981D02*
X026625D01*
Y028681D01*
X026825D01*
X026625D01*
Y028381D01*
X0153Y02165D02*
X0149D01*
Y02135D01*
X0151Y02145D01*
X0152D01*
X0153Y02135D01*
Y02115D01*
X0152Y02105D01*
X015D01*
X0149Y02115D01*
X0155Y02165D02*
Y02105D01*
Y02125D01*
X0159Y02165D01*
X0156Y02135D01*
X0159Y02105D01*
X016499Y02165D02*
X0163Y02155D01*
X0161Y02135D01*
Y02115D01*
X0162Y02105D01*
X0164D01*
X016499Y02115D01*
Y02125D01*
X0164Y02135D01*
X0161D01*
X022566Y020844D02*
Y021044D01*
Y020944D01*
X021966D01*
X022066Y020844D01*
X021966Y021344D02*
X022566D01*
X022366D01*
X021966Y021743D01*
X022266Y021444D01*
X022566Y021743D01*
X0214Y020834D02*
Y021034D01*
Y020934D01*
X0208D01*
X0209Y020834D01*
X0208Y021334D02*
X0214D01*
X0212D01*
X0208Y021734D01*
X0211Y021434D01*
X0214Y021734D01*
X017177Y018629D02*
X017277Y018729D01*
Y018929D01*
X017177Y019029D01*
X016777D01*
X016677Y018929D01*
Y018729D01*
X016777Y018629D01*
Y018429D02*
X016677Y018329D01*
Y018129D01*
X016777Y018029D01*
X017177D01*
X017277Y018129D01*
Y018329D01*
X017177Y018429D01*
X017077D01*
X016977Y018329D01*
Y018029D01*
X0134Y0148D02*
X0133Y0147D01*
Y0145D01*
X0134Y0144D01*
X0138D01*
X0139Y0145D01*
Y0147D01*
X0138Y0148D01*
X0134Y015D02*
X0133Y0151D01*
Y0153D01*
X0134Y0154D01*
X0135D01*
X0136Y0153D01*
X0137Y0154D01*
X0138D01*
X0139Y0153D01*
Y0151D01*
X0138Y015D01*
X0137D01*
X0136Y0151D01*
X0135Y015D01*
X0134D01*
X0136Y0151D02*
Y0153D01*
X02767Y046068D02*
X02757Y046168D01*
X02737D01*
X02727Y046068D01*
Y045968D01*
X02737Y045868D01*
X02757D01*
X02767Y045768D01*
Y045668D01*
X02757Y045568D01*
X02737D01*
X02727Y045668D01*
X02787Y046168D02*
Y045568D01*
X02807Y045768D01*
X02827Y045568D01*
Y046168D01*
X02847Y045568D02*
X02867D01*
X02857D01*
Y046168D01*
X02847Y046068D01*
X016036Y0146D02*
X015936Y0145D01*
Y0143D01*
X016036Y0142D01*
X016136D01*
X016236Y0143D01*
Y0145D01*
X016336Y0146D01*
X016435D01*
X016535Y0145D01*
Y0143D01*
X016435Y0142D01*
X015936Y0148D02*
X016535D01*
X016336Y015D01*
X016535Y0152D01*
X015936D01*
X016535Y015799D02*
Y0154D01*
X016136Y015799D01*
X016036D01*
X015936Y0157D01*
Y0155D01*
X016036Y0154D01*
X0262Y01D02*
Y0102D01*
Y0101D01*
X0256D01*
X0257Y01D01*
Y0105D02*
X0256Y0106D01*
Y0108D01*
X0257Y0109D01*
X0261D01*
X0262Y0108D01*
Y0106D01*
X0261Y0105D01*
X0257D01*
X0262Y0111D02*
X0256D01*
X026D02*
X0258Y0114D01*
X026Y0111D02*
X0262Y0114D01*
X01638Y01253D02*
X01658D01*
X01648D01*
Y01313D01*
X01638Y01303D01*
X01688D02*
X01698Y01313D01*
X01718D01*
X01728Y01303D01*
Y01263D01*
X01718Y01253D01*
X01698D01*
X01688Y01263D01*
Y01303D01*
X01748Y01253D02*
Y01313D01*
Y01273D02*
X01778Y01293D01*
X01748Y01273D02*
X01778Y01253D01*
X0163Y0167D02*
X0165D01*
X0164D01*
Y0173D01*
X0163Y0172D01*
X0168D02*
X0169Y0173D01*
X0171D01*
X0172Y0172D01*
Y0168D01*
X0171Y0167D01*
X0169D01*
X0168Y0168D01*
Y0172D01*
X0174Y0167D02*
Y0173D01*
Y0169D02*
X0177Y0171D01*
X0174Y0169D02*
X0177Y0167D01*
X02905Y0183D02*
X02885Y0182D01*
X02865Y018D01*
Y0178D01*
X02875Y0177D01*
X02895D01*
X02905Y0178D01*
Y0179D01*
X02895Y018D01*
X02865D01*
X02925Y0182D02*
X02935Y0183D01*
X02955D01*
X02965Y0182D01*
Y0178D01*
X02955Y0177D01*
X02935D01*
X02925Y0178D01*
Y0182D01*
X02985D02*
X02995Y0183D01*
X03015D01*
X030249Y0182D01*
Y0178D01*
X03015Y0177D01*
X02995D01*
X02985Y0178D01*
Y0182D01*
X030449Y0177D02*
Y0183D01*
X030749D01*
X030849Y0182D01*
Y018D01*
X030749Y0179D01*
X030449D01*
X030649D02*
X030849Y0177D01*
X031349Y0179D02*
Y018D01*
X031249D01*
Y0179D01*
X031349D01*
X031449Y018D01*
Y0182D01*
X031349Y0183D01*
X031149D01*
X031049Y0182D01*
Y0178D01*
X031149Y0177D01*
X031449D01*
X031649D02*
X031849D01*
X031749D01*
Y0183D01*
X031649Y0182D01*
X032149D02*
X032249Y0183D01*
X032449D01*
X032549Y0182D01*
Y0178D01*
X032449Y0177D01*
X032249D01*
X032149Y0178D01*
Y0182D01*
X032749D02*
X032849Y0183D01*
X033049D01*
X033149Y0182D01*
Y0178D01*
X033049Y0177D01*
X032849D01*
X032749Y0178D01*
Y0182D01*
X033348Y0177D02*
Y0183D01*
X033548Y0181D01*
X033748Y0183D01*
Y0177D01*
X033948Y0183D02*
Y0177D01*
Y018D01*
X034048Y0181D01*
X034248D01*
X034348Y018D01*
Y0177D01*
X034548Y0181D02*
X034948D01*
X034548Y0177D01*
X034948D01*
X02105Y01592D02*
X02065D01*
Y01532D01*
X02105D01*
X02065Y01562D02*
X02085D01*
X02165Y01582D02*
X02155Y01592D01*
X02135D01*
X02125Y01582D01*
Y01572D01*
X02135Y01562D01*
X02155D01*
X02165Y01552D01*
Y01542D01*
X02155Y01532D01*
X02135D01*
X02125Y01542D01*
X02185Y01532D02*
Y01592D01*
X02215D01*
X022249Y01582D01*
Y01562D01*
X02215Y01552D01*
X02185D01*
X022449Y01532D02*
X022649D01*
X022549D01*
Y01592D01*
X022449Y01582D01*
X02595Y0182D02*
Y018357D01*
Y018279D01*
X025478D01*
X025556Y0182D01*
Y018594D02*
X025478Y018672D01*
Y01883D01*
X025556Y018908D01*
X025871D01*
X02595Y01883D01*
Y018672D01*
X025871Y018594D01*
X025556D01*
Y019066D02*
X025478Y019145D01*
Y019302D01*
X025556Y019381D01*
X025871D01*
X02595Y019302D01*
Y019145D01*
X025871Y019066D01*
X025556D01*
X02595Y019538D02*
X025635D01*
Y019774D01*
X025714Y019853D01*
X02595D01*
X025478Y020325D02*
Y02001D01*
X025714D01*
Y020168D01*
Y02001D01*
X02595D01*
X02705Y015D02*
Y015157D01*
Y015079D01*
X026578D01*
X026656Y015D01*
Y015394D02*
X026578Y015472D01*
Y01563D01*
X026656Y015708D01*
X026971D01*
X02705Y01563D01*
Y015472D01*
X026971Y015394D01*
X026656D01*
X026735Y015866D02*
X026971D01*
X02705Y015945D01*
Y016181D01*
X026735D01*
X026578Y016653D02*
Y016338D01*
X026814D01*
Y016496D01*
Y016338D01*
X02705D01*
X01372Y03821D02*
Y03771D01*
X01382Y03761D01*
X01402D01*
X01412Y03771D01*
Y03821D01*
X01472Y03761D02*
X01432D01*
X01472Y03801D01*
Y03811D01*
X01462Y03821D01*
X01442D01*
X01432Y03811D01*
X03215Y03785D02*
Y03805D01*
Y03795D01*
X03155D01*
X03165Y03785D01*
X03155Y03835D02*
X03215D01*
X03195D01*
X03155Y03875D01*
X03185Y03845D01*
X03215Y03875D01*
X0331Y0382D02*
Y0378D01*
X0327Y0382D01*
X0326D01*
X0325Y0381D01*
Y0379D01*
X0326Y0378D01*
X0331Y0384D02*
X033D01*
Y0385D01*
X0331D01*
Y0384D01*
Y0393D02*
Y0389D01*
X0327Y0393D01*
X0326D01*
X0325Y0392D01*
Y039D01*
X0326Y0389D01*
X0331Y039499D02*
X0325D01*
X0329D02*
X0327Y039799D01*
X0329Y039499D02*
X0331Y039799D01*
X027Y02659D02*
X0272D01*
X0271D01*
Y02719D01*
X027Y02709D01*
X0275D02*
X0276Y02719D01*
X0278D01*
X0279Y02709D01*
Y02669D01*
X0278Y02659D01*
X0276D01*
X0275Y02669D01*
Y02709D01*
X0281D02*
X0282Y02719D01*
X0284D01*
X0285Y02709D01*
Y02669D01*
X0284Y02659D01*
X0282D01*
X0281Y02669D01*
Y02709D01*
X028699Y02699D02*
Y02669D01*
X028799Y02659D01*
X029099D01*
Y02699D01*
X029299Y02719D02*
Y02659D01*
Y02689D01*
X029699D01*
Y02719D01*
Y02659D01*
X03116Y04904D02*
X03096D01*
X03106D01*
Y04854D01*
X03096Y04844D01*
X03086D01*
X03076Y04854D01*
X03136Y04904D02*
Y04844D01*
X03166D01*
X03176Y04854D01*
Y04894D01*
X03166Y04904D01*
X03136D01*
X032359Y04894D02*
X03226Y04904D01*
X03206D01*
X03196Y04894D01*
Y04854D01*
X03206Y04844D01*
X03226D01*
X032359Y04854D01*
X032559Y04844D02*
X032759D01*
X032659D01*
Y04904D01*
X032559Y04894D01*
X0302Y024D02*
X0308D01*
Y0243D01*
X0307Y0244D01*
X0303D01*
X0302Y0243D01*
Y024D01*
X0303Y025D02*
X0302Y0249D01*
Y0247D01*
X0303Y0246D01*
X0307D01*
X0308Y0247D01*
Y0249D01*
X0307Y025D01*
X0308Y0252D02*
Y0254D01*
Y0253D01*
X0302D01*
X0303Y0252D01*
X024Y0303D02*
X0234D01*
X0236Y0305D01*
X0234Y0307D01*
X024D01*
X0234Y0309D02*
X024D01*
Y0312D01*
X0239Y0313D01*
X0238D01*
X0237Y0312D01*
Y0309D01*
Y0312D01*
X0236Y0313D01*
X0235D01*
X0234Y0312D01*
Y0309D01*
X024Y0315D02*
X0234D01*
Y0318D01*
X0235Y031899D01*
X0237D01*
X0238Y0318D01*
Y0315D01*
Y0317D02*
X024Y031899D01*
X0235Y032099D02*
X0234Y032199D01*
Y032399D01*
X0235Y032499D01*
X0236D01*
X0237Y032399D01*
Y032299D01*
Y032399D01*
X0238Y032499D01*
X0239D01*
X024Y032399D01*
Y032199D01*
X0239Y032099D01*
X024Y032999D02*
X0234D01*
X0237Y032699D01*
Y033099D01*
X0235Y033299D02*
X0234Y033399D01*
Y033599D01*
X0235Y033699D01*
X0239D01*
X024Y033599D01*
Y033399D01*
X0239Y033299D01*
X0235D01*
X0102Y0421D02*
X0104D01*
X0103D01*
Y0427D01*
X0102Y0426D01*
X0107D02*
X0108Y0427D01*
X011D01*
X0111Y0426D01*
Y0422D01*
X011Y0421D01*
X0108D01*
X0107Y0422D01*
Y0426D01*
X0113D02*
X0114Y0427D01*
X0116D01*
X0117Y0426D01*
Y0425D01*
X0116Y0424D01*
X0115D01*
X0116D01*
X0117Y0423D01*
Y0422D01*
X0116Y0421D01*
X0114D01*
X0113Y0422D01*
X010278Y03948D02*
X010478D01*
X010378D01*
Y04008D01*
X010278Y03998D01*
X010778D02*
X010878Y04008D01*
X011078D01*
X011178Y03998D01*
Y03958D01*
X011078Y03948D01*
X010878D01*
X010778Y03958D01*
Y03998D01*
X011378D02*
X011478Y04008D01*
X011678D01*
X011778Y03998D01*
Y03988D01*
X011678Y03978D01*
X011578D01*
X011678D01*
X011778Y03968D01*
Y03958D01*
X011678Y03948D01*
X011478D01*
X011378Y03958D01*
X013291Y02755D02*
X01349D01*
X013391D01*
Y02815D01*
X013291Y02805D01*
X01379D02*
X01389Y02815D01*
X01409D01*
X01419Y02805D01*
Y02765D01*
X01409Y02755D01*
X01389D01*
X01379Y02765D01*
Y02805D01*
X01439D02*
X01449Y02815D01*
X01469D01*
X01479Y02805D01*
Y02795D01*
X01469Y02785D01*
X01459D01*
X01469D01*
X01479Y02775D01*
Y02765D01*
X01469Y02755D01*
X01449D01*
X01439Y02765D01*
X01745Y028381D02*
X01765D01*
X01755D01*
Y028981D01*
X01745Y028881D01*
X01795D02*
X01805Y028981D01*
X01825D01*
X01835Y028881D01*
Y028481D01*
X01825Y028381D01*
X01805D01*
X01795Y028481D01*
Y028881D01*
X01855D02*
X01865Y028981D01*
X01885D01*
X01895Y028881D01*
Y028781D01*
X01885Y028681D01*
X01875D01*
X01885D01*
X01895Y028581D01*
Y028481D01*
X01885Y028381D01*
X01865D01*
X01855Y028481D01*
X028756Y020275D02*
X028656Y020375D01*
X028456D01*
X028356Y020275D01*
Y019875D01*
X028456Y019775D01*
X028656D01*
X028756Y019875D01*
X028956Y020275D02*
X029056Y020375D01*
X029256D01*
X029356Y020275D01*
Y020175D01*
X029256Y020075D01*
X029156D01*
X029256D01*
X029356Y019975D01*
Y019875D01*
X029256Y019775D01*
X029056D01*
X028956Y019875D01*
X032962Y0284D02*
X032863Y0285D01*
X032663D01*
X032563Y0284D01*
Y028D01*
X032663Y0279D01*
X032863D01*
X032962Y028D01*
X033562Y0279D02*
X033162D01*
X033562Y0283D01*
Y0284D01*
X033462Y0285D01*
X033262D01*
X033162Y0284D01*
X0281Y0402D02*
X0277D01*
X0281Y0406D01*
Y0407D01*
X028Y0408D01*
X0278D01*
X0277Y0407D01*
X0287Y0402D02*
X0283D01*
X0287Y0406D01*
Y0407D01*
X0286Y0408D01*
X0284D01*
X0283Y0407D01*
X0289D02*
X029Y0408D01*
X0292D01*
X029299Y0407D01*
Y0403D01*
X0292Y0402D01*
X029D01*
X0289Y0403D01*
Y0407D01*
X029499D02*
X029599Y0408D01*
X029799D01*
X029899Y0407D01*
Y0403D01*
X029799Y0402D01*
X029599D01*
X029499Y0403D01*
Y0407D01*
X030099Y0406D02*
Y0403D01*
X030199Y0402D01*
X030499D01*
Y0406D01*
X031099Y0408D02*
X030699D01*
Y0405D01*
X030899D01*
X030699D01*
Y0402D01*
X02035Y0379D02*
Y0375D01*
X01995Y0379D01*
X01985D01*
X01975Y0378D01*
Y0376D01*
X01985Y0375D01*
X02035Y0385D02*
Y0381D01*
X01995Y0385D01*
X01985D01*
X01975Y0384D01*
Y0382D01*
X01985Y0381D01*
X02035Y0387D02*
X01975D01*
Y039D01*
X01985Y039099D01*
X02005D01*
X02015Y039D01*
Y0387D01*
Y0389D02*
X02035Y039099D01*
D17*
X02155Y03935D02*
Y03985D01*
X02065D02*
X02155D01*
X02045D02*
X02065D01*
X02045Y03935D02*
Y03985D01*
Y03935D02*
X02155D01*
X02115Y0394D02*
Y0398D01*
X02085D02*
X02115D01*
X02085Y0394D02*
Y0398D01*
Y0394D02*
X02115D01*
X02455Y0419D02*
Y0425D01*
X02375D02*
X02455D01*
X02335D02*
X02375D01*
X02335Y0419D02*
Y0425D01*
Y0419D02*
X02455D01*
X0241Y042D02*
Y0424D01*
X0238D02*
X0241D01*
X0238Y042D02*
Y0424D01*
Y042D02*
X0241D01*
X02455Y042733D02*
Y043333D01*
X02375D02*
X02455D01*
X02335D02*
X02375D01*
X02335Y042733D02*
Y043333D01*
Y042733D02*
X02455D01*
X0241Y042833D02*
Y043233D01*
X0238D02*
X0241D01*
X0238Y042833D02*
Y043233D01*
Y042833D02*
X0241D01*
X01198Y040246D02*
X01248D01*
Y041146D01*
Y041346D01*
X01198D02*
X01248D01*
X01198Y040246D02*
Y041346D01*
X01203Y040646D02*
X01243D01*
Y040946D01*
X01203D02*
X01243D01*
X01203Y040646D02*
Y040946D01*
X0185Y03805D02*
X019D01*
Y03895D01*
Y03915D01*
X0185D02*
X019D01*
X0185Y03805D02*
Y03915D01*
X01855Y03845D02*
X01895D01*
Y03875D01*
X01855D02*
X01895D01*
X01855Y03845D02*
Y03875D01*
X0191Y03805D02*
X0196D01*
Y03895D01*
Y03915D01*
X0191D02*
X0196D01*
X0191Y03805D02*
Y03915D01*
X01915Y03845D02*
X01955D01*
Y03875D01*
X01915D02*
X01955D01*
X01915Y03845D02*
Y03875D01*
X016833Y0381D02*
X017333D01*
Y039D01*
Y0392D01*
X016833D02*
X017333D01*
X016833Y0381D02*
Y0392D01*
X016883Y0385D02*
X017283D01*
Y0388D01*
X016883D02*
X017283D01*
X016883Y0385D02*
Y0388D01*
D18*
X02834Y034294D02*
Y03846D01*
X015328Y025611D02*
X017808D01*
X015328Y026989D02*
X017808D01*
Y026969D02*
Y026989D01*
Y025611D02*
Y025631D01*
X016253Y025611D02*
Y026989D01*
X015328Y026969D02*
Y026989D01*
Y025611D02*
Y025631D01*
X02861Y023561D02*
X029713D01*
X02861Y020923D02*
X029713D01*
X02861D02*
Y023561D01*
X029713Y020923D02*
Y023561D01*
X012798Y032859D02*
X012818D01*
X01144D02*
X011459D01*
X01144Y033785D02*
X012818D01*
X012798Y03534D02*
X012818D01*
X01144D02*
X011459D01*
X01144Y032859D02*
Y03534D01*
X012818Y032859D02*
Y03534D01*
X028353Y017659D02*
Y018289D01*
Y016714D02*
Y017344D01*
X027447Y017659D02*
Y018289D01*
Y016714D02*
Y017344D01*
Y018289D02*
X028353D01*
X027447Y016714D02*
X028353D01*
X0122Y016848D02*
X0132D01*
Y012652D02*
Y016848D01*
X0122Y012652D02*
Y016848D01*
Y012652D02*
X0132D01*
X0122Y01375D02*
X0132D01*
X01445Y0175D02*
Y0195D01*
Y0175D02*
X01645D01*
Y0195D01*
X01445D02*
X01645D01*
X01545Y0185D02*
Y0195D01*
X01445Y0185D02*
X01545D01*
X015047Y024565D02*
X015953D01*
X015047Y02299D02*
X015953D01*
Y023935D02*
Y024565D01*
Y02299D02*
Y02362D01*
X015047Y023935D02*
Y024565D01*
Y02299D02*
Y02362D01*
X026938Y027688D02*
X028198D01*
X030442D02*
X031662D01*
X026938Y032412D02*
X028158D01*
X030442D02*
X031662D01*
Y027688D02*
Y032412D01*
X026938Y027688D02*
Y032412D01*
D19*
X029087Y034517D02*
X029157Y034587D01*
X029027Y034577D02*
X029097Y034647D01*
X0191Y023288D02*
Y024278D01*
X01805Y023278D02*
Y024278D01*
Y023278D02*
X02005D01*
Y024278D01*
X01805D02*
X02005D01*
X0314Y0474D02*
X0347D01*
X0314Y04265D02*
Y0481D01*
X0347Y04265D02*
Y0481D01*
X0314Y04265D02*
X0347D01*
X0314Y0481D02*
X0347D01*
D20*
X0287Y037701D02*
D03*
Y037031D02*
D03*
Y036362D02*
D03*
Y035693D02*
D03*
X0287Y035024D02*
D03*
D21*
X015Y0155D02*
D03*
M02*
