G04*
G04 #@! TF.GenerationSoftware,Altium Limited,Altium Designer,20.1.12 (249)*
G04*
G04 Layer_Color=2752767*
%FSTAX24Y24*%
%MOIN*%
G70*
G04*
G04 #@! TF.SameCoordinates,89921D2C-3172-4036-8A71-56443DCFD009*
G04*
G04*
G04 #@! TF.FilePolarity,Positive*
G04*
G01*
G75*
%ADD137C,0.0020*%
%ADD138C,0.0027*%
%ADD139C,0.0013*%
D137*
X019761Y045941D02*
Y046101D01*
X019921D01*
Y045941D01*
X019761D01*
X016415D02*
Y046101D01*
X016575D01*
Y045941D01*
X016415D01*
X0327Y033353D02*
X03262Y033513D01*
X03278D01*
X0327Y033353D01*
X03155Y02207D02*
X03147Y02223D01*
X03163D01*
X03155Y02207D01*
X01323Y043993D02*
X01327Y044033D01*
X01331D01*
X01327Y044073D01*
X01331Y044113D01*
X01327D01*
X01323Y044153D01*
X01319Y044113D01*
X01315D01*
X01319Y044073D01*
X01315Y044033D01*
X01319D01*
X01323Y043993D01*
X01123D02*
X01127Y044033D01*
X01131D01*
X01127Y044073D01*
X01131Y044113D01*
X01127D01*
X01123Y044153D01*
X01119Y044113D01*
X01115D01*
X01119Y044073D01*
X01115Y044033D01*
X01119D01*
X01123Y043993D01*
Y045993D02*
X01127Y046033D01*
X01131D01*
X01127Y046073D01*
X01131Y046113D01*
X01127D01*
X01123Y046153D01*
X01119Y046113D01*
X01115D01*
X01119Y046073D01*
X01115Y046033D01*
X01119D01*
X01123Y045993D01*
X01323D02*
X01327Y046033D01*
X01331D01*
X01327Y046073D01*
X01331Y046113D01*
X01327D01*
X01323Y046153D01*
X01319Y046113D01*
X01315D01*
X01319Y046073D01*
X01315Y046033D01*
X01319D01*
X01323Y045993D01*
X01223Y044993D02*
X01227Y045033D01*
X01231D01*
X01227Y045073D01*
X01231Y045113D01*
X01227D01*
X01223Y045153D01*
X01219Y045113D01*
X01215D01*
X01219Y045073D01*
X01215Y045033D01*
X01219D01*
X01223Y044993D01*
X02332Y044283D02*
Y044443D01*
X02348D01*
Y044283D01*
X02332D01*
X02432D02*
Y044443D01*
X02448D01*
Y044283D01*
X02432D01*
X02332Y04527D02*
Y04543D01*
X02348D01*
Y04527D01*
X02332D01*
X02432D02*
Y04543D01*
X02448D01*
Y04527D01*
X02432D01*
X01262Y01802D02*
X01266Y0181D01*
X01262Y01818D01*
X0127Y01814D01*
X01278Y01818D01*
X01274Y0181D01*
X01278Y01802D01*
X0127Y01806D01*
X01262Y01802D01*
Y01902D02*
X01266Y0191D01*
X01262Y01918D01*
X0127Y01914D01*
X01278Y01918D01*
X01274Y0191D01*
X01278Y01902D01*
X0127Y01906D01*
X01262Y01902D01*
X026826Y01936D02*
Y01932D01*
X026906D01*
Y01936D01*
X026946D01*
Y01944D01*
X026906D01*
Y01948D01*
X026826D01*
Y01944D01*
X026786D01*
Y01936D01*
X026826D01*
X027613D02*
Y01932D01*
X027693D01*
Y01936D01*
X027733D01*
Y01944D01*
X027693D01*
Y01948D01*
X027613D01*
Y01944D01*
X027573D01*
Y01936D01*
X027613D01*
X03196Y04056D02*
Y04052D01*
X03204D01*
Y04056D01*
X03208D01*
Y04064D01*
X03204D01*
Y04068D01*
X03196D01*
Y04064D01*
X03192D01*
Y04056D01*
X03196D01*
X032747D02*
Y04052D01*
X032827D01*
Y04056D01*
X032867D01*
Y04064D01*
X032827D01*
Y04068D01*
X032747D01*
Y04064D01*
X032707D01*
Y04056D01*
X032747D01*
X02486Y027504D02*
Y027464D01*
X02494D01*
Y027504D01*
X02498D01*
Y027584D01*
X02494D01*
Y027624D01*
X02486D01*
Y027584D01*
X02482D01*
Y027504D01*
X02486D01*
Y026716D02*
Y026676D01*
X02494D01*
Y026716D01*
X02498D01*
Y026796D01*
X02494D01*
Y026836D01*
X02486D01*
Y026796D01*
X02482D01*
Y026716D01*
X02486D01*
X01262Y01317D02*
X01266D01*
X0127Y01321D01*
X01274Y01317D01*
X01278D01*
Y01321D01*
X01274Y01325D01*
X01278Y01329D01*
Y01333D01*
X01274D01*
X0127Y01329D01*
X01266Y01333D01*
X01262D01*
Y01329D01*
X01266Y01325D01*
X01262Y01321D01*
Y01317D01*
Y01417D02*
X01266D01*
X0127Y01421D01*
X01274Y01417D01*
X01278D01*
Y01421D01*
X01274Y01425D01*
X01278Y01429D01*
Y01433D01*
X01274D01*
X0127Y01429D01*
X01266Y01433D01*
X01262D01*
Y01429D01*
X01266Y01425D01*
X01262Y01421D01*
Y01417D01*
Y01517D02*
X01266D01*
X0127Y01521D01*
X01274Y01517D01*
X01278D01*
Y01521D01*
X01274Y01525D01*
X01278Y01529D01*
Y01533D01*
X01274D01*
X0127Y01529D01*
X01266Y01533D01*
X01262D01*
Y01529D01*
X01266Y01525D01*
X01262Y01521D01*
Y01517D01*
Y01617D02*
X01266D01*
X0127Y01621D01*
X01274Y01617D01*
X01278D01*
Y01621D01*
X01274Y01625D01*
X01278Y01629D01*
Y01633D01*
X01274D01*
X0127Y01629D01*
X01266Y01633D01*
X01262D01*
Y01629D01*
X01266Y01625D01*
X01262Y01621D01*
Y01617D01*
X02877Y04417D02*
X02881Y04425D01*
X02877Y04433D01*
X02885Y04429D01*
X02893Y04433D01*
X02889Y04425D01*
X02893Y04417D01*
X02885Y04421D01*
X02877Y04417D01*
X026506Y043266D02*
X026586Y043346D01*
X026666Y043266D01*
X026586Y043186D01*
X026506Y043266D01*
X029262D02*
X029342Y043346D01*
X029422Y043266D01*
X029342Y043186D01*
X029262Y043266D01*
X026998Y04417D02*
X027038Y04425D01*
X026998Y04433D01*
X027078Y04429D01*
X027158Y04433D01*
X027118Y04425D01*
X027158Y04417D01*
X027078Y04421D01*
X026998Y04417D01*
X01947Y023698D02*
Y023858D01*
X01963D01*
Y023698D01*
X01947D01*
X01951Y023738D02*
Y023818D01*
X01959D01*
Y023738D01*
X01951D01*
X01846Y023698D02*
Y023858D01*
X01862D01*
Y023698D01*
X01846D01*
X0185Y023738D02*
Y023818D01*
X01858D01*
Y023738D01*
X0185D01*
X03017Y01052D02*
X03021Y0106D01*
X03017Y01068D01*
X03025Y01064D01*
X03033Y01068D01*
X03029Y0106D01*
X03033Y01052D01*
X03025Y01056D01*
X03017Y01052D01*
X03317Y01052D02*
X03321Y0106D01*
X03317Y01068D01*
X03325Y01064D01*
X03333Y01068D01*
X03329Y0106D01*
X03333Y01052D01*
X03325Y01056D01*
X03317Y01052D01*
X02917Y01152D02*
X02921Y0116D01*
X02917Y01168D01*
X02925Y01164D01*
X02933Y01168D01*
X02929Y0116D01*
X02933Y01152D01*
X02925Y01156D01*
X02917Y01152D01*
X02917Y01052D02*
X02921Y0106D01*
X02917Y01068D01*
X02925Y01064D01*
X02933Y01068D01*
X02929Y0106D01*
X02933Y01052D01*
X02925Y01056D01*
X02917Y01052D01*
X03317Y01152D02*
X03321Y0116D01*
X03317Y01168D01*
X03325Y01164D01*
X03333Y01168D01*
X03329Y0116D01*
X03333Y01152D01*
X03325Y01156D01*
X03317Y01152D01*
X03017Y01152D02*
X03021Y0116D01*
X03017Y01168D01*
X03025Y01164D01*
X03033Y01168D01*
X03029Y0116D01*
X03033Y01152D01*
X03025Y01156D01*
X03017Y01152D01*
X03117Y01152D02*
X03121Y0116D01*
X03117Y01168D01*
X03125Y01164D01*
X03133Y01168D01*
X03129Y0116D01*
X03133Y01152D01*
X03125Y01156D01*
X03117Y01152D01*
X03217Y01152D02*
X03221Y0116D01*
X03217Y01168D01*
X03225Y01164D01*
X03233Y01168D01*
X03229Y0116D01*
X03233Y01152D01*
X03225Y01156D01*
X03217Y01152D01*
Y01052D02*
X03221Y0106D01*
X03217Y01068D01*
X03225Y01064D01*
X03233Y01068D01*
X03229Y0106D01*
X03233Y01052D01*
X03225Y01056D01*
X03217Y01052D01*
X03117Y01052D02*
X03121Y0106D01*
X03117Y01068D01*
X03125Y01064D01*
X03133Y01068D01*
X03129Y0106D01*
X03133Y01052D01*
X03125Y01056D01*
X03117Y01052D01*
X02527Y0315D02*
X02535Y03158D01*
X02543Y0315D01*
X02535Y03142D01*
X02527Y0315D01*
Y0295D02*
X02535Y02958D01*
X02543Y0295D01*
X02535Y02942D01*
X02527Y0295D01*
X032523Y03006D02*
Y03002D01*
X032603D01*
Y03006D01*
X032643D01*
Y03014D01*
X032603D01*
Y03018D01*
X032523D01*
Y03014D01*
X032483D01*
Y03006D01*
X032523D01*
X03331D02*
Y03002D01*
X03339D01*
Y03006D01*
X03343D01*
Y03014D01*
X03339D01*
Y03018D01*
X03331D01*
Y03014D01*
X03327D01*
Y03006D01*
X03331D01*
X01595Y01792D02*
X01587Y01808D01*
X01603D01*
X01595Y01792D01*
Y01796D02*
X01591Y01804D01*
X01599D01*
X01595Y01796D01*
Y01892D02*
X01587Y01908D01*
X01603D01*
X01595Y01892D01*
Y01896D02*
X01591Y01904D01*
X01599D01*
X01595Y01896D01*
X01495Y01892D02*
X01487Y01908D01*
X01503D01*
X01495Y01892D01*
Y01896D02*
X01491Y01904D01*
X01499D01*
X01495Y01896D01*
Y01792D02*
X01487Y01808D01*
X01503D01*
X01495Y01792D01*
Y01796D02*
X01491Y01804D01*
X01499D01*
X01495Y01796D01*
X0312Y04352D02*
X03124Y04356D01*
X03128D01*
X03124Y0436D01*
X03128Y04364D01*
X03124D01*
X0312Y04368D01*
X03116Y04364D01*
X03112D01*
X03116Y0436D01*
X03112Y04356D01*
X03116D01*
X0312Y04352D01*
Y04356D02*
X03122Y04358D01*
X03124D01*
X03122Y0436D01*
X03124Y04362D01*
X03122D01*
X0312Y04364D01*
X03118Y04362D01*
X03116D01*
X03118Y0436D01*
X03116Y04358D01*
X03118D01*
X0312Y04356D01*
X0332Y04502D02*
X03324Y04506D01*
X03328D01*
X03324Y0451D01*
X03328Y04514D01*
X03324D01*
X0332Y04518D01*
X03316Y04514D01*
X03312D01*
X03316Y0451D01*
X03312Y04506D01*
X03316D01*
X0332Y04502D01*
Y04506D02*
X03322Y04508D01*
X03324D01*
X03322Y0451D01*
X03324Y04512D01*
X03322D01*
X0332Y04514D01*
X03318Y04512D01*
X03316D01*
X03318Y0451D01*
X03316Y04508D01*
X03318D01*
X0332Y04506D01*
Y04252D02*
X03324Y04256D01*
X03328D01*
X03324Y0426D01*
X03328Y04264D01*
X03324D01*
X0332Y04268D01*
X03316Y04264D01*
X03312D01*
X03316Y0426D01*
X03312Y04256D01*
X03316D01*
X0332Y04252D01*
Y04256D02*
X03322Y04258D01*
X03324D01*
X03322Y0426D01*
X03324Y04262D01*
X03322D01*
X0332Y04264D01*
X03318Y04262D01*
X03316D01*
X03318Y0426D01*
X03316Y04258D01*
X03318D01*
X0332Y04256D01*
X016014Y041528D02*
X016054Y041608D01*
X016014Y041688D01*
X016094Y041648D01*
X016174Y041688D01*
X016134Y041608D01*
X016174Y041528D01*
X016094Y041568D01*
X016014Y041528D01*
X016054Y041568D02*
X016074Y041608D01*
X016054Y041648D01*
X016094Y041628D01*
X016134Y041648D01*
X016114Y041608D01*
X016134Y041568D01*
X016094Y041588D01*
X016054Y041568D01*
X019315Y042175D02*
X019355Y042255D01*
X019315Y042335D01*
X019395Y042295D01*
X019475Y042335D01*
X019435Y042255D01*
X019475Y042175D01*
X019395Y042215D01*
X019315Y042175D01*
X019355Y042215D02*
X019375Y042255D01*
X019355Y042295D01*
X019395Y042275D01*
X019435Y042295D01*
X019415Y042255D01*
X019435Y042215D01*
X019395Y042235D01*
X019355Y042215D01*
X019775Y041683D02*
X019815Y041763D01*
X019775Y041843D01*
X019855Y041803D01*
X019935Y041843D01*
X019895Y041763D01*
X019935Y041683D01*
X019855Y041723D01*
X019775Y041683D01*
X019815Y041723D02*
X019835Y041763D01*
X019815Y041803D01*
X019855Y041783D01*
X019895Y041803D01*
X019875Y041763D01*
X019895Y041723D01*
X019855Y041743D01*
X019815Y041723D01*
X021509Y042511D02*
X021549Y042591D01*
X021509Y042671D01*
X021589Y042631D01*
X021669Y042671D01*
X021629Y042591D01*
X021669Y042511D01*
X021589Y042551D01*
X021509Y042511D01*
X021549Y042551D02*
X021569Y042591D01*
X021549Y042631D01*
X021589Y042611D01*
X021629Y042631D01*
X021609Y042591D01*
X021629Y042551D01*
X021589Y042571D01*
X021549Y042551D01*
X01877Y041739D02*
X01881Y041819D01*
X01877Y041899D01*
X01885Y041859D01*
X01893Y041899D01*
X01889Y041819D01*
X01893Y041739D01*
X01885Y041779D01*
X01877Y041739D01*
X01881Y041779D02*
X01883Y041819D01*
X01881Y041859D01*
X01885Y041839D01*
X01889Y041859D01*
X01887Y041819D01*
X01889Y041779D01*
X01885Y041799D01*
X01881Y041779D01*
X011628Y041017D02*
Y040977D01*
X011708D01*
Y041017D01*
X011748D01*
Y041097D01*
X011708D01*
Y041136D01*
X011628D01*
Y041097D01*
X011588D01*
Y041017D01*
X011628D01*
X011648Y041037D02*
Y041017D01*
X011688D01*
Y041037D01*
X011708D01*
Y041076D01*
X011688D01*
Y041097D01*
X011648D01*
Y041076D01*
X011628D01*
Y041037D01*
X011648D01*
X011628Y041516D02*
Y041476D01*
X011708D01*
Y041516D01*
X011748D01*
Y041596D01*
X011708D01*
Y041637D01*
X011628D01*
Y041596D01*
X011588D01*
Y041516D01*
X011628D01*
X011648Y041536D02*
Y041516D01*
X011688D01*
Y041536D01*
X011708D01*
Y041576D01*
X011688D01*
Y041596D01*
X011648D01*
Y041576D01*
X011628D01*
Y041536D01*
X011648D01*
X012767Y041068D02*
Y041028D01*
X012847D01*
Y041068D01*
X012887D01*
Y041148D01*
X012847D01*
Y041188D01*
X012767D01*
Y041148D01*
X012727D01*
Y041068D01*
X012767D01*
X012787Y041088D02*
Y041068D01*
X012827D01*
Y041088D01*
X012847D01*
Y041128D01*
X012827D01*
Y041148D01*
X012787D01*
Y041128D01*
X012767D01*
Y041088D01*
X012787D01*
X012767Y041568D02*
Y041528D01*
X012847D01*
Y041568D01*
X012887D01*
Y041648D01*
X012847D01*
Y041688D01*
X012767D01*
Y041648D01*
X012727D01*
Y041568D01*
X012767D01*
X012787Y041588D02*
Y041568D01*
X012827D01*
Y041588D01*
X012847D01*
Y041628D01*
X012827D01*
Y041648D01*
X012787D01*
Y041628D01*
X012767D01*
Y041588D01*
X012787D01*
X012869Y042021D02*
Y041981D01*
X012949D01*
Y042021D01*
X012989D01*
Y042101D01*
X012949D01*
Y042141D01*
X012869D01*
Y042101D01*
X012829D01*
Y042021D01*
X012869D01*
X012889Y042041D02*
Y042021D01*
X012929D01*
Y042041D01*
X012949D01*
Y042081D01*
X012929D01*
Y042101D01*
X012889D01*
Y042081D01*
X012869D01*
Y042041D01*
X012889D01*
X012869Y042521D02*
Y042481D01*
X012949D01*
Y042521D01*
X012989D01*
Y042601D01*
X012949D01*
Y042641D01*
X012869D01*
Y042601D01*
X012829D01*
Y042521D01*
X012869D01*
X012889Y042541D02*
Y042521D01*
X012929D01*
Y042541D01*
X012949D01*
Y042581D01*
X012929D01*
Y042601D01*
X012889D01*
Y042581D01*
X012869D01*
Y042541D01*
X012889D01*
X011505Y041941D02*
Y041901D01*
X011585D01*
Y041941D01*
X011625D01*
Y042021D01*
X011585D01*
Y042062D01*
X011505D01*
Y042021D01*
X011465D01*
Y041941D01*
X011505D01*
X011525Y041961D02*
Y041941D01*
X011565D01*
Y041961D01*
X011585D01*
Y042002D01*
X011565D01*
Y042021D01*
X011525D01*
Y042002D01*
X011505D01*
Y041961D01*
X011525D01*
X011505Y042442D02*
Y042401D01*
X011585D01*
Y042442D01*
X011625D01*
Y042522D01*
X011585D01*
Y042561D01*
X011505D01*
Y042522D01*
X011465D01*
Y042442D01*
X011505D01*
X011525Y042462D02*
Y042442D01*
X011565D01*
Y042462D01*
X011585D01*
Y042502D01*
X011565D01*
Y042522D01*
X011525D01*
Y042502D01*
X011505D01*
Y042462D01*
X011525D01*
X012822Y044679D02*
Y044639D01*
X012902D01*
Y044679D01*
X012942D01*
Y044759D01*
X012902D01*
Y044799D01*
X012822D01*
Y044759D01*
X012782D01*
Y044679D01*
X012822D01*
X012842Y044699D02*
Y044679D01*
X012882D01*
Y044699D01*
X012902D01*
Y044739D01*
X012882D01*
Y044759D01*
X012842D01*
Y044739D01*
X012822D01*
Y044699D01*
X012842D01*
X011561Y044685D02*
Y044645D01*
X011641D01*
Y044685D01*
X011681D01*
Y044765D01*
X011641D01*
Y044805D01*
X011561D01*
Y044765D01*
X011521D01*
Y044685D01*
X011561D01*
X011581Y044705D02*
Y044685D01*
X011621D01*
Y044705D01*
X011641D01*
Y044745D01*
X011621D01*
Y044765D01*
X011581D01*
Y044745D01*
X011561D01*
Y044705D01*
X011581D01*
X01164Y045549D02*
Y045509D01*
X01172D01*
Y045549D01*
X01176D01*
Y045629D01*
X01172D01*
Y045669D01*
X01164D01*
Y045629D01*
X0116D01*
Y045549D01*
X01164D01*
X01166Y045569D02*
Y045549D01*
X0117D01*
Y045569D01*
X01172D01*
Y045609D01*
X0117D01*
Y045629D01*
X01166D01*
Y045609D01*
X01164D01*
Y045569D01*
X01166D01*
X012719Y045529D02*
Y045489D01*
X012799D01*
Y045529D01*
X012839D01*
Y045609D01*
X012799D01*
Y045649D01*
X012719D01*
Y045609D01*
X012679D01*
Y045529D01*
X012719D01*
X012739Y045549D02*
Y045529D01*
X012779D01*
Y045549D01*
X012799D01*
Y045589D01*
X012779D01*
Y045609D01*
X012739D01*
Y045589D01*
X012719D01*
Y045549D01*
X012739D01*
X012929Y045029D02*
Y044989D01*
X013009D01*
Y045029D01*
X013049D01*
Y045109D01*
X013009D01*
Y045149D01*
X012929D01*
Y045109D01*
X012889D01*
Y045029D01*
X012929D01*
X012949Y045049D02*
Y045029D01*
X012989D01*
Y045049D01*
X013009D01*
Y045089D01*
X012989D01*
Y045109D01*
X012949D01*
Y045089D01*
X012929D01*
Y045049D01*
X012949D01*
X012166Y045761D02*
Y045721D01*
X012246D01*
Y045761D01*
X012286D01*
Y045841D01*
X012246D01*
Y045881D01*
X012166D01*
Y045841D01*
X012126D01*
Y045761D01*
X012166D01*
X012186Y045781D02*
Y045761D01*
X012226D01*
Y045781D01*
X012246D01*
Y045821D01*
X012226D01*
Y045841D01*
X012186D01*
Y045821D01*
X012166D01*
Y045781D01*
X012186D01*
X011443Y045034D02*
Y044994D01*
X011523D01*
Y045034D01*
X011563D01*
Y045114D01*
X011523D01*
Y045154D01*
X011443D01*
Y045114D01*
X011403D01*
Y045034D01*
X011443D01*
X011463Y045054D02*
Y045034D01*
X011503D01*
Y045054D01*
X011523D01*
Y045094D01*
X011503D01*
Y045114D01*
X011463D01*
Y045094D01*
X011443D01*
Y045054D01*
X011463D01*
X011783Y044406D02*
Y044366D01*
X011863D01*
Y044406D01*
X011903D01*
Y044486D01*
X011863D01*
Y044526D01*
X011783D01*
Y044486D01*
X011743D01*
Y044406D01*
X011783D01*
X011803Y044426D02*
Y044406D01*
X011843D01*
Y044426D01*
X011863D01*
Y044466D01*
X011843D01*
Y044486D01*
X011803D01*
Y044466D01*
X011783D01*
Y044426D01*
X011803D01*
X011783Y043906D02*
Y043866D01*
X011863D01*
Y043906D01*
X011903D01*
Y043986D01*
X011863D01*
Y044026D01*
X011783D01*
Y043986D01*
X011743D01*
Y043906D01*
X011783D01*
X011803Y043926D02*
Y043906D01*
X011843D01*
Y043926D01*
X011863D01*
Y043966D01*
X011843D01*
Y043986D01*
X011803D01*
Y043966D01*
X011783D01*
Y043926D01*
X011803D01*
X012604Y044371D02*
Y044331D01*
X012684D01*
Y044371D01*
X012724D01*
Y044451D01*
X012684D01*
Y044491D01*
X012604D01*
Y044451D01*
X012564D01*
Y044371D01*
X012604D01*
X012624Y044391D02*
Y044371D01*
X012664D01*
Y044391D01*
X012684D01*
Y044431D01*
X012664D01*
Y044451D01*
X012624D01*
Y044431D01*
X012604D01*
Y044391D01*
X012624D01*
X012604Y043871D02*
Y043831D01*
X012684D01*
Y043871D01*
X012724D01*
Y043951D01*
X012684D01*
Y043991D01*
X012604D01*
Y043951D01*
X012564D01*
Y043871D01*
X012604D01*
X012624Y043891D02*
Y043871D01*
X012664D01*
Y043891D01*
X012684D01*
Y043931D01*
X012664D01*
Y043951D01*
X012624D01*
Y043931D01*
X012604D01*
Y043891D01*
X012624D01*
X011775Y043554D02*
Y043514D01*
X011855D01*
Y043554D01*
X011895D01*
Y043634D01*
X011855D01*
Y043674D01*
X011775D01*
Y043634D01*
X011735D01*
Y043554D01*
X011775D01*
X011795Y043574D02*
Y043554D01*
X011835D01*
Y043574D01*
X011855D01*
Y043614D01*
X011835D01*
Y043634D01*
X011795D01*
Y043614D01*
X011775D01*
Y043574D01*
X011795D01*
X011775Y043054D02*
Y043014D01*
X011855D01*
Y043054D01*
X011895D01*
Y043134D01*
X011855D01*
Y043174D01*
X011775D01*
Y043134D01*
X011735D01*
Y043054D01*
X011775D01*
X011795Y043074D02*
Y043054D01*
X011835D01*
Y043074D01*
X011855D01*
Y043114D01*
X011835D01*
Y043134D01*
X011795D01*
Y043114D01*
X011775D01*
Y043074D01*
X011795D01*
X012597Y043519D02*
Y043479D01*
X012677D01*
Y043519D01*
X012717D01*
Y043599D01*
X012677D01*
Y043639D01*
X012597D01*
Y043599D01*
X012557D01*
Y043519D01*
X012597D01*
X012617Y043539D02*
Y043519D01*
X012657D01*
Y043539D01*
X012677D01*
Y043579D01*
X012657D01*
Y043599D01*
X012617D01*
Y043579D01*
X012597D01*
Y043539D01*
X012617D01*
X012597Y043019D02*
Y042979D01*
X012677D01*
Y043019D01*
X012717D01*
Y043099D01*
X012677D01*
Y043139D01*
X012597D01*
Y043099D01*
X012557D01*
Y043019D01*
X012597D01*
X012617Y043039D02*
Y043019D01*
X012657D01*
Y043039D01*
X012677D01*
Y043079D01*
X012657D01*
Y043099D01*
X012617D01*
Y043079D01*
X012597D01*
Y043039D01*
X012617D01*
X010289Y032784D02*
Y032744D01*
X010369D01*
Y032784D01*
X010409D01*
Y032864D01*
X010369D01*
Y032904D01*
X010289D01*
Y032864D01*
X010249D01*
Y032784D01*
X010289D01*
X010309Y032804D02*
Y032784D01*
X010349D01*
Y032804D01*
X010369D01*
Y032844D01*
X010349D01*
Y032864D01*
X010309D01*
Y032844D01*
X010289D01*
Y032804D01*
X010309D01*
X010289Y032284D02*
Y032244D01*
X010369D01*
Y032284D01*
X010409D01*
Y032364D01*
X010369D01*
Y032404D01*
X010289D01*
Y032364D01*
X010249D01*
Y032284D01*
X010289D01*
X010309Y032304D02*
Y032284D01*
X010349D01*
Y032304D01*
X010369D01*
Y032344D01*
X010349D01*
Y032364D01*
X010309D01*
Y032344D01*
X010289D01*
Y032304D01*
X010309D01*
X011111Y032749D02*
Y032709D01*
X011191D01*
Y032749D01*
X011231D01*
Y032829D01*
X011191D01*
Y032869D01*
X011111D01*
Y032829D01*
X011071D01*
Y032749D01*
X011111D01*
X011131Y032769D02*
Y032749D01*
X011171D01*
Y032769D01*
X011191D01*
Y032809D01*
X011171D01*
Y032829D01*
X011131D01*
Y032809D01*
X011111D01*
Y032769D01*
X011131D01*
X011111Y032249D02*
Y032209D01*
X011191D01*
Y032249D01*
X011231D01*
Y032329D01*
X011191D01*
Y032369D01*
X011111D01*
Y032329D01*
X011071D01*
Y032249D01*
X011111D01*
X011131Y032269D02*
Y032249D01*
X011171D01*
Y032269D01*
X011191D01*
Y032309D01*
X011171D01*
Y032329D01*
X011131D01*
Y032309D01*
X011111D01*
Y032269D01*
X011131D01*
X011103Y03311D02*
Y03307D01*
X011183D01*
Y03311D01*
X011223D01*
Y03319D01*
X011183D01*
Y03323D01*
X011103D01*
Y03319D01*
X011063D01*
Y03311D01*
X011103D01*
X011123Y03313D02*
Y03311D01*
X011163D01*
Y03313D01*
X011183D01*
Y03317D01*
X011163D01*
Y03319D01*
X011123D01*
Y03317D01*
X011103D01*
Y03313D01*
X011123D01*
X010307Y03311D02*
Y03307D01*
X010387D01*
Y03311D01*
X010427D01*
Y03319D01*
X010387D01*
Y03323D01*
X010307D01*
Y03319D01*
X010267D01*
Y03311D01*
X010307D01*
X010327Y03313D02*
Y03311D01*
X010367D01*
Y03313D01*
X010387D01*
Y03317D01*
X010367D01*
Y03319D01*
X010327D01*
Y03317D01*
X010307D01*
Y03313D01*
X010327D01*
X013029Y031112D02*
Y031072D01*
X013109D01*
Y031112D01*
X013149D01*
Y031192D01*
X013109D01*
Y031232D01*
X013029D01*
Y031192D01*
X012989D01*
Y031112D01*
X013029D01*
X013049Y031132D02*
Y031112D01*
X013089D01*
Y031132D01*
X013109D01*
Y031172D01*
X013089D01*
Y031192D01*
X013049D01*
Y031172D01*
X013029D01*
Y031132D01*
X013049D01*
X012532Y031059D02*
Y031019D01*
X012612D01*
Y031059D01*
X012652D01*
Y031139D01*
X012612D01*
Y031179D01*
X012532D01*
Y031139D01*
X012492D01*
Y031059D01*
X012532D01*
X012552Y031079D02*
Y031059D01*
X012592D01*
Y031079D01*
X012612D01*
Y031119D01*
X012592D01*
Y031139D01*
X012552D01*
Y031119D01*
X012532D01*
Y031079D01*
X012552D01*
X012032Y031059D02*
Y031019D01*
X012112D01*
Y031059D01*
X012152D01*
Y031139D01*
X012112D01*
Y031179D01*
X012032D01*
Y031139D01*
X011992D01*
Y031059D01*
X012032D01*
X012052Y031079D02*
Y031059D01*
X012092D01*
Y031079D01*
X012112D01*
Y031119D01*
X012092D01*
Y031139D01*
X012052D01*
Y031119D01*
X012032D01*
Y031079D01*
X012052D01*
X011532Y031059D02*
Y031019D01*
X011612D01*
Y031059D01*
X011652D01*
Y031139D01*
X011612D01*
Y031179D01*
X011532D01*
Y031139D01*
X011492D01*
Y031059D01*
X011532D01*
X011552Y031079D02*
Y031059D01*
X011592D01*
Y031079D01*
X011612D01*
Y031119D01*
X011592D01*
Y031139D01*
X011552D01*
Y031119D01*
X011532D01*
Y031079D01*
X011552D01*
X013113Y03189D02*
Y03185D01*
X013193D01*
Y03189D01*
X013233D01*
Y03197D01*
X013193D01*
Y03201D01*
X013113D01*
Y03197D01*
X013073D01*
Y03189D01*
X013113D01*
X013133Y03191D02*
Y03189D01*
X013173D01*
Y03191D01*
X013193D01*
Y03195D01*
X013173D01*
Y03197D01*
X013133D01*
Y03195D01*
X013113D01*
Y03191D01*
X013133D01*
X012616Y031837D02*
Y031797D01*
X012696D01*
Y031837D01*
X012736D01*
Y031917D01*
X012696D01*
Y031957D01*
X012616D01*
Y031917D01*
X012576D01*
Y031837D01*
X012616D01*
X012636Y031857D02*
Y031837D01*
X012676D01*
Y031857D01*
X012696D01*
Y031897D01*
X012676D01*
Y031917D01*
X012636D01*
Y031897D01*
X012616D01*
Y031857D01*
X012636D01*
X012116Y031837D02*
Y031797D01*
X012196D01*
Y031837D01*
X012236D01*
Y031917D01*
X012196D01*
Y031957D01*
X012116D01*
Y031917D01*
X012076D01*
Y031837D01*
X012116D01*
X012136Y031857D02*
Y031837D01*
X012176D01*
Y031857D01*
X012196D01*
Y031897D01*
X012176D01*
Y031917D01*
X012136D01*
Y031897D01*
X012116D01*
Y031857D01*
X012136D01*
X011616Y031837D02*
Y031797D01*
X011696D01*
Y031837D01*
X011736D01*
Y031917D01*
X011696D01*
Y031957D01*
X011616D01*
Y031917D01*
X011576D01*
Y031837D01*
X011616D01*
X011636Y031857D02*
Y031837D01*
X011676D01*
Y031857D01*
X011696D01*
Y031897D01*
X011676D01*
Y031917D01*
X011636D01*
Y031897D01*
X011616D01*
Y031857D01*
X011636D01*
X011129Y033603D02*
Y033563D01*
X011209D01*
Y033603D01*
X011249D01*
Y033683D01*
X011209D01*
Y033723D01*
X011129D01*
Y033683D01*
X011089D01*
Y033603D01*
X011129D01*
X011149Y033623D02*
Y033603D01*
X011189D01*
Y033623D01*
X011209D01*
Y033663D01*
X011189D01*
Y033683D01*
X011149D01*
Y033663D01*
X011129D01*
Y033623D01*
X011149D01*
X011129Y034103D02*
Y034063D01*
X011209D01*
Y034103D01*
X011249D01*
Y034183D01*
X011209D01*
Y034223D01*
X011129D01*
Y034183D01*
X011089D01*
Y034103D01*
X011129D01*
X011149Y034123D02*
Y034103D01*
X011189D01*
Y034123D01*
X011209D01*
Y034163D01*
X011189D01*
Y034183D01*
X011149D01*
Y034163D01*
X011129D01*
Y034123D01*
X011149D01*
X011129Y034603D02*
Y034563D01*
X011209D01*
Y034603D01*
X011249D01*
Y034683D01*
X011209D01*
Y034723D01*
X011129D01*
Y034683D01*
X011089D01*
Y034603D01*
X011129D01*
X011149Y034623D02*
Y034603D01*
X011189D01*
Y034623D01*
X011209D01*
Y034663D01*
X011189D01*
Y034683D01*
X011149D01*
Y034663D01*
X011129D01*
Y034623D01*
X011149D01*
X011103Y035074D02*
Y035034D01*
X011183D01*
Y035074D01*
X011223D01*
Y035154D01*
X011183D01*
Y035194D01*
X011103D01*
Y035154D01*
X011063D01*
Y035074D01*
X011103D01*
X011123Y035094D02*
Y035074D01*
X011163D01*
Y035094D01*
X011183D01*
Y035134D01*
X011163D01*
Y035154D01*
X011123D01*
Y035134D01*
X011103D01*
Y035094D01*
X011123D01*
X01105Y035572D02*
Y035532D01*
X01113D01*
Y035572D01*
X01117D01*
Y035652D01*
X01113D01*
Y035692D01*
X01105D01*
Y035652D01*
X01101D01*
Y035572D01*
X01105D01*
X01107Y035592D02*
Y035572D01*
X01111D01*
Y035592D01*
X01113D01*
Y035632D01*
X01111D01*
Y035652D01*
X01107D01*
Y035632D01*
X01105D01*
Y035592D01*
X01107D01*
X01105Y036072D02*
Y036032D01*
X01113D01*
Y036072D01*
X01117D01*
Y036152D01*
X01113D01*
Y036192D01*
X01105D01*
Y036152D01*
X01101D01*
Y036072D01*
X01105D01*
X01107Y036092D02*
Y036072D01*
X01111D01*
Y036092D01*
X01113D01*
Y036132D01*
X01111D01*
Y036152D01*
X01107D01*
Y036132D01*
X01105D01*
Y036092D01*
X01107D01*
X01105Y036572D02*
Y036532D01*
X01113D01*
Y036572D01*
X01117D01*
Y036652D01*
X01113D01*
Y036692D01*
X01105D01*
Y036652D01*
X01101D01*
Y036572D01*
X01105D01*
X01107Y036592D02*
Y036572D01*
X01111D01*
Y036592D01*
X01113D01*
Y036632D01*
X01111D01*
Y036652D01*
X01107D01*
Y036632D01*
X01105D01*
Y036592D01*
X01107D01*
X010307Y033638D02*
Y033598D01*
X010387D01*
Y033638D01*
X010427D01*
Y033718D01*
X010387D01*
Y033758D01*
X010307D01*
Y033718D01*
X010267D01*
Y033638D01*
X010307D01*
X010327Y033658D02*
Y033638D01*
X010367D01*
Y033658D01*
X010387D01*
Y033698D01*
X010367D01*
Y033718D01*
X010327D01*
Y033698D01*
X010307D01*
Y033658D01*
X010327D01*
X010307Y034138D02*
Y034098D01*
X010387D01*
Y034138D01*
X010427D01*
Y034218D01*
X010387D01*
Y034258D01*
X010307D01*
Y034218D01*
X010267D01*
Y034138D01*
X010307D01*
X010327Y034158D02*
Y034138D01*
X010367D01*
Y034158D01*
X010387D01*
Y034198D01*
X010367D01*
Y034218D01*
X010327D01*
Y034198D01*
X010307D01*
Y034158D01*
X010327D01*
X010307Y034638D02*
Y034598D01*
X010387D01*
Y034638D01*
X010427D01*
Y034718D01*
X010387D01*
Y034758D01*
X010307D01*
Y034718D01*
X010267D01*
Y034638D01*
X010307D01*
X010327Y034658D02*
Y034638D01*
X010367D01*
Y034658D01*
X010387D01*
Y034698D01*
X010367D01*
Y034718D01*
X010327D01*
Y034698D01*
X010307D01*
Y034658D01*
X010327D01*
X010361Y035074D02*
Y035034D01*
X010441D01*
Y035074D01*
X010481D01*
Y035154D01*
X010441D01*
Y035194D01*
X010361D01*
Y035154D01*
X010321D01*
Y035074D01*
X010361D01*
X010381Y035094D02*
Y035074D01*
X010421D01*
Y035094D01*
X010441D01*
Y035134D01*
X010421D01*
Y035154D01*
X010381D01*
Y035134D01*
X010361D01*
Y035094D01*
X010381D01*
X010307Y035572D02*
Y035532D01*
X010387D01*
Y035572D01*
X010427D01*
Y035652D01*
X010387D01*
Y035692D01*
X010307D01*
Y035652D01*
X010267D01*
Y035572D01*
X010307D01*
X010327Y035592D02*
Y035572D01*
X010367D01*
Y035592D01*
X010387D01*
Y035632D01*
X010367D01*
Y035652D01*
X010327D01*
Y035632D01*
X010307D01*
Y035592D01*
X010327D01*
X010307Y036072D02*
Y036032D01*
X010387D01*
Y036072D01*
X010427D01*
Y036152D01*
X010387D01*
Y036192D01*
X010307D01*
Y036152D01*
X010267D01*
Y036072D01*
X010307D01*
X010327Y036092D02*
Y036072D01*
X010367D01*
Y036092D01*
X010387D01*
Y036132D01*
X010367D01*
Y036152D01*
X010327D01*
Y036132D01*
X010307D01*
Y036092D01*
X010327D01*
X010307Y036572D02*
Y036532D01*
X010387D01*
Y036572D01*
X010427D01*
Y036652D01*
X010387D01*
Y036692D01*
X010307D01*
Y036652D01*
X010267D01*
Y036572D01*
X010307D01*
X010327Y036592D02*
Y036572D01*
X010367D01*
Y036592D01*
X010387D01*
Y036632D01*
X010367D01*
Y036652D01*
X010327D01*
Y036632D01*
X010307D01*
Y036592D01*
X010327D01*
X011764Y040641D02*
Y040601D01*
X011844D01*
Y040641D01*
X011884D01*
Y040721D01*
X011844D01*
Y040761D01*
X011764D01*
Y040721D01*
X011724D01*
Y040641D01*
X011764D01*
X011784Y040661D02*
Y040641D01*
X011824D01*
Y040661D01*
X011844D01*
Y040701D01*
X011824D01*
Y040721D01*
X011784D01*
Y040701D01*
X011764D01*
Y040661D01*
X011784D01*
X011779Y040141D02*
Y040101D01*
X011859D01*
Y040141D01*
X011899D01*
Y040221D01*
X011859D01*
Y040261D01*
X011779D01*
Y040221D01*
X011739D01*
Y040141D01*
X011779D01*
X011799Y040161D02*
Y040141D01*
X011839D01*
Y040161D01*
X011859D01*
Y040201D01*
X011839D01*
Y040221D01*
X011799D01*
Y040201D01*
X011779D01*
Y040161D01*
X011799D01*
X011693Y039649D02*
Y039609D01*
X011773D01*
Y039649D01*
X011813D01*
Y039729D01*
X011773D01*
Y039769D01*
X011693D01*
Y039729D01*
X011653D01*
Y039649D01*
X011693D01*
X011713Y039669D02*
Y039649D01*
X011753D01*
Y039669D01*
X011773D01*
Y039709D01*
X011753D01*
Y039729D01*
X011713D01*
Y039709D01*
X011693D01*
Y039669D01*
X011713D01*
X011693Y039149D02*
Y039109D01*
X011773D01*
Y039149D01*
X011813D01*
Y039229D01*
X011773D01*
Y039269D01*
X011693D01*
Y039229D01*
X011653D01*
Y039149D01*
X011693D01*
X011713Y039169D02*
Y039149D01*
X011753D01*
Y039169D01*
X011773D01*
Y039209D01*
X011753D01*
Y039229D01*
X011713D01*
Y039209D01*
X011693D01*
Y039169D01*
X011713D01*
X011882Y038686D02*
Y038646D01*
X011962D01*
Y038686D01*
X012002D01*
Y038766D01*
X011962D01*
Y038806D01*
X011882D01*
Y038766D01*
X011842D01*
Y038686D01*
X011882D01*
X011902Y038706D02*
Y038686D01*
X011942D01*
Y038706D01*
X011962D01*
Y038746D01*
X011942D01*
Y038766D01*
X011902D01*
Y038746D01*
X011882D01*
Y038706D01*
X011902D01*
X011565Y038299D02*
Y038259D01*
X011645D01*
Y038299D01*
X011685D01*
Y038379D01*
X011645D01*
Y038419D01*
X011565D01*
Y038379D01*
X011525D01*
Y038299D01*
X011565D01*
X011585Y038319D02*
Y038299D01*
X011625D01*
Y038319D01*
X011645D01*
Y038359D01*
X011625D01*
Y038379D01*
X011585D01*
Y038359D01*
X011565D01*
Y038319D01*
X011585D01*
X011211Y037945D02*
Y037905D01*
X011291D01*
Y037945D01*
X011331D01*
Y038025D01*
X011291D01*
Y038065D01*
X011211D01*
Y038025D01*
X011171D01*
Y037945D01*
X011211D01*
X011231Y037965D02*
Y037945D01*
X011271D01*
Y037965D01*
X011291D01*
Y038005D01*
X011271D01*
Y038025D01*
X011231D01*
Y038005D01*
X011211D01*
Y037965D01*
X011231D01*
X010858Y037592D02*
Y037552D01*
X010938D01*
Y037592D01*
X010978D01*
Y037672D01*
X010938D01*
Y037712D01*
X010858D01*
Y037672D01*
X010818D01*
Y037592D01*
X010858D01*
X010878Y037612D02*
Y037592D01*
X010918D01*
Y037612D01*
X010938D01*
Y037652D01*
X010918D01*
Y037672D01*
X010878D01*
Y037652D01*
X010858D01*
Y037612D01*
X010878D01*
X010544Y037203D02*
Y037163D01*
X010624D01*
Y037203D01*
X010664D01*
Y037283D01*
X010624D01*
Y037323D01*
X010544D01*
Y037283D01*
X010504D01*
Y037203D01*
X010544D01*
X010564Y037223D02*
Y037203D01*
X010604D01*
Y037223D01*
X010624D01*
Y037263D01*
X010604D01*
Y037283D01*
X010564D01*
Y037263D01*
X010544D01*
Y037223D01*
X010564D01*
X010436Y031734D02*
Y031694D01*
X010516D01*
Y031734D01*
X010556D01*
Y031814D01*
X010516D01*
Y031854D01*
X010436D01*
Y031814D01*
X010396D01*
Y031734D01*
X010436D01*
X010456Y031754D02*
Y031734D01*
X010496D01*
Y031754D01*
X010516D01*
Y031794D01*
X010496D01*
Y031814D01*
X010456D01*
Y031794D01*
X010436D01*
Y031754D01*
X010456D01*
X010721Y031324D02*
Y031284D01*
X010801D01*
Y031324D01*
X010841D01*
Y031404D01*
X010801D01*
Y031444D01*
X010721D01*
Y031404D01*
X010681D01*
Y031324D01*
X010721D01*
X010741Y031344D02*
Y031324D01*
X010781D01*
Y031344D01*
X010801D01*
Y031384D01*
X010781D01*
Y031404D01*
X010741D01*
Y031384D01*
X010721D01*
Y031344D01*
X010741D01*
X011076Y031964D02*
Y031924D01*
X011156D01*
Y031964D01*
X011196D01*
Y032044D01*
X011156D01*
Y032084D01*
X011076D01*
Y032044D01*
X011036D01*
Y031964D01*
X011076D01*
X011096Y031984D02*
Y031964D01*
X011136D01*
Y031984D01*
X011156D01*
Y032024D01*
X011136D01*
Y032044D01*
X011096D01*
Y032024D01*
X011076D01*
Y031984D01*
X011096D01*
X011187Y036945D02*
Y036905D01*
X011267D01*
Y036945D01*
X011307D01*
Y037025D01*
X011267D01*
Y037065D01*
X011187D01*
Y037025D01*
X011147D01*
Y036945D01*
X011187D01*
X011207Y036965D02*
Y036945D01*
X011247D01*
Y036965D01*
X011267D01*
Y037005D01*
X011247D01*
Y037025D01*
X011207D01*
Y037005D01*
X011187D01*
Y036965D01*
X011207D01*
X011537Y037303D02*
Y037263D01*
X011617D01*
Y037303D01*
X011657D01*
Y037383D01*
X011617D01*
Y037423D01*
X011537D01*
Y037383D01*
X011497D01*
Y037303D01*
X011537D01*
X011557Y037323D02*
Y037303D01*
X011597D01*
Y037323D01*
X011617D01*
Y037363D01*
X011597D01*
Y037383D01*
X011557D01*
Y037363D01*
X011537D01*
Y037323D01*
X011557D01*
X01189Y037656D02*
Y037616D01*
X01197D01*
Y037656D01*
X01201D01*
Y037736D01*
X01197D01*
Y037776D01*
X01189D01*
Y037736D01*
X01185D01*
Y037656D01*
X01189D01*
X01191Y037676D02*
Y037656D01*
X01195D01*
Y037676D01*
X01197D01*
Y037716D01*
X01195D01*
Y037736D01*
X01191D01*
Y037716D01*
X01189D01*
Y037676D01*
X01191D01*
X012242Y038011D02*
Y037971D01*
X012322D01*
Y038011D01*
X012362D01*
Y038091D01*
X012322D01*
Y038131D01*
X012242D01*
Y038091D01*
X012202D01*
Y038011D01*
X012242D01*
X012262Y038031D02*
Y038011D01*
X012302D01*
Y038031D01*
X012322D01*
Y038071D01*
X012302D01*
Y038091D01*
X012262D01*
Y038071D01*
X012242D01*
Y038031D01*
X012262D01*
X01251Y038434D02*
Y038394D01*
X01259D01*
Y038434D01*
X01263D01*
Y038514D01*
X01259D01*
Y038554D01*
X01251D01*
Y038514D01*
X01247D01*
Y038434D01*
X01251D01*
X01253Y038454D02*
Y038434D01*
X01257D01*
Y038454D01*
X01259D01*
Y038494D01*
X01257D01*
Y038514D01*
X01253D01*
Y038494D01*
X01251D01*
Y038454D01*
X01253D01*
X012723Y038886D02*
Y038846D01*
X012803D01*
Y038886D01*
X012843D01*
Y038966D01*
X012803D01*
Y039006D01*
X012723D01*
Y038966D01*
X012683D01*
Y038886D01*
X012723D01*
X012743Y038906D02*
Y038886D01*
X012783D01*
Y038906D01*
X012803D01*
Y038946D01*
X012783D01*
Y038966D01*
X012743D01*
Y038946D01*
X012723D01*
Y038906D01*
X012743D01*
X012824Y03987D02*
Y03983D01*
X012904D01*
Y03987D01*
X012944D01*
Y03995D01*
X012904D01*
Y03999D01*
X012824D01*
Y03995D01*
X012784D01*
Y03987D01*
X012824D01*
X012844Y03989D02*
Y03987D01*
X012884D01*
Y03989D01*
X012904D01*
Y03993D01*
X012884D01*
Y03995D01*
X012844D01*
Y03993D01*
X012824D01*
Y03989D01*
X012844D01*
X012645Y040336D02*
Y040296D01*
X012725D01*
Y040336D01*
X012765D01*
Y040416D01*
X012725D01*
Y040456D01*
X012645D01*
Y040416D01*
X012605D01*
Y040336D01*
X012645D01*
X012665Y040356D02*
Y040336D01*
X012705D01*
Y040356D01*
X012725D01*
Y040396D01*
X012705D01*
Y040416D01*
X012665D01*
Y040396D01*
X012645D01*
Y040356D01*
X012665D01*
X012439Y040792D02*
Y040752D01*
X012519D01*
Y040792D01*
X012559D01*
Y040872D01*
X012519D01*
Y040912D01*
X012439D01*
Y040872D01*
X012399D01*
Y040792D01*
X012439D01*
X012459Y040812D02*
Y040792D01*
X012499D01*
Y040812D01*
X012519D01*
Y040852D01*
X012499D01*
Y040872D01*
X012459D01*
Y040852D01*
X012439D01*
Y040812D01*
X012459D01*
X02092Y04492D02*
X02096Y045D01*
X02092Y04508D01*
X021Y04504D01*
X02108Y04508D01*
X02104Y045D01*
X02108Y04492D01*
X021Y04496D01*
X02092Y04492D01*
X02096Y04496D02*
X02098Y045D01*
X02096Y04504D01*
X021Y04502D01*
X02104Y04504D01*
X02102Y045D01*
X02104Y04496D01*
X021Y04498D01*
X02096Y04496D01*
X02092Y03892D02*
X02096Y039D01*
X02092Y03908D01*
X021Y03904D01*
X02108Y03908D01*
X02104Y039D01*
X02108Y03892D01*
X021Y03896D01*
X02092Y03892D01*
X02096Y03896D02*
X02098Y039D01*
X02096Y03904D01*
X021Y03902D01*
X02104Y03904D01*
X02102Y039D01*
X02104Y03896D01*
X021Y03898D01*
X02096Y03896D01*
X02017Y03742D02*
X02021Y0375D01*
X02017Y03758D01*
X02025Y03754D01*
X02033Y03758D01*
X02029Y0375D01*
X02033Y03742D01*
X02025Y03746D01*
X02017Y03742D01*
X02021Y03746D02*
X02023Y0375D01*
X02021Y03754D01*
X02025Y03752D01*
X02029Y03754D01*
X02027Y0375D01*
X02029Y03746D01*
X02025Y03748D01*
X02021Y03746D01*
X01942Y02992D02*
X01946Y03D01*
X01942Y03008D01*
X0195Y03004D01*
X01958Y03008D01*
X01954Y03D01*
X01958Y02992D01*
X0195Y02996D01*
X01942Y02992D01*
X01946Y02996D02*
X01948Y03D01*
X01946Y03004D01*
X0195Y03002D01*
X01954Y03004D01*
X01952Y03D01*
X01954Y02996D01*
X0195Y02998D01*
X01946Y02996D01*
X01942Y02692D02*
X01946Y027D01*
X01942Y02708D01*
X0195Y02704D01*
X01958Y02708D01*
X01954Y027D01*
X01958Y02692D01*
X0195Y02696D01*
X01942Y02692D01*
X01946Y02696D02*
X01948Y027D01*
X01946Y02704D01*
X0195Y02702D01*
X01954Y02704D01*
X01952Y027D01*
X01954Y02696D01*
X0195Y02698D01*
X01946Y02696D01*
X01792Y03592D02*
X01796Y036D01*
X01792Y03608D01*
X018Y03604D01*
X01808Y03608D01*
X01804Y036D01*
X01808Y03592D01*
X018Y03596D01*
X01792Y03592D01*
X01796Y03596D02*
X01798Y036D01*
X01796Y03604D01*
X018Y03602D01*
X01804Y03604D01*
X01802Y036D01*
X01804Y03596D01*
X018Y03598D01*
X01796Y03596D01*
X01867Y02542D02*
X01871Y0255D01*
X01867Y02558D01*
X01875Y02554D01*
X01883Y02558D01*
X01879Y0255D01*
X01883Y02542D01*
X01875Y02546D01*
X01867Y02542D01*
X01871Y02546D02*
X01873Y0255D01*
X01871Y02554D01*
X01875Y02552D01*
X01879Y02554D01*
X01877Y0255D01*
X01879Y02546D01*
X01875Y02548D01*
X01871Y02546D01*
X01642Y03592D02*
X01646Y036D01*
X01642Y03608D01*
X0165Y03604D01*
X01658Y03608D01*
X01654Y036D01*
X01658Y03592D01*
X0165Y03596D01*
X01642Y03592D01*
X01646Y03596D02*
X01648Y036D01*
X01646Y03604D01*
X0165Y03602D01*
X01654Y03604D01*
X01652Y036D01*
X01654Y03596D01*
X0165Y03598D01*
X01646Y03596D01*
X01717Y02542D02*
X01721Y0255D01*
X01717Y02558D01*
X01725Y02554D01*
X01733Y02558D01*
X01729Y0255D01*
X01733Y02542D01*
X01725Y02546D01*
X01717Y02542D01*
X01721Y02546D02*
X01723Y0255D01*
X01721Y02554D01*
X01725Y02552D01*
X01729Y02554D01*
X01727Y0255D01*
X01729Y02546D01*
X01725Y02548D01*
X01721Y02546D01*
X01492Y03592D02*
X01496Y036D01*
X01492Y03608D01*
X015Y03604D01*
X01508Y03608D01*
X01504Y036D01*
X01508Y03592D01*
X015Y03596D01*
X01492Y03592D01*
X01496Y03596D02*
X01498Y036D01*
X01496Y03604D01*
X015Y03602D01*
X01504Y03604D01*
X01502Y036D01*
X01504Y03596D01*
X015Y03598D01*
X01496Y03596D01*
X01342Y04492D02*
X01346Y045D01*
X01342Y04508D01*
X0135Y04504D01*
X01358Y04508D01*
X01354Y045D01*
X01358Y04492D01*
X0135Y04496D01*
X01342Y04492D01*
X01346Y04496D02*
X01348Y045D01*
X01346Y04504D01*
X0135Y04502D01*
X01354Y04504D01*
X01352Y045D01*
X01354Y04496D01*
X0135Y04498D01*
X01346Y04496D01*
X01417Y04342D02*
X01421Y0435D01*
X01417Y04358D01*
X01425Y04354D01*
X01433Y04358D01*
X01429Y0435D01*
X01433Y04342D01*
X01425Y04346D01*
X01417Y04342D01*
X01421Y04346D02*
X01423Y0435D01*
X01421Y04354D01*
X01425Y04352D01*
X01429Y04354D01*
X01427Y0435D01*
X01429Y04346D01*
X01425Y04348D01*
X01421Y04346D01*
X01417Y04042D02*
X01421Y0405D01*
X01417Y04058D01*
X01425Y04054D01*
X01433Y04058D01*
X01429Y0405D01*
X01433Y04042D01*
X01425Y04046D01*
X01417Y04042D01*
X01421Y04046D02*
X01423Y0405D01*
X01421Y04054D01*
X01425Y04052D01*
X01429Y04054D01*
X01427Y0405D01*
X01429Y04046D01*
X01425Y04048D01*
X01421Y04046D01*
X01417Y03742D02*
X01421Y0375D01*
X01417Y03758D01*
X01425Y03754D01*
X01433Y03758D01*
X01429Y0375D01*
X01433Y03742D01*
X01425Y03746D01*
X01417Y03742D01*
X01421Y03746D02*
X01423Y0375D01*
X01421Y03754D01*
X01425Y03752D01*
X01429Y03754D01*
X01427Y0375D01*
X01429Y03746D01*
X01425Y03748D01*
X01421Y03746D01*
X01342Y02992D02*
X01346Y03D01*
X01342Y03008D01*
X0135Y03004D01*
X01358Y03008D01*
X01354Y03D01*
X01358Y02992D01*
X0135Y02996D01*
X01342Y02992D01*
X01346Y02996D02*
X01348Y03D01*
X01346Y03004D01*
X0135Y03002D01*
X01354Y03004D01*
X01352Y03D01*
X01354Y02996D01*
X0135Y02998D01*
X01346Y02996D01*
X01417Y02842D02*
X01421Y0285D01*
X01417Y02858D01*
X01425Y02854D01*
X01433Y02858D01*
X01429Y0285D01*
X01433Y02842D01*
X01425Y02846D01*
X01417Y02842D01*
X01421Y02846D02*
X01423Y0285D01*
X01421Y02854D01*
X01425Y02852D01*
X01429Y02854D01*
X01427Y0285D01*
X01429Y02846D01*
X01425Y02848D01*
X01421Y02846D01*
X01342Y02692D02*
X01346Y027D01*
X01342Y02708D01*
X0135Y02704D01*
X01358Y02708D01*
X01354Y027D01*
X01358Y02692D01*
X0135Y02696D01*
X01342Y02692D01*
X01346Y02696D02*
X01348Y027D01*
X01346Y02704D01*
X0135Y02702D01*
X01354Y02704D01*
X01352Y027D01*
X01354Y02696D01*
X0135Y02698D01*
X01346Y02696D01*
X01417Y02542D02*
X01421Y0255D01*
X01417Y02558D01*
X01425Y02554D01*
X01433Y02558D01*
X01429Y0255D01*
X01433Y02542D01*
X01425Y02546D01*
X01417Y02542D01*
X01421Y02546D02*
X01423Y0255D01*
X01421Y02554D01*
X01425Y02552D01*
X01429Y02554D01*
X01427Y0255D01*
X01429Y02546D01*
X01425Y02548D01*
X01421Y02546D01*
X01342Y02392D02*
X01346Y024D01*
X01342Y02408D01*
X0135Y02404D01*
X01358Y02408D01*
X01354Y024D01*
X01358Y02392D01*
X0135Y02396D01*
X01342Y02392D01*
X01346Y02396D02*
X01348Y024D01*
X01346Y02404D01*
X0135Y02402D01*
X01354Y02404D01*
X01352Y024D01*
X01354Y02396D01*
X0135Y02398D01*
X01346Y02396D01*
X01267Y03742D02*
X01271Y0375D01*
X01267Y03758D01*
X01275Y03754D01*
X01283Y03758D01*
X01279Y0375D01*
X01283Y03742D01*
X01275Y03746D01*
X01267Y03742D01*
X01271Y03746D02*
X01273Y0375D01*
X01271Y03754D01*
X01275Y03752D01*
X01279Y03754D01*
X01277Y0375D01*
X01279Y03746D01*
X01275Y03748D01*
X01271Y03746D01*
X01192Y03592D02*
X01196Y036D01*
X01192Y03608D01*
X012Y03604D01*
X01208Y03608D01*
X01204Y036D01*
X01208Y03592D01*
X012Y03596D01*
X01192Y03592D01*
X01196Y03596D02*
X01198Y036D01*
X01196Y03604D01*
X012Y03602D01*
X01204Y03604D01*
X01202Y036D01*
X01204Y03596D01*
X012Y03598D01*
X01196Y03596D01*
X01192Y02992D02*
X01196Y03D01*
X01192Y03008D01*
X012Y03004D01*
X01208Y03008D01*
X01204Y03D01*
X01208Y02992D01*
X012Y02996D01*
X01192Y02992D01*
X01196Y02996D02*
X01198Y03D01*
X01196Y03004D01*
X012Y03002D01*
X01204Y03004D01*
X01202Y03D01*
X01204Y02996D01*
X012Y02998D01*
X01196Y02996D01*
X01267Y02842D02*
X01271Y0285D01*
X01267Y02858D01*
X01275Y02854D01*
X01283Y02858D01*
X01279Y0285D01*
X01283Y02842D01*
X01275Y02846D01*
X01267Y02842D01*
X01271Y02846D02*
X01273Y0285D01*
X01271Y02854D01*
X01275Y02852D01*
X01279Y02854D01*
X01277Y0285D01*
X01279Y02846D01*
X01275Y02848D01*
X01271Y02846D01*
X01192Y02692D02*
X01196Y027D01*
X01192Y02708D01*
X012Y02704D01*
X01208Y02708D01*
X01204Y027D01*
X01208Y02692D01*
X012Y02696D01*
X01192Y02692D01*
X01196Y02696D02*
X01198Y027D01*
X01196Y02704D01*
X012Y02702D01*
X01204Y02704D01*
X01202Y027D01*
X01204Y02696D01*
X012Y02698D01*
X01196Y02696D01*
X01267Y02542D02*
X01271Y0255D01*
X01267Y02558D01*
X01275Y02554D01*
X01283Y02558D01*
X01279Y0255D01*
X01283Y02542D01*
X01275Y02546D01*
X01267Y02542D01*
X01271Y02546D02*
X01273Y0255D01*
X01271Y02554D01*
X01275Y02552D01*
X01279Y02554D01*
X01277Y0255D01*
X01279Y02546D01*
X01275Y02548D01*
X01271Y02546D01*
X01192Y02392D02*
X01196Y024D01*
X01192Y02408D01*
X012Y02404D01*
X01208Y02408D01*
X01204Y024D01*
X01208Y02392D01*
X012Y02396D01*
X01192Y02392D01*
X01196Y02396D02*
X01198Y024D01*
X01196Y02404D01*
X012Y02402D01*
X01204Y02404D01*
X01202Y024D01*
X01204Y02396D01*
X012Y02398D01*
X01196Y02396D01*
X01042Y04492D02*
X01046Y045D01*
X01042Y04508D01*
X0105Y04504D01*
X01058Y04508D01*
X01054Y045D01*
X01058Y04492D01*
X0105Y04496D01*
X01042Y04492D01*
X01046Y04496D02*
X01048Y045D01*
X01046Y04504D01*
X0105Y04502D01*
X01054Y04504D01*
X01052Y045D01*
X01054Y04496D01*
X0105Y04498D01*
X01046Y04496D01*
X01042Y04192D02*
X01046Y042D01*
X01042Y04208D01*
X0105Y04204D01*
X01058Y04208D01*
X01054Y042D01*
X01058Y04192D01*
X0105Y04196D01*
X01042Y04192D01*
X01046Y04196D02*
X01048Y042D01*
X01046Y04204D01*
X0105Y04202D01*
X01054Y04204D01*
X01052Y042D01*
X01054Y04196D01*
X0105Y04198D01*
X01046Y04196D01*
X01117Y04042D02*
X01121Y0405D01*
X01117Y04058D01*
X01125Y04054D01*
X01133Y04058D01*
X01129Y0405D01*
X01133Y04042D01*
X01125Y04046D01*
X01117Y04042D01*
X01121Y04046D02*
X01123Y0405D01*
X01121Y04054D01*
X01125Y04052D01*
X01129Y04054D01*
X01127Y0405D01*
X01129Y04046D01*
X01125Y04048D01*
X01121Y04046D01*
X01042Y03892D02*
X01046Y039D01*
X01042Y03908D01*
X0105Y03904D01*
X01058Y03908D01*
X01054Y039D01*
X01058Y03892D01*
X0105Y03896D01*
X01042Y03892D01*
X01046Y03896D02*
X01048Y039D01*
X01046Y03904D01*
X0105Y03902D01*
X01054Y03904D01*
X01052Y039D01*
X01054Y03896D01*
X0105Y03898D01*
X01046Y03896D01*
X01042Y02992D02*
X01046Y03D01*
X01042Y03008D01*
X0105Y03004D01*
X01058Y03008D01*
X01054Y03D01*
X01058Y02992D01*
X0105Y02996D01*
X01042Y02992D01*
X01046Y02996D02*
X01048Y03D01*
X01046Y03004D01*
X0105Y03002D01*
X01054Y03004D01*
X01052Y03D01*
X01054Y02996D01*
X0105Y02998D01*
X01046Y02996D01*
X01117Y02842D02*
X01121Y0285D01*
X01117Y02858D01*
X01125Y02854D01*
X01133Y02858D01*
X01129Y0285D01*
X01133Y02842D01*
X01125Y02846D01*
X01117Y02842D01*
X01121Y02846D02*
X01123Y0285D01*
X01121Y02854D01*
X01125Y02852D01*
X01129Y02854D01*
X01127Y0285D01*
X01129Y02846D01*
X01125Y02848D01*
X01121Y02846D01*
X01042Y02692D02*
X01046Y027D01*
X01042Y02708D01*
X0105Y02704D01*
X01058Y02708D01*
X01054Y027D01*
X01058Y02692D01*
X0105Y02696D01*
X01042Y02692D01*
X01046Y02696D02*
X01048Y027D01*
X01046Y02704D01*
X0105Y02702D01*
X01054Y02704D01*
X01052Y027D01*
X01054Y02696D01*
X0105Y02698D01*
X01046Y02696D01*
X01117Y02542D02*
X01121Y0255D01*
X01117Y02558D01*
X01125Y02554D01*
X01133Y02558D01*
X01129Y0255D01*
X01133Y02542D01*
X01125Y02546D01*
X01117Y02542D01*
X01121Y02546D02*
X01123Y0255D01*
X01121Y02554D01*
X01125Y02552D01*
X01129Y02554D01*
X01127Y0255D01*
X01129Y02546D01*
X01125Y02548D01*
X01121Y02546D01*
X01042Y02392D02*
X01046Y024D01*
X01042Y02408D01*
X0105Y02404D01*
X01058Y02408D01*
X01054Y024D01*
X01058Y02392D01*
X0105Y02396D01*
X01042Y02392D01*
X01046Y02396D02*
X01048Y024D01*
X01046Y02404D01*
X0105Y02402D01*
X01054Y02404D01*
X01052Y024D01*
X01054Y02396D01*
X0105Y02398D01*
X01046Y02396D01*
X021742Y024298D02*
X021782Y024378D01*
X021742Y024458D01*
X021822Y024418D01*
X021902Y024458D01*
X021862Y024378D01*
X021902Y024298D01*
X021822Y024338D01*
X021742Y024298D01*
X021782Y024338D02*
X021802Y024378D01*
X021782Y024418D01*
X021822Y024398D01*
X021862Y024418D01*
X021842Y024378D01*
X021862Y024338D01*
X021822Y024358D01*
X021782Y024338D01*
X016127Y039182D02*
X016167Y039262D01*
X016127Y039342D01*
X016207Y039302D01*
X016287Y039342D01*
X016247Y039262D01*
X016287Y039182D01*
X016207Y039222D01*
X016127Y039182D01*
X016167Y039222D02*
X016187Y039262D01*
X016167Y039302D01*
X016207Y039282D01*
X016247Y039302D01*
X016227Y039262D01*
X016247Y039222D01*
X016207Y039242D01*
X016167Y039222D01*
X015288Y03922D02*
X015328Y0393D01*
X015288Y03938D01*
X015368Y03934D01*
X015448Y03938D01*
X015408Y0393D01*
X015448Y03922D01*
X015368Y03926D01*
X015288Y03922D01*
X015328Y03926D02*
X015348Y0393D01*
X015328Y03934D01*
X015368Y03932D01*
X015408Y03934D01*
X015388Y0393D01*
X015408Y03926D01*
X015368Y03928D01*
X015328Y03926D01*
X017932Y038995D02*
X017972Y039075D01*
X017932Y039155D01*
X018012Y039115D01*
X018092Y039155D01*
X018052Y039075D01*
X018092Y038995D01*
X018012Y039035D01*
X017932Y038995D01*
X017972Y039035D02*
X017992Y039075D01*
X017972Y039115D01*
X018012Y039095D01*
X018052Y039115D01*
X018032Y039075D01*
X018052Y039035D01*
X018012Y039055D01*
X017972Y039035D01*
X02287Y04127D02*
X02291Y04135D01*
X02287Y04143D01*
X02295Y04139D01*
X02303Y04143D01*
X02299Y04135D01*
X02303Y04127D01*
X02295Y04131D01*
X02287Y04127D01*
X02291Y04131D02*
X02293Y04135D01*
X02291Y04139D01*
X02295Y04137D01*
X02299Y04139D01*
X02297Y04135D01*
X02299Y04131D01*
X02295Y04133D01*
X02291Y04131D01*
X02182Y02897D02*
X02186Y02905D01*
X02182Y02913D01*
X0219Y02909D01*
X02198Y02913D01*
X02194Y02905D01*
X02198Y02897D01*
X0219Y02901D01*
X02182Y02897D01*
X02186Y02901D02*
X02188Y02905D01*
X02186Y02909D01*
X0219Y02907D01*
X02194Y02909D01*
X02192Y02905D01*
X02194Y02901D01*
X0219Y02903D01*
X02186Y02901D01*
X02102Y02992D02*
X02106Y03D01*
X02102Y03008D01*
X0211Y03004D01*
X02118Y03008D01*
X02114Y03D01*
X02118Y02992D01*
X0211Y02996D01*
X02102Y02992D01*
X02106Y02996D02*
X02108Y03D01*
X02106Y03004D01*
X0211Y03002D01*
X02114Y03004D01*
X02112Y03D01*
X02114Y02996D01*
X0211Y02998D01*
X02106Y02996D01*
X02057Y02907D02*
X02061Y02915D01*
X02057Y02923D01*
X02065Y02919D01*
X02073Y02923D01*
X02069Y02915D01*
X02073Y02907D01*
X02065Y02911D01*
X02057Y02907D01*
X02061Y02911D02*
X02063Y02915D01*
X02061Y02919D01*
X02065Y02917D01*
X02069Y02919D01*
X02067Y02915D01*
X02069Y02911D01*
X02065Y02913D01*
X02061Y02911D01*
X02102Y02362D02*
X02106Y0237D01*
X02102Y02378D01*
X0211Y02374D01*
X02118Y02378D01*
X02114Y0237D01*
X02118Y02362D01*
X0211Y02366D01*
X02102Y02362D01*
X02106Y02366D02*
X02108Y0237D01*
X02106Y02374D01*
X0211Y02372D01*
X02114Y02374D01*
X02112Y0237D01*
X02114Y02366D01*
X0211Y02368D01*
X02106Y02366D01*
X02272Y04277D02*
X02276Y04285D01*
X02272Y04293D01*
X0228Y04289D01*
X02288Y04293D01*
X02284Y04285D01*
X02288Y04277D01*
X0228Y04281D01*
X02272Y04277D01*
X02276Y04281D02*
X02278Y04285D01*
X02276Y04289D01*
X0228Y04287D01*
X02284Y04289D01*
X02282Y04285D01*
X02284Y04281D01*
X0228Y04283D01*
X02276Y04281D01*
X03242Y02942D02*
X03246Y0295D01*
X03242Y02958D01*
X0325Y02954D01*
X03258Y02958D01*
X03254Y0295D01*
X03258Y02942D01*
X0325Y02946D01*
X03242Y02942D01*
X03246Y02946D02*
X03248Y0295D01*
X03246Y02954D01*
X0325Y02952D01*
X03254Y02954D01*
X03252Y0295D01*
X03254Y02946D01*
X0325Y02948D01*
X03246Y02946D01*
X03242Y02842D02*
X03246Y0285D01*
X03242Y02858D01*
X0325Y02854D01*
X03258Y02858D01*
X03254Y0285D01*
X03258Y02842D01*
X0325Y02846D01*
X03242Y02842D01*
X03246Y02846D02*
X03248Y0285D01*
X03246Y02854D01*
X0325Y02852D01*
X03254Y02854D01*
X03252Y0285D01*
X03254Y02846D01*
X0325Y02848D01*
X03246Y02846D01*
X03237Y030755D02*
X03241Y030835D01*
X03237Y030915D01*
X03245Y030875D01*
X03253Y030915D01*
X03249Y030835D01*
X03253Y030755D01*
X03245Y030795D01*
X03237Y030755D01*
X03241Y030795D02*
X03243Y030835D01*
X03241Y030875D01*
X03245Y030855D01*
X03249Y030875D01*
X03247Y030835D01*
X03249Y030795D01*
X03245Y030815D01*
X03241Y030795D01*
X03231Y031507D02*
X03235Y031587D01*
X03231Y031667D01*
X03239Y031627D01*
X03247Y031667D01*
X03243Y031587D01*
X03247Y031507D01*
X03239Y031547D01*
X03231Y031507D01*
X03235Y031547D02*
X03237Y031587D01*
X03235Y031627D01*
X03239Y031607D01*
X03243Y031627D01*
X03241Y031587D01*
X03243Y031547D01*
X03239Y031567D01*
X03235Y031547D01*
X031638Y03212D02*
X031678Y0322D01*
X031638Y03228D01*
X031718Y03224D01*
X031798Y03228D01*
X031758Y0322D01*
X031798Y03212D01*
X031718Y03216D01*
X031638Y03212D01*
X031678Y03216D02*
X031698Y0322D01*
X031678Y03224D01*
X031718Y03222D01*
X031758Y03224D01*
X031738Y0322D01*
X031758Y03216D01*
X031718Y03218D01*
X031678Y03216D01*
X03114Y033095D02*
X03118Y033175D01*
X03114Y033255D01*
X03122Y033215D01*
X0313Y033255D01*
X03126Y033175D01*
X0313Y033095D01*
X03122Y033135D01*
X03114Y033095D01*
X03118Y033135D02*
X0312Y033175D01*
X03118Y033215D01*
X03122Y033195D01*
X03126Y033215D01*
X03124Y033175D01*
X03126Y033135D01*
X03122Y033155D01*
X03118Y033135D01*
X034426Y041644D02*
X034466Y041724D01*
X034426Y041804D01*
X034506Y041764D01*
X034586Y041804D01*
X034546Y041724D01*
X034586Y041644D01*
X034506Y041684D01*
X034426Y041644D01*
X034466Y041684D02*
X034486Y041724D01*
X034466Y041764D01*
X034506Y041744D01*
X034546Y041764D01*
X034526Y041724D01*
X034546Y041684D01*
X034506Y041704D01*
X034466Y041684D01*
X03482Y040857D02*
X03486Y040937D01*
X03482Y041017D01*
X0349Y040977D01*
X03498Y041017D01*
X03494Y040937D01*
X03498Y040857D01*
X0349Y040897D01*
X03482Y040857D01*
X03486Y040897D02*
X03488Y040937D01*
X03486Y040977D01*
X0349Y040957D01*
X03494Y040977D01*
X03492Y040937D01*
X03494Y040897D01*
X0349Y040917D01*
X03486Y040897D01*
X03482Y039282D02*
X03486Y039362D01*
X03482Y039442D01*
X0349Y039402D01*
X03498Y039442D01*
X03494Y039362D01*
X03498Y039282D01*
X0349Y039322D01*
X03482Y039282D01*
X03486Y039322D02*
X03488Y039362D01*
X03486Y039402D01*
X0349Y039382D01*
X03494Y039402D01*
X03492Y039362D01*
X03494Y039322D01*
X0349Y039342D01*
X03486Y039322D01*
X03482Y037707D02*
X03486Y037787D01*
X03482Y037867D01*
X0349Y037827D01*
X03498Y037867D01*
X03494Y037787D01*
X03498Y037707D01*
X0349Y037747D01*
X03482Y037707D01*
X03486Y037747D02*
X03488Y037787D01*
X03486Y037827D01*
X0349Y037807D01*
X03494Y037827D01*
X03492Y037787D01*
X03494Y037747D01*
X0349Y037767D01*
X03486Y037747D01*
X03482Y036132D02*
X03486Y036212D01*
X03482Y036292D01*
X0349Y036252D01*
X03498Y036292D01*
X03494Y036212D01*
X03498Y036132D01*
X0349Y036172D01*
X03482Y036132D01*
X03486Y036172D02*
X03488Y036212D01*
X03486Y036252D01*
X0349Y036232D01*
X03494Y036252D01*
X03492Y036212D01*
X03494Y036172D01*
X0349Y036192D01*
X03486Y036172D01*
X03482Y034557D02*
X03486Y034637D01*
X03482Y034717D01*
X0349Y034677D01*
X03498Y034717D01*
X03494Y034637D01*
X03498Y034557D01*
X0349Y034597D01*
X03482Y034557D01*
X03486Y034597D02*
X03488Y034637D01*
X03486Y034677D01*
X0349Y034657D01*
X03494Y034677D01*
X03492Y034637D01*
X03494Y034597D01*
X0349Y034617D01*
X03486Y034597D01*
X033639Y041644D02*
X033679Y041724D01*
X033639Y041804D01*
X033719Y041764D01*
X033799Y041804D01*
X033759Y041724D01*
X033799Y041644D01*
X033719Y041684D01*
X033639Y041644D01*
X033679Y041684D02*
X033699Y041724D01*
X033679Y041764D01*
X033719Y041744D01*
X033759Y041764D01*
X033739Y041724D01*
X033759Y041684D01*
X033719Y041704D01*
X033679Y041684D01*
X034033Y040857D02*
X034073Y040937D01*
X034033Y041017D01*
X034113Y040977D01*
X034193Y041017D01*
X034153Y040937D01*
X034193Y040857D01*
X034113Y040897D01*
X034033Y040857D01*
X034073Y040897D02*
X034093Y040937D01*
X034073Y040977D01*
X034113Y040957D01*
X034153Y040977D01*
X034133Y040937D01*
X034153Y040897D01*
X034113Y040917D01*
X034073Y040897D01*
X032851Y041644D02*
X032891Y041724D01*
X032851Y041804D01*
X032931Y041764D01*
X033011Y041804D01*
X032971Y041724D01*
X033011Y041644D01*
X032931Y041684D01*
X032851Y041644D01*
X032891Y041684D02*
X032911Y041724D01*
X032891Y041764D01*
X032931Y041744D01*
X032971Y041764D01*
X032951Y041724D01*
X032971Y041684D01*
X032931Y041704D01*
X032891Y041684D01*
X033778Y031416D02*
X033818Y031496D01*
X033778Y031576D01*
X033858Y031536D01*
X033938Y031576D01*
X033898Y031496D01*
X033938Y031416D01*
X033858Y031456D01*
X033778Y031416D01*
X033818Y031456D02*
X033838Y031496D01*
X033818Y031536D01*
X033858Y031516D01*
X033898Y031536D01*
X033878Y031496D01*
X033898Y031456D01*
X033858Y031476D01*
X033818Y031456D01*
X028266Y012518D02*
X028306Y012598D01*
X028266Y012678D01*
X028346Y012638D01*
X028426Y012678D01*
X028386Y012598D01*
X028426Y012518D01*
X028346Y012558D01*
X028266Y012518D01*
X028306Y012558D02*
X028326Y012598D01*
X028306Y012638D01*
X028346Y012618D01*
X028386Y012638D01*
X028366Y012598D01*
X028386Y012558D01*
X028346Y012578D01*
X028306Y012558D01*
X03212Y02792D02*
X03216Y028D01*
X03212Y02808D01*
X0322Y02804D01*
X03228Y02808D01*
X03224Y028D01*
X03228Y02792D01*
X0322Y02796D01*
X03212Y02792D01*
X03216Y02796D02*
X03218Y028D01*
X03216Y02804D01*
X0322Y02802D01*
X03224Y02804D01*
X03222Y028D01*
X03224Y02796D01*
X0322Y02798D01*
X03216Y02796D01*
X03212Y02722D02*
X03216Y0273D01*
X03212Y02738D01*
X0322Y02734D01*
X03228Y02738D01*
X03224Y0273D01*
X03228Y02722D01*
X0322Y02726D01*
X03212Y02722D01*
X03216Y02726D02*
X03218Y0273D01*
X03216Y02734D01*
X0322Y02732D01*
X03224Y02734D01*
X03222Y0273D01*
X03224Y02726D01*
X0322Y02728D01*
X03216Y02726D01*
X03212Y02652D02*
X03216Y0266D01*
X03212Y02668D01*
X0322Y02664D01*
X03228Y02668D01*
X03224Y0266D01*
X03228Y02652D01*
X0322Y02656D01*
X03212Y02652D01*
X03216Y02656D02*
X03218Y0266D01*
X03216Y02664D01*
X0322Y02662D01*
X03224Y02664D01*
X03222Y0266D01*
X03224Y02656D01*
X0322Y02658D01*
X03216Y02656D01*
X03142Y02792D02*
X03146Y028D01*
X03142Y02808D01*
X0315Y02804D01*
X03158Y02808D01*
X03154Y028D01*
X03158Y02792D01*
X0315Y02796D01*
X03142Y02792D01*
X03146Y02796D02*
X03148Y028D01*
X03146Y02804D01*
X0315Y02802D01*
X03154Y02804D01*
X03152Y028D01*
X03154Y02796D01*
X0315Y02798D01*
X03146Y02796D01*
X03142Y02722D02*
X03146Y0273D01*
X03142Y02738D01*
X0315Y02734D01*
X03158Y02738D01*
X03154Y0273D01*
X03158Y02722D01*
X0315Y02726D01*
X03142Y02722D01*
X03146Y02726D02*
X03148Y0273D01*
X03146Y02734D01*
X0315Y02732D01*
X03154Y02734D01*
X03152Y0273D01*
X03154Y02726D01*
X0315Y02728D01*
X03146Y02726D01*
X03142Y02652D02*
X03146Y0266D01*
X03142Y02668D01*
X0315Y02664D01*
X03158Y02668D01*
X03154Y0266D01*
X03158Y02652D01*
X0315Y02656D01*
X03142Y02652D01*
X03146Y02656D02*
X03148Y0266D01*
X03146Y02664D01*
X0315Y02662D01*
X03154Y02664D01*
X03152Y0266D01*
X03154Y02656D01*
X0315Y02658D01*
X03146Y02656D01*
X03202Y03907D02*
X03206Y03915D01*
X03202Y03923D01*
X0321Y03919D01*
X03218Y03923D01*
X03214Y03915D01*
X03218Y03907D01*
X0321Y03911D01*
X03202Y03907D01*
X03206Y03911D02*
X03208Y03915D01*
X03206Y03919D01*
X0321Y03917D01*
X03214Y03919D01*
X03212Y03915D01*
X03214Y03911D01*
X0321Y03913D01*
X03206Y03911D01*
X01967Y020178D02*
X01971Y020258D01*
X01967Y020338D01*
X01975Y020298D01*
X01983Y020338D01*
X01979Y020258D01*
X01983Y020178D01*
X01975Y020218D01*
X01967Y020178D01*
X01971Y020218D02*
X01973Y020258D01*
X01971Y020298D01*
X01975Y020278D01*
X01979Y020298D01*
X01977Y020258D01*
X01979Y020218D01*
X01975Y020238D01*
X01971Y020218D01*
X0186Y020195D02*
X01864Y020275D01*
X0186Y020355D01*
X01868Y020315D01*
X01876Y020355D01*
X01872Y020275D01*
X01876Y020195D01*
X01868Y020235D01*
X0186Y020195D01*
X01864Y020235D02*
X01866Y020275D01*
X01864Y020315D01*
X01868Y020295D01*
X01872Y020315D01*
X0187Y020275D01*
X01872Y020235D01*
X01868Y020255D01*
X01864Y020235D01*
X017689Y02017D02*
X017729Y02025D01*
X017689Y02033D01*
X017769Y02029D01*
X017849Y02033D01*
X017809Y02025D01*
X017849Y02017D01*
X017769Y02021D01*
X017689Y02017D01*
X017729Y02021D02*
X017749Y02025D01*
X017729Y02029D01*
X017769Y02027D01*
X017809Y02029D01*
X017789Y02025D01*
X017809Y02021D01*
X017769Y02023D01*
X017729Y02021D01*
X016887Y019683D02*
X016927Y019763D01*
X016887Y019843D01*
X016967Y019803D01*
X017047Y019843D01*
X017007Y019763D01*
X017047Y019683D01*
X016967Y019723D01*
X016887Y019683D01*
X016927Y019723D02*
X016947Y019763D01*
X016927Y019803D01*
X016967Y019783D01*
X017007Y019803D01*
X016987Y019763D01*
X017007Y019723D01*
X016967Y019743D01*
X016927Y019723D01*
X01477Y01512D02*
X01481Y0152D01*
X01477Y01528D01*
X01485Y01524D01*
X01493Y01528D01*
X01489Y0152D01*
X01493Y01512D01*
X01485Y01516D01*
X01477Y01512D01*
X01481Y01516D02*
X01483Y0152D01*
X01481Y01524D01*
X01485Y01522D01*
X01489Y01524D01*
X01487Y0152D01*
X01489Y01516D01*
X01485Y01518D01*
X01481Y01516D01*
X01482Y01607D02*
X01486Y01615D01*
X01482Y01623D01*
X0149Y01619D01*
X01498Y01623D01*
X01494Y01615D01*
X01498Y01607D01*
X0149Y01611D01*
X01482Y01607D01*
X01486Y01611D02*
X01488Y01615D01*
X01486Y01619D01*
X0149Y01617D01*
X01494Y01619D01*
X01492Y01615D01*
X01494Y01611D01*
X0149Y01613D01*
X01486Y01611D01*
X015004Y01697D02*
X015044Y01705D01*
X015004Y01713D01*
X015084Y01709D01*
X015164Y01713D01*
X015124Y01705D01*
X015164Y01697D01*
X015084Y01701D01*
X015004Y01697D01*
X015044Y01701D02*
X015064Y01705D01*
X015044Y01709D01*
X015084Y01707D01*
X015124Y01709D01*
X015104Y01705D01*
X015124Y01701D01*
X015084Y01703D01*
X015044Y01701D01*
X02785Y017046D02*
X02789Y017126D01*
X02785Y017206D01*
X02793Y017166D01*
X02801Y017206D01*
X02797Y017126D01*
X02801Y017046D01*
X02793Y017086D01*
X02785Y017046D01*
X02789Y017086D02*
X02791Y017126D01*
X02789Y017166D01*
X02793Y017146D01*
X02797Y017166D01*
X02795Y017126D01*
X02797Y017086D01*
X02793Y017106D01*
X02789Y017086D01*
X02347Y01922D02*
X02351Y0193D01*
X02347Y01938D01*
X02355Y01934D01*
X02363Y01938D01*
X02359Y0193D01*
X02363Y01922D01*
X02355Y01926D01*
X02347Y01922D01*
X02351Y01926D02*
X02353Y0193D01*
X02351Y01934D01*
X02355Y01932D01*
X02359Y01934D01*
X02357Y0193D01*
X02359Y01926D01*
X02355Y01928D01*
X02351Y01926D01*
X01712Y01527D02*
X01716Y01535D01*
X01712Y01543D01*
X0172Y01539D01*
X01728Y01543D01*
X01724Y01535D01*
X01728Y01527D01*
X0172Y01531D01*
X01712Y01527D01*
X01716Y01531D02*
X01718Y01535D01*
X01716Y01539D01*
X0172Y01537D01*
X01724Y01539D01*
X01722Y01535D01*
X01724Y01531D01*
X0172Y01533D01*
X01716Y01531D01*
X031645Y03972D02*
X031685Y0398D01*
X031645Y03988D01*
X031725Y03984D01*
X031805Y03988D01*
X031765Y0398D01*
X031805Y03972D01*
X031725Y03976D01*
X031645Y03972D01*
X031685Y03976D02*
X031705Y0398D01*
X031685Y03984D01*
X031725Y03982D01*
X031765Y03984D01*
X031745Y0398D01*
X031765Y03976D01*
X031725Y03978D01*
X031685Y03976D01*
X023621Y02362D02*
X023661Y0237D01*
X023621Y02378D01*
X023701Y02374D01*
X023781Y02378D01*
X023741Y0237D01*
X023781Y02362D01*
X023701Y02366D01*
X023621Y02362D01*
X023661Y02366D02*
X023681Y0237D01*
X023661Y02374D01*
X023701Y02372D01*
X023741Y02374D01*
X023721Y0237D01*
X023741Y02366D01*
X023701Y02368D01*
X023661Y02366D01*
X01332Y02137D02*
X01336Y02145D01*
X01332Y02153D01*
X0134Y02149D01*
X01348Y02153D01*
X01344Y02145D01*
X01348Y02137D01*
X0134Y02141D01*
X01332Y02137D01*
X01336Y02141D02*
X01338Y02145D01*
X01336Y02149D01*
X0134Y02147D01*
X01344Y02149D01*
X01342Y02145D01*
X01344Y02141D01*
X0134Y02143D01*
X01336Y02141D01*
X01602Y01332D02*
X01606Y0134D01*
X01602Y01348D01*
X0161Y01344D01*
X01618Y01348D01*
X01614Y0134D01*
X01618Y01332D01*
X0161Y01336D01*
X01602Y01332D01*
X01606Y01336D02*
X01608Y0134D01*
X01606Y01344D01*
X0161Y01342D01*
X01614Y01344D01*
X01612Y0134D01*
X01614Y01336D01*
X0161Y01338D01*
X01606Y01336D01*
D138*
X03278Y035433D02*
G03*
X03278Y035433I-00008J0D01*
G01*
X03278Y036433D02*
G03*
X03278Y036433I-00008J0D01*
G01*
Y034433D02*
G03*
X03278Y034433I-00008J0D01*
G01*
X03163Y02415D02*
G03*
X03163Y02415I-00008J0D01*
G01*
Y02515D02*
G03*
X03163Y02515I-00008J0D01*
G01*
Y02315D02*
G03*
X03163Y02315I-00008J0D01*
G01*
X019218Y01465D02*
G03*
X019218Y01465I-00008J0D01*
G01*
Y01701D02*
G03*
X019218Y01701I-00008J0D01*
G01*
Y01622D02*
G03*
X019218Y01622I-00008J0D01*
G01*
Y01544D02*
G03*
X019218Y01544I-00008J0D01*
G01*
Y01386D02*
G03*
X019218Y01386I-00008J0D01*
G01*
Y01307D02*
G03*
X019218Y01307I-00008J0D01*
G01*
Y01229D02*
G03*
X019218Y01229I-00008J0D01*
G01*
Y0115D02*
G03*
X019218Y0115I-00008J0D01*
G01*
X02468D02*
G03*
X02468Y0115I-00008J0D01*
G01*
Y01702D02*
G03*
X02468Y01702I-00008J0D01*
G01*
Y01622D02*
G03*
X02468Y01622I-00008J0D01*
G01*
X02468Y01544D02*
G03*
X02468Y01544I-00008J0D01*
G01*
X02468Y01464D02*
G03*
X02468Y01464I-00008J0D01*
G01*
Y01387D02*
G03*
X02468Y01387I-00008J0D01*
G01*
X02468Y01307D02*
G03*
X02468Y01307I-00008J0D01*
G01*
Y01232D02*
G03*
X02468Y01232I-00008J0D01*
G01*
D139*
X019178Y01465D02*
G03*
X019178Y01465I-00004J0D01*
G01*
Y01701D02*
G03*
X019178Y01701I-00004J0D01*
G01*
Y01622D02*
G03*
X019178Y01622I-00004J0D01*
G01*
Y01544D02*
G03*
X019178Y01544I-00004J0D01*
G01*
Y01386D02*
G03*
X019178Y01386I-00004J0D01*
G01*
Y01307D02*
G03*
X019178Y01307I-00004J0D01*
G01*
Y01229D02*
G03*
X019178Y01229I-00004J0D01*
G01*
Y0115D02*
G03*
X019178Y0115I-00004J0D01*
G01*
X02464D02*
G03*
X02464Y0115I-00004J0D01*
G01*
Y01702D02*
G03*
X02464Y01702I-00004J0D01*
G01*
Y01622D02*
G03*
X02464Y01622I-00004J0D01*
G01*
X02464Y01544D02*
G03*
X02464Y01544I-00004J0D01*
G01*
X02464Y01464D02*
G03*
X02464Y01464I-00004J0D01*
G01*
Y01387D02*
G03*
X02464Y01387I-00004J0D01*
G01*
X02464Y01307D02*
G03*
X02464Y01307I-00004J0D01*
G01*
Y01232D02*
G03*
X02464Y01232I-00004J0D01*
G01*
M02*
